<?xml version="1.0" encoding="utf-8" standalone="no"?>
<!DOCTYPE svg PUBLIC "-//W3C//DTD SVG 1.1//EN"
  "http://www.w3.org/Graphics/SVG/1.1/DTD/svg11.dtd">
<svg xmlns:xlink="http://www.w3.org/1999/xlink" width="453.6pt" height="176.999149pt" viewBox="0 0 453.6 176.999149" xmlns="http://www.w3.org/2000/svg" version="1.1">
 <metadata>
  <rdf:RDF xmlns:dc="http://purl.org/dc/elements/1.1/" xmlns:cc="http://creativecommons.org/ns#" xmlns:rdf="http://www.w3.org/1999/02/22-rdf-syntax-ns#">
   <cc:Work>
    <dc:type rdf:resource="http://purl.org/dc/dcmitype/StillImage"/>
    <dc:date>2025-03-21T21:11:21.183073</dc:date>
    <dc:format>image/svg+xml</dc:format>
    <dc:creator>
     <cc:Agent>
      <dc:title>Matplotlib v3.6.3, https://matplotlib.org/</dc:title>
     </cc:Agent>
    </dc:creator>
   </cc:Work>
  </rdf:RDF>
 </metadata>
 <defs>
  <style type="text/css">*{stroke-linejoin: round; stroke-linecap: butt}</style>
 </defs>
 <g id="figure_1">
  <g id="patch_1">
   <path d="M 0 176.999149 
L 453.6 176.999149 
L 453.6 0 
L 0 0 
z
" style="fill: #ffffff"/>
  </g>
  <g id="axes_1">
   <g id="patch_2">
    <path d="M 7.2 165.52155 
L 446.4 165.52155 
L 446.4 10.509786 
L 7.2 10.509786 
z
" style="fill: #ffffff"/>
   </g>
   <g id="patch_3">
    <path d="M 15.646154 154.260012 
L 15.646154 48.269062 
L 48.768326 48.269062 
L 48.768326 154.260012 
z
" clip-path="url(#p87ae3884d3)" style="fill: #0000ff; opacity: 0.25; stroke: #000000; stroke-linejoin: miter"/>
   </g>
   <g id="patch_4">
    <path d="M 15.646154 154.260012 
L 15.646154 61.517931 
L 48.768326 61.517931 
L 48.768326 154.260012 
z
" clip-path="url(#p87ae3884d3)" style="fill: #ff0000; opacity: 0.25; stroke: #000000; stroke-linejoin: miter"/>
   </g>
   <g id="patch_5">
    <path d="M 48.768326 154.260012 
L 48.768326 69.467252 
L 81.890498 69.467252 
L 81.890498 154.260012 
z
" clip-path="url(#p87ae3884d3)" style="fill: #0000ff; opacity: 0.25; stroke: #000000; stroke-linejoin: miter"/>
   </g>
   <g id="patch_6">
    <path d="M 48.768326 154.260012 
L 48.768326 89.340555 
L 81.890498 89.340555 
L 81.890498 154.260012 
z
" clip-path="url(#p87ae3884d3)" style="fill: #ff0000; opacity: 0.25; stroke: #000000; stroke-linejoin: miter"/>
   </g>
   <g id="patch_7">
    <path d="M 81.890498 154.260012 
L 81.890498 86.425804 
L 115.01267 86.425804 
L 115.01267 154.260012 
z
" clip-path="url(#p87ae3884d3)" style="fill: #0000ff; opacity: 0.25; stroke: #000000; stroke-linejoin: miter"/>
   </g>
   <g id="patch_8">
    <path d="M 81.890498 154.260012 
L 81.890498 108.816392 
L 115.01267 108.816392 
L 115.01267 154.260012 
z
" clip-path="url(#p87ae3884d3)" style="fill: #ff0000; opacity: 0.25; stroke: #000000; stroke-linejoin: miter"/>
   </g>
   <g id="patch_9">
    <path d="M 115.01267 154.260012 
L 115.01267 99.992646 
L 148.134842 99.992646 
L 148.134842 154.260012 
z
" clip-path="url(#p87ae3884d3)" style="fill: #0000ff; opacity: 0.25; stroke: #000000; stroke-linejoin: miter"/>
   </g>
   <g id="patch_10">
    <path d="M 115.01267 154.260012 
L 115.01267 122.449478 
L 148.134842 122.449478 
L 148.134842 154.260012 
z
" clip-path="url(#p87ae3884d3)" style="fill: #ff0000; opacity: 0.25; stroke: #000000; stroke-linejoin: miter"/>
   </g>
   <g id="patch_11">
    <path d="M 148.134842 154.260012 
L 148.134842 110.846119 
L 181.257014 110.846119 
L 181.257014 154.260012 
z
" clip-path="url(#p87ae3884d3)" style="fill: #0000ff; opacity: 0.25; stroke: #000000; stroke-linejoin: miter"/>
   </g>
   <g id="patch_12">
    <path d="M 148.134842 154.260012 
L 148.134842 131.992638 
L 181.257014 131.992638 
L 181.257014 154.260012 
z
" clip-path="url(#p87ae3884d3)" style="fill: #ff0000; opacity: 0.25; stroke: #000000; stroke-linejoin: miter"/>
   </g>
   <g id="patch_13">
    <path d="M 214.379186 154.260012 
L 214.379186 126.47512 
L 247.501357 126.47512 
L 247.501357 154.260012 
z
" clip-path="url(#p87ae3884d3)" style="fill: #00ffff; opacity: 0.25; stroke: #000000; stroke-linejoin: miter"/>
   </g>
   <g id="patch_14">
    <path d="M 214.379186 154.260012 
L 214.379186 143.348999 
L 247.501357 143.348999 
L 247.501357 154.260012 
z
" clip-path="url(#p87ae3884d3)" style="fill: #ff0000; opacity: 0.25; stroke: #000000; stroke-linejoin: miter"/>
   </g>
   <g id="patch_15">
    <path d="M 247.501357 154.260012 
L 247.501357 132.032099 
L 280.623529 132.032099 
L 280.623529 154.260012 
z
" clip-path="url(#p87ae3884d3)" style="fill: #00ffff; opacity: 0.25; stroke: #000000; stroke-linejoin: miter"/>
   </g>
   <g id="patch_16">
    <path d="M 247.501357 154.260012 
L 247.501357 146.622303 
L 280.623529 146.622303 
L 280.623529 154.260012 
z
" clip-path="url(#p87ae3884d3)" style="fill: #ff0000; opacity: 0.25; stroke: #000000; stroke-linejoin: miter"/>
   </g>
   <g id="patch_17">
    <path d="M 280.623529 154.260012 
L 280.623529 136.477681 
L 313.745701 136.477681 
L 313.745701 154.260012 
z
" clip-path="url(#p87ae3884d3)" style="fill: #00ffff; opacity: 0.25; stroke: #000000; stroke-linejoin: miter"/>
   </g>
   <g id="patch_18">
    <path d="M 280.623529 154.260012 
L 280.623529 148.913616 
L 313.745701 148.913616 
L 313.745701 154.260012 
z
" clip-path="url(#p87ae3884d3)" style="fill: #ff0000; opacity: 0.25; stroke: #000000; stroke-linejoin: miter"/>
   </g>
   <g id="patch_19">
    <path d="M 313.745701 154.260012 
L 313.745701 140.034147 
L 346.867873 140.034147 
L 346.867873 154.260012 
z
" clip-path="url(#p87ae3884d3)" style="fill: #00ffff; opacity: 0.25; stroke: #000000; stroke-linejoin: miter"/>
   </g>
   <g id="patch_20">
    <path d="M 313.745701 154.260012 
L 313.745701 150.517535 
L 346.867873 150.517535 
L 346.867873 154.260012 
z
" clip-path="url(#p87ae3884d3)" style="fill: #ff0000; opacity: 0.25; stroke: #000000; stroke-linejoin: miter"/>
   </g>
   <g id="patch_21">
    <path d="M 346.867873 154.260012 
L 346.867873 142.87932 
L 379.990045 142.87932 
L 379.990045 154.260012 
z
" clip-path="url(#p87ae3884d3)" style="fill: #00ffff; opacity: 0.25; stroke: #000000; stroke-linejoin: miter"/>
   </g>
   <g id="patch_22">
    <path d="M 346.867873 154.260012 
L 346.867873 151.640278 
L 379.990045 151.640278 
L 379.990045 154.260012 
z
" clip-path="url(#p87ae3884d3)" style="fill: #ff0000; opacity: 0.25; stroke: #000000; stroke-linejoin: miter"/>
   </g>
   <g id="matplotlib.axis_1"/>
   <g id="matplotlib.axis_2"/>
   <g id="patch_23">
    <path d="M 15.646154 154.260012 
Q 222.659729 154.260012 427.437235 154.260012 
" clip-path="url(#p87ae3884d3)" style="fill: none; stroke: #000000; stroke-width: 2; stroke-linecap: round"/>
    <path d="M 426.437235 153.760012 
L 427.437235 154.260012 
L 426.437235 154.760012 
L 426.437235 153.760012 
z
" clip-path="url(#p87ae3884d3)" style="stroke: #000000; stroke-width: 2; stroke-linecap: round"/>
   </g>
   <g id="patch_24">
    <path d="M 15.646154 154.260012 
Q 15.646154 88.015668 15.646154 24.007392 
" clip-path="url(#p87ae3884d3)" style="fill: none; stroke: #000000; stroke-width: 2; stroke-linecap: round"/>
    <path d="M 15.146154 25.007392 
L 15.646154 24.007392 
L 16.146154 25.007392 
L 15.146154 25.007392 
z
" clip-path="url(#p87ae3884d3)" style="stroke: #000000; stroke-width: 2; stroke-linecap: round"/>
   </g>
   <g id="text_1">
    <!-- $\cdots$ -->
    <g transform="translate(190.8431 141.837989) scale(0.15 -0.15)">
     <defs>
      <path id="STIXGeneral-Regular-22ef" d="M 5235 1619 
Q 5235 1453 5123 1331 
Q 5011 1210 4832 1210 
Q 4646 1210 4534 1322 
Q 4422 1434 4422 1619 
Q 4422 1792 4547 1907 
Q 4672 2022 4832 2022 
Q 4992 2022 5113 1907 
Q 5235 1792 5235 1619 
z
M 3366 1619 
Q 3366 1453 3254 1331 
Q 3142 1210 2963 1210 
Q 2778 1210 2666 1322 
Q 2554 1434 2554 1619 
Q 2554 1792 2678 1907 
Q 2803 2022 2963 2022 
Q 3123 2022 3244 1907 
Q 3366 1792 3366 1619 
z
M 1504 1619 
Q 1504 1453 1392 1331 
Q 1280 1210 1101 1210 
Q 915 1210 803 1322 
Q 691 1434 691 1619 
Q 691 1792 816 1907 
Q 941 2022 1101 2022 
Q 1261 2022 1382 1907 
Q 1504 1792 1504 1619 
z
" transform="scale(0.015625)"/>
     </defs>
     <use xlink:href="#STIXGeneral-Regular-22ef" transform="translate(0 0.40625)"/>
    </g>
   </g>
   <g id="text_2">
    <!-- $x$ -->
    <g transform="translate(434.183846 157.8472) scale(0.13 -0.13)">
     <defs>
      <path id="Cmmi10-78" d="M 500 184 
Q 613 97 819 97 
Q 1019 97 1172 289 
Q 1325 481 1381 709 
L 1672 1844 
Q 1741 2153 1741 2266 
Q 1741 2425 1652 2544 
Q 1563 2663 1403 2663 
Q 1200 2663 1022 2536 
Q 844 2409 722 2214 
Q 600 2019 550 1819 
Q 538 1778 500 1778 
L 422 1778 
Q 372 1778 372 1838 
L 372 1856 
Q 434 2094 584 2320 
Q 734 2547 951 2687 
Q 1169 2828 1416 2828 
Q 1650 2828 1839 2703 
Q 2028 2578 2106 2363 
Q 2216 2559 2386 2693 
Q 2556 2828 2759 2828 
Q 2897 2828 3040 2779 
Q 3184 2731 3275 2631 
Q 3366 2531 3366 2381 
Q 3366 2219 3261 2101 
Q 3156 1984 2994 1984 
Q 2891 1984 2822 2050 
Q 2753 2116 2753 2216 
Q 2753 2350 2845 2451 
Q 2938 2553 3066 2572 
Q 2950 2663 2747 2663 
Q 2541 2663 2389 2472 
Q 2238 2281 2175 2047 
L 1894 916 
Q 1825 659 1825 494 
Q 1825 331 1917 214 
Q 2009 97 2163 97 
Q 2463 97 2698 361 
Q 2934 625 3009 941 
Q 3022 978 3059 978 
L 3138 978 
Q 3163 978 3178 961 
Q 3194 944 3194 922 
Q 3194 916 3188 903 
Q 3097 522 2806 225 
Q 2516 -72 2150 -72 
Q 1916 -72 1727 54 
Q 1538 181 1459 397 
Q 1359 209 1182 68 
Q 1006 -72 806 -72 
Q 669 -72 523 -23 
Q 378 25 287 125 
Q 197 225 197 378 
Q 197 528 301 651 
Q 406 775 563 775 
Q 669 775 741 711 
Q 813 647 813 544 
Q 813 409 723 309 
Q 634 209 500 184 
z
" transform="scale(0.015625)"/>
     </defs>
     <use xlink:href="#Cmmi10-78" transform="translate(0 0.8125)"/>
    </g>
   </g>
   <g id="text_3">
    <!-- $y$ -->
    <g transform="translate(12.396154 17.051563) scale(0.13 -0.13)">
     <defs>
      <path id="Cmmi10-79" d="M 538 -916 
Q 672 -1147 1006 -1147 
Q 1309 -1147 1531 -934 
Q 1753 -722 1889 -420 
Q 2025 -119 2100 197 
Q 1816 -72 1484 -72 
Q 1231 -72 1053 15 
Q 875 103 776 276 
Q 678 450 678 697 
Q 678 906 734 1126 
Q 791 1347 892 1617 
Q 994 1888 1069 2088 
Q 1153 2322 1153 2472 
Q 1153 2663 1013 2663 
Q 759 2663 595 2402 
Q 431 2141 353 1819 
Q 341 1778 300 1778 
L 225 1778 
Q 172 1778 172 1838 
L 172 1856 
Q 275 2238 487 2533 
Q 700 2828 1025 2828 
Q 1253 2828 1411 2678 
Q 1569 2528 1569 2297 
Q 1569 2178 1516 2047 
Q 1488 1969 1388 1706 
Q 1288 1444 1234 1272 
Q 1181 1100 1147 934 
Q 1113 769 1113 603 
Q 1113 391 1203 244 
Q 1294 97 1491 97 
Q 1888 97 2203 581 
L 2688 2553 
Q 2709 2638 2787 2698 
Q 2866 2759 2956 2759 
Q 3034 2759 3092 2709 
Q 3150 2659 3150 2578 
Q 3150 2541 3144 2528 
L 2509 -19 
Q 2425 -347 2200 -647 
Q 1975 -947 1658 -1130 
Q 1341 -1313 997 -1313 
Q 831 -1313 668 -1248 
Q 506 -1184 406 -1056 
Q 306 -928 306 -756 
Q 306 -581 409 -453 
Q 513 -325 684 -325 
Q 788 -325 858 -389 
Q 928 -453 928 -556 
Q 928 -703 818 -812 
Q 709 -922 563 -922 
Q 556 -919 550 -917 
Q 544 -916 538 -916 
z
" transform="scale(0.015625)"/>
     </defs>
     <use xlink:href="#Cmmi10-79" transform="translate(0 0.8125)"/>
    </g>
   </g>
   <g id="text_4">
    <!-- 100 -->
    <g transform="translate(200.063561 166.679618) scale(0.15 -0.15)">
     <defs>
      <path id="DejaVuSans-31" d="M 794 531 
L 1825 531 
L 1825 4091 
L 703 3866 
L 703 4441 
L 1819 4666 
L 2450 4666 
L 2450 531 
L 3481 531 
L 3481 0 
L 794 0 
L 794 531 
z
" transform="scale(0.015625)"/>
      <path id="DejaVuSans-30" d="M 2034 4250 
Q 1547 4250 1301 3770 
Q 1056 3291 1056 2328 
Q 1056 1369 1301 889 
Q 1547 409 2034 409 
Q 2525 409 2770 889 
Q 3016 1369 3016 2328 
Q 3016 3291 2770 3770 
Q 2525 4250 2034 4250 
z
M 2034 4750 
Q 2819 4750 3233 4129 
Q 3647 3509 3647 2328 
Q 3647 1150 3233 529 
Q 2819 -91 2034 -91 
Q 1250 -91 836 529 
Q 422 1150 422 2328 
Q 422 3509 836 4129 
Q 1250 4750 2034 4750 
z
" transform="scale(0.015625)"/>
     </defs>
     <use xlink:href="#DejaVuSans-31"/>
     <use xlink:href="#DejaVuSans-30" x="63.623047"/>
     <use xlink:href="#DejaVuSans-30" x="127.246094"/>
    </g>
   </g>
   <g id="text_5">
    <!-- $\cdots$ -->
    <g transform="translate(389.576131 151.77464) scale(0.15 -0.15)">
     <use xlink:href="#STIXGeneral-Regular-22ef" transform="translate(0 0.40625)"/>
    </g>
   </g>
  </g>
 </g>
 <defs>
  <clipPath id="p87ae3884d3">
   <rect x="7.2" y="10.509786" width="439.2" height="155.011765"/>
  </clipPath>
 </defs>
</svg>
