<?xml version="1.0" encoding="utf-8" standalone="no"?>
<!DOCTYPE svg PUBLIC "-//W3C//DTD SVG 1.1//EN"
  "http://www.w3.org/Graphics/SVG/1.1/DTD/svg11.dtd">
<svg xmlns:xlink="http://www.w3.org/1999/xlink" width="453.6pt" height="167.750793pt" viewBox="0 0 453.6 167.750793" xmlns="http://www.w3.org/2000/svg" version="1.1">
 <metadata>
  <rdf:RDF xmlns:dc="http://purl.org/dc/elements/1.1/" xmlns:cc="http://creativecommons.org/ns#" xmlns:rdf="http://www.w3.org/1999/02/22-rdf-syntax-ns#">
   <cc:Work>
    <dc:type rdf:resource="http://purl.org/dc/dcmitype/StillImage"/>
    <dc:date>2025-03-21T21:11:29.394384</dc:date>
    <dc:format>image/svg+xml</dc:format>
    <dc:creator>
     <cc:Agent>
      <dc:title>Matplotlib v3.6.3, https://matplotlib.org/</dc:title>
     </cc:Agent>
    </dc:creator>
   </cc:Work>
  </rdf:RDF>
 </metadata>
 <defs>
  <style type="text/css">*{stroke-linejoin: round; stroke-linecap: butt}</style>
 </defs>
 <g id="figure_1">
  <g id="patch_1">
   <path d="M 0 167.750793 
L 453.6 167.750793 
L 453.6 0 
L 0 0 
z
" style="fill: #ffffff"/>
  </g>
  <g id="axes_1">
   <g id="patch_2">
    <path d="M 7.2 157.075397 
L 446.4 157.075397 
L 446.4 10.675397 
L 7.2 10.675397 
z
" style="fill: #ffffff"/>
   </g>
   <g id="patch_3">
    <path d="M 15.646154 154.260012 
L 15.646154 48.269062 
L 48.768326 48.269062 
L 48.768326 154.260012 
z
" clip-path="url(#p797eda83c5)" style="fill: #0000ff; opacity: 0.25; stroke: #000000; stroke-linejoin: miter"/>
   </g>
   <g id="patch_4">
    <path d="M 15.646154 154.260012 
L 15.646154 61.517931 
L 48.768326 61.517931 
L 48.768326 154.260012 
z
" clip-path="url(#p797eda83c5)" style="fill: #ff0000; opacity: 0.25; stroke: #000000; stroke-linejoin: miter"/>
   </g>
   <g id="patch_5">
    <path d="M 48.768326 154.260012 
L 48.768326 69.467252 
L 81.890498 69.467252 
L 81.890498 154.260012 
z
" clip-path="url(#p797eda83c5)" style="fill: #0000ff; opacity: 0.25; stroke: #000000; stroke-linejoin: miter"/>
   </g>
   <g id="patch_6">
    <path d="M 48.768326 154.260012 
L 48.768326 89.340555 
L 81.890498 89.340555 
L 81.890498 154.260012 
z
" clip-path="url(#p797eda83c5)" style="fill: #ff0000; opacity: 0.25; stroke: #000000; stroke-linejoin: miter"/>
   </g>
   <g id="patch_7">
    <path d="M 81.890498 154.260012 
L 81.890498 86.425804 
L 115.01267 86.425804 
L 115.01267 154.260012 
z
" clip-path="url(#p797eda83c5)" style="fill: #0000ff; opacity: 0.25; stroke: #000000; stroke-linejoin: miter"/>
   </g>
   <g id="patch_8">
    <path d="M 81.890498 154.260012 
L 81.890498 108.816392 
L 115.01267 108.816392 
L 115.01267 154.260012 
z
" clip-path="url(#p797eda83c5)" style="fill: #ff0000; opacity: 0.25; stroke: #000000; stroke-linejoin: miter"/>
   </g>
   <g id="patch_9">
    <path d="M 115.01267 154.260012 
L 115.01267 99.992646 
L 148.134842 99.992646 
L 148.134842 154.260012 
z
" clip-path="url(#p797eda83c5)" style="fill: #0000ff; opacity: 0.25; stroke: #000000; stroke-linejoin: miter"/>
   </g>
   <g id="patch_10">
    <path d="M 115.01267 154.260012 
L 115.01267 122.449478 
L 148.134842 122.449478 
L 148.134842 154.260012 
z
" clip-path="url(#p797eda83c5)" style="fill: #ff0000; opacity: 0.25; stroke: #000000; stroke-linejoin: miter"/>
   </g>
   <g id="patch_11">
    <path d="M 148.134842 154.260012 
L 148.134842 110.846119 
L 181.257014 110.846119 
L 181.257014 154.260012 
z
" clip-path="url(#p797eda83c5)" style="fill: #0000ff; opacity: 0.25; stroke: #000000; stroke-linejoin: miter"/>
   </g>
   <g id="patch_12">
    <path d="M 148.134842 154.260012 
L 148.134842 131.992638 
L 181.257014 131.992638 
L 181.257014 154.260012 
z
" clip-path="url(#p797eda83c5)" style="fill: #ff0000; opacity: 0.25; stroke: #000000; stroke-linejoin: miter"/>
   </g>
   <g id="patch_13">
    <path d="M 181.257014 154.260012 
L 181.257014 119.528897 
L 214.379186 119.528897 
L 214.379186 154.260012 
z
" clip-path="url(#p797eda83c5)" style="fill: #0000ff; opacity: 0.25; stroke: #000000; stroke-linejoin: miter"/>
   </g>
   <g id="patch_14">
    <path d="M 181.257014 154.260012 
L 181.257014 138.67285 
L 214.379186 138.67285 
L 214.379186 154.260012 
z
" clip-path="url(#p797eda83c5)" style="fill: #ff0000; opacity: 0.25; stroke: #000000; stroke-linejoin: miter"/>
   </g>
   <g id="patch_15">
    <path d="M 214.379186 154.260012 
L 214.379186 126.47512 
L 247.501357 126.47512 
L 247.501357 154.260012 
z
" clip-path="url(#p797eda83c5)" style="fill: #0000ff; opacity: 0.25; stroke: #000000; stroke-linejoin: miter"/>
   </g>
   <g id="patch_16">
    <path d="M 214.379186 154.260012 
L 214.379186 143.348999 
L 247.501357 143.348999 
L 247.501357 154.260012 
z
" clip-path="url(#p797eda83c5)" style="fill: #ff0000; opacity: 0.25; stroke: #000000; stroke-linejoin: miter"/>
   </g>
   <g id="patch_17">
    <path d="M 247.501357 154.260012 
L 247.501357 132.032099 
L 280.623529 132.032099 
L 280.623529 154.260012 
z
" clip-path="url(#p797eda83c5)" style="fill: #0000ff; opacity: 0.25; stroke: #000000; stroke-linejoin: miter"/>
   </g>
   <g id="patch_18">
    <path d="M 247.501357 154.260012 
L 247.501357 146.622303 
L 280.623529 146.622303 
L 280.623529 154.260012 
z
" clip-path="url(#p797eda83c5)" style="fill: #ff0000; opacity: 0.25; stroke: #000000; stroke-linejoin: miter"/>
   </g>
   <g id="patch_19">
    <path d="M 280.623529 154.260012 
L 280.623529 136.477681 
L 313.745701 136.477681 
L 313.745701 154.260012 
z
" clip-path="url(#p797eda83c5)" style="fill: #0000ff; opacity: 0.25; stroke: #000000; stroke-linejoin: miter"/>
   </g>
   <g id="patch_20">
    <path d="M 280.623529 154.260012 
L 280.623529 148.913616 
L 313.745701 148.913616 
L 313.745701 154.260012 
z
" clip-path="url(#p797eda83c5)" style="fill: #ff0000; opacity: 0.25; stroke: #000000; stroke-linejoin: miter"/>
   </g>
   <g id="patch_21">
    <path d="M 313.745701 154.260012 
L 313.745701 140.034147 
L 346.867873 140.034147 
L 346.867873 154.260012 
z
" clip-path="url(#p797eda83c5)" style="fill: #0000ff; opacity: 0.25; stroke: #000000; stroke-linejoin: miter"/>
   </g>
   <g id="patch_22">
    <path d="M 313.745701 154.260012 
L 313.745701 150.517535 
L 346.867873 150.517535 
L 346.867873 154.260012 
z
" clip-path="url(#p797eda83c5)" style="fill: #ff0000; opacity: 0.25; stroke: #000000; stroke-linejoin: miter"/>
   </g>
   <g id="patch_23">
    <path d="M 346.867873 154.260012 
L 346.867873 142.87932 
L 379.990045 142.87932 
L 379.990045 154.260012 
z
" clip-path="url(#p797eda83c5)" style="fill: #0000ff; opacity: 0.25; stroke: #000000; stroke-linejoin: miter"/>
   </g>
   <g id="patch_24">
    <path d="M 346.867873 154.260012 
L 346.867873 151.640278 
L 379.990045 151.640278 
L 379.990045 154.260012 
z
" clip-path="url(#p797eda83c5)" style="fill: #ff0000; opacity: 0.25; stroke: #000000; stroke-linejoin: miter"/>
   </g>
   <g id="matplotlib.axis_1"/>
   <g id="matplotlib.axis_2"/>
   <g id="patch_25">
    <path d="M 15.646154 154.260012 
Q 222.659729 154.260012 427.437235 154.260012 
" clip-path="url(#p797eda83c5)" style="fill: none; stroke: #000000; stroke-width: 2; stroke-linecap: round"/>
    <path d="M 426.437235 153.760012 
L 427.437235 154.260012 
L 426.437235 154.760012 
L 426.437235 153.760012 
z
" clip-path="url(#p797eda83c5)" style="stroke: #000000; stroke-width: 2; stroke-linecap: round"/>
   </g>
   <g id="patch_26">
    <path d="M 15.646154 154.260012 
Q 15.646154 88.015668 15.646154 24.007392 
" clip-path="url(#p797eda83c5)" style="fill: none; stroke: #000000; stroke-width: 2; stroke-linecap: round"/>
    <path d="M 15.146154 25.007392 
L 15.646154 24.007392 
L 16.146154 25.007392 
L 15.146154 25.007392 
z
" clip-path="url(#p797eda83c5)" style="stroke: #000000; stroke-width: 2; stroke-linecap: round"/>
   </g>
   <g id="text_1">
    <!-- $a_0$ -->
    <g style="fill: #0000ff" transform="translate(51.348869 51.580312) scale(0.12 -0.12)">
     <defs>
      <path id="Cmmi10-61" d="M 1113 -72 
Q 709 -72 476 233 
Q 244 538 244 953 
Q 244 1363 456 1803 
Q 669 2244 1030 2536 
Q 1391 2828 1806 2828 
Q 1997 2828 2147 2725 
Q 2297 2622 2381 2444 
Q 2453 2700 2663 2700 
Q 2744 2700 2798 2651 
Q 2853 2603 2853 2522 
Q 2853 2503 2851 2493 
Q 2850 2484 2847 2472 
L 2400 684 
Q 2356 494 2356 372 
Q 2356 97 2541 97 
Q 2741 97 2845 351 
Q 2950 606 3022 941 
Q 3034 978 3072 978 
L 3150 978 
Q 3175 978 3190 956 
Q 3206 934 3206 916 
Q 3094 469 2961 198 
Q 2828 -72 2528 -72 
Q 2313 -72 2147 54 
Q 1981 181 1941 391 
Q 1528 -72 1113 -72 
z
M 1119 97 
Q 1350 97 1567 270 
Q 1784 444 1941 678 
Q 1947 684 1947 697 
L 2291 2088 
L 2297 2106 
Q 2259 2334 2132 2498 
Q 2006 2663 1791 2663 
Q 1575 2663 1389 2486 
Q 1203 2309 1075 2069 
Q 950 1813 836 1366 
Q 722 919 722 672 
Q 722 450 817 273 
Q 913 97 1119 97 
z
" transform="scale(0.015625)"/>
      <path id="Cmr10-30" d="M 1600 -141 
Q 816 -141 533 504 
Q 250 1150 250 2041 
Q 250 2597 351 3087 
Q 453 3578 754 3920 
Q 1056 4263 1600 4263 
Q 2022 4263 2290 4056 
Q 2559 3850 2700 3523 
Q 2841 3197 2892 2823 
Q 2944 2450 2944 2041 
Q 2944 1491 2842 1011 
Q 2741 531 2444 195 
Q 2147 -141 1600 -141 
z
M 1600 25 
Q 1956 25 2131 390 
Q 2306 756 2347 1200 
Q 2388 1644 2388 2144 
Q 2388 2625 2347 3031 
Q 2306 3438 2132 3767 
Q 1959 4097 1600 4097 
Q 1238 4097 1063 3765 
Q 888 3434 847 3029 
Q 806 2625 806 2144 
Q 806 1788 823 1472 
Q 841 1156 916 820 
Q 991 484 1158 254 
Q 1325 25 1600 25 
z
" transform="scale(0.015625)"/>
     </defs>
     <use xlink:href="#Cmmi10-61" transform="translate(0 0.8125)"/>
     <use xlink:href="#Cmr10-30" transform="translate(52.783203 -16.19375) scale(0.7)"/>
    </g>
   </g>
   <g id="text_2">
    <!-- $b_0$ -->
    <g style="fill: #ff0000" transform="translate(51.948869 64.829181) scale(0.12 -0.12)">
     <defs>
      <path id="Cmmi10-62" d="M 1106 -72 
Q 719 -72 503 231 
Q 288 534 288 941 
Q 288 1000 317 1173 
Q 347 1347 347 1388 
L 966 3872 
Q 991 3981 997 4044 
Q 997 4147 581 4147 
Q 519 4147 519 4231 
Q 522 4247 533 4287 
Q 544 4328 561 4350 
Q 578 4372 609 4372 
L 1472 4441 
Q 1550 4441 1550 4359 
L 1075 2472 
Q 1438 2828 1806 2828 
Q 2078 2828 2273 2684 
Q 2469 2541 2566 2306 
Q 2663 2072 2663 1806 
Q 2663 1497 2542 1167 
Q 2422 838 2209 555 
Q 1997 272 1712 100 
Q 1428 -72 1106 -72 
z
M 1119 97 
Q 1338 97 1528 280 
Q 1719 463 1838 691 
Q 1966 947 2077 1386 
Q 2188 1825 2188 2088 
Q 2188 2316 2092 2489 
Q 1997 2663 1791 2663 
Q 1559 2663 1348 2492 
Q 1138 2322 978 2088 
L 800 1363 
Q 697 959 691 716 
Q 691 475 795 286 
Q 900 97 1119 97 
z
" transform="scale(0.015625)"/>
     </defs>
     <use xlink:href="#Cmmi10-62" transform="translate(0 0.609375)"/>
     <use xlink:href="#Cmr10-30" transform="translate(42.919922 -16.396875) scale(0.7)"/>
    </g>
   </g>
   <g id="text_3">
    <!-- $a_1$ -->
    <g style="fill: #0000ff" transform="translate(84.471041 72.778502) scale(0.12 -0.12)">
     <defs>
      <path id="Cmr10-31" d="M 594 0 
L 594 225 
Q 1394 225 1394 428 
L 1394 3788 
Q 1063 3628 556 3628 
L 556 3853 
Q 1341 3853 1741 4263 
L 1831 4263 
Q 1853 4263 1873 4245 
Q 1894 4228 1894 4206 
L 1894 428 
Q 1894 225 2694 225 
L 2694 0 
L 594 0 
z
" transform="scale(0.015625)"/>
     </defs>
     <use xlink:href="#Cmmi10-61" transform="translate(0 0.8125)"/>
     <use xlink:href="#Cmr10-31" transform="translate(52.783203 -16.19375) scale(0.7)"/>
    </g>
   </g>
   <g id="text_4">
    <!-- $b_1$ -->
    <g style="fill: #ff0000" transform="translate(85.071041 92.651805) scale(0.12 -0.12)">
     <use xlink:href="#Cmmi10-62" transform="translate(0 0.609375)"/>
     <use xlink:href="#Cmr10-31" transform="translate(42.919922 -16.396875) scale(0.7)"/>
    </g>
   </g>
   <g id="text_5">
    <!-- $a_2$ -->
    <g style="fill: #0000ff" transform="translate(117.593213 89.737054) scale(0.12 -0.12)">
     <defs>
      <path id="Cmr10-32" d="M 319 0 
L 319 172 
Q 319 188 331 206 
L 1325 1306 
Q 1550 1550 1690 1715 
Q 1831 1881 1968 2097 
Q 2106 2313 2186 2536 
Q 2266 2759 2266 3009 
Q 2266 3272 2169 3511 
Q 2072 3750 1880 3894 
Q 1688 4038 1416 4038 
Q 1138 4038 916 3870 
Q 694 3703 603 3438 
Q 628 3444 672 3444 
Q 816 3444 917 3347 
Q 1019 3250 1019 3097 
Q 1019 2950 917 2848 
Q 816 2747 672 2747 
Q 522 2747 420 2851 
Q 319 2956 319 3097 
Q 319 3338 409 3548 
Q 500 3759 670 3923 
Q 841 4088 1055 4175 
Q 1269 4263 1509 4263 
Q 1875 4263 2190 4108 
Q 2506 3953 2690 3670 
Q 2875 3388 2875 3009 
Q 2875 2731 2753 2481 
Q 2631 2231 2440 2026 
Q 2250 1822 1953 1562 
Q 1656 1303 1563 1216 
L 838 519 
L 1453 519 
Q 1906 519 2211 526 
Q 2516 534 2534 550 
Q 2609 631 2688 1141 
L 2875 1141 
L 2694 0 
L 319 0 
z
" transform="scale(0.015625)"/>
     </defs>
     <use xlink:href="#Cmmi10-61" transform="translate(0 0.8125)"/>
     <use xlink:href="#Cmr10-32" transform="translate(52.783203 -16.19375) scale(0.7)"/>
    </g>
   </g>
   <g id="text_6">
    <!-- $b_2$ -->
    <g style="fill: #ff0000" transform="translate(118.193213 112.127642) scale(0.12 -0.12)">
     <use xlink:href="#Cmmi10-62" transform="translate(0 0.609375)"/>
     <use xlink:href="#Cmr10-32" transform="translate(42.919922 -16.396875) scale(0.7)"/>
    </g>
   </g>
   <g id="text_7">
    <!-- $\cdots$ -->
    <g transform="translate(389.576131 155.086857) scale(0.15 -0.15)">
     <defs>
      <path id="STIXGeneral-Regular-22ef" d="M 5235 1619 
Q 5235 1453 5123 1331 
Q 5011 1210 4832 1210 
Q 4646 1210 4534 1322 
Q 4422 1434 4422 1619 
Q 4422 1792 4547 1907 
Q 4672 2022 4832 2022 
Q 4992 2022 5113 1907 
Q 5235 1792 5235 1619 
z
M 3366 1619 
Q 3366 1453 3254 1331 
Q 3142 1210 2963 1210 
Q 2778 1210 2666 1322 
Q 2554 1434 2554 1619 
Q 2554 1792 2678 1907 
Q 2803 2022 2963 2022 
Q 3123 2022 3244 1907 
Q 3366 1792 3366 1619 
z
M 1504 1619 
Q 1504 1453 1392 1331 
Q 1280 1210 1101 1210 
Q 915 1210 803 1322 
Q 691 1434 691 1619 
Q 691 1792 816 1907 
Q 941 2022 1101 2022 
Q 1261 2022 1382 1907 
Q 1504 1792 1504 1619 
z
" transform="scale(0.015625)"/>
     </defs>
     <use xlink:href="#STIXGeneral-Regular-22ef" transform="translate(0 0.40625)"/>
    </g>
   </g>
   <g id="text_8">
    <!-- $x$ -->
    <g transform="translate(434.183846 157.8472) scale(0.13 -0.13)">
     <defs>
      <path id="Cmmi10-78" d="M 500 184 
Q 613 97 819 97 
Q 1019 97 1172 289 
Q 1325 481 1381 709 
L 1672 1844 
Q 1741 2153 1741 2266 
Q 1741 2425 1652 2544 
Q 1563 2663 1403 2663 
Q 1200 2663 1022 2536 
Q 844 2409 722 2214 
Q 600 2019 550 1819 
Q 538 1778 500 1778 
L 422 1778 
Q 372 1778 372 1838 
L 372 1856 
Q 434 2094 584 2320 
Q 734 2547 951 2687 
Q 1169 2828 1416 2828 
Q 1650 2828 1839 2703 
Q 2028 2578 2106 2363 
Q 2216 2559 2386 2693 
Q 2556 2828 2759 2828 
Q 2897 2828 3040 2779 
Q 3184 2731 3275 2631 
Q 3366 2531 3366 2381 
Q 3366 2219 3261 2101 
Q 3156 1984 2994 1984 
Q 2891 1984 2822 2050 
Q 2753 2116 2753 2216 
Q 2753 2350 2845 2451 
Q 2938 2553 3066 2572 
Q 2950 2663 2747 2663 
Q 2541 2663 2389 2472 
Q 2238 2281 2175 2047 
L 1894 916 
Q 1825 659 1825 494 
Q 1825 331 1917 214 
Q 2009 97 2163 97 
Q 2463 97 2698 361 
Q 2934 625 3009 941 
Q 3022 978 3059 978 
L 3138 978 
Q 3163 978 3178 961 
Q 3194 944 3194 922 
Q 3194 916 3188 903 
Q 3097 522 2806 225 
Q 2516 -72 2150 -72 
Q 1916 -72 1727 54 
Q 1538 181 1459 397 
Q 1359 209 1182 68 
Q 1006 -72 806 -72 
Q 669 -72 523 -23 
Q 378 25 287 125 
Q 197 225 197 378 
Q 197 528 301 651 
Q 406 775 563 775 
Q 669 775 741 711 
Q 813 647 813 544 
Q 813 409 723 309 
Q 634 209 500 184 
z
" transform="scale(0.015625)"/>
     </defs>
     <use xlink:href="#Cmmi10-78" transform="translate(0 0.8125)"/>
    </g>
   </g>
   <g id="text_9">
    <!-- $y$ -->
    <g transform="translate(12.396154 17.051562) scale(0.13 -0.13)">
     <defs>
      <path id="Cmmi10-79" d="M 538 -916 
Q 672 -1147 1006 -1147 
Q 1309 -1147 1531 -934 
Q 1753 -722 1889 -420 
Q 2025 -119 2100 197 
Q 1816 -72 1484 -72 
Q 1231 -72 1053 15 
Q 875 103 776 276 
Q 678 450 678 697 
Q 678 906 734 1126 
Q 791 1347 892 1617 
Q 994 1888 1069 2088 
Q 1153 2322 1153 2472 
Q 1153 2663 1013 2663 
Q 759 2663 595 2402 
Q 431 2141 353 1819 
Q 341 1778 300 1778 
L 225 1778 
Q 172 1778 172 1838 
L 172 1856 
Q 275 2238 487 2533 
Q 700 2828 1025 2828 
Q 1253 2828 1411 2678 
Q 1569 2528 1569 2297 
Q 1569 2178 1516 2047 
Q 1488 1969 1388 1706 
Q 1288 1444 1234 1272 
Q 1181 1100 1147 934 
Q 1113 769 1113 603 
Q 1113 391 1203 244 
Q 1294 97 1491 97 
Q 1888 97 2203 581 
L 2688 2553 
Q 2709 2638 2787 2698 
Q 2866 2759 2956 2759 
Q 3034 2759 3092 2709 
Q 3150 2659 3150 2578 
Q 3150 2541 3144 2528 
L 2509 -19 
Q 2425 -347 2200 -647 
Q 1975 -947 1658 -1130 
Q 1341 -1313 997 -1313 
Q 831 -1313 668 -1248 
Q 506 -1184 406 -1056 
Q 306 -928 306 -756 
Q 306 -581 409 -453 
Q 513 -325 684 -325 
Q 788 -325 858 -389 
Q 928 -453 928 -556 
Q 928 -703 818 -812 
Q 709 -922 563 -922 
Q 556 -919 550 -917 
Q 544 -916 538 -916 
z
" transform="scale(0.015625)"/>
     </defs>
     <use xlink:href="#Cmmi10-79" transform="translate(0 0.8125)"/>
    </g>
   </g>
  </g>
 </g>
 <defs>
  <clipPath id="p797eda83c5">
   <rect x="7.2" y="10.675397" width="439.2" height="146.4"/>
  </clipPath>
 </defs>
</svg>
