<?xml version="1.0" encoding="utf-8" standalone="no"?>
<!DOCTYPE svg PUBLIC "-//W3C//DTD SVG 1.1//EN"
  "http://www.w3.org/Graphics/SVG/1.1/DTD/svg11.dtd">
<svg xmlns:xlink="http://www.w3.org/1999/xlink" width="451.227348pt" height="337.114942pt" viewBox="0 0 451.227348 337.114942" xmlns="http://www.w3.org/2000/svg" version="1.1">
 <metadata>
  <rdf:RDF xmlns:dc="http://purl.org/dc/elements/1.1/" xmlns:cc="http://creativecommons.org/ns#" xmlns:rdf="http://www.w3.org/1999/02/22-rdf-syntax-ns#">
   <cc:Work>
    <dc:type rdf:resource="http://purl.org/dc/dcmitype/StillImage"/>
    <dc:date>2025-03-29T14:43:15.638835</dc:date>
    <dc:format>image/svg+xml</dc:format>
    <dc:creator>
     <cc:Agent>
      <dc:title>Matplotlib v3.6.3, https://matplotlib.org/</dc:title>
     </cc:Agent>
    </dc:creator>
   </cc:Work>
  </rdf:RDF>
 </metadata>
 <defs>
  <style type="text/css">*{stroke-linejoin: round; stroke-linecap: butt}</style>
 </defs>
 <g id="figure_1">
  <g id="patch_1">
   <path d="M 0 337.114942 
L 451.227348 337.114942 
L 451.227348 0 
L 0 0 
z
" style="fill: #ffffff"/>
  </g>
  <g id="axes_1">
   <g id="patch_2">
    <path d="M 21.986964 319.237538 
L 444.027348 319.237538 
L 444.027348 7.2 
L 21.986964 7.2 
z
" style="fill: #ffffff"/>
   </g>
   <g id="patch_3">
    <path d="M 435.911187 313.236817 
L 432.96016 311.054961 
L 432.747565 310.897778 
L 429.843327 308.750516 
L 427.641306 307.122441 
L 425.893966 305.830537 
L 423.564751 304.108421 
L 421.324404 302.45201 
L 418.965351 300.707833 
L 418.234416 300.167413 
L 416.377691 298.794635 
L 413.750307 296.852066 
L 411.169925 294.944248 
L 410.237619 294.254943 
L 408.04544 292.634146 
L 405.489751 290.744585 
L 404.1801 289.776288 
L 401.622442 287.885272 
L 399.546598 286.350487 
L 396.66167 284.217502 
L 394.827256 282.861219 
L 393.09901 281.583432 
L 391.402832 280.329355 
L 388.653958 278.296962 
L 386.943168 277.032082 
L 384.083032 274.917427 
L 382.865984 274.017597 
L 381.674931 273.136986 
L 378.043693 270.452213 
L 376.570992 269.363365 
L 374.568962 267.883155 
L 373.171828 266.850177 
L 370.990975 265.237753 
L 368.392924 263.316872 
L 367.3433 262.540828 
L 364.63646 260.539513 
L 362.877685 259.239154 
L 360.827403 257.723268 
L 358.859007 256.267926 
L 356.881575 254.805902 
L 354.285346 252.886368 
L 351.397414 250.751162 
L 350.876279 250.365858 
L 347.601475 247.944616 
L 346.244551 246.941369 
L 343.523729 244.929716 
L 341.927797 243.749756 
L 340.977252 243.046966 
L 337.85011 240.734899 
L 335.32985 238.871533 
L 334.918782 238.567608 
L 332.604426 236.856478 
L 328.951452 234.155635 
L 328.558636 233.865204 
L 326.165668 232.095952 
L 323.380448 230.036687 
L 321.990486 229.009012 
L 319.776909 227.372393 
L 318.333599 226.305275 
L 315.226016 224.007669 
L 313.536809 222.758746 
L 311.642306 221.358037 
L 309.454254 219.74029 
L 306.425295 217.500815 
L 304.998764 216.446102 
L 302.872996 214.874406 
L 300.758334 213.31092 
L 299.714124 212.538879 
L 297.465302 210.876202 
L 294.315034 208.547036 
L 293.57704 208.001397 
L 290.737297 205.90182 
L 288.627882 204.342214 
L 286.073581 202.453679 
L 285.177838 201.791408 
L 282.957886 200.150076 
L 281.734966 199.245904 
L 278.823263 197.093123 
L 277.486409 196.104713 
L 275.326459 194.507744 
L 272.665379 192.540263 
L 270.753598 191.126778 
L 268.031852 189.114443 
L 266.969988 188.329349 
L 265.222921 187.037646 
L 261.845153 184.540278 
L 259.870792 183.080525 
L 258.15054 181.808648 
L 256.041829 180.249563 
L 253.728634 178.539291 
L 252.639796 177.734254 
L 249.643756 175.519118 
L 248.047364 174.338817 
L 245.451261 172.419377 
L 243.879915 171.257595 
L 241.64048 169.601858 
L 239.343027 167.903225 
L 238.959809 167.619891 
L 236.469587 165.778734 
L 233.128418 163.308425 
L 232.700104 162.991749 
L 230.539341 161.394179 
L 227.582514 159.208034 
L 226.695282 158.552055 
L 224.707645 157.082487 
L 221.162938 154.461691 
L 219.764843 153.428003 
L 217.986337 152.113056 
L 215.016029 149.916945 
L 212.81825 148.292007 
L 211.00424 146.95081 
L 209.972306 146.187845 
L 207.000072 143.99031 
L 205.755048 143.069795 
L 204.170004 141.897886 
L 202.414562 140.599991 
L 200.337886 139.064591 
L 196.418824 136.167014 
L 195.493627 135.482965 
L 192.632004 133.367211 
L 190.550919 131.828551 
L 188.820823 130.549397 
L 187.881977 129.855256 
L 186.07654 128.520398 
L 182.89816 126.170448 
L 180.248478 124.211393 
L 179.562851 123.704471 
L 176.22275 121.234952 
L 174.528444 119.982259 
L 172.629315 118.578129 
L 170.792469 117.220048 
L 168.88598 115.810477 
L 167.09948 114.48962 
L 164.238147 112.37408 
L 162.930663 111.407385 
L 161.227468 110.14812 
L 157.644955 107.499373 
L 157.299988 107.244319 
L 154.852348 105.434645 
L 152.581026 103.755333 
L 149.66749 101.601196 
L 148.576217 100.794358 
L 145.576558 98.576547 
L 144.93965 98.105646 
L 141.378064 95.47237 
L 141.200588 95.341152 
L 137.617616 92.692065 
L 136.078141 91.553847 
L 135.009685 90.763879 
L 131.583112 88.230426 
L 129.531441 86.713514 
L 128.790334 86.165573 
L 125.31183 83.593725 
L 124.539599 83.022772 
L 121.018999 80.4198 
L 119.943006 79.62426 
L 117.609285 77.898812 
L 116.090595 76.775961 
L 114.402274 75.527693 
L 111.586539 73.445867 
L 110.374126 72.549463 
L 108.507826 71.169606 
L 106.242546 69.49476 
L 104.22216 68.000979 
L 102.197819 66.504272 
L 98.832686 64.016245 
L 96.44049 62.247564 
L 95.925847 61.867061 
L 93.46464 60.047355 
L 90.73624 58.0301 
L 88.654898 56.49125 
L 88.06012 56.051498 
L 86.028738 54.549586 
L 83.501675 52.68119 
L 81.885249 51.486078 
L 79.097472 49.424922 
L 77.056207 47.915704 
L 74.439359 45.980925 
L 72.887527 44.83357 
L 71.356921 43.70191 
L 67.953196 41.18535 
L 67.40934 40.783247 
L 64.424442 38.576349 
L 62.191436 36.925365 
L 59.893777 35.22658 
L 58.599539 34.269679 
L 57.532462 33.480731 
L 54.790791 31.453663 
L 53.168735 30.254389 
L 50.24879 28.095514 
L 48.515891 26.814287 
L 45.40723 24.515884 
L 44.339601 23.726527 
L 42.309989 22.225924 
L 41.0706 21.309576 
L 37.997824 19.037705 
L 35.740653 17.368855 
L 33.413177 15.648024 
L 31.342615 14.117144 
L 30.103125 13.200722 
L 30.103125 13.200722 
L 32.653036 13.206645 
L 34.26532 13.216504 
L 36.243623 13.235072 
L 37.307709 13.24801 
L 40.857518 13.3061 
L 41.839145 13.326219 
L 43.864034 13.373274 
L 45.891945 13.4279 
L 48.47738 13.508434 
L 50.025639 13.562508 
L 51.953357 13.635962 
L 54.63466 13.74944 
L 57.366351 13.878594 
L 57.896884 13.905264 
L 61.013789 14.072388 
L 62.133135 14.136762 
L 65.395481 14.33753 
L 66.245015 14.393028 
L 69.698942 14.632376 
L 71.810417 14.789552 
L 73.383841 14.912042 
L 75.564413 15.089386 
L 77.761156 15.276972 
L 79.399355 15.422705 
L 80.091418 15.485772 
L 83.586824 15.817961 
L 85.75398 16.03539 
L 87.119786 16.176942 
L 88.553657 16.329317 
L 91.29721 16.631647 
L 93.282916 16.859318 
L 95.06533 17.070028 
L 96.518943 17.246323 
L 98.627131 17.509132 
L 102.317998 17.989617 
L 102.892794 18.066785 
L 105.689885 18.45134 
L 107.484809 18.706026 
L 109.656941 19.022535 
L 111.802764 19.344161 
L 113.916717 19.66974 
L 115.720953 19.954492 
L 117.289222 20.20716 
L 120.04539 20.662878 
L 121.927606 20.982665 
L 123.658254 21.282864 
L 126.116335 21.719428 
L 128.140339 22.087906 
L 130.499521 22.527716 
L 132.228203 22.85706 
L 133.127956 23.030854 
L 136.429361 23.682529 
L 138.997699 24.204773 
L 140.587389 24.534751 
L 142.523639 24.943649 
L 145.151902 25.511011 
L 146.846644 25.884417 
L 149.385641 26.454994 
L 149.674885 26.520846 
L 152.482384 27.169126 
L 153.576322 27.426206 
L 156.230688 28.060494 
L 159.393935 28.835916 
L 160.298548 29.061597 
L 162.27665 29.561208 
L 164.083718 30.024993 
L 165.894839 30.496916 
L 168.763709 31.259086 
L 170.400786 31.702093 
L 173.626752 32.592392 
L 174.53104 32.846104 
L 177.422661 33.669671 
L 178.397851 33.951654 
L 180.795633 34.654139 
L 182.288919 35.098237 
L 185.401987 36.040479 
L 186.353913 36.333062 
L 189.851877 37.426279 
L 192.026336 38.120306 
L 192.350355 38.224678 
L 195.844286 39.365975 
L 197.060628 39.770139 
L 198.554432 40.27137 
L 200.942215 41.083791 
L 203.206864 41.867175 
L 205.908678 42.818315 
L 206.757232 43.120777 
L 209.656051 44.167643 
L 210.608705 44.516303 
L 213.573639 45.616201 
L 214.732847 46.052353 
L 217.914156 47.267184 
L 220.132307 48.12986 
L 222.42769 49.036256 
L 224.313391 49.791391 
L 226.839985 50.818191 
L 228.754466 51.607795 
L 230.010722 52.13139 
L 231.610828 52.804619 
L 234.718618 54.132622 
L 236.043023 54.706838 
L 238.387717 55.735687 
L 240.98925 56.89579 
L 243.072011 57.838794 
L 244.722812 58.595318 
L 245.993709 59.18327 
L 248.848904 60.521892 
L 250.039334 61.08733 
L 253.184626 62.602308 
L 253.578096 62.793993 
L 255.510662 63.742537 
L 258.518066 65.242222 
L 260.6121 66.303644 
L 262.632442 67.341295 
L 263.740779 67.916267 
L 266.785173 69.516764 
L 268.526877 70.44654 
L 269.724433 71.091877 
L 272.845876 72.79742 
L 274.868429 73.920906 
L 277.44564 75.373803 
L 278.015324 75.698222 
L 280.198709 76.952681 
L 283.875002 79.105216 
L 284.481282 79.465143 
L 286.855016 80.888032 
L 289.72411 82.637401 
L 291.183396 83.539797 
L 292.783508 84.53922 
L 295.215865 86.078683 
L 296.827498 87.112352 
L 299.020493 88.53668 
L 302.114654 90.581883 
L 303.884746 91.771011 
L 304.834668 92.414996 
L 308.018268 94.60355 
L 309.379082 95.553514 
L 311.833107 97.289042 
L 312.818958 97.994499 
L 315.483279 99.92517 
L 317.729416 101.580733 
L 319.116529 102.616172 
L 321.009415 104.045538 
L 324.036978 106.371936 
L 325.985604 107.896119 
L 328.798276 110.134333 
L 329.895815 111.020231 
L 332.380228 113.0522 
L 334.845998 115.106361 
L 336.85627 116.809475 
L 337.143612 117.05504 
L 340.585439 120.038872 
L 342.508943 121.741399 
L 344.33221 123.379132 
L 345.575283 124.50938 
L 348.907025 127.595091 
L 350.879261 129.461654 
L 353.264397 131.76029 
L 355.274831 133.734128 
L 356.594924 135.048826 
L 359.12476 137.610977 
L 359.450154 137.944695 
L 361.901696 140.490439 
L 364.641349 143.40339 
L 366.330027 145.23621 
L 368.2486 147.35452 
L 369.868553 149.173966 
L 372.387227 152.061263 
L 375.437046 155.657684 
L 376.931299 157.461958 
L 379.77866 160.981436 
L 380.725728 162.176731 
L 382.193947 164.055198 
L 383.662165 165.965624 
L 385.824955 168.840707 
L 386.690126 170.011973 
L 388.897144 173.057359 
L 390.52183 175.354521 
L 392.012972 177.506426 
L 393.504114 179.702104 
L 395.021189 181.983157 
L 396.556448 184.342576 
L 398.773408 187.846085 
L 400.49173 190.64551 
L 402.177286 193.468198 
L 403.862843 196.372325 
L 405.132859 198.618042 
L 406.526629 201.143406 
L 408.219992 204.303451 
L 409.913354 207.572779 
L 411.129395 209.993763 
L 412.030075 211.829292 
L 412.930756 213.70312 
L 414.336214 216.708925 
L 415.741672 219.822946 
L 416.752357 222.135373 
L 417.507233 223.905633 
L 418.262109 225.71525 
L 419.016985 227.566717 
L 419.771861 229.462809 
L 420.861924 232.285937 
L 421.951987 235.219471 
L 422.668762 237.214744 
L 423.206599 238.749476 
L 423.744436 240.318669 
L 424.282273 241.9246 
L 424.82011 243.569809 
L 425.670391 246.257967 
L 426.095531 247.645604 
L 426.520671 249.06478 
L 426.945811 250.517634 
L 427.370951 252.006564 
L 427.796092 253.534268 
L 428.221232 255.103805 
L 428.867548 257.577999 
L 429.398784 259.700389 
L 429.93002 261.913473 
L 430.461257 264.229535 
L 430.726875 265.430835 
L 430.992493 266.663938 
L 431.243654 267.861522 
L 431.494816 269.092365 
L 431.745977 270.359329 
L 431.997139 271.665717 
L 432.248301 273.01537 
L 432.499462 274.412801 
L 432.750624 275.863368 
L 433.001785 277.373518 
L 433.183623 278.508424 
L 433.36546 279.682231 
L 433.547298 280.899175 
L 433.729136 282.164325 
L 433.910973 283.48383 
L 434.092811 284.865271 
L 434.274648 286.318184 
L 434.456486 287.854837 
L 434.638324 289.491485 
L 434.729243 290.353959 
L 434.820161 291.250445 
L 434.91108 292.185288 
L 435.001999 293.163846 
L 435.092918 294.192857 
L 435.183837 295.280992 
L 435.274755 296.439739 
L 435.365674 297.684873 
L 435.456593 299.039104 
L 435.547512 300.537285 
L 435.638431 302.238083 
L 435.72935 304.255885 
L 435.820268 306.885983 
z
" clip-path="url(#p82d213f9b7)" style="fill: #0000ff; opacity: 0.5"/>
   </g>
   <g id="matplotlib.axis_1">
    <g id="xtick_1">
     <g id="line2d_1">
      <defs>
       <path id="m415f879331" d="M 0 0 
L 0 3.5 
" style="stroke: #000000; stroke-width: 0.8"/>
      </defs>
      <g>
       <use xlink:href="#m415f879331" x="30.103125" y="313.236817" style="stroke: #000000; stroke-width: 0.8"/>
      </g>
     </g>
    </g>
    <g id="xtick_2">
     <g id="line2d_2">
      <g>
       <use xlink:href="#m415f879331" x="111.264737" y="313.236817" style="stroke: #000000; stroke-width: 0.8"/>
      </g>
     </g>
     <g id="text_1">
      <!-- 0.2 -->
      <g transform="translate(103.313175 327.835254) scale(0.1 -0.1)">
       <defs>
        <path id="DejaVuSans-30" d="M 2034 4250 
Q 1547 4250 1301 3770 
Q 1056 3291 1056 2328 
Q 1056 1369 1301 889 
Q 1547 409 2034 409 
Q 2525 409 2770 889 
Q 3016 1369 3016 2328 
Q 3016 3291 2770 3770 
Q 2525 4250 2034 4250 
z
M 2034 4750 
Q 2819 4750 3233 4129 
Q 3647 3509 3647 2328 
Q 3647 1150 3233 529 
Q 2819 -91 2034 -91 
Q 1250 -91 836 529 
Q 422 1150 422 2328 
Q 422 3509 836 4129 
Q 1250 4750 2034 4750 
z
" transform="scale(0.015625)"/>
        <path id="DejaVuSans-2e" d="M 684 794 
L 1344 794 
L 1344 0 
L 684 0 
L 684 794 
z
" transform="scale(0.015625)"/>
        <path id="DejaVuSans-32" d="M 1228 531 
L 3431 531 
L 3431 0 
L 469 0 
L 469 531 
Q 828 903 1448 1529 
Q 2069 2156 2228 2338 
Q 2531 2678 2651 2914 
Q 2772 3150 2772 3378 
Q 2772 3750 2511 3984 
Q 2250 4219 1831 4219 
Q 1534 4219 1204 4116 
Q 875 4013 500 3803 
L 500 4441 
Q 881 4594 1212 4672 
Q 1544 4750 1819 4750 
Q 2544 4750 2975 4387 
Q 3406 4025 3406 3419 
Q 3406 3131 3298 2873 
Q 3191 2616 2906 2266 
Q 2828 2175 2409 1742 
Q 1991 1309 1228 531 
z
" transform="scale(0.015625)"/>
       </defs>
       <use xlink:href="#DejaVuSans-30"/>
       <use xlink:href="#DejaVuSans-2e" x="63.623047"/>
       <use xlink:href="#DejaVuSans-32" x="95.410156"/>
      </g>
     </g>
    </g>
    <g id="xtick_3">
     <g id="line2d_3">
      <g>
       <use xlink:href="#m415f879331" x="192.42635" y="313.236817" style="stroke: #000000; stroke-width: 0.8"/>
      </g>
     </g>
     <g id="text_2">
      <!-- 0.4 -->
      <g transform="translate(184.474787 327.835254) scale(0.1 -0.1)">
       <defs>
        <path id="DejaVuSans-34" d="M 2419 4116 
L 825 1625 
L 2419 1625 
L 2419 4116 
z
M 2253 4666 
L 3047 4666 
L 3047 1625 
L 3713 1625 
L 3713 1100 
L 3047 1100 
L 3047 0 
L 2419 0 
L 2419 1100 
L 313 1100 
L 313 1709 
L 2253 4666 
z
" transform="scale(0.015625)"/>
       </defs>
       <use xlink:href="#DejaVuSans-30"/>
       <use xlink:href="#DejaVuSans-2e" x="63.623047"/>
       <use xlink:href="#DejaVuSans-34" x="95.410156"/>
      </g>
     </g>
    </g>
    <g id="xtick_4">
     <g id="line2d_4">
      <g>
       <use xlink:href="#m415f879331" x="273.587962" y="313.236817" style="stroke: #000000; stroke-width: 0.8"/>
      </g>
     </g>
     <g id="text_3">
      <!-- 0.6 -->
      <g transform="translate(265.6364 327.835254) scale(0.1 -0.1)">
       <defs>
        <path id="DejaVuSans-36" d="M 2113 2584 
Q 1688 2584 1439 2293 
Q 1191 2003 1191 1497 
Q 1191 994 1439 701 
Q 1688 409 2113 409 
Q 2538 409 2786 701 
Q 3034 994 3034 1497 
Q 3034 2003 2786 2293 
Q 2538 2584 2113 2584 
z
M 3366 4563 
L 3366 3988 
Q 3128 4100 2886 4159 
Q 2644 4219 2406 4219 
Q 1781 4219 1451 3797 
Q 1122 3375 1075 2522 
Q 1259 2794 1537 2939 
Q 1816 3084 2150 3084 
Q 2853 3084 3261 2657 
Q 3669 2231 3669 1497 
Q 3669 778 3244 343 
Q 2819 -91 2113 -91 
Q 1303 -91 875 529 
Q 447 1150 447 2328 
Q 447 3434 972 4092 
Q 1497 4750 2381 4750 
Q 2619 4750 2861 4703 
Q 3103 4656 3366 4563 
z
" transform="scale(0.015625)"/>
       </defs>
       <use xlink:href="#DejaVuSans-30"/>
       <use xlink:href="#DejaVuSans-2e" x="63.623047"/>
       <use xlink:href="#DejaVuSans-36" x="95.410156"/>
      </g>
     </g>
    </g>
    <g id="xtick_5">
     <g id="line2d_5">
      <g>
       <use xlink:href="#m415f879331" x="354.749575" y="313.236817" style="stroke: #000000; stroke-width: 0.8"/>
      </g>
     </g>
     <g id="text_4">
      <!-- 0.8 -->
      <g transform="translate(346.798012 327.835254) scale(0.1 -0.1)">
       <defs>
        <path id="DejaVuSans-38" d="M 2034 2216 
Q 1584 2216 1326 1975 
Q 1069 1734 1069 1313 
Q 1069 891 1326 650 
Q 1584 409 2034 409 
Q 2484 409 2743 651 
Q 3003 894 3003 1313 
Q 3003 1734 2745 1975 
Q 2488 2216 2034 2216 
z
M 1403 2484 
Q 997 2584 770 2862 
Q 544 3141 544 3541 
Q 544 4100 942 4425 
Q 1341 4750 2034 4750 
Q 2731 4750 3128 4425 
Q 3525 4100 3525 3541 
Q 3525 3141 3298 2862 
Q 3072 2584 2669 2484 
Q 3125 2378 3379 2068 
Q 3634 1759 3634 1313 
Q 3634 634 3220 271 
Q 2806 -91 2034 -91 
Q 1263 -91 848 271 
Q 434 634 434 1313 
Q 434 1759 690 2068 
Q 947 2378 1403 2484 
z
M 1172 3481 
Q 1172 3119 1398 2916 
Q 1625 2713 2034 2713 
Q 2441 2713 2670 2916 
Q 2900 3119 2900 3481 
Q 2900 3844 2670 4047 
Q 2441 4250 2034 4250 
Q 1625 4250 1398 4047 
Q 1172 3844 1172 3481 
z
" transform="scale(0.015625)"/>
       </defs>
       <use xlink:href="#DejaVuSans-30"/>
       <use xlink:href="#DejaVuSans-2e" x="63.623047"/>
       <use xlink:href="#DejaVuSans-38" x="95.410156"/>
      </g>
     </g>
    </g>
    <g id="xtick_6">
     <g id="line2d_6">
      <g>
       <use xlink:href="#m415f879331" x="435.911187" y="313.236817" style="stroke: #000000; stroke-width: 0.8"/>
      </g>
     </g>
     <g id="text_5">
      <!-- 1.0 -->
      <g transform="translate(427.959625 327.835254) scale(0.1 -0.1)">
       <defs>
        <path id="DejaVuSans-31" d="M 794 531 
L 1825 531 
L 1825 4091 
L 703 3866 
L 703 4441 
L 1819 4666 
L 2450 4666 
L 2450 531 
L 3481 531 
L 3481 0 
L 794 0 
L 794 531 
z
" transform="scale(0.015625)"/>
       </defs>
       <use xlink:href="#DejaVuSans-31"/>
       <use xlink:href="#DejaVuSans-2e" x="63.623047"/>
       <use xlink:href="#DejaVuSans-30" x="95.410156"/>
      </g>
     </g>
    </g>
    <g id="xtick_7">
     <g id="line2d_7">
      <defs>
       <path id="m14912e20df" d="M 0 0 
L 0 2 
" style="stroke: #000000; stroke-width: 0.6"/>
      </defs>
      <g>
       <use xlink:href="#m14912e20df" x="50.393528" y="313.236817" style="stroke: #000000; stroke-width: 0.6"/>
      </g>
     </g>
    </g>
    <g id="xtick_8">
     <g id="line2d_8">
      <g>
       <use xlink:href="#m14912e20df" x="70.683931" y="313.236817" style="stroke: #000000; stroke-width: 0.6"/>
      </g>
     </g>
    </g>
    <g id="xtick_9">
     <g id="line2d_9">
      <g>
       <use xlink:href="#m14912e20df" x="90.974334" y="313.236817" style="stroke: #000000; stroke-width: 0.6"/>
      </g>
     </g>
    </g>
    <g id="xtick_10">
     <g id="line2d_10">
      <g>
       <use xlink:href="#m14912e20df" x="131.555141" y="313.236817" style="stroke: #000000; stroke-width: 0.6"/>
      </g>
     </g>
    </g>
    <g id="xtick_11">
     <g id="line2d_11">
      <g>
       <use xlink:href="#m14912e20df" x="151.845544" y="313.236817" style="stroke: #000000; stroke-width: 0.6"/>
      </g>
     </g>
    </g>
    <g id="xtick_12">
     <g id="line2d_12">
      <g>
       <use xlink:href="#m14912e20df" x="172.135947" y="313.236817" style="stroke: #000000; stroke-width: 0.6"/>
      </g>
     </g>
    </g>
    <g id="xtick_13">
     <g id="line2d_13">
      <g>
       <use xlink:href="#m14912e20df" x="212.716753" y="313.236817" style="stroke: #000000; stroke-width: 0.6"/>
      </g>
     </g>
    </g>
    <g id="xtick_14">
     <g id="line2d_14">
      <g>
       <use xlink:href="#m14912e20df" x="233.007156" y="313.236817" style="stroke: #000000; stroke-width: 0.6"/>
      </g>
     </g>
    </g>
    <g id="xtick_15">
     <g id="line2d_15">
      <g>
       <use xlink:href="#m14912e20df" x="253.297559" y="313.236817" style="stroke: #000000; stroke-width: 0.6"/>
      </g>
     </g>
    </g>
    <g id="xtick_16">
     <g id="line2d_16">
      <g>
       <use xlink:href="#m14912e20df" x="293.878365" y="313.236817" style="stroke: #000000; stroke-width: 0.6"/>
      </g>
     </g>
    </g>
    <g id="xtick_17">
     <g id="line2d_17">
      <g>
       <use xlink:href="#m14912e20df" x="314.168768" y="313.236817" style="stroke: #000000; stroke-width: 0.6"/>
      </g>
     </g>
    </g>
    <g id="xtick_18">
     <g id="line2d_18">
      <g>
       <use xlink:href="#m14912e20df" x="334.459172" y="313.236817" style="stroke: #000000; stroke-width: 0.6"/>
      </g>
     </g>
    </g>
    <g id="xtick_19">
     <g id="line2d_19">
      <g>
       <use xlink:href="#m14912e20df" x="375.039978" y="313.236817" style="stroke: #000000; stroke-width: 0.6"/>
      </g>
     </g>
    </g>
    <g id="xtick_20">
     <g id="line2d_20">
      <g>
       <use xlink:href="#m14912e20df" x="395.330381" y="313.236817" style="stroke: #000000; stroke-width: 0.6"/>
      </g>
     </g>
    </g>
    <g id="xtick_21">
     <g id="line2d_21">
      <g>
       <use xlink:href="#m14912e20df" x="415.620784" y="313.236817" style="stroke: #000000; stroke-width: 0.6"/>
      </g>
     </g>
    </g>
   </g>
   <g id="matplotlib.axis_2">
    <g id="ytick_1">
     <g id="line2d_22">
      <defs>
       <path id="m266c994322" d="M 0 0 
L -3.5 0 
" style="stroke: #000000; stroke-width: 0.8"/>
      </defs>
      <g>
       <use xlink:href="#m266c994322" x="30.103125" y="313.236817" style="stroke: #000000; stroke-width: 0.8"/>
      </g>
     </g>
    </g>
    <g id="ytick_2">
     <g id="line2d_23">
      <g>
       <use xlink:href="#m266c994322" x="30.103125" y="253.229598" style="stroke: #000000; stroke-width: 0.8"/>
      </g>
     </g>
     <g id="text_6">
      <!-- 0.2 -->
      <g transform="translate(7.2 257.028816) scale(0.1 -0.1)">
       <use xlink:href="#DejaVuSans-30"/>
       <use xlink:href="#DejaVuSans-2e" x="63.623047"/>
       <use xlink:href="#DejaVuSans-32" x="95.410156"/>
      </g>
     </g>
    </g>
    <g id="ytick_3">
     <g id="line2d_24">
      <g>
       <use xlink:href="#m266c994322" x="30.103125" y="193.222379" style="stroke: #000000; stroke-width: 0.8"/>
      </g>
     </g>
     <g id="text_7">
      <!-- 0.4 -->
      <g transform="translate(7.2 197.021597) scale(0.1 -0.1)">
       <use xlink:href="#DejaVuSans-30"/>
       <use xlink:href="#DejaVuSans-2e" x="63.623047"/>
       <use xlink:href="#DejaVuSans-34" x="95.410156"/>
      </g>
     </g>
    </g>
    <g id="ytick_4">
     <g id="line2d_25">
      <g>
       <use xlink:href="#m266c994322" x="30.103125" y="133.21516" style="stroke: #000000; stroke-width: 0.8"/>
      </g>
     </g>
     <g id="text_8">
      <!-- 0.6 -->
      <g transform="translate(7.2 137.014379) scale(0.1 -0.1)">
       <use xlink:href="#DejaVuSans-30"/>
       <use xlink:href="#DejaVuSans-2e" x="63.623047"/>
       <use xlink:href="#DejaVuSans-36" x="95.410156"/>
      </g>
     </g>
    </g>
    <g id="ytick_5">
     <g id="line2d_26">
      <g>
       <use xlink:href="#m266c994322" x="30.103125" y="73.207941" style="stroke: #000000; stroke-width: 0.8"/>
      </g>
     </g>
     <g id="text_9">
      <!-- 0.8 -->
      <g transform="translate(7.2 77.00716) scale(0.1 -0.1)">
       <use xlink:href="#DejaVuSans-30"/>
       <use xlink:href="#DejaVuSans-2e" x="63.623047"/>
       <use xlink:href="#DejaVuSans-38" x="95.410156"/>
      </g>
     </g>
    </g>
    <g id="ytick_6">
     <g id="line2d_27">
      <g>
       <use xlink:href="#m266c994322" x="30.103125" y="13.200722" style="stroke: #000000; stroke-width: 0.8"/>
      </g>
     </g>
     <g id="text_10">
      <!-- 1.0 -->
      <g transform="translate(7.2 16.999941) scale(0.1 -0.1)">
       <use xlink:href="#DejaVuSans-31"/>
       <use xlink:href="#DejaVuSans-2e" x="63.623047"/>
       <use xlink:href="#DejaVuSans-30" x="95.410156"/>
      </g>
     </g>
    </g>
    <g id="ytick_7">
     <g id="line2d_28">
      <defs>
       <path id="m87e20af0ee" d="M 0 0 
L -2 0 
" style="stroke: #000000; stroke-width: 0.6"/>
      </defs>
      <g>
       <use xlink:href="#m87e20af0ee" x="30.103125" y="298.235012" style="stroke: #000000; stroke-width: 0.6"/>
      </g>
     </g>
    </g>
    <g id="ytick_8">
     <g id="line2d_29">
      <g>
       <use xlink:href="#m87e20af0ee" x="30.103125" y="283.233207" style="stroke: #000000; stroke-width: 0.6"/>
      </g>
     </g>
    </g>
    <g id="ytick_9">
     <g id="line2d_30">
      <g>
       <use xlink:href="#m87e20af0ee" x="30.103125" y="268.231402" style="stroke: #000000; stroke-width: 0.6"/>
      </g>
     </g>
    </g>
    <g id="ytick_10">
     <g id="line2d_31">
      <g>
       <use xlink:href="#m87e20af0ee" x="30.103125" y="238.227793" style="stroke: #000000; stroke-width: 0.6"/>
      </g>
     </g>
    </g>
    <g id="ytick_11">
     <g id="line2d_32">
      <g>
       <use xlink:href="#m87e20af0ee" x="30.103125" y="223.225988" style="stroke: #000000; stroke-width: 0.6"/>
      </g>
     </g>
    </g>
    <g id="ytick_12">
     <g id="line2d_33">
      <g>
       <use xlink:href="#m87e20af0ee" x="30.103125" y="208.224183" style="stroke: #000000; stroke-width: 0.6"/>
      </g>
     </g>
    </g>
    <g id="ytick_13">
     <g id="line2d_34">
      <g>
       <use xlink:href="#m87e20af0ee" x="30.103125" y="178.220574" style="stroke: #000000; stroke-width: 0.6"/>
      </g>
     </g>
    </g>
    <g id="ytick_14">
     <g id="line2d_35">
      <g>
       <use xlink:href="#m87e20af0ee" x="30.103125" y="163.218769" style="stroke: #000000; stroke-width: 0.6"/>
      </g>
     </g>
    </g>
    <g id="ytick_15">
     <g id="line2d_36">
      <g>
       <use xlink:href="#m87e20af0ee" x="30.103125" y="148.216964" style="stroke: #000000; stroke-width: 0.6"/>
      </g>
     </g>
    </g>
    <g id="ytick_16">
     <g id="line2d_37">
      <g>
       <use xlink:href="#m87e20af0ee" x="30.103125" y="118.213355" style="stroke: #000000; stroke-width: 0.6"/>
      </g>
     </g>
    </g>
    <g id="ytick_17">
     <g id="line2d_38">
      <g>
       <use xlink:href="#m87e20af0ee" x="30.103125" y="103.21155" style="stroke: #000000; stroke-width: 0.6"/>
      </g>
     </g>
    </g>
    <g id="ytick_18">
     <g id="line2d_39">
      <g>
       <use xlink:href="#m87e20af0ee" x="30.103125" y="88.209746" style="stroke: #000000; stroke-width: 0.6"/>
      </g>
     </g>
    </g>
    <g id="ytick_19">
     <g id="line2d_40">
      <g>
       <use xlink:href="#m87e20af0ee" x="30.103125" y="58.206136" style="stroke: #000000; stroke-width: 0.6"/>
      </g>
     </g>
    </g>
    <g id="ytick_20">
     <g id="line2d_41">
      <g>
       <use xlink:href="#m87e20af0ee" x="30.103125" y="43.204331" style="stroke: #000000; stroke-width: 0.6"/>
      </g>
     </g>
    </g>
    <g id="ytick_21">
     <g id="line2d_42">
      <g>
       <use xlink:href="#m87e20af0ee" x="30.103125" y="28.202527" style="stroke: #000000; stroke-width: 0.6"/>
      </g>
     </g>
    </g>
   </g>
   <g id="line2d_43">
    <path d="M 30.103125 13.200722 
L 435.911187 313.236817 
L 435.911187 313.236817 
" clip-path="url(#p82d213f9b7)" style="fill: none; stroke: #ff0000; stroke-width: 2; stroke-linecap: square"/>
   </g>
   <g id="line2d_44">
    <path d="M 30.103125 13.200722 
L 41.839145 13.326219 
L 51.953357 13.635962 
L 62.133135 14.136762 
L 73.383841 14.912042 
L 83.586824 15.817961 
L 95.06533 17.070028 
L 105.689885 18.45134 
L 117.289222 20.20716 
L 128.140339 22.087906 
L 138.997699 24.204773 
L 149.674885 26.520846 
L 160.298548 29.061597 
L 170.400786 31.702093 
L 180.795633 34.654139 
L 189.851877 37.426279 
L 198.554432 40.27137 
L 206.757232 43.120777 
L 217.914156 47.267184 
L 226.839985 50.818191 
L 236.043023 54.706838 
L 245.993709 59.18327 
L 255.510662 63.742537 
L 263.740779 67.916267 
L 272.845876 72.79742 
L 280.198709 76.952681 
L 289.72411 82.637401 
L 296.827498 87.112352 
L 304.834668 92.414996 
L 312.818958 97.994499 
L 321.009415 104.045538 
L 328.798276 110.134333 
L 334.845998 115.106361 
L 342.508943 121.741399 
L 348.907025 127.595091 
L 355.274831 133.734128 
L 361.901696 140.490439 
L 368.2486 147.35452 
L 372.387227 152.061263 
L 376.931299 157.461958 
L 382.193947 164.055198 
L 386.690126 170.011973 
L 392.012972 177.506426 
L 396.556448 184.342576 
L 400.49173 190.64551 
L 405.132859 198.618042 
L 408.219992 204.303451 
L 412.030075 211.829292 
L 414.336214 216.708925 
L 417.507233 223.905633 
L 419.771861 229.462809 
L 422.668762 237.214744 
L 424.82011 243.569809 
L 426.945811 250.517634 
L 428.867548 257.577999 
L 430.726875 265.430835 
L 432.248301 273.01537 
L 433.36546 279.682231 
L 434.274648 286.318184 
L 435.001999 293.163846 
L 435.547512 300.537285 
L 435.820268 306.885983 
L 435.911187 313.236817 
L 435.911187 313.236817 
" clip-path="url(#p82d213f9b7)" style="fill: none; stroke: #ff0000; stroke-width: 2; stroke-linecap: square"/>
   </g>
   <g id="patch_4">
    <path d="M 30.103125 319.237538 
L 30.103125 7.2 
" style="fill: none; stroke: #000000; stroke-width: 0.8; stroke-linejoin: miter; stroke-linecap: square"/>
   </g>
   <g id="patch_5">
    <path d="M 21.986964 313.236817 
L 444.027348 313.236817 
" style="fill: none; stroke: #000000; stroke-width: 0.8; stroke-linejoin: miter; stroke-linecap: square"/>
   </g>
  </g>
 </g>
 <defs>
  <clipPath id="p82d213f9b7">
   <rect x="21.986964" y="7.2" width="422.040385" height="312.037538"/>
  </clipPath>
 </defs>
</svg>
