<?xml version="1.0" encoding="utf-8" standalone="no"?>
<!DOCTYPE svg PUBLIC "-//W3C//DTD SVG 1.1//EN"
  "http://www.w3.org/Graphics/SVG/1.1/DTD/svg11.dtd">
<svg xmlns:xlink="http://www.w3.org/1999/xlink" width="345.290782pt" height="337.114942pt" viewBox="0 0 345.290782 337.114942" xmlns="http://www.w3.org/2000/svg" version="1.1">
 <metadata>
  <rdf:RDF xmlns:dc="http://purl.org/dc/elements/1.1/" xmlns:cc="http://creativecommons.org/ns#" xmlns:rdf="http://www.w3.org/1999/02/22-rdf-syntax-ns#">
   <cc:Work>
    <dc:type rdf:resource="http://purl.org/dc/dcmitype/StillImage"/>
    <dc:date>2025-03-30T00:13:24.556684</dc:date>
    <dc:format>image/svg+xml</dc:format>
    <dc:creator>
     <cc:Agent>
      <dc:title>Matplotlib v3.6.3, https://matplotlib.org/</dc:title>
     </cc:Agent>
    </dc:creator>
   </cc:Work>
  </rdf:RDF>
 </metadata>
 <defs>
  <style type="text/css">*{stroke-linejoin: round; stroke-linecap: butt}</style>
 </defs>
 <g id="figure_1">
  <g id="patch_1">
   <path d="M 0 337.114942 
L 345.290782 337.114942 
L 345.290782 0 
L 0 0 
z
" style="fill: #ffffff"/>
  </g>
  <g id="axes_1">
   <g id="patch_2">
    <path d="M 24.102403 319.237538 
L 336.139942 319.237538 
L 336.139942 7.2 
L 24.102403 7.2 
z
" style="fill: #ffffff"/>
   </g>
   <g id="patch_3">
    <path d="M 30.103125 163.218769 
L 31.793365 163.228291 
L 32.664352 163.240634 
L 34.12262 163.272627 
L 34.380927 163.279773 
L 36.243742 163.344497 
L 37.776092 163.415122 
L 38.171154 163.435877 
L 39.394337 163.506766 
L 40.185109 163.557933 
L 41.636036 163.662733 
L 43.083724 163.78141 
L 44.769523 163.937415 
L 45.599165 164.021243 
L 46.975772 164.170629 
L 48.127753 164.305533 
L 49.049386 164.41997 
L 50.277717 164.581509 
L 51.523376 164.755884 
L 52.205078 164.855827 
L 53.567278 165.065132 
L 54.285441 165.180644 
L 55.936558 165.459794 
L 56.638802 165.584277 
L 57.959425 165.827722 
L 59.919864 166.211728 
L 60.871958 166.408027 
L 61.289001 166.496039 
L 63.244503 166.925287 
L 63.946443 167.086057 
L 65.700945 167.503465 
L 66.729215 167.758488 
L 67.863491 168.048769 
L 68.995334 168.347857 
L 69.668116 168.530127 
L 70.849467 168.858321 
L 71.92246 169.165453 
L 73.154223 169.528718 
L 74.848293 170.047137 
L 75.117283 170.13147 
L 76.730284 170.64887 
L 77.755943 170.98836 
L 78.419004 171.212205 
L 80.035497 171.77243 
L 80.78657 172.039781 
L 82.066848 172.505917 
L 82.847375 172.796585 
L 83.946594 173.214335 
L 85.790167 173.937255 
L 86.15764 174.08472 
L 87.85969 174.782515 
L 89.154514 175.32979 
L 89.781635 175.600012 
L 90.519936 175.922493 
L 91.626967 176.41492 
L 93.666425 177.350388 
L 94.457639 177.723308 
L 95.735901 178.337768 
L 96.549281 178.736545 
L 97.813608 179.368579 
L 98.744585 179.843547 
L 99.78726 180.385261 
L 101.011964 181.034884 
L 101.668895 181.389348 
L 102.322928 181.746457 
L 103.938111 182.646582 
L 105.062685 183.288831 
L 106.078255 183.879969 
L 106.651965 184.218641 
L 107.52777 184.742308 
L 109.219873 185.777197 
L 110.193487 186.386714 
L 110.55221 186.613915 
L 111.928019 187.498591 
L 112.672346 187.986115 
L 113.611791 188.610506 
L 114.931033 189.504684 
L 116.21892 190.397554 
L 116.655639 190.704874 
L 117.789523 191.513729 
L 118.467062 192.004687 
L 120.017303 193.149951 
L 120.150808 193.250028 
L 121.73642 194.456541 
L 122.821739 195.301779 
L 123.304048 195.682563 
L 124.689355 196.7943 
L 125.143701 197.164842 
L 126.525661 198.310279 
L 126.592352 198.366265 
L 127.631277 199.247019 
L 128.556339 200.045036 
L 129.944241 201.267329 
L 130.718066 201.962165 
L 131.332837 202.521145 
L 132.164744 203.287554 
L 132.80049 203.881132 
L 134.11414 205.129817 
L 134.969634 205.959466 
L 135.917759 206.89455 
L 136.662368 207.640689 
L 137.146045 208.131023 
L 137.914376 208.919278 
L 138.765854 209.806522 
L 139.654431 210.748154 
L 140.976377 212.179721 
L 141.754071 213.039607 
L 142.221961 213.563445 
L 143.140151 214.605962 
L 143.634277 215.175142 
L 144.225523 215.86386 
L 145.617404 217.51918 
L 145.758389 217.68958 
L 146.740083 218.890462 
L 147.922119 220.370789 
L 148.427749 221.015898 
L 148.873078 221.590142 
L 149.620085 222.566475 
L 150.283689 223.447916 
L 151.338331 224.877101 
L 151.563221 225.186492 
L 152.718517 226.802563 
L 153.505239 227.929532 
L 154.093615 228.786992 
L 154.373419 229.199274 
L 155.285541 230.564105 
L 155.987688 231.637238 
L 156.647533 232.664319 
L 156.960184 233.157474 
L 157.568694 234.129653 
L 158.115658 235.017856 
L 159.062941 236.5897 
L 159.742207 237.744282 
L 160.440196 238.955847 
L 160.582499 239.206097 
L 161.61515 241.056474 
L 162.001511 241.764932 
L 162.572572 242.829003 
L 163.106369 243.842641 
L 163.774759 245.139029 
L 164.211771 246.003747 
L 164.803376 247.197003 
L 165.438553 248.508644 
L 165.941085 249.570002 
L 166.239206 250.209981 
L 166.831006 251.504321 
L 167.129352 252.169413 
L 167.8172 253.736832 
L 168.130008 254.466125 
L 168.468973 255.268664 
L 168.875084 256.247713 
L 169.663307 258.206188 
L 169.767557 258.471308 
L 170.224687 259.651723 
L 170.552961 260.518149 
L 171.007151 261.744389 
L 171.37462 262.761286 
L 172.007978 264.570327 
L 172.281332 265.374806 
L 172.664248 266.527709 
L 172.991077 267.537279 
L 173.546237 269.310878 
L 173.728425 269.910293 
L 174.197386 271.496446 
L 174.448083 272.371824 
L 174.649819 273.091234 
L 175.120443 274.825984 
L 175.287498 275.462321 
L 175.770806 277.371215 
L 175.927824 278.015067 
L 176.183978 279.09302 
L 176.523769 280.58089 
L 176.627959 281.05161 
L 176.890105 282.269142 
L 177.173827 283.645887 
L 177.382077 284.700441 
L 177.552641 285.595275 
L 177.80072 286.953077 
L 178.076444 288.552585 
L 178.261269 289.687316 
L 178.355623 290.288801 
L 178.581302 291.797475 
L 178.732882 292.874843 
L 178.983109 294.793254 
L 179.072726 295.531662 
L 179.201201 296.648315 
L 179.346651 298.012349 
L 179.434019 298.894617 
L 179.56462 300.326505 
L 179.61939 300.977086 
L 179.768914 302.962278 
L 179.821461 303.758722 
L 179.902037 305.131231 
L 179.961089 306.308248 
L 179.992781 307.031543 
L 180.03408 308.125726 
L 180.069931 309.316134 
L 180.105377 311.059904 
L 180.116222 312.018067 
L 180.121172 313.236817 
L 330.13922 313.236817 
L 330.124712 310.286302 
L 330.10426 308.656731 
L 330.02877 305.096444 
L 329.959313 302.848131 
L 329.88031 300.77497 
L 329.81618 299.317673 
L 329.727366 297.52147 
L 329.512797 293.858829 
L 329.414587 292.396784 
L 329.153172 288.931925 
L 329.023962 287.391287 
L 328.799578 284.915672 
L 328.58385 282.725915 
L 328.35421 280.557336 
L 327.928658 276.882863 
L 327.842719 276.185603 
L 327.444892 273.117845 
L 327.237795 271.611752 
L 326.918913 269.395667 
L 326.495062 266.616246 
L 326.137192 264.395347 
L 325.658826 261.579428 
L 325.301881 259.577219 
L 324.563415 255.662552 
L 324.438198 255.025798 
L 323.870891 252.227328 
L 323.553458 250.718336 
L 323.064559 248.466018 
L 322.222784 244.769576 
L 321.928463 243.525768 
L 321.265311 240.805886 
L 320.566269 238.051579 
L 319.861125 235.37823 
L 319.702813 234.791428 
L 318.710784 231.216837 
L 318.024601 228.83965 
L 317.615317 227.455713 
L 316.889792 225.060484 
L 316.008781 222.244431 
L 314.982835 219.081578 
L 314.711768 218.265356 
L 313.499397 214.70656 
L 312.920292 213.056438 
L 311.993066 210.476322 
L 311.569765 209.322482 
L 310.483478 206.426162 
L 309.944193 205.021129 
L 308.488597 201.329769 
L 307.646192 199.256538 
L 307.027056 197.760436 
L 306.186861 195.765847 
L 304.888271 192.759508 
L 304.405357 191.664025 
L 303.659204 189.994251 
L 302.38479 187.203675 
L 301.060708 184.38168 
L 300.150078 182.483991 
L 299.402978 180.952096 
L 298.637358 179.404744 
L 297.591578 177.326605 
L 295.622436 173.518695 
L 294.675015 171.732847 
L 293.421872 169.414372 
L 293.054611 168.743999 
L 291.285561 165.570324 
L 289.845966 163.052547 
L 288.858821 161.358088 
L 287.893498 159.725314 
L 286.745707 157.814028 
L 285.597781 155.934118 
L 284.441766 154.071764 
L 283.500088 152.576812 
L 281.098131 148.849576 
L 280.639813 148.15191 
L 279.328559 146.178919 
L 277.571186 143.586538 
L 275.831495 141.07635 
L 275.445459 140.526663 
L 273.221443 137.409795 
L 271.836468 135.510484 
L 270.686916 133.957433 
L 269.529661 132.414827 
L 267.972809 130.371643 
L 267.251452 129.437118 
L 265.362428 127.025328 
L 263.860635 125.143529 
L 262.802732 123.836312 
L 260.972832 121.61 
L 259.071556 119.342217 
L 256.866946 116.768429 
L 256.714858 116.593025 
L 254.31298 113.858786 
L 252.830517 112.204066 
L 251.935758 111.217161 
L 249.484039 108.557378 
L 247.968557 106.945005 
L 246.561055 105.468622 
L 244.086702 102.921133 
L 242.362845 101.181472 
L 241.390674 100.212804 
L 238.932842 97.802819 
L 238.317888 97.208414 
L 236.014436 95.011726 
L 234.574366 93.661841 
L 233.568898 92.729816 
L 230.675508 90.09476 
L 229.31703 88.881121 
L 227.86178 87.597342 
L 226.515647 86.424605 
L 223.066618 83.483147 
L 221.469747 82.151391 
L 221.097778 81.843859 
L 218.977048 80.109599 
L 215.880604 77.634638 
L 213.988094 76.154602 
L 212.022634 74.643123 
L 210.194731 73.260418 
L 209.359251 72.635696 
L 207.600576 71.335364 
L 205.485917 69.797842 
L 202.534119 67.698204 
L 202.359916 67.575961 
L 199.591314 65.657715 
L 197.890496 64.501905 
L 195.724172 63.05423 
L 193.705394 61.729449 
L 191.766086 60.478542 
L 189.18417 58.845624 
L 186.809851 57.37619 
L 186.534394 57.207685 
L 182.68411 54.8946 
L 181.422074 54.153367 
L 179.425427 52.997488 
L 178.230146 52.315289 
L 174.517076 50.242009 
L 173.618319 49.750485 
L 170.989714 48.335652 
L 168.715396 47.138533 
L 167.369877 46.441957 
L 163.782528 44.62655 
L 162.394646 43.940304 
L 161.26452 43.388069 
L 158.641141 42.128653 
L 156.918125 41.318421 
L 153.618106 39.80363 
L 151.487894 38.851329 
L 149.621027 38.033021 
L 146.700102 36.782837 
L 145.19659 36.153521 
L 142.743647 35.147315 
L 141.45984 34.63075 
L 138.543668 33.482806 
L 136.115503 32.553661 
L 135.523332 32.330715 
L 132.491912 31.21165 
L 129.290891 30.070001 
L 127.517912 29.45518 
L 124.475163 28.428852 
L 122.888139 27.907885 
L 121.738255 27.536517 
L 119.384619 26.792279 
L 116.565797 25.928856 
L 114.671095 25.365462 
L 111.300841 24.396741 
L 110.63518 24.21044 
L 108.261258 23.559471 
L 105.805141 22.907929 
L 102.076888 21.961285 
L 101.334543 21.778855 
L 98.430925 21.084511 
L 97.028796 20.760129 
L 92.510464 19.762828 
L 91.678382 19.587117 
L 89.253315 19.089042 
L 87.668947 18.774876 
L 84.94093 18.254659 
L 81.150711 17.575182 
L 78.865901 17.189777 
L 76.540436 16.816112 
L 74.835923 16.554099 
L 73.615242 16.372616 
L 69.444078 15.791111 
L 68.487421 15.666146 
L 64.609745 15.1916 
L 63.604609 15.076946 
L 61.555951 14.853878 
L 58.382664 14.536422 
L 57.09893 14.417666 
L 54.134084 14.164633 
L 51.457411 13.961604 
L 48.730076 13.779483 
L 46.330423 13.639866 
L 45.308513 13.586263 
L 42.277931 13.447837 
L 38.65391 13.322592 
L 37.339049 13.287988 
L 34.1858 13.2285 
L 31.79019 13.205465 
L 30.103125 13.200722 
z
" clip-path="url(#peadbe81899)" style="fill: #0000ff; opacity: 0.25"/>
   </g>
   <g id="matplotlib.axis_1">
    <g id="xtick_1">
     <g id="line2d_1">
      <defs>
       <path id="m648a029063" d="M 0 0 
L 0 3.5 
" style="stroke: #000000; stroke-width: 0.8"/>
      </defs>
      <g>
       <use xlink:href="#m648a029063" x="30.103125" y="313.236817" style="stroke: #000000; stroke-width: 0.8"/>
      </g>
     </g>
    </g>
    <g id="xtick_2">
     <g id="line2d_2">
      <g>
       <use xlink:href="#m648a029063" x="105.112149" y="313.236817" style="stroke: #000000; stroke-width: 0.8"/>
      </g>
     </g>
     <g id="text_1">
      <!-- 0.5 -->
      <g transform="translate(97.160586 327.835254) scale(0.1 -0.1)">
       <defs>
        <path id="DejaVuSans-30" d="M 2034 4250 
Q 1547 4250 1301 3770 
Q 1056 3291 1056 2328 
Q 1056 1369 1301 889 
Q 1547 409 2034 409 
Q 2525 409 2770 889 
Q 3016 1369 3016 2328 
Q 3016 3291 2770 3770 
Q 2525 4250 2034 4250 
z
M 2034 4750 
Q 2819 4750 3233 4129 
Q 3647 3509 3647 2328 
Q 3647 1150 3233 529 
Q 2819 -91 2034 -91 
Q 1250 -91 836 529 
Q 422 1150 422 2328 
Q 422 3509 836 4129 
Q 1250 4750 2034 4750 
z
" transform="scale(0.015625)"/>
        <path id="DejaVuSans-2e" d="M 684 794 
L 1344 794 
L 1344 0 
L 684 0 
L 684 794 
z
" transform="scale(0.015625)"/>
        <path id="DejaVuSans-35" d="M 691 4666 
L 3169 4666 
L 3169 4134 
L 1269 4134 
L 1269 2991 
Q 1406 3038 1543 3061 
Q 1681 3084 1819 3084 
Q 2600 3084 3056 2656 
Q 3513 2228 3513 1497 
Q 3513 744 3044 326 
Q 2575 -91 1722 -91 
Q 1428 -91 1123 -41 
Q 819 9 494 109 
L 494 744 
Q 775 591 1075 516 
Q 1375 441 1709 441 
Q 2250 441 2565 725 
Q 2881 1009 2881 1497 
Q 2881 1984 2565 2268 
Q 2250 2553 1709 2553 
Q 1456 2553 1204 2497 
Q 953 2441 691 2322 
L 691 4666 
z
" transform="scale(0.015625)"/>
       </defs>
       <use xlink:href="#DejaVuSans-30"/>
       <use xlink:href="#DejaVuSans-2e" x="63.623047"/>
       <use xlink:href="#DejaVuSans-35" x="95.410156"/>
      </g>
     </g>
    </g>
    <g id="xtick_3">
     <g id="line2d_3">
      <g>
       <use xlink:href="#m648a029063" x="180.121172" y="313.236817" style="stroke: #000000; stroke-width: 0.8"/>
      </g>
     </g>
     <g id="text_2">
      <!-- 1.0 -->
      <g transform="translate(172.16961 327.835254) scale(0.1 -0.1)">
       <defs>
        <path id="DejaVuSans-31" d="M 794 531 
L 1825 531 
L 1825 4091 
L 703 3866 
L 703 4441 
L 1819 4666 
L 2450 4666 
L 2450 531 
L 3481 531 
L 3481 0 
L 794 0 
L 794 531 
z
" transform="scale(0.015625)"/>
       </defs>
       <use xlink:href="#DejaVuSans-31"/>
       <use xlink:href="#DejaVuSans-2e" x="63.623047"/>
       <use xlink:href="#DejaVuSans-30" x="95.410156"/>
      </g>
     </g>
    </g>
    <g id="xtick_4">
     <g id="line2d_4">
      <g>
       <use xlink:href="#m648a029063" x="255.130196" y="313.236817" style="stroke: #000000; stroke-width: 0.8"/>
      </g>
     </g>
     <g id="text_3">
      <!-- 1.5 -->
      <g transform="translate(247.178634 327.835254) scale(0.1 -0.1)">
       <use xlink:href="#DejaVuSans-31"/>
       <use xlink:href="#DejaVuSans-2e" x="63.623047"/>
       <use xlink:href="#DejaVuSans-35" x="95.410156"/>
      </g>
     </g>
    </g>
    <g id="xtick_5">
     <g id="line2d_5">
      <g>
       <use xlink:href="#m648a029063" x="330.13922" y="313.236817" style="stroke: #000000; stroke-width: 0.8"/>
      </g>
     </g>
     <g id="text_4">
      <!-- 2.0 -->
      <g transform="translate(322.187657 327.835254) scale(0.1 -0.1)">
       <defs>
        <path id="DejaVuSans-32" d="M 1228 531 
L 3431 531 
L 3431 0 
L 469 0 
L 469 531 
Q 828 903 1448 1529 
Q 2069 2156 2228 2338 
Q 2531 2678 2651 2914 
Q 2772 3150 2772 3378 
Q 2772 3750 2511 3984 
Q 2250 4219 1831 4219 
Q 1534 4219 1204 4116 
Q 875 4013 500 3803 
L 500 4441 
Q 881 4594 1212 4672 
Q 1544 4750 1819 4750 
Q 2544 4750 2975 4387 
Q 3406 4025 3406 3419 
Q 3406 3131 3298 2873 
Q 3191 2616 2906 2266 
Q 2828 2175 2409 1742 
Q 1991 1309 1228 531 
z
" transform="scale(0.015625)"/>
       </defs>
       <use xlink:href="#DejaVuSans-32"/>
       <use xlink:href="#DejaVuSans-2e" x="63.623047"/>
       <use xlink:href="#DejaVuSans-30" x="95.410156"/>
      </g>
     </g>
    </g>
    <g id="xtick_6">
     <g id="line2d_6">
      <defs>
       <path id="m1694d9d1ff" d="M 0 0 
L 0 2 
" style="stroke: #000000; stroke-width: 0.6"/>
      </defs>
      <g>
       <use xlink:href="#m1694d9d1ff" x="45.10493" y="313.236817" style="stroke: #000000; stroke-width: 0.6"/>
      </g>
     </g>
    </g>
    <g id="xtick_7">
     <g id="line2d_7">
      <g>
       <use xlink:href="#m1694d9d1ff" x="60.106734" y="313.236817" style="stroke: #000000; stroke-width: 0.6"/>
      </g>
     </g>
    </g>
    <g id="xtick_8">
     <g id="line2d_8">
      <g>
       <use xlink:href="#m1694d9d1ff" x="75.108539" y="313.236817" style="stroke: #000000; stroke-width: 0.6"/>
      </g>
     </g>
    </g>
    <g id="xtick_9">
     <g id="line2d_9">
      <g>
       <use xlink:href="#m1694d9d1ff" x="90.110344" y="313.236817" style="stroke: #000000; stroke-width: 0.6"/>
      </g>
     </g>
    </g>
    <g id="xtick_10">
     <g id="line2d_10">
      <g>
       <use xlink:href="#m1694d9d1ff" x="120.113953" y="313.236817" style="stroke: #000000; stroke-width: 0.6"/>
      </g>
     </g>
    </g>
    <g id="xtick_11">
     <g id="line2d_11">
      <g>
       <use xlink:href="#m1694d9d1ff" x="135.115758" y="313.236817" style="stroke: #000000; stroke-width: 0.6"/>
      </g>
     </g>
    </g>
    <g id="xtick_12">
     <g id="line2d_12">
      <g>
       <use xlink:href="#m1694d9d1ff" x="150.117563" y="313.236817" style="stroke: #000000; stroke-width: 0.6"/>
      </g>
     </g>
    </g>
    <g id="xtick_13">
     <g id="line2d_13">
      <g>
       <use xlink:href="#m1694d9d1ff" x="165.119368" y="313.236817" style="stroke: #000000; stroke-width: 0.6"/>
      </g>
     </g>
    </g>
    <g id="xtick_14">
     <g id="line2d_14">
      <g>
       <use xlink:href="#m1694d9d1ff" x="195.122977" y="313.236817" style="stroke: #000000; stroke-width: 0.6"/>
      </g>
     </g>
    </g>
    <g id="xtick_15">
     <g id="line2d_15">
      <g>
       <use xlink:href="#m1694d9d1ff" x="210.124782" y="313.236817" style="stroke: #000000; stroke-width: 0.6"/>
      </g>
     </g>
    </g>
    <g id="xtick_16">
     <g id="line2d_16">
      <g>
       <use xlink:href="#m1694d9d1ff" x="225.126587" y="313.236817" style="stroke: #000000; stroke-width: 0.6"/>
      </g>
     </g>
    </g>
    <g id="xtick_17">
     <g id="line2d_17">
      <g>
       <use xlink:href="#m1694d9d1ff" x="240.128391" y="313.236817" style="stroke: #000000; stroke-width: 0.6"/>
      </g>
     </g>
    </g>
    <g id="xtick_18">
     <g id="line2d_18">
      <g>
       <use xlink:href="#m1694d9d1ff" x="270.132001" y="313.236817" style="stroke: #000000; stroke-width: 0.6"/>
      </g>
     </g>
    </g>
    <g id="xtick_19">
     <g id="line2d_19">
      <g>
       <use xlink:href="#m1694d9d1ff" x="285.133805" y="313.236817" style="stroke: #000000; stroke-width: 0.6"/>
      </g>
     </g>
    </g>
    <g id="xtick_20">
     <g id="line2d_20">
      <g>
       <use xlink:href="#m1694d9d1ff" x="300.13561" y="313.236817" style="stroke: #000000; stroke-width: 0.6"/>
      </g>
     </g>
    </g>
    <g id="xtick_21">
     <g id="line2d_21">
      <g>
       <use xlink:href="#m1694d9d1ff" x="315.137415" y="313.236817" style="stroke: #000000; stroke-width: 0.6"/>
      </g>
     </g>
    </g>
   </g>
   <g id="matplotlib.axis_2">
    <g id="ytick_1">
     <g id="line2d_22">
      <defs>
       <path id="me6fa7ec10a" d="M 0 0 
L -3.5 0 
" style="stroke: #000000; stroke-width: 0.8"/>
      </defs>
      <g>
       <use xlink:href="#me6fa7ec10a" x="30.103125" y="313.236817" style="stroke: #000000; stroke-width: 0.8"/>
      </g>
     </g>
    </g>
    <g id="ytick_2">
     <g id="line2d_23">
      <g>
       <use xlink:href="#me6fa7ec10a" x="30.103125" y="238.227793" style="stroke: #000000; stroke-width: 0.8"/>
      </g>
     </g>
     <g id="text_5">
      <!-- 0.5 -->
      <g transform="translate(7.2 242.027012) scale(0.1 -0.1)">
       <use xlink:href="#DejaVuSans-30"/>
       <use xlink:href="#DejaVuSans-2e" x="63.623047"/>
       <use xlink:href="#DejaVuSans-35" x="95.410156"/>
      </g>
     </g>
    </g>
    <g id="ytick_3">
     <g id="line2d_24">
      <g>
       <use xlink:href="#me6fa7ec10a" x="30.103125" y="163.218769" style="stroke: #000000; stroke-width: 0.8"/>
      </g>
     </g>
     <g id="text_6">
      <!-- 1.0 -->
      <g transform="translate(7.2 167.017988) scale(0.1 -0.1)">
       <use xlink:href="#DejaVuSans-31"/>
       <use xlink:href="#DejaVuSans-2e" x="63.623047"/>
       <use xlink:href="#DejaVuSans-30" x="95.410156"/>
      </g>
     </g>
    </g>
    <g id="ytick_4">
     <g id="line2d_25">
      <g>
       <use xlink:href="#me6fa7ec10a" x="30.103125" y="88.209746" style="stroke: #000000; stroke-width: 0.8"/>
      </g>
     </g>
     <g id="text_7">
      <!-- 1.5 -->
      <g transform="translate(7.2 92.008964) scale(0.1 -0.1)">
       <use xlink:href="#DejaVuSans-31"/>
       <use xlink:href="#DejaVuSans-2e" x="63.623047"/>
       <use xlink:href="#DejaVuSans-35" x="95.410156"/>
      </g>
     </g>
    </g>
    <g id="ytick_5">
     <g id="line2d_26">
      <g>
       <use xlink:href="#me6fa7ec10a" x="30.103125" y="13.200722" style="stroke: #000000; stroke-width: 0.8"/>
      </g>
     </g>
     <g id="text_8">
      <!-- 2.0 -->
      <g transform="translate(7.2 16.999941) scale(0.1 -0.1)">
       <use xlink:href="#DejaVuSans-32"/>
       <use xlink:href="#DejaVuSans-2e" x="63.623047"/>
       <use xlink:href="#DejaVuSans-30" x="95.410156"/>
      </g>
     </g>
    </g>
    <g id="ytick_6">
     <g id="line2d_27">
      <defs>
       <path id="m1e16af13e2" d="M 0 0 
L -2 0 
" style="stroke: #000000; stroke-width: 0.6"/>
      </defs>
      <g>
       <use xlink:href="#m1e16af13e2" x="30.103125" y="298.235012" style="stroke: #000000; stroke-width: 0.6"/>
      </g>
     </g>
    </g>
    <g id="ytick_7">
     <g id="line2d_28">
      <g>
       <use xlink:href="#m1e16af13e2" x="30.103125" y="283.233207" style="stroke: #000000; stroke-width: 0.6"/>
      </g>
     </g>
    </g>
    <g id="ytick_8">
     <g id="line2d_29">
      <g>
       <use xlink:href="#m1e16af13e2" x="30.103125" y="268.231402" style="stroke: #000000; stroke-width: 0.6"/>
      </g>
     </g>
    </g>
    <g id="ytick_9">
     <g id="line2d_30">
      <g>
       <use xlink:href="#m1e16af13e2" x="30.103125" y="253.229598" style="stroke: #000000; stroke-width: 0.6"/>
      </g>
     </g>
    </g>
    <g id="ytick_10">
     <g id="line2d_31">
      <g>
       <use xlink:href="#m1e16af13e2" x="30.103125" y="223.225988" style="stroke: #000000; stroke-width: 0.6"/>
      </g>
     </g>
    </g>
    <g id="ytick_11">
     <g id="line2d_32">
      <g>
       <use xlink:href="#m1e16af13e2" x="30.103125" y="208.224183" style="stroke: #000000; stroke-width: 0.6"/>
      </g>
     </g>
    </g>
    <g id="ytick_12">
     <g id="line2d_33">
      <g>
       <use xlink:href="#m1e16af13e2" x="30.103125" y="193.222379" style="stroke: #000000; stroke-width: 0.6"/>
      </g>
     </g>
    </g>
    <g id="ytick_13">
     <g id="line2d_34">
      <g>
       <use xlink:href="#m1e16af13e2" x="30.103125" y="178.220574" style="stroke: #000000; stroke-width: 0.6"/>
      </g>
     </g>
    </g>
    <g id="ytick_14">
     <g id="line2d_35">
      <g>
       <use xlink:href="#m1e16af13e2" x="30.103125" y="148.216964" style="stroke: #000000; stroke-width: 0.6"/>
      </g>
     </g>
    </g>
    <g id="ytick_15">
     <g id="line2d_36">
      <g>
       <use xlink:href="#m1e16af13e2" x="30.103125" y="133.21516" style="stroke: #000000; stroke-width: 0.6"/>
      </g>
     </g>
    </g>
    <g id="ytick_16">
     <g id="line2d_37">
      <g>
       <use xlink:href="#m1e16af13e2" x="30.103125" y="118.213355" style="stroke: #000000; stroke-width: 0.6"/>
      </g>
     </g>
    </g>
    <g id="ytick_17">
     <g id="line2d_38">
      <g>
       <use xlink:href="#m1e16af13e2" x="30.103125" y="103.21155" style="stroke: #000000; stroke-width: 0.6"/>
      </g>
     </g>
    </g>
    <g id="ytick_18">
     <g id="line2d_39">
      <g>
       <use xlink:href="#m1e16af13e2" x="30.103125" y="73.207941" style="stroke: #000000; stroke-width: 0.6"/>
      </g>
     </g>
    </g>
    <g id="ytick_19">
     <g id="line2d_40">
      <g>
       <use xlink:href="#m1e16af13e2" x="30.103125" y="58.206136" style="stroke: #000000; stroke-width: 0.6"/>
      </g>
     </g>
    </g>
    <g id="ytick_20">
     <g id="line2d_41">
      <g>
       <use xlink:href="#m1e16af13e2" x="30.103125" y="43.204331" style="stroke: #000000; stroke-width: 0.6"/>
      </g>
     </g>
    </g>
    <g id="ytick_21">
     <g id="line2d_42">
      <g>
       <use xlink:href="#m1e16af13e2" x="30.103125" y="28.202527" style="stroke: #000000; stroke-width: 0.6"/>
      </g>
     </g>
    </g>
   </g>
   <g id="line2d_43">
    <path d="M 180.121172 313.236817 
L 179.988035 306.917942 
L 179.6622 301.510873 
L 179.099338 295.757024 
L 178.360325 290.319201 
L 177.286223 284.210101 
L 176.033947 278.457373 
L 174.43614 272.329661 
L 172.743081 266.769005 
L 170.82899 261.259461 
L 168.426 255.166197 
L 166.19092 250.10579 
L 163.782096 245.153433 
L 160.739081 239.482755 
L 158.644759 235.890434 
L 155.240956 230.496634 
L 152.165464 226.023286 
L 148.27876 220.825054 
L 144.455934 216.134553 
L 140.481974 211.639946 
L 137.440838 208.432094 
L 133.005517 204.074038 
L 128.390625 199.901113 
L 124.541434 196.6743 
L 119.594786 192.834752 
L 114.735355 189.370759 
L 110.999165 186.898995 
L 105.94268 183.800437 
L 100.848763 180.947477 
L 96.230598 178.579578 
L 91.448542 176.334828 
L 85.188004 173.698038 
L 79.769929 171.678973 
L 74.711675 170.004516 
L 68.52895 168.223471 
L 63.182756 166.911315 
L 57.603607 165.760927 
L 52.636515 164.920732 
L 46.958312 164.168654 
L 40.492759 163.578973 
L 35.125472 163.302863 
L 30.103125 163.218769 
L 30.103125 163.218769 
" clip-path="url(#peadbe81899)" style="fill: none; stroke: #0000ff; stroke-width: 2; stroke-linecap: square"/>
   </g>
   <g id="line2d_44">
    <path d="M 330.13922 313.236817 
L 330.02877 305.096444 
L 329.727366 297.52147 
L 329.023962 287.391287 
L 328.35421 280.557336 
L 327.237795 271.611752 
L 326.137192 264.395347 
L 324.438198 255.025798 
L 323.064559 248.466018 
L 321.265311 240.805886 
L 319.702813 234.791428 
L 316.889792 225.060484 
L 314.711768 218.265356 
L 311.569765 209.322482 
L 308.488597 201.329769 
L 304.888271 192.759508 
L 302.38479 187.203675 
L 298.637358 179.404744 
L 294.675015 171.732847 
L 291.285561 165.570324 
L 286.745707 157.814028 
L 283.500088 152.576812 
L 279.328559 146.178919 
L 275.445459 140.526663 
L 269.529661 132.414827 
L 263.860635 125.143529 
L 259.071556 119.342217 
L 252.830517 112.204066 
L 247.968557 106.945005 
L 242.362845 101.181472 
L 236.014436 95.011726 
L 229.31703 88.881121 
L 223.066618 83.483147 
L 215.880604 77.634638 
L 209.359251 72.635696 
L 202.359916 67.575961 
L 195.724172 63.05423 
L 189.18417 58.845624 
L 181.422074 54.153367 
L 173.618319 49.750485 
L 167.369877 46.441957 
L 158.641141 42.128653 
L 151.487894 38.851329 
L 145.19659 36.153521 
L 138.543668 33.482806 
L 132.491912 31.21165 
L 124.475163 28.428852 
L 116.565797 25.928856 
L 108.261258 23.559471 
L 101.334543 21.778855 
L 92.510464 19.762828 
L 84.94093 18.254659 
L 74.835923 16.554099 
L 68.487421 15.666146 
L 58.382664 14.536422 
L 51.457411 13.961604 
L 42.277931 13.447837 
L 34.1858 13.2285 
L 30.103125 13.200722 
L 30.103125 13.200722 
" clip-path="url(#peadbe81899)" style="fill: none; stroke: #0000ff; stroke-width: 2; stroke-linecap: square"/>
   </g>
   <g id="patch_4">
    <path d="M 30.103125 319.237538 
L 30.103125 7.2 
" style="fill: none; stroke: #000000; stroke-width: 0.8; stroke-linejoin: miter; stroke-linecap: square"/>
   </g>
   <g id="patch_5">
    <path d="M 24.102403 313.236817 
L 336.139942 313.236817 
" style="fill: none; stroke: #000000; stroke-width: 0.8; stroke-linejoin: miter; stroke-linecap: square"/>
   </g>
  </g>
 </g>
 <defs>
  <clipPath id="peadbe81899">
   <rect x="24.102403" y="7.2" width="312.037538" height="312.037538"/>
  </clipPath>
 </defs>
</svg>
