<?xml version="1.0" encoding="utf-8" standalone="no"?>
<!DOCTYPE svg PUBLIC "-//W3C//DTD SVG 1.1//EN"
  "http://www.w3.org/Graphics/SVG/1.1/DTD/svg11.dtd">
<svg xmlns:xlink="http://www.w3.org/1999/xlink" width="387.263955pt" height="337.370038pt" viewBox="0 0 387.263955 337.370038" xmlns="http://www.w3.org/2000/svg" version="1.1">
 <metadata>
  <rdf:RDF xmlns:dc="http://purl.org/dc/elements/1.1/" xmlns:cc="http://creativecommons.org/ns#" xmlns:rdf="http://www.w3.org/1999/02/22-rdf-syntax-ns#">
   <cc:Work>
    <dc:type rdf:resource="http://purl.org/dc/dcmitype/StillImage"/>
    <dc:date>2025-02-16T23:30:43.825881</dc:date>
    <dc:format>image/svg+xml</dc:format>
    <dc:creator>
     <cc:Agent>
      <dc:title>Matplotlib v3.6.3, https://matplotlib.org/</dc:title>
     </cc:Agent>
    </dc:creator>
   </cc:Work>
  </rdf:RDF>
 </metadata>
 <defs>
  <style type="text/css">*{stroke-linejoin: round; stroke-linecap: butt}</style>
 </defs>
 <g id="figure_1">
  <g id="patch_1">
   <path d="M 0 337.370038 
L 387.263955 337.370038 
L 387.263955 0 
L 0 0 
z
" style="fill: #ffffff"/>
  </g>
  <g id="axes_1">
   <g id="patch_2">
    <path d="M 7.2 330.170038 
L 380.063955 330.170038 
L 380.063955 7.2 
L 7.2 7.2 
z
" style="fill: #ffffff"/>
   </g>
   <g id="matplotlib.axis_1">
    <g id="xtick_1">
     <g id="line2d_1">
      <defs>
       <path id="mf856d71189" d="M 0 0 
L 0 3.5 
" style="stroke: #000000; stroke-width: 0.8"/>
      </defs>
      <g>
       <use xlink:href="#mf856d71189" x="55.646845" y="47.908742" style="stroke: #000000; stroke-width: 0.8"/>
      </g>
     </g>
     <g id="text_1">
      <!-- −1.0 -->
      <g transform="translate(43.505439 62.50718) scale(0.1 -0.1)">
       <defs>
        <path id="DejaVuSans-2212" d="M 678 2272 
L 4684 2272 
L 4684 1741 
L 678 1741 
L 678 2272 
z
" transform="scale(0.015625)"/>
        <path id="DejaVuSans-31" d="M 794 531 
L 1825 531 
L 1825 4091 
L 703 3866 
L 703 4441 
L 1819 4666 
L 2450 4666 
L 2450 531 
L 3481 531 
L 3481 0 
L 794 0 
L 794 531 
z
" transform="scale(0.015625)"/>
        <path id="DejaVuSans-2e" d="M 684 794 
L 1344 794 
L 1344 0 
L 684 0 
L 684 794 
z
" transform="scale(0.015625)"/>
        <path id="DejaVuSans-30" d="M 2034 4250 
Q 1547 4250 1301 3770 
Q 1056 3291 1056 2328 
Q 1056 1369 1301 889 
Q 1547 409 2034 409 
Q 2525 409 2770 889 
Q 3016 1369 3016 2328 
Q 3016 3291 2770 3770 
Q 2525 4250 2034 4250 
z
M 2034 4750 
Q 2819 4750 3233 4129 
Q 3647 3509 3647 2328 
Q 3647 1150 3233 529 
Q 2819 -91 2034 -91 
Q 1250 -91 836 529 
Q 422 1150 422 2328 
Q 422 3509 836 4129 
Q 1250 4750 2034 4750 
z
" transform="scale(0.015625)"/>
       </defs>
       <use xlink:href="#DejaVuSans-2212"/>
       <use xlink:href="#DejaVuSans-31" x="83.789062"/>
       <use xlink:href="#DejaVuSans-2e" x="147.412109"/>
       <use xlink:href="#DejaVuSans-30" x="179.199219"/>
      </g>
     </g>
    </g>
    <g id="xtick_2">
     <g id="line2d_2">
      <g>
       <use xlink:href="#mf856d71189" x="124.667772" y="47.908742" style="stroke: #000000; stroke-width: 0.8"/>
      </g>
     </g>
     <g id="text_2">
      <!-- −0.5 -->
      <g transform="translate(112.526366 62.50718) scale(0.1 -0.1)">
       <defs>
        <path id="DejaVuSans-35" d="M 691 4666 
L 3169 4666 
L 3169 4134 
L 1269 4134 
L 1269 2991 
Q 1406 3038 1543 3061 
Q 1681 3084 1819 3084 
Q 2600 3084 3056 2656 
Q 3513 2228 3513 1497 
Q 3513 744 3044 326 
Q 2575 -91 1722 -91 
Q 1428 -91 1123 -41 
Q 819 9 494 109 
L 494 744 
Q 775 591 1075 516 
Q 1375 441 1709 441 
Q 2250 441 2565 725 
Q 2881 1009 2881 1497 
Q 2881 1984 2565 2268 
Q 2250 2553 1709 2553 
Q 1456 2553 1204 2497 
Q 953 2441 691 2322 
L 691 4666 
z
" transform="scale(0.015625)"/>
       </defs>
       <use xlink:href="#DejaVuSans-2212"/>
       <use xlink:href="#DejaVuSans-30" x="83.789062"/>
       <use xlink:href="#DejaVuSans-2e" x="147.412109"/>
       <use xlink:href="#DejaVuSans-35" x="179.199219"/>
      </g>
     </g>
    </g>
    <g id="xtick_3">
     <g id="line2d_3">
      <g>
       <use xlink:href="#mf856d71189" x="193.6887" y="47.908742" style="stroke: #000000; stroke-width: 0.8"/>
      </g>
     </g>
    </g>
    <g id="xtick_4">
     <g id="line2d_4">
      <g>
       <use xlink:href="#mf856d71189" x="262.709627" y="47.908742" style="stroke: #000000; stroke-width: 0.8"/>
      </g>
     </g>
     <g id="text_3">
      <!-- 0.5 -->
      <g transform="translate(254.758065 62.50718) scale(0.1 -0.1)">
       <use xlink:href="#DejaVuSans-30"/>
       <use xlink:href="#DejaVuSans-2e" x="63.623047"/>
       <use xlink:href="#DejaVuSans-35" x="95.410156"/>
      </g>
     </g>
    </g>
    <g id="xtick_5">
     <g id="line2d_5">
      <g>
       <use xlink:href="#mf856d71189" x="331.730555" y="47.908742" style="stroke: #000000; stroke-width: 0.8"/>
      </g>
     </g>
     <g id="text_4">
      <!-- 1.0 -->
      <g transform="translate(323.778992 62.50718) scale(0.1 -0.1)">
       <use xlink:href="#DejaVuSans-31"/>
       <use xlink:href="#DejaVuSans-2e" x="63.623047"/>
       <use xlink:href="#DejaVuSans-30" x="95.410156"/>
      </g>
     </g>
    </g>
    <g id="xtick_6">
     <g id="line2d_6">
      <defs>
       <path id="mff109301b5" d="M 0 0 
L 0 2 
" style="stroke: #000000; stroke-width: 0.6"/>
      </defs>
      <g>
       <use xlink:href="#mff109301b5" x="14.234289" y="47.908742" style="stroke: #000000; stroke-width: 0.6"/>
      </g>
     </g>
    </g>
    <g id="xtick_7">
     <g id="line2d_7">
      <g>
       <use xlink:href="#mff109301b5" x="28.038474" y="47.908742" style="stroke: #000000; stroke-width: 0.6"/>
      </g>
     </g>
    </g>
    <g id="xtick_8">
     <g id="line2d_8">
      <g>
       <use xlink:href="#mff109301b5" x="41.842659" y="47.908742" style="stroke: #000000; stroke-width: 0.6"/>
      </g>
     </g>
    </g>
    <g id="xtick_9">
     <g id="line2d_9">
      <g>
       <use xlink:href="#mff109301b5" x="69.45103" y="47.908742" style="stroke: #000000; stroke-width: 0.6"/>
      </g>
     </g>
    </g>
    <g id="xtick_10">
     <g id="line2d_10">
      <g>
       <use xlink:href="#mff109301b5" x="83.255216" y="47.908742" style="stroke: #000000; stroke-width: 0.6"/>
      </g>
     </g>
    </g>
    <g id="xtick_11">
     <g id="line2d_11">
      <g>
       <use xlink:href="#mff109301b5" x="97.059401" y="47.908742" style="stroke: #000000; stroke-width: 0.6"/>
      </g>
     </g>
    </g>
    <g id="xtick_12">
     <g id="line2d_12">
      <g>
       <use xlink:href="#mff109301b5" x="110.863587" y="47.908742" style="stroke: #000000; stroke-width: 0.6"/>
      </g>
     </g>
    </g>
    <g id="xtick_13">
     <g id="line2d_13">
      <g>
       <use xlink:href="#mff109301b5" x="138.471958" y="47.908742" style="stroke: #000000; stroke-width: 0.6"/>
      </g>
     </g>
    </g>
    <g id="xtick_14">
     <g id="line2d_14">
      <g>
       <use xlink:href="#mff109301b5" x="152.276143" y="47.908742" style="stroke: #000000; stroke-width: 0.6"/>
      </g>
     </g>
    </g>
    <g id="xtick_15">
     <g id="line2d_15">
      <g>
       <use xlink:href="#mff109301b5" x="166.080329" y="47.908742" style="stroke: #000000; stroke-width: 0.6"/>
      </g>
     </g>
    </g>
    <g id="xtick_16">
     <g id="line2d_16">
      <g>
       <use xlink:href="#mff109301b5" x="179.884514" y="47.908742" style="stroke: #000000; stroke-width: 0.6"/>
      </g>
     </g>
    </g>
    <g id="xtick_17">
     <g id="line2d_17">
      <g>
       <use xlink:href="#mff109301b5" x="207.492885" y="47.908742" style="stroke: #000000; stroke-width: 0.6"/>
      </g>
     </g>
    </g>
    <g id="xtick_18">
     <g id="line2d_18">
      <g>
       <use xlink:href="#mff109301b5" x="221.297071" y="47.908742" style="stroke: #000000; stroke-width: 0.6"/>
      </g>
     </g>
    </g>
    <g id="xtick_19">
     <g id="line2d_19">
      <g>
       <use xlink:href="#mff109301b5" x="235.101256" y="47.908742" style="stroke: #000000; stroke-width: 0.6"/>
      </g>
     </g>
    </g>
    <g id="xtick_20">
     <g id="line2d_20">
      <g>
       <use xlink:href="#mff109301b5" x="248.905442" y="47.908742" style="stroke: #000000; stroke-width: 0.6"/>
      </g>
     </g>
    </g>
    <g id="xtick_21">
     <g id="line2d_21">
      <g>
       <use xlink:href="#mff109301b5" x="276.513813" y="47.908742" style="stroke: #000000; stroke-width: 0.6"/>
      </g>
     </g>
    </g>
    <g id="xtick_22">
     <g id="line2d_22">
      <g>
       <use xlink:href="#mff109301b5" x="290.317998" y="47.908742" style="stroke: #000000; stroke-width: 0.6"/>
      </g>
     </g>
    </g>
    <g id="xtick_23">
     <g id="line2d_23">
      <g>
       <use xlink:href="#mff109301b5" x="304.122184" y="47.908742" style="stroke: #000000; stroke-width: 0.6"/>
      </g>
     </g>
    </g>
    <g id="xtick_24">
     <g id="line2d_24">
      <g>
       <use xlink:href="#mff109301b5" x="317.926369" y="47.908742" style="stroke: #000000; stroke-width: 0.6"/>
      </g>
     </g>
    </g>
    <g id="xtick_25">
     <g id="line2d_25">
      <g>
       <use xlink:href="#mff109301b5" x="345.53474" y="47.908742" style="stroke: #000000; stroke-width: 0.6"/>
      </g>
     </g>
    </g>
    <g id="xtick_26">
     <g id="line2d_26">
      <g>
       <use xlink:href="#mff109301b5" x="359.338925" y="47.908742" style="stroke: #000000; stroke-width: 0.6"/>
      </g>
     </g>
    </g>
    <g id="xtick_27">
     <g id="line2d_27">
      <g>
       <use xlink:href="#mff109301b5" x="373.143111" y="47.908742" style="stroke: #000000; stroke-width: 0.6"/>
      </g>
     </g>
    </g>
   </g>
   <g id="matplotlib.axis_2">
    <g id="ytick_1">
     <g id="line2d_28">
      <defs>
       <path id="m05ffb080b8" d="M 0 0 
L -3.5 0 
" style="stroke: #000000; stroke-width: 0.8"/>
      </defs>
      <g>
       <use xlink:href="#m05ffb080b8" x="193.6887" y="323.992452" style="stroke: #000000; stroke-width: 0.8"/>
      </g>
     </g>
     <g id="text_5">
      <!-- −2.0 -->
      <g transform="translate(162.405887 327.791671) scale(0.1 -0.1)">
       <defs>
        <path id="DejaVuSans-32" d="M 1228 531 
L 3431 531 
L 3431 0 
L 469 0 
L 469 531 
Q 828 903 1448 1529 
Q 2069 2156 2228 2338 
Q 2531 2678 2651 2914 
Q 2772 3150 2772 3378 
Q 2772 3750 2511 3984 
Q 2250 4219 1831 4219 
Q 1534 4219 1204 4116 
Q 875 4013 500 3803 
L 500 4441 
Q 881 4594 1212 4672 
Q 1544 4750 1819 4750 
Q 2544 4750 2975 4387 
Q 3406 4025 3406 3419 
Q 3406 3131 3298 2873 
Q 3191 2616 2906 2266 
Q 2828 2175 2409 1742 
Q 1991 1309 1228 531 
z
" transform="scale(0.015625)"/>
       </defs>
       <use xlink:href="#DejaVuSans-2212"/>
       <use xlink:href="#DejaVuSans-32" x="83.789062"/>
       <use xlink:href="#DejaVuSans-2e" x="147.412109"/>
       <use xlink:href="#DejaVuSans-30" x="179.199219"/>
      </g>
     </g>
    </g>
    <g id="ytick_2">
     <g id="line2d_29">
      <g>
       <use xlink:href="#m05ffb080b8" x="193.6887" y="254.971525" style="stroke: #000000; stroke-width: 0.8"/>
      </g>
     </g>
     <g id="text_6">
      <!-- −1.5 -->
      <g transform="translate(162.405887 258.770743) scale(0.1 -0.1)">
       <use xlink:href="#DejaVuSans-2212"/>
       <use xlink:href="#DejaVuSans-31" x="83.789062"/>
       <use xlink:href="#DejaVuSans-2e" x="147.412109"/>
       <use xlink:href="#DejaVuSans-35" x="179.199219"/>
      </g>
     </g>
    </g>
    <g id="ytick_3">
     <g id="line2d_30">
      <g>
       <use xlink:href="#m05ffb080b8" x="193.6887" y="185.950597" style="stroke: #000000; stroke-width: 0.8"/>
      </g>
     </g>
     <g id="text_7">
      <!-- −1.0 -->
      <g transform="translate(162.405887 189.749816) scale(0.1 -0.1)">
       <use xlink:href="#DejaVuSans-2212"/>
       <use xlink:href="#DejaVuSans-31" x="83.789062"/>
       <use xlink:href="#DejaVuSans-2e" x="147.412109"/>
       <use xlink:href="#DejaVuSans-30" x="179.199219"/>
      </g>
     </g>
    </g>
    <g id="ytick_4">
     <g id="line2d_31">
      <g>
       <use xlink:href="#m05ffb080b8" x="193.6887" y="116.92967" style="stroke: #000000; stroke-width: 0.8"/>
      </g>
     </g>
     <g id="text_8">
      <!-- −0.5 -->
      <g transform="translate(162.405887 120.728889) scale(0.1 -0.1)">
       <use xlink:href="#DejaVuSans-2212"/>
       <use xlink:href="#DejaVuSans-30" x="83.789062"/>
       <use xlink:href="#DejaVuSans-2e" x="147.412109"/>
       <use xlink:href="#DejaVuSans-35" x="179.199219"/>
      </g>
     </g>
    </g>
    <g id="ytick_5">
     <g id="line2d_32">
      <g>
       <use xlink:href="#m05ffb080b8" x="193.6887" y="47.908742" style="stroke: #000000; stroke-width: 0.8"/>
      </g>
     </g>
    </g>
    <g id="ytick_6">
     <g id="line2d_33">
      <defs>
       <path id="me892620d0b" d="M 0 0 
L -2 0 
" style="stroke: #000000; stroke-width: 0.6"/>
      </defs>
      <g>
       <use xlink:href="#me892620d0b" x="193.6887" y="310.188267" style="stroke: #000000; stroke-width: 0.6"/>
      </g>
     </g>
    </g>
    <g id="ytick_7">
     <g id="line2d_34">
      <g>
       <use xlink:href="#me892620d0b" x="193.6887" y="296.384081" style="stroke: #000000; stroke-width: 0.6"/>
      </g>
     </g>
    </g>
    <g id="ytick_8">
     <g id="line2d_35">
      <g>
       <use xlink:href="#me892620d0b" x="193.6887" y="282.579896" style="stroke: #000000; stroke-width: 0.6"/>
      </g>
     </g>
    </g>
    <g id="ytick_9">
     <g id="line2d_36">
      <g>
       <use xlink:href="#me892620d0b" x="193.6887" y="268.77571" style="stroke: #000000; stroke-width: 0.6"/>
      </g>
     </g>
    </g>
    <g id="ytick_10">
     <g id="line2d_37">
      <g>
       <use xlink:href="#me892620d0b" x="193.6887" y="241.167339" style="stroke: #000000; stroke-width: 0.6"/>
      </g>
     </g>
    </g>
    <g id="ytick_11">
     <g id="line2d_38">
      <g>
       <use xlink:href="#me892620d0b" x="193.6887" y="227.363154" style="stroke: #000000; stroke-width: 0.6"/>
      </g>
     </g>
    </g>
    <g id="ytick_12">
     <g id="line2d_39">
      <g>
       <use xlink:href="#me892620d0b" x="193.6887" y="213.558968" style="stroke: #000000; stroke-width: 0.6"/>
      </g>
     </g>
    </g>
    <g id="ytick_13">
     <g id="line2d_40">
      <g>
       <use xlink:href="#me892620d0b" x="193.6887" y="199.754783" style="stroke: #000000; stroke-width: 0.6"/>
      </g>
     </g>
    </g>
    <g id="ytick_14">
     <g id="line2d_41">
      <g>
       <use xlink:href="#me892620d0b" x="193.6887" y="172.146412" style="stroke: #000000; stroke-width: 0.6"/>
      </g>
     </g>
    </g>
    <g id="ytick_15">
     <g id="line2d_42">
      <g>
       <use xlink:href="#me892620d0b" x="193.6887" y="158.342226" style="stroke: #000000; stroke-width: 0.6"/>
      </g>
     </g>
    </g>
    <g id="ytick_16">
     <g id="line2d_43">
      <g>
       <use xlink:href="#me892620d0b" x="193.6887" y="144.538041" style="stroke: #000000; stroke-width: 0.6"/>
      </g>
     </g>
    </g>
    <g id="ytick_17">
     <g id="line2d_44">
      <g>
       <use xlink:href="#me892620d0b" x="193.6887" y="130.733855" style="stroke: #000000; stroke-width: 0.6"/>
      </g>
     </g>
    </g>
    <g id="ytick_18">
     <g id="line2d_45">
      <g>
       <use xlink:href="#me892620d0b" x="193.6887" y="103.125484" style="stroke: #000000; stroke-width: 0.6"/>
      </g>
     </g>
    </g>
    <g id="ytick_19">
     <g id="line2d_46">
      <g>
       <use xlink:href="#me892620d0b" x="193.6887" y="89.321299" style="stroke: #000000; stroke-width: 0.6"/>
      </g>
     </g>
    </g>
    <g id="ytick_20">
     <g id="line2d_47">
      <g>
       <use xlink:href="#me892620d0b" x="193.6887" y="75.517113" style="stroke: #000000; stroke-width: 0.6"/>
      </g>
     </g>
    </g>
    <g id="ytick_21">
     <g id="line2d_48">
      <g>
       <use xlink:href="#me892620d0b" x="193.6887" y="61.712928" style="stroke: #000000; stroke-width: 0.6"/>
      </g>
     </g>
    </g>
    <g id="ytick_22">
     <g id="line2d_49">
      <g>
       <use xlink:href="#me892620d0b" x="193.6887" y="34.104557" style="stroke: #000000; stroke-width: 0.6"/>
      </g>
     </g>
    </g>
    <g id="ytick_23">
     <g id="line2d_50">
      <g>
       <use xlink:href="#me892620d0b" x="193.6887" y="20.300372" style="stroke: #000000; stroke-width: 0.6"/>
      </g>
     </g>
    </g>
   </g>
   <g id="line2d_51">
    <path d="M 331.730555 47.908742 
L 326.772127 43.205581 
L 320.945414 38.274467 
L 317.762718 35.824985 
L 313.898981 33.063835 
L 308.009801 29.27117 
L 303.866524 26.883326 
L 297.980228 23.862629 
L 290.842821 20.750484 
L 284.725429 18.538012 
L 278.604255 16.727766 
L 274.114873 15.650726 
L 270.351907 14.909388 
L 266.521553 14.305384 
L 261.172631 13.716779 
L 256.98849 13.465359 
L 251.642018 13.416358 
L 246.374343 13.675891 
L 243.474123 13.954042 
L 240.31862 14.370091 
L 236.937431 14.952297 
L 229.728296 16.69912 
L 223.20704 18.942254 
L 218.845336 20.851426 
L 214.880233 22.921523 
L 211.649957 24.884692 
L 208.424109 27.142606 
L 206.602799 28.574113 
L 204.647738 30.261736 
L 201.317253 33.594527 
L 198.881513 36.547202 
L 197.516991 38.49253 
L 196.08689 40.890823 
L 194.834654 43.539778 
L 194.127036 45.575738 
L 193.701908 47.67985 
L 193.688749 47.903199 
L 193.654101 47.474344 
L 193.332517 45.873359 
L 192.795921 44.193537 
L 191.980723 42.257697 
L 191.022238 40.40328 
L 190.025811 38.747818 
L 188.865885 37.049349 
L 186.401749 33.977247 
L 185.223574 32.693083 
L 182.371886 29.939969 
L 179.876302 27.852462 
L 177.254951 25.913195 
L 175.146652 24.51135 
L 172.326879 22.825335 
L 167.596504 20.411402 
L 165.201433 19.361739 
L 159.603396 17.300671 
L 155.855048 16.19672 
L 150.131411 14.893145 
L 146.895155 14.345543 
L 140.915902 13.669043 
L 137.897598 13.485237 
L 132.384547 13.410962 
L 129.803402 13.489391 
L 122.094481 14.142596 
L 113.957358 15.502786 
L 111.135141 16.13489 
L 105.142961 17.753307 
L 100.524604 19.261015 
L 96.880029 20.614562 
L 90.79368 23.207318 
L 86.253245 25.423177 
L 81.250986 28.15805 
L 77.658519 30.322276 
L 72.695092 33.605503 
L 66.535449 38.192241 
L 63.756149 40.464208 
L 59.475033 44.234238 
L 51.720271 52.009618 
L 48.951059 55.126868 
L 46.131245 58.514459 
L 40.020639 66.720192 
L 37.938719 69.835485 
L 35.715214 73.377339 
L 30.822515 82.122198 
L 28.290885 87.300645 
L 24.040518 97.442415 
L 21.495113 104.802969 
L 19.449443 111.858667 
L 16.971391 122.91886 
L 16.450683 125.8906 
L 15.505599 132.497886 
L 14.542034 143.985099 
L 14.370461 150.400707 
L 14.449683 156.576648 
L 15.450273 170.059299 
L 16.632498 178.359472 
L 18.182688 186.343808 
L 20.935807 197.130874 
L 22.495565 202.189964 
L 26.514283 213.212898 
L 29.37563 219.876874 
L 31.127593 223.608988 
L 36.22244 233.32719 
L 40.941318 241.178667 
L 45.891034 248.523532 
L 50.77521 255.060694 
L 55.933464 261.336031 
L 64.616315 270.709691 
L 70.226237 276.103324 
L 77.632318 282.552281 
L 84.392866 287.854035 
L 95.164053 295.298948 
L 101.281609 299.038597 
L 111.458949 304.558529 
L 116.709434 307.088827 
L 126.61077 311.316386 
L 135.070549 314.398646 
L 144.417889 317.270329 
L 151.829133 319.166797 
L 159.321 320.754263 
L 164.341179 321.637104 
L 173.702562 322.903993 
L 184.419184 323.75888 
L 190.183687 323.959076 
L 197.827241 323.945918 
L 205.937674 323.584396 
L 213.754278 322.895296 
L 226.343635 321.071616 
L 237.025022 318.815101 
L 245.900377 316.425551 
L 252.456572 314.348164 
L 265.642791 309.320771 
L 276.605171 304.212106 
L 284.07609 300.201592 
L 291.016276 296.057118 
L 295.504081 293.145849 
L 302.735562 288.039509 
L 309.801107 282.506117 
L 318.899697 274.4724 
L 323.316322 270.149513 
L 329.228928 263.858699 
L 338.190677 253.003468 
L 343.611859 245.467592 
L 350.165873 235.052808 
L 353.21948 229.568565 
L 355.11573 225.907175 
L 361.055413 212.735261 
L 363.665481 205.786741 
L 364.796737 202.450551 
L 367.059533 194.953277 
L 369.722532 183.851469 
L 370.544742 179.520897 
L 372.267885 166.853609 
L 372.893495 157.549418 
L 372.853099 144.372234 
L 372.325687 136.72724 
L 371.967958 133.30949 
L 371.26089 128.00541 
L 368.711622 114.964477 
L 367.558731 110.484425 
L 366.3575 106.331823 
L 362.491701 95.245628 
L 361.161987 91.98591 
L 356.474094 81.965265 
L 353.289032 76.127036 
L 351.449702 73.028494 
L 348.235101 68.012301 
L 345.336549 63.86276 
L 339.851065 56.810146 
L 334.510112 50.774607 
L 331.730555 47.908742 
L 331.730555 47.908742 
" clip-path="url(#pe415e57a9c)" style="fill: none; stroke: #0000ff; stroke-width: 2; stroke-linecap: square"/>
   </g>
   <g id="patch_3">
    <path d="M 193.6887 330.170038 
L 193.6887 7.2 
" style="fill: none; stroke: #000000; stroke-width: 0.8; stroke-linejoin: miter; stroke-linecap: square"/>
   </g>
   <g id="patch_4">
    <path d="M 7.2 47.908742 
L 380.063955 47.908742 
" style="fill: none; stroke: #000000; stroke-width: 0.8; stroke-linejoin: miter; stroke-linecap: square"/>
   </g>
  </g>
 </g>
 <defs>
  <clipPath id="pe415e57a9c">
   <rect x="7.2" y="7.2" width="372.863955" height="322.970038"/>
  </clipPath>
 </defs>
</svg>
