<?xml version="1.0" encoding="utf-8" standalone="no"?>
<!DOCTYPE svg PUBLIC "-//W3C//DTD SVG 1.1//EN"
  "http://www.w3.org/Graphics/SVG/1.1/DTD/svg11.dtd">
<svg xmlns:xlink="http://www.w3.org/1999/xlink" width="345.290782pt" height="337.114942pt" viewBox="0 0 345.290782 337.114942" xmlns="http://www.w3.org/2000/svg" version="1.1">
 <metadata>
  <rdf:RDF xmlns:dc="http://purl.org/dc/elements/1.1/" xmlns:cc="http://creativecommons.org/ns#" xmlns:rdf="http://www.w3.org/1999/02/22-rdf-syntax-ns#">
   <cc:Work>
    <dc:type rdf:resource="http://purl.org/dc/dcmitype/StillImage"/>
    <dc:date>2025-03-30T00:13:19.029065</dc:date>
    <dc:format>image/svg+xml</dc:format>
    <dc:creator>
     <cc:Agent>
      <dc:title>Matplotlib v3.6.3, https://matplotlib.org/</dc:title>
     </cc:Agent>
    </dc:creator>
   </cc:Work>
  </rdf:RDF>
 </metadata>
 <defs>
  <style type="text/css">*{stroke-linejoin: round; stroke-linecap: butt}</style>
 </defs>
 <g id="figure_1">
  <g id="patch_1">
   <path d="M 0 337.114942 
L 345.290782 337.114942 
L 345.290782 0 
L 0 0 
z
" style="fill: #ffffff"/>
  </g>
  <g id="axes_1">
   <g id="patch_2">
    <path d="M 24.102403 319.237538 
L 336.139942 319.237538 
L 336.139942 7.2 
L 24.102403 7.2 
z
" style="fill: #ffffff"/>
   </g>
   <g id="patch_3">
    <path d="M 30.103125 113.212753 
L 31.277591 113.216201 
L 33.466626 113.241035 
L 34.401045 113.258934 
L 35.875649 113.296066 
L 38.677327 113.396608 
L 39.199745 113.419707 
L 41.514847 113.538548 
L 41.938811 113.563227 
L 43.661099 113.672774 
L 45.649831 113.817846 
L 47.739595 113.99179 
L 48.6781 114.077091 
L 50.444545 114.249751 
L 52.677362 114.490673 
L 54.177397 114.66679 
L 55.157321 114.78805 
L 57.081873 115.040517 
L 58.257241 115.204063 
L 59.521029 115.387852 
L 62.005376 115.773219 
L 63.447066 116.011546 
L 65.361882 116.344852 
L 66.200668 116.496904 
L 68.298727 116.893439 
L 69.301364 117.091147 
L 70.505036 117.335537 
L 71.792907 117.605562 
L 74.503043 118.202786 
L 74.999867 118.316555 
L 77.253208 118.849329 
L 79.247935 119.344028 
L 79.386526 119.379208 
L 81.070274 119.815061 
L 83.877696 120.576698 
L 85.065107 120.912075 
L 86.480443 121.32219 
L 88.253668 121.852021 
L 89.562543 122.25461 
L 90.81123 122.647856 
L 92.56706 123.216074 
L 93.699155 123.591962 
L 95.342174 124.150878 
L 97.013748 124.735903 
L 98.600382 125.306639 
L 99.260991 125.548736 
L 101.65624 126.448761 
L 103.010646 126.973242 
L 103.959815 127.347562 
L 105.55804 127.990544 
L 106.327251 128.305726 
L 107.916506 128.968795 
L 110.573334 130.113439 
L 111.847271 130.678551 
L 112.09043 130.787624 
L 113.938058 131.62919 
L 116.118986 132.65194 
L 117.557607 133.344239 
L 118.393322 133.752926 
L 120.340846 134.724129 
L 121.903163 135.522498 
L 122.603183 135.88585 
L 124.659793 136.973768 
L 125.141287 137.232915 
L 126.817005 138.148121 
L 127.857142 138.726708 
L 129.674616 139.757296 
L 131.353785 140.731948 
L 132.216873 141.241444 
L 133.152187 141.800191 
L 135.728908 143.375638 
L 135.963924 143.522006 
L 137.957755 144.782061 
L 139.286013 145.639911 
L 140.010238 146.11395 
L 141.369344 147.015716 
L 142.64232 147.874924 
L 144.922701 149.450093 
L 145.03496 149.528847 
L 147.223029 151.087028 
L 148.344814 151.903222 
L 149.313885 152.61795 
L 150.481026 153.490809 
L 151.834886 154.520074 
L 153.324209 155.673526 
L 154.687372 156.749146 
L 155.766431 157.614327 
L 156.33865 158.07813 
L 158.222159 159.629724 
L 159.604169 160.793039 
L 160.780258 161.799989 
L 161.607501 162.51779 
L 163.101043 163.834073 
L 164.160985 164.784413 
L 165.496402 166.001337 
L 166.243346 166.691717 
L 167.183763 167.571019 
L 168.874173 169.180501 
L 169.722603 170.002647 
L 171.24275 171.500329 
L 171.590212 171.847177 
L 173.630025 173.918279 
L 173.962107 174.26121 
L 174.972313 175.314576 
L 176.270292 176.690908 
L 177.233602 177.729442 
L 179.026292 179.702117 
L 179.742041 180.504678 
L 181.148409 182.107308 
L 181.529837 182.547962 
L 182.96927 184.234616 
L 183.457128 184.814951 
L 184.637271 186.237511 
L 185.322282 187.075653 
L 186.58515 188.645478 
L 188.076922 190.542459 
L 188.544445 191.146793 
L 189.360004 192.212553 
L 190.290227 193.446507 
L 191.779268 195.463939 
L 192.12706 195.942868 
L 193.326814 197.618249 
L 194.212048 198.878227 
L 195.217914 200.335389 
L 196.055874 201.570748 
L 197.152088 203.217409 
L 197.529704 203.792921 
L 198.674463 205.564491 
L 199.495076 206.860161 
L 200.445992 208.389625 
L 201.020112 209.328158 
L 201.718992 210.486537 
L 203.004857 212.665366 
L 203.408404 213.362364 
L 204.418017 215.135113 
L 205.071432 216.305308 
L 206.092243 218.171279 
L 206.63862 219.189781 
L 207.189972 220.232116 
L 208.145396 222.074459 
L 208.579319 222.926939 
L 209.313726 224.39321 
L 209.910475 225.60724 
L 211.177443 228.256129 
L 211.885752 229.782025 
L 212.135097 230.327305 
L 213.160105 232.615678 
L 213.615834 233.658482 
L 214.05354 234.675563 
L 214.894193 236.673856 
L 215.519861 238.20176 
L 215.899809 239.147558 
L 216.553289 240.807801 
L 217.122899 242.291556 
L 217.784624 244.061092 
L 218.076725 244.858812 
L 218.498002 246.028214 
L 219.122953 247.806468 
L 219.543511 249.034277 
L 220.35397 251.477269 
L 220.856753 253.048119 
L 220.989753 253.471267 
L 221.698919 255.785293 
L 222.130489 257.244698 
L 222.690627 259.202754 
L 222.858295 259.80396 
L 223.250263 261.238655 
L 223.789812 263.285909 
L 224.17204 264.792187 
L 224.388442 265.667485 
L 224.885746 267.746639 
L 225.1871 269.056859 
L 225.637698 271.095902 
L 225.991876 272.774205 
L 226.197651 273.783518 
L 226.554717 275.601756 
L 226.852563 277.19123 
L 227.186768 279.065724 
L 227.486488 280.841849 
L 227.549536 281.228369 
L 227.834781 283.040492 
L 228.050481 284.488426 
L 228.258846 285.961622 
L 228.496408 287.746994 
L 228.788319 290.132278 
L 228.884698 290.97672 
L 229.105897 293.049625 
L 229.203125 294.032235 
L 229.3993 296.188055 
L 229.516022 297.612398 
L 229.623277 299.047573 
L 229.755694 301.051675 
L 229.805948 301.905077 
L 229.891385 303.527187 
L 229.938886 304.559579 
L 230.036991 307.230557 
L 230.060999 308.09147 
L 230.098185 309.830681 
L 230.117062 311.2241 
L 230.127188 313.236817 
L 330.13922 313.236817 
L 330.130314 310.925098 
L 330.100427 308.41218 
L 330.037713 305.432907 
L 329.985838 303.644282 
L 329.949296 302.562923 
L 329.798939 298.951263 
L 329.705946 297.118255 
L 329.53029 294.131033 
L 329.330611 291.223872 
L 329.275352 290.485185 
L 329.064205 287.86103 
L 328.780078 284.710765 
L 328.619225 283.07399 
L 328.278743 279.875778 
L 327.919586 276.808618 
L 327.684027 274.93192 
L 327.537224 273.80821 
L 326.982691 269.829655 
L 326.789493 268.528233 
L 326.364213 265.79184 
L 326.150024 264.473185 
L 325.805628 262.426504 
L 325.336286 259.766837 
L 324.775398 256.757534 
L 324.400211 254.834049 
L 324.006817 252.88553 
L 323.441998 250.197435 
L 322.878193 247.628756 
L 322.170514 244.546947 
L 321.648192 242.362759 
L 320.95289 239.561365 
L 320.593189 238.155656 
L 319.942673 235.682356 
L 319.332356 233.436378 
L 318.508948 230.509921 
L 317.832926 228.188478 
L 317.726205 227.828257 
L 316.928026 225.184934 
L 315.956087 222.079029 
L 315.50905 220.688904 
L 314.270456 216.952934 
L 314.08878 216.418401 
L 313.170501 213.76562 
L 311.819366 210.001079 
L 311.436835 208.963129 
L 310.518568 206.518319 
L 309.651078 204.266177 
L 308.944571 202.47082 
L 308.289165 200.834924 
L 307.208931 198.19756 
L 306.517869 196.546853 
L 305.170184 193.404555 
L 304.529482 191.944473 
L 303.328016 189.261749 
L 302.124877 186.643671 
L 301.05814 184.37628 
L 299.991593 182.157172 
L 298.741782 179.614475 
L 298.08937 178.310797 
L 297.399567 176.949363 
L 295.476701 173.242091 
L 295.321654 172.948577 
L 293.773598 170.060213 
L 292.144527 167.100025 
L 291.115898 165.270636 
L 290.443371 164.090532 
L 289.374574 162.240215 
L 287.8204 159.602627 
L 287.174829 158.524835 
L 286.088223 156.733501 
L 284.234366 153.740828 
L 283.436292 152.476235 
L 281.89218 150.068407 
L 280.375405 147.751336 
L 279.563141 146.529412 
L 278.247194 144.576865 
L 276.100594 141.461081 
L 275.548843 140.673618 
L 273.170855 137.339868 
L 271.982239 135.708925 
L 271.533608 135.099285 
L 270.140079 133.225931 
L 267.828895 130.184593 
L 266.764266 128.810239 
L 264.844664 126.373048 
L 264.070276 125.404364 
L 262.038657 122.901409 
L 261.016624 121.662773 
L 258.668117 118.866802 
L 258.129084 118.234713 
L 255.344241 115.024562 
L 254.476298 114.042596 
L 252.489359 111.826735 
L 250.800936 109.97803 
L 249.160671 108.211331 
L 247.909953 106.883131 
L 246.166452 105.058295 
L 245.245303 104.106471 
L 242.544868 101.363826 
L 240.935026 99.761835 
L 240.568441 99.40041 
L 237.582666 96.50219 
L 236.773588 95.730546 
L 234.592539 93.678766 
L 232.723692 91.952918 
L 230.271722 89.732474 
L 229.545541 89.084233 
L 227.664928 87.424965 
L 225.744926 85.759469 
L 223.705325 84.021097 
L 221.977878 82.573128 
L 219.604597 80.619426 
L 218.720001 79.901581 
L 216.184975 77.874961 
L 214.45193 76.515089 
L 212.634538 75.110922 
L 210.110762 73.197426 
L 210.009175 73.121279 
L 206.914741 70.833618 
L 204.921641 69.392308 
L 203.550484 68.415102 
L 201.734489 67.138598 
L 200.322694 66.159993 
L 197.571193 64.286813 
L 195.876706 63.155274 
L 193.503682 61.598353 
L 191.600374 60.37263 
L 189.426374 58.997244 
L 186.918799 57.442949 
L 186.338399 57.088037 
L 183.615836 55.447162 
L 181.547114 54.226438 
L 179.926518 53.28565 
L 176.772931 51.493381 
L 176.150849 51.145763 
L 173.489083 49.680133 
L 171.720806 48.725776 
L 169.144539 47.362517 
L 166.520113 46.00646 
L 164.91449 45.192876 
L 163.209982 44.342371 
L 159.70101 42.633701 
L 158.130405 41.887091 
L 156.359948 41.0588 
L 153.63338 39.81053 
L 151.832374 39.003981 
L 149.610551 38.028472 
L 147.362727 37.063241 
L 145.750123 36.384094 
L 143.648702 35.515625 
L 140.917024 34.414404 
L 138.470751 33.454552 
L 137.071867 32.916738 
L 133.725957 31.662729 
L 132.34424 31.158082 
L 129.217723 30.044383 
L 127.479155 29.441878 
L 125.490641 28.767345 
L 123.35692 28.060752 
L 121.27149 27.387228 
L 118.169279 26.416297 
L 116.364408 25.868326 
L 114.695119 25.372521 
L 111.65976 24.49788 
L 110.11237 24.065278 
L 107.368311 23.32002 
L 105.516035 22.8327 
L 102.729329 22.123278 
L 100.888685 21.67025 
L 99.102763 21.242453 
L 94.954591 20.293229 
L 92.623429 19.786873 
L 91.504109 19.550628 
L 88.891248 19.016466 
L 85.581972 18.374551 
L 83.130438 17.923826 
L 81.329615 17.606127 
L 79.094402 17.227504 
L 76.561041 16.81934 
L 74.68073 16.530741 
L 72.630359 16.229927 
L 69.40772 15.786305 
L 68.951509 15.726378 
L 66.134082 15.372035 
L 62.312949 14.934645 
L 59.991805 14.693143 
L 59.524214 14.6467 
L 56.686096 14.380658 
L 54.159966 14.166714 
L 52.43213 14.03275 
L 49.58188 13.833683 
L 47.801991 13.723197 
L 43.635712 13.506059 
L 42.361828 13.451256 
L 39.149714 13.337138 
L 37.851478 13.300788 
L 33.899992 13.224747 
L 32.816182 13.212988 
L 30.103125 13.200722 
z
" clip-path="url(#pf0dfe4cb6c)" style="fill: #0000ff; opacity: 0.25"/>
   </g>
   <g id="matplotlib.axis_1">
    <g id="xtick_1">
     <g id="line2d_1">
      <defs>
       <path id="m39c0786d37" d="M 0 0 
L 0 3.5 
" style="stroke: #000000; stroke-width: 0.8"/>
      </defs>
      <g>
       <use xlink:href="#m39c0786d37" x="30.103125" y="313.236817" style="stroke: #000000; stroke-width: 0.8"/>
      </g>
     </g>
    </g>
    <g id="xtick_2">
     <g id="line2d_2">
      <g>
       <use xlink:href="#m39c0786d37" x="80.109141" y="313.236817" style="stroke: #000000; stroke-width: 0.8"/>
      </g>
     </g>
     <g id="text_1">
      <!-- 0.5 -->
      <g transform="translate(72.157578 327.835254) scale(0.1 -0.1)">
       <defs>
        <path id="DejaVuSans-30" d="M 2034 4250 
Q 1547 4250 1301 3770 
Q 1056 3291 1056 2328 
Q 1056 1369 1301 889 
Q 1547 409 2034 409 
Q 2525 409 2770 889 
Q 3016 1369 3016 2328 
Q 3016 3291 2770 3770 
Q 2525 4250 2034 4250 
z
M 2034 4750 
Q 2819 4750 3233 4129 
Q 3647 3509 3647 2328 
Q 3647 1150 3233 529 
Q 2819 -91 2034 -91 
Q 1250 -91 836 529 
Q 422 1150 422 2328 
Q 422 3509 836 4129 
Q 1250 4750 2034 4750 
z
" transform="scale(0.015625)"/>
        <path id="DejaVuSans-2e" d="M 684 794 
L 1344 794 
L 1344 0 
L 684 0 
L 684 794 
z
" transform="scale(0.015625)"/>
        <path id="DejaVuSans-35" d="M 691 4666 
L 3169 4666 
L 3169 4134 
L 1269 4134 
L 1269 2991 
Q 1406 3038 1543 3061 
Q 1681 3084 1819 3084 
Q 2600 3084 3056 2656 
Q 3513 2228 3513 1497 
Q 3513 744 3044 326 
Q 2575 -91 1722 -91 
Q 1428 -91 1123 -41 
Q 819 9 494 109 
L 494 744 
Q 775 591 1075 516 
Q 1375 441 1709 441 
Q 2250 441 2565 725 
Q 2881 1009 2881 1497 
Q 2881 1984 2565 2268 
Q 2250 2553 1709 2553 
Q 1456 2553 1204 2497 
Q 953 2441 691 2322 
L 691 4666 
z
" transform="scale(0.015625)"/>
       </defs>
       <use xlink:href="#DejaVuSans-30"/>
       <use xlink:href="#DejaVuSans-2e" x="63.623047"/>
       <use xlink:href="#DejaVuSans-35" x="95.410156"/>
      </g>
     </g>
    </g>
    <g id="xtick_3">
     <g id="line2d_3">
      <g>
       <use xlink:href="#m39c0786d37" x="130.115157" y="313.236817" style="stroke: #000000; stroke-width: 0.8"/>
      </g>
     </g>
     <g id="text_2">
      <!-- 1.0 -->
      <g transform="translate(122.163594 327.835254) scale(0.1 -0.1)">
       <defs>
        <path id="DejaVuSans-31" d="M 794 531 
L 1825 531 
L 1825 4091 
L 703 3866 
L 703 4441 
L 1819 4666 
L 2450 4666 
L 2450 531 
L 3481 531 
L 3481 0 
L 794 0 
L 794 531 
z
" transform="scale(0.015625)"/>
       </defs>
       <use xlink:href="#DejaVuSans-31"/>
       <use xlink:href="#DejaVuSans-2e" x="63.623047"/>
       <use xlink:href="#DejaVuSans-30" x="95.410156"/>
      </g>
     </g>
    </g>
    <g id="xtick_4">
     <g id="line2d_4">
      <g>
       <use xlink:href="#m39c0786d37" x="180.121172" y="313.236817" style="stroke: #000000; stroke-width: 0.8"/>
      </g>
     </g>
     <g id="text_3">
      <!-- 1.5 -->
      <g transform="translate(172.16961 327.835254) scale(0.1 -0.1)">
       <use xlink:href="#DejaVuSans-31"/>
       <use xlink:href="#DejaVuSans-2e" x="63.623047"/>
       <use xlink:href="#DejaVuSans-35" x="95.410156"/>
      </g>
     </g>
    </g>
    <g id="xtick_5">
     <g id="line2d_5">
      <g>
       <use xlink:href="#m39c0786d37" x="230.127188" y="313.236817" style="stroke: #000000; stroke-width: 0.8"/>
      </g>
     </g>
     <g id="text_4">
      <!-- 2.0 -->
      <g transform="translate(222.175626 327.835254) scale(0.1 -0.1)">
       <defs>
        <path id="DejaVuSans-32" d="M 1228 531 
L 3431 531 
L 3431 0 
L 469 0 
L 469 531 
Q 828 903 1448 1529 
Q 2069 2156 2228 2338 
Q 2531 2678 2651 2914 
Q 2772 3150 2772 3378 
Q 2772 3750 2511 3984 
Q 2250 4219 1831 4219 
Q 1534 4219 1204 4116 
Q 875 4013 500 3803 
L 500 4441 
Q 881 4594 1212 4672 
Q 1544 4750 1819 4750 
Q 2544 4750 2975 4387 
Q 3406 4025 3406 3419 
Q 3406 3131 3298 2873 
Q 3191 2616 2906 2266 
Q 2828 2175 2409 1742 
Q 1991 1309 1228 531 
z
" transform="scale(0.015625)"/>
       </defs>
       <use xlink:href="#DejaVuSans-32"/>
       <use xlink:href="#DejaVuSans-2e" x="63.623047"/>
       <use xlink:href="#DejaVuSans-30" x="95.410156"/>
      </g>
     </g>
    </g>
    <g id="xtick_6">
     <g id="line2d_6">
      <g>
       <use xlink:href="#m39c0786d37" x="280.133204" y="313.236817" style="stroke: #000000; stroke-width: 0.8"/>
      </g>
     </g>
     <g id="text_5">
      <!-- 2.5 -->
      <g transform="translate(272.181641 327.835254) scale(0.1 -0.1)">
       <use xlink:href="#DejaVuSans-32"/>
       <use xlink:href="#DejaVuSans-2e" x="63.623047"/>
       <use xlink:href="#DejaVuSans-35" x="95.410156"/>
      </g>
     </g>
    </g>
    <g id="xtick_7">
     <g id="line2d_7">
      <g>
       <use xlink:href="#m39c0786d37" x="330.13922" y="313.236817" style="stroke: #000000; stroke-width: 0.8"/>
      </g>
     </g>
     <g id="text_6">
      <!-- 3.0 -->
      <g transform="translate(322.187657 327.835254) scale(0.1 -0.1)">
       <defs>
        <path id="DejaVuSans-33" d="M 2597 2516 
Q 3050 2419 3304 2112 
Q 3559 1806 3559 1356 
Q 3559 666 3084 287 
Q 2609 -91 1734 -91 
Q 1441 -91 1130 -33 
Q 819 25 488 141 
L 488 750 
Q 750 597 1062 519 
Q 1375 441 1716 441 
Q 2309 441 2620 675 
Q 2931 909 2931 1356 
Q 2931 1769 2642 2001 
Q 2353 2234 1838 2234 
L 1294 2234 
L 1294 2753 
L 1863 2753 
Q 2328 2753 2575 2939 
Q 2822 3125 2822 3475 
Q 2822 3834 2567 4026 
Q 2313 4219 1838 4219 
Q 1578 4219 1281 4162 
Q 984 4106 628 3988 
L 628 4550 
Q 988 4650 1302 4700 
Q 1616 4750 1894 4750 
Q 2613 4750 3031 4423 
Q 3450 4097 3450 3541 
Q 3450 3153 3228 2886 
Q 3006 2619 2597 2516 
z
" transform="scale(0.015625)"/>
       </defs>
       <use xlink:href="#DejaVuSans-33"/>
       <use xlink:href="#DejaVuSans-2e" x="63.623047"/>
       <use xlink:href="#DejaVuSans-30" x="95.410156"/>
      </g>
     </g>
    </g>
    <g id="xtick_8">
     <g id="line2d_8">
      <defs>
       <path id="m04ec1e8320" d="M 0 0 
L 0 2 
" style="stroke: #000000; stroke-width: 0.6"/>
      </defs>
      <g>
       <use xlink:href="#m04ec1e8320" x="40.104328" y="313.236817" style="stroke: #000000; stroke-width: 0.6"/>
      </g>
     </g>
    </g>
    <g id="xtick_9">
     <g id="line2d_9">
      <g>
       <use xlink:href="#m04ec1e8320" x="50.105531" y="313.236817" style="stroke: #000000; stroke-width: 0.6"/>
      </g>
     </g>
    </g>
    <g id="xtick_10">
     <g id="line2d_10">
      <g>
       <use xlink:href="#m04ec1e8320" x="60.106734" y="313.236817" style="stroke: #000000; stroke-width: 0.6"/>
      </g>
     </g>
    </g>
    <g id="xtick_11">
     <g id="line2d_11">
      <g>
       <use xlink:href="#m04ec1e8320" x="70.107938" y="313.236817" style="stroke: #000000; stroke-width: 0.6"/>
      </g>
     </g>
    </g>
    <g id="xtick_12">
     <g id="line2d_12">
      <g>
       <use xlink:href="#m04ec1e8320" x="90.110344" y="313.236817" style="stroke: #000000; stroke-width: 0.6"/>
      </g>
     </g>
    </g>
    <g id="xtick_13">
     <g id="line2d_13">
      <g>
       <use xlink:href="#m04ec1e8320" x="100.111547" y="313.236817" style="stroke: #000000; stroke-width: 0.6"/>
      </g>
     </g>
    </g>
    <g id="xtick_14">
     <g id="line2d_14">
      <g>
       <use xlink:href="#m04ec1e8320" x="110.11275" y="313.236817" style="stroke: #000000; stroke-width: 0.6"/>
      </g>
     </g>
    </g>
    <g id="xtick_15">
     <g id="line2d_15">
      <g>
       <use xlink:href="#m04ec1e8320" x="120.113953" y="313.236817" style="stroke: #000000; stroke-width: 0.6"/>
      </g>
     </g>
    </g>
    <g id="xtick_16">
     <g id="line2d_16">
      <g>
       <use xlink:href="#m04ec1e8320" x="140.11636" y="313.236817" style="stroke: #000000; stroke-width: 0.6"/>
      </g>
     </g>
    </g>
    <g id="xtick_17">
     <g id="line2d_17">
      <g>
       <use xlink:href="#m04ec1e8320" x="150.117563" y="313.236817" style="stroke: #000000; stroke-width: 0.6"/>
      </g>
     </g>
    </g>
    <g id="xtick_18">
     <g id="line2d_18">
      <g>
       <use xlink:href="#m04ec1e8320" x="160.118766" y="313.236817" style="stroke: #000000; stroke-width: 0.6"/>
      </g>
     </g>
    </g>
    <g id="xtick_19">
     <g id="line2d_19">
      <g>
       <use xlink:href="#m04ec1e8320" x="170.119969" y="313.236817" style="stroke: #000000; stroke-width: 0.6"/>
      </g>
     </g>
    </g>
    <g id="xtick_20">
     <g id="line2d_20">
      <g>
       <use xlink:href="#m04ec1e8320" x="190.122375" y="313.236817" style="stroke: #000000; stroke-width: 0.6"/>
      </g>
     </g>
    </g>
    <g id="xtick_21">
     <g id="line2d_21">
      <g>
       <use xlink:href="#m04ec1e8320" x="200.123579" y="313.236817" style="stroke: #000000; stroke-width: 0.6"/>
      </g>
     </g>
    </g>
    <g id="xtick_22">
     <g id="line2d_22">
      <g>
       <use xlink:href="#m04ec1e8320" x="210.124782" y="313.236817" style="stroke: #000000; stroke-width: 0.6"/>
      </g>
     </g>
    </g>
    <g id="xtick_23">
     <g id="line2d_23">
      <g>
       <use xlink:href="#m04ec1e8320" x="220.125985" y="313.236817" style="stroke: #000000; stroke-width: 0.6"/>
      </g>
     </g>
    </g>
    <g id="xtick_24">
     <g id="line2d_24">
      <g>
       <use xlink:href="#m04ec1e8320" x="240.128391" y="313.236817" style="stroke: #000000; stroke-width: 0.6"/>
      </g>
     </g>
    </g>
    <g id="xtick_25">
     <g id="line2d_25">
      <g>
       <use xlink:href="#m04ec1e8320" x="250.129594" y="313.236817" style="stroke: #000000; stroke-width: 0.6"/>
      </g>
     </g>
    </g>
    <g id="xtick_26">
     <g id="line2d_26">
      <g>
       <use xlink:href="#m04ec1e8320" x="260.130798" y="313.236817" style="stroke: #000000; stroke-width: 0.6"/>
      </g>
     </g>
    </g>
    <g id="xtick_27">
     <g id="line2d_27">
      <g>
       <use xlink:href="#m04ec1e8320" x="270.132001" y="313.236817" style="stroke: #000000; stroke-width: 0.6"/>
      </g>
     </g>
    </g>
    <g id="xtick_28">
     <g id="line2d_28">
      <g>
       <use xlink:href="#m04ec1e8320" x="290.134407" y="313.236817" style="stroke: #000000; stroke-width: 0.6"/>
      </g>
     </g>
    </g>
    <g id="xtick_29">
     <g id="line2d_29">
      <g>
       <use xlink:href="#m04ec1e8320" x="300.13561" y="313.236817" style="stroke: #000000; stroke-width: 0.6"/>
      </g>
     </g>
    </g>
    <g id="xtick_30">
     <g id="line2d_30">
      <g>
       <use xlink:href="#m04ec1e8320" x="310.136813" y="313.236817" style="stroke: #000000; stroke-width: 0.6"/>
      </g>
     </g>
    </g>
    <g id="xtick_31">
     <g id="line2d_31">
      <g>
       <use xlink:href="#m04ec1e8320" x="320.138017" y="313.236817" style="stroke: #000000; stroke-width: 0.6"/>
      </g>
     </g>
    </g>
   </g>
   <g id="matplotlib.axis_2">
    <g id="ytick_1">
     <g id="line2d_32">
      <defs>
       <path id="m730e7ac1a8" d="M 0 0 
L -3.5 0 
" style="stroke: #000000; stroke-width: 0.8"/>
      </defs>
      <g>
       <use xlink:href="#m730e7ac1a8" x="30.103125" y="313.236817" style="stroke: #000000; stroke-width: 0.8"/>
      </g>
     </g>
    </g>
    <g id="ytick_2">
     <g id="line2d_33">
      <g>
       <use xlink:href="#m730e7ac1a8" x="30.103125" y="263.230801" style="stroke: #000000; stroke-width: 0.8"/>
      </g>
     </g>
     <g id="text_7">
      <!-- 0.5 -->
      <g transform="translate(7.2 267.03002) scale(0.1 -0.1)">
       <use xlink:href="#DejaVuSans-30"/>
       <use xlink:href="#DejaVuSans-2e" x="63.623047"/>
       <use xlink:href="#DejaVuSans-35" x="95.410156"/>
      </g>
     </g>
    </g>
    <g id="ytick_3">
     <g id="line2d_34">
      <g>
       <use xlink:href="#m730e7ac1a8" x="30.103125" y="213.224785" style="stroke: #000000; stroke-width: 0.8"/>
      </g>
     </g>
     <g id="text_8">
      <!-- 1.0 -->
      <g transform="translate(7.2 217.024004) scale(0.1 -0.1)">
       <use xlink:href="#DejaVuSans-31"/>
       <use xlink:href="#DejaVuSans-2e" x="63.623047"/>
       <use xlink:href="#DejaVuSans-30" x="95.410156"/>
      </g>
     </g>
    </g>
    <g id="ytick_4">
     <g id="line2d_35">
      <g>
       <use xlink:href="#m730e7ac1a8" x="30.103125" y="163.218769" style="stroke: #000000; stroke-width: 0.8"/>
      </g>
     </g>
     <g id="text_9">
      <!-- 1.5 -->
      <g transform="translate(7.2 167.017988) scale(0.1 -0.1)">
       <use xlink:href="#DejaVuSans-31"/>
       <use xlink:href="#DejaVuSans-2e" x="63.623047"/>
       <use xlink:href="#DejaVuSans-35" x="95.410156"/>
      </g>
     </g>
    </g>
    <g id="ytick_5">
     <g id="line2d_36">
      <g>
       <use xlink:href="#m730e7ac1a8" x="30.103125" y="113.212753" style="stroke: #000000; stroke-width: 0.8"/>
      </g>
     </g>
     <g id="text_10">
      <!-- 2.0 -->
      <g transform="translate(7.2 117.011972) scale(0.1 -0.1)">
       <use xlink:href="#DejaVuSans-32"/>
       <use xlink:href="#DejaVuSans-2e" x="63.623047"/>
       <use xlink:href="#DejaVuSans-30" x="95.410156"/>
      </g>
     </g>
    </g>
    <g id="ytick_6">
     <g id="line2d_37">
      <g>
       <use xlink:href="#m730e7ac1a8" x="30.103125" y="63.206738" style="stroke: #000000; stroke-width: 0.8"/>
      </g>
     </g>
     <g id="text_11">
      <!-- 2.5 -->
      <g transform="translate(7.2 67.005956) scale(0.1 -0.1)">
       <use xlink:href="#DejaVuSans-32"/>
       <use xlink:href="#DejaVuSans-2e" x="63.623047"/>
       <use xlink:href="#DejaVuSans-35" x="95.410156"/>
      </g>
     </g>
    </g>
    <g id="ytick_7">
     <g id="line2d_38">
      <g>
       <use xlink:href="#m730e7ac1a8" x="30.103125" y="13.200722" style="stroke: #000000; stroke-width: 0.8"/>
      </g>
     </g>
     <g id="text_12">
      <!-- 3.0 -->
      <g transform="translate(7.2 16.999941) scale(0.1 -0.1)">
       <use xlink:href="#DejaVuSans-33"/>
       <use xlink:href="#DejaVuSans-2e" x="63.623047"/>
       <use xlink:href="#DejaVuSans-30" x="95.410156"/>
      </g>
     </g>
    </g>
    <g id="ytick_8">
     <g id="line2d_39">
      <defs>
       <path id="mda84be5bd3" d="M 0 0 
L -2 0 
" style="stroke: #000000; stroke-width: 0.6"/>
      </defs>
      <g>
       <use xlink:href="#mda84be5bd3" x="30.103125" y="303.235613" style="stroke: #000000; stroke-width: 0.6"/>
      </g>
     </g>
    </g>
    <g id="ytick_9">
     <g id="line2d_40">
      <g>
       <use xlink:href="#mda84be5bd3" x="30.103125" y="293.23441" style="stroke: #000000; stroke-width: 0.6"/>
      </g>
     </g>
    </g>
    <g id="ytick_10">
     <g id="line2d_41">
      <g>
       <use xlink:href="#mda84be5bd3" x="30.103125" y="283.233207" style="stroke: #000000; stroke-width: 0.6"/>
      </g>
     </g>
    </g>
    <g id="ytick_11">
     <g id="line2d_42">
      <g>
       <use xlink:href="#mda84be5bd3" x="30.103125" y="273.232004" style="stroke: #000000; stroke-width: 0.6"/>
      </g>
     </g>
    </g>
    <g id="ytick_12">
     <g id="line2d_43">
      <g>
       <use xlink:href="#mda84be5bd3" x="30.103125" y="253.229598" style="stroke: #000000; stroke-width: 0.6"/>
      </g>
     </g>
    </g>
    <g id="ytick_13">
     <g id="line2d_44">
      <g>
       <use xlink:href="#mda84be5bd3" x="30.103125" y="243.228394" style="stroke: #000000; stroke-width: 0.6"/>
      </g>
     </g>
    </g>
    <g id="ytick_14">
     <g id="line2d_45">
      <g>
       <use xlink:href="#mda84be5bd3" x="30.103125" y="233.227191" style="stroke: #000000; stroke-width: 0.6"/>
      </g>
     </g>
    </g>
    <g id="ytick_15">
     <g id="line2d_46">
      <g>
       <use xlink:href="#mda84be5bd3" x="30.103125" y="223.225988" style="stroke: #000000; stroke-width: 0.6"/>
      </g>
     </g>
    </g>
    <g id="ytick_16">
     <g id="line2d_47">
      <g>
       <use xlink:href="#mda84be5bd3" x="30.103125" y="203.223582" style="stroke: #000000; stroke-width: 0.6"/>
      </g>
     </g>
    </g>
    <g id="ytick_17">
     <g id="line2d_48">
      <g>
       <use xlink:href="#mda84be5bd3" x="30.103125" y="193.222379" style="stroke: #000000; stroke-width: 0.6"/>
      </g>
     </g>
    </g>
    <g id="ytick_18">
     <g id="line2d_49">
      <g>
       <use xlink:href="#mda84be5bd3" x="30.103125" y="183.221176" style="stroke: #000000; stroke-width: 0.6"/>
      </g>
     </g>
    </g>
    <g id="ytick_19">
     <g id="line2d_50">
      <g>
       <use xlink:href="#mda84be5bd3" x="30.103125" y="173.219972" style="stroke: #000000; stroke-width: 0.6"/>
      </g>
     </g>
    </g>
    <g id="ytick_20">
     <g id="line2d_51">
      <g>
       <use xlink:href="#mda84be5bd3" x="30.103125" y="153.217566" style="stroke: #000000; stroke-width: 0.6"/>
      </g>
     </g>
    </g>
    <g id="ytick_21">
     <g id="line2d_52">
      <g>
       <use xlink:href="#mda84be5bd3" x="30.103125" y="143.216363" style="stroke: #000000; stroke-width: 0.6"/>
      </g>
     </g>
    </g>
    <g id="ytick_22">
     <g id="line2d_53">
      <g>
       <use xlink:href="#mda84be5bd3" x="30.103125" y="133.21516" style="stroke: #000000; stroke-width: 0.6"/>
      </g>
     </g>
    </g>
    <g id="ytick_23">
     <g id="line2d_54">
      <g>
       <use xlink:href="#mda84be5bd3" x="30.103125" y="123.213957" style="stroke: #000000; stroke-width: 0.6"/>
      </g>
     </g>
    </g>
    <g id="ytick_24">
     <g id="line2d_55">
      <g>
       <use xlink:href="#mda84be5bd3" x="30.103125" y="103.21155" style="stroke: #000000; stroke-width: 0.6"/>
      </g>
     </g>
    </g>
    <g id="ytick_25">
     <g id="line2d_56">
      <g>
       <use xlink:href="#mda84be5bd3" x="30.103125" y="93.210347" style="stroke: #000000; stroke-width: 0.6"/>
      </g>
     </g>
    </g>
    <g id="ytick_26">
     <g id="line2d_57">
      <g>
       <use xlink:href="#mda84be5bd3" x="30.103125" y="83.209144" style="stroke: #000000; stroke-width: 0.6"/>
      </g>
     </g>
    </g>
    <g id="ytick_27">
     <g id="line2d_58">
      <g>
       <use xlink:href="#mda84be5bd3" x="30.103125" y="73.207941" style="stroke: #000000; stroke-width: 0.6"/>
      </g>
     </g>
    </g>
    <g id="ytick_28">
     <g id="line2d_59">
      <g>
       <use xlink:href="#mda84be5bd3" x="30.103125" y="53.205535" style="stroke: #000000; stroke-width: 0.6"/>
      </g>
     </g>
    </g>
    <g id="ytick_29">
     <g id="line2d_60">
      <g>
       <use xlink:href="#mda84be5bd3" x="30.103125" y="43.204331" style="stroke: #000000; stroke-width: 0.6"/>
      </g>
     </g>
    </g>
    <g id="ytick_30">
     <g id="line2d_61">
      <g>
       <use xlink:href="#mda84be5bd3" x="30.103125" y="33.203128" style="stroke: #000000; stroke-width: 0.6"/>
      </g>
     </g>
    </g>
    <g id="ytick_31">
     <g id="line2d_62">
      <g>
       <use xlink:href="#mda84be5bd3" x="30.103125" y="23.201925" style="stroke: #000000; stroke-width: 0.6"/>
      </g>
     </g>
    </g>
   </g>
   <g id="line2d_63">
    <path d="M 230.127188 313.236817 
L 230.048855 307.639401 
L 229.734583 300.710578 
L 229.117718 293.1665 
L 228.336362 286.530833 
L 227.483588 280.824183 
L 226.239329 273.99124 
L 224.681891 266.882424 
L 223.069142 260.570489 
L 221.252343 254.316511 
L 219.162209 247.919984 
L 217.179489 242.440913 
L 214.294927 235.243188 
L 211.587045 229.134423 
L 209.102257 223.967916 
L 205.443069 216.979193 
L 202.035498 211.017029 
L 198.447657 205.210225 
L 194.522018 199.324335 
L 190.342425 193.51634 
L 186.851297 188.980484 
L 182.132371 183.249378 
L 177.528654 178.050503 
L 173.357483 173.638053 
L 169.029723 169.330506 
L 163.961563 164.604571 
L 159.764072 160.92902 
L 153.806892 156.052199 
L 147.912881 151.587544 
L 143.510916 148.469409 
L 137.378558 144.412626 
L 133.0327 141.728425 
L 126.552683 138.002377 
L 121.726393 135.431298 
L 114.602706 131.937488 
L 109.167523 129.502098 
L 102.672048 126.841062 
L 96.176237 124.44071 
L 89.823487 122.336046 
L 82.153978 120.103871 
L 75.077655 118.334489 
L 68.109508 116.856724 
L 61.099149 115.628941 
L 54.411165 114.695272 
L 47.315441 113.9547 
L 40.527608 113.48458 
L 34.543806 113.262053 
L 30.103125 113.212753 
L 30.103125 113.212753 
" clip-path="url(#pf0dfe4cb6c)" style="fill: none; stroke: #0000ff; stroke-width: 2; stroke-linecap: square"/>
   </g>
   <g id="line2d_64">
    <path d="M 330.13922 313.236817 
L 330.037713 305.432907 
L 329.705946 297.118255 
L 329.064205 287.86103 
L 328.278743 279.875778 
L 327.537224 273.80821 
L 326.150024 264.473185 
L 324.775398 256.757534 
L 323.441998 250.197435 
L 321.648192 242.362759 
L 319.332356 233.436378 
L 316.928026 225.184934 
L 314.08878 216.418401 
L 311.436835 208.963129 
L 308.289165 200.834924 
L 304.529482 191.944473 
L 301.05814 184.37628 
L 297.399567 176.949363 
L 293.773598 170.060213 
L 289.374574 162.240215 
L 286.088223 156.733501 
L 281.89218 150.068407 
L 278.247194 144.576865 
L 273.170855 137.339868 
L 267.828895 130.184593 
L 264.070276 125.404364 
L 258.129084 118.234713 
L 252.489359 111.826735 
L 246.166452 105.058295 
L 240.568441 99.40041 
L 234.592539 93.678766 
L 227.664928 87.424965 
L 221.977878 82.573128 
L 214.45193 76.515089 
L 210.009175 73.121279 
L 201.734489 67.138598 
L 195.876706 63.155274 
L 189.426374 58.997244 
L 181.547114 54.226438 
L 176.150849 51.145763 
L 169.144539 47.362517 
L 163.209982 44.342371 
L 156.359948 41.0588 
L 149.610551 38.028472 
L 140.917024 34.414404 
L 132.34424 31.158082 
L 123.35692 28.060752 
L 114.695119 25.372521 
L 105.516035 22.8327 
L 99.102763 21.242453 
L 88.891248 19.016466 
L 79.094402 17.227504 
L 72.630359 16.229927 
L 66.134082 15.372035 
L 56.686096 14.380658 
L 47.801991 13.723197 
L 37.851478 13.300788 
L 30.103125 13.200722 
L 30.103125 13.200722 
" clip-path="url(#pf0dfe4cb6c)" style="fill: none; stroke: #0000ff; stroke-width: 2; stroke-linecap: square"/>
   </g>
   <g id="patch_4">
    <path d="M 30.103125 319.237538 
L 30.103125 7.2 
" style="fill: none; stroke: #000000; stroke-width: 0.8; stroke-linejoin: miter; stroke-linecap: square"/>
   </g>
   <g id="patch_5">
    <path d="M 24.102403 313.236817 
L 336.139942 313.236817 
" style="fill: none; stroke: #000000; stroke-width: 0.8; stroke-linejoin: miter; stroke-linecap: square"/>
   </g>
  </g>
 </g>
 <defs>
  <clipPath id="pf0dfe4cb6c">
   <rect x="24.102403" y="7.2" width="312.037538" height="312.037538"/>
  </clipPath>
 </defs>
</svg>
