<?xml version="1.0" encoding="utf-8" standalone="no"?>
<!DOCTYPE svg PUBLIC "-//W3C//DTD SVG 1.1//EN"
  "http://www.w3.org/Graphics/SVG/1.1/DTD/svg11.dtd">
<svg xmlns:xlink="http://www.w3.org/1999/xlink" width="360.394118pt" height="335.666889pt" viewBox="0 0 360.394118 335.666889" xmlns="http://www.w3.org/2000/svg" version="1.1">
 <metadata>
  <rdf:RDF xmlns:dc="http://purl.org/dc/elements/1.1/" xmlns:cc="http://creativecommons.org/ns#" xmlns:rdf="http://www.w3.org/1999/02/22-rdf-syntax-ns#">
   <cc:Work>
    <dc:type rdf:resource="http://purl.org/dc/dcmitype/StillImage"/>
    <dc:date>2025-04-04T22:44:08.351082</dc:date>
    <dc:format>image/svg+xml</dc:format>
    <dc:creator>
     <cc:Agent>
      <dc:title>Matplotlib v3.6.3, https://matplotlib.org/</dc:title>
     </cc:Agent>
    </dc:creator>
   </cc:Work>
  </rdf:RDF>
 </metadata>
 <defs>
  <style type="text/css">*{stroke-linejoin: round; stroke-linecap: butt}</style>
 </defs>
 <g id="figure_1">
  <g id="patch_1">
   <path d="M 0 335.666889 
L 360.394118 335.666889 
L 360.394118 0 
L 0 0 
z
" style="fill: #ffffff"/>
  </g>
  <g id="axes_1">
   <g id="patch_2">
    <path d="M 7.2 328.466889 
L 338.836748 328.466889 
L 338.836748 7.5281 
L 7.2 7.5281 
z
" style="fill: #ffffff"/>
   </g>
   <g id="patch_3">
    <path d="M 65.010128 270.862491 
L 167.875124 13.7 
L 322.172619 167.997494 
z
" clip-path="url(#pcf8f550b0b)" style="fill: #0000ff; opacity: 0.5"/>
   </g>
   <g id="matplotlib.axis_1"/>
   <g id="matplotlib.axis_2"/>
   <g id="line2d_1">
    <path d="M 13.57763 322.294989 
L 270.740121 65.132498 
L 270.740121 65.132498 
" clip-path="url(#pcf8f550b0b)" style="fill: none; stroke: #000000; stroke-linecap: square"/>
   </g>
   <g id="line2d_2">
    <path d="M 65.010128 270.862491 
L 167.875124 13.7 
L 167.875124 13.7 
" clip-path="url(#pcf8f550b0b)" style="fill: none; stroke: #ff0000; stroke-width: 2; stroke-linecap: square"/>
   </g>
   <g id="line2d_3">
    <path d="M 167.875124 13.7 
L 322.172619 167.997494 
L 322.172619 167.997494 
" clip-path="url(#pcf8f550b0b)" style="fill: none; stroke: #ff0000; stroke-width: 2; stroke-linecap: square"/>
   </g>
   <g id="line2d_4">
    <path d="M 65.010128 270.862491 
L 322.172619 167.997494 
L 322.172619 167.997494 
" clip-path="url(#pcf8f550b0b)" style="fill: none; stroke: #ff0000; stroke-width: 2; stroke-linecap: square"/>
   </g>
   <g id="line2d_5">
    <path d="M 167.875124 167.997494 
L 322.172619 167.997494 
L 322.172619 167.997494 
" clip-path="url(#pcf8f550b0b)" style="fill: none; stroke: #0000ff; stroke-linecap: square"/>
   </g>
   <g id="patch_4">
    <path d="M 167.875124 328.466889 
L 167.875124 7.5281 
" style="fill: none; stroke: #000000; stroke-width: 0.8; stroke-linejoin: miter; stroke-linecap: square"/>
   </g>
   <g id="patch_5">
    <path d="M 7.2 167.997494 
L 338.836748 167.997494 
" style="fill: none; stroke: #000000; stroke-width: 0.8; stroke-linejoin: miter; stroke-linecap: square"/>
   </g>
   <g id="text_1">
    <!-- $(1,0,0)$ -->
    <g transform="translate(44.275128 294.68549) scale(0.13 -0.13)">
     <defs>
      <path id="Cmr10-28" d="M 1984 -1588 
Q 1628 -1306 1370 -942 
Q 1113 -578 948 -165 
Q 784 247 703 697 
Q 622 1147 622 1600 
Q 622 2059 703 2509 
Q 784 2959 951 3375 
Q 1119 3791 1378 4153 
Q 1638 4516 1984 4788 
Q 1984 4800 2016 4800 
L 2075 4800 
Q 2094 4800 2109 4783 
Q 2125 4766 2125 4744 
Q 2125 4716 2113 4703 
Q 1800 4397 1592 4047 
Q 1384 3697 1257 3301 
Q 1131 2906 1075 2482 
Q 1019 2059 1019 1600 
Q 1019 -434 2106 -1491 
Q 2125 -1509 2125 -1544 
Q 2125 -1559 2108 -1579 
Q 2091 -1600 2075 -1600 
L 2016 -1600 
Q 1984 -1600 1984 -1588 
z
" transform="scale(0.015625)"/>
      <path id="Cmr10-31" d="M 594 0 
L 594 225 
Q 1394 225 1394 428 
L 1394 3788 
Q 1063 3628 556 3628 
L 556 3853 
Q 1341 3853 1741 4263 
L 1831 4263 
Q 1853 4263 1873 4245 
Q 1894 4228 1894 4206 
L 1894 428 
Q 1894 225 2694 225 
L 2694 0 
L 594 0 
z
" transform="scale(0.015625)"/>
      <path id="Cmmi10-3b" d="M 634 -1153 
Q 634 -1125 659 -1100 
Q 891 -878 1019 -587 
Q 1147 -297 1147 25 
L 1147 103 
Q 1044 0 891 0 
Q 744 0 641 103 
Q 538 206 538 353 
Q 538 503 641 603 
Q 744 703 891 703 
Q 1119 703 1216 492 
Q 1313 281 1313 25 
Q 1313 -331 1170 -651 
Q 1028 -972 769 -1228 
Q 744 -1241 728 -1241 
Q 697 -1241 665 -1212 
Q 634 -1184 634 -1153 
z
" transform="scale(0.015625)"/>
      <path id="Cmr10-30" d="M 1600 -141 
Q 816 -141 533 504 
Q 250 1150 250 2041 
Q 250 2597 351 3087 
Q 453 3578 754 3920 
Q 1056 4263 1600 4263 
Q 2022 4263 2290 4056 
Q 2559 3850 2700 3523 
Q 2841 3197 2892 2823 
Q 2944 2450 2944 2041 
Q 2944 1491 2842 1011 
Q 2741 531 2444 195 
Q 2147 -141 1600 -141 
z
M 1600 25 
Q 1956 25 2131 390 
Q 2306 756 2347 1200 
Q 2388 1644 2388 2144 
Q 2388 2625 2347 3031 
Q 2306 3438 2132 3767 
Q 1959 4097 1600 4097 
Q 1238 4097 1063 3765 
Q 888 3434 847 3029 
Q 806 2625 806 2144 
Q 806 1788 823 1472 
Q 841 1156 916 820 
Q 991 484 1158 254 
Q 1325 25 1600 25 
z
" transform="scale(0.015625)"/>
      <path id="Cmr10-29" d="M 416 -1600 
Q 359 -1600 359 -1544 
Q 359 -1516 372 -1503 
Q 1466 -434 1466 1600 
Q 1466 3634 384 4691 
Q 359 4706 359 4744 
Q 359 4766 376 4783 
Q 394 4800 416 4800 
L 475 4800 
Q 494 4800 506 4788 
Q 966 4425 1272 3906 
Q 1578 3388 1720 2800 
Q 1863 2213 1863 1600 
Q 1863 1147 1786 708 
Q 1709 269 1542 -157 
Q 1375 -584 1119 -945 
Q 863 -1306 506 -1588 
Q 494 -1600 475 -1600 
L 416 -1600 
z
" transform="scale(0.015625)"/>
     </defs>
     <use xlink:href="#Cmr10-28"/>
     <use xlink:href="#Cmr10-31" transform="translate(38.818359 0)"/>
     <use xlink:href="#Cmmi10-3b" transform="translate(88.818359 0)"/>
     <use xlink:href="#Cmr10-30" transform="translate(134.0625 0)"/>
     <use xlink:href="#Cmmi10-3b" transform="translate(184.0625 0)"/>
     <use xlink:href="#Cmr10-30" transform="translate(229.306641 0)"/>
     <use xlink:href="#Cmr10-29" transform="translate(279.306641 0)"/>
    </g>
   </g>
   <g id="text_2">
    <!-- $(0,1,0)$ -->
    <g transform="translate(311.724118 150.674495) scale(0.13 -0.13)">
     <use xlink:href="#Cmr10-28"/>
     <use xlink:href="#Cmr10-30" transform="translate(38.818359 0)"/>
     <use xlink:href="#Cmmi10-3b" transform="translate(88.818359 0)"/>
     <use xlink:href="#Cmr10-31" transform="translate(134.0625 0)"/>
     <use xlink:href="#Cmmi10-3b" transform="translate(184.0625 0)"/>
     <use xlink:href="#Cmr10-30" transform="translate(229.306641 0)"/>
     <use xlink:href="#Cmr10-29" transform="translate(279.306641 0)"/>
    </g>
   </g>
   <g id="text_3">
    <!-- $(0,0,1)$ -->
    <g transform="translate(177.999623 16.95) scale(0.13 -0.13)">
     <use xlink:href="#Cmr10-28"/>
     <use xlink:href="#Cmr10-30" transform="translate(38.818359 0)"/>
     <use xlink:href="#Cmmi10-3b" transform="translate(88.818359 0)"/>
     <use xlink:href="#Cmr10-30" transform="translate(134.0625 0)"/>
     <use xlink:href="#Cmmi10-3b" transform="translate(184.0625 0)"/>
     <use xlink:href="#Cmr10-31" transform="translate(229.306641 0)"/>
     <use xlink:href="#Cmr10-29" transform="translate(279.306641 0)"/>
    </g>
   </g>
   <g id="PathCollection_1">
    <defs>
     <path id="C0_0_460ab3c11c" d="M 0 5 
C 1.326016 5 2.597899 4.473168 3.535534 3.535534 
C 4.473168 2.597899 5 1.326016 5 -0 
C 5 -1.326016 4.473168 -2.597899 3.535534 -3.535534 
C 2.597899 -4.473168 1.326016 -5 0 -5 
C -1.326016 -5 -2.597899 -4.473168 -3.535534 -3.535534 
C -4.473168 -2.597899 -5 -1.326016 -5 0 
C -5 1.326016 -4.473168 2.597899 -3.535534 3.535534 
C -2.597899 4.473168 -1.326016 5 0 5 
z
"/>
    </defs>
    <g clip-path="url(#pcf8f550b0b)">
     <use xlink:href="#C0_0_460ab3c11c" x="65.010128" y="270.862491"/>
    </g>
    <g clip-path="url(#pcf8f550b0b)">
     <use xlink:href="#C0_0_460ab3c11c" x="167.875124" y="13.7"/>
    </g>
    <g clip-path="url(#pcf8f550b0b)">
     <use xlink:href="#C0_0_460ab3c11c" x="322.172619" y="167.997494"/>
    </g>
   </g>
  </g>
 </g>
 <defs>
  <clipPath id="pcf8f550b0b">
   <rect x="7.2" y="7.5281" width="331.636748" height="320.938788"/>
  </clipPath>
 </defs>
</svg>
