<?xml version="1.0" encoding="utf-8" standalone="no"?>
<!DOCTYPE svg PUBLIC "-//W3C//DTD SVG 1.1//EN"
  "http://www.w3.org/Graphics/SVG/1.1/DTD/svg11.dtd">
<svg xmlns:xlink="http://www.w3.org/1999/xlink" width="199.381028pt" height="337.397538pt" viewBox="0 0 199.381028 337.397538" xmlns="http://www.w3.org/2000/svg" version="1.1">
 <metadata>
  <rdf:RDF xmlns:dc="http://purl.org/dc/elements/1.1/" xmlns:cc="http://creativecommons.org/ns#" xmlns:rdf="http://www.w3.org/1999/02/22-rdf-syntax-ns#">
   <cc:Work>
    <dc:type rdf:resource="http://purl.org/dc/dcmitype/StillImage"/>
    <dc:date>2025-03-30T00:13:05.649276</dc:date>
    <dc:format>image/svg+xml</dc:format>
    <dc:creator>
     <cc:Agent>
      <dc:title>Matplotlib v3.6.3, https://matplotlib.org/</dc:title>
     </cc:Agent>
    </dc:creator>
   </cc:Work>
  </rdf:RDF>
 </metadata>
 <defs>
  <style type="text/css">*{stroke-linejoin: round; stroke-linecap: butt}</style>
 </defs>
 <g id="figure_1">
  <g id="patch_1">
   <path d="M 0 337.397538 
L 199.381028 337.397538 
L 199.381028 0 
L 0 0 
z
" style="fill: #ffffff"/>
  </g>
  <g id="axes_1">
   <g id="patch_2">
    <path d="M 25.836562 330.197538 
L 187.329079 330.197538 
L 187.329079 7.2 
L 25.836562 7.2 
z
" style="fill: #ffffff"/>
   </g>
   <g id="patch_3">
    <path d="M 28.942188 65.173917 
L 30.472363 65.185226 
L 32.154796 65.223776 
L 33.28791 65.265169 
L 34.935531 65.347548 
L 36.617348 65.458821 
L 38.923781 65.65624 
L 40.510114 65.822251 
L 41.641303 65.955753 
L 42.968846 66.12856 
L 44.855826 66.404336 
L 47.226208 66.801323 
L 48.785022 67.093371 
L 50.659226 67.477402 
L 52.273473 67.83725 
L 53.78414 68.198658 
L 55.194295 68.557759 
L 56.26634 68.844948 
L 58.532699 69.49294 
L 58.88211 69.597831 
L 61.690821 70.490205 
L 62.895082 70.900017 
L 63.626085 71.156869 
L 65.670271 71.908052 
L 66.518952 72.234362 
L 69.336413 73.379823 
L 70.323246 73.804075 
L 71.160839 74.173744 
L 73.13717 75.081471 
L 75.38262 76.17482 
L 75.792452 76.381665 
L 77.038945 77.024908 
L 79.47399 78.34429 
L 79.951167 78.612816 
L 82.406704 80.048104 
L 83.550818 80.748258 
L 84.867835 81.579788 
L 85.729462 82.138961 
L 87.208115 83.127298 
L 88.366499 83.927629 
L 89.609866 84.812968 
L 91.578237 86.272316 
L 92.578521 87.042097 
L 94.227063 88.354012 
L 95.64016 89.52317 
L 97.04083 90.724608 
L 97.696164 91.301833 
L 99.408437 92.85747 
L 99.845889 93.266282 
L 101.708525 95.061447 
L 102.854514 96.211784 
L 103.731319 97.116783 
L 104.718775 98.162936 
L 105.902053 99.455906 
L 107.053237 100.757184 
L 107.427098 101.189408 
L 108.908918 102.951397 
L 110.338972 104.730352 
L 111.222247 105.870537 
L 112.051266 106.971336 
L 113.453049 108.90488 
L 113.996596 109.680615 
L 115.009049 111.167123 
L 116.05173 112.75842 
L 116.909473 114.117164 
L 117.262778 114.69073 
L 118.226665 116.29956 
L 118.96083 117.571095 
L 120.251076 119.912686 
L 121.059036 121.45598 
L 121.270561 121.870718 
L 122.478505 124.332653 
L 122.943028 125.325541 
L 123.46549 126.476261 
L 124.183751 128.122426 
L 124.823699 129.658653 
L 125.458427 131.255337 
L 125.800712 132.14988 
L 126.722378 134.692455 
L 126.838804 135.029087 
L 127.740772 137.775726 
L 128.163431 139.159982 
L 128.548294 140.484967 
L 128.90912 141.791383 
L 129.30046 143.28987 
L 129.86204 145.621112 
L 129.970394 146.100173 
L 130.464939 148.437329 
L 130.832516 150.375126 
L 130.996608 151.312272 
L 131.230466 152.745618 
L 131.43419 154.111637 
L 131.788489 156.865202 
L 131.8726 157.620628 
L 132.00808 158.961377 
L 132.200897 161.280288 
L 132.306677 162.938791 
L 132.358346 163.956084 
L 132.439892 166.328097 
L 132.46699 168.597518 
L 132.466695 168.965732 
L 132.416317 171.939056 
L 132.395311 172.551846 
L 132.343996 173.744668 
L 132.222364 175.812142 
L 132.078251 177.662445 
L 131.868729 179.812815 
L 131.828185 180.182087 
L 131.466918 183.054068 
L 131.336391 183.95728 
L 131.118491 185.354037 
L 130.801791 187.192448 
L 130.375676 189.402448 
L 130.271814 189.904941 
L 129.669447 192.603041 
L 129.338677 193.956241 
L 129.089274 194.927687 
L 128.551253 196.90212 
L 128.248329 197.950867 
L 127.354543 200.829804 
L 127.156097 201.431366 
L 126.666823 202.864404 
L 126.235675 204.073509 
L 125.290332 206.57264 
L 124.795815 207.8073 
L 124.0711 209.538516 
L 123.486462 210.874296 
L 122.584087 212.841601 
L 121.847558 214.371377 
L 121.670481 214.72983 
L 120.426889 217.154361 
L 120.045108 217.868402 
L 118.740325 220.212743 
L 118.412238 220.780485 
L 117.754247 221.894756 
L 116.417031 224.06615 
L 115.433461 225.590374 
L 114.943971 226.327653 
L 114.276547 227.311414 
L 112.56491 229.728559 
L 112.216515 230.203089 
L 111.218886 231.531403 
L 109.853335 233.280355 
L 108.694024 234.706645 
L 107.710755 235.876948 
L 106.829051 236.89724 
L 105.515663 238.36869 
L 104.146989 239.843923 
L 103.586419 240.431841 
L 102.245192 241.801878 
L 101.730221 242.314645 
L 100.598209 243.41697 
L 98.306627 245.549075 
L 97.408301 246.350468 
L 96.931144 246.768589 
L 94.71321 248.646049 
L 94.022032 249.209693 
L 92.679052 250.276996 
L 91.019822 251.546595 
L 90.487749 251.942621 
L 88.727061 253.216009 
L 87.92112 253.78038 
L 85.75985 255.238634 
L 84.198975 256.243515 
L 83.546881 256.651725 
L 82.19905 257.474338 
L 80.407494 258.524808 
L 78.982861 259.326171 
L 77.674684 260.036269 
L 76.612094 260.595314 
L 74.185405 261.814 
L 73.831706 261.985028 
L 71.106416 263.248084 
L 69.677531 263.872436 
L 68.204432 264.489537 
L 67.274924 264.865272 
L 66.43073 265.197496 
L 63.658968 266.22897 
L 62.985398 266.46612 
L 60.9622 267.147303 
L 59.957407 267.468457 
L 57.595108 268.179446 
L 56.97785 268.355162 
L 55.226261 268.831394 
L 52.489052 269.510178 
L 51.458897 269.745258 
L 49.880586 270.084066 
L 48.003762 270.453628 
L 46.107904 270.790557 
L 45.797041 270.842339 
L 44.121973 271.104673 
L 41.951965 271.402911 
L 40.981909 271.521141 
L 37.932423 271.832521 
L 37.497184 271.869536 
L 36.183204 271.970075 
L 33.595888 272.118971 
L 32.167041 272.173381 
L 30.866885 272.205728 
L 28.942188 272.223621 
L 28.942188 323.986047 
L 31.073484 323.971421 
L 34.09487 323.900537 
L 37.360295 323.757707 
L 38.886345 323.667322 
L 40.900476 323.524924 
L 43.272124 323.323449 
L 45.360578 323.115657 
L 49.180842 322.661543 
L 51.699299 322.309487 
L 54.299102 321.90179 
L 54.631003 321.846487 
L 59.306849 320.988382 
L 59.955979 320.857513 
L 63.667932 320.053523 
L 66.423236 319.394853 
L 66.804209 319.299586 
L 69.056435 318.715388 
L 71.497576 318.041254 
L 73.808594 317.363305 
L 76.606327 316.49007 
L 78.911541 315.726666 
L 82.138167 314.590258 
L 83.274105 314.17104 
L 85.512211 313.315405 
L 89.013947 311.896264 
L 90.906829 311.087399 
L 93.962884 309.718086 
L 95.037935 309.217419 
L 98.204797 307.683767 
L 98.917054 307.326533 
L 101.061313 306.223205 
L 104.198469 304.531868 
L 106.642808 303.148582 
L 107.509515 302.643959 
L 109.484462 301.465786 
L 112.883524 299.34329 
L 114.639537 298.198202 
L 116.336471 297.059113 
L 118.776775 295.36323 
L 121.040096 293.727222 
L 122.607092 292.557659 
L 124.598245 291.026434 
L 126.597638 289.436301 
L 127.885354 288.383307 
L 129.285113 287.212212 
L 131.374704 285.410886 
L 134.681962 282.423168 
L 136.379875 280.820498 
L 137.515644 279.721034 
L 139.834687 277.404759 
L 140.189678 277.041442 
L 142.1494 274.99207 
L 144.109449 272.865178 
L 146.197315 270.509249 
L 147.78053 268.656695 
L 148.315075 268.017712 
L 150.0419 265.904728 
L 151.717943 263.779012 
L 153.221112 261.805631 
L 154.456495 260.133431 
L 155.757048 258.32092 
L 157.536147 255.748941 
L 158.817063 253.826058 
L 160.274952 251.559156 
L 161.976209 248.799255 
L 163.236865 246.667213 
L 164.103317 245.155344 
L 165.07022 243.420235 
L 166.119022 241.47689 
L 167.831983 238.152088 
L 168.301528 237.205067 
L 169.681603 234.323122 
L 171.175739 231.018554 
L 172.207466 228.608692 
L 173.000041 226.676985 
L 173.668675 224.987156 
L 174.699948 222.26008 
L 175.594526 219.759815 
L 176.046319 218.443249 
L 177.234901 214.779242 
L 177.483045 213.972959 
L 178.062325 212.026857 
L 179.294797 207.534725 
L 179.501925 206.723818 
L 179.936015 204.961736 
L 180.822693 201.047662 
L 181.096483 199.73438 
L 181.792643 196.100904 
L 182.285718 193.191631 
L 182.608169 191.079676 
L 182.763089 189.988883 
L 183.062736 187.698648 
L 183.35096 185.193303 
L 183.651845 182.080126 
L 183.886041 179.020646 
L 183.949599 178.017633 
L 184.087264 175.342873 
L 184.18023 172.608882 
L 184.223454 170.065212 
L 184.221273 167.10364 
L 184.192282 165.300716 
L 184.058276 161.409191 
L 184.022476 160.683597 
L 183.891735 158.462738 
L 183.543991 154.124097 
L 183.491947 153.582205 
L 183.134542 150.290716 
L 182.713447 147.05302 
L 182.621366 146.40866 
L 182.192751 143.630792 
L 181.768206 141.16067 
L 181.418372 139.285303 
L 180.938139 136.896735 
L 180.098082 133.117393 
L 179.399452 130.270259 
L 179.246859 129.677694 
L 178.421428 126.626269 
L 177.699885 124.14222 
L 177.086968 122.144898 
L 175.825873 118.307086 
L 174.970351 115.879132 
L 174.177603 113.736848 
L 173.85135 112.882343 
L 172.861087 110.376483 
L 171.851699 107.945083 
L 170.408639 104.656736 
L 169.742999 103.206249 
L 168.368415 100.328703 
L 167.983489 99.549256 
L 166.036542 95.765397 
L 165.821438 95.362493 
L 163.980006 92.024612 
L 162.844966 90.059182 
L 161.771291 88.258929 
L 160.425912 86.078137 
L 158.82293 83.580431 
L 157.196061 81.148311 
L 156.670007 80.382616 
L 155.58072 78.827635 
L 153.148791 75.495451 
L 151.439383 73.25991 
L 150.155554 71.634571 
L 148.622278 69.750223 
L 147.192999 68.046475 
L 145.813463 66.447883 
L 144.169157 64.598413 
L 143.397883 63.751008 
L 141.044653 61.240982 
L 139.647365 59.802018 
L 137.299824 57.465855 
L 136.351477 56.549836 
L 133.576056 53.956047 
L 131.338192 51.954617 
L 129.564699 50.422614 
L 129.145205 50.067011 
L 126.35833 47.768071 
L 124.029623 45.928584 
L 122.797066 44.983772 
L 120.978899 43.625261 
L 119.593387 42.617451 
L 116.246447 40.277178 
L 113.578387 38.50333 
L 112.182155 37.606258 
L 110.174263 36.352675 
L 109.133598 35.719536 
L 105.74047 33.731505 
L 104.144691 32.835889 
L 102.410446 31.890313 
L 99.263638 30.246495 
L 98.13673 29.679871 
L 94.57004 27.960986 
L 93.685302 27.551797 
L 90.6602 26.203065 
L 88.927105 25.464875 
L 85.837839 24.209934 
L 85.021943 23.891312 
L 82.586921 22.971691 
L 78.366629 21.486802 
L 77.118428 21.073607 
L 75.46079 20.542911 
L 72.796533 19.732548 
L 69.51017 18.804215 
L 67.059131 18.162271 
L 64.419566 17.518432 
L 63.014745 17.195635 
L 60.113855 16.572289 
L 57.934189 16.141886 
L 56.706322 15.913654 
L 52.90244 15.271115 
L 49.84923 14.825333 
L 49.411152 14.766446 
L 46.753621 14.436358 
L 43.530568 14.098259 
L 41.806917 13.945296 
L 37.998517 13.675798 
L 35.334156 13.543101 
L 33.129508 13.467957 
L 30.442293 13.418737 
L 28.942188 13.411491 
z
" clip-path="url(#p0195970331)" style="fill: #0000ff; opacity: 0.25"/>
   </g>
   <g id="matplotlib.axis_1">
    <g id="xtick_1">
     <g id="line2d_1">
      <defs>
       <path id="m253504de67" d="M 0 0 
L 0 3.5 
" style="stroke: #000000; stroke-width: 0.8"/>
      </defs>
      <g>
       <use xlink:href="#m253504de67" x="28.942188" y="168.698769" style="stroke: #000000; stroke-width: 0.8"/>
      </g>
     </g>
    </g>
    <g id="xtick_2">
     <g id="line2d_2">
      <g>
       <use xlink:href="#m253504de67" x="54.823401" y="168.698769" style="stroke: #000000; stroke-width: 0.8"/>
      </g>
     </g>
     <g id="text_1">
      <!-- 0.5 -->
      <g transform="translate(46.871838 183.297207) scale(0.1 -0.1)">
       <defs>
        <path id="DejaVuSans-30" d="M 2034 4250 
Q 1547 4250 1301 3770 
Q 1056 3291 1056 2328 
Q 1056 1369 1301 889 
Q 1547 409 2034 409 
Q 2525 409 2770 889 
Q 3016 1369 3016 2328 
Q 3016 3291 2770 3770 
Q 2525 4250 2034 4250 
z
M 2034 4750 
Q 2819 4750 3233 4129 
Q 3647 3509 3647 2328 
Q 3647 1150 3233 529 
Q 2819 -91 2034 -91 
Q 1250 -91 836 529 
Q 422 1150 422 2328 
Q 422 3509 836 4129 
Q 1250 4750 2034 4750 
z
" transform="scale(0.015625)"/>
        <path id="DejaVuSans-2e" d="M 684 794 
L 1344 794 
L 1344 0 
L 684 0 
L 684 794 
z
" transform="scale(0.015625)"/>
        <path id="DejaVuSans-35" d="M 691 4666 
L 3169 4666 
L 3169 4134 
L 1269 4134 
L 1269 2991 
Q 1406 3038 1543 3061 
Q 1681 3084 1819 3084 
Q 2600 3084 3056 2656 
Q 3513 2228 3513 1497 
Q 3513 744 3044 326 
Q 2575 -91 1722 -91 
Q 1428 -91 1123 -41 
Q 819 9 494 109 
L 494 744 
Q 775 591 1075 516 
Q 1375 441 1709 441 
Q 2250 441 2565 725 
Q 2881 1009 2881 1497 
Q 2881 1984 2565 2268 
Q 2250 2553 1709 2553 
Q 1456 2553 1204 2497 
Q 953 2441 691 2322 
L 691 4666 
z
" transform="scale(0.015625)"/>
       </defs>
       <use xlink:href="#DejaVuSans-30"/>
       <use xlink:href="#DejaVuSans-2e" x="63.623047"/>
       <use xlink:href="#DejaVuSans-35" x="95.410156"/>
      </g>
     </g>
    </g>
    <g id="xtick_3">
     <g id="line2d_3">
      <g>
       <use xlink:href="#m253504de67" x="80.704614" y="168.698769" style="stroke: #000000; stroke-width: 0.8"/>
      </g>
     </g>
     <g id="text_2">
      <!-- 1.0 -->
      <g transform="translate(72.753051 183.297207) scale(0.1 -0.1)">
       <defs>
        <path id="DejaVuSans-31" d="M 794 531 
L 1825 531 
L 1825 4091 
L 703 3866 
L 703 4441 
L 1819 4666 
L 2450 4666 
L 2450 531 
L 3481 531 
L 3481 0 
L 794 0 
L 794 531 
z
" transform="scale(0.015625)"/>
       </defs>
       <use xlink:href="#DejaVuSans-31"/>
       <use xlink:href="#DejaVuSans-2e" x="63.623047"/>
       <use xlink:href="#DejaVuSans-30" x="95.410156"/>
      </g>
     </g>
    </g>
    <g id="xtick_4">
     <g id="line2d_4">
      <g>
       <use xlink:href="#m253504de67" x="106.585827" y="168.698769" style="stroke: #000000; stroke-width: 0.8"/>
      </g>
     </g>
     <g id="text_3">
      <!-- 1.5 -->
      <g transform="translate(98.634264 183.297207) scale(0.1 -0.1)">
       <use xlink:href="#DejaVuSans-31"/>
       <use xlink:href="#DejaVuSans-2e" x="63.623047"/>
       <use xlink:href="#DejaVuSans-35" x="95.410156"/>
      </g>
     </g>
    </g>
    <g id="xtick_5">
     <g id="line2d_5">
      <g>
       <use xlink:href="#m253504de67" x="132.46704" y="168.698769" style="stroke: #000000; stroke-width: 0.8"/>
      </g>
     </g>
     <g id="text_4">
      <!-- 2.0 -->
      <g transform="translate(124.515477 183.297207) scale(0.1 -0.1)">
       <defs>
        <path id="DejaVuSans-32" d="M 1228 531 
L 3431 531 
L 3431 0 
L 469 0 
L 469 531 
Q 828 903 1448 1529 
Q 2069 2156 2228 2338 
Q 2531 2678 2651 2914 
Q 2772 3150 2772 3378 
Q 2772 3750 2511 3984 
Q 2250 4219 1831 4219 
Q 1534 4219 1204 4116 
Q 875 4013 500 3803 
L 500 4441 
Q 881 4594 1212 4672 
Q 1544 4750 1819 4750 
Q 2544 4750 2975 4387 
Q 3406 4025 3406 3419 
Q 3406 3131 3298 2873 
Q 3191 2616 2906 2266 
Q 2828 2175 2409 1742 
Q 1991 1309 1228 531 
z
" transform="scale(0.015625)"/>
       </defs>
       <use xlink:href="#DejaVuSans-32"/>
       <use xlink:href="#DejaVuSans-2e" x="63.623047"/>
       <use xlink:href="#DejaVuSans-30" x="95.410156"/>
      </g>
     </g>
    </g>
    <g id="xtick_6">
     <g id="line2d_6">
      <g>
       <use xlink:href="#m253504de67" x="158.348253" y="168.698769" style="stroke: #000000; stroke-width: 0.8"/>
      </g>
     </g>
     <g id="text_5">
      <!-- 2.5 -->
      <g transform="translate(150.39669 183.297207) scale(0.1 -0.1)">
       <use xlink:href="#DejaVuSans-32"/>
       <use xlink:href="#DejaVuSans-2e" x="63.623047"/>
       <use xlink:href="#DejaVuSans-35" x="95.410156"/>
      </g>
     </g>
    </g>
    <g id="xtick_7">
     <g id="line2d_7">
      <g>
       <use xlink:href="#m253504de67" x="184.229466" y="168.698769" style="stroke: #000000; stroke-width: 0.8"/>
      </g>
     </g>
     <g id="text_6">
      <!-- 3.0 -->
      <g transform="translate(176.277903 183.297207) scale(0.1 -0.1)">
       <defs>
        <path id="DejaVuSans-33" d="M 2597 2516 
Q 3050 2419 3304 2112 
Q 3559 1806 3559 1356 
Q 3559 666 3084 287 
Q 2609 -91 1734 -91 
Q 1441 -91 1130 -33 
Q 819 25 488 141 
L 488 750 
Q 750 597 1062 519 
Q 1375 441 1716 441 
Q 2309 441 2620 675 
Q 2931 909 2931 1356 
Q 2931 1769 2642 2001 
Q 2353 2234 1838 2234 
L 1294 2234 
L 1294 2753 
L 1863 2753 
Q 2328 2753 2575 2939 
Q 2822 3125 2822 3475 
Q 2822 3834 2567 4026 
Q 2313 4219 1838 4219 
Q 1578 4219 1281 4162 
Q 984 4106 628 3988 
L 628 4550 
Q 988 4650 1302 4700 
Q 1616 4750 1894 4750 
Q 2613 4750 3031 4423 
Q 3450 4097 3450 3541 
Q 3450 3153 3228 2886 
Q 3006 2619 2597 2516 
z
" transform="scale(0.015625)"/>
       </defs>
       <use xlink:href="#DejaVuSans-33"/>
       <use xlink:href="#DejaVuSans-2e" x="63.623047"/>
       <use xlink:href="#DejaVuSans-30" x="95.410156"/>
      </g>
     </g>
    </g>
    <g id="xtick_8">
     <g id="line2d_8">
      <defs>
       <path id="mcaabb510f0" d="M 0 0 
L 0 2 
" style="stroke: #000000; stroke-width: 0.6"/>
      </defs>
      <g>
       <use xlink:href="#mcaabb510f0" x="34.11843" y="168.698769" style="stroke: #000000; stroke-width: 0.6"/>
      </g>
     </g>
    </g>
    <g id="xtick_9">
     <g id="line2d_9">
      <g>
       <use xlink:href="#mcaabb510f0" x="39.294673" y="168.698769" style="stroke: #000000; stroke-width: 0.6"/>
      </g>
     </g>
    </g>
    <g id="xtick_10">
     <g id="line2d_10">
      <g>
       <use xlink:href="#mcaabb510f0" x="44.470915" y="168.698769" style="stroke: #000000; stroke-width: 0.6"/>
      </g>
     </g>
    </g>
    <g id="xtick_11">
     <g id="line2d_11">
      <g>
       <use xlink:href="#mcaabb510f0" x="49.647158" y="168.698769" style="stroke: #000000; stroke-width: 0.6"/>
      </g>
     </g>
    </g>
    <g id="xtick_12">
     <g id="line2d_12">
      <g>
       <use xlink:href="#mcaabb510f0" x="59.999643" y="168.698769" style="stroke: #000000; stroke-width: 0.6"/>
      </g>
     </g>
    </g>
    <g id="xtick_13">
     <g id="line2d_13">
      <g>
       <use xlink:href="#mcaabb510f0" x="65.175886" y="168.698769" style="stroke: #000000; stroke-width: 0.6"/>
      </g>
     </g>
    </g>
    <g id="xtick_14">
     <g id="line2d_14">
      <g>
       <use xlink:href="#mcaabb510f0" x="70.352128" y="168.698769" style="stroke: #000000; stroke-width: 0.6"/>
      </g>
     </g>
    </g>
    <g id="xtick_15">
     <g id="line2d_15">
      <g>
       <use xlink:href="#mcaabb510f0" x="75.528371" y="168.698769" style="stroke: #000000; stroke-width: 0.6"/>
      </g>
     </g>
    </g>
    <g id="xtick_16">
     <g id="line2d_16">
      <g>
       <use xlink:href="#mcaabb510f0" x="85.880856" y="168.698769" style="stroke: #000000; stroke-width: 0.6"/>
      </g>
     </g>
    </g>
    <g id="xtick_17">
     <g id="line2d_17">
      <g>
       <use xlink:href="#mcaabb510f0" x="91.057099" y="168.698769" style="stroke: #000000; stroke-width: 0.6"/>
      </g>
     </g>
    </g>
    <g id="xtick_18">
     <g id="line2d_18">
      <g>
       <use xlink:href="#mcaabb510f0" x="96.233341" y="168.698769" style="stroke: #000000; stroke-width: 0.6"/>
      </g>
     </g>
    </g>
    <g id="xtick_19">
     <g id="line2d_19">
      <g>
       <use xlink:href="#mcaabb510f0" x="101.409584" y="168.698769" style="stroke: #000000; stroke-width: 0.6"/>
      </g>
     </g>
    </g>
    <g id="xtick_20">
     <g id="line2d_20">
      <g>
       <use xlink:href="#mcaabb510f0" x="111.762069" y="168.698769" style="stroke: #000000; stroke-width: 0.6"/>
      </g>
     </g>
    </g>
    <g id="xtick_21">
     <g id="line2d_21">
      <g>
       <use xlink:href="#mcaabb510f0" x="116.938312" y="168.698769" style="stroke: #000000; stroke-width: 0.6"/>
      </g>
     </g>
    </g>
    <g id="xtick_22">
     <g id="line2d_22">
      <g>
       <use xlink:href="#mcaabb510f0" x="122.114554" y="168.698769" style="stroke: #000000; stroke-width: 0.6"/>
      </g>
     </g>
    </g>
    <g id="xtick_23">
     <g id="line2d_23">
      <g>
       <use xlink:href="#mcaabb510f0" x="127.290797" y="168.698769" style="stroke: #000000; stroke-width: 0.6"/>
      </g>
     </g>
    </g>
    <g id="xtick_24">
     <g id="line2d_24">
      <g>
       <use xlink:href="#mcaabb510f0" x="137.643282" y="168.698769" style="stroke: #000000; stroke-width: 0.6"/>
      </g>
     </g>
    </g>
    <g id="xtick_25">
     <g id="line2d_25">
      <g>
       <use xlink:href="#mcaabb510f0" x="142.819525" y="168.698769" style="stroke: #000000; stroke-width: 0.6"/>
      </g>
     </g>
    </g>
    <g id="xtick_26">
     <g id="line2d_26">
      <g>
       <use xlink:href="#mcaabb510f0" x="147.995767" y="168.698769" style="stroke: #000000; stroke-width: 0.6"/>
      </g>
     </g>
    </g>
    <g id="xtick_27">
     <g id="line2d_27">
      <g>
       <use xlink:href="#mcaabb510f0" x="153.17201" y="168.698769" style="stroke: #000000; stroke-width: 0.6"/>
      </g>
     </g>
    </g>
    <g id="xtick_28">
     <g id="line2d_28">
      <g>
       <use xlink:href="#mcaabb510f0" x="163.524495" y="168.698769" style="stroke: #000000; stroke-width: 0.6"/>
      </g>
     </g>
    </g>
    <g id="xtick_29">
     <g id="line2d_29">
      <g>
       <use xlink:href="#mcaabb510f0" x="168.700738" y="168.698769" style="stroke: #000000; stroke-width: 0.6"/>
      </g>
     </g>
    </g>
    <g id="xtick_30">
     <g id="line2d_30">
      <g>
       <use xlink:href="#mcaabb510f0" x="173.87698" y="168.698769" style="stroke: #000000; stroke-width: 0.6"/>
      </g>
     </g>
    </g>
    <g id="xtick_31">
     <g id="line2d_31">
      <g>
       <use xlink:href="#mcaabb510f0" x="179.053223" y="168.698769" style="stroke: #000000; stroke-width: 0.6"/>
      </g>
     </g>
    </g>
   </g>
   <g id="matplotlib.axis_2">
    <g id="ytick_1">
     <g id="line2d_32">
      <defs>
       <path id="m2ba268bff9" d="M 0 0 
L -3.5 0 
" style="stroke: #000000; stroke-width: 0.8"/>
      </defs>
      <g>
       <use xlink:href="#m2ba268bff9" x="28.942188" y="323.986047" style="stroke: #000000; stroke-width: 0.8"/>
      </g>
     </g>
     <g id="text_7">
      <!-- −3 -->
      <g transform="translate(7.2 327.785266) scale(0.1 -0.1)">
       <defs>
        <path id="DejaVuSans-2212" d="M 678 2272 
L 4684 2272 
L 4684 1741 
L 678 1741 
L 678 2272 
z
" transform="scale(0.015625)"/>
       </defs>
       <use xlink:href="#DejaVuSans-2212"/>
       <use xlink:href="#DejaVuSans-33" x="83.789062"/>
      </g>
     </g>
    </g>
    <g id="ytick_2">
     <g id="line2d_33">
      <g>
       <use xlink:href="#m2ba268bff9" x="28.942188" y="272.223621" style="stroke: #000000; stroke-width: 0.8"/>
      </g>
     </g>
     <g id="text_8">
      <!-- −2 -->
      <g transform="translate(7.2 276.02284) scale(0.1 -0.1)">
       <use xlink:href="#DejaVuSans-2212"/>
       <use xlink:href="#DejaVuSans-32" x="83.789062"/>
      </g>
     </g>
    </g>
    <g id="ytick_3">
     <g id="line2d_34">
      <g>
       <use xlink:href="#m2ba268bff9" x="28.942188" y="220.461195" style="stroke: #000000; stroke-width: 0.8"/>
      </g>
     </g>
     <g id="text_9">
      <!-- −1 -->
      <g transform="translate(7.2 224.260414) scale(0.1 -0.1)">
       <use xlink:href="#DejaVuSans-2212"/>
       <use xlink:href="#DejaVuSans-31" x="83.789062"/>
      </g>
     </g>
    </g>
    <g id="ytick_4">
     <g id="line2d_35">
      <g>
       <use xlink:href="#m2ba268bff9" x="28.942188" y="168.698769" style="stroke: #000000; stroke-width: 0.8"/>
      </g>
     </g>
    </g>
    <g id="ytick_5">
     <g id="line2d_36">
      <g>
       <use xlink:href="#m2ba268bff9" x="28.942188" y="116.936343" style="stroke: #000000; stroke-width: 0.8"/>
      </g>
     </g>
     <g id="text_10">
      <!-- 1 -->
      <g transform="translate(15.579688 120.735562) scale(0.1 -0.1)">
       <use xlink:href="#DejaVuSans-31"/>
      </g>
     </g>
    </g>
    <g id="ytick_6">
     <g id="line2d_37">
      <g>
       <use xlink:href="#m2ba268bff9" x="28.942188" y="65.173917" style="stroke: #000000; stroke-width: 0.8"/>
      </g>
     </g>
     <g id="text_11">
      <!-- 2 -->
      <g transform="translate(15.579688 68.973136) scale(0.1 -0.1)">
       <use xlink:href="#DejaVuSans-32"/>
      </g>
     </g>
    </g>
    <g id="ytick_7">
     <g id="line2d_38">
      <g>
       <use xlink:href="#m2ba268bff9" x="28.942188" y="13.411491" style="stroke: #000000; stroke-width: 0.8"/>
      </g>
     </g>
     <g id="text_12">
      <!-- 3 -->
      <g transform="translate(15.579688 17.21071) scale(0.1 -0.1)">
       <use xlink:href="#DejaVuSans-33"/>
      </g>
     </g>
    </g>
    <g id="ytick_8">
     <g id="line2d_39">
      <defs>
       <path id="m184dff8cd3" d="M 0 0 
L -2 0 
" style="stroke: #000000; stroke-width: 0.6"/>
      </defs>
      <g>
       <use xlink:href="#m184dff8cd3" x="28.942188" y="313.633562" style="stroke: #000000; stroke-width: 0.6"/>
      </g>
     </g>
    </g>
    <g id="ytick_9">
     <g id="line2d_40">
      <g>
       <use xlink:href="#m184dff8cd3" x="28.942188" y="303.281077" style="stroke: #000000; stroke-width: 0.6"/>
      </g>
     </g>
    </g>
    <g id="ytick_10">
     <g id="line2d_41">
      <g>
       <use xlink:href="#m184dff8cd3" x="28.942188" y="292.928592" style="stroke: #000000; stroke-width: 0.6"/>
      </g>
     </g>
    </g>
    <g id="ytick_11">
     <g id="line2d_42">
      <g>
       <use xlink:href="#m184dff8cd3" x="28.942188" y="282.576107" style="stroke: #000000; stroke-width: 0.6"/>
      </g>
     </g>
    </g>
    <g id="ytick_12">
     <g id="line2d_43">
      <g>
       <use xlink:href="#m184dff8cd3" x="28.942188" y="261.871136" style="stroke: #000000; stroke-width: 0.6"/>
      </g>
     </g>
    </g>
    <g id="ytick_13">
     <g id="line2d_44">
      <g>
       <use xlink:href="#m184dff8cd3" x="28.942188" y="251.518651" style="stroke: #000000; stroke-width: 0.6"/>
      </g>
     </g>
    </g>
    <g id="ytick_14">
     <g id="line2d_45">
      <g>
       <use xlink:href="#m184dff8cd3" x="28.942188" y="241.166166" style="stroke: #000000; stroke-width: 0.6"/>
      </g>
     </g>
    </g>
    <g id="ytick_15">
     <g id="line2d_46">
      <g>
       <use xlink:href="#m184dff8cd3" x="28.942188" y="230.81368" style="stroke: #000000; stroke-width: 0.6"/>
      </g>
     </g>
    </g>
    <g id="ytick_16">
     <g id="line2d_47">
      <g>
       <use xlink:href="#m184dff8cd3" x="28.942188" y="210.10871" style="stroke: #000000; stroke-width: 0.6"/>
      </g>
     </g>
    </g>
    <g id="ytick_17">
     <g id="line2d_48">
      <g>
       <use xlink:href="#m184dff8cd3" x="28.942188" y="199.756225" style="stroke: #000000; stroke-width: 0.6"/>
      </g>
     </g>
    </g>
    <g id="ytick_18">
     <g id="line2d_49">
      <g>
       <use xlink:href="#m184dff8cd3" x="28.942188" y="189.40374" style="stroke: #000000; stroke-width: 0.6"/>
      </g>
     </g>
    </g>
    <g id="ytick_19">
     <g id="line2d_50">
      <g>
       <use xlink:href="#m184dff8cd3" x="28.942188" y="179.051254" style="stroke: #000000; stroke-width: 0.6"/>
      </g>
     </g>
    </g>
    <g id="ytick_20">
     <g id="line2d_51">
      <g>
       <use xlink:href="#m184dff8cd3" x="28.942188" y="158.346284" style="stroke: #000000; stroke-width: 0.6"/>
      </g>
     </g>
    </g>
    <g id="ytick_21">
     <g id="line2d_52">
      <g>
       <use xlink:href="#m184dff8cd3" x="28.942188" y="147.993799" style="stroke: #000000; stroke-width: 0.6"/>
      </g>
     </g>
    </g>
    <g id="ytick_22">
     <g id="line2d_53">
      <g>
       <use xlink:href="#m184dff8cd3" x="28.942188" y="137.641314" style="stroke: #000000; stroke-width: 0.6"/>
      </g>
     </g>
    </g>
    <g id="ytick_23">
     <g id="line2d_54">
      <g>
       <use xlink:href="#m184dff8cd3" x="28.942188" y="127.288828" style="stroke: #000000; stroke-width: 0.6"/>
      </g>
     </g>
    </g>
    <g id="ytick_24">
     <g id="line2d_55">
      <g>
       <use xlink:href="#m184dff8cd3" x="28.942188" y="106.583858" style="stroke: #000000; stroke-width: 0.6"/>
      </g>
     </g>
    </g>
    <g id="ytick_25">
     <g id="line2d_56">
      <g>
       <use xlink:href="#m184dff8cd3" x="28.942188" y="96.231373" style="stroke: #000000; stroke-width: 0.6"/>
      </g>
     </g>
    </g>
    <g id="ytick_26">
     <g id="line2d_57">
      <g>
       <use xlink:href="#m184dff8cd3" x="28.942188" y="85.878888" style="stroke: #000000; stroke-width: 0.6"/>
      </g>
     </g>
    </g>
    <g id="ytick_27">
     <g id="line2d_58">
      <g>
       <use xlink:href="#m184dff8cd3" x="28.942188" y="75.526402" style="stroke: #000000; stroke-width: 0.6"/>
      </g>
     </g>
    </g>
    <g id="ytick_28">
     <g id="line2d_59">
      <g>
       <use xlink:href="#m184dff8cd3" x="28.942188" y="54.821432" style="stroke: #000000; stroke-width: 0.6"/>
      </g>
     </g>
    </g>
    <g id="ytick_29">
     <g id="line2d_60">
      <g>
       <use xlink:href="#m184dff8cd3" x="28.942188" y="44.468947" style="stroke: #000000; stroke-width: 0.6"/>
      </g>
     </g>
    </g>
    <g id="ytick_30">
     <g id="line2d_61">
      <g>
       <use xlink:href="#m184dff8cd3" x="28.942188" y="34.116462" style="stroke: #000000; stroke-width: 0.6"/>
      </g>
     </g>
    </g>
    <g id="ytick_31">
     <g id="line2d_62">
      <g>
       <use xlink:href="#m184dff8cd3" x="28.942188" y="23.763976" style="stroke: #000000; stroke-width: 0.6"/>
      </g>
     </g>
    </g>
   </g>
   <g id="line2d_63">
    <path d="M 28.942188 272.223621 
L 34.754672 272.060319 
L 38.570658 271.774894 
L 43.265043 271.228037 
L 47.948714 270.463925 
L 53.133071 269.35758 
L 57.586726 268.18186 
L 62.247944 266.719795 
L 67.607853 264.731895 
L 71.405786 263.11401 
L 76.196849 260.809528 
L 78.547236 259.565343 
L 82.883177 257.060326 
L 86.836042 254.522406 
L 90.59677 251.861907 
L 94.941763 248.457474 
L 98.653595 245.234478 
L 102.012535 242.034432 
L 105.776037 238.081437 
L 109.28854 233.981682 
L 112.573626 229.716615 
L 115.980418 224.750008 
L 117.87782 221.687902 
L 119.78841 218.341078 
L 121.966507 214.128617 
L 123.292872 211.305616 
L 125.557172 205.886667 
L 127.171466 201.385216 
L 128.449612 197.258661 
L 129.839078 191.876615 
L 130.891726 186.690064 
L 131.554596 182.413313 
L 131.949104 179.041409 
L 132.342223 173.780866 
L 132.462185 169.701374 
L 132.364299 164.087707 
L 132.113464 160.149927 
L 131.612911 155.42784 
L 130.672482 149.506526 
L 129.621053 144.591485 
L 128.454622 140.156337 
L 127.241439 136.223361 
L 125.702426 131.890466 
L 123.582383 126.738926 
L 121.192076 121.716294 
L 118.918719 117.497024 
L 116.071783 112.789659 
L 113.895414 109.535061 
L 111.01961 105.606047 
L 108.060639 101.933018 
L 104.729571 98.174536 
L 101.164795 94.528088 
L 97.076105 90.755429 
L 93.177157 87.512171 
L 88.971297 84.354824 
L 85.298006 81.857439 
L 79.862615 78.562733 
L 75.703544 76.336599 
L 70.948773 74.079312 
L 65.650489 71.900548 
L 61.462324 70.414306 
L 56.130471 68.807868 
L 51.893137 67.750025 
L 47.142008 66.78625 
L 42.056977 66.007984 
L 37.489714 65.527384 
L 32.920473 65.250385 
L 28.942188 65.173917 
L 28.942188 65.173917 
" clip-path="url(#p0195970331)" style="fill: none; stroke: #0000ff; stroke-width: 2; stroke-linecap: square"/>
   </g>
   <g id="line2d_64">
    <path d="M 28.942188 323.986047 
L 34.09487 323.900537 
L 40.900476 323.524924 
L 45.360578 323.115657 
L 51.699299 322.309487 
L 54.631003 321.846487 
L 59.955979 320.857513 
L 66.804209 319.299586 
L 71.497576 318.041254 
L 76.606327 316.49007 
L 83.274105 314.17104 
L 89.013947 311.896264 
L 95.037935 309.217419 
L 101.061313 306.223205 
L 107.509515 302.643959 
L 112.883524 299.34329 
L 116.336471 297.059113 
L 121.040096 293.727222 
L 124.598245 291.026434 
L 129.285113 287.212212 
L 134.681962 282.423168 
L 137.515644 279.721034 
L 142.1494 274.99207 
L 146.197315 270.509249 
L 150.0419 265.904728 
L 154.456495 260.133431 
L 157.536147 255.748941 
L 160.274952 251.559156 
L 164.103317 245.155344 
L 166.119022 241.47689 
L 169.681603 234.323122 
L 172.207466 228.608692 
L 174.699948 222.26008 
L 176.046319 218.443249 
L 178.062325 212.026857 
L 179.936015 204.961736 
L 181.096483 199.73438 
L 182.285718 193.191631 
L 183.062736 187.698648 
L 183.651845 182.080126 
L 184.087264 175.342873 
L 184.223454 170.065212 
L 184.192282 165.300716 
L 183.891735 158.462738 
L 183.134542 150.290716 
L 182.192751 143.630792 
L 180.938139 136.896735 
L 179.246859 129.677694 
L 177.699885 124.14222 
L 175.825873 118.307086 
L 173.85135 112.882343 
L 171.851699 107.945083 
L 169.742999 103.206249 
L 167.983489 99.549256 
L 165.821438 95.362493 
L 162.844966 90.059182 
L 160.425912 86.078137 
L 156.670007 80.382616 
L 153.148791 75.495451 
L 148.622278 69.750223 
L 144.169157 64.598413 
L 141.044653 61.240982 
L 136.351477 56.549836 
L 131.338192 51.954617 
L 126.35833 47.768071 
L 120.978899 43.625261 
L 116.246447 40.277178 
L 110.174263 36.352675 
L 105.74047 33.731505 
L 102.410446 31.890313 
L 98.13673 29.679871 
L 93.685302 27.551797 
L 88.927105 25.464875 
L 82.586921 22.971691 
L 75.46079 20.542911 
L 69.51017 18.804215 
L 63.014745 17.195635 
L 56.706322 15.913654 
L 49.411152 14.766446 
L 43.530568 14.098259 
L 37.998517 13.675798 
L 33.129508 13.467957 
L 28.942188 13.411491 
L 28.942188 13.411491 
" clip-path="url(#p0195970331)" style="fill: none; stroke: #0000ff; stroke-width: 2; stroke-linecap: square"/>
   </g>
   <g id="patch_4">
    <path d="M 28.942188 330.197538 
L 28.942188 7.2 
" style="fill: none; stroke: #000000; stroke-width: 0.8; stroke-linejoin: miter; stroke-linecap: square"/>
   </g>
   <g id="patch_5">
    <path d="M 25.836562 168.698769 
L 187.329079 168.698769 
" style="fill: none; stroke: #000000; stroke-width: 0.8; stroke-linejoin: miter; stroke-linecap: square"/>
   </g>
  </g>
 </g>
 <defs>
  <clipPath id="p0195970331">
   <rect x="25.836562" y="7.2" width="161.492517" height="322.997538"/>
  </clipPath>
 </defs>
</svg>
