<?xml version="1.0" encoding="utf-8" standalone="no"?>
<!DOCTYPE svg PUBLIC "-//W3C//DTD SVG 1.1//EN"
  "http://www.w3.org/Graphics/SVG/1.1/DTD/svg11.dtd">
<svg xmlns:xlink="http://www.w3.org/1999/xlink" width="453.6pt" height="335.670374pt" viewBox="0 0 453.6 335.670374" xmlns="http://www.w3.org/2000/svg" version="1.1">
 <metadata>
  <rdf:RDF xmlns:dc="http://purl.org/dc/elements/1.1/" xmlns:cc="http://creativecommons.org/ns#" xmlns:rdf="http://www.w3.org/1999/02/22-rdf-syntax-ns#">
   <cc:Work>
    <dc:type rdf:resource="http://purl.org/dc/dcmitype/StillImage"/>
    <dc:date>2025-02-02T17:45:10.876631</dc:date>
    <dc:format>image/svg+xml</dc:format>
    <dc:creator>
     <cc:Agent>
      <dc:title>Matplotlib v3.6.3, https://matplotlib.org/</dc:title>
     </cc:Agent>
    </dc:creator>
   </cc:Work>
  </rdf:RDF>
 </metadata>
 <defs>
  <style type="text/css">*{stroke-linejoin: round; stroke-linecap: butt}</style>
 </defs>
 <g id="figure_1">
  <g id="patch_1">
   <path d="M 0 335.670374 
L 453.6 335.670374 
L 453.6 0 
L 0 0 
z
" style="fill: #ffffff"/>
  </g>
  <g id="axes_1">
   <g id="patch_2">
    <path d="M 7.2 328.470374 
L 446.4 328.470374 
L 446.4 8.037836 
L 7.2 8.037836 
z
" style="fill: #ffffff"/>
   </g>
   <g id="matplotlib.axis_1"/>
   <g id="matplotlib.axis_2"/>
   <g id="line2d_1">
    <path d="M 15.646154 322.30821 
L 21.024316 315.101063 
L 30.731966 302.562779 
L 38.555112 292.899305 
L 44.484301 285.83741 
L 53.981742 274.996503 
L 60.886363 267.479187 
L 68.993227 259.044096 
L 75.50936 252.570402 
L 83.1571 245.320635 
L 91.62626 237.730914 
L 99.097781 231.418045 
L 105.730643 226.114472 
L 111.565243 221.682988 
L 116.959558 217.780597 
L 125.194538 212.183941 
L 131.810937 208.003136 
L 137.743709 204.493603 
L 144.062796 201.004387 
L 152.164463 196.906398 
L 159.17352 193.701492 
L 164.681471 191.404563 
L 170.434919 189.213508 
L 177.12016 186.934879 
L 183.573004 185.00795 
L 190.313602 183.280933 
L 196.216408 182.008445 
L 201.699616 181.027078 
L 206.714186 180.298784 
L 212.719493 179.639306 
L 217.88654 179.25743 
L 222.780201 179.054003 
L 229.174894 179.020194 
L 237.240189 179.352401 
L 241.781869 179.723504 
L 249.764176 180.697061 
L 255.779192 181.701293 
L 260.862583 182.73132 
L 268.451651 184.578175 
L 273.80412 186.103379 
L 281.053366 188.462699 
L 286.998219 190.649603 
L 294.147209 193.580337 
L 301.074701 196.733695 
L 306.716218 199.529595 
L 312.175924 202.430197 
L 317.798161 205.617408 
L 324.739324 209.832598 
L 331.761881 214.4124 
L 337.236602 218.202682 
L 342.652668 222.141942 
L 350.379283 228.088124 
L 357.533187 233.935723 
L 363.702646 239.242834 
L 371.87389 246.648566 
L 380.108681 254.546124 
L 388.793052 263.347115 
L 394.800662 269.719092 
L 402.154705 277.834995 
L 410.371463 287.314211 
L 418.065414 296.583758 
L 424.910234 305.150144 
L 432.199487 314.603888 
L 437.953846 322.30821 
L 437.953846 322.30821 
" clip-path="url(#p3d51f6cc33)" style="fill: none; stroke: #0000ff; stroke-width: 2; stroke-linecap: square"/>
   </g>
   <g id="line2d_2">
    <path d="M 15.646154 179.002066 
L 21.90741 170.629278 
L 27.633663 163.192547 
L 35.3194 153.542337 
L 43.024871 144.248537 
L 49.549205 136.677744 
L 57.599759 127.713071 
L 63.583355 121.31996 
L 72.221438 112.496651 
L 80.694359 104.308033 
L 84.816786 100.490822 
L 93.358662 92.929064 
L 100.487157 86.977554 
L 107.521294 81.425022 
L 112.90368 77.391135 
L 119.508941 72.695253 
L 126.995868 67.711685 
L 133.040407 63.951113 
L 139.997992 59.913257 
L 146.414296 56.465346 
L 152.968191 53.216718 
L 159.08236 50.435004 
L 165.52168 47.765178 
L 172.639544 45.124179 
L 178.83406 43.090829 
L 182.323621 42.053997 
L 189.0012 40.288143 
L 196.734451 38.601316 
L 201.571516 37.741656 
L 208.82307 36.73464 
L 214.762632 36.161647 
L 221.387655 35.790075 
L 227.839179 35.699393 
L 233.741177 35.850779 
L 237.730701 36.07995 
L 245.035003 36.764677 
L 250.742612 37.538432 
L 258.58314 38.942758 
L 263.250541 39.966383 
L 269.44774 41.541922 
L 276.098033 43.50727 
L 282.020647 45.496908 
L 288.098116 47.772978 
L 293.0647 49.80931 
L 300.315783 53.067049 
L 305.441889 55.574013 
L 309.586891 57.724677 
L 317.801661 62.313311 
L 324.855997 66.599953 
L 329.77263 69.776772 
L 335.203987 73.466821 
L 342.003729 78.353863 
L 349.194807 83.845535 
L 354.895338 88.435113 
L 362.305166 94.713111 
L 369.479828 101.128189 
L 377.900482 109.079438 
L 385.156106 116.296182 
L 391.84505 123.249081 
L 397.202453 129.025328 
L 406.249733 139.198805 
L 411.984416 145.9198 
L 420.195826 155.911573 
L 428.472039 166.420785 
L 435.871233 176.189146 
L 437.953846 179.002066 
L 437.953846 179.002066 
" clip-path="url(#p3d51f6cc33)" style="fill: none; stroke: #0000ff; stroke-width: 2; stroke-linecap: square"/>
   </g>
   <g id="line2d_3">
    <path d="M 15.646154 322.30821 
L 15.646154 179.002066 
" clip-path="url(#p3d51f6cc33)" style="fill: none; stroke: #0000ff; stroke-width: 2; stroke-linecap: square"/>
   </g>
   <g id="line2d_4">
    <path d="M 437.953846 322.30821 
L 437.953846 179.002066 
" clip-path="url(#p3d51f6cc33)" style="fill: none; stroke: #0000ff; stroke-width: 2; stroke-linecap: square"/>
   </g>
   <g id="text_1">
    <!-- $g_2(x)$ -->
    <g transform="translate(211.12 17.7) scale(0.14 -0.14)">
     <defs>
      <path id="Cmmi10-67" d="M 91 -916 
Q 91 -759 198 -642 
Q 306 -525 459 -525 
Q 563 -525 633 -589 
Q 703 -653 703 -756 
Q 703 -872 637 -964 
Q 572 -1056 469 -1094 
Q 641 -1147 1006 -1147 
Q 1300 -1147 1544 -920 
Q 1788 -694 1863 -397 
L 2047 353 
Q 1700 0 1325 0 
Q 1050 0 854 140 
Q 659 281 556 515 
Q 453 750 453 1013 
Q 453 1306 573 1628 
Q 694 1950 911 2225 
Q 1128 2500 1409 2664 
Q 1691 2828 2003 2828 
Q 2191 2828 2341 2725 
Q 2491 2622 2578 2450 
Q 2641 2700 2853 2700 
Q 2934 2700 2990 2651 
Q 3047 2603 3047 2522 
Q 3047 2503 3045 2493 
Q 3044 2484 3041 2472 
L 2309 -434 
Q 2259 -634 2125 -800 
Q 1991 -966 1809 -1077 
Q 1628 -1188 1412 -1250 
Q 1197 -1313 997 -1313 
Q 631 -1313 361 -1242 
Q 91 -1172 91 -916 
z
M 1338 166 
Q 1747 166 2144 728 
L 2497 2125 
Q 2453 2347 2322 2505 
Q 2191 2663 1991 2663 
Q 1778 2663 1589 2489 
Q 1400 2316 1275 2075 
Q 1156 1844 1045 1411 
Q 934 978 934 728 
Q 934 509 1034 337 
Q 1134 166 1338 166 
z
" transform="scale(0.015625)"/>
      <path id="Cmr10-32" d="M 319 0 
L 319 172 
Q 319 188 331 206 
L 1325 1306 
Q 1550 1550 1690 1715 
Q 1831 1881 1968 2097 
Q 2106 2313 2186 2536 
Q 2266 2759 2266 3009 
Q 2266 3272 2169 3511 
Q 2072 3750 1880 3894 
Q 1688 4038 1416 4038 
Q 1138 4038 916 3870 
Q 694 3703 603 3438 
Q 628 3444 672 3444 
Q 816 3444 917 3347 
Q 1019 3250 1019 3097 
Q 1019 2950 917 2848 
Q 816 2747 672 2747 
Q 522 2747 420 2851 
Q 319 2956 319 3097 
Q 319 3338 409 3548 
Q 500 3759 670 3923 
Q 841 4088 1055 4175 
Q 1269 4263 1509 4263 
Q 1875 4263 2190 4108 
Q 2506 3953 2690 3670 
Q 2875 3388 2875 3009 
Q 2875 2731 2753 2481 
Q 2631 2231 2440 2026 
Q 2250 1822 1953 1562 
Q 1656 1303 1563 1216 
L 838 519 
L 1453 519 
Q 1906 519 2211 526 
Q 2516 534 2534 550 
Q 2609 631 2688 1141 
L 2875 1141 
L 2694 0 
L 319 0 
z
" transform="scale(0.015625)"/>
      <path id="Cmr10-28" d="M 1984 -1588 
Q 1628 -1306 1370 -942 
Q 1113 -578 948 -165 
Q 784 247 703 697 
Q 622 1147 622 1600 
Q 622 2059 703 2509 
Q 784 2959 951 3375 
Q 1119 3791 1378 4153 
Q 1638 4516 1984 4788 
Q 1984 4800 2016 4800 
L 2075 4800 
Q 2094 4800 2109 4783 
Q 2125 4766 2125 4744 
Q 2125 4716 2113 4703 
Q 1800 4397 1592 4047 
Q 1384 3697 1257 3301 
Q 1131 2906 1075 2482 
Q 1019 2059 1019 1600 
Q 1019 -434 2106 -1491 
Q 2125 -1509 2125 -1544 
Q 2125 -1559 2108 -1579 
Q 2091 -1600 2075 -1600 
L 2016 -1600 
Q 1984 -1600 1984 -1588 
z
" transform="scale(0.015625)"/>
      <path id="Cmmi10-78" d="M 500 184 
Q 613 97 819 97 
Q 1019 97 1172 289 
Q 1325 481 1381 709 
L 1672 1844 
Q 1741 2153 1741 2266 
Q 1741 2425 1652 2544 
Q 1563 2663 1403 2663 
Q 1200 2663 1022 2536 
Q 844 2409 722 2214 
Q 600 2019 550 1819 
Q 538 1778 500 1778 
L 422 1778 
Q 372 1778 372 1838 
L 372 1856 
Q 434 2094 584 2320 
Q 734 2547 951 2687 
Q 1169 2828 1416 2828 
Q 1650 2828 1839 2703 
Q 2028 2578 2106 2363 
Q 2216 2559 2386 2693 
Q 2556 2828 2759 2828 
Q 2897 2828 3040 2779 
Q 3184 2731 3275 2631 
Q 3366 2531 3366 2381 
Q 3366 2219 3261 2101 
Q 3156 1984 2994 1984 
Q 2891 1984 2822 2050 
Q 2753 2116 2753 2216 
Q 2753 2350 2845 2451 
Q 2938 2553 3066 2572 
Q 2950 2663 2747 2663 
Q 2541 2663 2389 2472 
Q 2238 2281 2175 2047 
L 1894 916 
Q 1825 659 1825 494 
Q 1825 331 1917 214 
Q 2009 97 2163 97 
Q 2463 97 2698 361 
Q 2934 625 3009 941 
Q 3022 978 3059 978 
L 3138 978 
Q 3163 978 3178 961 
Q 3194 944 3194 922 
Q 3194 916 3188 903 
Q 3097 522 2806 225 
Q 2516 -72 2150 -72 
Q 1916 -72 1727 54 
Q 1538 181 1459 397 
Q 1359 209 1182 68 
Q 1006 -72 806 -72 
Q 669 -72 523 -23 
Q 378 25 287 125 
Q 197 225 197 378 
Q 197 528 301 651 
Q 406 775 563 775 
Q 669 775 741 711 
Q 813 647 813 544 
Q 813 409 723 309 
Q 634 209 500 184 
z
" transform="scale(0.015625)"/>
      <path id="Cmr10-29" d="M 416 -1600 
Q 359 -1600 359 -1544 
Q 359 -1516 372 -1503 
Q 1466 -434 1466 1600 
Q 1466 3634 384 4691 
Q 359 4706 359 4744 
Q 359 4766 376 4783 
Q 394 4800 416 4800 
L 475 4800 
Q 494 4800 506 4788 
Q 966 4425 1272 3906 
Q 1578 3388 1720 2800 
Q 1863 2213 1863 1600 
Q 1863 1147 1786 708 
Q 1709 269 1542 -157 
Q 1375 -584 1119 -945 
Q 863 -1306 506 -1588 
Q 494 -1600 475 -1600 
L 416 -1600 
z
" transform="scale(0.015625)"/>
     </defs>
     <use xlink:href="#Cmmi10-67"/>
     <use xlink:href="#Cmr10-32" transform="translate(47.705078 -17.00625) scale(0.7)"/>
     <use xlink:href="#Cmr10-28" transform="translate(89.082422 0)"/>
     <use xlink:href="#Cmmi10-78" transform="translate(127.900781 0)"/>
     <use xlink:href="#Cmr10-29" transform="translate(184.980859 0)"/>
    </g>
   </g>
   <g id="text_2">
    <!-- $g_1(x)$ -->
    <g transform="translate(211.12 203.997987) scale(0.14 -0.14)">
     <defs>
      <path id="Cmr10-31" d="M 594 0 
L 594 225 
Q 1394 225 1394 428 
L 1394 3788 
Q 1063 3628 556 3628 
L 556 3853 
Q 1341 3853 1741 4263 
L 1831 4263 
Q 1853 4263 1873 4245 
Q 1894 4228 1894 4206 
L 1894 428 
Q 1894 225 2694 225 
L 2694 0 
L 594 0 
z
" transform="scale(0.015625)"/>
     </defs>
     <use xlink:href="#Cmmi10-67"/>
     <use xlink:href="#Cmr10-31" transform="translate(47.705078 -17.00625) scale(0.7)"/>
     <use xlink:href="#Cmr10-28" transform="translate(89.082422 0)"/>
     <use xlink:href="#Cmmi10-78" transform="translate(127.900781 0)"/>
     <use xlink:href="#Cmr10-29" transform="translate(184.980859 0)"/>
    </g>
   </g>
  </g>
 </g>
 <defs>
  <clipPath id="p3d51f6cc33">
   <rect x="7.2" y="8.037836" width="439.2" height="320.432538"/>
  </clipPath>
 </defs>
</svg>
