<?xml version="1.0" encoding="utf-8" standalone="no"?>
<!DOCTYPE svg PUBLIC "-//W3C//DTD SVG 1.1//EN"
  "http://www.w3.org/Graphics/SVG/1.1/DTD/svg11.dtd">
<svg xmlns:xlink="http://www.w3.org/1999/xlink" width="451.037288pt" height="282.094207pt" viewBox="0 0 451.037288 282.094207" xmlns="http://www.w3.org/2000/svg" version="1.1">
 <metadata>
  <rdf:RDF xmlns:dc="http://purl.org/dc/elements/1.1/" xmlns:cc="http://creativecommons.org/ns#" xmlns:rdf="http://www.w3.org/1999/02/22-rdf-syntax-ns#">
   <cc:Work>
    <dc:type rdf:resource="http://purl.org/dc/dcmitype/StillImage"/>
    <dc:date>2025-03-21T21:11:28.023259</dc:date>
    <dc:format>image/svg+xml</dc:format>
    <dc:creator>
     <cc:Agent>
      <dc:title>Matplotlib v3.6.3, https://matplotlib.org/</dc:title>
     </cc:Agent>
    </dc:creator>
   </cc:Work>
  </rdf:RDF>
 </metadata>
 <defs>
  <style type="text/css">*{stroke-linejoin: round; stroke-linecap: butt}</style>
 </defs>
 <g id="figure_1">
  <g id="patch_1">
   <path d="M -0 282.094207 
L 451.037288 282.094207 
L 451.037288 0 
L -0 0 
z
" style="fill: #ffffff"/>
  </g>
  <g id="axes_1">
   <g id="patch_2">
    <path d="M 14.920054 274.894207 
L 436.117233 274.894207 
L 436.117233 7.2 
L 14.920054 7.2 
z
" style="fill: #ffffff"/>
   </g>
   <g id="matplotlib.axis_1"/>
   <g id="matplotlib.axis_2"/>
   <g id="line2d_1">
    <path d="M 229.559617 269.746242 
L 214.437273 264.345385 
L 198.887915 258.533415 
L 183.497372 252.482708 
L 171.564585 247.555086 
L 158.539881 241.902122 
L 148.01744 237.092516 
L 137.255083 231.910274 
L 130.61641 228.560755 
L 119.914232 222.872831 
L 111.323015 218.003229 
L 104.11651 213.667102 
L 97.502112 209.445731 
L 91.558141 205.416494 
L 85.14614 200.765964 
L 79.929294 196.696266 
L 74.473708 192.094433 
L 69.281965 187.291845 
L 66.384365 184.380622 
L 63.209008 180.947149 
L 59.992275 177.137401 
L 57.168103 173.425118 
L 54.708604 169.804405 
L 52.537411 166.178286 
L 50.724885 162.690811 
L 49.583094 160.170115 
L 48.468784 157.338278 
L 47.349838 153.880572 
L 46.611291 150.958162 
L 45.893902 146.849214 
L 45.608312 143.868726 
L 45.522591 141.543804 
L 45.614001 138.136158 
L 45.970841 134.676155 
L 46.533542 131.495573 
L 47.609272 127.334089 
L 48.880008 123.657098 
L 50.372947 120.14792 
L 52.270925 116.397707 
L 54.105204 113.25004 
L 56.41808 109.728832 
L 59.438326 105.654244 
L 62.555042 101.891554 
L 65.769133 98.357253 
L 69.844838 94.257849 
L 72.793179 91.503353 
L 76.824823 87.967647 
L 81.480731 84.15723 
L 87.176101 79.817719 
L 92.347407 76.128293 
L 98.658881 71.891621 
L 104.040002 68.474529 
L 112.138472 63.615612 
L 120.311863 59.002993 
L 128.344445 54.709605 
L 138.272747 49.681328 
L 146.24983 45.833462 
L 155.885278 41.383559 
L 166.72775 36.602678 
L 177.31546 32.136473 
L 187.386919 28.051746 
L 201.391425 22.605777 
L 214.66053 17.667367 
L 229.559617 12.347966 
L 229.559617 12.347966 
" clip-path="url(#pd662d3fa97)" style="fill: none; stroke: #0000ff; stroke-width: 2; stroke-linecap: square"/>
   </g>
   <g id="line2d_2">
    <path d="M 229.538333 268.917917 
L 231.534804 265.871029 
L 233.823551 262.9342 
L 235.994435 260.489589 
L 238.126443 258.311565 
L 241.252673 255.405311 
L 244.402169 252.73193 
L 248.452699 249.568118 
L 252.782822 246.440401 
L 258.958109 242.31229 
L 264.891982 238.616419 
L 273.571099 233.550803 
L 280.590554 229.66726 
L 292.197307 223.527426 
L 307.922345 215.534836 
L 337.289953 200.737435 
L 348.540277 194.826446 
L 357.778249 189.736905 
L 365.80859 185.051101 
L 372.773563 180.7037 
L 378.318999 176.978663 
L 383.367844 173.304268 
L 386.978267 170.450924 
L 390.708346 167.229683 
L 393.087224 164.978842 
L 396.420789 161.453827 
L 398.793119 158.552454 
L 400.734512 155.783592 
L 402.427201 152.873468 
L 403.684158 150.145381 
L 404.394683 148.162512 
L 405.061594 145.57813 
L 405.398021 143.365497 
L 405.514422 141.415513 
L 405.470593 139.595133 
L 405.202107 137.279068 
L 404.754704 135.184392 
L 403.901571 132.507071 
L 402.753502 129.865951 
L 401.812941 128.091116 
L 400.292494 125.638281 
L 398.302258 122.905593 
L 396.365639 120.577529 
L 393.429333 117.454862 
L 389.465692 113.754632 
L 386.504883 111.256099 
L 381.772158 107.593668 
L 376.477938 103.847656 
L 370.997734 100.251443 
L 364.075852 96.006375 
L 355.168474 90.891778 
L 345.722803 85.763046 
L 332.532034 78.920242 
L 311.934522 68.569509 
L 292.268498 58.603631 
L 282.245154 53.320922 
L 275.251132 49.487702 
L 268.614413 45.692746 
L 261.477007 41.378508 
L 255.365631 37.421604 
L 250.349391 33.924138 
L 245.584654 30.314077 
L 241.241593 26.679087 
L 238.283485 23.936032 
L 235.733997 21.324872 
L 232.932303 18.069206 
L 230.712044 15.038162 
L 229.538333 13.176291 
L 229.538333 13.176291 
" clip-path="url(#pd662d3fa97)" style="fill: none; stroke: #0000ff; stroke-width: 2; stroke-linecap: square"/>
   </g>
   <g id="text_1">
    <!-- $h_1(y)$ -->
    <g transform="translate(7.2 144.547104) scale(0.14 -0.14)">
     <defs>
      <path id="Cmmi10-68" d="M 341 116 
Q 341 153 347 172 
L 1275 3872 
Q 1300 3981 1306 4044 
Q 1306 4147 891 4147 
Q 825 4147 825 4231 
Q 828 4247 839 4287 
Q 850 4328 867 4350 
Q 884 4372 916 4372 
L 1778 4441 
L 1797 4441 
Q 1797 4434 1819 4423 
Q 1841 4413 1844 4409 
Q 1856 4378 1856 4359 
L 1356 2363 
Q 1750 2828 2291 2828 
Q 2516 2828 2680 2750 
Q 2844 2672 2936 2514 
Q 3028 2356 3028 2138 
Q 3028 1875 2911 1503 
Q 2794 1131 2619 672 
Q 2528 463 2528 288 
Q 2528 97 2675 97 
Q 2925 97 3092 364 
Q 3259 631 3328 941 
Q 3341 978 3378 978 
L 3456 978 
Q 3481 978 3497 961 
Q 3513 944 3513 922 
Q 3513 916 3506 903 
Q 3450 672 3339 448 
Q 3228 225 3059 76 
Q 2891 -72 2663 -72 
Q 2438 -72 2278 83 
Q 2119 238 2119 459 
Q 2119 578 2169 709 
Q 2350 1191 2470 1569 
Q 2591 1947 2591 2234 
Q 2591 2419 2519 2541 
Q 2447 2663 2278 2663 
Q 1934 2663 1678 2452 
Q 1422 2241 1234 1894 
L 800 147 
Q 775 50 703 -11 
Q 631 -72 538 -72 
Q 456 -72 398 -17 
Q 341 38 341 116 
z
" transform="scale(0.015625)"/>
      <path id="Cmr10-31" d="M 594 0 
L 594 225 
Q 1394 225 1394 428 
L 1394 3788 
Q 1063 3628 556 3628 
L 556 3853 
Q 1341 3853 1741 4263 
L 1831 4263 
Q 1853 4263 1873 4245 
Q 1894 4228 1894 4206 
L 1894 428 
Q 1894 225 2694 225 
L 2694 0 
L 594 0 
z
" transform="scale(0.015625)"/>
      <path id="Cmr10-28" d="M 1984 -1588 
Q 1628 -1306 1370 -942 
Q 1113 -578 948 -165 
Q 784 247 703 697 
Q 622 1147 622 1600 
Q 622 2059 703 2509 
Q 784 2959 951 3375 
Q 1119 3791 1378 4153 
Q 1638 4516 1984 4788 
Q 1984 4800 2016 4800 
L 2075 4800 
Q 2094 4800 2109 4783 
Q 2125 4766 2125 4744 
Q 2125 4716 2113 4703 
Q 1800 4397 1592 4047 
Q 1384 3697 1257 3301 
Q 1131 2906 1075 2482 
Q 1019 2059 1019 1600 
Q 1019 -434 2106 -1491 
Q 2125 -1509 2125 -1544 
Q 2125 -1559 2108 -1579 
Q 2091 -1600 2075 -1600 
L 2016 -1600 
Q 1984 -1600 1984 -1588 
z
" transform="scale(0.015625)"/>
      <path id="Cmmi10-79" d="M 538 -916 
Q 672 -1147 1006 -1147 
Q 1309 -1147 1531 -934 
Q 1753 -722 1889 -420 
Q 2025 -119 2100 197 
Q 1816 -72 1484 -72 
Q 1231 -72 1053 15 
Q 875 103 776 276 
Q 678 450 678 697 
Q 678 906 734 1126 
Q 791 1347 892 1617 
Q 994 1888 1069 2088 
Q 1153 2322 1153 2472 
Q 1153 2663 1013 2663 
Q 759 2663 595 2402 
Q 431 2141 353 1819 
Q 341 1778 300 1778 
L 225 1778 
Q 172 1778 172 1838 
L 172 1856 
Q 275 2238 487 2533 
Q 700 2828 1025 2828 
Q 1253 2828 1411 2678 
Q 1569 2528 1569 2297 
Q 1569 2178 1516 2047 
Q 1488 1969 1388 1706 
Q 1288 1444 1234 1272 
Q 1181 1100 1147 934 
Q 1113 769 1113 603 
Q 1113 391 1203 244 
Q 1294 97 1491 97 
Q 1888 97 2203 581 
L 2688 2553 
Q 2709 2638 2787 2698 
Q 2866 2759 2956 2759 
Q 3034 2759 3092 2709 
Q 3150 2659 3150 2578 
Q 3150 2541 3144 2528 
L 2509 -19 
Q 2425 -347 2200 -647 
Q 1975 -947 1658 -1130 
Q 1341 -1313 997 -1313 
Q 831 -1313 668 -1248 
Q 506 -1184 406 -1056 
Q 306 -928 306 -756 
Q 306 -581 409 -453 
Q 513 -325 684 -325 
Q 788 -325 858 -389 
Q 928 -453 928 -556 
Q 928 -703 818 -812 
Q 709 -922 563 -922 
Q 556 -919 550 -917 
Q 544 -916 538 -916 
z
" transform="scale(0.015625)"/>
      <path id="Cmr10-29" d="M 416 -1600 
Q 359 -1600 359 -1544 
Q 359 -1516 372 -1503 
Q 1466 -434 1466 1600 
Q 1466 3634 384 4691 
Q 359 4706 359 4744 
Q 359 4766 376 4783 
Q 394 4800 416 4800 
L 475 4800 
Q 494 4800 506 4788 
Q 966 4425 1272 3906 
Q 1578 3388 1720 2800 
Q 1863 2213 1863 1600 
Q 1863 1147 1786 708 
Q 1709 269 1542 -157 
Q 1375 -584 1119 -945 
Q 863 -1306 506 -1588 
Q 494 -1600 475 -1600 
L 416 -1600 
z
" transform="scale(0.015625)"/>
     </defs>
     <use xlink:href="#Cmmi10-68"/>
     <use xlink:href="#Cmr10-31" transform="translate(57.617188 -17.00625) scale(0.7)"/>
     <use xlink:href="#Cmr10-28" transform="translate(98.994531 0)"/>
     <use xlink:href="#Cmmi10-79" transform="translate(137.812891 0)"/>
     <use xlink:href="#Cmr10-29" transform="translate(186.836328 0)"/>
    </g>
   </g>
   <g id="text_2">
    <!-- $h_2(y)$ -->
    <g transform="translate(412.197288 144.547104) scale(0.14 -0.14)">
     <defs>
      <path id="Cmr10-32" d="M 319 0 
L 319 172 
Q 319 188 331 206 
L 1325 1306 
Q 1550 1550 1690 1715 
Q 1831 1881 1968 2097 
Q 2106 2313 2186 2536 
Q 2266 2759 2266 3009 
Q 2266 3272 2169 3511 
Q 2072 3750 1880 3894 
Q 1688 4038 1416 4038 
Q 1138 4038 916 3870 
Q 694 3703 603 3438 
Q 628 3444 672 3444 
Q 816 3444 917 3347 
Q 1019 3250 1019 3097 
Q 1019 2950 917 2848 
Q 816 2747 672 2747 
Q 522 2747 420 2851 
Q 319 2956 319 3097 
Q 319 3338 409 3548 
Q 500 3759 670 3923 
Q 841 4088 1055 4175 
Q 1269 4263 1509 4263 
Q 1875 4263 2190 4108 
Q 2506 3953 2690 3670 
Q 2875 3388 2875 3009 
Q 2875 2731 2753 2481 
Q 2631 2231 2440 2026 
Q 2250 1822 1953 1562 
Q 1656 1303 1563 1216 
L 838 519 
L 1453 519 
Q 1906 519 2211 526 
Q 2516 534 2534 550 
Q 2609 631 2688 1141 
L 2875 1141 
L 2694 0 
L 319 0 
z
" transform="scale(0.015625)"/>
     </defs>
     <use xlink:href="#Cmmi10-68"/>
     <use xlink:href="#Cmr10-32" transform="translate(57.617188 -17.00625) scale(0.7)"/>
     <use xlink:href="#Cmr10-28" transform="translate(98.994531 0)"/>
     <use xlink:href="#Cmmi10-79" transform="translate(137.812891 0)"/>
     <use xlink:href="#Cmr10-29" transform="translate(186.836328 0)"/>
    </g>
   </g>
  </g>
 </g>
 <defs>
  <clipPath id="pd662d3fa97">
   <rect x="14.920054" y="7.2" width="421.197179" height="267.694207"/>
  </clipPath>
 </defs>
</svg>
