<?xml version="1.0" encoding="utf-8" standalone="no"?>
<!DOCTYPE svg PUBLIC "-//W3C//DTD SVG 1.1//EN"
  "http://www.w3.org/Graphics/SVG/1.1/DTD/svg11.dtd">
<svg xmlns:xlink="http://www.w3.org/1999/xlink" width="453.6pt" height="335.670374pt" viewBox="0 0 453.6 335.670374" xmlns="http://www.w3.org/2000/svg" version="1.1">
 <metadata>
  <rdf:RDF xmlns:dc="http://purl.org/dc/elements/1.1/" xmlns:cc="http://creativecommons.org/ns#" xmlns:rdf="http://www.w3.org/1999/02/22-rdf-syntax-ns#">
   <cc:Work>
    <dc:type rdf:resource="http://purl.org/dc/dcmitype/StillImage"/>
    <dc:date>2025-03-21T21:11:42.811979</dc:date>
    <dc:format>image/svg+xml</dc:format>
    <dc:creator>
     <cc:Agent>
      <dc:title>Matplotlib v3.6.3, https://matplotlib.org/</dc:title>
     </cc:Agent>
    </dc:creator>
   </cc:Work>
  </rdf:RDF>
 </metadata>
 <defs>
  <style type="text/css">*{stroke-linejoin: round; stroke-linecap: butt}</style>
 </defs>
 <g id="figure_1">
  <g id="patch_1">
   <path d="M 0 335.670374 
L 453.6 335.670374 
L 453.6 0 
L 0 0 
z
" style="fill: #ffffff"/>
  </g>
  <g id="axes_1">
   <g id="patch_2">
    <path d="M 7.2 328.470374 
L 446.4 328.470374 
L 446.4 8.037836 
L 7.2 8.037836 
z
" style="fill: #ffffff"/>
   </g>
   <g id="matplotlib.axis_1"/>
   <g id="matplotlib.axis_2"/>
   <g id="line2d_1">
    <path d="M 15.646154 322.30821 
L 23.792236 311.464311 
L 31.507361 301.587415 
L 38.399827 293.087294 
L 45.82837 284.267991 
L 53.450463 275.587624 
L 61.329901 267.006767 
L 68.525885 259.518884 
L 75.599585 252.482681 
L 82.777641 245.671483 
L 90.570593 238.651805 
L 96.000162 233.991751 
L 103.280439 228.040692 
L 110.35411 222.584868 
L 118.065444 217.003675 
L 124.337915 212.745805 
L 129.478878 209.444616 
L 135.992569 205.505954 
L 142.234212 201.987686 
L 149.811839 198.052931 
L 155.760855 195.222492 
L 162.321938 192.36466 
L 167.935295 190.139285 
L 173.665561 188.076489 
L 179.275277 186.261554 
L 184.997786 184.618561 
L 192.528748 182.777151 
L 198.654857 181.548156 
L 203.492781 180.74808 
L 211.12889 179.79141 
L 216.420379 179.348348 
L 220.755737 179.119489 
L 227.653878 179.004409 
L 233.457238 179.144513 
L 240.314145 179.589074 
L 246.35812 180.231545 
L 250.904375 180.869557 
L 258.328396 182.197064 
L 263.287138 183.281106 
L 269.713229 184.921078 
L 276.28327 186.872226 
L 283.320544 189.269915 
L 290.325898 191.972916 
L 295.279144 194.074502 
L 301.201113 196.794103 
L 307.876309 200.129889 
L 314.258679 203.587204 
L 320.740372 207.36632 
L 328.839476 212.468023 
L 335.954034 217.297447 
L 341.509548 221.294819 
L 348.335785 226.47818 
L 356.009378 232.662587 
L 362.823456 238.471585 
L 370.349995 245.234876 
L 377.079002 251.589831 
L 383.755557 258.182926 
L 390.079481 264.692046 
L 396.873721 271.971726 
L 404.333546 280.306318 
L 409.619121 286.428226 
L 418.32016 296.89718 
L 426.699189 307.43869 
L 433.829038 316.764036 
L 437.953846 322.30821 
L 437.953846 322.30821 
" clip-path="url(#p108d1aaef3)" style="fill: none; stroke: #0000ff; stroke-width: 2; stroke-linecap: square"/>
   </g>
   <g id="line2d_2">
    <path d="M 15.646154 179.002066 
L 23.005763 169.186501 
L 31.048672 158.857785 
L 37.163682 151.283149 
L 44.934123 142.004733 
L 52.13381 133.754257 
L 59.983123 125.139011 
L 68.506085 116.232886 
L 74.680703 110.07237 
L 82.18676 102.913511 
L 87.017819 98.497483 
L 94.445147 92.000869 
L 102.141925 85.642719 
L 108.771146 80.471706 
L 115.089974 75.805779 
L 123.253039 70.158006 
L 129.470245 66.143873 
L 135.501287 62.487366 
L 142.618841 58.472927 
L 149.439446 54.931531 
L 155.386993 52.087526 
L 163.351242 48.63529 
L 169.684059 46.181237 
L 177.706726 43.442516 
L 182.27284 42.068524 
L 188.995284 40.289581 
L 195.603429 38.824021 
L 202.896495 37.532418 
L 209.110205 36.701723 
L 214.558228 36.177598 
L 219.364037 35.873644 
L 225.124076 35.704949 
L 229.473929 35.718903 
L 233.457081 35.838362 
L 240.924103 36.337114 
L 247.84173 37.119003 
L 252.577706 37.831696 
L 258.954356 39.019045 
L 265.086206 40.407338 
L 270.545606 41.84678 
L 276.327835 43.580265 
L 283.016219 45.853498 
L 290.174328 48.60495 
L 295.744495 50.973904 
L 302.697715 54.210943 
L 308.642297 57.224851 
L 314.797399 60.584867 
L 321.387067 64.452045 
L 327.932558 68.569638 
L 334.539795 73.005394 
L 339.540602 76.549257 
L 346.718063 81.916569 
L 354.484303 88.097194 
L 362.012574 94.458518 
L 367.779538 99.577992 
L 375.840556 107.092228 
L 382.502452 113.617496 
L 389.657854 120.943928 
L 396.133675 127.858261 
L 404.118398 136.754787 
L 411.52189 145.369887 
L 419.171931 154.642027 
L 426.896244 164.385889 
L 434.963326 174.971591 
L 437.953846 179.002066 
L 437.953846 179.002066 
" clip-path="url(#p108d1aaef3)" style="fill: none; stroke: #0000ff; stroke-width: 2; stroke-linecap: square"/>
   </g>
   <g id="line2d_3">
    <path d="M 15.646154 322.30821 
L 15.646154 179.002066 
" clip-path="url(#p108d1aaef3)" style="fill: none; stroke: #0000ff; stroke-width: 2; stroke-linecap: square"/>
   </g>
   <g id="line2d_4">
    <path d="M 437.953846 322.30821 
L 437.953846 179.002066 
" clip-path="url(#p108d1aaef3)" style="fill: none; stroke: #0000ff; stroke-width: 2; stroke-linecap: square"/>
   </g>
   <g id="text_1">
    <!-- $g_2(x)$ -->
    <g transform="translate(211.12 17.7) scale(0.14 -0.14)">
     <defs>
      <path id="Cmmi10-67" d="M 91 -916 
Q 91 -759 198 -642 
Q 306 -525 459 -525 
Q 563 -525 633 -589 
Q 703 -653 703 -756 
Q 703 -872 637 -964 
Q 572 -1056 469 -1094 
Q 641 -1147 1006 -1147 
Q 1300 -1147 1544 -920 
Q 1788 -694 1863 -397 
L 2047 353 
Q 1700 0 1325 0 
Q 1050 0 854 140 
Q 659 281 556 515 
Q 453 750 453 1013 
Q 453 1306 573 1628 
Q 694 1950 911 2225 
Q 1128 2500 1409 2664 
Q 1691 2828 2003 2828 
Q 2191 2828 2341 2725 
Q 2491 2622 2578 2450 
Q 2641 2700 2853 2700 
Q 2934 2700 2990 2651 
Q 3047 2603 3047 2522 
Q 3047 2503 3045 2493 
Q 3044 2484 3041 2472 
L 2309 -434 
Q 2259 -634 2125 -800 
Q 1991 -966 1809 -1077 
Q 1628 -1188 1412 -1250 
Q 1197 -1313 997 -1313 
Q 631 -1313 361 -1242 
Q 91 -1172 91 -916 
z
M 1338 166 
Q 1747 166 2144 728 
L 2497 2125 
Q 2453 2347 2322 2505 
Q 2191 2663 1991 2663 
Q 1778 2663 1589 2489 
Q 1400 2316 1275 2075 
Q 1156 1844 1045 1411 
Q 934 978 934 728 
Q 934 509 1034 337 
Q 1134 166 1338 166 
z
" transform="scale(0.015625)"/>
      <path id="Cmr10-32" d="M 319 0 
L 319 172 
Q 319 188 331 206 
L 1325 1306 
Q 1550 1550 1690 1715 
Q 1831 1881 1968 2097 
Q 2106 2313 2186 2536 
Q 2266 2759 2266 3009 
Q 2266 3272 2169 3511 
Q 2072 3750 1880 3894 
Q 1688 4038 1416 4038 
Q 1138 4038 916 3870 
Q 694 3703 603 3438 
Q 628 3444 672 3444 
Q 816 3444 917 3347 
Q 1019 3250 1019 3097 
Q 1019 2950 917 2848 
Q 816 2747 672 2747 
Q 522 2747 420 2851 
Q 319 2956 319 3097 
Q 319 3338 409 3548 
Q 500 3759 670 3923 
Q 841 4088 1055 4175 
Q 1269 4263 1509 4263 
Q 1875 4263 2190 4108 
Q 2506 3953 2690 3670 
Q 2875 3388 2875 3009 
Q 2875 2731 2753 2481 
Q 2631 2231 2440 2026 
Q 2250 1822 1953 1562 
Q 1656 1303 1563 1216 
L 838 519 
L 1453 519 
Q 1906 519 2211 526 
Q 2516 534 2534 550 
Q 2609 631 2688 1141 
L 2875 1141 
L 2694 0 
L 319 0 
z
" transform="scale(0.015625)"/>
      <path id="Cmr10-28" d="M 1984 -1588 
Q 1628 -1306 1370 -942 
Q 1113 -578 948 -165 
Q 784 247 703 697 
Q 622 1147 622 1600 
Q 622 2059 703 2509 
Q 784 2959 951 3375 
Q 1119 3791 1378 4153 
Q 1638 4516 1984 4788 
Q 1984 4800 2016 4800 
L 2075 4800 
Q 2094 4800 2109 4783 
Q 2125 4766 2125 4744 
Q 2125 4716 2113 4703 
Q 1800 4397 1592 4047 
Q 1384 3697 1257 3301 
Q 1131 2906 1075 2482 
Q 1019 2059 1019 1600 
Q 1019 -434 2106 -1491 
Q 2125 -1509 2125 -1544 
Q 2125 -1559 2108 -1579 
Q 2091 -1600 2075 -1600 
L 2016 -1600 
Q 1984 -1600 1984 -1588 
z
" transform="scale(0.015625)"/>
      <path id="Cmmi10-78" d="M 500 184 
Q 613 97 819 97 
Q 1019 97 1172 289 
Q 1325 481 1381 709 
L 1672 1844 
Q 1741 2153 1741 2266 
Q 1741 2425 1652 2544 
Q 1563 2663 1403 2663 
Q 1200 2663 1022 2536 
Q 844 2409 722 2214 
Q 600 2019 550 1819 
Q 538 1778 500 1778 
L 422 1778 
Q 372 1778 372 1838 
L 372 1856 
Q 434 2094 584 2320 
Q 734 2547 951 2687 
Q 1169 2828 1416 2828 
Q 1650 2828 1839 2703 
Q 2028 2578 2106 2363 
Q 2216 2559 2386 2693 
Q 2556 2828 2759 2828 
Q 2897 2828 3040 2779 
Q 3184 2731 3275 2631 
Q 3366 2531 3366 2381 
Q 3366 2219 3261 2101 
Q 3156 1984 2994 1984 
Q 2891 1984 2822 2050 
Q 2753 2116 2753 2216 
Q 2753 2350 2845 2451 
Q 2938 2553 3066 2572 
Q 2950 2663 2747 2663 
Q 2541 2663 2389 2472 
Q 2238 2281 2175 2047 
L 1894 916 
Q 1825 659 1825 494 
Q 1825 331 1917 214 
Q 2009 97 2163 97 
Q 2463 97 2698 361 
Q 2934 625 3009 941 
Q 3022 978 3059 978 
L 3138 978 
Q 3163 978 3178 961 
Q 3194 944 3194 922 
Q 3194 916 3188 903 
Q 3097 522 2806 225 
Q 2516 -72 2150 -72 
Q 1916 -72 1727 54 
Q 1538 181 1459 397 
Q 1359 209 1182 68 
Q 1006 -72 806 -72 
Q 669 -72 523 -23 
Q 378 25 287 125 
Q 197 225 197 378 
Q 197 528 301 651 
Q 406 775 563 775 
Q 669 775 741 711 
Q 813 647 813 544 
Q 813 409 723 309 
Q 634 209 500 184 
z
" transform="scale(0.015625)"/>
      <path id="Cmr10-29" d="M 416 -1600 
Q 359 -1600 359 -1544 
Q 359 -1516 372 -1503 
Q 1466 -434 1466 1600 
Q 1466 3634 384 4691 
Q 359 4706 359 4744 
Q 359 4766 376 4783 
Q 394 4800 416 4800 
L 475 4800 
Q 494 4800 506 4788 
Q 966 4425 1272 3906 
Q 1578 3388 1720 2800 
Q 1863 2213 1863 1600 
Q 1863 1147 1786 708 
Q 1709 269 1542 -157 
Q 1375 -584 1119 -945 
Q 863 -1306 506 -1588 
Q 494 -1600 475 -1600 
L 416 -1600 
z
" transform="scale(0.015625)"/>
     </defs>
     <use xlink:href="#Cmmi10-67"/>
     <use xlink:href="#Cmr10-32" transform="translate(47.705078 -17.00625) scale(0.7)"/>
     <use xlink:href="#Cmr10-28" transform="translate(89.082422 0)"/>
     <use xlink:href="#Cmmi10-78" transform="translate(127.900781 0)"/>
     <use xlink:href="#Cmr10-29" transform="translate(184.980859 0)"/>
    </g>
   </g>
   <g id="text_2">
    <!-- $g_1(x)$ -->
    <g transform="translate(211.12 203.997987) scale(0.14 -0.14)">
     <defs>
      <path id="Cmr10-31" d="M 594 0 
L 594 225 
Q 1394 225 1394 428 
L 1394 3788 
Q 1063 3628 556 3628 
L 556 3853 
Q 1341 3853 1741 4263 
L 1831 4263 
Q 1853 4263 1873 4245 
Q 1894 4228 1894 4206 
L 1894 428 
Q 1894 225 2694 225 
L 2694 0 
L 594 0 
z
" transform="scale(0.015625)"/>
     </defs>
     <use xlink:href="#Cmmi10-67"/>
     <use xlink:href="#Cmr10-31" transform="translate(47.705078 -17.00625) scale(0.7)"/>
     <use xlink:href="#Cmr10-28" transform="translate(89.082422 0)"/>
     <use xlink:href="#Cmmi10-78" transform="translate(127.900781 0)"/>
     <use xlink:href="#Cmr10-29" transform="translate(184.980859 0)"/>
    </g>
   </g>
  </g>
 </g>
 <defs>
  <clipPath id="p108d1aaef3">
   <rect x="7.2" y="8.037836" width="439.2" height="320.432538"/>
  </clipPath>
 </defs>
</svg>
