<?xml version="1.0" encoding="utf-8" standalone="no"?>
<!DOCTYPE svg PUBLIC "-//W3C//DTD SVG 1.1//EN"
  "http://www.w3.org/Graphics/SVG/1.1/DTD/svg11.dtd">
<svg xmlns:xlink="http://www.w3.org/1999/xlink" width="451.037288pt" height="282.094207pt" viewBox="0 0 451.037288 282.094207" xmlns="http://www.w3.org/2000/svg" version="1.1">
 <metadata>
  <rdf:RDF xmlns:dc="http://purl.org/dc/elements/1.1/" xmlns:cc="http://creativecommons.org/ns#" xmlns:rdf="http://www.w3.org/1999/02/22-rdf-syntax-ns#">
   <cc:Work>
    <dc:type rdf:resource="http://purl.org/dc/dcmitype/StillImage"/>
    <dc:date>2025-02-02T17:45:09.109980</dc:date>
    <dc:format>image/svg+xml</dc:format>
    <dc:creator>
     <cc:Agent>
      <dc:title>Matplotlib v3.6.3, https://matplotlib.org/</dc:title>
     </cc:Agent>
    </dc:creator>
   </cc:Work>
  </rdf:RDF>
 </metadata>
 <defs>
  <style type="text/css">*{stroke-linejoin: round; stroke-linecap: butt}</style>
 </defs>
 <g id="figure_1">
  <g id="patch_1">
   <path d="M -0 282.094207 
L 451.037288 282.094207 
L 451.037288 0 
L -0 0 
z
" style="fill: #ffffff"/>
  </g>
  <g id="axes_1">
   <g id="patch_2">
    <path d="M 14.920054 274.894207 
L 436.117233 274.894207 
L 436.117233 7.2 
L 14.920054 7.2 
z
" style="fill: #ffffff"/>
   </g>
   <g id="matplotlib.axis_1"/>
   <g id="matplotlib.axis_2"/>
   <g id="line2d_1">
    <path d="M 229.559617 269.746242 
L 215.371147 264.685748 
L 199.822219 258.89073 
L 188.011288 254.290839 
L 175.399833 249.163339 
L 161.83916 243.363612 
L 151.511562 238.715882 
L 141.855881 234.160931 
L 130.861552 228.686717 
L 120.23064 223.046653 
L 114.027078 219.568497 
L 105.691758 214.636746 
L 99.038402 210.449103 
L 91.489802 205.368702 
L 85.533514 201.057151 
L 80.763732 197.366977 
L 76.300049 193.679787 
L 73.22081 190.977753 
L 68.680278 186.702602 
L 64.668508 182.560568 
L 61.111162 178.506531 
L 58.974006 175.844604 
L 55.782087 171.437813 
L 53.962469 168.612129 
L 51.920252 165.047778 
L 50.143845 161.447026 
L 48.637965 157.799076 
L 47.588994 154.693412 
L 46.806878 151.809622 
L 46.214742 148.95532 
L 45.772122 145.812012 
L 45.531802 142.084292 
L 45.543918 139.575318 
L 45.735299 136.643655 
L 46.300329 132.666012 
L 46.808979 130.275802 
L 47.926652 126.329401 
L 49.381401 122.40475 
L 51.376953 118.087665 
L 52.960677 115.169121 
L 54.764732 112.202106 
L 57.474124 108.246531 
L 60.06644 104.864451 
L 63.372564 100.963023 
L 67.338733 96.733603 
L 70.921815 93.233281 
L 75.877591 88.776859 
L 80.777005 84.716626 
L 85.067673 81.387399 
L 91.221792 76.91328 
L 96.464171 73.334784 
L 104.57458 68.14381 
L 111.812055 63.805544 
L 119.495617 59.451917 
L 128.831988 54.455867 
L 135.436262 51.089208 
L 146.936316 45.509567 
L 158.911391 40.02646 
L 171.475124 34.576926 
L 184.125861 29.357993 
L 197.668121 24.028931 
L 210.441323 19.215937 
L 224.787595 14.027463 
L 229.559617 12.347966 
L 229.559617 12.347966 
" clip-path="url(#p767adb2c69)" style="fill: none; stroke: #0000ff; stroke-width: 2; stroke-linecap: square"/>
   </g>
   <g id="line2d_2">
    <path d="M 229.538333 268.917917 
L 231.184537 266.36527 
L 233.100725 263.814261 
L 235.547729 260.971474 
L 238.749415 257.708133 
L 242.531347 254.293443 
L 245.683308 251.701848 
L 249.649531 248.680489 
L 255.264163 244.740856 
L 259.934342 241.688247 
L 266.010276 237.943527 
L 274.389361 233.08961 
L 284.412741 227.612677 
L 293.216327 223.000713 
L 308.379604 215.305436 
L 337.493314 200.632611 
L 349.833301 194.129303 
L 357.748245 189.753894 
L 366.37572 184.70829 
L 373.762443 180.059025 
L 379.112023 176.421735 
L 384.735207 172.249371 
L 388.404563 169.256978 
L 392.342301 165.703447 
L 394.78138 163.251662 
L 397.512383 160.170272 
L 399.571149 157.496444 
L 401.110453 155.187576 
L 402.794655 152.144277 
L 403.843693 149.739207 
L 404.678481 147.196221 
L 405.252337 144.501857 
L 405.493502 142.084964 
L 405.464834 139.50847 
L 405.263335 137.664802 
L 404.875356 135.668634 
L 404.165949 133.238812 
L 403.059289 130.505603 
L 401.449078 127.465088 
L 399.581645 124.612451 
L 397.642647 122.082531 
L 395.102451 119.183883 
L 392.36015 116.407897 
L 388.480977 112.902425 
L 385.027794 110.074431 
L 380.142397 106.40655 
L 375.136776 102.944421 
L 369.197369 99.119236 
L 361.303693 94.378636 
L 353.418056 89.921909 
L 342.859615 84.252061 
L 329.4342 77.347851 
L 284.546626 54.552848 
L 273.67821 48.603915 
L 266.379129 44.371167 
L 260.317199 40.648841 
L 254.184287 36.621072 
L 249.042836 32.966161 
L 245.101397 29.928156 
L 240.878061 26.3555 
L 237.510616 23.172424 
L 235.163162 20.699731 
L 232.554663 17.588176 
L 230.871265 15.274217 
L 229.538333 13.176291 
L 229.538333 13.176291 
" clip-path="url(#p767adb2c69)" style="fill: none; stroke: #0000ff; stroke-width: 2; stroke-linecap: square"/>
   </g>
   <g id="text_1">
    <!-- $h_1(y)$ -->
    <g transform="translate(7.2 144.547104) scale(0.14 -0.14)">
     <defs>
      <path id="Cmmi10-68" d="M 341 116 
Q 341 153 347 172 
L 1275 3872 
Q 1300 3981 1306 4044 
Q 1306 4147 891 4147 
Q 825 4147 825 4231 
Q 828 4247 839 4287 
Q 850 4328 867 4350 
Q 884 4372 916 4372 
L 1778 4441 
L 1797 4441 
Q 1797 4434 1819 4423 
Q 1841 4413 1844 4409 
Q 1856 4378 1856 4359 
L 1356 2363 
Q 1750 2828 2291 2828 
Q 2516 2828 2680 2750 
Q 2844 2672 2936 2514 
Q 3028 2356 3028 2138 
Q 3028 1875 2911 1503 
Q 2794 1131 2619 672 
Q 2528 463 2528 288 
Q 2528 97 2675 97 
Q 2925 97 3092 364 
Q 3259 631 3328 941 
Q 3341 978 3378 978 
L 3456 978 
Q 3481 978 3497 961 
Q 3513 944 3513 922 
Q 3513 916 3506 903 
Q 3450 672 3339 448 
Q 3228 225 3059 76 
Q 2891 -72 2663 -72 
Q 2438 -72 2278 83 
Q 2119 238 2119 459 
Q 2119 578 2169 709 
Q 2350 1191 2470 1569 
Q 2591 1947 2591 2234 
Q 2591 2419 2519 2541 
Q 2447 2663 2278 2663 
Q 1934 2663 1678 2452 
Q 1422 2241 1234 1894 
L 800 147 
Q 775 50 703 -11 
Q 631 -72 538 -72 
Q 456 -72 398 -17 
Q 341 38 341 116 
z
" transform="scale(0.015625)"/>
      <path id="Cmr10-31" d="M 594 0 
L 594 225 
Q 1394 225 1394 428 
L 1394 3788 
Q 1063 3628 556 3628 
L 556 3853 
Q 1341 3853 1741 4263 
L 1831 4263 
Q 1853 4263 1873 4245 
Q 1894 4228 1894 4206 
L 1894 428 
Q 1894 225 2694 225 
L 2694 0 
L 594 0 
z
" transform="scale(0.015625)"/>
      <path id="Cmr10-28" d="M 1984 -1588 
Q 1628 -1306 1370 -942 
Q 1113 -578 948 -165 
Q 784 247 703 697 
Q 622 1147 622 1600 
Q 622 2059 703 2509 
Q 784 2959 951 3375 
Q 1119 3791 1378 4153 
Q 1638 4516 1984 4788 
Q 1984 4800 2016 4800 
L 2075 4800 
Q 2094 4800 2109 4783 
Q 2125 4766 2125 4744 
Q 2125 4716 2113 4703 
Q 1800 4397 1592 4047 
Q 1384 3697 1257 3301 
Q 1131 2906 1075 2482 
Q 1019 2059 1019 1600 
Q 1019 -434 2106 -1491 
Q 2125 -1509 2125 -1544 
Q 2125 -1559 2108 -1579 
Q 2091 -1600 2075 -1600 
L 2016 -1600 
Q 1984 -1600 1984 -1588 
z
" transform="scale(0.015625)"/>
      <path id="Cmmi10-79" d="M 538 -916 
Q 672 -1147 1006 -1147 
Q 1309 -1147 1531 -934 
Q 1753 -722 1889 -420 
Q 2025 -119 2100 197 
Q 1816 -72 1484 -72 
Q 1231 -72 1053 15 
Q 875 103 776 276 
Q 678 450 678 697 
Q 678 906 734 1126 
Q 791 1347 892 1617 
Q 994 1888 1069 2088 
Q 1153 2322 1153 2472 
Q 1153 2663 1013 2663 
Q 759 2663 595 2402 
Q 431 2141 353 1819 
Q 341 1778 300 1778 
L 225 1778 
Q 172 1778 172 1838 
L 172 1856 
Q 275 2238 487 2533 
Q 700 2828 1025 2828 
Q 1253 2828 1411 2678 
Q 1569 2528 1569 2297 
Q 1569 2178 1516 2047 
Q 1488 1969 1388 1706 
Q 1288 1444 1234 1272 
Q 1181 1100 1147 934 
Q 1113 769 1113 603 
Q 1113 391 1203 244 
Q 1294 97 1491 97 
Q 1888 97 2203 581 
L 2688 2553 
Q 2709 2638 2787 2698 
Q 2866 2759 2956 2759 
Q 3034 2759 3092 2709 
Q 3150 2659 3150 2578 
Q 3150 2541 3144 2528 
L 2509 -19 
Q 2425 -347 2200 -647 
Q 1975 -947 1658 -1130 
Q 1341 -1313 997 -1313 
Q 831 -1313 668 -1248 
Q 506 -1184 406 -1056 
Q 306 -928 306 -756 
Q 306 -581 409 -453 
Q 513 -325 684 -325 
Q 788 -325 858 -389 
Q 928 -453 928 -556 
Q 928 -703 818 -812 
Q 709 -922 563 -922 
Q 556 -919 550 -917 
Q 544 -916 538 -916 
z
" transform="scale(0.015625)"/>
      <path id="Cmr10-29" d="M 416 -1600 
Q 359 -1600 359 -1544 
Q 359 -1516 372 -1503 
Q 1466 -434 1466 1600 
Q 1466 3634 384 4691 
Q 359 4706 359 4744 
Q 359 4766 376 4783 
Q 394 4800 416 4800 
L 475 4800 
Q 494 4800 506 4788 
Q 966 4425 1272 3906 
Q 1578 3388 1720 2800 
Q 1863 2213 1863 1600 
Q 1863 1147 1786 708 
Q 1709 269 1542 -157 
Q 1375 -584 1119 -945 
Q 863 -1306 506 -1588 
Q 494 -1600 475 -1600 
L 416 -1600 
z
" transform="scale(0.015625)"/>
     </defs>
     <use xlink:href="#Cmmi10-68"/>
     <use xlink:href="#Cmr10-31" transform="translate(57.617188 -17.00625) scale(0.7)"/>
     <use xlink:href="#Cmr10-28" transform="translate(98.994531 0)"/>
     <use xlink:href="#Cmmi10-79" transform="translate(137.812891 0)"/>
     <use xlink:href="#Cmr10-29" transform="translate(186.836328 0)"/>
    </g>
   </g>
   <g id="text_2">
    <!-- $h_2(y)$ -->
    <g transform="translate(412.197288 144.547104) scale(0.14 -0.14)">
     <defs>
      <path id="Cmr10-32" d="M 319 0 
L 319 172 
Q 319 188 331 206 
L 1325 1306 
Q 1550 1550 1690 1715 
Q 1831 1881 1968 2097 
Q 2106 2313 2186 2536 
Q 2266 2759 2266 3009 
Q 2266 3272 2169 3511 
Q 2072 3750 1880 3894 
Q 1688 4038 1416 4038 
Q 1138 4038 916 3870 
Q 694 3703 603 3438 
Q 628 3444 672 3444 
Q 816 3444 917 3347 
Q 1019 3250 1019 3097 
Q 1019 2950 917 2848 
Q 816 2747 672 2747 
Q 522 2747 420 2851 
Q 319 2956 319 3097 
Q 319 3338 409 3548 
Q 500 3759 670 3923 
Q 841 4088 1055 4175 
Q 1269 4263 1509 4263 
Q 1875 4263 2190 4108 
Q 2506 3953 2690 3670 
Q 2875 3388 2875 3009 
Q 2875 2731 2753 2481 
Q 2631 2231 2440 2026 
Q 2250 1822 1953 1562 
Q 1656 1303 1563 1216 
L 838 519 
L 1453 519 
Q 1906 519 2211 526 
Q 2516 534 2534 550 
Q 2609 631 2688 1141 
L 2875 1141 
L 2694 0 
L 319 0 
z
" transform="scale(0.015625)"/>
     </defs>
     <use xlink:href="#Cmmi10-68"/>
     <use xlink:href="#Cmr10-32" transform="translate(57.617188 -17.00625) scale(0.7)"/>
     <use xlink:href="#Cmr10-28" transform="translate(98.994531 0)"/>
     <use xlink:href="#Cmmi10-79" transform="translate(137.812891 0)"/>
     <use xlink:href="#Cmr10-29" transform="translate(186.836328 0)"/>
    </g>
   </g>
  </g>
 </g>
 <defs>
  <clipPath id="p767adb2c69">
   <rect x="14.920054" y="7.2" width="421.197179" height="267.694207"/>
  </clipPath>
 </defs>
</svg>
