<?xml version="1.0" encoding="utf-8" standalone="no"?>
<!DOCTYPE svg PUBLIC "-//W3C//DTD SVG 1.1//EN"
  "http://www.w3.org/Graphics/SVG/1.1/DTD/svg11.dtd">
<svg xmlns:xlink="http://www.w3.org/1999/xlink" width="453.6pt" height="335.670374pt" viewBox="0 0 453.6 335.670374" xmlns="http://www.w3.org/2000/svg" version="1.1">
 <metadata>
  <rdf:RDF xmlns:dc="http://purl.org/dc/elements/1.1/" xmlns:cc="http://creativecommons.org/ns#" xmlns:rdf="http://www.w3.org/1999/02/22-rdf-syntax-ns#">
   <cc:Work>
    <dc:type rdf:resource="http://purl.org/dc/dcmitype/StillImage"/>
    <dc:date>2025-02-16T23:30:53.411317</dc:date>
    <dc:format>image/svg+xml</dc:format>
    <dc:creator>
     <cc:Agent>
      <dc:title>Matplotlib v3.6.3, https://matplotlib.org/</dc:title>
     </cc:Agent>
    </dc:creator>
   </cc:Work>
  </rdf:RDF>
 </metadata>
 <defs>
  <style type="text/css">*{stroke-linejoin: round; stroke-linecap: butt}</style>
 </defs>
 <g id="figure_1">
  <g id="patch_1">
   <path d="M 0 335.670374 
L 453.6 335.670374 
L 453.6 0 
L 0 0 
z
" style="fill: #ffffff"/>
  </g>
  <g id="axes_1">
   <g id="patch_2">
    <path d="M 7.2 328.470374 
L 446.4 328.470374 
L 446.4 8.037836 
L 7.2 8.037836 
z
" style="fill: #ffffff"/>
   </g>
   <g id="matplotlib.axis_1"/>
   <g id="matplotlib.axis_2"/>
   <g id="line2d_1">
    <path d="M 15.646154 322.30821 
L 23.473246 311.88092 
L 31.439688 301.672386 
L 36.637342 295.231814 
L 45.074036 285.147369 
L 53.123879 275.951893 
L 61.471128 266.856609 
L 70.323229 257.700587 
L 76.532491 251.578729 
L 85.346912 243.314017 
L 91.310829 238.005323 
L 99.676314 230.944198 
L 107.020405 225.116035 
L 113.014717 220.616022 
L 119.595452 215.941755 
L 125.907156 211.720126 
L 132.18081 207.777724 
L 138.113389 204.282407 
L 144.542683 200.749894 
L 150.803841 197.565149 
L 157.125418 194.605333 
L 163.371002 191.933376 
L 167.64846 190.248088 
L 175.77931 187.368868 
L 180.26722 185.961674 
L 188.329179 183.759028 
L 193.062704 182.660434 
L 199.36141 181.421927 
L 203.772972 180.706352 
L 210.076875 179.900946 
L 217.156417 179.300978 
L 222.800545 179.053478 
L 229.155005 179.019892 
L 235.647351 179.253656 
L 241.955772 179.740349 
L 248.938092 180.577307 
L 254.456356 181.460489 
L 259.378314 182.413398 
L 264.462891 183.561323 
L 271.592469 185.450835 
L 278.338314 187.539497 
L 285.002927 189.890275 
L 291.229 192.344332 
L 295.228799 194.052348 
L 301.281428 196.832536 
L 308.047622 200.219269 
L 315.310176 204.181921 
L 320.721455 207.354898 
L 327.96714 211.898268 
L 335.402805 216.91164 
L 342.316851 221.892209 
L 349.511204 227.40094 
L 356.862164 233.373247 
L 364.148471 239.635823 
L 371.15503 245.979832 
L 379.316342 253.767279 
L 386.004015 260.467777 
L 392.552959 267.307901 
L 400.131527 275.567555 
L 407.350031 283.778099 
L 414.553208 292.305103 
L 421.501082 300.845897 
L 428.438555 309.683524 
L 437.953846 322.30821 
L 437.953846 322.30821 
" clip-path="url(#p99de147bc6)" style="fill: none; stroke: #0000ff; stroke-width: 2; stroke-linecap: square"/>
   </g>
   <g id="line2d_2">
    <path d="M 15.646154 179.002066 
L 23.147962 169.000277 
L 31.803895 157.909284 
L 37.957067 150.318004 
L 45.036992 141.884503 
L 52.928107 132.86444 
L 61.330748 123.699722 
L 68.813682 115.920192 
L 76.150756 108.641796 
L 84.022489 101.217814 
L 88.940302 96.78189 
L 95.594315 91.027381 
L 103.502668 84.558252 
L 108.207028 80.90074 
L 114.664062 76.112213 
L 120.99928 71.674506 
L 125.207001 68.869658 
L 133.493524 63.678672 
L 141.8415 58.895521 
L 147.041978 56.142261 
L 153.799125 52.824564 
L 159.00899 50.46696 
L 165.466519 47.786917 
L 172.283895 45.248408 
L 178.976937 43.04684 
L 184.482735 41.451673 
L 190.878223 39.843384 
L 197.235092 38.505362 
L 203.732583 37.406192 
L 209.895484 36.614407 
L 217.231367 35.990206 
L 222.719059 35.74945 
L 229.749528 35.723884 
L 235.968834 35.966128 
L 242.784691 36.517171 
L 249.373634 37.333755 
L 254.806801 38.217043 
L 259.126746 39.054773 
L 263.246508 39.965438 
L 269.930534 41.675031 
L 276.591993 43.664592 
L 280.114337 44.831895 
L 287.97699 47.725296 
L 294.057272 50.235282 
L 300.241416 53.031922 
L 306.902432 56.319225 
L 312.193958 59.133951 
L 319.681634 63.42443 
L 327.006175 67.970144 
L 332.770959 71.790382 
L 340.129838 76.977411 
L 345.729592 81.157727 
L 353.677402 87.436988 
L 361.213873 93.766347 
L 367.018956 98.890567 
L 373.453505 104.823559 
L 380.325219 111.453533 
L 388.016708 119.234468 
L 394.604134 126.200829 
L 401.891783 134.232697 
L 408.539338 141.856849 
L 416.763249 151.682035 
L 424.860784 161.781033 
L 433.249277 172.687399 
L 437.953846 179.002066 
L 437.953846 179.002066 
" clip-path="url(#p99de147bc6)" style="fill: none; stroke: #0000ff; stroke-width: 2; stroke-linecap: square"/>
   </g>
   <g id="line2d_3">
    <path d="M 15.646154 322.30821 
L 15.646154 179.002066 
" clip-path="url(#p99de147bc6)" style="fill: none; stroke: #0000ff; stroke-width: 2; stroke-linecap: square"/>
   </g>
   <g id="line2d_4">
    <path d="M 437.953846 322.30821 
L 437.953846 179.002066 
" clip-path="url(#p99de147bc6)" style="fill: none; stroke: #0000ff; stroke-width: 2; stroke-linecap: square"/>
   </g>
   <g id="text_1">
    <!-- $g_2(x)$ -->
    <g transform="translate(211.12 17.7) scale(0.14 -0.14)">
     <defs>
      <path id="Cmmi10-67" d="M 91 -916 
Q 91 -759 198 -642 
Q 306 -525 459 -525 
Q 563 -525 633 -589 
Q 703 -653 703 -756 
Q 703 -872 637 -964 
Q 572 -1056 469 -1094 
Q 641 -1147 1006 -1147 
Q 1300 -1147 1544 -920 
Q 1788 -694 1863 -397 
L 2047 353 
Q 1700 0 1325 0 
Q 1050 0 854 140 
Q 659 281 556 515 
Q 453 750 453 1013 
Q 453 1306 573 1628 
Q 694 1950 911 2225 
Q 1128 2500 1409 2664 
Q 1691 2828 2003 2828 
Q 2191 2828 2341 2725 
Q 2491 2622 2578 2450 
Q 2641 2700 2853 2700 
Q 2934 2700 2990 2651 
Q 3047 2603 3047 2522 
Q 3047 2503 3045 2493 
Q 3044 2484 3041 2472 
L 2309 -434 
Q 2259 -634 2125 -800 
Q 1991 -966 1809 -1077 
Q 1628 -1188 1412 -1250 
Q 1197 -1313 997 -1313 
Q 631 -1313 361 -1242 
Q 91 -1172 91 -916 
z
M 1338 166 
Q 1747 166 2144 728 
L 2497 2125 
Q 2453 2347 2322 2505 
Q 2191 2663 1991 2663 
Q 1778 2663 1589 2489 
Q 1400 2316 1275 2075 
Q 1156 1844 1045 1411 
Q 934 978 934 728 
Q 934 509 1034 337 
Q 1134 166 1338 166 
z
" transform="scale(0.015625)"/>
      <path id="Cmr10-32" d="M 319 0 
L 319 172 
Q 319 188 331 206 
L 1325 1306 
Q 1550 1550 1690 1715 
Q 1831 1881 1968 2097 
Q 2106 2313 2186 2536 
Q 2266 2759 2266 3009 
Q 2266 3272 2169 3511 
Q 2072 3750 1880 3894 
Q 1688 4038 1416 4038 
Q 1138 4038 916 3870 
Q 694 3703 603 3438 
Q 628 3444 672 3444 
Q 816 3444 917 3347 
Q 1019 3250 1019 3097 
Q 1019 2950 917 2848 
Q 816 2747 672 2747 
Q 522 2747 420 2851 
Q 319 2956 319 3097 
Q 319 3338 409 3548 
Q 500 3759 670 3923 
Q 841 4088 1055 4175 
Q 1269 4263 1509 4263 
Q 1875 4263 2190 4108 
Q 2506 3953 2690 3670 
Q 2875 3388 2875 3009 
Q 2875 2731 2753 2481 
Q 2631 2231 2440 2026 
Q 2250 1822 1953 1562 
Q 1656 1303 1563 1216 
L 838 519 
L 1453 519 
Q 1906 519 2211 526 
Q 2516 534 2534 550 
Q 2609 631 2688 1141 
L 2875 1141 
L 2694 0 
L 319 0 
z
" transform="scale(0.015625)"/>
      <path id="Cmr10-28" d="M 1984 -1588 
Q 1628 -1306 1370 -942 
Q 1113 -578 948 -165 
Q 784 247 703 697 
Q 622 1147 622 1600 
Q 622 2059 703 2509 
Q 784 2959 951 3375 
Q 1119 3791 1378 4153 
Q 1638 4516 1984 4788 
Q 1984 4800 2016 4800 
L 2075 4800 
Q 2094 4800 2109 4783 
Q 2125 4766 2125 4744 
Q 2125 4716 2113 4703 
Q 1800 4397 1592 4047 
Q 1384 3697 1257 3301 
Q 1131 2906 1075 2482 
Q 1019 2059 1019 1600 
Q 1019 -434 2106 -1491 
Q 2125 -1509 2125 -1544 
Q 2125 -1559 2108 -1579 
Q 2091 -1600 2075 -1600 
L 2016 -1600 
Q 1984 -1600 1984 -1588 
z
" transform="scale(0.015625)"/>
      <path id="Cmmi10-78" d="M 500 184 
Q 613 97 819 97 
Q 1019 97 1172 289 
Q 1325 481 1381 709 
L 1672 1844 
Q 1741 2153 1741 2266 
Q 1741 2425 1652 2544 
Q 1563 2663 1403 2663 
Q 1200 2663 1022 2536 
Q 844 2409 722 2214 
Q 600 2019 550 1819 
Q 538 1778 500 1778 
L 422 1778 
Q 372 1778 372 1838 
L 372 1856 
Q 434 2094 584 2320 
Q 734 2547 951 2687 
Q 1169 2828 1416 2828 
Q 1650 2828 1839 2703 
Q 2028 2578 2106 2363 
Q 2216 2559 2386 2693 
Q 2556 2828 2759 2828 
Q 2897 2828 3040 2779 
Q 3184 2731 3275 2631 
Q 3366 2531 3366 2381 
Q 3366 2219 3261 2101 
Q 3156 1984 2994 1984 
Q 2891 1984 2822 2050 
Q 2753 2116 2753 2216 
Q 2753 2350 2845 2451 
Q 2938 2553 3066 2572 
Q 2950 2663 2747 2663 
Q 2541 2663 2389 2472 
Q 2238 2281 2175 2047 
L 1894 916 
Q 1825 659 1825 494 
Q 1825 331 1917 214 
Q 2009 97 2163 97 
Q 2463 97 2698 361 
Q 2934 625 3009 941 
Q 3022 978 3059 978 
L 3138 978 
Q 3163 978 3178 961 
Q 3194 944 3194 922 
Q 3194 916 3188 903 
Q 3097 522 2806 225 
Q 2516 -72 2150 -72 
Q 1916 -72 1727 54 
Q 1538 181 1459 397 
Q 1359 209 1182 68 
Q 1006 -72 806 -72 
Q 669 -72 523 -23 
Q 378 25 287 125 
Q 197 225 197 378 
Q 197 528 301 651 
Q 406 775 563 775 
Q 669 775 741 711 
Q 813 647 813 544 
Q 813 409 723 309 
Q 634 209 500 184 
z
" transform="scale(0.015625)"/>
      <path id="Cmr10-29" d="M 416 -1600 
Q 359 -1600 359 -1544 
Q 359 -1516 372 -1503 
Q 1466 -434 1466 1600 
Q 1466 3634 384 4691 
Q 359 4706 359 4744 
Q 359 4766 376 4783 
Q 394 4800 416 4800 
L 475 4800 
Q 494 4800 506 4788 
Q 966 4425 1272 3906 
Q 1578 3388 1720 2800 
Q 1863 2213 1863 1600 
Q 1863 1147 1786 708 
Q 1709 269 1542 -157 
Q 1375 -584 1119 -945 
Q 863 -1306 506 -1588 
Q 494 -1600 475 -1600 
L 416 -1600 
z
" transform="scale(0.015625)"/>
     </defs>
     <use xlink:href="#Cmmi10-67"/>
     <use xlink:href="#Cmr10-32" transform="translate(47.705078 -17.00625) scale(0.7)"/>
     <use xlink:href="#Cmr10-28" transform="translate(89.082422 0)"/>
     <use xlink:href="#Cmmi10-78" transform="translate(127.900781 0)"/>
     <use xlink:href="#Cmr10-29" transform="translate(184.980859 0)"/>
    </g>
   </g>
   <g id="text_2">
    <!-- $g_1(x)$ -->
    <g transform="translate(211.12 203.997987) scale(0.14 -0.14)">
     <defs>
      <path id="Cmr10-31" d="M 594 0 
L 594 225 
Q 1394 225 1394 428 
L 1394 3788 
Q 1063 3628 556 3628 
L 556 3853 
Q 1341 3853 1741 4263 
L 1831 4263 
Q 1853 4263 1873 4245 
Q 1894 4228 1894 4206 
L 1894 428 
Q 1894 225 2694 225 
L 2694 0 
L 594 0 
z
" transform="scale(0.015625)"/>
     </defs>
     <use xlink:href="#Cmmi10-67"/>
     <use xlink:href="#Cmr10-31" transform="translate(47.705078 -17.00625) scale(0.7)"/>
     <use xlink:href="#Cmr10-28" transform="translate(89.082422 0)"/>
     <use xlink:href="#Cmmi10-78" transform="translate(127.900781 0)"/>
     <use xlink:href="#Cmr10-29" transform="translate(184.980859 0)"/>
    </g>
   </g>
  </g>
 </g>
 <defs>
  <clipPath id="p99de147bc6">
   <rect x="7.2" y="8.037836" width="439.2" height="320.432538"/>
  </clipPath>
 </defs>
</svg>
