<?xml version="1.0" encoding="utf-8" standalone="no"?>
<!DOCTYPE svg PUBLIC "-//W3C//DTD SVG 1.1//EN"
  "http://www.w3.org/Graphics/SVG/1.1/DTD/svg11.dtd">
<svg xmlns:xlink="http://www.w3.org/1999/xlink" width="451.037288pt" height="282.094207pt" viewBox="0 0 451.037288 282.094207" xmlns="http://www.w3.org/2000/svg" version="1.1">
 <metadata>
  <rdf:RDF xmlns:dc="http://purl.org/dc/elements/1.1/" xmlns:cc="http://creativecommons.org/ns#" xmlns:rdf="http://www.w3.org/1999/02/22-rdf-syntax-ns#">
   <cc:Work>
    <dc:type rdf:resource="http://purl.org/dc/dcmitype/StillImage"/>
    <dc:date>2025-02-16T23:30:34.307577</dc:date>
    <dc:format>image/svg+xml</dc:format>
    <dc:creator>
     <cc:Agent>
      <dc:title>Matplotlib v3.6.3, https://matplotlib.org/</dc:title>
     </cc:Agent>
    </dc:creator>
   </cc:Work>
  </rdf:RDF>
 </metadata>
 <defs>
  <style type="text/css">*{stroke-linejoin: round; stroke-linecap: butt}</style>
 </defs>
 <g id="figure_1">
  <g id="patch_1">
   <path d="M -0 282.094207 
L 451.037288 282.094207 
L 451.037288 0 
L -0 0 
z
" style="fill: #ffffff"/>
  </g>
  <g id="axes_1">
   <g id="patch_2">
    <path d="M 14.920054 274.894207 
L 436.117233 274.894207 
L 436.117233 7.2 
L 14.920054 7.2 
z
" style="fill: #ffffff"/>
   </g>
   <g id="matplotlib.axis_1"/>
   <g id="matplotlib.axis_2"/>
   <g id="line2d_1">
    <path d="M 229.559617 269.746242 
L 215.893641 264.87577 
L 198.912974 258.543013 
L 185.648548 253.348031 
L 174.073398 248.609838 
L 161.247159 243.102913 
L 149.835648 237.940648 
L 139.252352 232.894089 
L 130.143722 228.317359 
L 121.347244 223.657151 
L 113.437615 219.229953 
L 105.788152 214.695667 
L 98.820792 210.307862 
L 92.247292 205.896481 
L 86.965973 202.121862 
L 82.383994 198.647024 
L 77.138481 194.391811 
L 73.473727 191.205175 
L 68.706865 186.728801 
L 65.221234 183.155448 
L 61.636838 179.132787 
L 58.546208 175.286911 
L 56.973809 173.153948 
L 53.992394 168.660939 
L 52.191445 165.550973 
L 50.577197 162.381542 
L 49.111445 159.026021 
L 47.672966 154.967563 
L 46.766003 151.63734 
L 46.308454 149.471706 
L 45.966128 147.384675 
L 45.609701 143.890797 
L 45.520442 140.816149 
L 45.662707 137.461418 
L 46.070565 134.00693 
L 46.755414 130.501958 
L 47.805979 126.703105 
L 49.394349 122.373522 
L 50.40769 120.073246 
L 52.420371 116.126373 
L 54.610541 112.443664 
L 57.10263 108.760214 
L 59.920342 105.046608 
L 63.53252 100.783851 
L 67.852016 96.215401 
L 71.224662 92.949103 
L 75.825501 88.821723 
L 80.789139 84.706933 
L 85.96566 80.713874 
L 92.691332 75.890331 
L 98.178002 72.205242 
L 106.513299 66.956796 
L 113.032855 63.09757 
L 119.451879 59.476042 
L 128.227801 54.770422 
L 136.785197 50.416941 
L 146.872865 45.539458 
L 158.603108 40.163878 
L 168.772503 35.725384 
L 181.066078 30.597663 
L 194.273155 25.341841 
L 203.917224 21.65 
L 220.31497 15.622004 
L 229.559617 12.347966 
L 229.559617 12.347966 
" clip-path="url(#pad08b27f53)" style="fill: none; stroke: #0000ff; stroke-width: 2; stroke-linecap: square"/>
   </g>
   <g id="line2d_2">
    <path d="M 229.538333 268.917917 
L 231.54956 265.850515 
L 233.395641 263.450558 
L 235.742807 260.759818 
L 238.504037 257.944216 
L 242.191185 254.585451 
L 246.547174 251.023374 
L 251.336272 247.460465 
L 256.170262 244.134613 
L 261.454811 240.729579 
L 268.172586 236.660763 
L 276.254875 232.047058 
L 283.051234 228.340335 
L 296.826365 221.146829 
L 315.852776 211.565097 
L 337.854088 200.446496 
L 348.468494 194.865022 
L 356.362033 190.535206 
L 365.02396 185.522508 
L 371.575256 181.474855 
L 376.815328 178.016703 
L 382.112234 174.248535 
L 387.084497 170.363439 
L 391.15348 166.821877 
L 394.359853 163.692623 
L 397.418902 160.283327 
L 399.480494 157.622786 
L 400.761644 155.741359 
L 402.019558 153.634155 
L 403.48377 150.631528 
L 404.109277 149.017849 
L 404.934124 146.17325 
L 405.389493 143.44687 
L 405.517308 140.970637 
L 405.431282 139.077933 
L 405.174018 137.114719 
L 404.575525 134.530974 
L 403.697905 131.983118 
L 402.256634 128.896798 
L 400.331304 125.696178 
L 398.910362 123.696969 
L 396.555565 120.794742 
L 393.545644 117.571298 
L 391.049283 115.17636 
L 386.953581 111.622985 
L 382.703937 108.287884 
L 378.230773 105.054 
L 373.867109 102.103874 
L 367.874909 98.300919 
L 359.199636 93.166166 
L 350.932754 88.561198 
L 342.015666 83.809839 
L 327.934 76.589584 
L 287.874923 56.313083 
L 278.125127 51.080721 
L 268.785315 45.7928 
L 260.640747 40.853307 
L 255.340487 37.404699 
L 249.640211 33.406879 
L 244.685644 29.592785 
L 240.871485 26.349615 
L 237.36526 23.026286 
L 234.620818 20.089409 
L 232.124341 17.024682 
L 230.252483 14.336375 
L 229.538333 13.176291 
L 229.538333 13.176291 
" clip-path="url(#pad08b27f53)" style="fill: none; stroke: #0000ff; stroke-width: 2; stroke-linecap: square"/>
   </g>
   <g id="text_1">
    <!-- $h_1(y)$ -->
    <g transform="translate(7.2 144.547104) scale(0.14 -0.14)">
     <defs>
      <path id="Cmmi10-68" d="M 341 116 
Q 341 153 347 172 
L 1275 3872 
Q 1300 3981 1306 4044 
Q 1306 4147 891 4147 
Q 825 4147 825 4231 
Q 828 4247 839 4287 
Q 850 4328 867 4350 
Q 884 4372 916 4372 
L 1778 4441 
L 1797 4441 
Q 1797 4434 1819 4423 
Q 1841 4413 1844 4409 
Q 1856 4378 1856 4359 
L 1356 2363 
Q 1750 2828 2291 2828 
Q 2516 2828 2680 2750 
Q 2844 2672 2936 2514 
Q 3028 2356 3028 2138 
Q 3028 1875 2911 1503 
Q 2794 1131 2619 672 
Q 2528 463 2528 288 
Q 2528 97 2675 97 
Q 2925 97 3092 364 
Q 3259 631 3328 941 
Q 3341 978 3378 978 
L 3456 978 
Q 3481 978 3497 961 
Q 3513 944 3513 922 
Q 3513 916 3506 903 
Q 3450 672 3339 448 
Q 3228 225 3059 76 
Q 2891 -72 2663 -72 
Q 2438 -72 2278 83 
Q 2119 238 2119 459 
Q 2119 578 2169 709 
Q 2350 1191 2470 1569 
Q 2591 1947 2591 2234 
Q 2591 2419 2519 2541 
Q 2447 2663 2278 2663 
Q 1934 2663 1678 2452 
Q 1422 2241 1234 1894 
L 800 147 
Q 775 50 703 -11 
Q 631 -72 538 -72 
Q 456 -72 398 -17 
Q 341 38 341 116 
z
" transform="scale(0.015625)"/>
      <path id="Cmr10-31" d="M 594 0 
L 594 225 
Q 1394 225 1394 428 
L 1394 3788 
Q 1063 3628 556 3628 
L 556 3853 
Q 1341 3853 1741 4263 
L 1831 4263 
Q 1853 4263 1873 4245 
Q 1894 4228 1894 4206 
L 1894 428 
Q 1894 225 2694 225 
L 2694 0 
L 594 0 
z
" transform="scale(0.015625)"/>
      <path id="Cmr10-28" d="M 1984 -1588 
Q 1628 -1306 1370 -942 
Q 1113 -578 948 -165 
Q 784 247 703 697 
Q 622 1147 622 1600 
Q 622 2059 703 2509 
Q 784 2959 951 3375 
Q 1119 3791 1378 4153 
Q 1638 4516 1984 4788 
Q 1984 4800 2016 4800 
L 2075 4800 
Q 2094 4800 2109 4783 
Q 2125 4766 2125 4744 
Q 2125 4716 2113 4703 
Q 1800 4397 1592 4047 
Q 1384 3697 1257 3301 
Q 1131 2906 1075 2482 
Q 1019 2059 1019 1600 
Q 1019 -434 2106 -1491 
Q 2125 -1509 2125 -1544 
Q 2125 -1559 2108 -1579 
Q 2091 -1600 2075 -1600 
L 2016 -1600 
Q 1984 -1600 1984 -1588 
z
" transform="scale(0.015625)"/>
      <path id="Cmmi10-79" d="M 538 -916 
Q 672 -1147 1006 -1147 
Q 1309 -1147 1531 -934 
Q 1753 -722 1889 -420 
Q 2025 -119 2100 197 
Q 1816 -72 1484 -72 
Q 1231 -72 1053 15 
Q 875 103 776 276 
Q 678 450 678 697 
Q 678 906 734 1126 
Q 791 1347 892 1617 
Q 994 1888 1069 2088 
Q 1153 2322 1153 2472 
Q 1153 2663 1013 2663 
Q 759 2663 595 2402 
Q 431 2141 353 1819 
Q 341 1778 300 1778 
L 225 1778 
Q 172 1778 172 1838 
L 172 1856 
Q 275 2238 487 2533 
Q 700 2828 1025 2828 
Q 1253 2828 1411 2678 
Q 1569 2528 1569 2297 
Q 1569 2178 1516 2047 
Q 1488 1969 1388 1706 
Q 1288 1444 1234 1272 
Q 1181 1100 1147 934 
Q 1113 769 1113 603 
Q 1113 391 1203 244 
Q 1294 97 1491 97 
Q 1888 97 2203 581 
L 2688 2553 
Q 2709 2638 2787 2698 
Q 2866 2759 2956 2759 
Q 3034 2759 3092 2709 
Q 3150 2659 3150 2578 
Q 3150 2541 3144 2528 
L 2509 -19 
Q 2425 -347 2200 -647 
Q 1975 -947 1658 -1130 
Q 1341 -1313 997 -1313 
Q 831 -1313 668 -1248 
Q 506 -1184 406 -1056 
Q 306 -928 306 -756 
Q 306 -581 409 -453 
Q 513 -325 684 -325 
Q 788 -325 858 -389 
Q 928 -453 928 -556 
Q 928 -703 818 -812 
Q 709 -922 563 -922 
Q 556 -919 550 -917 
Q 544 -916 538 -916 
z
" transform="scale(0.015625)"/>
      <path id="Cmr10-29" d="M 416 -1600 
Q 359 -1600 359 -1544 
Q 359 -1516 372 -1503 
Q 1466 -434 1466 1600 
Q 1466 3634 384 4691 
Q 359 4706 359 4744 
Q 359 4766 376 4783 
Q 394 4800 416 4800 
L 475 4800 
Q 494 4800 506 4788 
Q 966 4425 1272 3906 
Q 1578 3388 1720 2800 
Q 1863 2213 1863 1600 
Q 1863 1147 1786 708 
Q 1709 269 1542 -157 
Q 1375 -584 1119 -945 
Q 863 -1306 506 -1588 
Q 494 -1600 475 -1600 
L 416 -1600 
z
" transform="scale(0.015625)"/>
     </defs>
     <use xlink:href="#Cmmi10-68"/>
     <use xlink:href="#Cmr10-31" transform="translate(57.617188 -17.00625) scale(0.7)"/>
     <use xlink:href="#Cmr10-28" transform="translate(98.994531 0)"/>
     <use xlink:href="#Cmmi10-79" transform="translate(137.812891 0)"/>
     <use xlink:href="#Cmr10-29" transform="translate(186.836328 0)"/>
    </g>
   </g>
   <g id="text_2">
    <!-- $h_2(y)$ -->
    <g transform="translate(412.197288 144.547104) scale(0.14 -0.14)">
     <defs>
      <path id="Cmr10-32" d="M 319 0 
L 319 172 
Q 319 188 331 206 
L 1325 1306 
Q 1550 1550 1690 1715 
Q 1831 1881 1968 2097 
Q 2106 2313 2186 2536 
Q 2266 2759 2266 3009 
Q 2266 3272 2169 3511 
Q 2072 3750 1880 3894 
Q 1688 4038 1416 4038 
Q 1138 4038 916 3870 
Q 694 3703 603 3438 
Q 628 3444 672 3444 
Q 816 3444 917 3347 
Q 1019 3250 1019 3097 
Q 1019 2950 917 2848 
Q 816 2747 672 2747 
Q 522 2747 420 2851 
Q 319 2956 319 3097 
Q 319 3338 409 3548 
Q 500 3759 670 3923 
Q 841 4088 1055 4175 
Q 1269 4263 1509 4263 
Q 1875 4263 2190 4108 
Q 2506 3953 2690 3670 
Q 2875 3388 2875 3009 
Q 2875 2731 2753 2481 
Q 2631 2231 2440 2026 
Q 2250 1822 1953 1562 
Q 1656 1303 1563 1216 
L 838 519 
L 1453 519 
Q 1906 519 2211 526 
Q 2516 534 2534 550 
Q 2609 631 2688 1141 
L 2875 1141 
L 2694 0 
L 319 0 
z
" transform="scale(0.015625)"/>
     </defs>
     <use xlink:href="#Cmmi10-68"/>
     <use xlink:href="#Cmr10-32" transform="translate(57.617188 -17.00625) scale(0.7)"/>
     <use xlink:href="#Cmr10-28" transform="translate(98.994531 0)"/>
     <use xlink:href="#Cmmi10-79" transform="translate(137.812891 0)"/>
     <use xlink:href="#Cmr10-29" transform="translate(186.836328 0)"/>
    </g>
   </g>
  </g>
 </g>
 <defs>
  <clipPath id="pad08b27f53">
   <rect x="14.920054" y="7.2" width="421.197179" height="267.694207"/>
  </clipPath>
 </defs>
</svg>
