<?xml version="1.0" encoding="utf-8" standalone="no"?>
<!DOCTYPE svg PUBLIC "-//W3C//DTD SVG 1.1//EN"
  "http://www.w3.org/Graphics/SVG/1.1/DTD/svg11.dtd">
<svg xmlns:xlink="http://www.w3.org/1999/xlink" width="345.089252pt" height="337.378293pt" viewBox="0 0 345.089252 337.378293" xmlns="http://www.w3.org/2000/svg" version="1.1">
 <metadata>
  <rdf:RDF xmlns:dc="http://purl.org/dc/elements/1.1/" xmlns:cc="http://creativecommons.org/ns#" xmlns:rdf="http://www.w3.org/1999/02/22-rdf-syntax-ns#">
   <cc:Work>
    <dc:type rdf:resource="http://purl.org/dc/dcmitype/StillImage"/>
    <dc:date>2025-04-10T13:12:55.840728</dc:date>
    <dc:format>image/svg+xml</dc:format>
    <dc:creator>
     <cc:Agent>
      <dc:title>Matplotlib v3.6.3, https://matplotlib.org/</dc:title>
     </cc:Agent>
    </dc:creator>
   </cc:Work>
  </rdf:RDF>
 </metadata>
 <defs>
  <style type="text/css">*{stroke-linejoin: round; stroke-linecap: butt}</style>
 </defs>
 <g id="figure_1">
  <g id="patch_1">
   <path d="M 0 337.378293 
L 345.089252 337.378293 
L 345.089252 0 
L 0 0 
z
" style="fill: #ffffff"/>
  </g>
  <g id="axes_1">
   <g id="patch_2">
    <path d="M 13.129486 330.178293 
L 336.149321 330.178293 
L 336.149321 7.2 
L 13.129486 7.2 
z
" style="fill: #ffffff"/>
   </g>
   <g id="matplotlib.axis_1">
    <g id="xtick_1">
     <g id="line2d_1">
      <defs>
       <path id="mf15c76403d" d="M 0 0 
L 0 3.5 
" style="stroke: #000000; stroke-width: 0.8"/>
      </defs>
      <g>
       <use xlink:href="#mf15c76403d" x="19.341406" y="168.692388" style="stroke: #000000; stroke-width: 0.8"/>
      </g>
     </g>
     <g id="text_1">
      <!-- −1.0 -->
      <g transform="translate(7.2 183.290826) scale(0.1 -0.1)">
       <defs>
        <path id="DejaVuSans-2212" d="M 678 2272 
L 4684 2272 
L 4684 1741 
L 678 1741 
L 678 2272 
z
" transform="scale(0.015625)"/>
        <path id="DejaVuSans-31" d="M 794 531 
L 1825 531 
L 1825 4091 
L 703 3866 
L 703 4441 
L 1819 4666 
L 2450 4666 
L 2450 531 
L 3481 531 
L 3481 0 
L 794 0 
L 794 531 
z
" transform="scale(0.015625)"/>
        <path id="DejaVuSans-2e" d="M 684 794 
L 1344 794 
L 1344 0 
L 684 0 
L 684 794 
z
" transform="scale(0.015625)"/>
        <path id="DejaVuSans-30" d="M 2034 4250 
Q 1547 4250 1301 3770 
Q 1056 3291 1056 2328 
Q 1056 1369 1301 889 
Q 1547 409 2034 409 
Q 2525 409 2770 889 
Q 3016 1369 3016 2328 
Q 3016 3291 2770 3770 
Q 2525 4250 2034 4250 
z
M 2034 4750 
Q 2819 4750 3233 4129 
Q 3647 3509 3647 2328 
Q 3647 1150 3233 529 
Q 2819 -91 2034 -91 
Q 1250 -91 836 529 
Q 422 1150 422 2328 
Q 422 3509 836 4129 
Q 1250 4750 2034 4750 
z
" transform="scale(0.015625)"/>
       </defs>
       <use xlink:href="#DejaVuSans-2212"/>
       <use xlink:href="#DejaVuSans-31" x="83.789062"/>
       <use xlink:href="#DejaVuSans-2e" x="147.412109"/>
       <use xlink:href="#DejaVuSans-30" x="179.199219"/>
      </g>
     </g>
    </g>
    <g id="xtick_2">
     <g id="line2d_2">
      <g>
       <use xlink:href="#mf15c76403d" x="96.990477" y="168.692388" style="stroke: #000000; stroke-width: 0.8"/>
      </g>
     </g>
     <g id="text_2">
      <!-- −0.5 -->
      <g transform="translate(84.849071 183.290826) scale(0.1 -0.1)">
       <defs>
        <path id="DejaVuSans-35" d="M 691 4666 
L 3169 4666 
L 3169 4134 
L 1269 4134 
L 1269 2991 
Q 1406 3038 1543 3061 
Q 1681 3084 1819 3084 
Q 2600 3084 3056 2656 
Q 3513 2228 3513 1497 
Q 3513 744 3044 326 
Q 2575 -91 1722 -91 
Q 1428 -91 1123 -41 
Q 819 9 494 109 
L 494 744 
Q 775 591 1075 516 
Q 1375 441 1709 441 
Q 2250 441 2565 725 
Q 2881 1009 2881 1497 
Q 2881 1984 2565 2268 
Q 2250 2553 1709 2553 
Q 1456 2553 1204 2497 
Q 953 2441 691 2322 
L 691 4666 
z
" transform="scale(0.015625)"/>
       </defs>
       <use xlink:href="#DejaVuSans-2212"/>
       <use xlink:href="#DejaVuSans-30" x="83.789062"/>
       <use xlink:href="#DejaVuSans-2e" x="147.412109"/>
       <use xlink:href="#DejaVuSans-35" x="179.199219"/>
      </g>
     </g>
    </g>
    <g id="xtick_3">
     <g id="line2d_3">
      <g>
       <use xlink:href="#mf15c76403d" x="174.639548" y="168.692388" style="stroke: #000000; stroke-width: 0.8"/>
      </g>
     </g>
    </g>
    <g id="xtick_4">
     <g id="line2d_4">
      <g>
       <use xlink:href="#mf15c76403d" x="252.288619" y="168.692388" style="stroke: #000000; stroke-width: 0.8"/>
      </g>
     </g>
     <g id="text_3">
      <!-- 0.5 -->
      <g transform="translate(244.337056 183.290826) scale(0.1 -0.1)">
       <use xlink:href="#DejaVuSans-30"/>
       <use xlink:href="#DejaVuSans-2e" x="63.623047"/>
       <use xlink:href="#DejaVuSans-35" x="95.410156"/>
      </g>
     </g>
    </g>
    <g id="xtick_5">
     <g id="line2d_5">
      <g>
       <use xlink:href="#mf15c76403d" x="329.93769" y="168.692388" style="stroke: #000000; stroke-width: 0.8"/>
      </g>
     </g>
     <g id="text_4">
      <!-- 1.0 -->
      <g transform="translate(321.986127 183.290826) scale(0.1 -0.1)">
       <use xlink:href="#DejaVuSans-31"/>
       <use xlink:href="#DejaVuSans-2e" x="63.623047"/>
       <use xlink:href="#DejaVuSans-30" x="95.410156"/>
      </g>
     </g>
    </g>
    <g id="xtick_6">
     <g id="line2d_6">
      <defs>
       <path id="m8e510e485f" d="M 0 0 
L 0 2 
" style="stroke: #000000; stroke-width: 0.6"/>
      </defs>
      <g>
       <use xlink:href="#m8e510e485f" x="34.87122" y="168.692388" style="stroke: #000000; stroke-width: 0.6"/>
      </g>
     </g>
    </g>
    <g id="xtick_7">
     <g id="line2d_7">
      <g>
       <use xlink:href="#m8e510e485f" x="50.401035" y="168.692388" style="stroke: #000000; stroke-width: 0.6"/>
      </g>
     </g>
    </g>
    <g id="xtick_8">
     <g id="line2d_8">
      <g>
       <use xlink:href="#m8e510e485f" x="65.930849" y="168.692388" style="stroke: #000000; stroke-width: 0.6"/>
      </g>
     </g>
    </g>
    <g id="xtick_9">
     <g id="line2d_9">
      <g>
       <use xlink:href="#m8e510e485f" x="81.460663" y="168.692388" style="stroke: #000000; stroke-width: 0.6"/>
      </g>
     </g>
    </g>
    <g id="xtick_10">
     <g id="line2d_10">
      <g>
       <use xlink:href="#m8e510e485f" x="112.520291" y="168.692388" style="stroke: #000000; stroke-width: 0.6"/>
      </g>
     </g>
    </g>
    <g id="xtick_11">
     <g id="line2d_11">
      <g>
       <use xlink:href="#m8e510e485f" x="128.050106" y="168.692388" style="stroke: #000000; stroke-width: 0.6"/>
      </g>
     </g>
    </g>
    <g id="xtick_12">
     <g id="line2d_12">
      <g>
       <use xlink:href="#m8e510e485f" x="143.57992" y="168.692388" style="stroke: #000000; stroke-width: 0.6"/>
      </g>
     </g>
    </g>
    <g id="xtick_13">
     <g id="line2d_13">
      <g>
       <use xlink:href="#m8e510e485f" x="159.109734" y="168.692388" style="stroke: #000000; stroke-width: 0.6"/>
      </g>
     </g>
    </g>
    <g id="xtick_14">
     <g id="line2d_14">
      <g>
       <use xlink:href="#m8e510e485f" x="190.169362" y="168.692388" style="stroke: #000000; stroke-width: 0.6"/>
      </g>
     </g>
    </g>
    <g id="xtick_15">
     <g id="line2d_15">
      <g>
       <use xlink:href="#m8e510e485f" x="205.699176" y="168.692388" style="stroke: #000000; stroke-width: 0.6"/>
      </g>
     </g>
    </g>
    <g id="xtick_16">
     <g id="line2d_16">
      <g>
       <use xlink:href="#m8e510e485f" x="221.228991" y="168.692388" style="stroke: #000000; stroke-width: 0.6"/>
      </g>
     </g>
    </g>
    <g id="xtick_17">
     <g id="line2d_17">
      <g>
       <use xlink:href="#m8e510e485f" x="236.758805" y="168.692388" style="stroke: #000000; stroke-width: 0.6"/>
      </g>
     </g>
    </g>
    <g id="xtick_18">
     <g id="line2d_18">
      <g>
       <use xlink:href="#m8e510e485f" x="267.818433" y="168.692388" style="stroke: #000000; stroke-width: 0.6"/>
      </g>
     </g>
    </g>
    <g id="xtick_19">
     <g id="line2d_19">
      <g>
       <use xlink:href="#m8e510e485f" x="283.348247" y="168.692388" style="stroke: #000000; stroke-width: 0.6"/>
      </g>
     </g>
    </g>
    <g id="xtick_20">
     <g id="line2d_20">
      <g>
       <use xlink:href="#m8e510e485f" x="298.878062" y="168.692388" style="stroke: #000000; stroke-width: 0.6"/>
      </g>
     </g>
    </g>
    <g id="xtick_21">
     <g id="line2d_21">
      <g>
       <use xlink:href="#m8e510e485f" x="314.407876" y="168.692388" style="stroke: #000000; stroke-width: 0.6"/>
      </g>
     </g>
    </g>
   </g>
   <g id="matplotlib.axis_2">
    <g id="ytick_1">
     <g id="line2d_22">
      <defs>
       <path id="m1c03e209cd" d="M 0 0 
L -3.5 0 
" style="stroke: #000000; stroke-width: 0.8"/>
      </defs>
      <g>
       <use xlink:href="#m1c03e209cd" x="174.639548" y="323.99053" style="stroke: #000000; stroke-width: 0.8"/>
      </g>
     </g>
     <g id="text_5">
      <!-- −1.0 -->
      <g transform="translate(143.356736 327.789749) scale(0.1 -0.1)">
       <use xlink:href="#DejaVuSans-2212"/>
       <use xlink:href="#DejaVuSans-31" x="83.789062"/>
       <use xlink:href="#DejaVuSans-2e" x="147.412109"/>
       <use xlink:href="#DejaVuSans-30" x="179.199219"/>
      </g>
     </g>
    </g>
    <g id="ytick_2">
     <g id="line2d_23">
      <g>
       <use xlink:href="#m1c03e209cd" x="174.639548" y="246.341459" style="stroke: #000000; stroke-width: 0.8"/>
      </g>
     </g>
     <g id="text_6">
      <!-- −0.5 -->
      <g transform="translate(143.356736 250.140678) scale(0.1 -0.1)">
       <use xlink:href="#DejaVuSans-2212"/>
       <use xlink:href="#DejaVuSans-30" x="83.789062"/>
       <use xlink:href="#DejaVuSans-2e" x="147.412109"/>
       <use xlink:href="#DejaVuSans-35" x="179.199219"/>
      </g>
     </g>
    </g>
    <g id="ytick_3">
     <g id="line2d_24">
      <g>
       <use xlink:href="#m1c03e209cd" x="174.639548" y="168.692388" style="stroke: #000000; stroke-width: 0.8"/>
      </g>
     </g>
    </g>
    <g id="ytick_4">
     <g id="line2d_25">
      <g>
       <use xlink:href="#m1c03e209cd" x="174.639548" y="91.043317" style="stroke: #000000; stroke-width: 0.8"/>
      </g>
     </g>
     <g id="text_7">
      <!-- 0.5 -->
      <g transform="translate(151.736423 94.842536) scale(0.1 -0.1)">
       <use xlink:href="#DejaVuSans-30"/>
       <use xlink:href="#DejaVuSans-2e" x="63.623047"/>
       <use xlink:href="#DejaVuSans-35" x="95.410156"/>
      </g>
     </g>
    </g>
    <g id="ytick_5">
     <g id="line2d_26">
      <g>
       <use xlink:href="#m1c03e209cd" x="174.639548" y="13.394246" style="stroke: #000000; stroke-width: 0.8"/>
      </g>
     </g>
     <g id="text_8">
      <!-- 1.0 -->
      <g transform="translate(151.736423 17.193465) scale(0.1 -0.1)">
       <use xlink:href="#DejaVuSans-31"/>
       <use xlink:href="#DejaVuSans-2e" x="63.623047"/>
       <use xlink:href="#DejaVuSans-30" x="95.410156"/>
      </g>
     </g>
    </g>
    <g id="ytick_6">
     <g id="line2d_27">
      <defs>
       <path id="m161759d2c4" d="M 0 0 
L -2 0 
" style="stroke: #000000; stroke-width: 0.6"/>
      </defs>
      <g>
       <use xlink:href="#m161759d2c4" x="174.639548" y="308.460716" style="stroke: #000000; stroke-width: 0.6"/>
      </g>
     </g>
    </g>
    <g id="ytick_7">
     <g id="line2d_28">
      <g>
       <use xlink:href="#m161759d2c4" x="174.639548" y="292.930902" style="stroke: #000000; stroke-width: 0.6"/>
      </g>
     </g>
    </g>
    <g id="ytick_8">
     <g id="line2d_29">
      <g>
       <use xlink:href="#m161759d2c4" x="174.639548" y="277.401088" style="stroke: #000000; stroke-width: 0.6"/>
      </g>
     </g>
    </g>
    <g id="ytick_9">
     <g id="line2d_30">
      <g>
       <use xlink:href="#m161759d2c4" x="174.639548" y="261.871273" style="stroke: #000000; stroke-width: 0.6"/>
      </g>
     </g>
    </g>
    <g id="ytick_10">
     <g id="line2d_31">
      <g>
       <use xlink:href="#m161759d2c4" x="174.639548" y="230.811645" style="stroke: #000000; stroke-width: 0.6"/>
      </g>
     </g>
    </g>
    <g id="ytick_11">
     <g id="line2d_32">
      <g>
       <use xlink:href="#m161759d2c4" x="174.639548" y="215.281831" style="stroke: #000000; stroke-width: 0.6"/>
      </g>
     </g>
    </g>
    <g id="ytick_12">
     <g id="line2d_33">
      <g>
       <use xlink:href="#m161759d2c4" x="174.639548" y="199.752017" style="stroke: #000000; stroke-width: 0.6"/>
      </g>
     </g>
    </g>
    <g id="ytick_13">
     <g id="line2d_34">
      <g>
       <use xlink:href="#m161759d2c4" x="174.639548" y="184.222202" style="stroke: #000000; stroke-width: 0.6"/>
      </g>
     </g>
    </g>
    <g id="ytick_14">
     <g id="line2d_35">
      <g>
       <use xlink:href="#m161759d2c4" x="174.639548" y="153.162574" style="stroke: #000000; stroke-width: 0.6"/>
      </g>
     </g>
    </g>
    <g id="ytick_15">
     <g id="line2d_36">
      <g>
       <use xlink:href="#m161759d2c4" x="174.639548" y="137.63276" style="stroke: #000000; stroke-width: 0.6"/>
      </g>
     </g>
    </g>
    <g id="ytick_16">
     <g id="line2d_37">
      <g>
       <use xlink:href="#m161759d2c4" x="174.639548" y="122.102946" style="stroke: #000000; stroke-width: 0.6"/>
      </g>
     </g>
    </g>
    <g id="ytick_17">
     <g id="line2d_38">
      <g>
       <use xlink:href="#m161759d2c4" x="174.639548" y="106.573132" style="stroke: #000000; stroke-width: 0.6"/>
      </g>
     </g>
    </g>
    <g id="ytick_18">
     <g id="line2d_39">
      <g>
       <use xlink:href="#m161759d2c4" x="174.639548" y="75.513503" style="stroke: #000000; stroke-width: 0.6"/>
      </g>
     </g>
    </g>
    <g id="ytick_19">
     <g id="line2d_40">
      <g>
       <use xlink:href="#m161759d2c4" x="174.639548" y="59.983689" style="stroke: #000000; stroke-width: 0.6"/>
      </g>
     </g>
    </g>
    <g id="ytick_20">
     <g id="line2d_41">
      <g>
       <use xlink:href="#m161759d2c4" x="174.639548" y="44.453875" style="stroke: #000000; stroke-width: 0.6"/>
      </g>
     </g>
    </g>
    <g id="ytick_21">
     <g id="line2d_42">
      <g>
       <use xlink:href="#m161759d2c4" x="174.639548" y="28.924061" style="stroke: #000000; stroke-width: 0.6"/>
      </g>
     </g>
    </g>
   </g>
   <g id="line2d_43">
    <path d="M 19.341406 168.692388 
L 19.455655 174.648229 
L 19.833703 181.048083 
L 20.37405 186.571676 
L 21.348869 193.581755 
L 22.494612 199.828079 
L 23.807173 205.666805 
L 25.563492 212.210689 
L 27.626478 218.739068 
L 29.326299 223.478998 
L 31.551541 229.052434 
L 33.623884 233.746945 
L 36.063098 238.79289 
L 38.238333 242.936723 
L 40.958343 247.729393 
L 44.756938 253.827694 
L 48.139829 258.777536 
L 50.904555 262.538882 
L 54.724795 267.373515 
L 58.060001 271.292204 
L 62.630069 276.262781 
L 67.045003 280.678667 
L 72.753262 285.896047 
L 77.503544 289.862143 
L 81.871545 293.238004 
L 86.110555 296.286002 
L 89.577609 298.62306 
L 95.399005 302.253045 
L 99.709672 304.718218 
L 105.305958 307.654132 
L 112.272271 310.916984 
L 115.204825 312.167217 
L 119.382465 313.827386 
L 123.388203 315.289839 
L 128.148029 316.868134 
L 135.212352 318.902272 
L 138.337368 319.687966 
L 143.280149 320.791372 
L 151.575281 322.268273 
L 157.70276 323.064206 
L 166.019299 323.7511 
L 168.931132 323.88558 
L 177.332946 323.967172 
L 180.463364 323.881293 
L 190.579296 323.170339 
L 194.178099 322.756524 
L 198.704668 322.114625 
L 203.772595 321.233459 
L 211.661074 319.513207 
L 218.651383 317.623484 
L 224.486589 315.773269 
L 230.900646 313.441142 
L 235.558058 311.543528 
L 240.846362 309.170752 
L 247.433119 305.873323 
L 252.931175 302.811492 
L 258.789776 299.215382 
L 264.480593 295.365588 
L 268.512848 292.407046 
L 273.745252 288.256481 
L 278.517921 284.134134 
L 283.197212 279.745288 
L 286.845202 276.058137 
L 290.518894 272.082378 
L 294.170135 267.838501 
L 297.783484 263.313125 
L 301.847491 257.774665 
L 304.980109 253.124911 
L 308.254411 247.841496 
L 311.058179 242.904718 
L 313.797014 237.632309 
L 316.129836 232.708099 
L 318.133529 228.080858 
L 319.9626 223.452989 
L 322.273234 216.877528 
L 323.84953 211.749259 
L 325.436209 205.812193 
L 326.54582 200.972374 
L 327.752249 194.654163 
L 328.469518 189.996219 
L 329.124104 184.567996 
L 329.646485 178.198305 
L 329.896172 172.283138 
L 329.921877 166.476277 
L 329.65663 159.353368 
L 329.096332 152.548818 
L 328.260971 145.933404 
L 327.181314 139.562979 
L 326.003591 133.95855 
L 324.284266 127.171654 
L 322.264213 120.479619 
L 320.500747 115.381757 
L 317.920678 108.792216 
L 315.449166 103.193041 
L 313.337128 98.831854 
L 310.317081 93.13367 
L 307.628649 88.496304 
L 305.178799 84.567381 
L 302.216252 80.139028 
L 298.174225 74.582365 
L 293.819495 69.125059 
L 289.929722 64.645818 
L 285.583563 60.023449 
L 281.514978 56.019608 
L 277.374279 52.231717 
L 272.403308 48.028558 
L 266.292072 43.323621 
L 262.151502 40.399089 
L 256.589599 36.776878 
L 250.398221 33.126403 
L 244.631911 30.061288 
L 240.82985 28.206244 
L 233.654595 25.044426 
L 225.775955 22.054805 
L 219.688125 20.071601 
L 212.588611 18.102277 
L 206.205909 16.636222 
L 199.378602 15.377379 
L 194.154305 14.625237 
L 189.768117 14.132888 
L 184.846178 13.730014 
L 176.928851 13.411121 
L 167.632798 13.552392 
L 158.507238 14.234428 
L 152.437632 14.989468 
L 144.84715 16.278721 
L 141.245659 17.027096 
L 136.954583 18.03597 
L 132.324628 19.2703 
L 124.40812 21.742341 
L 119.888002 23.365925 
L 112.21581 26.492565 
L 106.887234 28.952856 
L 102.369353 31.235007 
L 96.346841 34.573915 
L 91.504486 37.520462 
L 86.634158 40.737067 
L 82.887381 43.396527 
L 78.581702 46.666149 
L 75.442134 49.204372 
L 70.265352 53.698736 
L 65.387648 58.322396 
L 61.106865 62.730873 
L 56.691629 67.668623 
L 52.980579 72.16981 
L 50.039954 75.996898 
L 46.438461 81.045402 
L 42.616455 86.915767 
L 39.845423 91.568742 
L 37.136526 96.509068 
L 34.237018 102.324907 
L 31.314534 108.897295 
L 29.106256 114.492999 
L 27.424678 119.242466 
L 25.661988 124.838092 
L 24.271799 129.871609 
L 23.121099 134.638424 
L 21.728861 141.566117 
L 20.782323 147.586296 
L 20.104393 153.31713 
L 19.655515 158.820087 
L 19.383541 165.075065 
L 19.341406 168.692388 
L 19.341406 168.692388 
" clip-path="url(#p7e807a3388)" style="fill: none; stroke: #0000ff; stroke-linecap: square"/>
   </g>
   <g id="patch_3">
    <path d="M 174.639548 330.178293 
L 174.639548 7.2 
" style="fill: none; stroke: #000000; stroke-width: 0.8; stroke-linejoin: miter; stroke-linecap: square"/>
   </g>
   <g id="patch_4">
    <path d="M 13.129486 168.692388 
L 336.149321 168.692388 
" style="fill: none; stroke: #000000; stroke-width: 0.8; stroke-linejoin: miter; stroke-linecap: square"/>
   </g>
  </g>
 </g>
 <defs>
  <clipPath id="p7e807a3388">
   <rect x="13.129486" y="7.2" width="323.019835" height="322.978293"/>
  </clipPath>
 </defs>
</svg>
