<?xml version="1.0" encoding="utf-8" standalone="no"?>
<!DOCTYPE svg PUBLIC "-//W3C//DTD SVG 1.1//EN"
  "http://www.w3.org/Graphics/SVG/1.1/DTD/svg11.dtd">
<svg xmlns:xlink="http://www.w3.org/1999/xlink" width="241.547436pt" height="337.378355pt" viewBox="0 0 241.547436 337.378355" xmlns="http://www.w3.org/2000/svg" version="1.1">
 <metadata>
  <rdf:RDF xmlns:dc="http://purl.org/dc/elements/1.1/" xmlns:cc="http://creativecommons.org/ns#" xmlns:rdf="http://www.w3.org/1999/02/22-rdf-syntax-ns#">
   <cc:Work>
    <dc:type rdf:resource="http://purl.org/dc/dcmitype/StillImage"/>
    <dc:date>2025-03-23T17:35:20.416811</dc:date>
    <dc:format>image/svg+xml</dc:format>
    <dc:creator>
     <cc:Agent>
      <dc:title>Matplotlib v3.6.3, https://matplotlib.org/</dc:title>
     </cc:Agent>
    </dc:creator>
   </cc:Work>
  </rdf:RDF>
 </metadata>
 <defs>
  <style type="text/css">*{stroke-linejoin: round; stroke-linecap: butt}</style>
 </defs>
 <g id="figure_1">
  <g id="patch_1">
   <path d="M 0 337.378355 
L 241.547436 337.378355 
L 241.547436 0 
L 0 0 
z
" style="fill: #ffffff"/>
  </g>
  <g id="axes_1">
   <g id="patch_2">
    <path d="M 15.200441 330.178355 
L 230.53696 330.178355 
L 230.53696 7.2 
L 15.200441 7.2 
z
" style="fill: #ffffff"/>
   </g>
   <g id="matplotlib.axis_1">
    <g id="xtick_1">
     <g id="line2d_1">
      <defs>
       <path id="mf9e6e03d06" d="M 0 0 
L 0 3.5 
" style="stroke: #000000; stroke-width: 0.8"/>
      </defs>
      <g>
       <use xlink:href="#mf9e6e03d06" x="19.341406" y="168.699665" style="stroke: #000000; stroke-width: 0.8"/>
      </g>
     </g>
     <g id="text_1">
      <!-- −2.0 -->
      <g transform="translate(7.2 183.298103) scale(0.1 -0.1)">
       <defs>
        <path id="DejaVuSans-2212" d="M 678 2272 
L 4684 2272 
L 4684 1741 
L 678 1741 
L 678 2272 
z
" transform="scale(0.015625)"/>
        <path id="DejaVuSans-32" d="M 1228 531 
L 3431 531 
L 3431 0 
L 469 0 
L 469 531 
Q 828 903 1448 1529 
Q 2069 2156 2228 2338 
Q 2531 2678 2651 2914 
Q 2772 3150 2772 3378 
Q 2772 3750 2511 3984 
Q 2250 4219 1831 4219 
Q 1534 4219 1204 4116 
Q 875 4013 500 3803 
L 500 4441 
Q 881 4594 1212 4672 
Q 1544 4750 1819 4750 
Q 2544 4750 2975 4387 
Q 3406 4025 3406 3419 
Q 3406 3131 3298 2873 
Q 3191 2616 2906 2266 
Q 2828 2175 2409 1742 
Q 1991 1309 1228 531 
z
" transform="scale(0.015625)"/>
        <path id="DejaVuSans-2e" d="M 684 794 
L 1344 794 
L 1344 0 
L 684 0 
L 684 794 
z
" transform="scale(0.015625)"/>
        <path id="DejaVuSans-30" d="M 2034 4250 
Q 1547 4250 1301 3770 
Q 1056 3291 1056 2328 
Q 1056 1369 1301 889 
Q 1547 409 2034 409 
Q 2525 409 2770 889 
Q 3016 1369 3016 2328 
Q 3016 3291 2770 3770 
Q 2525 4250 2034 4250 
z
M 2034 4750 
Q 2819 4750 3233 4129 
Q 3647 3509 3647 2328 
Q 3647 1150 3233 529 
Q 2819 -91 2034 -91 
Q 1250 -91 836 529 
Q 422 1150 422 2328 
Q 422 3509 836 4129 
Q 1250 4750 2034 4750 
z
" transform="scale(0.015625)"/>
       </defs>
       <use xlink:href="#DejaVuSans-2212"/>
       <use xlink:href="#DejaVuSans-32" x="83.789062"/>
       <use xlink:href="#DejaVuSans-2e" x="147.412109"/>
       <use xlink:href="#DejaVuSans-30" x="179.199219"/>
      </g>
     </g>
    </g>
    <g id="xtick_2">
     <g id="line2d_2">
      <g>
       <use xlink:href="#mf9e6e03d06" x="45.223215" y="168.699665" style="stroke: #000000; stroke-width: 0.8"/>
      </g>
     </g>
     <g id="text_2">
      <!-- −1.5 -->
      <g transform="translate(33.081808 183.298103) scale(0.1 -0.1)">
       <defs>
        <path id="DejaVuSans-31" d="M 794 531 
L 1825 531 
L 1825 4091 
L 703 3866 
L 703 4441 
L 1819 4666 
L 2450 4666 
L 2450 531 
L 3481 531 
L 3481 0 
L 794 0 
L 794 531 
z
" transform="scale(0.015625)"/>
        <path id="DejaVuSans-35" d="M 691 4666 
L 3169 4666 
L 3169 4134 
L 1269 4134 
L 1269 2991 
Q 1406 3038 1543 3061 
Q 1681 3084 1819 3084 
Q 2600 3084 3056 2656 
Q 3513 2228 3513 1497 
Q 3513 744 3044 326 
Q 2575 -91 1722 -91 
Q 1428 -91 1123 -41 
Q 819 9 494 109 
L 494 744 
Q 775 591 1075 516 
Q 1375 441 1709 441 
Q 2250 441 2565 725 
Q 2881 1009 2881 1497 
Q 2881 1984 2565 2268 
Q 2250 2553 1709 2553 
Q 1456 2553 1204 2497 
Q 953 2441 691 2322 
L 691 4666 
z
" transform="scale(0.015625)"/>
       </defs>
       <use xlink:href="#DejaVuSans-2212"/>
       <use xlink:href="#DejaVuSans-31" x="83.789062"/>
       <use xlink:href="#DejaVuSans-2e" x="147.412109"/>
       <use xlink:href="#DejaVuSans-35" x="179.199219"/>
      </g>
     </g>
    </g>
    <g id="xtick_3">
     <g id="line2d_3">
      <g>
       <use xlink:href="#mf9e6e03d06" x="71.105023" y="168.699665" style="stroke: #000000; stroke-width: 0.8"/>
      </g>
     </g>
     <g id="text_3">
      <!-- −1.0 -->
      <g transform="translate(58.963617 183.298103) scale(0.1 -0.1)">
       <use xlink:href="#DejaVuSans-2212"/>
       <use xlink:href="#DejaVuSans-31" x="83.789062"/>
       <use xlink:href="#DejaVuSans-2e" x="147.412109"/>
       <use xlink:href="#DejaVuSans-30" x="179.199219"/>
      </g>
     </g>
    </g>
    <g id="xtick_4">
     <g id="line2d_4">
      <g>
       <use xlink:href="#mf9e6e03d06" x="96.986831" y="168.699665" style="stroke: #000000; stroke-width: 0.8"/>
      </g>
     </g>
     <g id="text_4">
      <!-- −0.5 -->
      <g transform="translate(84.845425 183.298103) scale(0.1 -0.1)">
       <use xlink:href="#DejaVuSans-2212"/>
       <use xlink:href="#DejaVuSans-30" x="83.789062"/>
       <use xlink:href="#DejaVuSans-2e" x="147.412109"/>
       <use xlink:href="#DejaVuSans-35" x="179.199219"/>
      </g>
     </g>
    </g>
    <g id="xtick_5">
     <g id="line2d_5">
      <g>
       <use xlink:href="#mf9e6e03d06" x="122.86864" y="168.699665" style="stroke: #000000; stroke-width: 0.8"/>
      </g>
     </g>
    </g>
    <g id="xtick_6">
     <g id="line2d_6">
      <g>
       <use xlink:href="#mf9e6e03d06" x="148.750448" y="168.699665" style="stroke: #000000; stroke-width: 0.8"/>
      </g>
     </g>
     <g id="text_5">
      <!-- 0.5 -->
      <g transform="translate(140.798886 183.298103) scale(0.1 -0.1)">
       <use xlink:href="#DejaVuSans-30"/>
       <use xlink:href="#DejaVuSans-2e" x="63.623047"/>
       <use xlink:href="#DejaVuSans-35" x="95.410156"/>
      </g>
     </g>
    </g>
    <g id="xtick_7">
     <g id="line2d_7">
      <g>
       <use xlink:href="#mf9e6e03d06" x="174.632256" y="168.699665" style="stroke: #000000; stroke-width: 0.8"/>
      </g>
     </g>
     <g id="text_6">
      <!-- 1.0 -->
      <g transform="translate(166.680694 183.298103) scale(0.1 -0.1)">
       <use xlink:href="#DejaVuSans-31"/>
       <use xlink:href="#DejaVuSans-2e" x="63.623047"/>
       <use xlink:href="#DejaVuSans-30" x="95.410156"/>
      </g>
     </g>
    </g>
    <g id="xtick_8">
     <g id="line2d_8">
      <g>
       <use xlink:href="#mf9e6e03d06" x="200.514065" y="168.699665" style="stroke: #000000; stroke-width: 0.8"/>
      </g>
     </g>
     <g id="text_7">
      <!-- 1.5 -->
      <g transform="translate(192.562502 183.298103) scale(0.1 -0.1)">
       <use xlink:href="#DejaVuSans-31"/>
       <use xlink:href="#DejaVuSans-2e" x="63.623047"/>
       <use xlink:href="#DejaVuSans-35" x="95.410156"/>
      </g>
     </g>
    </g>
    <g id="xtick_9">
     <g id="line2d_9">
      <g>
       <use xlink:href="#mf9e6e03d06" x="226.395873" y="168.699665" style="stroke: #000000; stroke-width: 0.8"/>
      </g>
     </g>
     <g id="text_8">
      <!-- 2.0 -->
      <g transform="translate(218.444311 183.298103) scale(0.1 -0.1)">
       <use xlink:href="#DejaVuSans-32"/>
       <use xlink:href="#DejaVuSans-2e" x="63.623047"/>
       <use xlink:href="#DejaVuSans-30" x="95.410156"/>
      </g>
     </g>
    </g>
    <g id="xtick_10">
     <g id="line2d_10">
      <defs>
       <path id="m605c16f5e1" d="M 0 0 
L 0 2 
" style="stroke: #000000; stroke-width: 0.6"/>
      </defs>
      <g>
       <use xlink:href="#m605c16f5e1" x="24.517768" y="168.699665" style="stroke: #000000; stroke-width: 0.6"/>
      </g>
     </g>
    </g>
    <g id="xtick_11">
     <g id="line2d_11">
      <g>
       <use xlink:href="#m605c16f5e1" x="29.69413" y="168.699665" style="stroke: #000000; stroke-width: 0.6"/>
      </g>
     </g>
    </g>
    <g id="xtick_12">
     <g id="line2d_12">
      <g>
       <use xlink:href="#m605c16f5e1" x="34.870491" y="168.699665" style="stroke: #000000; stroke-width: 0.6"/>
      </g>
     </g>
    </g>
    <g id="xtick_13">
     <g id="line2d_13">
      <g>
       <use xlink:href="#m605c16f5e1" x="40.046853" y="168.699665" style="stroke: #000000; stroke-width: 0.6"/>
      </g>
     </g>
    </g>
    <g id="xtick_14">
     <g id="line2d_14">
      <g>
       <use xlink:href="#m605c16f5e1" x="50.399576" y="168.699665" style="stroke: #000000; stroke-width: 0.6"/>
      </g>
     </g>
    </g>
    <g id="xtick_15">
     <g id="line2d_15">
      <g>
       <use xlink:href="#m605c16f5e1" x="55.575938" y="168.699665" style="stroke: #000000; stroke-width: 0.6"/>
      </g>
     </g>
    </g>
    <g id="xtick_16">
     <g id="line2d_16">
      <g>
       <use xlink:href="#m605c16f5e1" x="60.7523" y="168.699665" style="stroke: #000000; stroke-width: 0.6"/>
      </g>
     </g>
    </g>
    <g id="xtick_17">
     <g id="line2d_17">
      <g>
       <use xlink:href="#m605c16f5e1" x="65.928661" y="168.699665" style="stroke: #000000; stroke-width: 0.6"/>
      </g>
     </g>
    </g>
    <g id="xtick_18">
     <g id="line2d_18">
      <g>
       <use xlink:href="#m605c16f5e1" x="76.281385" y="168.699665" style="stroke: #000000; stroke-width: 0.6"/>
      </g>
     </g>
    </g>
    <g id="xtick_19">
     <g id="line2d_19">
      <g>
       <use xlink:href="#m605c16f5e1" x="81.457746" y="168.699665" style="stroke: #000000; stroke-width: 0.6"/>
      </g>
     </g>
    </g>
    <g id="xtick_20">
     <g id="line2d_20">
      <g>
       <use xlink:href="#m605c16f5e1" x="86.634108" y="168.699665" style="stroke: #000000; stroke-width: 0.6"/>
      </g>
     </g>
    </g>
    <g id="xtick_21">
     <g id="line2d_21">
      <g>
       <use xlink:href="#m605c16f5e1" x="91.81047" y="168.699665" style="stroke: #000000; stroke-width: 0.6"/>
      </g>
     </g>
    </g>
    <g id="xtick_22">
     <g id="line2d_22">
      <g>
       <use xlink:href="#m605c16f5e1" x="102.163193" y="168.699665" style="stroke: #000000; stroke-width: 0.6"/>
      </g>
     </g>
    </g>
    <g id="xtick_23">
     <g id="line2d_23">
      <g>
       <use xlink:href="#m605c16f5e1" x="107.339555" y="168.699665" style="stroke: #000000; stroke-width: 0.6"/>
      </g>
     </g>
    </g>
    <g id="xtick_24">
     <g id="line2d_24">
      <g>
       <use xlink:href="#m605c16f5e1" x="112.515916" y="168.699665" style="stroke: #000000; stroke-width: 0.6"/>
      </g>
     </g>
    </g>
    <g id="xtick_25">
     <g id="line2d_25">
      <g>
       <use xlink:href="#m605c16f5e1" x="117.692278" y="168.699665" style="stroke: #000000; stroke-width: 0.6"/>
      </g>
     </g>
    </g>
    <g id="xtick_26">
     <g id="line2d_26">
      <g>
       <use xlink:href="#m605c16f5e1" x="128.045001" y="168.699665" style="stroke: #000000; stroke-width: 0.6"/>
      </g>
     </g>
    </g>
    <g id="xtick_27">
     <g id="line2d_27">
      <g>
       <use xlink:href="#m605c16f5e1" x="133.221363" y="168.699665" style="stroke: #000000; stroke-width: 0.6"/>
      </g>
     </g>
    </g>
    <g id="xtick_28">
     <g id="line2d_28">
      <g>
       <use xlink:href="#m605c16f5e1" x="138.397725" y="168.699665" style="stroke: #000000; stroke-width: 0.6"/>
      </g>
     </g>
    </g>
    <g id="xtick_29">
     <g id="line2d_29">
      <g>
       <use xlink:href="#m605c16f5e1" x="143.574086" y="168.699665" style="stroke: #000000; stroke-width: 0.6"/>
      </g>
     </g>
    </g>
    <g id="xtick_30">
     <g id="line2d_30">
      <g>
       <use xlink:href="#m605c16f5e1" x="153.92681" y="168.699665" style="stroke: #000000; stroke-width: 0.6"/>
      </g>
     </g>
    </g>
    <g id="xtick_31">
     <g id="line2d_31">
      <g>
       <use xlink:href="#m605c16f5e1" x="159.103171" y="168.699665" style="stroke: #000000; stroke-width: 0.6"/>
      </g>
     </g>
    </g>
    <g id="xtick_32">
     <g id="line2d_32">
      <g>
       <use xlink:href="#m605c16f5e1" x="164.279533" y="168.699665" style="stroke: #000000; stroke-width: 0.6"/>
      </g>
     </g>
    </g>
    <g id="xtick_33">
     <g id="line2d_33">
      <g>
       <use xlink:href="#m605c16f5e1" x="169.455895" y="168.699665" style="stroke: #000000; stroke-width: 0.6"/>
      </g>
     </g>
    </g>
    <g id="xtick_34">
     <g id="line2d_34">
      <g>
       <use xlink:href="#m605c16f5e1" x="179.808618" y="168.699665" style="stroke: #000000; stroke-width: 0.6"/>
      </g>
     </g>
    </g>
    <g id="xtick_35">
     <g id="line2d_35">
      <g>
       <use xlink:href="#m605c16f5e1" x="184.98498" y="168.699665" style="stroke: #000000; stroke-width: 0.6"/>
      </g>
     </g>
    </g>
    <g id="xtick_36">
     <g id="line2d_36">
      <g>
       <use xlink:href="#m605c16f5e1" x="190.161341" y="168.699665" style="stroke: #000000; stroke-width: 0.6"/>
      </g>
     </g>
    </g>
    <g id="xtick_37">
     <g id="line2d_37">
      <g>
       <use xlink:href="#m605c16f5e1" x="195.337703" y="168.699665" style="stroke: #000000; stroke-width: 0.6"/>
      </g>
     </g>
    </g>
    <g id="xtick_38">
     <g id="line2d_38">
      <g>
       <use xlink:href="#m605c16f5e1" x="205.690426" y="168.699665" style="stroke: #000000; stroke-width: 0.6"/>
      </g>
     </g>
    </g>
    <g id="xtick_39">
     <g id="line2d_39">
      <g>
       <use xlink:href="#m605c16f5e1" x="210.866788" y="168.699665" style="stroke: #000000; stroke-width: 0.6"/>
      </g>
     </g>
    </g>
    <g id="xtick_40">
     <g id="line2d_40">
      <g>
       <use xlink:href="#m605c16f5e1" x="216.04315" y="168.699665" style="stroke: #000000; stroke-width: 0.6"/>
      </g>
     </g>
    </g>
    <g id="xtick_41">
     <g id="line2d_41">
      <g>
       <use xlink:href="#m605c16f5e1" x="221.219511" y="168.699665" style="stroke: #000000; stroke-width: 0.6"/>
      </g>
     </g>
    </g>
   </g>
   <g id="matplotlib.axis_2">
    <g id="ytick_1">
     <g id="line2d_42">
      <defs>
       <path id="m0e3db97ef6" d="M 0 0 
L -3.5 0 
" style="stroke: #000000; stroke-width: 0.8"/>
      </defs>
      <g>
       <use xlink:href="#m0e3db97ef6" x="122.86864" y="323.990516" style="stroke: #000000; stroke-width: 0.8"/>
      </g>
     </g>
     <g id="text_9">
      <!-- −3 -->
      <g transform="translate(101.126452 327.789734) scale(0.1 -0.1)">
       <defs>
        <path id="DejaVuSans-33" d="M 2597 2516 
Q 3050 2419 3304 2112 
Q 3559 1806 3559 1356 
Q 3559 666 3084 287 
Q 2609 -91 1734 -91 
Q 1441 -91 1130 -33 
Q 819 25 488 141 
L 488 750 
Q 750 597 1062 519 
Q 1375 441 1716 441 
Q 2309 441 2620 675 
Q 2931 909 2931 1356 
Q 2931 1769 2642 2001 
Q 2353 2234 1838 2234 
L 1294 2234 
L 1294 2753 
L 1863 2753 
Q 2328 2753 2575 2939 
Q 2822 3125 2822 3475 
Q 2822 3834 2567 4026 
Q 2313 4219 1838 4219 
Q 1578 4219 1281 4162 
Q 984 4106 628 3988 
L 628 4550 
Q 988 4650 1302 4700 
Q 1616 4750 1894 4750 
Q 2613 4750 3031 4423 
Q 3450 4097 3450 3541 
Q 3450 3153 3228 2886 
Q 3006 2619 2597 2516 
z
" transform="scale(0.015625)"/>
       </defs>
       <use xlink:href="#DejaVuSans-2212"/>
       <use xlink:href="#DejaVuSans-33" x="83.789062"/>
      </g>
     </g>
    </g>
    <g id="ytick_2">
     <g id="line2d_43">
      <g>
       <use xlink:href="#m0e3db97ef6" x="122.86864" y="272.226899" style="stroke: #000000; stroke-width: 0.8"/>
      </g>
     </g>
     <g id="text_10">
      <!-- −2 -->
      <g transform="translate(101.126452 276.026118) scale(0.1 -0.1)">
       <use xlink:href="#DejaVuSans-2212"/>
       <use xlink:href="#DejaVuSans-32" x="83.789062"/>
      </g>
     </g>
    </g>
    <g id="ytick_3">
     <g id="line2d_44">
      <g>
       <use xlink:href="#m0e3db97ef6" x="122.86864" y="220.463282" style="stroke: #000000; stroke-width: 0.8"/>
      </g>
     </g>
     <g id="text_11">
      <!-- −1 -->
      <g transform="translate(101.126452 224.262501) scale(0.1 -0.1)">
       <use xlink:href="#DejaVuSans-2212"/>
       <use xlink:href="#DejaVuSans-31" x="83.789062"/>
      </g>
     </g>
    </g>
    <g id="ytick_4">
     <g id="line2d_45">
      <g>
       <use xlink:href="#m0e3db97ef6" x="122.86864" y="168.699665" style="stroke: #000000; stroke-width: 0.8"/>
      </g>
     </g>
    </g>
    <g id="ytick_5">
     <g id="line2d_46">
      <g>
       <use xlink:href="#m0e3db97ef6" x="122.86864" y="116.936049" style="stroke: #000000; stroke-width: 0.8"/>
      </g>
     </g>
     <g id="text_12">
      <!-- 1 -->
      <g transform="translate(109.50614 120.735268) scale(0.1 -0.1)">
       <use xlink:href="#DejaVuSans-31"/>
      </g>
     </g>
    </g>
    <g id="ytick_6">
     <g id="line2d_47">
      <g>
       <use xlink:href="#m0e3db97ef6" x="122.86864" y="65.172432" style="stroke: #000000; stroke-width: 0.8"/>
      </g>
     </g>
     <g id="text_13">
      <!-- 2 -->
      <g transform="translate(109.50614 68.971651) scale(0.1 -0.1)">
       <use xlink:href="#DejaVuSans-32"/>
      </g>
     </g>
    </g>
    <g id="ytick_7">
     <g id="line2d_48">
      <g>
       <use xlink:href="#m0e3db97ef6" x="122.86864" y="13.408815" style="stroke: #000000; stroke-width: 0.8"/>
      </g>
     </g>
     <g id="text_14">
      <!-- 3 -->
      <g transform="translate(109.50614 17.208034) scale(0.1 -0.1)">
       <use xlink:href="#DejaVuSans-33"/>
      </g>
     </g>
    </g>
    <g id="ytick_8">
     <g id="line2d_49">
      <defs>
       <path id="mf88896efb2" d="M 0 0 
L -2 0 
" style="stroke: #000000; stroke-width: 0.6"/>
      </defs>
      <g>
       <use xlink:href="#mf88896efb2" x="122.86864" y="313.637792" style="stroke: #000000; stroke-width: 0.6"/>
      </g>
     </g>
    </g>
    <g id="ytick_9">
     <g id="line2d_50">
      <g>
       <use xlink:href="#mf88896efb2" x="122.86864" y="303.285069" style="stroke: #000000; stroke-width: 0.6"/>
      </g>
     </g>
    </g>
    <g id="ytick_10">
     <g id="line2d_51">
      <g>
       <use xlink:href="#mf88896efb2" x="122.86864" y="292.932346" style="stroke: #000000; stroke-width: 0.6"/>
      </g>
     </g>
    </g>
    <g id="ytick_11">
     <g id="line2d_52">
      <g>
       <use xlink:href="#mf88896efb2" x="122.86864" y="282.579622" style="stroke: #000000; stroke-width: 0.6"/>
      </g>
     </g>
    </g>
    <g id="ytick_12">
     <g id="line2d_53">
      <g>
       <use xlink:href="#mf88896efb2" x="122.86864" y="261.874176" style="stroke: #000000; stroke-width: 0.6"/>
      </g>
     </g>
    </g>
    <g id="ytick_13">
     <g id="line2d_54">
      <g>
       <use xlink:href="#mf88896efb2" x="122.86864" y="251.521452" style="stroke: #000000; stroke-width: 0.6"/>
      </g>
     </g>
    </g>
    <g id="ytick_14">
     <g id="line2d_55">
      <g>
       <use xlink:href="#mf88896efb2" x="122.86864" y="241.168729" style="stroke: #000000; stroke-width: 0.6"/>
      </g>
     </g>
    </g>
    <g id="ytick_15">
     <g id="line2d_56">
      <g>
       <use xlink:href="#mf88896efb2" x="122.86864" y="230.816006" style="stroke: #000000; stroke-width: 0.6"/>
      </g>
     </g>
    </g>
    <g id="ytick_16">
     <g id="line2d_57">
      <g>
       <use xlink:href="#mf88896efb2" x="122.86864" y="210.110559" style="stroke: #000000; stroke-width: 0.6"/>
      </g>
     </g>
    </g>
    <g id="ytick_17">
     <g id="line2d_58">
      <g>
       <use xlink:href="#mf88896efb2" x="122.86864" y="199.757836" style="stroke: #000000; stroke-width: 0.6"/>
      </g>
     </g>
    </g>
    <g id="ytick_18">
     <g id="line2d_59">
      <g>
       <use xlink:href="#mf88896efb2" x="122.86864" y="189.405112" style="stroke: #000000; stroke-width: 0.6"/>
      </g>
     </g>
    </g>
    <g id="ytick_19">
     <g id="line2d_60">
      <g>
       <use xlink:href="#mf88896efb2" x="122.86864" y="179.052389" style="stroke: #000000; stroke-width: 0.6"/>
      </g>
     </g>
    </g>
    <g id="ytick_20">
     <g id="line2d_61">
      <g>
       <use xlink:href="#mf88896efb2" x="122.86864" y="158.346942" style="stroke: #000000; stroke-width: 0.6"/>
      </g>
     </g>
    </g>
    <g id="ytick_21">
     <g id="line2d_62">
      <g>
       <use xlink:href="#mf88896efb2" x="122.86864" y="147.994219" style="stroke: #000000; stroke-width: 0.6"/>
      </g>
     </g>
    </g>
    <g id="ytick_22">
     <g id="line2d_63">
      <g>
       <use xlink:href="#mf88896efb2" x="122.86864" y="137.641495" style="stroke: #000000; stroke-width: 0.6"/>
      </g>
     </g>
    </g>
    <g id="ytick_23">
     <g id="line2d_64">
      <g>
       <use xlink:href="#mf88896efb2" x="122.86864" y="127.288772" style="stroke: #000000; stroke-width: 0.6"/>
      </g>
     </g>
    </g>
    <g id="ytick_24">
     <g id="line2d_65">
      <g>
       <use xlink:href="#mf88896efb2" x="122.86864" y="106.583325" style="stroke: #000000; stroke-width: 0.6"/>
      </g>
     </g>
    </g>
    <g id="ytick_25">
     <g id="line2d_66">
      <g>
       <use xlink:href="#mf88896efb2" x="122.86864" y="96.230602" style="stroke: #000000; stroke-width: 0.6"/>
      </g>
     </g>
    </g>
    <g id="ytick_26">
     <g id="line2d_67">
      <g>
       <use xlink:href="#mf88896efb2" x="122.86864" y="85.877879" style="stroke: #000000; stroke-width: 0.6"/>
      </g>
     </g>
    </g>
    <g id="ytick_27">
     <g id="line2d_68">
      <g>
       <use xlink:href="#mf88896efb2" x="122.86864" y="75.525155" style="stroke: #000000; stroke-width: 0.6"/>
      </g>
     </g>
    </g>
    <g id="ytick_28">
     <g id="line2d_69">
      <g>
       <use xlink:href="#mf88896efb2" x="122.86864" y="54.819709" style="stroke: #000000; stroke-width: 0.6"/>
      </g>
     </g>
    </g>
    <g id="ytick_29">
     <g id="line2d_70">
      <g>
       <use xlink:href="#mf88896efb2" x="122.86864" y="44.466985" style="stroke: #000000; stroke-width: 0.6"/>
      </g>
     </g>
    </g>
    <g id="ytick_30">
     <g id="line2d_71">
      <g>
       <use xlink:href="#mf88896efb2" x="122.86864" y="34.114262" style="stroke: #000000; stroke-width: 0.6"/>
      </g>
     </g>
    </g>
    <g id="ytick_31">
     <g id="line2d_72">
      <g>
       <use xlink:href="#mf88896efb2" x="122.86864" y="23.761539" style="stroke: #000000; stroke-width: 0.6"/>
      </g>
     </g>
    </g>
   </g>
   <g id="line2d_73">
    <path d="M 226.395873 168.699665 
L 226.265621 160.912322 
L 225.875192 153.144574 
L 225.272162 145.88158 
L 224.441654 138.669273 
L 223.724425 133.649744 
L 222.896981 128.668517 
L 221.960226 123.731036 
L 220.192726 115.753484 
L 217.731878 106.511066 
L 214.8814 97.524074 
L 213.194706 92.818494 
L 211.401098 88.20273 
L 209.502701 83.682245 
L 207.501761 79.262389 
L 204.817252 73.803912 
L 201.976393 68.526487 
L 198.844996 63.213491 
L 195.555155 58.120478 
L 191.52571 52.470525 
L 187.301374 47.150501 
L 183.739452 43.087474 
L 180.063805 39.259129 
L 177.698414 36.976229 
L 172.259361 32.220727 
L 166.637662 27.969919 
L 161.660933 24.722745 
L 155.431734 21.290544 
L 149.068737 18.464028 
L 137.161073 14.895789 
L 132.138804 14.032629 
L 123.432937 13.411122 
L 113.113043 14.099821 
L 101.958629 16.609285 
L 93.924198 19.601572 
L 86.074842 23.547211 
L 83.980823 24.780737 
L 76.330983 29.983038 
L 68.987469 36.098414 
L 64.838146 40.098393 
L 60.963469 44.23005 
L 57.219326 48.624167 
L 53.556374 53.348809 
L 50.044349 58.324627 
L 47.349551 62.47726 
L 44.759924 66.777821 
L 40.500237 74.625215 
L 36.590336 82.872105 
L 34.625851 87.490238 
L 32.77118 92.209434 
L 29.815022 100.636807 
L 27.208783 109.320124 
L 25.427595 116.239735 
L 23.868719 123.279035 
L 22.225653 132.299477 
L 20.94752 141.451907 
L 20.182585 148.943907 
L 19.546883 158.920556 
L 19.341528 168.937936 
L 19.393052 173.604196 
L 19.666381 180.994354 
L 20.174155 188.356581 
L 21.028035 196.616568 
L 22.176973 204.795673 
L 23.490197 212.220693 
L 25.046606 219.539216 
L 27.310978 228.448288 
L 29.935577 237.132123 
L 32.964669 245.700439 
L 36.344428 253.968416 
L 38.607141 258.922988 
L 40.995879 263.742619 
L 44.494467 270.161966 
L 48.216486 276.292062 
L 52.681383 282.853875 
L 57.168382 288.712454 
L 61.872307 294.174782 
L 67.189129 299.618649 
L 72.721232 304.556327 
L 75.443266 306.738155 
L 81.272556 310.904522 
L 87.263667 314.517673 
L 95.910413 318.633216 
L 101.934488 320.782574 
L 120.191329 323.938579 
L 127.515052 323.834035 
L 137.297218 322.474938 
L 143.583696 320.85006 
L 153.143584 317.202058 
L 162.577594 312.113213 
L 170.895415 306.269514 
L 177.791377 300.335934 
L 183.913548 294.121619 
L 189.724486 287.267848 
L 193.114436 282.772827 
L 195.869782 278.811531 
L 198.525915 274.700588 
L 201.079227 270.445585 
L 203.526247 266.052305 
L 206.105478 261.038243 
L 208.546268 255.870602 
L 211.61428 248.666681 
L 214.843435 239.985578 
L 217.695682 231.012348 
L 220.10719 221.998285 
L 221.950954 213.714241 
L 223.48133 205.287821 
L 224.36749 199.289058 
L 225.094755 193.242409 
L 225.661987 187.157338 
L 226.119006 180.049214 
L 226.376698 171.688384 
L 226.333707 163.318871 
L 226.01884 155.458454 
L 225.438735 147.632085 
L 224.583501 139.769687 
L 223.460589 131.983422 
L 222.60533 127.063363 
L 221.643147 122.18794 
L 220.35171 116.415702 
L 218.910417 110.723839 
L 217.321483 105.121098 
L 215.58735 99.616095 
L 213.827039 94.537479 
L 211.943145 89.559624 
L 208.806714 82.107491 
L 205.393503 74.934246 
L 202.269916 69.05037 
L 198.493318 62.646418 
L 194.487475 56.56395 
L 189.74627 50.159129 
L 186.111604 45.752584 
L 182.348062 41.59658 
L 178.463312 37.699586 
L 173.038886 32.861978 
L 165.705721 27.326177 
L 158.10319 22.679349 
L 154.898118 21.027727 
L 146.464905 17.496211 
L 137.862915 15.04621 
L 130.200661 13.798757 
L 125.278762 13.450902 
L 107.677227 15.089785 
L 99.594873 17.383789 
L 92.944616 20.037323 
L 85.98487 23.598597 
L 79.782758 27.496395 
L 73.762426 31.989927 
L 69.493539 35.638702 
L 65.378587 39.553395 
L 61.390995 43.754192 
L 56.847917 49.083226 
L 52.509723 54.783471 
L 47.774598 61.8014 
L 43.349934 69.261277 
L 40.183121 75.253239 
L 37.216782 81.471765 
L 34.313832 88.258062 
L 31.649626 95.261229 
L 29.480125 101.676795 
L 27.51103 108.236187 
L 26.24318 112.948707 
L 25.078805 117.720929 
L 23.572727 124.75684 
L 22.291499 131.892257 
L 21.102125 140.181332 
L 20.216135 148.555426 
L 19.74977 154.920316 
L 19.458731 161.308634 
L 19.342936 169.543954 
L 19.518422 177.776899 
L 20.063891 187.013906 
L 20.653449 193.344576 
L 21.416195 199.63349 
L 22.759277 208.272482 
L 24.429027 216.782344 
L 26.127341 223.996779 
L 28.060487 231.076984 
L 30.346989 238.375147 
L 32.882976 245.48543 
L 34.664443 250.003369 
L 36.546686 254.428416 
L 40.604785 262.979723 
L 43.48607 268.38249 
L 46.524931 273.587386 
L 49.477567 278.22677 
L 52.555405 282.679306 
L 57.031481 288.543532 
L 62.595837 294.959018 
L 68.710901 301.047169 
L 75.098159 306.470148 
L 79.924493 310.00005 
L 86.049255 313.837521 
L 92.325368 317.078378 
L 98.96829 319.795622 
L 107.434806 322.255163 
L 117.774311 323.802392 
L 130.873264 323.525638 
L 143.654239 320.828412 
L 154.703818 316.466107 
L 156.120173 315.762588 
L 162.063828 312.430862 
L 167.86025 308.559227 
L 173.507008 304.145959 
L 178.962217 299.220342 
L 183.134161 294.966837 
L 187.163025 290.413552 
L 190.296065 286.537344 
L 193.325341 282.479795 
L 197.680503 276.042177 
L 201.774703 269.230123 
L 206.038666 261.173598 
L 208.23025 256.565405 
L 210.308412 251.840462 
L 212.270392 247.00505 
L 214.532998 240.879651 
L 216.19007 235.932448 
L 217.728521 230.899784 
L 219.146394 225.788058 
L 220.441889 220.603766 
L 221.516958 215.810111 
L 222.487389 210.966485 
L 223.366614 205.990439 
L 224.135401 200.973415 
L 224.792906 195.920925 
L 225.338406 190.838521 
L 225.932842 183.370428 
L 226.285518 175.867921 
L 226.394429 169.519811 
L 226.326697 163.023709 
L 226.077879 156.537542 
L 225.64841 150.072662 
L 224.530281 139.351799 
L 223.073174 129.672575 
L 221.206923 120.152702 
L 220.110579 115.414959 
L 218.912818 110.732788 
L 217.413751 105.430419 
L 215.784634 100.215079 
L 214.027708 95.093942 
L 212.14539 90.074052 
L 209.08409 82.730111 
L 205.754585 75.653611 
L 202.655108 69.745045 
L 199.368611 64.06843 
L 194.509061 56.59498 
L 190.459068 51.072289 
L 186.220149 45.878383 
L 184.02988 43.405296 
L 178.237623 37.484696 
L 172.191561 32.16557 
L 165.677596 27.30701 
L 158.952246 23.146623 
L 153.050904 20.154832 
L 141.757519 16.015445 
L 135.783487 14.621882 
L 122.204017 13.412015 
L 115.586203 13.793494 
L 107.467695 15.136738 
L 98.894206 17.630119 
L 91.230422 20.838074 
L 85.185591 24.061424 
L 79.285467 27.8402 
L 71.130692 34.191621 
L 63.784271 41.182677 
L 58.406242 47.185895 
L 53.298504 53.698623 
L 49.162512 59.649616 
L 45.2524 65.934805 
L 42.610891 70.606296 
L 39.39658 76.840085 
L 36.397244 83.31045 
L 34.290667 88.315468 
L 32.312776 93.43727 
L 30.466447 98.668413 
L 28.75436 104.0013 
L 26.630745 111.460254 
L 24.769653 119.075349 
L 23.51557 125.048489 
L 22.423059 131.092616 
L 21.360926 138.17652 
L 20.520706 145.327152 
L 19.877031 152.923503 
L 19.483782 160.558214 
L 19.34171 168.323636 
L 19.458709 176.089999 
L 19.68502 181.341447 
L 20.126542 187.788566 
L 20.74702 194.202436 
L 21.615907 201.072301 
L 22.690085 207.87653 
L 23.967375 214.601328 
L 25.445187 221.233061 
L 26.839771 226.723584 
L 28.371824 232.131044 
L 30.163396 237.823888 
L 32.107317 243.403135 
L 34.890865 250.553489 
L 37.859996 257.332006 
L 41.061021 263.868744 
L 45.670679 272.170998 
L 48.540921 276.796271 
L 51.534232 281.24256 
L 54.645656 285.502504 
L 57.870041 289.56905 
L 61.459722 293.721159 
L 65.167134 297.633581 
L 70.365718 302.539105 
L 75.749082 306.973594 
L 83.316789 312.21086 
L 91.488192 316.6848 
L 98.360032 319.576226 
L 114.200968 323.445292 
L 124.661308 323.967233 
L 136.883837 322.560935 
L 144.279107 320.633302 
L 153.111397 317.216814 
L 161.745984 312.62496 
L 170.076138 306.906088 
L 173.191188 304.410538 
L 177.448198 300.656703 
L 181.581032 296.602644 
L 186.836043 290.800581 
L 191.836944 284.513471 
L 195.449754 279.434517 
L 198.896534 274.102258 
L 203.119389 266.805918 
L 207.405751 258.341012 
L 209.401576 253.948493 
L 211.296008 249.456085 
L 214.257687 241.660906 
L 216.914294 233.62217 
L 218.454015 228.348464 
L 219.862355 222.992771 
L 221.944655 213.745424 
L 222.98535 208.230641 
L 223.889666 202.66201 
L 224.656371 197.047116 
L 225.470271 189.418853 
L 225.874882 184.25938 
L 226.164214 179.082493 
L 226.337942 173.893986 
L 226.395873 168.699665 
L 226.395873 168.699665 
" clip-path="url(#pa6e19fd29f)" style="fill: none; stroke: #0000ff; stroke-linecap: square"/>
   </g>
   <g id="patch_3">
    <path d="M 122.86864 330.178355 
L 122.86864 7.2 
" style="fill: none; stroke: #000000; stroke-width: 0.8; stroke-linejoin: miter; stroke-linecap: square"/>
   </g>
   <g id="patch_4">
    <path d="M 15.200441 168.699665 
L 230.53696 168.699665 
" style="fill: none; stroke: #000000; stroke-width: 0.8; stroke-linejoin: miter; stroke-linecap: square"/>
   </g>
  </g>
 </g>
 <defs>
  <clipPath id="pa6e19fd29f">
   <rect x="15.200441" y="7.2" width="215.336519" height="322.978355"/>
  </clipPath>
 </defs>
</svg>
