<?xml version="1.0" encoding="utf-8" standalone="no"?>
<!DOCTYPE svg PUBLIC "-//W3C//DTD SVG 1.1//EN"
  "http://www.w3.org/Graphics/SVG/1.1/DTD/svg11.dtd">
<svg xmlns:xlink="http://www.w3.org/1999/xlink" width="241.563094pt" height="337.360458pt" viewBox="0 0 241.563094 337.360458" xmlns="http://www.w3.org/2000/svg" version="1.1">
 <metadata>
  <rdf:RDF xmlns:dc="http://purl.org/dc/elements/1.1/" xmlns:cc="http://creativecommons.org/ns#" xmlns:rdf="http://www.w3.org/1999/02/22-rdf-syntax-ns#">
   <cc:Work>
    <dc:type rdf:resource="http://purl.org/dc/dcmitype/StillImage"/>
    <dc:date>2025-04-04T22:44:15.794873</dc:date>
    <dc:format>image/svg+xml</dc:format>
    <dc:creator>
     <cc:Agent>
      <dc:title>Matplotlib v3.6.3, https://matplotlib.org/</dc:title>
     </cc:Agent>
    </dc:creator>
   </cc:Work>
  </rdf:RDF>
 </metadata>
 <defs>
  <style type="text/css">*{stroke-linejoin: round; stroke-linecap: butt}</style>
 </defs>
 <g id="figure_1">
  <g id="patch_1">
   <path d="M 0 337.360458 
L 241.563094 337.360458 
L 241.563094 0 
L 0 0 
z
" style="fill: #ffffff"/>
  </g>
  <g id="axes_1">
   <g id="patch_2">
    <path d="M 15.200751 330.160458 
L 230.55292 330.160458 
L 230.55292 7.2 
L 15.200751 7.2 
z
" style="fill: #ffffff"/>
   </g>
   <g id="matplotlib.axis_1">
    <g id="xtick_1">
     <g id="line2d_1">
      <defs>
       <path id="m4fe2b47a4a" d="M 0 0 
L 0 3.5 
" style="stroke: #000000; stroke-width: 0.8"/>
      </defs>
      <g>
       <use xlink:href="#m4fe2b47a4a" x="19.341406" y="168.692088" style="stroke: #000000; stroke-width: 0.8"/>
      </g>
     </g>
     <g id="text_1">
      <!-- −2.0 -->
      <g transform="translate(7.2 183.290525) scale(0.1 -0.1)">
       <defs>
        <path id="DejaVuSans-2212" d="M 678 2272 
L 4684 2272 
L 4684 1741 
L 678 1741 
L 678 2272 
z
" transform="scale(0.015625)"/>
        <path id="DejaVuSans-32" d="M 1228 531 
L 3431 531 
L 3431 0 
L 469 0 
L 469 531 
Q 828 903 1448 1529 
Q 2069 2156 2228 2338 
Q 2531 2678 2651 2914 
Q 2772 3150 2772 3378 
Q 2772 3750 2511 3984 
Q 2250 4219 1831 4219 
Q 1534 4219 1204 4116 
Q 875 4013 500 3803 
L 500 4441 
Q 881 4594 1212 4672 
Q 1544 4750 1819 4750 
Q 2544 4750 2975 4387 
Q 3406 4025 3406 3419 
Q 3406 3131 3298 2873 
Q 3191 2616 2906 2266 
Q 2828 2175 2409 1742 
Q 1991 1309 1228 531 
z
" transform="scale(0.015625)"/>
        <path id="DejaVuSans-2e" d="M 684 794 
L 1344 794 
L 1344 0 
L 684 0 
L 684 794 
z
" transform="scale(0.015625)"/>
        <path id="DejaVuSans-30" d="M 2034 4250 
Q 1547 4250 1301 3770 
Q 1056 3291 1056 2328 
Q 1056 1369 1301 889 
Q 1547 409 2034 409 
Q 2525 409 2770 889 
Q 3016 1369 3016 2328 
Q 3016 3291 2770 3770 
Q 2525 4250 2034 4250 
z
M 2034 4750 
Q 2819 4750 3233 4129 
Q 3647 3509 3647 2328 
Q 3647 1150 3233 529 
Q 2819 -91 2034 -91 
Q 1250 -91 836 529 
Q 422 1150 422 2328 
Q 422 3509 836 4129 
Q 1250 4750 2034 4750 
z
" transform="scale(0.015625)"/>
       </defs>
       <use xlink:href="#DejaVuSans-2212"/>
       <use xlink:href="#DejaVuSans-32" x="83.789062"/>
       <use xlink:href="#DejaVuSans-2e" x="147.412109"/>
       <use xlink:href="#DejaVuSans-30" x="179.199219"/>
      </g>
     </g>
    </g>
    <g id="xtick_2">
     <g id="line2d_2">
      <g>
       <use xlink:href="#m4fe2b47a4a" x="45.225172" y="168.692088" style="stroke: #000000; stroke-width: 0.8"/>
      </g>
     </g>
     <g id="text_2">
      <!-- −1.5 -->
      <g transform="translate(33.083766 183.290525) scale(0.1 -0.1)">
       <defs>
        <path id="DejaVuSans-31" d="M 794 531 
L 1825 531 
L 1825 4091 
L 703 3866 
L 703 4441 
L 1819 4666 
L 2450 4666 
L 2450 531 
L 3481 531 
L 3481 0 
L 794 0 
L 794 531 
z
" transform="scale(0.015625)"/>
        <path id="DejaVuSans-35" d="M 691 4666 
L 3169 4666 
L 3169 4134 
L 1269 4134 
L 1269 2991 
Q 1406 3038 1543 3061 
Q 1681 3084 1819 3084 
Q 2600 3084 3056 2656 
Q 3513 2228 3513 1497 
Q 3513 744 3044 326 
Q 2575 -91 1722 -91 
Q 1428 -91 1123 -41 
Q 819 9 494 109 
L 494 744 
Q 775 591 1075 516 
Q 1375 441 1709 441 
Q 2250 441 2565 725 
Q 2881 1009 2881 1497 
Q 2881 1984 2565 2268 
Q 2250 2553 1709 2553 
Q 1456 2553 1204 2497 
Q 953 2441 691 2322 
L 691 4666 
z
" transform="scale(0.015625)"/>
       </defs>
       <use xlink:href="#DejaVuSans-2212"/>
       <use xlink:href="#DejaVuSans-31" x="83.789062"/>
       <use xlink:href="#DejaVuSans-2e" x="147.412109"/>
       <use xlink:href="#DejaVuSans-35" x="179.199219"/>
      </g>
     </g>
    </g>
    <g id="xtick_3">
     <g id="line2d_3">
      <g>
       <use xlink:href="#m4fe2b47a4a" x="71.108938" y="168.692088" style="stroke: #000000; stroke-width: 0.8"/>
      </g>
     </g>
     <g id="text_3">
      <!-- −1.0 -->
      <g transform="translate(58.967531 183.290525) scale(0.1 -0.1)">
       <use xlink:href="#DejaVuSans-2212"/>
       <use xlink:href="#DejaVuSans-31" x="83.789062"/>
       <use xlink:href="#DejaVuSans-2e" x="147.412109"/>
       <use xlink:href="#DejaVuSans-30" x="179.199219"/>
      </g>
     </g>
    </g>
    <g id="xtick_4">
     <g id="line2d_4">
      <g>
       <use xlink:href="#m4fe2b47a4a" x="96.992703" y="168.692088" style="stroke: #000000; stroke-width: 0.8"/>
      </g>
     </g>
     <g id="text_4">
      <!-- −0.5 -->
      <g transform="translate(84.851297 183.290525) scale(0.1 -0.1)">
       <use xlink:href="#DejaVuSans-2212"/>
       <use xlink:href="#DejaVuSans-30" x="83.789062"/>
       <use xlink:href="#DejaVuSans-2e" x="147.412109"/>
       <use xlink:href="#DejaVuSans-35" x="179.199219"/>
      </g>
     </g>
    </g>
    <g id="xtick_5">
     <g id="line2d_5">
      <g>
       <use xlink:href="#m4fe2b47a4a" x="122.876469" y="168.692088" style="stroke: #000000; stroke-width: 0.8"/>
      </g>
     </g>
    </g>
    <g id="xtick_6">
     <g id="line2d_6">
      <g>
       <use xlink:href="#m4fe2b47a4a" x="148.760235" y="168.692088" style="stroke: #000000; stroke-width: 0.8"/>
      </g>
     </g>
     <g id="text_5">
      <!-- 0.5 -->
      <g transform="translate(140.808672 183.290525) scale(0.1 -0.1)">
       <use xlink:href="#DejaVuSans-30"/>
       <use xlink:href="#DejaVuSans-2e" x="63.623047"/>
       <use xlink:href="#DejaVuSans-35" x="95.410156"/>
      </g>
     </g>
    </g>
    <g id="xtick_7">
     <g id="line2d_7">
      <g>
       <use xlink:href="#m4fe2b47a4a" x="174.644" y="168.692088" style="stroke: #000000; stroke-width: 0.8"/>
      </g>
     </g>
     <g id="text_6">
      <!-- 1.0 -->
      <g transform="translate(166.692438 183.290525) scale(0.1 -0.1)">
       <use xlink:href="#DejaVuSans-31"/>
       <use xlink:href="#DejaVuSans-2e" x="63.623047"/>
       <use xlink:href="#DejaVuSans-30" x="95.410156"/>
      </g>
     </g>
    </g>
    <g id="xtick_8">
     <g id="line2d_8">
      <g>
       <use xlink:href="#m4fe2b47a4a" x="200.527766" y="168.692088" style="stroke: #000000; stroke-width: 0.8"/>
      </g>
     </g>
     <g id="text_7">
      <!-- 1.5 -->
      <g transform="translate(192.576203 183.290525) scale(0.1 -0.1)">
       <use xlink:href="#DejaVuSans-31"/>
       <use xlink:href="#DejaVuSans-2e" x="63.623047"/>
       <use xlink:href="#DejaVuSans-35" x="95.410156"/>
      </g>
     </g>
    </g>
    <g id="xtick_9">
     <g id="line2d_9">
      <g>
       <use xlink:href="#m4fe2b47a4a" x="226.411532" y="168.692088" style="stroke: #000000; stroke-width: 0.8"/>
      </g>
     </g>
     <g id="text_8">
      <!-- 2.0 -->
      <g transform="translate(218.459969 183.290525) scale(0.1 -0.1)">
       <use xlink:href="#DejaVuSans-32"/>
       <use xlink:href="#DejaVuSans-2e" x="63.623047"/>
       <use xlink:href="#DejaVuSans-30" x="95.410156"/>
      </g>
     </g>
    </g>
    <g id="xtick_10">
     <g id="line2d_10">
      <defs>
       <path id="mbe1f05eab5" d="M 0 0 
L 0 2 
" style="stroke: #000000; stroke-width: 0.6"/>
      </defs>
      <g>
       <use xlink:href="#mbe1f05eab5" x="24.518159" y="168.692088" style="stroke: #000000; stroke-width: 0.6"/>
      </g>
     </g>
    </g>
    <g id="xtick_11">
     <g id="line2d_11">
      <g>
       <use xlink:href="#mbe1f05eab5" x="29.694913" y="168.692088" style="stroke: #000000; stroke-width: 0.6"/>
      </g>
     </g>
    </g>
    <g id="xtick_12">
     <g id="line2d_12">
      <g>
       <use xlink:href="#mbe1f05eab5" x="34.871666" y="168.692088" style="stroke: #000000; stroke-width: 0.6"/>
      </g>
     </g>
    </g>
    <g id="xtick_13">
     <g id="line2d_13">
      <g>
       <use xlink:href="#mbe1f05eab5" x="40.048419" y="168.692088" style="stroke: #000000; stroke-width: 0.6"/>
      </g>
     </g>
    </g>
    <g id="xtick_14">
     <g id="line2d_14">
      <g>
       <use xlink:href="#mbe1f05eab5" x="50.401925" y="168.692088" style="stroke: #000000; stroke-width: 0.6"/>
      </g>
     </g>
    </g>
    <g id="xtick_15">
     <g id="line2d_15">
      <g>
       <use xlink:href="#mbe1f05eab5" x="55.578678" y="168.692088" style="stroke: #000000; stroke-width: 0.6"/>
      </g>
     </g>
    </g>
    <g id="xtick_16">
     <g id="line2d_16">
      <g>
       <use xlink:href="#mbe1f05eab5" x="60.755431" y="168.692088" style="stroke: #000000; stroke-width: 0.6"/>
      </g>
     </g>
    </g>
    <g id="xtick_17">
     <g id="line2d_17">
      <g>
       <use xlink:href="#mbe1f05eab5" x="65.932184" y="168.692088" style="stroke: #000000; stroke-width: 0.6"/>
      </g>
     </g>
    </g>
    <g id="xtick_18">
     <g id="line2d_18">
      <g>
       <use xlink:href="#mbe1f05eab5" x="76.285691" y="168.692088" style="stroke: #000000; stroke-width: 0.6"/>
      </g>
     </g>
    </g>
    <g id="xtick_19">
     <g id="line2d_19">
      <g>
       <use xlink:href="#mbe1f05eab5" x="81.462444" y="168.692088" style="stroke: #000000; stroke-width: 0.6"/>
      </g>
     </g>
    </g>
    <g id="xtick_20">
     <g id="line2d_20">
      <g>
       <use xlink:href="#mbe1f05eab5" x="86.639197" y="168.692088" style="stroke: #000000; stroke-width: 0.6"/>
      </g>
     </g>
    </g>
    <g id="xtick_21">
     <g id="line2d_21">
      <g>
       <use xlink:href="#mbe1f05eab5" x="91.81595" y="168.692088" style="stroke: #000000; stroke-width: 0.6"/>
      </g>
     </g>
    </g>
    <g id="xtick_22">
     <g id="line2d_22">
      <g>
       <use xlink:href="#mbe1f05eab5" x="102.169456" y="168.692088" style="stroke: #000000; stroke-width: 0.6"/>
      </g>
     </g>
    </g>
    <g id="xtick_23">
     <g id="line2d_23">
      <g>
       <use xlink:href="#mbe1f05eab5" x="107.34621" y="168.692088" style="stroke: #000000; stroke-width: 0.6"/>
      </g>
     </g>
    </g>
    <g id="xtick_24">
     <g id="line2d_24">
      <g>
       <use xlink:href="#mbe1f05eab5" x="112.522963" y="168.692088" style="stroke: #000000; stroke-width: 0.6"/>
      </g>
     </g>
    </g>
    <g id="xtick_25">
     <g id="line2d_25">
      <g>
       <use xlink:href="#mbe1f05eab5" x="117.699716" y="168.692088" style="stroke: #000000; stroke-width: 0.6"/>
      </g>
     </g>
    </g>
    <g id="xtick_26">
     <g id="line2d_26">
      <g>
       <use xlink:href="#mbe1f05eab5" x="128.053222" y="168.692088" style="stroke: #000000; stroke-width: 0.6"/>
      </g>
     </g>
    </g>
    <g id="xtick_27">
     <g id="line2d_27">
      <g>
       <use xlink:href="#mbe1f05eab5" x="133.229975" y="168.692088" style="stroke: #000000; stroke-width: 0.6"/>
      </g>
     </g>
    </g>
    <g id="xtick_28">
     <g id="line2d_28">
      <g>
       <use xlink:href="#mbe1f05eab5" x="138.406728" y="168.692088" style="stroke: #000000; stroke-width: 0.6"/>
      </g>
     </g>
    </g>
    <g id="xtick_29">
     <g id="line2d_29">
      <g>
       <use xlink:href="#mbe1f05eab5" x="143.583481" y="168.692088" style="stroke: #000000; stroke-width: 0.6"/>
      </g>
     </g>
    </g>
    <g id="xtick_30">
     <g id="line2d_30">
      <g>
       <use xlink:href="#mbe1f05eab5" x="153.936988" y="168.692088" style="stroke: #000000; stroke-width: 0.6"/>
      </g>
     </g>
    </g>
    <g id="xtick_31">
     <g id="line2d_31">
      <g>
       <use xlink:href="#mbe1f05eab5" x="159.113741" y="168.692088" style="stroke: #000000; stroke-width: 0.6"/>
      </g>
     </g>
    </g>
    <g id="xtick_32">
     <g id="line2d_32">
      <g>
       <use xlink:href="#mbe1f05eab5" x="164.290494" y="168.692088" style="stroke: #000000; stroke-width: 0.6"/>
      </g>
     </g>
    </g>
    <g id="xtick_33">
     <g id="line2d_33">
      <g>
       <use xlink:href="#mbe1f05eab5" x="169.467247" y="168.692088" style="stroke: #000000; stroke-width: 0.6"/>
      </g>
     </g>
    </g>
    <g id="xtick_34">
     <g id="line2d_34">
      <g>
       <use xlink:href="#mbe1f05eab5" x="179.820753" y="168.692088" style="stroke: #000000; stroke-width: 0.6"/>
      </g>
     </g>
    </g>
    <g id="xtick_35">
     <g id="line2d_35">
      <g>
       <use xlink:href="#mbe1f05eab5" x="184.997507" y="168.692088" style="stroke: #000000; stroke-width: 0.6"/>
      </g>
     </g>
    </g>
    <g id="xtick_36">
     <g id="line2d_36">
      <g>
       <use xlink:href="#mbe1f05eab5" x="190.17426" y="168.692088" style="stroke: #000000; stroke-width: 0.6"/>
      </g>
     </g>
    </g>
    <g id="xtick_37">
     <g id="line2d_37">
      <g>
       <use xlink:href="#mbe1f05eab5" x="195.351013" y="168.692088" style="stroke: #000000; stroke-width: 0.6"/>
      </g>
     </g>
    </g>
    <g id="xtick_38">
     <g id="line2d_38">
      <g>
       <use xlink:href="#mbe1f05eab5" x="205.704519" y="168.692088" style="stroke: #000000; stroke-width: 0.6"/>
      </g>
     </g>
    </g>
    <g id="xtick_39">
     <g id="line2d_39">
      <g>
       <use xlink:href="#mbe1f05eab5" x="210.881272" y="168.692088" style="stroke: #000000; stroke-width: 0.6"/>
      </g>
     </g>
    </g>
    <g id="xtick_40">
     <g id="line2d_40">
      <g>
       <use xlink:href="#mbe1f05eab5" x="216.058025" y="168.692088" style="stroke: #000000; stroke-width: 0.6"/>
      </g>
     </g>
    </g>
    <g id="xtick_41">
     <g id="line2d_41">
      <g>
       <use xlink:href="#mbe1f05eab5" x="221.234779" y="168.692088" style="stroke: #000000; stroke-width: 0.6"/>
      </g>
     </g>
    </g>
   </g>
   <g id="matplotlib.axis_2">
    <g id="ytick_1">
     <g id="line2d_42">
      <defs>
       <path id="m6745de54e6" d="M 0 0 
L -3.5 0 
" style="stroke: #000000; stroke-width: 0.8"/>
      </defs>
      <g>
       <use xlink:href="#m6745de54e6" x="122.876469" y="323.994682" style="stroke: #000000; stroke-width: 0.8"/>
      </g>
     </g>
     <g id="text_9">
      <!-- −3 -->
      <g transform="translate(101.134281 327.7939) scale(0.1 -0.1)">
       <defs>
        <path id="DejaVuSans-33" d="M 2597 2516 
Q 3050 2419 3304 2112 
Q 3559 1806 3559 1356 
Q 3559 666 3084 287 
Q 2609 -91 1734 -91 
Q 1441 -91 1130 -33 
Q 819 25 488 141 
L 488 750 
Q 750 597 1062 519 
Q 1375 441 1716 441 
Q 2309 441 2620 675 
Q 2931 909 2931 1356 
Q 2931 1769 2642 2001 
Q 2353 2234 1838 2234 
L 1294 2234 
L 1294 2753 
L 1863 2753 
Q 2328 2753 2575 2939 
Q 2822 3125 2822 3475 
Q 2822 3834 2567 4026 
Q 2313 4219 1838 4219 
Q 1578 4219 1281 4162 
Q 984 4106 628 3988 
L 628 4550 
Q 988 4650 1302 4700 
Q 1616 4750 1894 4750 
Q 2613 4750 3031 4423 
Q 3450 4097 3450 3541 
Q 3450 3153 3228 2886 
Q 3006 2619 2597 2516 
z
" transform="scale(0.015625)"/>
       </defs>
       <use xlink:href="#DejaVuSans-2212"/>
       <use xlink:href="#DejaVuSans-33" x="83.789062"/>
      </g>
     </g>
    </g>
    <g id="ytick_2">
     <g id="line2d_43">
      <g>
       <use xlink:href="#m6745de54e6" x="122.876469" y="272.22715" style="stroke: #000000; stroke-width: 0.8"/>
      </g>
     </g>
     <g id="text_10">
      <!-- −2 -->
      <g transform="translate(101.134281 276.026369) scale(0.1 -0.1)">
       <use xlink:href="#DejaVuSans-2212"/>
       <use xlink:href="#DejaVuSans-32" x="83.789062"/>
      </g>
     </g>
    </g>
    <g id="ytick_3">
     <g id="line2d_44">
      <g>
       <use xlink:href="#m6745de54e6" x="122.876469" y="220.459619" style="stroke: #000000; stroke-width: 0.8"/>
      </g>
     </g>
     <g id="text_11">
      <!-- −1 -->
      <g transform="translate(101.134281 224.258838) scale(0.1 -0.1)">
       <use xlink:href="#DejaVuSans-2212"/>
       <use xlink:href="#DejaVuSans-31" x="83.789062"/>
      </g>
     </g>
    </g>
    <g id="ytick_4">
     <g id="line2d_45">
      <g>
       <use xlink:href="#m6745de54e6" x="122.876469" y="168.692088" style="stroke: #000000; stroke-width: 0.8"/>
      </g>
     </g>
    </g>
    <g id="ytick_5">
     <g id="line2d_46">
      <g>
       <use xlink:href="#m6745de54e6" x="122.876469" y="116.924556" style="stroke: #000000; stroke-width: 0.8"/>
      </g>
     </g>
     <g id="text_12">
      <!-- 1 -->
      <g transform="translate(109.513969 120.723775) scale(0.1 -0.1)">
       <use xlink:href="#DejaVuSans-31"/>
      </g>
     </g>
    </g>
    <g id="ytick_6">
     <g id="line2d_47">
      <g>
       <use xlink:href="#m6745de54e6" x="122.876469" y="65.157025" style="stroke: #000000; stroke-width: 0.8"/>
      </g>
     </g>
     <g id="text_13">
      <!-- 2 -->
      <g transform="translate(109.513969 68.956244) scale(0.1 -0.1)">
       <use xlink:href="#DejaVuSans-32"/>
      </g>
     </g>
    </g>
    <g id="ytick_7">
     <g id="line2d_48">
      <g>
       <use xlink:href="#m6745de54e6" x="122.876469" y="13.389494" style="stroke: #000000; stroke-width: 0.8"/>
      </g>
     </g>
     <g id="text_14">
      <!-- 3 -->
      <g transform="translate(109.513969 17.188712) scale(0.1 -0.1)">
       <use xlink:href="#DejaVuSans-33"/>
      </g>
     </g>
    </g>
    <g id="ytick_8">
     <g id="line2d_49">
      <defs>
       <path id="mce31adf620" d="M 0 0 
L -2 0 
" style="stroke: #000000; stroke-width: 0.6"/>
      </defs>
      <g>
       <use xlink:href="#mce31adf620" x="122.876469" y="313.641175" style="stroke: #000000; stroke-width: 0.6"/>
      </g>
     </g>
    </g>
    <g id="ytick_9">
     <g id="line2d_50">
      <g>
       <use xlink:href="#mce31adf620" x="122.876469" y="303.287669" style="stroke: #000000; stroke-width: 0.6"/>
      </g>
     </g>
    </g>
    <g id="ytick_10">
     <g id="line2d_51">
      <g>
       <use xlink:href="#mce31adf620" x="122.876469" y="292.934163" style="stroke: #000000; stroke-width: 0.6"/>
      </g>
     </g>
    </g>
    <g id="ytick_11">
     <g id="line2d_52">
      <g>
       <use xlink:href="#mce31adf620" x="122.876469" y="282.580657" style="stroke: #000000; stroke-width: 0.6"/>
      </g>
     </g>
    </g>
    <g id="ytick_12">
     <g id="line2d_53">
      <g>
       <use xlink:href="#mce31adf620" x="122.876469" y="261.873644" style="stroke: #000000; stroke-width: 0.6"/>
      </g>
     </g>
    </g>
    <g id="ytick_13">
     <g id="line2d_54">
      <g>
       <use xlink:href="#mce31adf620" x="122.876469" y="251.520138" style="stroke: #000000; stroke-width: 0.6"/>
      </g>
     </g>
    </g>
    <g id="ytick_14">
     <g id="line2d_55">
      <g>
       <use xlink:href="#mce31adf620" x="122.876469" y="241.166632" style="stroke: #000000; stroke-width: 0.6"/>
      </g>
     </g>
    </g>
    <g id="ytick_15">
     <g id="line2d_56">
      <g>
       <use xlink:href="#mce31adf620" x="122.876469" y="230.813125" style="stroke: #000000; stroke-width: 0.6"/>
      </g>
     </g>
    </g>
    <g id="ytick_16">
     <g id="line2d_57">
      <g>
       <use xlink:href="#mce31adf620" x="122.876469" y="210.106113" style="stroke: #000000; stroke-width: 0.6"/>
      </g>
     </g>
    </g>
    <g id="ytick_17">
     <g id="line2d_58">
      <g>
       <use xlink:href="#mce31adf620" x="122.876469" y="199.752606" style="stroke: #000000; stroke-width: 0.6"/>
      </g>
     </g>
    </g>
    <g id="ytick_18">
     <g id="line2d_59">
      <g>
       <use xlink:href="#mce31adf620" x="122.876469" y="189.3991" style="stroke: #000000; stroke-width: 0.6"/>
      </g>
     </g>
    </g>
    <g id="ytick_19">
     <g id="line2d_60">
      <g>
       <use xlink:href="#mce31adf620" x="122.876469" y="179.045594" style="stroke: #000000; stroke-width: 0.6"/>
      </g>
     </g>
    </g>
    <g id="ytick_20">
     <g id="line2d_61">
      <g>
       <use xlink:href="#mce31adf620" x="122.876469" y="158.338581" style="stroke: #000000; stroke-width: 0.6"/>
      </g>
     </g>
    </g>
    <g id="ytick_21">
     <g id="line2d_62">
      <g>
       <use xlink:href="#mce31adf620" x="122.876469" y="147.985075" style="stroke: #000000; stroke-width: 0.6"/>
      </g>
     </g>
    </g>
    <g id="ytick_22">
     <g id="line2d_63">
      <g>
       <use xlink:href="#mce31adf620" x="122.876469" y="137.631569" style="stroke: #000000; stroke-width: 0.6"/>
      </g>
     </g>
    </g>
    <g id="ytick_23">
     <g id="line2d_64">
      <g>
       <use xlink:href="#mce31adf620" x="122.876469" y="127.278063" style="stroke: #000000; stroke-width: 0.6"/>
      </g>
     </g>
    </g>
    <g id="ytick_24">
     <g id="line2d_65">
      <g>
       <use xlink:href="#mce31adf620" x="122.876469" y="106.57105" style="stroke: #000000; stroke-width: 0.6"/>
      </g>
     </g>
    </g>
    <g id="ytick_25">
     <g id="line2d_66">
      <g>
       <use xlink:href="#mce31adf620" x="122.876469" y="96.217544" style="stroke: #000000; stroke-width: 0.6"/>
      </g>
     </g>
    </g>
    <g id="ytick_26">
     <g id="line2d_67">
      <g>
       <use xlink:href="#mce31adf620" x="122.876469" y="85.864037" style="stroke: #000000; stroke-width: 0.6"/>
      </g>
     </g>
    </g>
    <g id="ytick_27">
     <g id="line2d_68">
      <g>
       <use xlink:href="#mce31adf620" x="122.876469" y="75.510531" style="stroke: #000000; stroke-width: 0.6"/>
      </g>
     </g>
    </g>
    <g id="ytick_28">
     <g id="line2d_69">
      <g>
       <use xlink:href="#mce31adf620" x="122.876469" y="54.803519" style="stroke: #000000; stroke-width: 0.6"/>
      </g>
     </g>
    </g>
    <g id="ytick_29">
     <g id="line2d_70">
      <g>
       <use xlink:href="#mce31adf620" x="122.876469" y="44.450012" style="stroke: #000000; stroke-width: 0.6"/>
      </g>
     </g>
    </g>
    <g id="ytick_30">
     <g id="line2d_71">
      <g>
       <use xlink:href="#mce31adf620" x="122.876469" y="34.096506" style="stroke: #000000; stroke-width: 0.6"/>
      </g>
     </g>
    </g>
    <g id="ytick_31">
     <g id="line2d_72">
      <g>
       <use xlink:href="#mce31adf620" x="122.876469" y="23.743" style="stroke: #000000; stroke-width: 0.6"/>
      </g>
     </g>
    </g>
   </g>
   <g id="line2d_73">
    <path d="M 226.411532 168.692088 
L 226.318759 162.119116 
L 226.040609 155.557924 
L 225.646471 149.847178 
L 225.111883 144.162187 
L 224.437574 138.51072 
L 223.624467 132.9005 
L 222.464356 126.218986 
L 221.405361 120.984387 
L 220.224122 115.808978 
L 218.922103 110.699182 
L 217.50092 105.661338 
L 215.831306 100.299532 
L 214.02672 95.037033 
L 211.759722 89.046797 
L 209.317874 83.213238 
L 206.854395 77.855759 
L 204.564267 73.272598 
L 202.163029 68.819224 
L 199.653948 64.501695 
L 197.040436 60.325884 
L 193.766113 55.502525 
L 188.898464 49.061982 
L 183.771335 43.09161 
L 178.057957 37.285645 
L 172.099419 32.063491 
L 168.144453 29.020268 
L 159.775186 23.587 
L 152.045251 19.680157 
L 144.134267 16.698225 
L 139.821714 15.483642 
L 126.020049 13.461095 
L 116.0527 13.727165 
L 106.996161 15.227169 
L 103.168295 16.229081 
L 95.1786 19.049985 
L 87.362986 22.811387 
L 82.420117 25.736557 
L 77.58381 29.038267 
L 74.688738 31.235671 
L 68.66247 36.382636 
L 62.879416 42.123168 
L 58.795365 46.710437 
L 53.019808 54.066604 
L 47.618362 62.036638 
L 43.18151 69.553291 
L 40.149434 75.308843 
L 37.30193 81.272742 
L 34.324411 88.221005 
L 31.597382 95.3969 
L 29.053815 103.019853 
L 26.79292 110.840666 
L 25.585009 115.576814 
L 24.480823 120.369591 
L 23.28569 126.234246 
L 22.245846 132.165106 
L 20.883966 141.983722 
L 19.947406 151.913715 
L 19.620327 157.300155 
L 19.418489 162.700413 
L 19.342139 168.107938 
L 19.391368 173.516172 
L 19.723973 182.030437 
L 20.458078 191.43984 
L 21.185093 197.869817 
L 22.091442 204.248339 
L 23.175526 210.564158 
L 24.435434 216.806134 
L 25.554787 221.682643 
L 26.781472 226.500711 
L 29.274715 235.069773 
L 32.107204 243.398259 
L 33.551939 247.218736 
L 35.601683 252.243851 
L 37.777008 257.148742 
L 40.074784 261.926351 
L 42.491705 266.569804 
L 45.297083 271.537278 
L 48.23879 276.324024 
L 51.397053 281.044014 
L 57.036451 288.547638 
L 63.024885 295.415875 
L 67.048061 299.482266 
L 71.193811 303.261502 
L 75.89467 307.084626 
L 80.604325 310.460539 
L 85.421424 313.476116 
L 91.221226 316.557815 
L 97.132826 319.117291 
L 107.566644 322.287389 
L 113.243072 323.320967 
L 127.133281 323.863363 
L 131.831921 323.412627 
L 140.31741 321.775321 
L 148.683809 319.092731 
L 153.759489 316.924789 
L 161.492321 312.788346 
L 169.940077 307.022068 
L 174.760048 303.087429 
L 179.43427 298.775253 
L 183.443497 294.648726 
L 187.319142 290.244401 
L 192.121405 284.149691 
L 196.668052 277.628771 
L 200.638509 271.226434 
L 204.362451 264.499049 
L 207.936607 257.2338 
L 211.06241 250.062754 
L 212.828179 245.591033 
L 214.493208 241.033191 
L 216.055632 236.394331 
L 217.513701 231.679648 
L 218.979069 226.472264 
L 220.317138 221.188344 
L 221.526135 215.834885 
L 222.873211 208.945805 
L 223.973082 202.199011 
L 224.870747 195.385198 
L 225.564409 188.517995 
L 226.05268 181.611138 
L 226.31501 175.396501 
L 226.409177 169.739443 
L 226.365886 164.080995 
L 226.15191 157.700822 
L 225.763191 151.339246 
L 225.198126 144.98508 
L 224.458726 138.671307 
L 223.546249 132.408682 
L 222.46225 126.207878 
L 221.466631 121.270042 
L 220.362229 116.384531 
L 218.16993 107.971437 
L 215.655253 99.76376 
L 213.558382 93.747611 
L 211.288234 87.874667 
L 207.829259 79.918789 
L 203.782025 71.784656 
L 199.389219 64.064445 
L 194.701996 56.837913 
L 191.044142 51.801008 
L 187.229497 47.03296 
L 180.974736 40.145496 
L 173.853475 33.518416 
L 166.398226 27.77696 
L 161.248981 24.449639 
L 153.526589 20.350662 
L 140.928312 15.768282 
L 136.23094 14.686807 
L 126.199 13.469481 
L 109.484365 14.69416 
L 106.395471 15.369737 
L 93.832754 19.625201 
L 87.944892 22.495604 
L 82.181932 25.888749 
L 77.427863 29.152307 
L 72.56952 32.954767 
L 67.852106 37.137481 
L 62.255409 42.793947 
L 56.916269 48.985309 
L 52.75122 54.436204 
L 48.786043 60.212755 
L 45.863339 64.893746 
L 43.02484 69.837347 
L 40.327272 74.955417 
L 37.561696 80.703327 
L 34.973858 86.634545 
L 32.117353 93.958178 
L 29.531764 101.504891 
L 27.922732 106.78556 
L 26.446415 112.152755 
L 25.104877 117.598975 
L 23.899993 123.116606 
L 22.722528 129.327524 
L 21.718201 135.606493 
L 20.770645 142.976388 
L 20.061581 150.406349 
L 19.566765 158.45088 
L 19.3456 170.089865 
L 19.486178 176.902031 
L 19.825874 183.698386 
L 20.596249 192.798063 
L 21.723432 201.813644 
L 23.323023 211.346472 
L 25.321474 220.708405 
L 27.523175 229.201027 
L 29.080478 234.449962 
L 30.766147 239.608904 
L 32.577873 244.670793 
L 34.513177 249.6287 
L 37.734295 257.056213 
L 41.232572 264.196079 
L 43.531111 268.459832 
L 45.928564 272.599213 
L 49.651688 278.485946 
L 53.658407 284.185943 
L 57.862031 289.557394 
L 62.143334 294.468635 
L 66.589222 299.039024 
L 71.262752 303.321023 
L 76.080686 307.226357 
L 83.779006 312.495841 
L 92.47948 317.15066 
L 102.24134 320.878902 
L 110.190077 322.824403 
L 118.585792 323.861264 
L 128.564673 323.760123 
L 137.142499 322.513336 
L 145.621483 320.200802 
L 155.66633 316.000445 
L 163.222801 311.717561 
L 165.473185 310.241779 
L 170.469927 306.613576 
L 175.329839 302.588856 
L 180.852874 297.362413 
L 186.145268 291.624096 
L 189.87943 287.088679 
L 193.469291 282.298277 
L 197.335466 276.602123 
L 200.997649 270.610332 
L 204.918034 263.426212 
L 208.54523 255.903545 
L 211.544962 248.874175 
L 214.241209 241.746761 
L 216.683059 234.415932 
L 218.74926 227.324961 
L 220.366537 220.981575 
L 221.797381 214.538194 
L 223.039053 208.007139 
L 224.089181 201.4009 
L 224.991684 194.323755 
L 225.934648 183.580744 
L 226.290751 176.191413 
L 226.411513 168.785015 
L 226.323331 162.283031 
L 226.053751 155.792286 
L 225.603246 149.32416 
L 224.972606 142.889997 
L 224.044491 135.673669 
L 222.889814 128.531285 
L 221.683357 122.29604 
L 219.538631 113.051678 
L 217.094267 104.305284 
L 214.298551 95.798999 
L 211.502766 88.405106 
L 208.441471 81.251741 
L 205.261633 74.631276 
L 201.854369 68.27047 
L 197.366541 60.830317 
L 192.567791 53.840379 
L 188.414069 48.46419 
L 183.832359 43.158229 
L 179.114441 38.297304 
L 174.224651 33.834885 
L 167.064429 28.244232 
L 159.635603 23.507311 
L 149.971765 18.801972 
L 146.522422 17.494036 
L 131.559614 13.936627 
L 124.590543 13.410778 
L 113.959051 13.966605 
L 109.558526 14.67969 
L 96.079356 18.681409 
L 89.45321 21.704372 
L 83.438313 25.097807 
L 77.575351 29.044441 
L 72.768856 32.788972 
L 68.099482 36.905406 
L 64.192348 40.745665 
L 60.404669 44.846367 
L 56.693784 49.261928 
L 53.12142 53.927458 
L 48.982659 59.911429 
L 45.071684 66.230727 
L 42.724901 70.38502 
L 40.47665 74.660164 
L 36.968452 82.011789 
L 33.751394 89.657172 
L 31.374826 96.02396 
L 29.200254 102.551169 
L 26.851714 110.62144 
L 24.756832 119.122906 
L 22.996147 127.793204 
L 21.490647 137.212654 
L 20.379551 146.754562 
L 19.929356 152.164764 
L 19.425179 162.445918 
L 19.367232 172.160667 
L 19.490204 177.015327 
L 19.781776 183.000671 
L 20.227295 188.964648 
L 20.787162 194.554913 
L 21.482292 200.110911 
L 22.608266 207.39664 
L 23.966773 214.592609 
L 25.528099 221.572229 
L 27.308187 228.433016 
L 29.635117 236.201412 
L 32.242444 243.766791 
L 34.277091 249.045891 
L 36.448329 254.201111 
L 38.883268 259.496634 
L 41.462321 264.636356 
L 44.792132 270.673838 
L 48.320719 276.451709 
L 52.538517 282.653414 
L 56.985211 288.484264 
L 61.514201 293.779689 
L 66.23195 298.690327 
L 70.878578 302.98799 
L 75.66976 306.912313 
L 78.263104 308.837023 
L 84.139991 312.71548 
L 90.165845 316.040076 
L 97.133811 319.11767 
L 106.29668 321.990472 
L 120.384203 323.94968 
L 128.065676 323.799496 
L 133.778878 323.131251 
L 143.264378 320.953854 
L 152.574743 317.46851 
L 159.148234 314.152404 
L 162.413243 312.225336 
L 170.465262 306.617198 
L 178.167392 299.994989 
L 180.064498 298.153807 
L 184.740668 293.222175 
L 189.228261 287.910942 
L 194.042068 281.491356 
L 198.580437 274.635193 
L 202.860664 267.305399 
L 208.144454 256.782835 
L 210.604454 251.169036 
L 212.9003 245.400907 
L 214.731372 240.350434 
L 216.436571 235.201765 
L 218.013561 229.961955 
L 219.46018 224.638184 
L 220.859076 218.867435 
L 222.77772 209.475797 
L 224.296717 199.921008 
L 225.000539 194.24425 
L 225.563192 188.53217 
L 225.983898 182.792664 
L 226.262077 177.033667 
L 226.411532 168.692088 
L 226.411532 168.692088 
" clip-path="url(#p9ae65a8482)" style="fill: none; stroke: #0000ff; stroke-linecap: square"/>
   </g>
   <g id="patch_3">
    <path d="M 122.876469 330.160458 
L 122.876469 7.2 
" style="fill: none; stroke: #000000; stroke-width: 0.8; stroke-linejoin: miter; stroke-linecap: square"/>
   </g>
   <g id="patch_4">
    <path d="M 15.200751 168.692088 
L 230.55292 168.692088 
" style="fill: none; stroke: #000000; stroke-width: 0.8; stroke-linejoin: miter; stroke-linecap: square"/>
   </g>
  </g>
 </g>
 <defs>
  <clipPath id="p9ae65a8482">
   <rect x="15.200751" y="7.2" width="215.352169" height="322.960458"/>
  </clipPath>
 </defs>
</svg>
