<?xml version="1.0" encoding="utf-8" standalone="no"?>
<!DOCTYPE svg PUBLIC "-//W3C//DTD SVG 1.1//EN"
  "http://www.w3.org/Graphics/SVG/1.1/DTD/svg11.dtd">
<svg xmlns:xlink="http://www.w3.org/1999/xlink" width="241.583046pt" height="337.397056pt" viewBox="0 0 241.583046 337.397056" xmlns="http://www.w3.org/2000/svg" version="1.1">
 <metadata>
  <rdf:RDF xmlns:dc="http://purl.org/dc/elements/1.1/" xmlns:cc="http://creativecommons.org/ns#" xmlns:rdf="http://www.w3.org/1999/02/22-rdf-syntax-ns#">
   <cc:Work>
    <dc:type rdf:resource="http://purl.org/dc/dcmitype/StillImage"/>
    <dc:date>2025-04-10T13:12:51.975249</dc:date>
    <dc:format>image/svg+xml</dc:format>
    <dc:creator>
     <cc:Agent>
      <dc:title>Matplotlib v3.6.3, https://matplotlib.org/</dc:title>
     </cc:Agent>
    </dc:creator>
   </cc:Work>
  </rdf:RDF>
 </metadata>
 <defs>
  <style type="text/css">*{stroke-linejoin: round; stroke-linecap: butt}</style>
 </defs>
 <g id="figure_1">
  <g id="patch_1">
   <path d="M 0 337.397056 
L 241.583046 337.397056 
L 241.583046 0 
L 0 0 
z
" style="fill: #ffffff"/>
  </g>
  <g id="axes_1">
   <g id="patch_2">
    <path d="M 15.200628 330.197056 
L 230.573265 330.197056 
L 230.573265 7.2 
L 15.200628 7.2 
z
" style="fill: #ffffff"/>
   </g>
   <g id="matplotlib.axis_1">
    <g id="xtick_1">
     <g id="line2d_1">
      <defs>
       <path id="mbaa1ea5fed" d="M 0 0 
L 0 3.5 
" style="stroke: #000000; stroke-width: 0.8"/>
      </defs>
      <g>
       <use xlink:href="#mbaa1ea5fed" x="19.341406" y="168.668602" style="stroke: #000000; stroke-width: 0.8"/>
      </g>
     </g>
     <g id="text_1">
      <!-- −2.0 -->
      <g transform="translate(7.2 183.267039) scale(0.1 -0.1)">
       <defs>
        <path id="DejaVuSans-2212" d="M 678 2272 
L 4684 2272 
L 4684 1741 
L 678 1741 
L 678 2272 
z
" transform="scale(0.015625)"/>
        <path id="DejaVuSans-32" d="M 1228 531 
L 3431 531 
L 3431 0 
L 469 0 
L 469 531 
Q 828 903 1448 1529 
Q 2069 2156 2228 2338 
Q 2531 2678 2651 2914 
Q 2772 3150 2772 3378 
Q 2772 3750 2511 3984 
Q 2250 4219 1831 4219 
Q 1534 4219 1204 4116 
Q 875 4013 500 3803 
L 500 4441 
Q 881 4594 1212 4672 
Q 1544 4750 1819 4750 
Q 2544 4750 2975 4387 
Q 3406 4025 3406 3419 
Q 3406 3131 3298 2873 
Q 3191 2616 2906 2266 
Q 2828 2175 2409 1742 
Q 1991 1309 1228 531 
z
" transform="scale(0.015625)"/>
        <path id="DejaVuSans-2e" d="M 684 794 
L 1344 794 
L 1344 0 
L 684 0 
L 684 794 
z
" transform="scale(0.015625)"/>
        <path id="DejaVuSans-30" d="M 2034 4250 
Q 1547 4250 1301 3770 
Q 1056 3291 1056 2328 
Q 1056 1369 1301 889 
Q 1547 409 2034 409 
Q 2525 409 2770 889 
Q 3016 1369 3016 2328 
Q 3016 3291 2770 3770 
Q 2525 4250 2034 4250 
z
M 2034 4750 
Q 2819 4750 3233 4129 
Q 3647 3509 3647 2328 
Q 3647 1150 3233 529 
Q 2819 -91 2034 -91 
Q 1250 -91 836 529 
Q 422 1150 422 2328 
Q 422 3509 836 4129 
Q 1250 4750 2034 4750 
z
" transform="scale(0.015625)"/>
       </defs>
       <use xlink:href="#DejaVuSans-2212"/>
       <use xlink:href="#DejaVuSans-32" x="83.789062"/>
       <use xlink:href="#DejaVuSans-2e" x="147.412109"/>
       <use xlink:href="#DejaVuSans-30" x="179.199219"/>
      </g>
     </g>
    </g>
    <g id="xtick_2">
     <g id="line2d_2">
      <g>
       <use xlink:href="#mbaa1ea5fed" x="45.227666" y="168.668602" style="stroke: #000000; stroke-width: 0.8"/>
      </g>
     </g>
     <g id="text_2">
      <!-- −1.5 -->
      <g transform="translate(33.08626 183.267039) scale(0.1 -0.1)">
       <defs>
        <path id="DejaVuSans-31" d="M 794 531 
L 1825 531 
L 1825 4091 
L 703 3866 
L 703 4441 
L 1819 4666 
L 2450 4666 
L 2450 531 
L 3481 531 
L 3481 0 
L 794 0 
L 794 531 
z
" transform="scale(0.015625)"/>
        <path id="DejaVuSans-35" d="M 691 4666 
L 3169 4666 
L 3169 4134 
L 1269 4134 
L 1269 2991 
Q 1406 3038 1543 3061 
Q 1681 3084 1819 3084 
Q 2600 3084 3056 2656 
Q 3513 2228 3513 1497 
Q 3513 744 3044 326 
Q 2575 -91 1722 -91 
Q 1428 -91 1123 -41 
Q 819 9 494 109 
L 494 744 
Q 775 591 1075 516 
Q 1375 441 1709 441 
Q 2250 441 2565 725 
Q 2881 1009 2881 1497 
Q 2881 1984 2565 2268 
Q 2250 2553 1709 2553 
Q 1456 2553 1204 2497 
Q 953 2441 691 2322 
L 691 4666 
z
" transform="scale(0.015625)"/>
       </defs>
       <use xlink:href="#DejaVuSans-2212"/>
       <use xlink:href="#DejaVuSans-31" x="83.789062"/>
       <use xlink:href="#DejaVuSans-2e" x="147.412109"/>
       <use xlink:href="#DejaVuSans-35" x="179.199219"/>
      </g>
     </g>
    </g>
    <g id="xtick_3">
     <g id="line2d_3">
      <g>
       <use xlink:href="#mbaa1ea5fed" x="71.113926" y="168.668602" style="stroke: #000000; stroke-width: 0.8"/>
      </g>
     </g>
     <g id="text_3">
      <!-- −1.0 -->
      <g transform="translate(58.972519 183.267039) scale(0.1 -0.1)">
       <use xlink:href="#DejaVuSans-2212"/>
       <use xlink:href="#DejaVuSans-31" x="83.789062"/>
       <use xlink:href="#DejaVuSans-2e" x="147.412109"/>
       <use xlink:href="#DejaVuSans-30" x="179.199219"/>
      </g>
     </g>
    </g>
    <g id="xtick_4">
     <g id="line2d_4">
      <g>
       <use xlink:href="#mbaa1ea5fed" x="97.000185" y="168.668602" style="stroke: #000000; stroke-width: 0.8"/>
      </g>
     </g>
     <g id="text_4">
      <!-- −0.5 -->
      <g transform="translate(84.858779 183.267039) scale(0.1 -0.1)">
       <use xlink:href="#DejaVuSans-2212"/>
       <use xlink:href="#DejaVuSans-30" x="83.789062"/>
       <use xlink:href="#DejaVuSans-2e" x="147.412109"/>
       <use xlink:href="#DejaVuSans-35" x="179.199219"/>
      </g>
     </g>
    </g>
    <g id="xtick_5">
     <g id="line2d_5">
      <g>
       <use xlink:href="#mbaa1ea5fed" x="122.886445" y="168.668602" style="stroke: #000000; stroke-width: 0.8"/>
      </g>
     </g>
    </g>
    <g id="xtick_6">
     <g id="line2d_6">
      <g>
       <use xlink:href="#mbaa1ea5fed" x="148.772705" y="168.668602" style="stroke: #000000; stroke-width: 0.8"/>
      </g>
     </g>
     <g id="text_5">
      <!-- 0.5 -->
      <g transform="translate(140.821142 183.267039) scale(0.1 -0.1)">
       <use xlink:href="#DejaVuSans-30"/>
       <use xlink:href="#DejaVuSans-2e" x="63.623047"/>
       <use xlink:href="#DejaVuSans-35" x="95.410156"/>
      </g>
     </g>
    </g>
    <g id="xtick_7">
     <g id="line2d_7">
      <g>
       <use xlink:href="#mbaa1ea5fed" x="174.658964" y="168.668602" style="stroke: #000000; stroke-width: 0.8"/>
      </g>
     </g>
     <g id="text_6">
      <!-- 1.0 -->
      <g transform="translate(166.707402 183.267039) scale(0.1 -0.1)">
       <use xlink:href="#DejaVuSans-31"/>
       <use xlink:href="#DejaVuSans-2e" x="63.623047"/>
       <use xlink:href="#DejaVuSans-30" x="95.410156"/>
      </g>
     </g>
    </g>
    <g id="xtick_8">
     <g id="line2d_8">
      <g>
       <use xlink:href="#mbaa1ea5fed" x="200.545224" y="168.668602" style="stroke: #000000; stroke-width: 0.8"/>
      </g>
     </g>
     <g id="text_7">
      <!-- 1.5 -->
      <g transform="translate(192.593661 183.267039) scale(0.1 -0.1)">
       <use xlink:href="#DejaVuSans-31"/>
       <use xlink:href="#DejaVuSans-2e" x="63.623047"/>
       <use xlink:href="#DejaVuSans-35" x="95.410156"/>
      </g>
     </g>
    </g>
    <g id="xtick_9">
     <g id="line2d_9">
      <g>
       <use xlink:href="#mbaa1ea5fed" x="226.431484" y="168.668602" style="stroke: #000000; stroke-width: 0.8"/>
      </g>
     </g>
     <g id="text_8">
      <!-- 2.0 -->
      <g transform="translate(218.479921 183.267039) scale(0.1 -0.1)">
       <use xlink:href="#DejaVuSans-32"/>
       <use xlink:href="#DejaVuSans-2e" x="63.623047"/>
       <use xlink:href="#DejaVuSans-30" x="95.410156"/>
      </g>
     </g>
    </g>
    <g id="xtick_10">
     <g id="line2d_10">
      <defs>
       <path id="m99377b4a40" d="M 0 0 
L 0 2 
" style="stroke: #000000; stroke-width: 0.6"/>
      </defs>
      <g>
       <use xlink:href="#m99377b4a40" x="24.518658" y="168.668602" style="stroke: #000000; stroke-width: 0.6"/>
      </g>
     </g>
    </g>
    <g id="xtick_11">
     <g id="line2d_11">
      <g>
       <use xlink:href="#m99377b4a40" x="29.69591" y="168.668602" style="stroke: #000000; stroke-width: 0.6"/>
      </g>
     </g>
    </g>
    <g id="xtick_12">
     <g id="line2d_12">
      <g>
       <use xlink:href="#m99377b4a40" x="34.873162" y="168.668602" style="stroke: #000000; stroke-width: 0.6"/>
      </g>
     </g>
    </g>
    <g id="xtick_13">
     <g id="line2d_13">
      <g>
       <use xlink:href="#m99377b4a40" x="40.050414" y="168.668602" style="stroke: #000000; stroke-width: 0.6"/>
      </g>
     </g>
    </g>
    <g id="xtick_14">
     <g id="line2d_14">
      <g>
       <use xlink:href="#m99377b4a40" x="50.404918" y="168.668602" style="stroke: #000000; stroke-width: 0.6"/>
      </g>
     </g>
    </g>
    <g id="xtick_15">
     <g id="line2d_15">
      <g>
       <use xlink:href="#m99377b4a40" x="55.58217" y="168.668602" style="stroke: #000000; stroke-width: 0.6"/>
      </g>
     </g>
    </g>
    <g id="xtick_16">
     <g id="line2d_16">
      <g>
       <use xlink:href="#m99377b4a40" x="60.759422" y="168.668602" style="stroke: #000000; stroke-width: 0.6"/>
      </g>
     </g>
    </g>
    <g id="xtick_17">
     <g id="line2d_17">
      <g>
       <use xlink:href="#m99377b4a40" x="65.936674" y="168.668602" style="stroke: #000000; stroke-width: 0.6"/>
      </g>
     </g>
    </g>
    <g id="xtick_18">
     <g id="line2d_18">
      <g>
       <use xlink:href="#m99377b4a40" x="76.291178" y="168.668602" style="stroke: #000000; stroke-width: 0.6"/>
      </g>
     </g>
    </g>
    <g id="xtick_19">
     <g id="line2d_19">
      <g>
       <use xlink:href="#m99377b4a40" x="81.468429" y="168.668602" style="stroke: #000000; stroke-width: 0.6"/>
      </g>
     </g>
    </g>
    <g id="xtick_20">
     <g id="line2d_20">
      <g>
       <use xlink:href="#m99377b4a40" x="86.645681" y="168.668602" style="stroke: #000000; stroke-width: 0.6"/>
      </g>
     </g>
    </g>
    <g id="xtick_21">
     <g id="line2d_21">
      <g>
       <use xlink:href="#m99377b4a40" x="91.822933" y="168.668602" style="stroke: #000000; stroke-width: 0.6"/>
      </g>
     </g>
    </g>
    <g id="xtick_22">
     <g id="line2d_22">
      <g>
       <use xlink:href="#m99377b4a40" x="102.177437" y="168.668602" style="stroke: #000000; stroke-width: 0.6"/>
      </g>
     </g>
    </g>
    <g id="xtick_23">
     <g id="line2d_23">
      <g>
       <use xlink:href="#m99377b4a40" x="107.354689" y="168.668602" style="stroke: #000000; stroke-width: 0.6"/>
      </g>
     </g>
    </g>
    <g id="xtick_24">
     <g id="line2d_24">
      <g>
       <use xlink:href="#m99377b4a40" x="112.531941" y="168.668602" style="stroke: #000000; stroke-width: 0.6"/>
      </g>
     </g>
    </g>
    <g id="xtick_25">
     <g id="line2d_25">
      <g>
       <use xlink:href="#m99377b4a40" x="117.709193" y="168.668602" style="stroke: #000000; stroke-width: 0.6"/>
      </g>
     </g>
    </g>
    <g id="xtick_26">
     <g id="line2d_26">
      <g>
       <use xlink:href="#m99377b4a40" x="128.063697" y="168.668602" style="stroke: #000000; stroke-width: 0.6"/>
      </g>
     </g>
    </g>
    <g id="xtick_27">
     <g id="line2d_27">
      <g>
       <use xlink:href="#m99377b4a40" x="133.240949" y="168.668602" style="stroke: #000000; stroke-width: 0.6"/>
      </g>
     </g>
    </g>
    <g id="xtick_28">
     <g id="line2d_28">
      <g>
       <use xlink:href="#m99377b4a40" x="138.418201" y="168.668602" style="stroke: #000000; stroke-width: 0.6"/>
      </g>
     </g>
    </g>
    <g id="xtick_29">
     <g id="line2d_29">
      <g>
       <use xlink:href="#m99377b4a40" x="143.595453" y="168.668602" style="stroke: #000000; stroke-width: 0.6"/>
      </g>
     </g>
    </g>
    <g id="xtick_30">
     <g id="line2d_30">
      <g>
       <use xlink:href="#m99377b4a40" x="153.949957" y="168.668602" style="stroke: #000000; stroke-width: 0.6"/>
      </g>
     </g>
    </g>
    <g id="xtick_31">
     <g id="line2d_31">
      <g>
       <use xlink:href="#m99377b4a40" x="159.127208" y="168.668602" style="stroke: #000000; stroke-width: 0.6"/>
      </g>
     </g>
    </g>
    <g id="xtick_32">
     <g id="line2d_32">
      <g>
       <use xlink:href="#m99377b4a40" x="164.30446" y="168.668602" style="stroke: #000000; stroke-width: 0.6"/>
      </g>
     </g>
    </g>
    <g id="xtick_33">
     <g id="line2d_33">
      <g>
       <use xlink:href="#m99377b4a40" x="169.481712" y="168.668602" style="stroke: #000000; stroke-width: 0.6"/>
      </g>
     </g>
    </g>
    <g id="xtick_34">
     <g id="line2d_34">
      <g>
       <use xlink:href="#m99377b4a40" x="179.836216" y="168.668602" style="stroke: #000000; stroke-width: 0.6"/>
      </g>
     </g>
    </g>
    <g id="xtick_35">
     <g id="line2d_35">
      <g>
       <use xlink:href="#m99377b4a40" x="185.013468" y="168.668602" style="stroke: #000000; stroke-width: 0.6"/>
      </g>
     </g>
    </g>
    <g id="xtick_36">
     <g id="line2d_36">
      <g>
       <use xlink:href="#m99377b4a40" x="190.19072" y="168.668602" style="stroke: #000000; stroke-width: 0.6"/>
      </g>
     </g>
    </g>
    <g id="xtick_37">
     <g id="line2d_37">
      <g>
       <use xlink:href="#m99377b4a40" x="195.367972" y="168.668602" style="stroke: #000000; stroke-width: 0.6"/>
      </g>
     </g>
    </g>
    <g id="xtick_38">
     <g id="line2d_38">
      <g>
       <use xlink:href="#m99377b4a40" x="205.722476" y="168.668602" style="stroke: #000000; stroke-width: 0.6"/>
      </g>
     </g>
    </g>
    <g id="xtick_39">
     <g id="line2d_39">
      <g>
       <use xlink:href="#m99377b4a40" x="210.899728" y="168.668602" style="stroke: #000000; stroke-width: 0.6"/>
      </g>
     </g>
    </g>
    <g id="xtick_40">
     <g id="line2d_40">
      <g>
       <use xlink:href="#m99377b4a40" x="216.07698" y="168.668602" style="stroke: #000000; stroke-width: 0.6"/>
      </g>
     </g>
    </g>
    <g id="xtick_41">
     <g id="line2d_41">
      <g>
       <use xlink:href="#m99377b4a40" x="221.254232" y="168.668602" style="stroke: #000000; stroke-width: 0.6"/>
      </g>
     </g>
    </g>
   </g>
   <g id="matplotlib.axis_2">
    <g id="ytick_1">
     <g id="line2d_42">
      <defs>
       <path id="m4213f15cc4" d="M 0 0 
L -3.5 0 
" style="stroke: #000000; stroke-width: 0.8"/>
      </defs>
      <g>
       <use xlink:href="#m4213f15cc4" x="122.886445" y="323.98616" style="stroke: #000000; stroke-width: 0.8"/>
      </g>
     </g>
     <g id="text_9">
      <!-- −3 -->
      <g transform="translate(101.144257 327.785379) scale(0.1 -0.1)">
       <defs>
        <path id="DejaVuSans-33" d="M 2597 2516 
Q 3050 2419 3304 2112 
Q 3559 1806 3559 1356 
Q 3559 666 3084 287 
Q 2609 -91 1734 -91 
Q 1441 -91 1130 -33 
Q 819 25 488 141 
L 488 750 
Q 750 597 1062 519 
Q 1375 441 1716 441 
Q 2309 441 2620 675 
Q 2931 909 2931 1356 
Q 2931 1769 2642 2001 
Q 2353 2234 1838 2234 
L 1294 2234 
L 1294 2753 
L 1863 2753 
Q 2328 2753 2575 2939 
Q 2822 3125 2822 3475 
Q 2822 3834 2567 4026 
Q 2313 4219 1838 4219 
Q 1578 4219 1281 4162 
Q 984 4106 628 3988 
L 628 4550 
Q 988 4650 1302 4700 
Q 1616 4750 1894 4750 
Q 2613 4750 3031 4423 
Q 3450 4097 3450 3541 
Q 3450 3153 3228 2886 
Q 3006 2619 2597 2516 
z
" transform="scale(0.015625)"/>
       </defs>
       <use xlink:href="#DejaVuSans-2212"/>
       <use xlink:href="#DejaVuSans-33" x="83.789062"/>
      </g>
     </g>
    </g>
    <g id="ytick_2">
     <g id="line2d_43">
      <g>
       <use xlink:href="#m4213f15cc4" x="122.886445" y="272.21364" style="stroke: #000000; stroke-width: 0.8"/>
      </g>
     </g>
     <g id="text_10">
      <!-- −2 -->
      <g transform="translate(101.144257 276.012859) scale(0.1 -0.1)">
       <use xlink:href="#DejaVuSans-2212"/>
       <use xlink:href="#DejaVuSans-32" x="83.789062"/>
      </g>
     </g>
    </g>
    <g id="ytick_3">
     <g id="line2d_44">
      <g>
       <use xlink:href="#m4213f15cc4" x="122.886445" y="220.441121" style="stroke: #000000; stroke-width: 0.8"/>
      </g>
     </g>
     <g id="text_11">
      <!-- −1 -->
      <g transform="translate(101.144257 224.24034) scale(0.1 -0.1)">
       <use xlink:href="#DejaVuSans-2212"/>
       <use xlink:href="#DejaVuSans-31" x="83.789062"/>
      </g>
     </g>
    </g>
    <g id="ytick_4">
     <g id="line2d_45">
      <g>
       <use xlink:href="#m4213f15cc4" x="122.886445" y="168.668602" style="stroke: #000000; stroke-width: 0.8"/>
      </g>
     </g>
    </g>
    <g id="ytick_5">
     <g id="line2d_46">
      <g>
       <use xlink:href="#m4213f15cc4" x="122.886445" y="116.896082" style="stroke: #000000; stroke-width: 0.8"/>
      </g>
     </g>
     <g id="text_12">
      <!-- 1 -->
      <g transform="translate(109.523945 120.695301) scale(0.1 -0.1)">
       <use xlink:href="#DejaVuSans-31"/>
      </g>
     </g>
    </g>
    <g id="ytick_6">
     <g id="line2d_47">
      <g>
       <use xlink:href="#m4213f15cc4" x="122.886445" y="65.123563" style="stroke: #000000; stroke-width: 0.8"/>
      </g>
     </g>
     <g id="text_13">
      <!-- 2 -->
      <g transform="translate(109.523945 68.922782) scale(0.1 -0.1)">
       <use xlink:href="#DejaVuSans-32"/>
      </g>
     </g>
    </g>
    <g id="ytick_7">
     <g id="line2d_48">
      <g>
       <use xlink:href="#m4213f15cc4" x="122.886445" y="13.351044" style="stroke: #000000; stroke-width: 0.8"/>
      </g>
     </g>
     <g id="text_14">
      <!-- 3 -->
      <g transform="translate(109.523945 17.150263) scale(0.1 -0.1)">
       <use xlink:href="#DejaVuSans-33"/>
      </g>
     </g>
    </g>
    <g id="ytick_8">
     <g id="line2d_49">
      <defs>
       <path id="m2f689974b3" d="M 0 0 
L -2 0 
" style="stroke: #000000; stroke-width: 0.6"/>
      </defs>
      <g>
       <use xlink:href="#m2f689974b3" x="122.886445" y="313.631656" style="stroke: #000000; stroke-width: 0.6"/>
      </g>
     </g>
    </g>
    <g id="ytick_9">
     <g id="line2d_50">
      <g>
       <use xlink:href="#m2f689974b3" x="122.886445" y="303.277152" style="stroke: #000000; stroke-width: 0.6"/>
      </g>
     </g>
    </g>
    <g id="ytick_10">
     <g id="line2d_51">
      <g>
       <use xlink:href="#m2f689974b3" x="122.886445" y="292.922648" style="stroke: #000000; stroke-width: 0.6"/>
      </g>
     </g>
    </g>
    <g id="ytick_11">
     <g id="line2d_52">
      <g>
       <use xlink:href="#m2f689974b3" x="122.886445" y="282.568144" style="stroke: #000000; stroke-width: 0.6"/>
      </g>
     </g>
    </g>
    <g id="ytick_12">
     <g id="line2d_53">
      <g>
       <use xlink:href="#m2f689974b3" x="122.886445" y="261.859137" style="stroke: #000000; stroke-width: 0.6"/>
      </g>
     </g>
    </g>
    <g id="ytick_13">
     <g id="line2d_54">
      <g>
       <use xlink:href="#m2f689974b3" x="122.886445" y="251.504633" style="stroke: #000000; stroke-width: 0.6"/>
      </g>
     </g>
    </g>
    <g id="ytick_14">
     <g id="line2d_55">
      <g>
       <use xlink:href="#m2f689974b3" x="122.886445" y="241.150129" style="stroke: #000000; stroke-width: 0.6"/>
      </g>
     </g>
    </g>
    <g id="ytick_15">
     <g id="line2d_56">
      <g>
       <use xlink:href="#m2f689974b3" x="122.886445" y="230.795625" style="stroke: #000000; stroke-width: 0.6"/>
      </g>
     </g>
    </g>
    <g id="ytick_16">
     <g id="line2d_57">
      <g>
       <use xlink:href="#m2f689974b3" x="122.886445" y="210.086617" style="stroke: #000000; stroke-width: 0.6"/>
      </g>
     </g>
    </g>
    <g id="ytick_17">
     <g id="line2d_58">
      <g>
       <use xlink:href="#m2f689974b3" x="122.886445" y="199.732113" style="stroke: #000000; stroke-width: 0.6"/>
      </g>
     </g>
    </g>
    <g id="ytick_18">
     <g id="line2d_59">
      <g>
       <use xlink:href="#m2f689974b3" x="122.886445" y="189.37761" style="stroke: #000000; stroke-width: 0.6"/>
      </g>
     </g>
    </g>
    <g id="ytick_19">
     <g id="line2d_60">
      <g>
       <use xlink:href="#m2f689974b3" x="122.886445" y="179.023106" style="stroke: #000000; stroke-width: 0.6"/>
      </g>
     </g>
    </g>
    <g id="ytick_20">
     <g id="line2d_61">
      <g>
       <use xlink:href="#m2f689974b3" x="122.886445" y="158.314098" style="stroke: #000000; stroke-width: 0.6"/>
      </g>
     </g>
    </g>
    <g id="ytick_21">
     <g id="line2d_62">
      <g>
       <use xlink:href="#m2f689974b3" x="122.886445" y="147.959594" style="stroke: #000000; stroke-width: 0.6"/>
      </g>
     </g>
    </g>
    <g id="ytick_22">
     <g id="line2d_63">
      <g>
       <use xlink:href="#m2f689974b3" x="122.886445" y="137.60509" style="stroke: #000000; stroke-width: 0.6"/>
      </g>
     </g>
    </g>
    <g id="ytick_23">
     <g id="line2d_64">
      <g>
       <use xlink:href="#m2f689974b3" x="122.886445" y="127.250586" style="stroke: #000000; stroke-width: 0.6"/>
      </g>
     </g>
    </g>
    <g id="ytick_24">
     <g id="line2d_65">
      <g>
       <use xlink:href="#m2f689974b3" x="122.886445" y="106.541579" style="stroke: #000000; stroke-width: 0.6"/>
      </g>
     </g>
    </g>
    <g id="ytick_25">
     <g id="line2d_66">
      <g>
       <use xlink:href="#m2f689974b3" x="122.886445" y="96.187075" style="stroke: #000000; stroke-width: 0.6"/>
      </g>
     </g>
    </g>
    <g id="ytick_26">
     <g id="line2d_67">
      <g>
       <use xlink:href="#m2f689974b3" x="122.886445" y="85.832571" style="stroke: #000000; stroke-width: 0.6"/>
      </g>
     </g>
    </g>
    <g id="ytick_27">
     <g id="line2d_68">
      <g>
       <use xlink:href="#m2f689974b3" x="122.886445" y="75.478067" style="stroke: #000000; stroke-width: 0.6"/>
      </g>
     </g>
    </g>
    <g id="ytick_28">
     <g id="line2d_69">
      <g>
       <use xlink:href="#m2f689974b3" x="122.886445" y="54.769059" style="stroke: #000000; stroke-width: 0.6"/>
      </g>
     </g>
    </g>
    <g id="ytick_29">
     <g id="line2d_70">
      <g>
       <use xlink:href="#m2f689974b3" x="122.886445" y="44.414555" style="stroke: #000000; stroke-width: 0.6"/>
      </g>
     </g>
    </g>
    <g id="ytick_30">
     <g id="line2d_71">
      <g>
       <use xlink:href="#m2f689974b3" x="122.886445" y="34.060052" style="stroke: #000000; stroke-width: 0.6"/>
      </g>
     </g>
    </g>
    <g id="ytick_31">
     <g id="line2d_72">
      <g>
       <use xlink:href="#m2f689974b3" x="122.886445" y="23.705548" style="stroke: #000000; stroke-width: 0.6"/>
      </g>
     </g>
    </g>
   </g>
   <g id="line2d_73">
    <path d="M 226.431484 168.668602 
L 226.371359 163.37642 
L 226.191054 158.090385 
L 225.890779 152.816634 
L 224.970923 142.673362 
L 224.367479 137.811783 
L 223.491927 131.922824 
L 221.806476 122.767561 
L 219.751112 113.783945 
L 217.577406 105.825997 
L 215.113388 98.060717 
L 212.016702 89.61743 
L 208.576902 81.478457 
L 207.062686 78.220524 
L 204.871258 73.799496 
L 202.576682 69.497826 
L 197.689757 61.274054 
L 193.387728 54.914154 
L 189.226042 49.41499 
L 184.87403 44.257962 
L 179.198195 38.327649 
L 173.271067 32.978989 
L 169.484819 29.967936 
L 164.498112 26.444836 
L 159.393481 23.324784 
L 153.119197 20.118946 
L 146.721027 17.521828 
L 138.517878 15.131066 
L 128.464876 13.576609 
L 119.998113 13.411482 
L 110.596551 14.448952 
L 102.883353 16.276786 
L 95.227711 18.994685 
L 87.731734 22.5766 
L 84.382297 24.488983 
L 77.76392 28.874293 
L 71.365861 33.942175 
L 65.298372 39.588491 
L 60.06596 45.201546 
L 55.07601 51.291134 
L 50.964715 56.9328 
L 47.061699 62.898041 
L 44.133746 67.826787 
L 41.348068 72.937713 
L 39.170659 77.264035 
L 35.32313 85.770822 
L 31.859172 94.640743 
L 30.140564 99.607053 
L 28.542331 104.662997 
L 26.119139 113.398871 
L 24.05507 122.339862 
L 22.541753 130.351961 
L 21.316891 138.474207 
L 20.543309 145.07243 
L 19.960141 151.714555 
L 19.585168 158.017408 
L 19.381664 164.337941 
L 19.352679 170.960424 
L 19.51193 177.57874 
L 19.7805 182.957173 
L 20.173403 188.318377 
L 20.690164 193.655885 
L 21.330161 198.963262 
L 22.528433 206.906675 
L 24.002643 214.74495 
L 26.187516 224.206943 
L 27.781259 230.087672 
L 29.533875 235.865801 
L 32.471666 244.366496 
L 35.753075 252.579505 
L 37.90358 257.403304 
L 40.980324 263.690521 
L 44.263596 269.738138 
L 49.285204 277.915903 
L 54.683957 285.533867 
L 58.439504 290.234943 
L 62.338871 294.66473 
L 67.86416 300.242829 
L 72.704381 304.527002 
L 77.692436 308.410945 
L 82.593376 311.7441 
L 87.60314 314.690835 
L 98.605973 319.655607 
L 101.461356 320.624899 
L 111.187727 322.991668 
L 123.170871 323.985574 
L 137.35673 322.462029 
L 146.163637 320.010703 
L 151.135724 318.094151 
L 157.615742 314.989361 
L 163.945866 311.253042 
L 169.366582 307.458503 
L 174.63217 303.200749 
L 177.017495 301.072001 
L 183.454301 294.642795 
L 189.553267 287.510922 
L 192.62817 283.471695 
L 195.594402 279.253582 
L 199.458163 273.221368 
L 203.099806 266.885869 
L 206.88918 259.478898 
L 210.375006 251.743778 
L 212.628713 246.146185 
L 214.723343 240.411255 
L 216.655386 234.548504 
L 218.546703 228.1165 
L 220.242052 221.562712 
L 221.632336 215.405678 
L 222.849643 209.166772 
L 224.348392 199.666324 
L 225.446263 190.043404 
L 225.897563 184.421078 
L 226.211924 178.777812 
L 226.388928 173.121106 
L 226.353543 162.643404 
L 225.943303 153.60431 
L 225.182397 144.616474 
L 224.20498 136.632816 
L 223.077293 129.456609 
L 221.723839 122.368761 
L 220.656442 117.523162 
L 219.483495 112.73278 
L 218.206263 108.002784 
L 216.826126 103.338283 
L 214.766309 97.049836 
L 212.519518 90.907132 
L 209.101763 82.650514 
L 206.548319 77.15304 
L 203.839186 71.82587 
L 200.979405 66.678919 
L 197.974298 61.721764 
L 194.450108 56.416703 
L 189.50152 49.76101 
L 183.700467 42.961534 
L 177.591986 36.797538 
L 170.808564 30.986532 
L 163.464474 25.774421 
L 155.870558 21.442067 
L 147.159523 17.678921 
L 136.445614 14.688477 
L 118.423058 13.495409 
L 108.654119 14.825221 
L 101.284966 16.768503 
L 96.370186 18.530193 
L 86.817056 23.079138 
L 78.730746 28.181375 
L 70.961381 34.292018 
L 66.164786 38.728177 
L 62.309294 42.704465 
L 58.866879 46.595231 
L 55.535396 50.697523 
L 52.320618 55.004236 
L 47.662799 61.936691 
L 44.759233 66.737958 
L 41.991759 71.71678 
L 39.365196 76.864483 
L 36.884121 82.172102 
L 34.782045 87.07095 
L 31.810556 94.775405 
L 29.138176 102.722538 
L 27.736213 107.406715 
L 26.438236 112.157844 
L 25.245665 116.970732 
L 24.159803 121.840119 
L 23.062859 127.402874 
L 22.156456 132.69848 
L 21.374868 138.038658 
L 20.719066 143.416789 
L 20.189862 148.826211 
L 19.614747 157.390487 
L 19.356813 165.989402 
L 19.392133 173.529718 
L 19.695128 181.495772 
L 20.270457 189.427974 
L 20.808724 194.723473 
L 21.468409 199.98798 
L 22.248728 205.215234 
L 23.148753 210.399017 
L 24.239252 215.872302 
L 26.008384 223.500042 
L 28.039453 230.979531 
L 30.631789 239.194982 
L 33.540063 247.168906 
L 36.67219 254.689087 
L 40.240661 262.238421 
L 44.102542 269.455562 
L 49.106967 277.645059 
L 54.488852 285.277026 
L 58.046631 289.763979 
L 61.735072 294.006905 
L 64.769661 297.21444 
L 71.401753 303.425897 
L 78.327401 308.868994 
L 85.541222 313.53249 
L 90.458026 316.17263 
L 98.68784 319.685176 
L 107.082896 322.166489 
L 110.934325 322.947972 
L 125.406945 323.940137 
L 132.634969 323.296277 
L 139.26454 322.030916 
L 151.292073 318.027447 
L 158.177616 314.686559 
L 166.434154 309.582183 
L 174.151915 303.613813 
L 180.918839 297.300195 
L 187.342017 290.224647 
L 191.719425 284.699161 
L 197.087674 276.998853 
L 199.630266 272.937065 
L 202.074097 268.741096 
L 204.908569 263.465114 
L 207.586933 258.008711 
L 211.346895 249.394859 
L 213.166732 244.726807 
L 214.877133 239.966559 
L 217.2944 232.462053 
L 219.439815 224.773851 
L 220.650084 219.841381 
L 221.748399 214.850311 
L 222.733503 209.806357 
L 223.604268 204.715293 
L 224.701814 196.938953 
L 225.532696 189.08857 
L 226.035652 182.236444 
L 226.335415 175.357591 
L 226.41817 166.178021 
L 226.139219 157.007152 
L 225.705577 150.309617 
L 225.078944 143.646543 
L 224.077279 135.737194 
L 223.261713 130.532577 
L 222.327209 125.373148 
L 221.274875 120.265021 
L 220.105958 115.214248 
L 218.246446 108.14504 
L 215.43855 99.024603 
L 213.297434 92.960522 
L 210.97984 87.04422 
L 208.490293 81.287244 
L 205.833651 75.700833 
L 202.930337 70.140747 
L 199.861517 64.784387 
L 197.27617 60.62961 
L 192.443386 53.613547 
L 187.317146 47.082893 
L 182.894847 42.093426 
L 175.746787 35.115023 
L 168.240108 29.042688 
L 159.879856 23.601752 
L 156.556587 21.791894 
L 149.063611 18.396366 
L 141.421045 15.859577 
L 136.060617 14.613298 
L 128.468627 13.576912 
L 114.22604 13.895258 
L 105.979071 15.435575 
L 99.501001 17.364054 
L 92.83486 20.036257 
L 86.302169 23.368488 
L 79.84576 27.404956 
L 72.894439 32.652638 
L 68.992562 36.047695 
L 65.192965 39.694441 
L 61.502859 43.585956 
L 57.929247 47.714853 
L 54.400972 52.176289 
L 49.579102 58.977586 
L 46.339202 64.075519 
L 43.256713 69.388534 
L 39.1887 77.226868 
L 35.463042 85.439231 
L 32.849149 91.965044 
L 30.451579 98.675145 
L 27.671897 107.631966 
L 25.277474 116.835757 
L 24.057746 122.327016 
L 22.975266 127.882631 
L 21.710748 135.63271 
L 20.713231 143.46997 
L 19.907969 152.443024 
L 19.452641 161.471214 
L 19.342409 167.984936 
L 19.414408 174.499861 
L 19.663621 180.912106 
L 20.169577 188.27333 
L 20.908714 195.590048 
L 22.079581 204.150857 
L 23.56959 212.599333 
L 24.655292 217.785659 
L 25.861323 222.911819 
L 27.186204 227.971533 
L 28.628314 232.958604 
L 30.939077 240.092178 
L 34.179706 248.784464 
L 36.565045 254.446978 
L 39.11093 259.949957 
L 41.812624 265.283166 
L 44.665104 270.436686 
L 49.509752 278.255239 
L 53.724217 284.2578 
L 56.880051 288.337498 
L 60.142739 292.22347 
L 66.967387 299.389398 
L 70.529304 302.66743 
L 76.739433 307.708394 
L 83.164165 312.102767 
L 88.16841 314.995375 
L 95.464375 318.440467 
L 102.909978 321.068276 
L 104.984719 321.647301 
L 122.250217 323.983228 
L 128.818948 323.731028 
L 141.772663 321.380727 
L 147.277233 319.615596 
L 157.66314 314.964029 
L 164.252018 311.053801 
L 170.647181 306.476788 
L 174.218903 303.556504 
L 179.392333 298.820376 
L 184.372165 293.638329 
L 187.694596 289.802109 
L 190.910767 285.767277 
L 196.316619 278.174608 
L 201.016315 270.594661 
L 205.368975 262.56198 
L 207.669024 257.833342 
L 209.848656 252.978062 
L 212.16907 247.331953 
L 214.326662 241.542389 
L 216.101906 236.292703 
L 217.743258 230.945884 
L 219.670551 223.872106 
L 221.363557 216.664696 
L 222.643989 210.292115 
L 223.741233 203.8431 
L 224.497107 198.550184 
L 225.129564 193.220974 
L 225.637837 187.861943 
L 226.021308 182.4796 
L 226.328889 175.58095 
L 226.431484 168.668602 
L 226.431484 168.668602 
" clip-path="url(#p568cb9e79c)" style="fill: none; stroke: #0000ff; stroke-linecap: square"/>
   </g>
   <g id="patch_3">
    <path d="M 122.886445 330.197056 
L 122.886445 7.2 
" style="fill: none; stroke: #000000; stroke-width: 0.8; stroke-linejoin: miter; stroke-linecap: square"/>
   </g>
   <g id="patch_4">
    <path d="M 15.200628 168.668602 
L 230.573265 168.668602 
" style="fill: none; stroke: #000000; stroke-width: 0.8; stroke-linejoin: miter; stroke-linecap: square"/>
   </g>
  </g>
 </g>
 <defs>
  <clipPath id="p568cb9e79c">
   <rect x="15.200628" y="7.2" width="215.372637" height="322.997056"/>
  </clipPath>
 </defs>
</svg>
