<?xml version="1.0" encoding="utf-8" standalone="no"?>
<!DOCTYPE svg PUBLIC "-//W3C//DTD SVG 1.1//EN"
  "http://www.w3.org/Graphics/SVG/1.1/DTD/svg11.dtd">
<svg xmlns:xlink="http://www.w3.org/1999/xlink" width="241.565885pt" height="337.397177pt" viewBox="0 0 241.565885 337.397177" xmlns="http://www.w3.org/2000/svg" version="1.1">
 <metadata>
  <rdf:RDF xmlns:dc="http://purl.org/dc/elements/1.1/" xmlns:cc="http://creativecommons.org/ns#" xmlns:rdf="http://www.w3.org/1999/02/22-rdf-syntax-ns#">
   <cc:Work>
    <dc:type rdf:resource="http://purl.org/dc/dcmitype/StillImage"/>
    <dc:date>2025-03-30T00:13:15.373036</dc:date>
    <dc:format>image/svg+xml</dc:format>
    <dc:creator>
     <cc:Agent>
      <dc:title>Matplotlib v3.6.3, https://matplotlib.org/</dc:title>
     </cc:Agent>
    </dc:creator>
   </cc:Work>
  </rdf:RDF>
 </metadata>
 <defs>
  <style type="text/css">*{stroke-linejoin: round; stroke-linecap: butt}</style>
 </defs>
 <g id="figure_1">
  <g id="patch_1">
   <path d="M 0 337.397177 
L 241.565885 337.397177 
L 241.565885 0 
L 0 0 
z
" style="fill: #ffffff"/>
  </g>
  <g id="axes_1">
   <g id="patch_2">
    <path d="M 15.200601 330.197177 
L 230.555768 330.197177 
L 230.555768 7.2 
L 15.200601 7.2 
z
" style="fill: #ffffff"/>
   </g>
   <g id="matplotlib.axis_1">
    <g id="xtick_1">
     <g id="line2d_1">
      <defs>
       <path id="mcaf8bf793c" d="M 0 0 
L 0 3.5 
" style="stroke: #000000; stroke-width: 0.8"/>
      </defs>
      <g>
       <use xlink:href="#mcaf8bf793c" x="19.341406" y="168.681444" style="stroke: #000000; stroke-width: 0.8"/>
      </g>
     </g>
     <g id="text_1">
      <!-- −2.0 -->
      <g transform="translate(7.2 183.279882) scale(0.1 -0.1)">
       <defs>
        <path id="DejaVuSans-2212" d="M 678 2272 
L 4684 2272 
L 4684 1741 
L 678 1741 
L 678 2272 
z
" transform="scale(0.015625)"/>
        <path id="DejaVuSans-32" d="M 1228 531 
L 3431 531 
L 3431 0 
L 469 0 
L 469 531 
Q 828 903 1448 1529 
Q 2069 2156 2228 2338 
Q 2531 2678 2651 2914 
Q 2772 3150 2772 3378 
Q 2772 3750 2511 3984 
Q 2250 4219 1831 4219 
Q 1534 4219 1204 4116 
Q 875 4013 500 3803 
L 500 4441 
Q 881 4594 1212 4672 
Q 1544 4750 1819 4750 
Q 2544 4750 2975 4387 
Q 3406 4025 3406 3419 
Q 3406 3131 3298 2873 
Q 3191 2616 2906 2266 
Q 2828 2175 2409 1742 
Q 1991 1309 1228 531 
z
" transform="scale(0.015625)"/>
        <path id="DejaVuSans-2e" d="M 684 794 
L 1344 794 
L 1344 0 
L 684 0 
L 684 794 
z
" transform="scale(0.015625)"/>
        <path id="DejaVuSans-30" d="M 2034 4250 
Q 1547 4250 1301 3770 
Q 1056 3291 1056 2328 
Q 1056 1369 1301 889 
Q 1547 409 2034 409 
Q 2525 409 2770 889 
Q 3016 1369 3016 2328 
Q 3016 3291 2770 3770 
Q 2525 4250 2034 4250 
z
M 2034 4750 
Q 2819 4750 3233 4129 
Q 3647 3509 3647 2328 
Q 3647 1150 3233 529 
Q 2819 -91 2034 -91 
Q 1250 -91 836 529 
Q 422 1150 422 2328 
Q 422 3509 836 4129 
Q 1250 4750 2034 4750 
z
" transform="scale(0.015625)"/>
       </defs>
       <use xlink:href="#DejaVuSans-2212"/>
       <use xlink:href="#DejaVuSans-32" x="83.789062"/>
       <use xlink:href="#DejaVuSans-2e" x="147.412109"/>
       <use xlink:href="#DejaVuSans-30" x="179.199219"/>
      </g>
     </g>
    </g>
    <g id="xtick_2">
     <g id="line2d_2">
      <g>
       <use xlink:href="#mcaf8bf793c" x="45.225521" y="168.681444" style="stroke: #000000; stroke-width: 0.8"/>
      </g>
     </g>
     <g id="text_2">
      <!-- −1.5 -->
      <g transform="translate(33.084115 183.279882) scale(0.1 -0.1)">
       <defs>
        <path id="DejaVuSans-31" d="M 794 531 
L 1825 531 
L 1825 4091 
L 703 3866 
L 703 4441 
L 1819 4666 
L 2450 4666 
L 2450 531 
L 3481 531 
L 3481 0 
L 794 0 
L 794 531 
z
" transform="scale(0.015625)"/>
        <path id="DejaVuSans-35" d="M 691 4666 
L 3169 4666 
L 3169 4134 
L 1269 4134 
L 1269 2991 
Q 1406 3038 1543 3061 
Q 1681 3084 1819 3084 
Q 2600 3084 3056 2656 
Q 3513 2228 3513 1497 
Q 3513 744 3044 326 
Q 2575 -91 1722 -91 
Q 1428 -91 1123 -41 
Q 819 9 494 109 
L 494 744 
Q 775 591 1075 516 
Q 1375 441 1709 441 
Q 2250 441 2565 725 
Q 2881 1009 2881 1497 
Q 2881 1984 2565 2268 
Q 2250 2553 1709 2553 
Q 1456 2553 1204 2497 
Q 953 2441 691 2322 
L 691 4666 
z
" transform="scale(0.015625)"/>
       </defs>
       <use xlink:href="#DejaVuSans-2212"/>
       <use xlink:href="#DejaVuSans-31" x="83.789062"/>
       <use xlink:href="#DejaVuSans-2e" x="147.412109"/>
       <use xlink:href="#DejaVuSans-35" x="179.199219"/>
      </g>
     </g>
    </g>
    <g id="xtick_3">
     <g id="line2d_3">
      <g>
       <use xlink:href="#mcaf8bf793c" x="71.109635" y="168.681444" style="stroke: #000000; stroke-width: 0.8"/>
      </g>
     </g>
     <g id="text_3">
      <!-- −1.0 -->
      <g transform="translate(58.968229 183.279882) scale(0.1 -0.1)">
       <use xlink:href="#DejaVuSans-2212"/>
       <use xlink:href="#DejaVuSans-31" x="83.789062"/>
       <use xlink:href="#DejaVuSans-2e" x="147.412109"/>
       <use xlink:href="#DejaVuSans-30" x="179.199219"/>
      </g>
     </g>
    </g>
    <g id="xtick_4">
     <g id="line2d_4">
      <g>
       <use xlink:href="#mcaf8bf793c" x="96.99375" y="168.681444" style="stroke: #000000; stroke-width: 0.8"/>
      </g>
     </g>
     <g id="text_4">
      <!-- −0.5 -->
      <g transform="translate(84.852344 183.279882) scale(0.1 -0.1)">
       <use xlink:href="#DejaVuSans-2212"/>
       <use xlink:href="#DejaVuSans-30" x="83.789062"/>
       <use xlink:href="#DejaVuSans-2e" x="147.412109"/>
       <use xlink:href="#DejaVuSans-35" x="179.199219"/>
      </g>
     </g>
    </g>
    <g id="xtick_5">
     <g id="line2d_5">
      <g>
       <use xlink:href="#mcaf8bf793c" x="122.877864" y="168.681444" style="stroke: #000000; stroke-width: 0.8"/>
      </g>
     </g>
    </g>
    <g id="xtick_6">
     <g id="line2d_6">
      <g>
       <use xlink:href="#mcaf8bf793c" x="148.761979" y="168.681444" style="stroke: #000000; stroke-width: 0.8"/>
      </g>
     </g>
     <g id="text_5">
      <!-- 0.5 -->
      <g transform="translate(140.810416 183.279882) scale(0.1 -0.1)">
       <use xlink:href="#DejaVuSans-30"/>
       <use xlink:href="#DejaVuSans-2e" x="63.623047"/>
       <use xlink:href="#DejaVuSans-35" x="95.410156"/>
      </g>
     </g>
    </g>
    <g id="xtick_7">
     <g id="line2d_7">
      <g>
       <use xlink:href="#mcaf8bf793c" x="174.646093" y="168.681444" style="stroke: #000000; stroke-width: 0.8"/>
      </g>
     </g>
     <g id="text_6">
      <!-- 1.0 -->
      <g transform="translate(166.694531 183.279882) scale(0.1 -0.1)">
       <use xlink:href="#DejaVuSans-31"/>
       <use xlink:href="#DejaVuSans-2e" x="63.623047"/>
       <use xlink:href="#DejaVuSans-30" x="95.410156"/>
      </g>
     </g>
    </g>
    <g id="xtick_8">
     <g id="line2d_8">
      <g>
       <use xlink:href="#mcaf8bf793c" x="200.530208" y="168.681444" style="stroke: #000000; stroke-width: 0.8"/>
      </g>
     </g>
     <g id="text_7">
      <!-- 1.5 -->
      <g transform="translate(192.578645 183.279882) scale(0.1 -0.1)">
       <use xlink:href="#DejaVuSans-31"/>
       <use xlink:href="#DejaVuSans-2e" x="63.623047"/>
       <use xlink:href="#DejaVuSans-35" x="95.410156"/>
      </g>
     </g>
    </g>
    <g id="xtick_9">
     <g id="line2d_9">
      <g>
       <use xlink:href="#mcaf8bf793c" x="226.414322" y="168.681444" style="stroke: #000000; stroke-width: 0.8"/>
      </g>
     </g>
     <g id="text_8">
      <!-- 2.0 -->
      <g transform="translate(218.46276 183.279882) scale(0.1 -0.1)">
       <use xlink:href="#DejaVuSans-32"/>
       <use xlink:href="#DejaVuSans-2e" x="63.623047"/>
       <use xlink:href="#DejaVuSans-30" x="95.410156"/>
      </g>
     </g>
    </g>
    <g id="xtick_10">
     <g id="line2d_10">
      <defs>
       <path id="me78c18b6c2" d="M 0 0 
L 0 2 
" style="stroke: #000000; stroke-width: 0.6"/>
      </defs>
      <g>
       <use xlink:href="#me78c18b6c2" x="24.518229" y="168.681444" style="stroke: #000000; stroke-width: 0.6"/>
      </g>
     </g>
    </g>
    <g id="xtick_11">
     <g id="line2d_11">
      <g>
       <use xlink:href="#me78c18b6c2" x="29.695052" y="168.681444" style="stroke: #000000; stroke-width: 0.6"/>
      </g>
     </g>
    </g>
    <g id="xtick_12">
     <g id="line2d_12">
      <g>
       <use xlink:href="#me78c18b6c2" x="34.871875" y="168.681444" style="stroke: #000000; stroke-width: 0.6"/>
      </g>
     </g>
    </g>
    <g id="xtick_13">
     <g id="line2d_13">
      <g>
       <use xlink:href="#me78c18b6c2" x="40.048698" y="168.681444" style="stroke: #000000; stroke-width: 0.6"/>
      </g>
     </g>
    </g>
    <g id="xtick_14">
     <g id="line2d_14">
      <g>
       <use xlink:href="#me78c18b6c2" x="50.402344" y="168.681444" style="stroke: #000000; stroke-width: 0.6"/>
      </g>
     </g>
    </g>
    <g id="xtick_15">
     <g id="line2d_15">
      <g>
       <use xlink:href="#me78c18b6c2" x="55.579167" y="168.681444" style="stroke: #000000; stroke-width: 0.6"/>
      </g>
     </g>
    </g>
    <g id="xtick_16">
     <g id="line2d_16">
      <g>
       <use xlink:href="#me78c18b6c2" x="60.755989" y="168.681444" style="stroke: #000000; stroke-width: 0.6"/>
      </g>
     </g>
    </g>
    <g id="xtick_17">
     <g id="line2d_17">
      <g>
       <use xlink:href="#me78c18b6c2" x="65.932812" y="168.681444" style="stroke: #000000; stroke-width: 0.6"/>
      </g>
     </g>
    </g>
    <g id="xtick_18">
     <g id="line2d_18">
      <g>
       <use xlink:href="#me78c18b6c2" x="76.286458" y="168.681444" style="stroke: #000000; stroke-width: 0.6"/>
      </g>
     </g>
    </g>
    <g id="xtick_19">
     <g id="line2d_19">
      <g>
       <use xlink:href="#me78c18b6c2" x="81.463281" y="168.681444" style="stroke: #000000; stroke-width: 0.6"/>
      </g>
     </g>
    </g>
    <g id="xtick_20">
     <g id="line2d_20">
      <g>
       <use xlink:href="#me78c18b6c2" x="86.640104" y="168.681444" style="stroke: #000000; stroke-width: 0.6"/>
      </g>
     </g>
    </g>
    <g id="xtick_21">
     <g id="line2d_21">
      <g>
       <use xlink:href="#me78c18b6c2" x="91.816927" y="168.681444" style="stroke: #000000; stroke-width: 0.6"/>
      </g>
     </g>
    </g>
    <g id="xtick_22">
     <g id="line2d_22">
      <g>
       <use xlink:href="#me78c18b6c2" x="102.170573" y="168.681444" style="stroke: #000000; stroke-width: 0.6"/>
      </g>
     </g>
    </g>
    <g id="xtick_23">
     <g id="line2d_23">
      <g>
       <use xlink:href="#me78c18b6c2" x="107.347396" y="168.681444" style="stroke: #000000; stroke-width: 0.6"/>
      </g>
     </g>
    </g>
    <g id="xtick_24">
     <g id="line2d_24">
      <g>
       <use xlink:href="#me78c18b6c2" x="112.524219" y="168.681444" style="stroke: #000000; stroke-width: 0.6"/>
      </g>
     </g>
    </g>
    <g id="xtick_25">
     <g id="line2d_25">
      <g>
       <use xlink:href="#me78c18b6c2" x="117.701041" y="168.681444" style="stroke: #000000; stroke-width: 0.6"/>
      </g>
     </g>
    </g>
    <g id="xtick_26">
     <g id="line2d_26">
      <g>
       <use xlink:href="#me78c18b6c2" x="128.054687" y="168.681444" style="stroke: #000000; stroke-width: 0.6"/>
      </g>
     </g>
    </g>
    <g id="xtick_27">
     <g id="line2d_27">
      <g>
       <use xlink:href="#me78c18b6c2" x="133.23151" y="168.681444" style="stroke: #000000; stroke-width: 0.6"/>
      </g>
     </g>
    </g>
    <g id="xtick_28">
     <g id="line2d_28">
      <g>
       <use xlink:href="#me78c18b6c2" x="138.408333" y="168.681444" style="stroke: #000000; stroke-width: 0.6"/>
      </g>
     </g>
    </g>
    <g id="xtick_29">
     <g id="line2d_29">
      <g>
       <use xlink:href="#me78c18b6c2" x="143.585156" y="168.681444" style="stroke: #000000; stroke-width: 0.6"/>
      </g>
     </g>
    </g>
    <g id="xtick_30">
     <g id="line2d_30">
      <g>
       <use xlink:href="#me78c18b6c2" x="153.938802" y="168.681444" style="stroke: #000000; stroke-width: 0.6"/>
      </g>
     </g>
    </g>
    <g id="xtick_31">
     <g id="line2d_31">
      <g>
       <use xlink:href="#me78c18b6c2" x="159.115625" y="168.681444" style="stroke: #000000; stroke-width: 0.6"/>
      </g>
     </g>
    </g>
    <g id="xtick_32">
     <g id="line2d_32">
      <g>
       <use xlink:href="#me78c18b6c2" x="164.292448" y="168.681444" style="stroke: #000000; stroke-width: 0.6"/>
      </g>
     </g>
    </g>
    <g id="xtick_33">
     <g id="line2d_33">
      <g>
       <use xlink:href="#me78c18b6c2" x="169.46927" y="168.681444" style="stroke: #000000; stroke-width: 0.6"/>
      </g>
     </g>
    </g>
    <g id="xtick_34">
     <g id="line2d_34">
      <g>
       <use xlink:href="#me78c18b6c2" x="179.822916" y="168.681444" style="stroke: #000000; stroke-width: 0.6"/>
      </g>
     </g>
    </g>
    <g id="xtick_35">
     <g id="line2d_35">
      <g>
       <use xlink:href="#me78c18b6c2" x="184.999739" y="168.681444" style="stroke: #000000; stroke-width: 0.6"/>
      </g>
     </g>
    </g>
    <g id="xtick_36">
     <g id="line2d_36">
      <g>
       <use xlink:href="#me78c18b6c2" x="190.176562" y="168.681444" style="stroke: #000000; stroke-width: 0.6"/>
      </g>
     </g>
    </g>
    <g id="xtick_37">
     <g id="line2d_37">
      <g>
       <use xlink:href="#me78c18b6c2" x="195.353385" y="168.681444" style="stroke: #000000; stroke-width: 0.6"/>
      </g>
     </g>
    </g>
    <g id="xtick_38">
     <g id="line2d_38">
      <g>
       <use xlink:href="#me78c18b6c2" x="205.707031" y="168.681444" style="stroke: #000000; stroke-width: 0.6"/>
      </g>
     </g>
    </g>
    <g id="xtick_39">
     <g id="line2d_39">
      <g>
       <use xlink:href="#me78c18b6c2" x="210.883854" y="168.681444" style="stroke: #000000; stroke-width: 0.6"/>
      </g>
     </g>
    </g>
    <g id="xtick_40">
     <g id="line2d_40">
      <g>
       <use xlink:href="#me78c18b6c2" x="216.060677" y="168.681444" style="stroke: #000000; stroke-width: 0.6"/>
      </g>
     </g>
    </g>
    <g id="xtick_41">
     <g id="line2d_41">
      <g>
       <use xlink:href="#me78c18b6c2" x="221.2375" y="168.681444" style="stroke: #000000; stroke-width: 0.6"/>
      </g>
     </g>
    </g>
   </g>
   <g id="matplotlib.axis_2">
    <g id="ytick_1">
     <g id="line2d_42">
      <defs>
       <path id="m9ff7acfb51" d="M 0 0 
L -3.5 0 
" style="stroke: #000000; stroke-width: 0.8"/>
      </defs>
      <g>
       <use xlink:href="#m9ff7acfb51" x="122.877864" y="323.986132" style="stroke: #000000; stroke-width: 0.8"/>
      </g>
     </g>
     <g id="text_9">
      <!-- −3 -->
      <g transform="translate(101.135677 327.78535) scale(0.1 -0.1)">
       <defs>
        <path id="DejaVuSans-33" d="M 2597 2516 
Q 3050 2419 3304 2112 
Q 3559 1806 3559 1356 
Q 3559 666 3084 287 
Q 2609 -91 1734 -91 
Q 1441 -91 1130 -33 
Q 819 25 488 141 
L 488 750 
Q 750 597 1062 519 
Q 1375 441 1716 441 
Q 2309 441 2620 675 
Q 2931 909 2931 1356 
Q 2931 1769 2642 2001 
Q 2353 2234 1838 2234 
L 1294 2234 
L 1294 2753 
L 1863 2753 
Q 2328 2753 2575 2939 
Q 2822 3125 2822 3475 
Q 2822 3834 2567 4026 
Q 2313 4219 1838 4219 
Q 1578 4219 1281 4162 
Q 984 4106 628 3988 
L 628 4550 
Q 988 4650 1302 4700 
Q 1616 4750 1894 4750 
Q 2613 4750 3031 4423 
Q 3450 4097 3450 3541 
Q 3450 3153 3228 2886 
Q 3006 2619 2597 2516 
z
" transform="scale(0.015625)"/>
       </defs>
       <use xlink:href="#DejaVuSans-2212"/>
       <use xlink:href="#DejaVuSans-33" x="83.789062"/>
      </g>
     </g>
    </g>
    <g id="ytick_2">
     <g id="line2d_43">
      <g>
       <use xlink:href="#m9ff7acfb51" x="122.877864" y="272.217903" style="stroke: #000000; stroke-width: 0.8"/>
      </g>
     </g>
     <g id="text_10">
      <!-- −2 -->
      <g transform="translate(101.135677 276.017121) scale(0.1 -0.1)">
       <use xlink:href="#DejaVuSans-2212"/>
       <use xlink:href="#DejaVuSans-32" x="83.789062"/>
      </g>
     </g>
    </g>
    <g id="ytick_3">
     <g id="line2d_44">
      <g>
       <use xlink:href="#m9ff7acfb51" x="122.877864" y="220.449674" style="stroke: #000000; stroke-width: 0.8"/>
      </g>
     </g>
     <g id="text_11">
      <!-- −1 -->
      <g transform="translate(101.135677 224.248892) scale(0.1 -0.1)">
       <use xlink:href="#DejaVuSans-2212"/>
       <use xlink:href="#DejaVuSans-31" x="83.789062"/>
      </g>
     </g>
    </g>
    <g id="ytick_4">
     <g id="line2d_45">
      <g>
       <use xlink:href="#m9ff7acfb51" x="122.877864" y="168.681444" style="stroke: #000000; stroke-width: 0.8"/>
      </g>
     </g>
    </g>
    <g id="ytick_5">
     <g id="line2d_46">
      <g>
       <use xlink:href="#m9ff7acfb51" x="122.877864" y="116.913215" style="stroke: #000000; stroke-width: 0.8"/>
      </g>
     </g>
     <g id="text_12">
      <!-- 1 -->
      <g transform="translate(109.515364 120.712434) scale(0.1 -0.1)">
       <use xlink:href="#DejaVuSans-31"/>
      </g>
     </g>
    </g>
    <g id="ytick_6">
     <g id="line2d_47">
      <g>
       <use xlink:href="#m9ff7acfb51" x="122.877864" y="65.144986" style="stroke: #000000; stroke-width: 0.8"/>
      </g>
     </g>
     <g id="text_13">
      <!-- 2 -->
      <g transform="translate(109.515364 68.944205) scale(0.1 -0.1)">
       <use xlink:href="#DejaVuSans-32"/>
      </g>
     </g>
    </g>
    <g id="ytick_7">
     <g id="line2d_48">
      <g>
       <use xlink:href="#m9ff7acfb51" x="122.877864" y="13.376757" style="stroke: #000000; stroke-width: 0.8"/>
      </g>
     </g>
     <g id="text_14">
      <!-- 3 -->
      <g transform="translate(109.515364 17.175976) scale(0.1 -0.1)">
       <use xlink:href="#DejaVuSans-33"/>
      </g>
     </g>
    </g>
    <g id="ytick_8">
     <g id="line2d_49">
      <defs>
       <path id="mc476013620" d="M 0 0 
L -2 0 
" style="stroke: #000000; stroke-width: 0.6"/>
      </defs>
      <g>
       <use xlink:href="#mc476013620" x="122.877864" y="313.632486" style="stroke: #000000; stroke-width: 0.6"/>
      </g>
     </g>
    </g>
    <g id="ytick_9">
     <g id="line2d_50">
      <g>
       <use xlink:href="#mc476013620" x="122.877864" y="303.27884" style="stroke: #000000; stroke-width: 0.6"/>
      </g>
     </g>
    </g>
    <g id="ytick_10">
     <g id="line2d_51">
      <g>
       <use xlink:href="#mc476013620" x="122.877864" y="292.925194" style="stroke: #000000; stroke-width: 0.6"/>
      </g>
     </g>
    </g>
    <g id="ytick_11">
     <g id="line2d_52">
      <g>
       <use xlink:href="#mc476013620" x="122.877864" y="282.571548" style="stroke: #000000; stroke-width: 0.6"/>
      </g>
     </g>
    </g>
    <g id="ytick_12">
     <g id="line2d_53">
      <g>
       <use xlink:href="#mc476013620" x="122.877864" y="261.864257" style="stroke: #000000; stroke-width: 0.6"/>
      </g>
     </g>
    </g>
    <g id="ytick_13">
     <g id="line2d_54">
      <g>
       <use xlink:href="#mc476013620" x="122.877864" y="251.510611" style="stroke: #000000; stroke-width: 0.6"/>
      </g>
     </g>
    </g>
    <g id="ytick_14">
     <g id="line2d_55">
      <g>
       <use xlink:href="#mc476013620" x="122.877864" y="241.156965" style="stroke: #000000; stroke-width: 0.6"/>
      </g>
     </g>
    </g>
    <g id="ytick_15">
     <g id="line2d_56">
      <g>
       <use xlink:href="#mc476013620" x="122.877864" y="230.803319" style="stroke: #000000; stroke-width: 0.6"/>
      </g>
     </g>
    </g>
    <g id="ytick_16">
     <g id="line2d_57">
      <g>
       <use xlink:href="#mc476013620" x="122.877864" y="210.096028" style="stroke: #000000; stroke-width: 0.6"/>
      </g>
     </g>
    </g>
    <g id="ytick_17">
     <g id="line2d_58">
      <g>
       <use xlink:href="#mc476013620" x="122.877864" y="199.742382" style="stroke: #000000; stroke-width: 0.6"/>
      </g>
     </g>
    </g>
    <g id="ytick_18">
     <g id="line2d_59">
      <g>
       <use xlink:href="#mc476013620" x="122.877864" y="189.388736" style="stroke: #000000; stroke-width: 0.6"/>
      </g>
     </g>
    </g>
    <g id="ytick_19">
     <g id="line2d_60">
      <g>
       <use xlink:href="#mc476013620" x="122.877864" y="179.03509" style="stroke: #000000; stroke-width: 0.6"/>
      </g>
     </g>
    </g>
    <g id="ytick_20">
     <g id="line2d_61">
      <g>
       <use xlink:href="#mc476013620" x="122.877864" y="158.327799" style="stroke: #000000; stroke-width: 0.6"/>
      </g>
     </g>
    </g>
    <g id="ytick_21">
     <g id="line2d_62">
      <g>
       <use xlink:href="#mc476013620" x="122.877864" y="147.974153" style="stroke: #000000; stroke-width: 0.6"/>
      </g>
     </g>
    </g>
    <g id="ytick_22">
     <g id="line2d_63">
      <g>
       <use xlink:href="#mc476013620" x="122.877864" y="137.620507" style="stroke: #000000; stroke-width: 0.6"/>
      </g>
     </g>
    </g>
    <g id="ytick_23">
     <g id="line2d_64">
      <g>
       <use xlink:href="#mc476013620" x="122.877864" y="127.266861" style="stroke: #000000; stroke-width: 0.6"/>
      </g>
     </g>
    </g>
    <g id="ytick_24">
     <g id="line2d_65">
      <g>
       <use xlink:href="#mc476013620" x="122.877864" y="106.55957" style="stroke: #000000; stroke-width: 0.6"/>
      </g>
     </g>
    </g>
    <g id="ytick_25">
     <g id="line2d_66">
      <g>
       <use xlink:href="#mc476013620" x="122.877864" y="96.205924" style="stroke: #000000; stroke-width: 0.6"/>
      </g>
     </g>
    </g>
    <g id="ytick_26">
     <g id="line2d_67">
      <g>
       <use xlink:href="#mc476013620" x="122.877864" y="85.852278" style="stroke: #000000; stroke-width: 0.6"/>
      </g>
     </g>
    </g>
    <g id="ytick_27">
     <g id="line2d_68">
      <g>
       <use xlink:href="#mc476013620" x="122.877864" y="75.498632" style="stroke: #000000; stroke-width: 0.6"/>
      </g>
     </g>
    </g>
    <g id="ytick_28">
     <g id="line2d_69">
      <g>
       <use xlink:href="#mc476013620" x="122.877864" y="54.791341" style="stroke: #000000; stroke-width: 0.6"/>
      </g>
     </g>
    </g>
    <g id="ytick_29">
     <g id="line2d_70">
      <g>
       <use xlink:href="#mc476013620" x="122.877864" y="44.437695" style="stroke: #000000; stroke-width: 0.6"/>
      </g>
     </g>
    </g>
    <g id="ytick_30">
     <g id="line2d_71">
      <g>
       <use xlink:href="#mc476013620" x="122.877864" y="34.084049" style="stroke: #000000; stroke-width: 0.6"/>
      </g>
     </g>
    </g>
    <g id="ytick_31">
     <g id="line2d_72">
      <g>
       <use xlink:href="#mc476013620" x="122.877864" y="23.730403" style="stroke: #000000; stroke-width: 0.6"/>
      </g>
     </g>
    </g>
   </g>
   <g id="line2d_73">
    <path d="M 226.414322 168.681444 
L 226.314668 161.869094 
L 226.015896 155.069858 
L 225.561196 148.785564 
L 224.936386 142.534231 
L 224.198775 136.725062 
L 223.31426 130.962226 
L 221.537902 121.580603 
L 219.372481 112.384721 
L 217.302693 104.97558 
L 214.980262 97.736891 
L 213.28728 92.995546 
L 211.485861 88.344979 
L 209.578163 83.79077 
L 207.566477 79.338378 
L 205.359978 74.808536 
L 203.045848 70.40119 
L 199.274336 63.859697 
L 195.265915 57.64326 
L 192.694108 53.997736 
L 189.27647 49.51852 
L 185.731251 45.268267 
L 178.997117 38.169138 
L 171.908318 31.894827 
L 168.867792 29.538961 
L 163.128241 25.592881 
L 157.239014 22.178897 
L 150.037263 18.815265 
L 136.600563 14.746904 
L 129.391312 13.684381 
L 120.688468 13.411484 
L 108.08257 14.970615 
L 94.777924 19.205925 
L 92.821351 20.064792 
L 87.034401 22.98021 
L 81.372059 26.402145 
L 75.788058 30.369176 
L 70.371753 34.828766 
L 65.81674 39.091286 
L 61.415153 43.702247 
L 57.790573 47.901702 
L 54.665166 51.846696 
L 51.64593 55.973539 
L 48.737565 60.275809 
L 45.944596 64.746809 
L 42.303865 71.151117 
L 39.461281 76.685186 
L 36.787493 82.405412 
L 33.359438 90.649007 
L 31.418969 95.887872 
L 29.614696 101.235138 
L 27.949308 106.682843 
L 26.425284 112.222874 
L 24.996642 118.056399 
L 23.160606 126.889106 
L 21.678471 135.870137 
L 20.951048 141.402785 
L 20.358013 146.971399 
L 19.888441 152.737864 
L 19.562972 158.526638 
L 19.382062 164.32962 
L 19.404125 174.086306 
L 19.632062 180.31032 
L 20.026324 186.515601 
L 20.586273 192.692152 
L 21.311008 198.830023 
L 22.205275 204.956269 
L 23.263703 211.023363 
L 24.468566 216.948081 
L 25.829975 222.796017 
L 27.991335 230.824632 
L 30.447627 238.660091 
L 33.064436 245.947407 
L 35.936363 253.015248 
L 37.953678 257.519958 
L 40.074681 261.9162 
L 44.31293 269.8325 
L 48.886957 277.316492 
L 51.841907 281.667304 
L 54.910469 285.837411 
L 59.171676 291.106807 
L 63.614133 296.027895 
L 67.659718 300.055709 
L 71.826749 303.794579 
L 77.69227 308.415605 
L 83.285496 312.182475 
L 89.017558 315.446137 
L 97.437416 319.224823 
L 104.525321 321.526825 
L 119.72182 323.913962 
L 122.631675 323.985693 
L 136.316247 322.672412 
L 145.225539 320.325284 
L 152.729001 317.391204 
L 158.515597 314.496183 
L 164.17849 311.095022 
L 170.271673 306.759887 
L 176.347141 301.673466 
L 182.181145 295.986463 
L 185.812954 292.000901 
L 191.869742 284.482212 
L 194.751055 280.469618 
L 197.528728 276.295826 
L 200.768731 270.99872 
L 203.841844 265.482386 
L 207.000072 259.220484 
L 209.94327 252.727147 
L 211.752898 248.351449 
L 213.797001 242.980803 
L 215.696938 237.492344 
L 217.449696 231.894776 
L 219.052497 226.196973 
L 220.617842 219.916819 
L 222.267704 212.193285 
L 223.646515 204.351088 
L 224.566811 197.889347 
L 225.303036 191.374735 
L 225.8229 185.257488 
L 226.180452 179.114106 
L 226.37513 172.954274 
L 226.322512 162.142573 
L 225.870157 152.77962 
L 225.041501 143.474768 
L 223.893902 134.622579 
L 222.293266 125.301192 
L 220.310735 116.146445 
L 218.487873 109.085472 
L 216.43774 102.166163 
L 213.447883 93.428821 
L 210.095835 84.992416 
L 207.142374 78.440635 
L 203.970379 72.122887 
L 201.15374 67.027412 
L 198.19491 62.116596 
L 195.384854 57.818001 
L 190.115683 50.582053 
L 184.526407 43.908352 
L 180.546303 39.697585 
L 176.438586 35.772242 
L 168.618449 29.354156 
L 163.061061 25.550403 
L 157.588353 22.364305 
L 152.004058 19.64859 
L 145.633636 17.174219 
L 130.097448 13.754783 
L 118.010614 13.548459 
L 110.960969 14.4089 
L 105.222293 15.651455 
L 98.656837 17.686196 
L 92.192934 20.35402 
L 85.999436 23.562513 
L 78.86872 28.105006 
L 73.926112 31.83142 
L 69.123242 35.94849 
L 62.298695 42.735363 
L 57.45597 48.309141 
L 52.840637 54.301306 
L 49.222428 59.53467 
L 45.777807 65.025266 
L 43.333409 69.267789 
L 40.992707 73.63991 
L 38.758754 78.135931 
L 36.63446 82.749989 
L 34.636596 87.441845 
L 32.752124 92.238097 
L 30.88427 97.419972 
L 29.14877 102.704374 
L 27.701936 107.54212 
L 26.36604 112.45113 
L 24.367142 120.882591 
L 22.695311 129.472748 
L 21.816319 134.927702 
L 21.069292 140.42673 
L 20.455205 145.962653 
L 19.97486 151.528242 
L 19.510124 159.818933 
L 19.342047 168.135059 
L 19.423273 174.856222 
L 19.698325 181.565816 
L 20.126555 187.771356 
L 20.720592 193.94609 
L 21.83895 202.587283 
L 23.281897 211.119553 
L 24.415671 216.704753 
L 25.596804 221.845675 
L 26.897194 226.921424 
L 28.315245 231.925777 
L 29.84922 236.852599 
L 31.708807 242.288528 
L 33.709497 247.610534 
L 35.592799 252.212934 
L 37.581635 256.714339 
L 39.842798 261.451029 
L 42.220806 266.057177 
L 44.712311 270.526302 
L 47.313808 274.852114 
L 51.122064 280.63917 
L 55.574466 286.696757 
L 60.253723 292.356559 
L 64.840602 297.292553 
L 70.219176 302.399194 
L 75.796791 307.000402 
L 83.788225 312.492244 
L 90.71004 316.300264 
L 99.035058 319.812074 
L 107.94651 322.362669 
L 116.972604 323.733318 
L 125.77534 323.925305 
L 133.699027 323.135568 
L 143.638268 320.832056 
L 154.093937 316.759291 
L 163.401612 311.596293 
L 168.378148 308.185657 
L 173.22762 304.385444 
L 175.783052 302.18009 
L 182.932658 295.191305 
L 186.357399 291.371422 
L 191.639834 284.789483 
L 195.887724 278.79982 
L 199.904121 272.461002 
L 204.086254 265.020638 
L 207.552493 258.054327 
L 210.75346 250.808025 
L 213.541471 243.680074 
L 216.072758 236.339758 
L 217.481441 231.787807 
L 218.791342 227.169963 
L 220.001091 222.491046 
L 221.109426 217.755942 
L 222.36771 211.675978 
L 223.458819 205.523769 
L 224.369398 199.395449 
L 225.130096 193.066451 
L 225.715459 186.695639 
L 226.124486 180.293938 
L 226.356473 173.872325 
L 226.389688 165.293797 
L 225.874458 152.842424 
L 225.174301 144.717228 
L 224.189465 136.658722 
L 222.841774 128.236623 
L 221.183168 119.940319 
L 219.255416 111.935318 
L 217.0382 104.100751 
L 214.503235 96.360447 
L 212.532581 91.001864 
L 210.422714 85.763899 
L 208.176909 80.654687 
L 205.798654 75.682161 
L 201.722875 68.021917 
L 197.771847 61.447814 
L 193.577555 55.222016 
L 191.831471 52.829401 
L 187.181071 46.960388 
L 182.309112 41.510767 
L 176.400134 35.737393 
L 170.24286 30.580758 
L 162.184322 25.003676 
L 155.326463 21.200955 
L 148.58245 18.239054 
L 141.72003 15.970166 
L 134.819971 14.413287 
L 129.550757 13.699642 
L 117.857256 13.559456 
L 105.200452 15.657128 
L 95.563187 18.878775 
L 88.921279 21.96681 
L 82.785181 25.493304 
L 76.810575 29.596554 
L 70.915332 34.352334 
L 64.853062 40.057687 
L 61.116551 44.033896 
L 57.500964 48.254152 
L 54.013377 52.710193 
L 50.660621 57.393293 
L 47.420927 62.339497 
L 43.544345 68.889263 
L 39.920083 75.756418 
L 36.83732 82.293648 
L 33.983281 89.060528 
L 31.486895 95.696173 
L 29.904861 100.339713 
L 28.42765 105.060306 
L 27.056929 109.852629 
L 25.794242 114.711279 
L 24.640903 119.63127 
L 23.598345 124.606574 
L 22.668863 129.625114 
L 21.852096 134.687584 
L 21.148962 139.788291 
L 20.560253 144.921496 
L 19.855046 153.230935 
L 19.449541 161.58532 
L 19.3425 169.395311 
L 19.497401 177.203496 
L 19.818574 183.574627 
L 20.226252 188.942259 
L 20.758142 194.285374 
L 21.413601 199.597508 
L 22.191834 204.872232 
L 23.517575 212.344872 
L 25.089641 219.709266 
L 26.832087 226.679421 
L 28.795197 233.516327 
L 30.664178 239.299977 
L 32.691097 244.962677 
L 34.99874 250.799529 
L 37.416189 256.352565 
L 39.989489 261.745722 
L 42.821502 267.166205 
L 45.810932 272.393034 
L 48.951903 277.41593 
L 52.238237 282.225017 
L 55.38589 286.454195 
L 58.64597 290.487188 
L 64.370302 296.812208 
L 68.647472 300.978237 
L 73.056214 304.823293 
L 78.705734 309.142817 
L 84.520941 312.935475 
L 92.492076 317.147365 
L 94.815483 318.172839 
L 104.255093 321.453264 
L 113.85781 323.395641 
L 120.093915 323.929979 
L 129.533073 323.664957 
L 140.538286 321.710175 
L 143.664718 320.82393 
L 151.328047 318.007822 
L 158.826161 314.324555 
L 165.796505 310.014469 
L 170.943508 306.236368 
L 175.943282 302.036924 
L 180.595627 297.615655 
L 185.084656 292.82956 
L 189.068571 288.104325 
L 192.89321 283.091721 
L 197.119572 276.930813 
L 201.105392 270.419181 
L 203.436774 266.239815 
L 205.890026 261.497139 
L 208.219258 256.615797 
L 210.374105 251.714351 
L 212.403901 246.694234 
L 214.305747 241.562621 
L 216.076924 236.326846 
L 218.054141 229.819549 
L 219.829554 223.182619 
L 221.946541 213.811144 
L 223.622629 204.502577 
L 224.910391 195.055936 
L 225.39109 190.461768 
L 225.838339 185.04031 
L 226.158198 179.598613 
L 226.350271 174.143408 
L 226.414322 168.681444 
L 226.414322 168.681444 
" clip-path="url(#pd54475c38e)" style="fill: none; stroke: #0000ff; stroke-linecap: square"/>
   </g>
   <g id="patch_3">
    <path d="M 122.877864 330.197177 
L 122.877864 7.2 
" style="fill: none; stroke: #000000; stroke-width: 0.8; stroke-linejoin: miter; stroke-linecap: square"/>
   </g>
   <g id="patch_4">
    <path d="M 15.200601 168.681444 
L 230.555768 168.681444 
" style="fill: none; stroke: #000000; stroke-width: 0.8; stroke-linejoin: miter; stroke-linecap: square"/>
   </g>
  </g>
 </g>
 <defs>
  <clipPath id="pd54475c38e">
   <rect x="15.200601" y="7.2" width="215.355166" height="322.997177"/>
  </clipPath>
 </defs>
</svg>
