<svg xmlns="http://www.w3.org/2000/svg" xmlns:xlink="http://www.w3.org/1999/xlink" version="1.1" width="214" height="178" viewBox="0 0 214 178">
<defs>
<path id="font_1_3" d="M.45999146 .31976319C.45999146 .39982606 .45498658 .47988893 .41999818 .5539398 .37399293 .65000918 .2919922 .6660156 .25 .6660156 .18998719 .6660156 .116989139 .64001467 .07598877 .54693606 .04399109 .47789 .038986207 .39982606 .038986207 .31976319 .038986207 .24472046 .042999269 .15464783 .083999637 .07859802 .1269989-.0024719239 .19999695-.022460938 .24899292-.022460938 .30299378-.022460938 .3789978-.0014648438 .4229889 .09359741 .45498658 .16265869 .45999146 .2407074 .45999146 .31976319M.24899292-.00047302247C.20999146-.00047302247 .15098572 .024551392 .1329956 .12062073 .12199402 .18066406 .12199402 .2727356 .12199402 .3317871 .12199402 .39582826 .12199402 .46188355 .12998963 .5159149 .14898682 .63500979 .22399903 .64401248 .24899292 .64401248 .28199769 .64401248 .34799195 .6259918 .36698915 .52693179 .3769989 .47088624 .3769989 .39482118 .3769989 .3317871 .3769989 .25672914 .3769989 .18867493 .3659973 .12461853 .35099793 .029556275 .2939911-.00047302247 .24899292-.00047302247Z"/>
<path id="font_2_1" d="M.19198609 .052993776C.19198609 .08198547 .16799927 .10598755 .13899231 .10598755 .10998535 .10598755 .085998538 .08198547 .085998538 .052993776 .085998538 .023986817 .10998535 0 .13899231 0 .16799927 0 .19198609 .023986817 .19198609 .052993776Z"/>
<path id="font_1_7" d="M.44898988 .20022583C.44898988 .3193512 .36698915 .41944886 .25898744 .41944886 .21099854 .41944886 .16799927 .40345765 .13198853 .36842347V.5637665C.1519928 .5577698 .18499756 .55078127 .21699524 .55078127 .33999635 .55078127 .4099884 .6417694 .4099884 .6547699 .4099884 .6607666 .40699769 .6657715 .3999939 .6657715 .39898683 .6657715 .39698792 .6657715 .3919983 .66278079 .37199403 .6537781 .32299806 .6337738 .2559967 .6337738 .21598816 .6337738 .16999817 .6407776 .12298584 .6617737 .114990238 .66477969 .11299133 .66477969 .11099243 .66477969 .100997928 .66477969 .100997928 .6567688 .100997928 .6407776V.34439088C.100997928 .32637025 .100997928 .31835938 .114990238 .31835938 .12199402 .31835938 .12399292 .32136537 .12799073 .32736207 .13899231 .3433838 .17599488 .39746095 .25698854 .39746095 .30899049 .39746095 .33399964 .35139466 .34199525 .33337403 .35798646 .29632569 .3600006 .25727845 .3600006 .20722962 .3600006 .17222595 .3600006 .11222839 .33599855 .07035828 .31199647 .031463624 .2749939 .0055389406 .22898865 .0055389406 .1559906 .0055389406 .09899902 .058380128 .08198547 .11723328 .084991458 .1162262 .08799744 .115234378 .09899902 .115234378 .13198853 .115234378 .14898682 .14022827 .14898682 .16423035 .14898682 .18823242 .13198853 .21322632 .09899902 .21322632 .084991458 .21322632 .049987794 .20622254 .049987794 .16023255 .049987794 .07434082 .11898804-.022460938 .23098755-.022460938 .34700013-.022460938 .44898988 .073349 .44898988 .20022583Z"/>
<path id="font_1_4" d="M.2939911 .64004519C.2939911 .66400149 .2939911 .6660156 .2709961 .6660156 .20899964 .60227969 .12098694 .60227969 .08898926 .60227969V.57128909C.10899353 .57128909 .16799927 .57128909 .21998596 .5972748V.07902527C.21998596 .042999269 .21699524 .0309906 .1269989 .0309906H.09498596V0C.12998963 .0029907227 .21699524 .0029907227 .25698854 .0029907227 .29699708 .0029907227 .38398744 .0029907227 .4189911 0V.0309906H.3869934C.29699708 .0309906 .2939911 .041992189 .2939911 .07902527V.64004519Z"/>
<path id="font_1_5" d="M.1269989 .07699585 .23298645 .18003845C.3889923 .31811524 .44898988 .3721466 .44898988 .47216798 .44898988 .5860901 .35899354 .6660156 .23699951 .6660156 .12399292 .6660156 .049987794 .57411196 .049987794 .48516847 .049987794 .4291687 .099990848 .4291687 .102996829 .4291687 .11999512 .4291687 .15499878 .44117738 .15499878 .48217774 .15499878 .5081787 .13699341 .5341797 .101989749 .5341797 .09399414 .5341797 .09199524 .5341797 .08898926 .5331726 .11199951 .59806826 .1659851 .63500979 .22399903 .63500979 .31498719 .63500979 .35798646 .5541382 .35798646 .47216798 .35798646 .39215089 .30799867 .31311036 .25299073 .25108338L.06098938 .036987306C.049987794 .025985718 .049987794 .023986817 .049987794 0H.42099L.44898988 .17404175H.42399598C.4189911 .14402771 .4119873 .1000061 .4019928 .084991458 .394989 .07699585 .32899476 .07699585 .30699159 .07699585H.1269989Z"/>
<path id="font_1_6" d="M.2939911 .16503906V.07800293C.2939911 .041992189 .2919922 .0309906 .21798706 .0309906H.19699097V0C.23799134 .0029907227 .2899933 .0029907227 .33198548 .0029907227 .37399293 .0029907227 .4269867 .0029907227 .46798707 0V.0309906H.44699098C.37298585 .0309906 .37098695 .041992189 .37098695 .07800293V.16503906H.47099305V.19602967H.37098695V.65075686C.37098695 .67074587 .37098695 .6767578 .35499574 .6767578 .34599305 .6767578 .34298707 .6767578 .33499146 .66474917L.027999878 .19602967V.16503906H.2939911M.2999878 .19602967H.055999757L.2999878 .5688019V.19602967Z"/>
<path id="font_1_8" d="M.13198853 .327713V.35173036C.13198853 .6047821 .2559967 .64100649 .30699159 .64100649 .33099366 .64100649 .37298585 .634964 .394989 .6007538 .37998963 .6007538 .33999635 .6007538 .33999635 .5557556 .33999635 .524765 .3639984 .5097656 .38598634 .5097656 .4019928 .5097656 .43199159 .51875308 .43199159 .5577545 .43199159 .6178589 .3880005 .6660156 .30499269 .6660156 .1769867 .6660156 .041992189 .5367584 .041992189 .31570436 .041992189 .048553468 .1579895-.022460938 .25099183-.022460938 .3619995-.022460938 .45700074 .07156372 .45700074 .2036438 .45700074 .33070375 .36799623 .4267578 .25698854 .4267578 .18899536 .4267578 .1519928 .37573243 .13198853 .327713M.25099183 .0055389406C.18798828 .0055389406 .1579895 .06556702 .1519928 .080566409 .13398743 .127594 .13398743 .2076416 .13398743 .22564698 .13398743 .30369569 .1659851 .40374757 .2559967 .40374757 .27198792 .40374757 .31799317 .40374757 .34899903 .34172059 .36698915 .30470277 .36698915 .2536621 .36698915 .20463562 .36698915 .15661621 .36698915 .10658264 .34999085 .0705719 .31999208 .010528564 .27398683 .0055389406 .25099183 .0055389406Z"/>
<clipPath id="clip_3">
<path transform="matrix(1.00005,0,0,-1.00002,17.775429,163.19593)" d="M0 .00787H194.27362V161.39511H0Z"/>
</clipPath>
<path id="font_2_3" d="M.20599365 .3996582H.2999878C.31999208 .3996582 .32998658 .3996582 .32998658 .41966249 .32998658 .43066407 .31999208 .43066407 .3019867 .43066407H.21398926C.25 .5724945 .25498963 .59246829 .25498963 .59846499 .25498963 .61546328 .24299622 .62545779 .22599793 .62545779 .22299195 .62545779 .19499207 .62446597 .18598938 .58947756L.14698792 .43066407H.052993776C.032989503 .43066407 .022994996 .43066407 .022994996 .4116516 .022994996 .3996582 .0309906 .3996582 .050994874 .3996582H.13899231C.066986087 .11608887 .06298828 .099121097 .06298828 .08114624 .06298828 .02722168 .100997928-.0107421879 .15499878-.0107421879 .25698854-.0107421879 .31399537 .13505554 .31399537 .14305115 .31399537 .1530304 .30599977 .1530304 .3019867 .1530304 .29299928 .1530304 .2919922 .15003968 .2869873 .13905335 .24398804 .035217287 .19099427 .011245728 .15699768 .011245728 .13598633 .011245728 .12599182 .024230957 .12599182 .057174684 .12599182 .08114624 .12799073 .088134769 .13198853 .10510254L.20599365 .3996582Z"/>
<path id="font_2_2" d="M.3909912 .37405396C.36299134 .37304688 .34298707 .3510437 .34298707 .32904054 .34298707 .31503297 .35198976 .30003358 .37399293 .30003358 .3959961 .30003358 .41999818 .31703187 .41999818 .35603334 .41999818 .40124513 .3769989 .4423828 .30099488 .4423828 .16899109 .4423828 .13198853 .3400421 .13198853 .29605104 .13198853 .21820069 .20599365 .20323181 .23498535 .19725037 .2869873 .18727112 .33898927 .17628479 .33898927 .12133789 .33898927 .095336917 .31599427 .011245728 .19599915 .011245728 .18199158 .011245728 .10499573 .011245728 .08198547 .064331058 .11999512 .059326173 .14498902 .08934021 .14498902 .11734009 .14498902 .14033509 .1289978 .15234375 .10798645 .15234375 .08198547 .15234375 .051986696 .1313324 .051986696 .08633423 .051986696 .029281617 .10899353-.0107421879 .19499207-.0107421879 .35699464-.0107421879 .3959961 .1103363 .3959961 .15533448 .3959961 .19125366 .3769989 .21620178 .36499024 .22817993 .33799745 .25613404 .30899049 .26112367 .2649994 .27009584 .22898865 .27807618 .18899536 .2850647 .18899536 .33003236 .18899536 .3590393 .21299744 .42037965 .30099488 .42037965 .32598878 .42037965 .37599183 .41333009 .3909912 .37405396Z"/>
<path id="font_1_1" d="M.33099366-.2400055C.33099366-.23701477 .33099366-.23500061 .31399537-.21800232 .18899536-.0920105 .15699768 .09700012 .15699768 .25 .15699768 .42399598 .19499207 .59799197 .31799317 .72299197 .33099366 .73498538 .33099366 .7369995 .33099366 .73999026 .33099366 .746994 .32699586 .75 .32099916 .75 .31098939 .75 .22099304 .6819916 .1619873 .5549927 .11099243 .44499208 .09899902 .33399964 .09899902 .25 .09899902 .17199707 .10998535 .050994874 .16499329-.06201172 .22499085-.18501282 .31098939-.25 .32099916-.25 .32699586-.25 .33099366-.24700928 .33099366-.2400055Z"/>
<path id="font_1_2" d="M.2889862 .25C.2889862 .32798768 .27799989 .44898988 .22299195 .56199648 .16299439 .68499758 .07699585 .75 .066986087 .75 .06098938 .75 .056991579 .74598696 .056991579 .73999026 .056991579 .7369995 .056991579 .73498538 .07598877 .71699526 .17399597 .6179962 .23098755 .45899964 .23098755 .25 .23098755 .07899475 .19400025-.09700012 .069992069-.2230072 .056991579-.23500061 .056991579-.23701477 .056991579-.2400055 .056991579-.2460022 .06098938-.25 .066986087-.25 .07699585-.25 .16699219-.18200684 .22599793-.055007936 .2769928 .054992677 .2889862 .16600037 .2889862 .25Z"/>
</defs>
<path transform="matrix(1.00005,0,0,-1.00002,17.775429,163.19593)" stroke-width=".3985" stroke-linecap="butt" stroke-miterlimit="10" stroke-linejoin="miter" fill="none" stroke="#cbcbcb" d="M32.41441 .00787V161.39511M64.82883 .00787V161.39511M97.24324 .00787V161.39511M129.65767 .00787V161.39511M162.07209 .00787V161.39511"/>
<path transform="matrix(1.00005,0,0,-1.00002,17.775429,163.19593)" stroke-width=".3985" stroke-linecap="butt" stroke-miterlimit="10" stroke-linejoin="miter" fill="none" stroke="#cbcbcb" d="M0 46.11852H194.27362M0 92.22914H194.27362M0 138.33979H194.27362"/>
<path transform="matrix(1.00005,0,0,-1.00002,17.775429,163.19593)" stroke-width=".19925" stroke-linecap="butt" stroke-miterlimit="10" stroke-linejoin="miter" fill="none" stroke="#929292" d="M32.41441-2.11809V2.13385M64.82883-2.11809V2.13385M97.24324-2.11809V2.13385M129.65767-2.11809V2.13385M162.07209-2.11809V2.13385"/>
<path transform="matrix(1.00005,0,0,-1.00002,17.775429,163.19593)" stroke-width=".19925" stroke-linecap="butt" stroke-miterlimit="10" stroke-linejoin="miter" fill="none" stroke="#929292" d="M-2.12596 46.11852H2.12596M-2.12596 92.22914H2.12596M-2.12596 138.33979H2.12596"/>
<path transform="matrix(1.00005,0,0,-1.00002,17.775429,163.19593)" stroke-width=".3985" stroke-linecap="butt" stroke-miterlimit="10" stroke-linejoin="miter" fill="none" stroke="#000000" d="M0 .00787H192.2811"/>
<path transform="matrix(1.00005,0,0,-1.00002,210.06613,163.18805)" d="M1.99252 0-1.19551 1.59401 0 0-1.19551-1.59401"/>
<path transform="matrix(1.00005,0,0,-1.00002,17.775429,163.19593)" stroke-width=".3985" stroke-linecap="butt" stroke-miterlimit="10" stroke-linejoin="miter" fill="none" stroke="#000000" d="M0 .00787V159.40259"/>
<path transform="matrix(0,-1.00002,-1.00005,-0,17.775429,3.7901459)" d="M1.99252 0-1.19551 1.59401 0 0-1.19551-1.59401"/>
<use data-text="0" xlink:href="#font_1_3" transform="matrix(10.909644,0,0,-10.909318,43.221704,176.18018)"/>
<use data-text="." xlink:href="#font_2_1" transform="matrix(10.909644,0,0,-10.909318,48.67698,176.18018)"/>
<use data-text="5" xlink:href="#font_1_7" transform="matrix(10.909644,0,0,-10.909318,51.70713,176.18018)"/>
<use data-text="1" xlink:href="#font_1_4" transform="matrix(10.909644,0,0,-10.909318,79.88053,176.18018)"/>
<use data-text="1" xlink:href="#font_1_4" transform="matrix(10.909644,0,0,-10.909318,108.05294,176.18018)"/>
<use data-text="." xlink:href="#font_2_1" transform="matrix(10.909644,0,0,-10.909318,113.50822,176.18018)"/>
<use data-text="5" xlink:href="#font_1_7" transform="matrix(10.909644,0,0,-10.909318,116.53837,176.18018)"/>
<use data-text="2" xlink:href="#font_1_5" transform="matrix(10.909644,0,0,-10.909318,144.71176,176.18018)"/>
<use data-text="2" xlink:href="#font_1_5" transform="matrix(10.909644,0,0,-10.909318,172.8852,176.18018)"/>
<use data-text="." xlink:href="#font_2_1" transform="matrix(10.909644,0,0,-10.909318,178.34046,176.18018)"/>
<use data-text="5" xlink:href="#font_1_7" transform="matrix(10.909644,0,0,-10.909318,181.3706,176.18018)"/>
<use data-text="2" xlink:href="#font_1_5" transform="matrix(10.909644,0,0,-10.909318,.9045868,120.59207)"/>
<use data-text="0" xlink:href="#font_1_3" transform="matrix(10.909644,0,0,-10.909318,6.359413,120.59207)"/>
<use data-text="4" xlink:href="#font_1_6" transform="matrix(10.909644,0,0,-10.909318,.9045868,74.48015)"/>
<use data-text="0" xlink:href="#font_1_3" transform="matrix(10.909644,0,0,-10.909318,6.359413,74.48015)"/>
<use data-text="6" xlink:href="#font_1_8" transform="matrix(10.909644,0,0,-10.909318,.9045868,28.368226)"/>
<use data-text="0" xlink:href="#font_1_3" transform="matrix(10.909644,0,0,-10.909318,6.359413,28.368226)"/>
<g clip-path="url(#clip_3)">
<path transform="matrix(1.00005,0,0,-1.00002,17.775429,163.19593)" stroke-width=".79701" stroke-linecap="butt" stroke-miterlimit="10" stroke-linejoin="miter" fill="none" stroke="#0000ff" d="M0 110.6734 .21634 110.91919 .43268 111.16417 .64902 111.40831 .86536 111.65164 1.0817 111.89413 1.29803 112.13582 1.51437 112.37668 1.73071 112.61671 1.94705 112.85594 2.16339 113.09433 2.37973 113.33191 2.59607 113.56866 2.81241 113.8046 3.02875 114.0397 3.24509 114.27399 3.46143 114.50746 3.67776 114.7401 3.8941 114.97194 4.11044 115.20293 4.3268 115.43312 4.54314 115.66246 4.75948 115.891 4.97581 116.11873 5.19215 116.34561 5.4085 116.5717 5.62483 116.79695 5.84119 117.02138 6.05753 117.24498 6.27386 117.46776 6.4902 117.68973 6.70654 117.91087 6.92288 118.1312 7.13922 118.3507 7.35556 118.56937 7.5719 118.78722 7.78824 119.00426 8.00458 119.22047 8.22092 119.43587 8.43726 119.65044 8.6536 119.86418 8.86993 120.0771 9.08627 120.28922 9.30261 120.50049 9.51895 120.71095 9.73529 120.92061 9.95163 121.12941 10.16798 121.33742 10.38432 121.54459 10.60066 121.75093 10.817 121.95648 11.03334 122.1612 11.24968 122.36508 11.46602 122.56813 11.68236 122.77039 11.8987 122.9718 12.11504 123.17241 12.33138 123.3722 12.54771 123.57115 12.76405 123.76929 12.9804 123.96661 13.19673 124.1631 13.41307 124.35878 13.62941 124.55362 13.84576 124.74765 14.0621 124.94086 14.27846 125.13326 14.4948 125.32481 14.71114 125.51555 14.92747 125.70547 15.14381 125.89458 15.36015 126.08286 15.57649 126.27031 15.79283 126.45695 16.00917 126.64276 16.22551 126.82776 16.44186 127.01193 16.6582 127.19528 16.87454 127.3778 17.09088 127.55952 17.30722 127.74039 17.52356 127.92046 17.7399 128.0997 17.95624 128.27812 18.17258 128.45572 18.38892 128.63249 18.60526 128.80846 18.8216 128.98358 19.03793 129.1579 19.25427 129.33139 19.47061 129.50405 19.68695 129.67589 19.90329 129.84691 20.11964 130.01714 20.33598 130.18651 20.55232 130.35506 20.76866 130.52281 20.985 130.68973 21.20134 130.85582 21.41768 131.0211 21.63402 131.18556 21.85037 131.3492 22.06668 131.51198 22.28305 131.67398 22.49936 131.83515 22.71571 131.99549 22.93207 132.15502 23.14839 132.31369 23.36475 132.4716 23.58107 132.62863 23.79741 132.78488 24.01378 132.9403 24.23009 133.09488 24.44644 133.24868 24.66277 133.4016 24.87912 133.55374 25.09547 133.70507 25.3118 133.85553 25.52814 134.0052 25.74446 134.15404 25.96082 134.30205 26.17717 134.44927 26.3935 134.59563 26.60985 134.7412 26.82616 134.88591 27.04253 135.02985 27.25888 135.17293 27.47519 135.31519 27.69156 135.45665 27.90788 135.59726 28.12424 135.73708 28.34059 135.87607 28.55692 136.0142 28.77325 136.15155 28.98958 136.28807 29.20593 136.42378 29.42229 136.55866 29.63861 136.69269 29.85495 136.82593 30.07127 136.95833 30.28764 137.08994 30.50398 137.2207 30.7203 137.35065 30.93666 137.47977 31.15297 137.60807 31.36934 137.73555 31.5857 137.8622 31.802 137.98804 32.01837 138.11307 32.23468 138.23726 32.45103 138.36063 32.66739 138.48317 32.88371 138.6049 33.10007 138.72582 33.31639 138.84589 33.53273 138.96517 33.74908 139.0836 33.96541 139.20122 34.18176 139.31803 34.39809 139.43399 34.61444 139.54917 34.83078 139.6635 35.0471 139.777 35.26346 139.88971 35.47978 140.00156 35.69614 140.11261 35.91249 140.22286 36.12881 140.33225 36.34517 140.44084 36.56148 140.54859 36.77783 140.65554 36.99419 140.76166 37.21051 140.86696 37.42686 140.97144 37.64319 141.07508 37.85954 141.17792 38.0759 141.27993 38.2922 141.38112 38.50856 141.48149 38.72488 141.58103 38.94124 141.67975 39.1576 141.77765 39.37392 141.87474 39.59026 141.971 39.80658 142.06642 40.02295 142.16106 40.23929 142.25485 40.45561 142.34783 40.67197 142.43997 40.88828 142.5313 41.10464 142.62181 41.32098 142.7115 41.53732 142.80036 41.75368 142.8884 41.97 142.97562 42.18636 143.06203 42.40271 143.14762 42.61902 143.23235 42.83539 143.3163 43.05171 143.3994 43.26805 143.4817 43.4844 143.56317 43.70073 143.64382 43.91708 143.72365 44.1334 143.80266 44.34976 143.88085 44.5661 143.9582 44.78242 144.03475 44.99878 144.11046 45.2151 144.18537 45.43146 144.25945 45.6478 144.3327 45.86412 144.40514 46.08049 144.47673 46.2968 144.54753 46.51315 144.61751 46.7295 144.68665 46.94583 144.75496 47.16219 144.82248 47.37851 144.88915 47.59485 144.955 47.81122 145.02005 48.02753 145.08428 48.24388 145.14766 48.4602 145.21024 48.67656 145.272 48.89291 145.33293 49.10924 145.39304 49.32558 145.45233 49.5419 145.51079 49.75826 145.56844 49.97461 145.62526 50.19093 145.68126 50.40729 145.73644 50.6236 145.7908 50.83997 145.84433 51.0563 145.89707 51.27263 145.94895 51.48898 146 51.7053 146.05025 51.92166 146.09969 52.13802 146.1483 52.35432 146.19608 52.57068 146.24304 52.787 146.28919 53.00336 146.3345 53.21971 146.37902 53.43604 146.42269 53.65239 146.46553 53.86871 146.50757 54.08505 146.54878 54.3014 146.58917 54.51773 146.62874 54.73409 146.6675 54.95041 146.70543 55.16678 146.74253 55.38312 146.77881 55.59944 146.81427 55.81581 146.8489 56.03212 146.88272 56.24847 146.91573 56.46483 146.94789 56.68114 146.97927 56.8975 147.00978 57.11383 147.0395 57.33017 147.06839 57.54654 147.09645 57.76285 147.12369 57.9792 147.15012 58.19553 147.17572 58.41187 147.20049 58.62823 147.22446 58.84456 147.24759 59.0609 147.26992 59.27722 147.2914 59.49358 147.31208 59.70993 147.33193 59.92625 147.35097 60.14261 147.36917 60.35892 147.38655 60.57529 147.40312 60.79163 147.41886 61.00795 147.43378 61.2243 147.44789 61.44063 147.46117 61.65698 147.4736 61.87334 147.48526 62.08965 147.49607 62.306 147.50606 62.52232 147.51523 62.73868 147.52358 62.95503 147.5311 63.17136 147.53781 63.3877 147.54369 63.60402 147.54875 63.82037 147.553 64.03673 147.55641 64.25305 147.55902 64.4694 147.56079 64.68573 147.56174 64.90208 147.56186 65.11842 147.56119 65.33475 147.55966 65.5511 147.55736 65.76743 147.55422 65.98378 147.55022 66.20013 147.54543 66.41644 147.5398 66.63281 147.53339 66.84912 147.52613 67.06548 147.51802 67.28183 147.50913 67.49815 147.49938 67.71451 147.48886 67.93083 147.4775 68.14717 147.46529 68.36354 147.45227 68.57986 147.43843 68.7962 147.4238 69.01254 147.40831 69.2289 147.39199 69.44525 147.37488 69.66158 147.35692 69.87791 147.33818 70.09424 147.31859 70.3106 147.29816 70.52695 147.27695 70.74327 147.25487 70.95963 147.23203 71.17593 147.20832 71.3923 147.18378 71.60866 147.15847 71.82497 147.13234 72.04132 147.10532 72.25764 147.0775 72.474 147.0489 72.69035 147.01949 72.90668 146.9892 73.12302 146.95813 73.33934 146.92623 73.5557 146.89347 73.77205 146.85991 73.98837 146.82552 74.20473 146.79033 74.42105 146.75432 74.6374 146.7175 74.85374 146.67984 75.07007 146.64133 75.28642 146.60205 75.50275 146.56192 75.7191 146.52095 75.93546 146.47917 76.15176 146.43662 76.36813 146.39318 76.58444 146.34893 76.8008 146.3039 77.01715 146.25803 77.23347 146.2113 77.44983 146.16379 77.66615 146.11545 77.88249 146.0663 78.09885 146.01631 78.31517 145.9655 78.53152 145.91388 78.74785 145.86142 78.9642 145.80817 79.18056 145.75409 79.39688 145.69915 79.61322 145.64342 79.82954 145.58686 80.0459 145.5295 80.26225 145.4713 80.47858 145.41225 80.69493 145.35242 80.91124 145.29174 81.1276 145.23027 81.34395 145.16796 81.56027 145.10482 81.77663 145.04087 81.99295 144.97608 82.2093 144.91049 82.42566 144.84407 82.64197 144.77683 82.85834 144.70877 83.07466 144.63986 83.29102 144.57019 83.50737 144.49967 83.7237 144.42835 83.94003 144.35613 84.15636 144.28319 84.37273 144.20934 84.58907 144.13469 84.80539 144.05927 85.02174 143.98299 85.23807 143.90589 85.45442 143.82798 85.67078 143.74924 85.88708 143.66965 86.10345 143.58927 86.31976 143.5081 86.53612 143.42604 86.75247 143.34317 86.9688 143.25954 87.18515 143.17505 87.40147 143.08972 87.61781 143.00359 87.83417 142.91664 88.05049 142.82888 88.26685 142.7403 88.48317 142.65085 88.69952 142.56063 88.91588 142.46955 89.1322 142.37763 89.34854 142.28491 89.56487 142.19142 89.78122 142.09703 89.99757 142.00186 90.2139 141.90589 90.43025 141.80907 90.64656 141.71141 90.86292 141.61296 91.07927 141.51367 91.2956 141.41359 91.51195 141.31267 91.72827 141.21089 91.94463 141.10834 92.16098 141.00495 92.37729 140.90076 92.59364 140.79573 92.80997 140.68985 93.02632 140.58318 93.24268 140.47566 93.459 140.36737 93.67534 140.25824 93.89166 140.14826 94.10802 140.03748 94.32437 139.92592 94.5407 139.81346 94.75705 139.7002 94.97336 139.58617 95.18973 139.47129 95.40607 139.35556 95.62239 139.23899 95.83876 139.12168 96.05507 139.00348 96.27142 138.88449 96.48778 138.76465 96.7041 138.64403 96.92047 138.52257 97.1368 138.40026 97.35313 138.27715 97.56949 138.15326 97.78581 138.02848 98.00217 137.90288 98.21849 137.77652 98.43484 137.64933 98.65118 137.52126 98.86751 137.39241 99.08386 137.26273 99.30019 137.1322 99.51654 137.00087 99.7329 136.86878 99.94922 136.73577 100.16557 136.60198 100.38188 136.46739 100.59824 136.33196 100.81459 136.1957 101.03091 136.05863 101.24727 135.92073 101.4636 135.78205 101.67993 135.6425 101.8963 135.5021 102.11261 135.36095 102.32896 135.21894 102.54529 135.07608 102.76164 134.93244 102.978 134.788 103.19432 134.64267 103.41066 134.4966 103.62698 134.34964 103.84334 134.20188 104.0597 134.05333 104.27602 133.90395 104.49237 133.75373 104.70868 133.60265 104.92505 133.45078 105.14139 133.29813 105.35771 133.14464 105.57407 132.9903 105.79039 132.83512 106.00674 132.67914 106.2231 132.52237 106.4394 132.36478 106.65576 132.20633 106.87209 132.04703 107.08844 131.88701 107.3048 131.72608 107.52112 131.56436 107.73747 131.40181 107.9538 131.23847 108.17014 131.07427 108.38649 130.90923 108.60281 130.74341 108.81917 130.57675 109.03549 130.4093 109.25185 130.24098 109.46819 130.0719 109.68451 129.90198 109.90088 129.7312 110.11719 129.55963 110.33356 129.38722 110.54991 129.21396 110.76624 129.03993 110.98259 128.86505 111.19891 128.68938 111.41525 128.51285 111.63162 128.33556 111.84793 128.1574 112.06429 127.97841 112.28061 127.79863 112.49695 127.618 112.71332 127.43652 112.92964 127.25426 113.14598 127.07121 113.3623 126.88727 113.57866 126.7026 113.79501 126.51701 114.01134 126.33066 114.22769 126.14343 114.444 125.95544 114.66037 125.7666 114.87671 125.57695 115.09303 125.38647 115.30939 125.19516 115.52571 125.00305 115.74207 124.81009 115.95842 124.61635 116.17473 124.42177 116.39108 124.22633 116.6074 124.03012 116.82376 123.83305 117.04012 123.63522 117.25644 123.43651 117.4728 123.23697 117.68912 123.03665 117.90546 122.8355 118.12181 122.63351 118.33813 122.43073 118.55449 122.22708 118.77081 122.02264 118.98717 121.81735 119.2035 121.61128 119.41983 121.40437 119.63618 121.19667 119.85251 120.98807 120.06886 120.77873 120.28522 120.56851 120.50153 120.35748 120.7179 120.14566 120.9342 119.93301 121.15056 119.71953 121.36691 119.50523 121.58324 119.2901 121.79959 119.07414 122.01591 118.85738 122.23225 118.63976 122.44862 118.42137 122.66495 118.20212 122.88129 117.98209 123.09761 117.76117 123.31396 117.53952 123.53032 117.31694 123.74664 117.09366 123.96298 116.86948 124.17932 116.64449 124.39569 116.41866 124.61203 116.19205 124.82835 115.96458 125.04471 115.73634 125.26102 115.50725 125.47739 115.27733 125.69374 115.0466 125.91005 114.81503 126.1264 114.58267 126.34273 114.34943 126.55908 114.11543 126.77544 113.88062 126.99176 113.64493 127.2081 113.4084 127.42442 113.17111 127.64078 112.93301 127.85713 112.69406 128.07346 112.45428 128.28981 112.21365 128.50614 111.97223 128.72249 111.73003 128.93883 111.48692 129.15515 111.24309 129.3715 110.99835 129.58783 110.75282 129.80419 110.50652 130.02054 110.25931 130.23685 110.01135 130.45322 109.7625 130.66953 109.51286 130.88588 109.26245 131.10224 109.01118 131.31856 108.75908 131.53491 108.50612 131.75124 108.25243 131.96758 107.99785 132.18395 107.74246 132.40026 107.48625 132.61661 107.22923 132.83293 106.97139 133.04929 106.71268 133.26564 106.4532 133.48197 106.19289 133.6983 105.93176 133.91463 105.6698 134.13098 105.40704 134.34734 105.14346 134.56366 104.87901 134.78002 104.61378 134.99633 104.34773 135.21269 104.0808 135.42903 103.8131 135.64536 103.54456 135.86171 103.2752 136.07804 103.00504 136.29439 102.73407 136.51074 102.46225 136.72705 102.1896 136.9434 101.91615 137.15973 101.64186 137.37609 101.36674 137.59244 101.0908 137.80876 100.8141 138.02512 100.5365 138.24144 100.25815 138.45781 99.97891 138.67415 99.69888 138.89048 99.41801 139.10683 99.13635 139.32314 98.85384 139.5395 98.57054 139.75585 98.2864 139.97217 98.00142 140.18854 97.71565 140.40485 97.42905 140.6212 97.14163 140.83756 96.8534 141.05387 96.5643 141.27024 96.27441 141.48656 95.98369 141.7029 95.69217 141.91925 95.39983 142.13558 95.10663 142.35193 94.81264 142.56826 94.5178 142.7846 94.22217 143.00095 93.9257 143.21727 93.62846 143.43363 93.3303 143.64995 93.03142 143.8663 92.73163 144.08266 92.43105 144.29898 92.1297 144.51534 91.82748 144.73165 91.52443 144.948 91.22058 145.16436 90.91585 145.38068 90.61038 145.59703 90.30406 145.81336 89.9969 146.02971 89.68896 146.24607 89.38016 146.46237 89.07053 146.67873 88.7601 146.89505 88.44888 147.1114 88.13678 147.32776 87.82387 147.54409 87.51018 147.76042 87.19565 147.97675 86.88026 148.1931 86.5641 148.40946 86.24693 148.62578 85.92923 148.84214 85.6106 149.05844 85.29117 149.27481 84.97083 149.49115 84.6496 149.70748 84.3278 149.92385 84.00507 150.14015 83.68146 150.3565 83.35707 150.57286 83.03174 150.78917 82.70583 151.00554 82.37897 151.22187 82.05125 151.4382 81.72278 151.65456 81.39326 151.8709 81.06331 152.08725 80.73233 152.30358 80.40051 152.51992 80.06792 152.73627 79.73431 152.95259 79.40024 153.16895 79.06517 153.38527 78.72923 153.60163 78.39252 153.81797 78.0548 154.03429 77.71663 154.25066 77.37744 154.46697 77.0374 154.68332 76.6966 154.89968 76.35475 155.116 76.01247 155.33235 75.66899 155.54868 75.32504 155.76502 74.9801 155.98139 74.63416 156.1977 74.28777 156.41405 73.9402 156.63037 73.59212 156.84673 73.24307 157.06308 72.89308 157.2794 72.54253 157.49575 72.19083 157.71207 71.8387 157.92842 71.48555 158.14478 71.1314 158.3611 70.77678 158.57746 70.42099 158.79376 70.0647 159.01013 69.70743 159.22647 69.34917 159.4428 68.99045 159.65915 68.63054 159.87548 68.27019 160.09183 67.90883 160.30818 67.54645 160.52449 67.18361 160.74085 66.81961 160.95717 66.4551 161.17353 66.08961 161.38988 65.72319 161.6062 65.35619 161.82256 64.98807 162.03888 64.61949 162.25522 64.24991 162.47158 63.8793 162.6879 63.50829 162.90425 63.13602 163.12058 62.76332 163.33693 62.38951 163.55327 62.01494 163.76959 61.63983 163.98595 61.26343 164.20227 60.8866 164.41863 60.50867 164.63498 60.13007 164.85129 59.75082 165.06766 59.37036 165.28397 58.9894 165.50034 58.60733 165.7167 58.22461 165.93302 57.84128 166.14937 57.45671 166.36569 57.07162 166.58203 56.68546 166.7984 56.2986 167.01473 55.91118 167.23107 55.52246 167.44739 55.13338 167.66374 54.743 167.8801 54.3521 168.09642 53.96056 168.31276 53.56773 168.52909 53.17448 168.74546 52.7801 168.96179 52.38501 169.17812 51.98936 169.39447 51.59242 169.61078 51.1951 169.82715 50.7966 170.0435 50.39742 170.25981 49.99763 170.47617 49.59662 170.69249 49.19514 170.90885 48.79256 171.1252 48.38927 171.34152 47.9852 171.55786 47.58026 171.77419 47.1747 171.99054 46.76799 172.2069 46.36058 172.42322 45.9524 172.63957 45.54333 172.8559 45.13371 173.07225 44.72285 173.28859 44.31136 173.50492 43.8991 173.72127 43.48592 173.93759 43.07217 174.15395 42.65721 174.3703 42.24158 174.58661 41.8252 174.80298 41.40796 175.01929 40.9901 175.23564 40.57103 175.452 40.15126 175.66832 39.73077 175.88468 39.3094 176.101 38.88748 176.31734 38.46426 176.5337 38.04045 176.75002 37.61584 176.96637 37.19034 177.1827 36.76411 177.39905 36.33699 177.6154 35.90906 177.83173 35.48038 178.04807 35.05075 178.26439 34.6204 178.48075 34.18918 178.6971 33.75717 178.91342 33.32431 179.12978 32.89061 179.3461 32.45616 179.56247 32.0208 179.77881 31.58467 179.99514 31.14775 180.21149 30.70995 180.42781 30.27135 180.64417 29.83188 180.86052 29.39165 181.07683 28.95059 181.29319 28.50874 181.5095 28.06601 181.72586 27.62248 181.94222 27.1781 182.15854 26.73294 182.37488 26.28697 182.5912 25.84021 182.80757 25.3925 183.02391 24.94406 183.24024 24.49478 183.45659 24.04466 183.67292 23.59377 183.88927 23.142 184.10562 22.68942 184.32193 22.23607 184.5383 21.78185 184.75461 21.32681 184.97097 20.87093 185.18732 20.41428 185.40364 19.95679 185.62 19.49844 185.83632 19.0393 186.05266 18.57935 186.26902 18.11856 186.48534 17.65694 186.70169 17.19452 186.91802 16.73132 187.13437 16.26717 187.35073 15.80232 187.56705 15.33661 187.78339 14.8701 187.99971 14.40274 188.21607 13.93452 188.43242 13.46556 188.64875 12.99574 188.8651 12.52509 189.0814 12.05365 189.29776 11.58134 189.51412 11.10825 189.73044 10.6343 189.9468 10.15952 190.16312 9.68396 190.37947 9.20758 190.59583 8.73038 190.81214 8.2523 191.02849 7.77344 191.24481 7.29378 191.46117 6.8133 191.67752 6.33197 191.89385 5.84984 192.11019 5.36682 192.3265 4.8831 192.54286 4.39842 192.75922 3.91302 192.97556 3.42676 193.19191 2.93971 193.40824 2.4518 193.62459 1.96306 193.84093 1.47353 194.05725 .98315 194.27362 .49199 194.48993 0"/>
</g>
<use data-text="t" xlink:href="#font_2_3" transform="matrix(10.909644,0,0,-10.909318,204.28372,159.35285)"/>
<use data-text="s" xlink:href="#font_2_2" transform="matrix(10.909644,0,0,-10.909318,21.610619,13.814926)"/>
<use data-text="(" xlink:href="#font_1_1" transform="matrix(10.909644,0,0,-10.909318,26.724877,13.814926)"/>
<use data-text="t" xlink:href="#font_2_3" transform="matrix(10.909644,0,0,-10.909318,30.967087,13.814926)"/>
<use data-text=")" xlink:href="#font_1_2" transform="matrix(10.909644,0,0,-10.909318,34.90728,13.814926)"/>
</svg>
