<svg xmlns="http://www.w3.org/2000/svg" xmlns:xlink="http://www.w3.org/1999/xlink" version="1.1" width="395" height="165" viewBox="0 0 395 165">
<defs>
<path id="font_1_1" d="M.6589966 .23046875C.6759949 .23046875 .69400027 .23046875 .69400027 .25045777 .69400027 .27046205 .6759949 .27046205 .6589966 .27046205H.117996219C.100997928 .27046205 .08299255 .27046205 .08299255 .25045777 .08299255 .23046875 .100997928 .23046875 .117996219 .23046875H.6589966Z"/>
<path id="font_2_4" d="M.2939911 .16503906V.07800293C.2939911 .041992189 .2919922 .0309906 .21798706 .0309906H.19699097V0C.23799134 .0029907227 .2899933 .0029907227 .33198548 .0029907227 .37399293 .0029907227 .4269867 .0029907227 .46798707 0V.0309906H.44699098C.37298585 .0309906 .37098695 .041992189 .37098695 .07800293V.16503906H.47099305V.19602967H.37098695V.65075686C.37098695 .67074587 .37098695 .6767578 .35499574 .6767578 .34599305 .6767578 .34298707 .6767578 .33499146 .66474917L.027999878 .19602967V.16503906H.2939911M.2999878 .19602967H.055999757L.2999878 .5688019V.19602967Z"/>
<path id="font_2_3" d="M.1269989 .07699585 .23298645 .18003845C.3889923 .31811524 .44898988 .3721466 .44898988 .47216798 .44898988 .5860901 .35899354 .6660156 .23699951 .6660156 .12399292 .6660156 .049987794 .57411196 .049987794 .48516847 .049987794 .4291687 .099990848 .4291687 .102996829 .4291687 .11999512 .4291687 .15499878 .44117738 .15499878 .48217774 .15499878 .5081787 .13699341 .5341797 .101989749 .5341797 .09399414 .5341797 .09199524 .5341797 .08898926 .5331726 .11199951 .59806826 .1659851 .63500979 .22399903 .63500979 .31498719 .63500979 .35798646 .5541382 .35798646 .47216798 .35798646 .39215089 .30799867 .31311036 .25299073 .25108338L.06098938 .036987306C.049987794 .025985718 .049987794 .023986817 .049987794 0H.42099L.44898988 .17404175H.42399598C.4189911 .14402771 .4119873 .1000061 .4019928 .084991458 .394989 .07699585 .32899476 .07699585 .30699159 .07699585H.1269989Z"/>
<clipPath id="clip_3">
<path transform="matrix(1,0,0,-1.00002,1.4670029,163.18994)" d="M0 0H194.28128V161.39028H0Z"/>
</clipPath>
<path id="font_4_1" d="M.37298585 .37835694C.35499574 .41537477 .32598878 .4423828 .2809906 .4423828 .1639862 .4423828 .039993287 .29533387 .039993287 .14929199 .039993287 .055267335 .09498596-.0107421879 .17298889-.0107421879 .19299317-.0107421879 .24299622-.0067443849 .30299378 .06427002 .31098939 .022247315 .34599305-.0107421879 .3939972-.0107421879 .42900086-.0107421879 .45199586 .012252808 .46798707 .044265748 .4850006 .08027649 .49798585 .14129639 .49798585 .14329529 .49798585 .1532898 .4889984 .1532898 .48599244 .1532898 .47599793 .1532898 .47499085 .14929199 .47200013 .13528443 .45498658 .07026672 .43699647 .011245728 .3959961 .011245728 .36898805 .011245728 .3659973 .037261964 .3659973 .057266237 .3659973 .07926941 .36799623 .08728027 .3789978 .13128662 .3899994 .17329407 .3919983 .18330384 .40098573 .22131348L.43699647 .36135865C.44400025 .38935853 .44400025 .39135743 .44400025 .39537049 .44400025 .41236878 .43199159 .42237855 .4149933 .42237855 .3909912 .42237855 .37599183 .4003601 .37298585 .37835694M.30799867 .119277957C.30299378 .10127258 .30299378 .09927368 .28799439 .08227539 .24398804 .027252198 .20298767 .011245728 .1749878 .011245728 .125 .011245728 .11099243 .06626892 .11099243 .105285648 .11099243 .1552887 .14299011 .27833558 .1659851 .32434083 .19699097 .38336183 .24198914 .42037965 .28199769 .42037965 .34700013 .42037965 .36099244 .3383484 .36099244 .33235169 .36099244 .32633973 .35899354 .32034303 .35798646 .31533814L.30799867 .119277957Z"/>
<path id="font_2_1" d="M.33099366-.2400055C.33099366-.23701477 .33099366-.23500061 .31399537-.21800232 .18899536-.0920105 .15699768 .09700012 .15699768 .25 .15699768 .42399598 .19499207 .59799197 .31799317 .72299197 .33099366 .73498538 .33099366 .7369995 .33099366 .73999026 .33099366 .746994 .32699586 .75 .32099916 .75 .31098939 .75 .22099304 .6819916 .1619873 .5549927 .11099243 .44499208 .09899902 .33399964 .09899902 .25 .09899902 .17199707 .10998535 .050994874 .16499329-.06201172 .22499085-.18501282 .31098939-.25 .32099916-.25 .32699586-.25 .33099366-.24700928 .33099366-.2400055Z"/>
<path id="font_4_3" d="M.33399964 .30233766C.33999635 .32835389 .36299134 .42037965 .43299867 .42037965 .43798829 .42037965 .46199037 .42037965 .48298646 .40734864 .45498658 .402359 .43499757 .37734986 .43499757 .35334779 .43499757 .33735658 .44599916 .31835938 .47299195 .31835938 .49499513 .31835938 .5269928 .3363495 .5269928 .37635804 .5269928 .42837525 .46798707 .4423828 .43399049 .4423828 .37599183 .4423828 .34098817 .38935853 .32899476 .36634828 .3039856 .43237306 .25 .4423828 .22099304 .4423828 .116989139 .4423828 .05999756 .3133545 .05999756 .28834535 .05999756 .27833558 .069992069 .27833558 .07199097 .27833558 .07998657 .27833558 .08299255 .28033448 .084991458 .28933717 .11898804 .39535523 .18499756 .42037965 .21899414 .42037965 .23799134 .42037965 .272995 .4113617 .272995 .35334779 .272995 .32235719 .2559967 .25532533 .21899414 .11528015 .20298767 .053268434 .16799927 .011245728 .12399292 .011245728 .117996219 .011245728 .09498596 .011245728 .07398987 .024276734 .09899902 .029266358 .12098694 .05027771 .12098694 .07827759 .12098694 .105270389 .09899902 .11328125 .083999637 .11328125 .053985597 .11328125 .0289917 .08728027 .0289917 .055267335 .0289917 .009246826 .07899475-.0107421879 .12298584-.0107421879 .18899536-.0107421879 .22499085 .059280397 .22799683 .0652771 .23999024 .028274537 .27598573-.0107421879 .33599855-.0107421879 .43899537-.0107421879 .49598695 .118270877 .49598695 .14328003 .49598695 .1532898 .4869995 .1532898 .48399354 .1532898 .47499085 .1532898 .47299195 .14929199 .47099305 .14228821 .43798829 .03527832 .36999513 .011245728 .33799745 .011245728 .29899598 .011245728 .2829895 .043273927 .2829895 .07727051 .2829895 .09927368 .2889862 .121276859 .2999878 .16529846L.33399964 .30233766Z"/>
<path id="font_2_2" d="M.2889862 .25C.2889862 .32798768 .27799989 .44898988 .22299195 .56199648 .16299439 .68499758 .07699585 .75 .066986087 .75 .06098938 .75 .056991579 .74598696 .056991579 .73999026 .056991579 .7369995 .056991579 .73498538 .07598877 .71699526 .17399597 .6179962 .23098755 .45899964 .23098755 .25 .23098755 .07899475 .19400025-.09700012 .069992069-.2230072 .056991579-.23500061 .056991579-.23701477 .056991579-.2400055 .056991579-.2460022 .06098938-.25 .066986087-.25 .07699585-.25 .16699219-.18200684 .22599793-.055007936 .2769928 .054992677 .2889862 .16600037 .2889862 .25Z"/>
<path id="font_4_4" d="M.48599244 .38136292C.48999024 .39537049 .48999024 .39736939 .48999024 .40437318 .48999024 .42237855 .47599793 .43138124 .46099855 .43138124 .45098878 .43138124 .43499757 .42536927 .42599488 .41036988 .42399598 .405365 .41600038 .37435914 .4119873 .35635377 .40499879 .33035279 .397995 .30334474 .3919983 .27633668L.34700013 .09628296C.34298707 .08126831 .2999878 .011245728 .23399353 .011245728 .18299866 .011245728 .17199707 .055267335 .17199707 .0922699 .17199707 .1382904 .18899536 .20030213 .22299195 .28833009 .23899842 .3293457 .24299622 .3403473 .24299622 .36035157 .24299622 .405365 .21099854 .4423828 .16099549 .4423828 .06599426 .4423828 .0289917 .29733277 .0289917 .28833009 .0289917 .27833558 .038986207 .27833558 .040985109 .27833558 .050994874 .27833558 .051986696 .28033448 .056991579 .29634095 .083999637 .3903656 .12399292 .42037965 .1579895 .42037965 .1659851 .42037965 .18299866 .42037965 .18299866 .3883667 .18299866 .36335755 .17298889 .3373413 .1659851 .31834413 .12599182 .21231079 .10798645 .1552887 .10798645 .10827637 .10798645 .019256592 .17098999-.0107421879 .22999573-.0107421879 .2689972-.0107421879 .30299378 .0062561037 .33099366 .03425598 .31799317-.017745972 .30599977-.06674194 .2659912-.11973572 .23999024-.15385437 .20199585-.18309021 .1559906-.18309021 .14199829-.18309021 .09700012-.18005371 .07998657-.14074707 .09599304-.14074707 .10899353-.14074707 .12298584-.1287384 .1329956-.11973572 .14299011-.10673523 .14299011-.08773804 .14299011-.056747438 .115997318-.052734376 .10598755-.052734376 .08299255-.052734376 .049987794-.068740848 .049987794-.11773682 .049987794-.16796875 .09399414-.20507813 .1559906-.20507813 .25898744-.20507813 .3619995-.11373901 .3899994-.00074768069L.48599244 .38136292Z"/>
<clipPath id="clip_5">
<path transform="matrix(1,0,0,-1.00002,199.77701,163.18994)" d="M0 0H194.28128V161.39028H0Z"/>
</clipPath>
<path id="font_4_2" d="M.23899842 .68333438C.23899842 .6843262 .23899842 .69433596 .22599793 .69433596 .20298767 .69433596 .12998963 .6863251 .10398865 .6843262 .09599304 .68333438 .084991458 .6823273 .084991458 .6643219 .084991458 .6523285 .09399414 .6523285 .10899353 .6523285 .15699768 .6523285 .15899658 .6453247 .15899658 .6353302 .15899658 .6283264 .1499939 .5943451 .14498902 .573349L.06298828 .24731446C.050994874 .1973114 .04699707 .18130493 .04699707 .14628601 .04699707 .05126953 .099990848-.0107421879 .17399597-.0107421879 .2919922-.0107421879 .4149933 .1382904 .4149933 .28233338 .4149933 .37335206 .3619995 .4423828 .28199769 .4423828 .23599243 .4423828 .19499207 .41337586 .16499329 .38235475L.23899842 .68333438M.14498902 .30534364C.15098572 .3273468 .15098572 .3293457 .1599884 .3403473 .20899964 .405365 .2539978 .42037965 .27999879 .42037965 .31599427 .42037965 .34298707 .3903656 .34298707 .32633973 .34298707 .26733399 .30999757 .15229798 .2919922 .11428833 .25898744 .04725647 .21299744 .011245728 .17399597 .011245728 .13999939 .011245728 .10699463 .038253786 .10699463 .11227417 .10699463 .13128662 .10699463 .15029907 .12298584 .21331787L.14498902 .30534364Z"/>
</defs>
<path transform="matrix(1,0,0,-1.00002,1.4670029,163.18994)" stroke-width=".19925" stroke-linecap="butt" stroke-miterlimit="10" stroke-linejoin="miter" fill="none" stroke="#929292" d="M19.42812 78.56915V82.8211M58.28438 78.56915V82.8211M135.99689 78.56915V82.8211M174.85315 78.56915V82.8211"/>
<path transform="matrix(1,0,0,-1.00002,1.4670029,163.18994)" stroke-width=".19925" stroke-linecap="butt" stroke-miterlimit="10" stroke-linejoin="miter" fill="none" stroke="#929292" d="M95.01462 26.89838H99.26663M95.01462 134.4919H99.26663"/>
<path transform="matrix(1,0,0,-1.00002,1.4670029,163.18994)" stroke-width=".3985" stroke-linecap="butt" stroke-miterlimit="10" stroke-linejoin="miter" fill="none" stroke="#000000" d="M0 80.69513H192.28876"/>
<path transform="matrix(1,0,0,-1.00002,193.75577,82.493198)" d="M1.99252 0-1.19551 1.59401 0 0-1.19551-1.59401"/>
<path transform="matrix(1,0,0,-1.00002,1.4670029,163.18994)" stroke-width=".3985" stroke-linecap="butt" stroke-miterlimit="10" stroke-linejoin="miter" fill="none" stroke="#000000" d="M97.14064 0V159.39775"/>
<path transform="matrix(0,-1.00002,-1,-0,98.60764,3.7890015)" d="M1.99252 0-1.19551 1.59401 0 0-1.19551-1.59401"/>
<use data-text="&#x2212;" xlink:href="#font_1_1" transform="matrix(10.9091,0,0,-10.909318,13.925003,95.48458)"/>
<use data-text="4" xlink:href="#font_2_4" transform="matrix(10.9091,0,0,-10.909318,22.410004,95.48458)"/>
<use data-text="&#x2212;" xlink:href="#font_1_1" transform="matrix(10.9091,0,0,-10.909318,52.782,95.48458)"/>
<use data-text="2" xlink:href="#font_2_3" transform="matrix(10.9091,0,0,-10.909318,61.267004,95.48458)"/>
<use data-text="2" xlink:href="#font_2_3" transform="matrix(10.9091,0,0,-10.909318,134.737,95.48458)"/>
<use data-text="4" xlink:href="#font_2_4" transform="matrix(10.9091,0,0,-10.909318,173.59302,95.48458)"/>
<use data-text="&#x2212;" xlink:href="#font_1_1" transform="matrix(10.9091,0,0,-10.909318,78.707,139.35147)"/>
<use data-text="2" xlink:href="#font_2_3" transform="matrix(10.9091,0,0,-10.909318,87.192,139.35147)"/>
<use data-text="2" xlink:href="#font_2_3" transform="matrix(10.9091,0,0,-10.909318,87.192,32.21031)"/>
<g clip-path="url(#clip_3)">
<path transform="matrix(1,0,0,-1.00002,1.4670029,163.18994)" stroke-width="1.59404" stroke-linecap="butt" stroke-miterlimit="10" stroke-linejoin="miter" fill="none" stroke="#0000ff" d="M19.42812 26.89838H19.57996 19.7318 19.88364 20.03549 20.18732 20.33916 20.49101 20.64285 20.7947 20.94653 21.09837 21.25021 21.40207 21.55391 21.70575 21.85759 22.00943 22.16127 22.31313 22.46497 22.61679 22.76865 22.92049 23.07233 23.22418 23.376 23.52785 23.6797 23.83154 23.9834 24.13522 24.28706 24.43892 24.59076 24.7426 24.89445 25.04628 25.19812 25.34998 25.50182 25.65366 25.8055 25.95734 26.10918 26.26103 26.41287 26.5647 26.71655 26.8684 27.02023 27.17209 27.32393 27.47575 27.62761 27.77945 27.93129 28.08315 28.23497 28.38681 28.53867 28.6905 28.84235 28.99419 29.14603 29.29787 29.44972 29.60156 29.7534 29.90524 30.05708 30.20892 30.36078 30.51262 30.66444 30.8163 30.96814 31.11998 31.27184 31.42366 31.5755 31.72736 31.8792 32.03104 32.18289 32.33472 32.48656 32.63841 32.79025 32.9421 33.09393 33.24577 33.39761 33.54947 33.70131 33.85313 34.00499 34.15683 34.30869 34.46053 34.61237 34.7642 34.91605 35.06789 35.21973 35.37158 35.52342 35.67525 35.8271 35.97894 36.1308 36.28262 36.43446 36.58632 36.73814 36.89 37.04185 37.19368 37.34554 37.49736 37.64922 37.80107 37.95288 38.10474 38.25658 38.40843 38.56029 38.7121 38.86395 39.01578 39.16763 39.31949 39.47133 39.62317 39.775 39.92685 40.0787 40.23053 40.38237 40.53421 40.68607 40.83792 40.98975 41.14159 41.29343 41.44527 41.59712 41.74896 41.9008 42.05263 42.20448 42.35634 42.50816 42.66002 42.81184 42.9637 43.11555 43.26738 43.41924 43.57106 43.7229 43.87477 44.0266 44.17845 44.33026 44.48212 44.63397 44.78581 44.93765 45.0895 45.24133 45.39319 45.54501 45.69687 45.84871 46.00055 46.15239 46.30423 46.45609 46.60791 46.75975 46.9116 47.06345 47.2153 47.36713 47.51898 47.67082 47.82265 47.9745 48.12634 48.2782 48.43004 48.58186 48.73372 48.88554 49.0374 49.18924 49.34108 49.49294 49.64476 49.79662 49.94847 50.10028 50.25214 50.40398 50.55583 50.70769 50.8595 51.01135 51.16318 51.31503 51.46689 51.61871 51.77057 51.9224 52.07425 52.2261 52.37793 52.52977 52.68161 52.83347 52.98532 53.13715 53.28899 53.44083 53.59267 53.74452 53.89636 54.0482 54.20003 54.35188 54.50374 54.65558 54.80742 54.95924 55.1111 55.26295 55.41478 55.56664 55.71844 55.87032 56.02216 56.174 56.32585 56.47766 56.62952 56.78137 56.9332 57.08507 57.2369 57.38873 57.54059 57.69241 57.84427 57.99611 58.14795 58.2998 58.45163 58.60349 58.75531 58.90715 59.059 59.21085 59.3627 59.51453 59.66637 59.81822 59.97005 60.1219 60.27374 60.4256 60.57744 60.72926 60.88112 61.03294 61.1848 61.33664 61.48848 61.64034 61.79216 61.94402 62.09586 62.24768 62.39954 62.55138 62.70323 62.85509 63.0069 63.15875 63.31058 63.46243 63.61429 63.76611 63.91797 64.0698 64.22165 64.3735 64.52531 64.67717 64.82901 64.98087 65.13272 65.28455 65.43639 65.58821 65.74008 65.89192 66.04376 66.1956 66.34743 66.49928 66.65114 66.80296 66.95482 67.10664 67.2585 67.41035 67.56218 67.71404 67.86586 68.0177 68.16956 68.3214 68.47325 68.62506 68.77692 68.92877 69.08061 69.23247 69.38428 69.53613 69.68799 69.83981 69.99167 70.14351 70.29535 70.4472 70.59903 70.75089 70.90271 71.05455 71.2064 71.35825 71.5101 71.66193 71.81377 71.96562 72.11745 72.2693 72.42114 72.573 72.72484 72.87666 73.02852 73.18034 73.3322 73.48404 73.63588 73.78773 73.93956 74.09142 74.24326 74.39508 74.54694 74.69878 74.85063 75.00249 75.1543 75.30615 75.45798 75.60983 75.76169 75.91351 76.06537 76.2172 76.36905 76.5209 76.67271 76.82457 76.97641 77.12827 77.28012 77.43193 77.58379 77.73563 77.88747 78.03932 78.19116 78.343 78.49483 78.64668 78.79854 78.95038 79.1022 79.25404 79.4059 79.55775 79.70958 79.86142 80.01326 80.16512 80.31696 80.4688 80.62065 80.77246 80.92432 81.07617 81.22801 81.37987 81.53168 81.68353 81.83539 81.98721 82.13907 82.2909 82.44275 82.59459 82.74643 82.89828 83.05011 83.20195 83.3538 83.50565 83.6575 83.80933 83.96117 84.11302 84.26485 84.4167 84.56854 84.72038 84.87224 85.02406 85.17592 85.32774 85.4796 85.63144 85.78328 85.93513 86.08696 86.23882 86.39066 86.54248 86.69434 86.84618 86.99803 87.14987 87.3017 87.45355 87.6054 87.75723 87.90909 88.06091 88.21277 88.3646 88.51645 88.6683 88.82013 88.97197 89.12381 89.27567 89.42752 89.57933 89.73119 89.88301 90.03487 90.18672 90.33856 90.4904 90.64223 90.79408 90.94594 91.09776 91.2496 91.40144 91.5533 91.70515 91.85698 92.00882 92.16066 92.31252 92.46436 92.6162 92.76805 92.91986 93.07172 93.22357 93.37541 93.52727 93.67908 93.83093 93.98279 94.13461 94.28647 94.4383 94.59015 94.742 94.89383 95.04568 95.19751"/>
<path transform="matrix(1,0,0,-1.00002,1.4670029,163.18994)" stroke-width="1.59404" stroke-linecap="butt" stroke-miterlimit="10" stroke-linejoin="miter" fill="none" stroke="#0000ff" d="M97.14064 134.4919H97.29636 97.45209 97.60783 97.76357 97.91931 98.07504 98.23079 98.3865 98.54225 98.69798 98.85371 99.00946 99.16519 99.32094 99.47665 99.6324 99.78813 99.94388 100.09961 100.25534 100.41109 100.5668 100.72255 100.87828 101.03403 101.18976 101.3455 101.50124 101.65697 101.8127 101.96843 102.12418 102.2799 102.43565 102.59138 102.74713 102.90285 103.0586 103.21432 103.37006 103.5258 103.68153 103.83728 103.993 104.14874 104.30447 104.46022 104.61595 104.77168 104.92743 105.08315 105.23889 105.39462 105.55037 105.7061 105.86185 106.01758 106.1733 106.32904 106.48477 106.64052 106.79625 106.952 107.10773 107.26346 107.41919 107.57494 107.73067 107.88641 108.04214 108.19788 108.3536 108.50934 108.66508 108.82082 108.97656 109.1323 109.28802 109.44376 109.59949 109.75523 109.91096 110.06671 110.22244 110.37819 110.5339 110.68964 110.84538 111.00111 111.15686 111.31259 111.46834 111.62405 111.7798 111.93553 112.09126 112.24701 112.40276 112.55849 112.7142 112.86995 113.02568 113.18143 113.33714 113.4929 113.64865 113.80435 113.9601 114.11583 114.27158 114.42732 114.58304 114.73878 114.8945 115.05025 115.206 115.36172 115.51747 115.67319 115.82893 115.98466 116.1404 116.29614 116.45187 116.60762 116.76337 116.91908 117.07481 117.23055 117.38629 117.54204 117.69775 117.8535 118.00923 118.16496 118.32071 118.47644 118.63219 118.7879 118.94365 119.0994 119.25513 119.41086 119.56657 119.72234 119.87807 120.0338 120.18954 120.34528 120.501 120.65675 120.81247 120.96823 121.12395 121.2797 121.43544 121.59116 121.7469 121.90262 122.05836 122.21411 122.36984 122.52559 122.68129 122.83705 122.9928 123.14851 123.30426 123.45999 123.61574 123.77147 123.92719 124.08293 124.23866 124.39441 124.55016 124.70589 124.86162 125.01733 125.17308 125.32883 125.48456 125.6403 125.79602 125.95175 126.10751 126.26323 126.41898 126.5747 126.73045 126.8862 127.0419 127.19765 127.35338 127.50912 127.66487 127.82059 127.97635 128.13205 128.2878 128.44355 128.59928 128.75502 128.91074 129.06649 129.22222 129.37795 129.53369 129.68943 129.84517 130.00092 130.15663 130.31237 130.4681 130.62384 130.77959 130.93532 131.09105 131.24678 131.40251 131.55826 131.71399 131.86974 132.02545 132.1812 132.33695 132.49266 132.6484 132.80414 132.95989 133.11563 133.27135 133.4271 133.58281 133.73856 133.8943 134.05004 134.20578 134.3615 134.51725 134.67298 134.8287 134.98445 135.14017 135.29592 135.45168 135.60739 135.76313 135.91886 136.0746 136.23035 136.38607 136.54181 136.69754 136.85329 137.00902 137.16474 137.3205 137.47621 137.63196 137.7877 137.94344 138.09917 138.25489 138.41063 138.56638 138.7221 138.87786 139.03357 139.18932 139.34506 139.50078 139.65653 139.81226 139.968 140.12375 140.27945 140.4352 140.59093 140.74668 140.90242 141.05815 141.2139 141.3696 141.52535 141.68109 141.83683 141.99257 142.14829 142.30403 142.45978 142.6155 142.77124 142.92697 143.08272 143.23847 143.39418 143.54991 143.70565 143.86139 144.01714 144.17287 144.32862 144.48433 144.64006 144.7958 144.95154 145.10729 145.26302 145.41876 145.57451 145.73021 145.88596 146.04169 146.19744 146.35318 146.5089 146.66464 146.82036 146.9761 147.13185 147.28759 147.44333 147.59905 147.75479 147.91053 148.06626 148.222 148.37772 148.53348 148.68923 148.84494 149.00067 149.1564 149.31215 149.4679 149.62361 149.77936 149.93509 150.09082 150.24657 150.4023 150.55805 150.71376 150.8695 151.02526 151.18097 151.33672 151.49243 151.64818 151.80394 151.95966 152.1154 152.27112 152.42687 152.58261 152.73833 152.89408 153.0498 153.20555 153.3613 153.517 153.67276 153.82848 153.98423 154.13997 154.2957 154.45145 154.60715 154.7629 154.91864 155.07437 155.23012 155.38585 155.5416 155.69733 155.85305 156.00879 156.16452 156.32027 156.47602 156.63175 156.78748 156.94319 157.09894 157.25469 157.41042 157.56616 157.72188 157.87761 158.03336 158.18909 158.34484 158.50057 158.65631 158.81206 158.96776 159.1235 159.27924 159.43498 159.59073 159.74646 159.9022 160.0579 160.21366 160.3694 160.52513 160.68088 160.8366 160.99234 161.14807 161.3038 161.45955 161.61528 161.77103 161.92678 162.08249 162.23822 162.39395 162.5497 162.70545 162.86116 163.01692 163.17264 163.32837 163.48412 163.63985 163.7956 163.95131 164.10706 164.2628 164.41852 164.57427 164.72998 164.88574 165.04149 165.1972 165.35295 165.50867 165.66442 165.82016 165.97588 166.13162 166.28736 166.4431 166.59883 166.75457 166.91031 167.06603 167.22177 167.37752 167.53325 167.68898 167.8447 168.00045 168.1562 168.31192 168.46767 168.6234 168.77913 168.93488 169.09059 169.24634 169.40207 169.55782 169.71356 169.86928 170.02503 170.18074 170.33649 170.49224 170.64797 170.80371 170.95944 171.11516 171.27092 171.42664 171.58238 171.73812 171.89386 172.0496 172.2053 172.36106 172.51679 172.67253 172.82828 172.98401 173.13976 173.29546 173.4512 173.60695 173.76268 173.91843 174.07415 174.2299 174.38562 174.54135 174.6971 174.85283"/>
<path transform="matrix(1,0,0,-1.00002,1.4670029,163.18994)" stroke-width=".3985" stroke-linecap="butt" stroke-miterlimit="10" stroke-linejoin="miter" fill="none" stroke="#0000ff" d="M19.42812 134.4919"/>
</g>
<path transform="matrix(1,0,0,-1.00002,1.4670029,163.18994)" d="M99.1332 134.4919C99.1332 135.59236 98.2411 136.48445 97.14064 136.48445 96.04016 136.48445 95.14809 135.59236 95.14809 134.4919 95.14809 133.39142 96.04016 132.49935 97.14064 132.49935 98.2411 132.49935 99.1332 133.39142 99.1332 134.4919ZM97.14064 134.4919" fill="#0000ff"/>
<path transform="matrix(1,0,0,-1.00002,1.4670029,163.18994)" stroke-width=".3985" stroke-linecap="butt" stroke-miterlimit="10" stroke-linejoin="miter" fill="none" stroke="#0000ff" d="M99.1332 134.4919C99.1332 135.59236 98.2411 136.48445 97.14064 136.48445 96.04016 136.48445 95.14809 135.59236 95.14809 134.4919 95.14809 133.39142 96.04016 132.49935 97.14064 132.49935 98.2411 132.49935 99.1332 133.39142 99.1332 134.4919ZM97.14064 134.4919"/>
<path transform="matrix(1,0,0,-1.00002,1.4670029,163.18994)" stroke-width=".3985" stroke-linecap="butt" stroke-miterlimit="10" stroke-linejoin="miter" fill="none" stroke="#0000ff" d=""/>
<path transform="matrix(1,0,0,-1.00002,1.4670029,163.18994)" stroke-width=".3985" stroke-linecap="butt" stroke-miterlimit="10" stroke-linejoin="miter" fill="none" stroke="#0000ff" d="M99.1332 26.89838C99.1332 27.99884 98.2411 28.89093 97.14064 28.89093 96.04016 28.89093 95.14809 27.99884 95.14809 26.89838 95.14809 25.7979 96.04016 24.90582 97.14064 24.90582 98.2411 24.90582 99.1332 25.7979 99.1332 26.89838ZM97.14064 26.89838"/>
<path transform="matrix(1,0,0,-1.00002,1.4670029,163.18994)" stroke-width=".3985" stroke-linecap="butt" stroke-miterlimit="10" stroke-linejoin="miter" fill="none" stroke="#0000ff" d=""/>
<path transform="matrix(1,0,0,-1.00002,1.4670029,163.18994)" stroke-width=".3985" stroke-linecap="butt" stroke-miterlimit="10" stroke-linejoin="miter" fill="none" stroke="#0000ff" d=""/>
<use data-text="a" xlink:href="#font_4_1" transform="matrix(10.9091,0,0,-10.909318,10.652004,22.133118)" fill="#0000ff"/>
<use data-text="(" xlink:href="#font_2_1" transform="matrix(10.9091,0,0,-10.909318,16.419003,22.133118)" fill="#0000ff"/>
<use data-text="x" xlink:href="#font_4_3" transform="matrix(10.9091,0,0,-10.909318,20.661,22.133118)" fill="#0000ff"/>
<use data-text=")" xlink:href="#font_2_2" transform="matrix(10.9091,0,0,-10.909318,26.896,22.133118)" fill="#0000ff"/>
<path transform="matrix(1,0,0,-1.00002,1.4670029,163.18994)" stroke-width=".3985" stroke-linecap="butt" stroke-miterlimit="10" stroke-linejoin="miter" fill="none" stroke="#0000ff" d=""/>
<use data-text="x" xlink:href="#font_4_3" transform="matrix(10.9091,0,0,-10.909318,185.67801,78.65825)"/>
<use data-text="y" xlink:href="#font_4_4" transform="matrix(10.9091,0,0,-10.909318,102.443,10.328873)"/>
<path transform="matrix(1,0,0,-1.00002,199.77701,163.18994)" stroke-width=".19925" stroke-linecap="butt" stroke-miterlimit="10" stroke-linejoin="miter" fill="none" stroke="#929292" d="M19.42812 78.56915V82.8211M58.28438 78.56915V82.8211M135.99689 78.56915V82.8211M174.85315 78.56915V82.8211"/>
<path transform="matrix(1,0,0,-1.00002,199.77701,163.18994)" stroke-width=".19925" stroke-linecap="butt" stroke-miterlimit="10" stroke-linejoin="miter" fill="none" stroke="#929292" d="M95.01462 26.89838H99.26663M95.01462 134.4919H99.26663"/>
<path transform="matrix(1,0,0,-1.00002,199.77701,163.18994)" stroke-width=".3985" stroke-linecap="butt" stroke-miterlimit="10" stroke-linejoin="miter" fill="none" stroke="#000000" d="M0 80.69513H192.28876"/>
<path transform="matrix(1,0,0,-1.00002,392.06578,82.493198)" d="M1.99252 0-1.19551 1.59401 0 0-1.19551-1.59401"/>
<path transform="matrix(1,0,0,-1.00002,199.77701,163.18994)" stroke-width=".3985" stroke-linecap="butt" stroke-miterlimit="10" stroke-linejoin="miter" fill="none" stroke="#000000" d="M97.14064 0V159.39775"/>
<path transform="matrix(0,-1.00002,-1,-0,296.91767,3.7890015)" d="M1.99252 0-1.19551 1.59401 0 0-1.19551-1.59401"/>
<use data-text="&#x2212;" xlink:href="#font_1_1" transform="matrix(10.9091,0,0,-10.909318,212.23502,95.48458)"/>
<use data-text="4" xlink:href="#font_2_4" transform="matrix(10.9091,0,0,-10.909318,220.72,95.48458)"/>
<use data-text="&#x2212;" xlink:href="#font_1_1" transform="matrix(10.9091,0,0,-10.909318,251.09201,95.48458)"/>
<use data-text="2" xlink:href="#font_2_3" transform="matrix(10.9091,0,0,-10.909318,259.577,95.48458)"/>
<use data-text="2" xlink:href="#font_2_3" transform="matrix(10.9091,0,0,-10.909318,333.047,95.48458)"/>
<use data-text="4" xlink:href="#font_2_4" transform="matrix(10.9091,0,0,-10.909318,371.903,95.48458)"/>
<use data-text="&#x2212;" xlink:href="#font_1_1" transform="matrix(10.9091,0,0,-10.909318,277.017,139.35147)"/>
<use data-text="2" xlink:href="#font_2_3" transform="matrix(10.9091,0,0,-10.909318,285.50199,139.35147)"/>
<use data-text="2" xlink:href="#font_2_3" transform="matrix(10.9091,0,0,-10.909318,285.502,32.21031)"/>
<g clip-path="url(#clip_5)">
<path transform="matrix(1,0,0,-1.00002,199.77701,163.18994)" stroke-width="1.59404" stroke-linecap="butt" stroke-miterlimit="10" stroke-linejoin="miter" fill="none" stroke="#0000ff" d="M19.42812 26.89838 38.85625 53.79675 58.28438 80.69513 77.71251 107.59352 97.14064 134.4919"/>
<path transform="matrix(1,0,0,-1.00002,199.77701,163.18994)" stroke-width="1.59404" stroke-linecap="butt" stroke-miterlimit="10" stroke-linejoin="miter" fill="none" stroke="#0000ff" d="M97.14064 134.4919 116.56876 107.59352 135.99689 80.69513 155.42502 53.79675 174.85315 26.89838"/>
<path transform="matrix(1,0,0,-1.00002,199.77701,163.18994)" stroke-width=".3985" stroke-linecap="butt" stroke-miterlimit="10" stroke-linejoin="miter" fill="none" stroke="#0000ff" d="M174.85315 134.4919"/>
</g>
<path transform="matrix(1,0,0,-1.00002,199.77701,163.18994)" stroke-width=".3985" stroke-linecap="butt" stroke-miterlimit="10" stroke-linejoin="miter" fill="none" stroke="#0000ff" d=""/>
<use data-text="b" xlink:href="#font_4_2" transform="matrix(10.9091,0,0,-10.909318,364.92903,22.133118)" fill="#0000ff"/>
<use data-text="(" xlink:href="#font_2_1" transform="matrix(10.9091,0,0,-10.909318,369.61103,22.133118)" fill="#0000ff"/>
<use data-text="x" xlink:href="#font_4_3" transform="matrix(10.9091,0,0,-10.909318,373.854,22.133118)" fill="#0000ff"/>
<use data-text=")" xlink:href="#font_2_2" transform="matrix(10.9091,0,0,-10.909318,380.088,22.133118)" fill="#0000ff"/>
<path transform="matrix(1,0,0,-1.00002,199.77701,163.18994)" stroke-width=".3985" stroke-linecap="butt" stroke-miterlimit="10" stroke-linejoin="miter" fill="none" stroke="#0000ff" d=""/>
<use data-text="x" xlink:href="#font_4_3" transform="matrix(10.9091,0,0,-10.909318,383.988,78.65825)"/>
<use data-text="y" xlink:href="#font_4_4" transform="matrix(10.9091,0,0,-10.909318,300.753,10.328873)"/>
</svg>
