<svg xmlns="http://www.w3.org/2000/svg" xmlns:xlink="http://www.w3.org/1999/xlink" xmlns:inkscape="http://www.inkscape.org/namespaces/inkscape" version="1.1" width="212" height="177" viewBox="0 0 212 177">
<defs>
<clipPath id="clip_1">
<path transform="matrix(1.00005,0,0,-1,1.0961456,175.93901)" d="M0 0H194.28128V161.3994H0Z"/>
</clipPath>
<path id="font_2_1" d="M.33399964 .30233766C.33999635 .32835389 .36299134 .42037965 .43299867 .42037965 .43798829 .42037965 .46199037 .42037965 .48298646 .40734864 .45498658 .402359 .43499757 .37734986 .43499757 .35334779 .43499757 .33735658 .44599916 .31835938 .47299195 .31835938 .49499513 .31835938 .5269928 .3363495 .5269928 .37635804 .5269928 .42837525 .46798707 .4423828 .43399049 .4423828 .37599183 .4423828 .34098817 .38935853 .32899476 .36634828 .3039856 .43237306 .25 .4423828 .22099304 .4423828 .116989139 .4423828 .05999756 .3133545 .05999756 .28834535 .05999756 .27833558 .069992069 .27833558 .07199097 .27833558 .07998657 .27833558 .08299255 .28033448 .084991458 .28933717 .11898804 .39535523 .18499756 .42037965 .21899414 .42037965 .23799134 .42037965 .272995 .4113617 .272995 .35334779 .272995 .32235719 .2559967 .25532533 .21899414 .11528015 .20298767 .053268434 .16799927 .011245728 .12399292 .011245728 .117996219 .011245728 .09498596 .011245728 .07398987 .024276734 .09899902 .029266358 .12098694 .05027771 .12098694 .07827759 .12098694 .105270389 .09899902 .11328125 .083999637 .11328125 .053985597 .11328125 .0289917 .08728027 .0289917 .055267335 .0289917 .009246826 .07899475-.0107421879 .12298584-.0107421879 .18899536-.0107421879 .22499085 .059280397 .22799683 .0652771 .23999024 .028274537 .27598573-.0107421879 .33599855-.0107421879 .43899537-.0107421879 .49598695 .118270877 .49598695 .14328003 .49598695 .1532898 .4869995 .1532898 .48399354 .1532898 .47499085 .1532898 .47299195 .14929199 .47099305 .14228821 .43798829 .03527832 .36999513 .011245728 .33799745 .011245728 .29899598 .011245728 .2829895 .043273927 .2829895 .07727051 .2829895 .09927368 .2889862 .121276859 .2999878 .16529846L.33399964 .30233766Z"/>
<path id="font_2_2" d="M.48599244 .38136292C.48999024 .39537049 .48999024 .39736939 .48999024 .40437318 .48999024 .42237855 .47599793 .43138124 .46099855 .43138124 .45098878 .43138124 .43499757 .42536927 .42599488 .41036988 .42399598 .405365 .41600038 .37435914 .4119873 .35635377 .40499879 .33035279 .397995 .30334474 .3919983 .27633668L.34700013 .09628296C.34298707 .08126831 .2999878 .011245728 .23399353 .011245728 .18299866 .011245728 .17199707 .055267335 .17199707 .0922699 .17199707 .1382904 .18899536 .20030213 .22299195 .28833009 .23899842 .3293457 .24299622 .3403473 .24299622 .36035157 .24299622 .405365 .21099854 .4423828 .16099549 .4423828 .06599426 .4423828 .0289917 .29733277 .0289917 .28833009 .0289917 .27833558 .038986207 .27833558 .040985109 .27833558 .050994874 .27833558 .051986696 .28033448 .056991579 .29634095 .083999637 .3903656 .12399292 .42037965 .1579895 .42037965 .1659851 .42037965 .18299866 .42037965 .18299866 .3883667 .18299866 .36335755 .17298889 .3373413 .1659851 .31834413 .12599182 .21231079 .10798645 .1552887 .10798645 .10827637 .10798645 .019256592 .17098999-.0107421879 .22999573-.0107421879 .2689972-.0107421879 .30299378 .0062561037 .33099366 .03425598 .31799317-.017745972 .30599977-.06674194 .2659912-.11973572 .23999024-.15385437 .20199585-.18309021 .1559906-.18309021 .14199829-.18309021 .09700012-.18005371 .07998657-.14074707 .09599304-.14074707 .10899353-.14074707 .12298584-.1287384 .1329956-.11973572 .14299011-.10673523 .14299011-.08773804 .14299011-.056747438 .115997318-.052734376 .10598755-.052734376 .08299255-.052734376 .049987794-.068740848 .049987794-.11773682 .049987794-.16796875 .09399414-.20507813 .1559906-.20507813 .25898744-.20507813 .3619995-.11373901 .3899994-.00074768069L.48599244 .38136292Z"/>
</defs>
<path transform="matrix(1.00005,0,0,-1,1.0961456,175.93901)" stroke-width=".19925" stroke-linecap="butt" stroke-miterlimit="10" stroke-linejoin="miter" fill="none" stroke="#7f807f" d=""/>
<path transform="matrix(1.00005,0,0,-1,1.0961456,175.93901)" stroke-width=".19925" stroke-linecap="butt" stroke-miterlimit="10" stroke-linejoin="miter" fill="none" stroke="#7f807f" d=""/>
<path transform="matrix(1.00005,0,0,-1,1.0961456,175.93901)" stroke-width=".3985" stroke-linecap="butt" stroke-miterlimit="10" stroke-linejoin="miter" fill="none" stroke="#000000" d="M0 80.69969H192.28876"/>
<path transform="matrix(1.00005,0,0,-1,193.3945,95.23932)" d="M1.99252 0-1.19551 1.59401 0 0-1.19551-1.59401"/>
<path transform="matrix(1.00005,0,0,-1,1.0961456,175.93901)" stroke-width=".3985" stroke-linecap="butt" stroke-miterlimit="10" stroke-linejoin="miter" fill="none" stroke="#000000" d="M97.14064 0V159.40688"/>
<path transform="matrix(0,-1,-1.00005,-0,98.24164,16.532135)" d="M1.99252 0-1.19551 1.59401 0 0-1.19551-1.59401"/>
<g clip-path="url(#clip_1)">
<path transform="matrix(1.00005,0,0,-1,1.0961456,175.93901)" stroke-width=".79701" stroke-linecap="butt" stroke-miterlimit="10" stroke-linejoin="miter" fill="none" stroke="#000000" d="M19.42812 80.5553 20.99805 80.50485 22.56796 80.43864 24.1379 80.35234 25.70781 80.24074 27.27774 80.0976 28.84767 79.91513 30.4176 79.68477 31.98752 79.39574 33.55745 79.0367 35.12738 78.59344 36.69731 78.0516 38.26723 77.394 39.83716 76.60283 41.40707 75.6592 42.97702 74.54321 44.54694 73.23555 46.11687 71.71716 47.68678 69.97028 49.25673 67.98004 50.82664 65.73451 52.39658 63.22769 53.96649 60.45856 55.53642 57.44589 57.10635 54.17935 58.67628 50.70099 60.2462 47.03976 61.81613 43.24654 63.38606 39.3775 64.956 35.50275 66.52592 31.70515 68.09584 28.06955 69.66577 24.706 71.2357 21.7047 72.80563 19.18816 74.37555 17.22809 75.94548 15.94725 77.51541 15.4383 79.08534 15.75804 80.65526 16.994 82.22519 19.16837 83.7951 22.31067 85.36505 26.41287 86.93497 31.45169 88.5049 37.36258 90.07481 44.06273 91.64476 51.45116 93.21468 59.39064 94.7846 67.74477 96.35452 76.34892 97.92445 85.03789 99.49438 93.64355 101.06432 101.9964 102.63423 109.93948 104.20416 117.32484 105.77408 124.02538 107.34402 129.94237 108.91394 134.97603 110.48387 139.08615 112.05379 142.23075 113.62373 144.40663 115.19365 145.64417 116.76358 145.96555 118.3335 145.45807 119.90343 144.17627 121.47336 142.219 123.04329 139.6895 124.6132 136.6888 126.18314 133.32569 127.75307 129.70755 129.323 125.9095 130.89292 122.03964 132.46285 118.17 134.03276 114.37798 135.6027 110.72005 137.17263 107.21852 138.74256 103.97295 140.31247 100.94499 141.88242 98.17543 143.45233 95.66823 145.02227 93.42242 146.59218 91.43185 148.16211 89.6846 149.73204 88.16573 151.30197 86.85783 152.87189 85.74164 154.44182 84.7978 156.01175 84.00638 157.58168 83.34863 159.1516 82.80669 160.72153 82.36343 162.29145 82.004 163.86139 81.71509 165.4313 81.48453 167.00124 81.3021 168.57115 81.15877 170.1411 81.04715 171.71102 80.96085 173.28095 80.89459 174.85086 80.84415"/>
</g>
<use data-text="x" xlink:href="#font_2_1" transform="matrix(9.963098,0,0,-9.9626,205.60335,97.38401)"/>
<use data-text="y" xlink:href="#font_2_2" transform="matrix(9.963098,0,0,-9.9626,95.620868,6.208008)"/>
</svg>
