<svg xmlns="http://www.w3.org/2000/svg" xmlns:xlink="http://www.w3.org/1999/xlink" xmlns:inkscape="http://www.inkscape.org/namespaces/inkscape" version="1.1" width="212" height="177" viewBox="0 0 212 177">
<defs>
<clipPath id="clip_1">
<path transform="matrix(1.00005,0,0,-1.00006,1.0961456,175.94577)" d="M0 0H194.28128V161.39597H0Z"/>
</clipPath>
<path id="font_2_1" d="M.33399964 .30233766C.33999635 .32835389 .36299134 .42037965 .43299867 .42037965 .43798829 .42037965 .46199037 .42037965 .48298646 .40734864 .45498658 .402359 .43499757 .37734986 .43499757 .35334779 .43499757 .33735658 .44599916 .31835938 .47299195 .31835938 .49499513 .31835938 .5269928 .3363495 .5269928 .37635804 .5269928 .42837525 .46798707 .4423828 .43399049 .4423828 .37599183 .4423828 .34098817 .38935853 .32899476 .36634828 .3039856 .43237306 .25 .4423828 .22099304 .4423828 .116989139 .4423828 .05999756 .3133545 .05999756 .28834535 .05999756 .27833558 .069992069 .27833558 .07199097 .27833558 .07998657 .27833558 .08299255 .28033448 .084991458 .28933717 .11898804 .39535523 .18499756 .42037965 .21899414 .42037965 .23799134 .42037965 .272995 .4113617 .272995 .35334779 .272995 .32235719 .2559967 .25532533 .21899414 .11528015 .20298767 .053268434 .16799927 .011245728 .12399292 .011245728 .117996219 .011245728 .09498596 .011245728 .07398987 .024276734 .09899902 .029266358 .12098694 .05027771 .12098694 .07827759 .12098694 .105270389 .09899902 .11328125 .083999637 .11328125 .053985597 .11328125 .0289917 .08728027 .0289917 .055267335 .0289917 .009246826 .07899475-.0107421879 .12298584-.0107421879 .18899536-.0107421879 .22499085 .059280397 .22799683 .0652771 .23999024 .028274537 .27598573-.0107421879 .33599855-.0107421879 .43899537-.0107421879 .49598695 .118270877 .49598695 .14328003 .49598695 .1532898 .4869995 .1532898 .48399354 .1532898 .47499085 .1532898 .47299195 .14929199 .47099305 .14228821 .43798829 .03527832 .36999513 .011245728 .33799745 .011245728 .29899598 .011245728 .2829895 .043273927 .2829895 .07727051 .2829895 .09927368 .2889862 .121276859 .2999878 .16529846L.33399964 .30233766Z"/>
<path id="font_2_2" d="M.48599244 .38136292C.48999024 .39537049 .48999024 .39736939 .48999024 .40437318 .48999024 .42237855 .47599793 .43138124 .46099855 .43138124 .45098878 .43138124 .43499757 .42536927 .42599488 .41036988 .42399598 .405365 .41600038 .37435914 .4119873 .35635377 .40499879 .33035279 .397995 .30334474 .3919983 .27633668L.34700013 .09628296C.34298707 .08126831 .2999878 .011245728 .23399353 .011245728 .18299866 .011245728 .17199707 .055267335 .17199707 .0922699 .17199707 .1382904 .18899536 .20030213 .22299195 .28833009 .23899842 .3293457 .24299622 .3403473 .24299622 .36035157 .24299622 .405365 .21099854 .4423828 .16099549 .4423828 .06599426 .4423828 .0289917 .29733277 .0289917 .28833009 .0289917 .27833558 .038986207 .27833558 .040985109 .27833558 .050994874 .27833558 .051986696 .28033448 .056991579 .29634095 .083999637 .3903656 .12399292 .42037965 .1579895 .42037965 .1659851 .42037965 .18299866 .42037965 .18299866 .3883667 .18299866 .36335755 .17298889 .3373413 .1659851 .31834413 .12599182 .21231079 .10798645 .1552887 .10798645 .10827637 .10798645 .019256592 .17098999-.0107421879 .22999573-.0107421879 .2689972-.0107421879 .30299378 .0062561037 .33099366 .03425598 .31799317-.017745972 .30599977-.06674194 .2659912-.11973572 .23999024-.15385437 .20199585-.18309021 .1559906-.18309021 .14199829-.18309021 .09700012-.18005371 .07998657-.14074707 .09599304-.14074707 .10899353-.14074707 .12298584-.1287384 .1329956-.11973572 .14299011-.10673523 .14299011-.08773804 .14299011-.056747438 .115997318-.052734376 .10598755-.052734376 .08299255-.052734376 .049987794-.068740848 .049987794-.11773682 .049987794-.16796875 .09399414-.20507813 .1559906-.20507813 .25898744-.20507813 .3619995-.11373901 .3899994-.00074768069L.48599244 .38136292Z"/>
</defs>
<path transform="matrix(1.00005,0,0,-1.00006,1.0961456,175.94577)" stroke-width=".19925" stroke-linecap="butt" stroke-miterlimit="10" stroke-linejoin="miter" fill="none" stroke="#7f807f" d=""/>
<path transform="matrix(1.00005,0,0,-1.00006,1.0961456,175.94577)" stroke-width=".19925" stroke-linecap="butt" stroke-miterlimit="10" stroke-linejoin="miter" fill="none" stroke="#7f807f" d=""/>
<path transform="matrix(1.00005,0,0,-1.00006,1.0961456,175.94577)" stroke-width=".3985" stroke-linecap="butt" stroke-miterlimit="10" stroke-linejoin="miter" fill="none" stroke="#000000" d="M0 108.28177H192.28876"/>
<path transform="matrix(1.00005,0,0,-1.00006,193.3945,67.65751)" d="M1.99252 0-1.19551 1.59401 0 0-1.19551-1.59401"/>
<path transform="matrix(1.00005,0,0,-1.00006,1.0961456,175.94577)" stroke-width=".3985" stroke-linecap="butt" stroke-miterlimit="10" stroke-linejoin="miter" fill="none" stroke="#000000" d="M97.14064 0V159.40345"/>
<path transform="matrix(0,-1.00006,-1.00005,-0,98.24164,16.532776)" d="M1.99252 0-1.19551 1.59401 0 0-1.19551-1.59401"/>
<g clip-path="url(#clip_1)">
<path transform="matrix(1.00005,0,0,-1.00006,1.0961456,175.94577)" stroke-width=".79701" stroke-linecap="butt" stroke-miterlimit="10" stroke-linejoin="miter" fill="none" stroke="#000000" d="M19.42812 106.12155 20.99805 106.10811 22.56796 106.09006 24.1379 106.06595 25.70781 106.03397 27.27774 105.9919 28.84767 105.93684 30.4176 105.86545 31.98752 105.77333 33.55745 105.65553 35.12738 105.50575 36.69731 105.31688 38.26723 105.08023 39.83716 104.7859 41.40707 104.42252 42.97702 103.97704 44.54694 103.43507 46.11687 102.78053 47.68678 101.99582 49.25673 101.06216 50.82664 99.9595 52.39658 98.66745 53.96649 97.16487 55.53642 95.43663 57.10635 93.45122 58.67628 91.19812 60.2462 88.65819 61.81613 85.82083 63.38606 82.67647 64.956 79.22192 66.52592 75.46144 68.09584 71.40138 69.66577 67.06728 71.2357 62.47609 72.80563 57.67456 74.37555 52.67972 75.94548 47.5595 77.51541 42.37448 79.08534 37.16824 80.65526 32.03635 82.22519 27.03085 83.7951 22.23889 85.36505 17.73268 86.93497 13.6004 88.5049 9.9026 90.07481 6.70407 91.64476 4.08022 93.21468 2.05019 94.7846 .69046 96.35452 0H97.92445L99.49438 .67877 101.06432 2.05019 102.63423 4.06853 104.20416 6.70407 105.77408 9.9026 107.34402 13.58978 108.91394 17.73268 110.48387 22.22829 112.05379 27.01917 113.62373 32.02466 115.19365 37.15654 116.76358 42.3628 118.3335 47.54779 119.90343 52.67015 121.47336 57.66394 123.04329 62.47609 124.6132 67.06728 126.18314 71.40138 127.75307 75.45082 129.323 79.21236 130.89292 82.66478 132.46285 85.81021 134.03276 88.64757 135.6027 91.18643 137.17263 93.45122 138.74256 95.42706 140.31247 97.16254 141.88242 98.66545 143.45233 99.9578 145.02227 101.0607 146.59218 101.99457 148.16211 102.77951 149.73204 103.43427 151.30197 103.97636 152.87189 104.42195 154.44182 104.78543 156.01175 105.07985 157.58168 105.31657 159.1516 105.50548 160.72153 105.65529 162.29145 105.7732 163.86139 105.8653 165.4313 105.93677 167.00124 105.9918 168.57115 106.03394 170.1411 106.0659 171.71102 106.09003 173.28095 106.1081 174.85086 106.12154"/>
</g>
<use data-text="x" xlink:href="#font_2_1" transform="matrix(9.963098,0,0,-9.963197,205.60335,68.33632)"/>
<use data-text="y" xlink:href="#font_2_2" transform="matrix(9.963098,0,0,-9.963197,95.620868,6.2085878)"/>
</svg>
