<svg xmlns="http://www.w3.org/2000/svg" xmlns:xlink="http://www.w3.org/1999/xlink" version="1.1" width="212" height="177" viewBox="0 0 212 177">
<defs>
<clipPath id="clip_1">
<path transform="matrix(1.00005,0,0,-1.00003,1.0961456,175.93589)" d="M0 0H194.28128V161.3918H0Z"/>
</clipPath>
<path id="font_2_1" d="M.33399964 .30233766C.33999635 .32835389 .36299134 .42037965 .43299867 .42037965 .43798829 .42037965 .46199037 .42037965 .48298646 .40734864 .45498658 .402359 .43499757 .37734986 .43499757 .35334779 .43499757 .33735658 .44599916 .31835938 .47299195 .31835938 .49499513 .31835938 .5269928 .3363495 .5269928 .37635804 .5269928 .42837525 .46798707 .4423828 .43399049 .4423828 .37599183 .4423828 .34098817 .38935853 .32899476 .36634828 .3039856 .43237306 .25 .4423828 .22099304 .4423828 .116989139 .4423828 .05999756 .3133545 .05999756 .28834535 .05999756 .27833558 .069992069 .27833558 .07199097 .27833558 .07998657 .27833558 .08299255 .28033448 .084991458 .28933717 .11898804 .39535523 .18499756 .42037965 .21899414 .42037965 .23799134 .42037965 .272995 .4113617 .272995 .35334779 .272995 .32235719 .2559967 .25532533 .21899414 .11528015 .20298767 .053268434 .16799927 .011245728 .12399292 .011245728 .117996219 .011245728 .09498596 .011245728 .07398987 .024276734 .09899902 .029266358 .12098694 .05027771 .12098694 .07827759 .12098694 .105270389 .09899902 .11328125 .083999637 .11328125 .053985597 .11328125 .0289917 .08728027 .0289917 .055267335 .0289917 .009246826 .07899475-.0107421879 .12298584-.0107421879 .18899536-.0107421879 .22499085 .059280397 .22799683 .0652771 .23999024 .028274537 .27598573-.0107421879 .33599855-.0107421879 .43899537-.0107421879 .49598695 .118270877 .49598695 .14328003 .49598695 .1532898 .4869995 .1532898 .48399354 .1532898 .47499085 .1532898 .47299195 .14929199 .47099305 .14228821 .43798829 .03527832 .36999513 .011245728 .33799745 .011245728 .29899598 .011245728 .2829895 .043273927 .2829895 .07727051 .2829895 .09927368 .2889862 .121276859 .2999878 .16529846L.33399964 .30233766Z"/>
<path id="font_2_2" d="M.48599244 .38136292C.48999024 .39537049 .48999024 .39736939 .48999024 .40437318 .48999024 .42237855 .47599793 .43138124 .46099855 .43138124 .45098878 .43138124 .43499757 .42536927 .42599488 .41036988 .42399598 .405365 .41600038 .37435914 .4119873 .35635377 .40499879 .33035279 .397995 .30334474 .3919983 .27633668L.34700013 .09628296C.34298707 .08126831 .2999878 .011245728 .23399353 .011245728 .18299866 .011245728 .17199707 .055267335 .17199707 .0922699 .17199707 .1382904 .18899536 .20030213 .22299195 .28833009 .23899842 .3293457 .24299622 .3403473 .24299622 .36035157 .24299622 .405365 .21099854 .4423828 .16099549 .4423828 .06599426 .4423828 .0289917 .29733277 .0289917 .28833009 .0289917 .27833558 .038986207 .27833558 .040985109 .27833558 .050994874 .27833558 .051986696 .28033448 .056991579 .29634095 .083999637 .3903656 .12399292 .42037965 .1579895 .42037965 .1659851 .42037965 .18299866 .42037965 .18299866 .3883667 .18299866 .36335755 .17298889 .3373413 .1659851 .31834413 .12599182 .21231079 .10798645 .1552887 .10798645 .10827637 .10798645 .019256592 .17098999-.0107421879 .22999573-.0107421879 .2689972-.0107421879 .30299378 .0062561037 .33099366 .03425598 .31799317-.017745972 .30599977-.06674194 .2659912-.11973572 .23999024-.15385437 .20199585-.18309021 .1559906-.18309021 .14199829-.18309021 .09700012-.18005371 .07998657-.14074707 .09599304-.14074707 .10899353-.14074707 .12298584-.1287384 .1329956-.11973572 .14299011-.10673523 .14299011-.08773804 .14299011-.056747438 .115997318-.052734376 .10598755-.052734376 .08299255-.052734376 .049987794-.068740848 .049987794-.11773682 .049987794-.16796875 .09399414-.20507813 .1559906-.20507813 .25898744-.20507813 .3619995-.11373901 .3899994-.00074768069L.48599244 .38136292Z"/>
</defs>
<path transform="matrix(1.00005,0,0,-1.00003,1.0961456,175.93589)" stroke-width=".19925" stroke-linecap="butt" stroke-miterlimit="10" stroke-linejoin="miter" fill="none" stroke="#929292" d=""/>
<path transform="matrix(1.00005,0,0,-1.00003,1.0961456,175.93589)" stroke-width=".19925" stroke-linecap="butt" stroke-miterlimit="10" stroke-linejoin="miter" fill="none" stroke="#929292" d=""/>
<path transform="matrix(1.00005,0,0,-1.00003,1.0961456,175.93589)" stroke-width=".3985" stroke-linecap="butt" stroke-miterlimit="10" stroke-linejoin="miter" fill="none" stroke="#000000" d="M0 129.11344H192.28876"/>
<path transform="matrix(1.00005,0,0,-1.00003,193.3945,46.818574)" d="M1.99252 0-1.19551 1.59401 0 0-1.19551-1.59401"/>
<path transform="matrix(1.00005,0,0,-1.00003,1.0961456,175.93589)" stroke-width=".3985" stroke-linecap="butt" stroke-miterlimit="10" stroke-linejoin="miter" fill="none" stroke="#000000" d="M97.14064 0V159.39928"/>
<path transform="matrix(0,-1.00003,-1.00005,-0,98.24164,16.531815)" d="M1.99252 0-1.19551 1.59401 0 0-1.19551-1.59401"/>
<g clip-path="url(#clip_1)">
<path transform="matrix(1.00005,0,0,-1.00003,1.0961456,175.93589)" stroke-width=".79701" stroke-linecap="butt" stroke-miterlimit="10" stroke-linejoin="miter" fill="none" stroke="#000000" d="M0 64.55672 .58868 65.5348 1.1774 66.51291 1.76611 67.491 2.35483 68.4691 2.94354 69.4472 3.53224 70.42531 4.12096 71.4034 4.70967 72.38148 5.29839 73.35959 5.8871 74.33769 6.4758 75.3158 7.06451 76.29388 7.65323 77.27199 8.24194 78.25009 8.83066 79.2282 9.41937 80.20628 10.00807 81.18437 10.59679 82.16249 11.1855 83.14058 11.77422 84.11868 12.36293 85.09677 12.95163 86.07489 13.54033 87.05298 14.12904 88.03108 14.71776 89.00919 15.30647 89.98729 15.89519 90.96538 16.48389 91.94347 17.0726 92.92157 17.66132 93.89967 18.25003 94.87778 18.83875 95.85587 19.42744 96.83397 20.01616 97.81207 20.60487 98.79018 21.19359 99.76826 21.7823 100.74637 22.37102 101.72447 22.95972 102.70256 23.54843 103.68066 24.13715 104.65875 24.72586 105.63686 25.31458 106.61496 25.90327 107.59306 26.49199 108.57115 27.0807 109.54927 27.6694 110.52736 28.25813 111.50545 28.84685 112.48355 29.43553 113.46165 30.02425 114.43976 30.61296 115.41785 31.20168 116.39595 31.79039 117.37405 32.37909 118.35216 32.9678 119.33025 33.55652 120.30835 34.14523 121.28645 34.73395 122.26454 35.32266 123.24265 35.91136 124.22073 36.50008 125.19884 37.08879 126.17694 37.6775 127.15504 38.26622 128.13314 38.85492 129.11124 39.44363 130.08934 40.03235 131.06745 40.62106 132.04553 41.20978 133.02362 41.7985 134.00174 42.38718 134.97983 42.9759 135.95793 43.5646 136.93602 44.15332 137.91414 44.74203 138.89223 45.33073 139.87033 45.91945 140.84842 46.50816 141.82654 47.09688 142.80463 47.6856 143.78272 48.2743 144.76082 48.863 145.73892 49.45172 146.71703 50.04044 147.69512 50.62915 148.67322 51.21786 149.6513 51.80656 150.62943 52.39528 151.60752 52.984 152.5856 53.57271 153.5637 54.16142 154.54181 54.75014 155.51992 55.33884 156.498 55.92755 157.4761 56.51625 158.45421 57.10497 159.43231 57.6937 160.4104 58.28238 161.3885"/>
<path transform="matrix(1.00005,0,0,-1.00003,1.0961456,175.93589)" stroke-width=".79701" stroke-linecap="butt" stroke-miterlimit="10" stroke-linejoin="miter" fill="none" stroke="#000000" d="M58.28438 161.3918 58.67683 160.08766 59.0693 158.78356 59.46178 157.47943 59.85423 156.17531 60.2467 154.8712 60.63918 153.56719 61.03165 152.26306 61.4241 150.95896 61.81657 149.65483 62.20905 148.35073 62.60152 147.0466 62.99399 145.74248 63.38644 144.43836 63.77892 143.13423 64.17139 141.83013 64.56384 140.526 64.95631 139.22188 65.34879 137.91777 65.74126 136.61365 66.13373 135.30954 66.52618 134.00553 66.91866 132.7014 67.31113 131.3973 67.7036 130.09317 68.09605 128.78907 68.48853 127.48492 68.881 126.1808 69.27347 124.8767 69.66592 123.57257 70.0584 122.26846 70.45087 120.96434 70.84334 119.66022 71.2358 118.35611 71.62827 117.05199 72.02074 115.74797 72.41321 114.44386 72.80568 113.13974 73.19814 111.83563 73.5906 110.5315 73.98308 109.22737 74.37555 107.92326 74.768 106.61914 75.16048 105.31503 75.55295 104.01091 75.94542 102.70679 76.33788 101.40268 76.73035 100.09856 77.12282 98.79445 77.51529 97.49033 77.90776 96.18625 78.30022 94.88216 78.6927 93.57803 79.08516 92.27393 79.47762 90.96982 79.87009 89.66571 80.26256 88.3616 80.65503 87.05748 81.0475 85.75337 81.43997 84.44926 81.83243 83.14514 82.2249 81.84105 82.61737 80.53693 83.00983 79.23282 83.4023 77.92871 83.79477 76.6246 84.18724 75.3205 84.57971 74.01637 84.97217 72.71227 85.36464 71.40816 85.75711 70.10405 86.14957 68.79994 86.54204 67.49582 86.93451 66.19171 87.32698 64.8876 87.71945 63.5835 88.11192 62.27939 88.50438 60.97528 88.89685 59.67116 89.2893 58.36705 89.68178 57.06294 90.07425 55.75883 90.46672 54.45471 90.85919 53.1506 91.25166 51.84651 91.64412 50.54239 92.03659 49.23827 92.42906 47.93417 92.82152 46.63005 93.21399 45.32594 93.60646 44.02184 93.99893 42.71773 94.3914 41.41362 94.78387 40.1095 95.17633 38.8054 95.5688 37.50128 95.96126 36.19716 96.35373 34.89307 96.7462 33.58896 97.13867 32.28485"/>
<path transform="matrix(1.00005,0,0,-1.00003,1.0961456,175.93589)" stroke-width="1.59404" stroke-linecap="butt" stroke-miterlimit="10" stroke-linejoin="miter" fill="none" stroke="#000000" d="M97.14064 32.27835H107.93373 118.72684 129.51995 140.31304 151.10614 161.89923 172.69234 183.48546 194.27855"/>
</g>
<use data-text="x" xlink:href="#font_2_1" transform="matrix(9.963098,0,0,-9.962899,205.60335,65.10355)"/>
<use data-text="y" xlink:href="#font_2_2" transform="matrix(9.963098,0,0,-9.962899,95.620868,6.207779)"/>
</svg>
