<svg xmlns="http://www.w3.org/2000/svg" xmlns:xlink="http://www.w3.org/1999/xlink" version="1.1" width="218" height="177" viewBox="0 0 218 177">
<defs>
<path id="font_1_1" d="M.6589966 .23046875C.6759949 .23046875 .69400027 .23046875 .69400027 .25045777 .69400027 .27046205 .6759949 .27046205 .6589966 .27046205H.117996219C.100997928 .27046205 .08299255 .27046205 .08299255 .25045777 .08299255 .23046875 .100997928 .23046875 .117996219 .23046875H.6589966Z"/>
<path id="font_2_3" d="M.2899933 .35191346C.37199403 .37893678 .42999269 .4490509 .42999269 .52809146 .42999269 .6100464 .34199525 .6660156 .24598694 .6660156 .14498902 .6660156 .068984989 .60606387 .068984989 .53009036 .068984989 .49710084 .09098816 .47808839 .11999512 .47808839 .15098572 .47808839 .17098999 .50009158 .17098999 .5290985 .17098999 .57910159 .12399292 .57910159 .10899353 .57910159 .13999939 .62802127 .20599365 .64100649 .24198914 .64100649 .2829895 .64100649 .33799745 .6190338 .33799745 .5290985 .33799745 .51708987 .33599855 .45906068 .30999757 .4149933 .27999879 .36691285 .24598694 .36390687 .22099304 .36291505 .21299744 .36190797 .18899536 .35990907 .18199158 .35990907 .17399597 .35890199 .16699219 .35791017 .16699219 .3479004 .16699219 .33691407 .17399597 .33691407 .19099427 .33691407H.23498535C.31698609 .33691407 .35398866 .2686615 .35398866 .17037964 .35398866 .034469606 .2849884 .0055389406 .24099732 .0055389406 .19799805 .0055389406 .12298584 .022491456 .08799744 .08137512 .12298584 .07637024 .1539917 .09837341 .1539917 .1363678 .1539917 .17237854 .1269989 .19238281 .09799194 .19238281 .07398987 .19238281 .041992189 .17837525 .041992189 .1343689 .041992189 .043441774 .1349945-.022460938 .24398804-.022460938 .3659973-.022460938 .45700074 .06838989 .45700074 .17037964 .45700074 .252594 .3939972 .33088685 .2899933 .35191346Z"/>
<path id="font_2_2" d="M.1269989 .07699585 .23298645 .18003845C.3889923 .31811524 .44898988 .3721466 .44898988 .47216798 .44898988 .5860901 .35899354 .6660156 .23699951 .6660156 .12399292 .6660156 .049987794 .57411196 .049987794 .48516847 .049987794 .4291687 .099990848 .4291687 .102996829 .4291687 .11999512 .4291687 .15499878 .44117738 .15499878 .48217774 .15499878 .5081787 .13699341 .5341797 .101989749 .5341797 .09399414 .5341797 .09199524 .5341797 .08898926 .5331726 .11199951 .59806826 .1659851 .63500979 .22399903 .63500979 .31498719 .63500979 .35798646 .5541382 .35798646 .47216798 .35798646 .39215089 .30799867 .31311036 .25299073 .25108338L.06098938 .036987306C.049987794 .025985718 .049987794 .023986817 .049987794 0H.42099L.44898988 .17404175H.42399598C.4189911 .14402771 .4119873 .1000061 .4019928 .084991458 .394989 .07699585 .32899476 .07699585 .30699159 .07699585H.1269989Z"/>
<path id="font_2_1" d="M.2939911 .64004519C.2939911 .66400149 .2939911 .6660156 .2709961 .6660156 .20899964 .60227969 .12098694 .60227969 .08898926 .60227969V.57128909C.10899353 .57128909 .16799927 .57128909 .21998596 .5972748V.07902527C.21998596 .042999269 .21699524 .0309906 .1269989 .0309906H.09498596V0C.12998963 .0029907227 .21699524 .0029907227 .25698854 .0029907227 .29699708 .0029907227 .38398744 .0029907227 .4189911 0V.0309906H.3869934C.29699708 .0309906 .2939911 .041992189 .2939911 .07902527V.64004519Z"/>
<path id="font_2_4" d="M.44898988 .20022583C.44898988 .3193512 .36698915 .41944886 .25898744 .41944886 .21099854 .41944886 .16799927 .40345765 .13198853 .36842347V.5637665C.1519928 .5577698 .18499756 .55078127 .21699524 .55078127 .33999635 .55078127 .4099884 .6417694 .4099884 .6547699 .4099884 .6607666 .40699769 .6657715 .3999939 .6657715 .39898683 .6657715 .39698792 .6657715 .3919983 .66278079 .37199403 .6537781 .32299806 .6337738 .2559967 .6337738 .21598816 .6337738 .16999817 .6407776 .12298584 .6617737 .114990238 .66477969 .11299133 .66477969 .11099243 .66477969 .100997928 .66477969 .100997928 .6567688 .100997928 .6407776V.34439088C.100997928 .32637025 .100997928 .31835938 .114990238 .31835938 .12199402 .31835938 .12399292 .32136537 .12799073 .32736207 .13899231 .3433838 .17599488 .39746095 .25698854 .39746095 .30899049 .39746095 .33399964 .35139466 .34199525 .33337403 .35798646 .29632569 .3600006 .25727845 .3600006 .20722962 .3600006 .17222595 .3600006 .11222839 .33599855 .07035828 .31199647 .031463624 .2749939 .0055389406 .22898865 .0055389406 .1559906 .0055389406 .09899902 .058380128 .08198547 .11723328 .084991458 .1162262 .08799744 .115234378 .09899902 .115234378 .13198853 .115234378 .14898682 .14022827 .14898682 .16423035 .14898682 .18823242 .13198853 .21322632 .09899902 .21322632 .084991458 .21322632 .049987794 .20622254 .049987794 .16023255 .049987794 .07434082 .11898804-.022460938 .23098755-.022460938 .34700013-.022460938 .44898988 .073349 .44898988 .20022583Z"/>
<clipPath id="clip_3">
<path transform="matrix(1.00003,0,0,-1.00002,6.582779,175.93027)" d="M0 0H194.27216V161.38895H0Z"/>
</clipPath>
<path id="font_4_1" d="M.33399964 .30233766C.33999635 .32835389 .36299134 .42037965 .43299867 .42037965 .43798829 .42037965 .46199037 .42037965 .48298646 .40734864 .45498658 .402359 .43499757 .37734986 .43499757 .35334779 .43499757 .33735658 .44599916 .31835938 .47299195 .31835938 .49499513 .31835938 .5269928 .3363495 .5269928 .37635804 .5269928 .42837525 .46798707 .4423828 .43399049 .4423828 .37599183 .4423828 .34098817 .38935853 .32899476 .36634828 .3039856 .43237306 .25 .4423828 .22099304 .4423828 .116989139 .4423828 .05999756 .3133545 .05999756 .28834535 .05999756 .27833558 .069992069 .27833558 .07199097 .27833558 .07998657 .27833558 .08299255 .28033448 .084991458 .28933717 .11898804 .39535523 .18499756 .42037965 .21899414 .42037965 .23799134 .42037965 .272995 .4113617 .272995 .35334779 .272995 .32235719 .2559967 .25532533 .21899414 .11528015 .20298767 .053268434 .16799927 .011245728 .12399292 .011245728 .117996219 .011245728 .09498596 .011245728 .07398987 .024276734 .09899902 .029266358 .12098694 .05027771 .12098694 .07827759 .12098694 .105270389 .09899902 .11328125 .083999637 .11328125 .053985597 .11328125 .0289917 .08728027 .0289917 .055267335 .0289917 .009246826 .07899475-.0107421879 .12298584-.0107421879 .18899536-.0107421879 .22499085 .059280397 .22799683 .0652771 .23999024 .028274537 .27598573-.0107421879 .33599855-.0107421879 .43899537-.0107421879 .49598695 .118270877 .49598695 .14328003 .49598695 .1532898 .4869995 .1532898 .48399354 .1532898 .47499085 .1532898 .47299195 .14929199 .47099305 .14228821 .43798829 .03527832 .36999513 .011245728 .33799745 .011245728 .29899598 .011245728 .2829895 .043273927 .2829895 .07727051 .2829895 .09927368 .2889862 .121276859 .2999878 .16529846L.33399964 .30233766Z"/>
<path id="font_4_2" d="M.48599244 .38136292C.48999024 .39537049 .48999024 .39736939 .48999024 .40437318 .48999024 .42237855 .47599793 .43138124 .46099855 .43138124 .45098878 .43138124 .43499757 .42536927 .42599488 .41036988 .42399598 .405365 .41600038 .37435914 .4119873 .35635377 .40499879 .33035279 .397995 .30334474 .3919983 .27633668L.34700013 .09628296C.34298707 .08126831 .2999878 .011245728 .23399353 .011245728 .18299866 .011245728 .17199707 .055267335 .17199707 .0922699 .17199707 .1382904 .18899536 .20030213 .22299195 .28833009 .23899842 .3293457 .24299622 .3403473 .24299622 .36035157 .24299622 .405365 .21099854 .4423828 .16099549 .4423828 .06599426 .4423828 .0289917 .29733277 .0289917 .28833009 .0289917 .27833558 .038986207 .27833558 .040985109 .27833558 .050994874 .27833558 .051986696 .28033448 .056991579 .29634095 .083999637 .3903656 .12399292 .42037965 .1579895 .42037965 .1659851 .42037965 .18299866 .42037965 .18299866 .3883667 .18299866 .36335755 .17298889 .3373413 .1659851 .31834413 .12599182 .21231079 .10798645 .1552887 .10798645 .10827637 .10798645 .019256592 .17098999-.0107421879 .22999573-.0107421879 .2689972-.0107421879 .30299378 .0062561037 .33099366 .03425598 .31799317-.017745972 .30599977-.06674194 .2659912-.11973572 .23999024-.15385437 .20199585-.18309021 .1559906-.18309021 .14199829-.18309021 .09700012-.18005371 .07998657-.14074707 .09599304-.14074707 .10899353-.14074707 .12298584-.1287384 .1329956-.11973572 .14299011-.10673523 .14299011-.08773804 .14299011-.056747438 .115997318-.052734376 .10598755-.052734376 .08299255-.052734376 .049987794-.068740848 .049987794-.11773682 .049987794-.16796875 .09399414-.20507813 .1559906-.20507813 .25898744-.20507813 .3619995-.11373901 .3899994-.00074768069L.48599244 .38136292Z"/>
</defs>
<path transform="matrix(1.00003,0,0,-1.00002,6.582779,175.93027)" stroke-width=".19925" stroke-linecap="butt" stroke-miterlimit="10" stroke-linejoin="miter" fill="none" stroke="#929292" d="M0 78.56929V82.82097M32.3787 78.56929V82.82097M64.75739 78.56929V82.82097M129.51477 78.56929V82.82097M161.89347 78.56929V82.82097M194.27216 78.56929V82.82097"/>
<path transform="matrix(1.00003,0,0,-1.00002,6.582779,175.93027)" stroke-width=".19925" stroke-linecap="butt" stroke-miterlimit="10" stroke-linejoin="miter" fill="none" stroke="#929292" d="M95.01018 35.8645H99.26195M95.01018 125.52577H99.26195"/>
<path transform="matrix(1.00003,0,0,-1.00002,6.582779,175.93027)" stroke-width=".3985" stroke-linecap="butt" stroke-miterlimit="10" stroke-linejoin="miter" fill="none" stroke="#000000" d="M0 80.69513H192.27964"/>
<path transform="matrix(1.00003,0,0,-1.00002,198.8682,95.23352)" d="M1.99252 0-1.19551 1.59401 0 0-1.19551-1.59401"/>
<path transform="matrix(1.00003,0,0,-1.00002,6.582779,175.93027)" stroke-width=".3985" stroke-linecap="butt" stroke-miterlimit="10" stroke-linejoin="miter" fill="none" stroke="#000000" d="M97.13608 0V159.39643"/>
<path transform="matrix(0,-1.00002,-1.00003,-0,103.72177,16.530655)" d="M1.99252 0-1.19551 1.59401 0 0-1.19551-1.59401"/>
<use data-text="&#x2212;" xlink:href="#font_1_1" transform="matrix(9.962899,0,0,-9.962799,.21759033,107.2999)"/>
<use data-text="3" xlink:href="#font_2_3" transform="matrix(9.962899,0,0,-9.962799,7.96682,107.2999)"/>
<use data-text="&#x2212;" xlink:href="#font_1_1" transform="matrix(9.962899,0,0,-9.962799,32.597566,107.2999)"/>
<use data-text="2" xlink:href="#font_2_2" transform="matrix(9.962899,0,0,-9.962799,40.346796,107.2999)"/>
<use data-text="&#x2212;" xlink:href="#font_1_1" transform="matrix(9.962899,0,0,-9.962799,64.97653,107.2999)"/>
<use data-text="1" xlink:href="#font_2_1" transform="matrix(9.962899,0,0,-9.962799,72.72576,107.2999)"/>
<use data-text="1" xlink:href="#font_2_1" transform="matrix(9.962899,0,0,-9.962799,133.6106,107.2999)"/>
<use data-text="2" xlink:href="#font_2_2" transform="matrix(9.962899,0,0,-9.962799,165.99057,107.2999)"/>
<use data-text="3" xlink:href="#font_2_3" transform="matrix(9.962899,0,0,-9.962799,198.36956,107.2999)"/>
<use data-text="&#x2212;" xlink:href="#font_1_1" transform="matrix(9.962899,0,0,-9.962799,85.345149,142.8606)"/>
<use data-text="5" xlink:href="#font_2_4" transform="matrix(9.962899,0,0,-9.962799,93.094379,142.8606)"/>
<use data-text="5" xlink:href="#font_2_4" transform="matrix(9.962899,0,0,-9.962799,93.09438,53.611818)"/>
<g clip-path="url(#clip_3)">
<path transform="matrix(1.00003,0,0,-1.00002,6.582779,175.93027)" stroke-width=".79701" stroke-linecap="butt" stroke-miterlimit="10" stroke-linejoin="miter" fill="none" stroke="#000000" d="M0 0C0 0 1.43225 2.36475 1.98233 3.26006 2.53241 4.15536 3.4146 5.57617 3.96469 6.45282 4.51477 7.32947 5.39696 8.72043 5.94704 9.57845 6.49712 10.43645 7.3793 11.79749 7.92938 12.63686 8.47948 13.47621 9.36166 14.80727 9.91174 15.62798 10.46182 16.44868 11.344 17.7499 11.89407 18.55196 12.44417 19.354 13.32635 20.62532 13.87643 21.40872 14.42651 22.19212 15.3087 23.43352 15.85878 24.19827 16.40887 24.96303 17.29106 26.17444 17.84114 26.92052 18.39122 27.66661 19.2734 28.84818 19.82349 29.57562 20.37358 30.30307 21.25575 31.45474 21.80583 32.16353 22.35591 32.87233 23.2381 33.99399 23.78818 34.68413 24.33827 35.37427 25.22046 36.46611 25.77054 37.1376 26.32062 37.80911 27.2028 38.87102 27.75288 39.52385 28.30298 40.17668 29.18517 41.20862 29.73524 41.8428 30.28532 42.47697 31.1675 43.47906 31.71758 44.0946 32.26767 44.71014 33.14986 45.68233 33.69994 46.2792 34.25002 46.87608 35.1322 47.81834 35.68228 48.39658 36.23238 48.9748 37.11456 49.88712 37.66464 50.44669 38.21472 51.00624 39.09691 51.88869 39.64699 52.42961 40.19708 52.97052 41.07925 53.82307 41.62933 54.34534 42.17941 54.8676 43.0616 55.69017 43.61168 56.19379 44.16177 56.6974 45.04396 57.4901 45.59404 57.97508 46.14412 58.46005 47.0263 59.22282 47.57639 59.68915 48.12648 60.15547 49.00867 60.88834 49.55875 61.336 50.10883 61.78365 50.991 62.4866 51.54108 62.9156 52.09117 63.3446 52.97336 64.01765 53.52344 64.42801 54.07352 64.83838 54.9557 65.4815 55.50578 65.8732 56.05588 66.2649 56.93806 66.87811 57.48814 67.25116 58.03822 67.6242 58.92041 68.20752 59.47049 68.56192 60.02058 68.91632 60.90276 69.46974 61.45284 69.80547 62.00291 70.1412 62.8851 70.66469 63.43518 70.98177 63.98528 71.29886 64.86746 71.79245 65.41754 72.0909 65.96762 72.38933 66.84981 72.853 67.39989 73.13278 67.94998 73.41258 68.83217 73.84631 69.38225 74.10745 69.93233 74.36859 70.8145 74.77243 71.36458 75.01491 71.91467 75.2574 72.79686 75.6313 73.34694 75.85515 73.89702 76.07898 74.7792 76.423 75.32928 76.62817 75.87938 76.83336 76.76157 77.14745 77.31165 77.33397 77.86172 77.52051 78.74391 77.80469 79.29399 77.97256 79.84409 78.14044 80.72626 78.39473 81.27634 78.54395 81.82642 78.69318 82.7086 78.91754 83.25868 79.04811 83.80878 79.17868 84.69096 79.37312 85.24104 79.48505 85.79112 79.59695 86.67331 79.7615 87.22339 79.85477 87.77348 79.94803 88.65567 80.08266 89.20575 80.15727 89.75583 80.23189 90.638 80.3366 91.18808 80.39255 91.73817 80.44852 92.62036 80.52332 93.17044 80.56062 93.72052 80.59793 94.6027 80.64284 95.15279 80.6615 95.70288 80.68015 97.13515 80.69513 97.13515 80.69513"/>
<path transform="matrix(1.00003,0,0,-1.00002,6.582779,175.93027)" stroke-width=".79701" stroke-linecap="butt" stroke-miterlimit="10" stroke-linejoin="miter" fill="none" stroke="#000000" d="M97.13608 80.69513C97.13608 80.69513 98.56834 80.7101 99.11842 80.72873 99.6685 80.74738 100.55067 80.79227 101.10077 80.82956 101.65085 80.86687 102.53305 80.94167 103.08313 80.9976 103.63321 81.05356 104.51538 81.15826 105.06548 81.23286 105.61555 81.30745 106.49774 81.44208 107.04782 81.53534 107.5979 81.62859 108.4801 81.79312 109.0302 81.90503 109.58028 82.01694 110.46245 82.21138 111.01253 82.34193 111.5626 82.47249 112.44481 82.69685 112.9949 82.84607 113.54498 82.99527 114.42715 83.24956 114.97723 83.41742 115.52731 83.58527 116.4095 83.86946 116.9596 84.05597 117.50967 84.2425 118.39188 84.5566 118.94196 84.76175 119.49203 84.96692 120.3742 85.31093 120.9243 85.53474 121.47438 85.75856 122.35658 86.13249 122.90666 86.37495 123.45674 86.61743 124.33891 87.02126 124.889 87.28238 125.43909 87.5435 126.32127 87.97725 126.87135 88.25702 127.42143 88.5368 128.30364 89.00046 128.85373 89.29889 129.40381 89.59732 130.28598 90.09088 130.83606 90.40797 131.38614 90.72505 132.26833 91.24854 132.81842 91.58426 133.3685 91.92 134.25069 92.47337 134.80077 92.82776 135.35085 93.18214 136.23303 93.76544 136.78313 94.13849 137.3332 94.51154 138.21541 95.12476 138.76549 95.51645 139.31557 95.90814 140.19774 96.55127 140.74784 96.96161 141.29792 97.37196 142.1801 98.04497 142.73018 98.47397 143.28026 98.90297 144.16245 99.60593 144.71254 100.05357 145.26262 100.50124 146.1448 101.2341 146.69489 101.70041 147.24497 102.16672 148.12717 102.92949 148.67726 103.41444 149.22734 103.8994 150.10951 104.69208 150.65959 105.1957 151.20967 105.6993 152.09186 106.52187 152.64196 107.04413 153.19203 107.56639 154.07422 108.41888 154.6243 108.95981 155.17438 109.50072 156.05657 110.38315 156.60666 110.94272 157.15674 111.50229 158.03893 112.41464 158.589 112.99286 159.13909 113.57109 160.02127 114.51329 160.57137 115.11015 161.12145 115.707 162.00363 116.67918 162.55371 117.29472 163.10379 117.91025 163.98598 118.9123 164.53607 119.54648 165.08615 120.18066 165.96834 121.21266 166.51842 121.86548 167.0685 122.5183 167.95069 123.58015 168.50078 124.25163 169.05086 124.9231 169.93305 126.01492 170.48313 126.70506 171.0332 127.3952 171.91539 128.51692 172.46549 129.22573 173.01557 129.93451 173.89775 131.08615 174.44783 131.81359 174.99791 132.54102 175.8801 133.7225 176.43019 134.4686 176.98027 135.21468 177.86246 136.42613 178.41254 137.19089 178.96262 137.95565 179.8448 139.19702 180.3949 139.98043 180.94498 140.76383 181.82717 142.0351 182.37725 142.83715 182.92733 143.63919 183.80951 144.94033 184.3596 145.76102 184.90969 146.58171 185.79187 147.91283 186.34195 148.75218 186.89203 149.59156 187.77422 150.95256 188.32431 151.81058 188.87439 152.6686 189.75658 154.05953 190.30666 154.93619 190.85674 155.81284 191.73892 157.23361 192.28902 158.12892 192.8391 159.02423 194.27136 161.38895 194.27136 161.38895"/>
</g>
<use data-text="x" xlink:href="#font_4_1" transform="matrix(9.962899,0,0,-9.962799,211.07593,97.37869)"/>
<use data-text="y" xlink:href="#font_4_2" transform="matrix(9.962899,0,0,-9.962799,101.10062,6.2068636)"/>
</svg>
