<svg xmlns="http://www.w3.org/2000/svg" xmlns:xlink="http://www.w3.org/1999/xlink" version="1.1" width="212" height="177" viewBox="0 0 212 177">
<defs>
<clipPath id="clip_1">
<path transform="matrix(1.00005,0,0,-1.00006,1.0961456,175.94577)" d="M0 0H194.28128V161.39636H0Z"/>
</clipPath>
<path id="font_2_1" d="M.33399964 .30233766C.33999635 .32835389 .36299134 .42037965 .43299867 .42037965 .43798829 .42037965 .46199037 .42037965 .48298646 .40734864 .45498658 .402359 .43499757 .37734986 .43499757 .35334779 .43499757 .33735658 .44599916 .31835938 .47299195 .31835938 .49499513 .31835938 .5269928 .3363495 .5269928 .37635804 .5269928 .42837525 .46798707 .4423828 .43399049 .4423828 .37599183 .4423828 .34098817 .38935853 .32899476 .36634828 .3039856 .43237306 .25 .4423828 .22099304 .4423828 .116989139 .4423828 .05999756 .3133545 .05999756 .28834535 .05999756 .27833558 .069992069 .27833558 .07199097 .27833558 .07998657 .27833558 .08299255 .28033448 .084991458 .28933717 .11898804 .39535523 .18499756 .42037965 .21899414 .42037965 .23799134 .42037965 .272995 .4113617 .272995 .35334779 .272995 .32235719 .2559967 .25532533 .21899414 .11528015 .20298767 .053268434 .16799927 .011245728 .12399292 .011245728 .117996219 .011245728 .09498596 .011245728 .07398987 .024276734 .09899902 .029266358 .12098694 .05027771 .12098694 .07827759 .12098694 .105270389 .09899902 .11328125 .083999637 .11328125 .053985597 .11328125 .0289917 .08728027 .0289917 .055267335 .0289917 .009246826 .07899475-.0107421879 .12298584-.0107421879 .18899536-.0107421879 .22499085 .059280397 .22799683 .0652771 .23999024 .028274537 .27598573-.0107421879 .33599855-.0107421879 .43899537-.0107421879 .49598695 .118270877 .49598695 .14328003 .49598695 .1532898 .4869995 .1532898 .48399354 .1532898 .47499085 .1532898 .47299195 .14929199 .47099305 .14228821 .43798829 .03527832 .36999513 .011245728 .33799745 .011245728 .29899598 .011245728 .2829895 .043273927 .2829895 .07727051 .2829895 .09927368 .2889862 .121276859 .2999878 .16529846L.33399964 .30233766Z"/>
<path id="font_2_2" d="M.48599244 .38136292C.48999024 .39537049 .48999024 .39736939 .48999024 .40437318 .48999024 .42237855 .47599793 .43138124 .46099855 .43138124 .45098878 .43138124 .43499757 .42536927 .42599488 .41036988 .42399598 .405365 .41600038 .37435914 .4119873 .35635377 .40499879 .33035279 .397995 .30334474 .3919983 .27633668L.34700013 .09628296C.34298707 .08126831 .2999878 .011245728 .23399353 .011245728 .18299866 .011245728 .17199707 .055267335 .17199707 .0922699 .17199707 .1382904 .18899536 .20030213 .22299195 .28833009 .23899842 .3293457 .24299622 .3403473 .24299622 .36035157 .24299622 .405365 .21099854 .4423828 .16099549 .4423828 .06599426 .4423828 .0289917 .29733277 .0289917 .28833009 .0289917 .27833558 .038986207 .27833558 .040985109 .27833558 .050994874 .27833558 .051986696 .28033448 .056991579 .29634095 .083999637 .3903656 .12399292 .42037965 .1579895 .42037965 .1659851 .42037965 .18299866 .42037965 .18299866 .3883667 .18299866 .36335755 .17298889 .3373413 .1659851 .31834413 .12599182 .21231079 .10798645 .1552887 .10798645 .10827637 .10798645 .019256592 .17098999-.0107421879 .22999573-.0107421879 .2689972-.0107421879 .30299378 .0062561037 .33099366 .03425598 .31799317-.017745972 .30599977-.06674194 .2659912-.11973572 .23999024-.15385437 .20199585-.18309021 .1559906-.18309021 .14199829-.18309021 .09700012-.18005371 .07998657-.14074707 .09599304-.14074707 .10899353-.14074707 .12298584-.1287384 .1329956-.11973572 .14299011-.10673523 .14299011-.08773804 .14299011-.056747438 .115997318-.052734376 .10598755-.052734376 .08299255-.052734376 .049987794-.068740848 .049987794-.11773682 .049987794-.16796875 .09399414-.20507813 .1559906-.20507813 .25898744-.20507813 .3619995-.11373901 .3899994-.00074768069L.48599244 .38136292Z"/>
</defs>
<path transform="matrix(1.00005,0,0,-1.00006,1.0961456,175.94577)" stroke-width=".19925" stroke-linecap="butt" stroke-miterlimit="10" stroke-linejoin="miter" fill="none" stroke="#929292" d=""/>
<path transform="matrix(1.00005,0,0,-1.00006,1.0961456,175.94577)" stroke-width=".19925" stroke-linecap="butt" stroke-miterlimit="10" stroke-linejoin="miter" fill="none" stroke="#929292" d=""/>
<path transform="matrix(1.00005,0,0,-1.00006,1.0961456,175.94577)" stroke-width=".3985" stroke-linecap="butt" stroke-miterlimit="10" stroke-linejoin="miter" fill="none" stroke="#000000" d="M0 121.04727H192.28876"/>
<path transform="matrix(1.00005,0,0,-1.00006,193.3945,54.891244)" d="M1.99252 0-1.19551 1.59401 0 0-1.19551-1.59401"/>
<path transform="matrix(1.00005,0,0,-1.00006,1.0961456,175.94577)" stroke-width=".3985" stroke-linecap="butt" stroke-miterlimit="10" stroke-linejoin="miter" fill="none" stroke="#000000" d="M97.14064 0V159.40384"/>
<path transform="matrix(0,-1.00006,-1.00005,-0,98.24164,16.53238)" d="M1.99252 0-1.19551 1.59401 0 0-1.19551-1.59401"/>
<g clip-path="url(#clip_1)">
<path transform="matrix(1.00005,0,0,-1.00006,1.0961456,175.94577)" stroke-width=".79701" stroke-linecap="butt" stroke-miterlimit="10" stroke-linejoin="miter" fill="none" stroke="#000000" d="M0 40.34909 .58868 41.57173 1.1774 42.79439 1.76611 44.01704 2.35483 45.2397 2.94354 46.46236 3.53224 47.68503 4.12096 48.90767 4.70967 50.13034 5.29839 51.353 5.8871 52.57565 6.4758 53.79832 7.06451 55.02097 7.65323 56.24364 8.24194 57.46628 8.83066 58.68895 9.41937 59.9116 10.00807 61.13426 10.59679 62.35693 11.1855 63.57957 11.77422 64.80225 12.36293 66.02489 12.95163 67.24756 13.54033 68.4702 14.12904 69.69287 14.71776 70.91553 15.30647 72.13818 15.89519 73.36086 16.48389 74.5835 17.0726 75.80617 17.66132 77.02882 18.25003 78.25148 18.83875 79.47414 19.42744 80.6968 20.01616 81.91945 20.60487 83.14212 21.19359 84.36478 21.7823 85.58743 22.37102 86.81009 22.95972 88.03275 23.54843 89.2554 24.13715 90.47806 24.72586 91.70071 25.31458 92.92337 25.90327 94.14604 26.49199 95.3687 27.0807 96.59135 27.6694 97.81401 28.25813 99.03667 28.84685 100.25934 29.43553 101.48198 30.02425 102.70465 30.61296 103.92729 31.20168 105.14996 31.79039 106.37263 32.37909 107.59528 32.9678 108.81795 33.55652 110.04059 34.14523 111.26326 34.73395 112.4859 35.32266 113.70857 35.91136 114.93121 36.50008 116.15388 37.08879 117.37656 37.6775 118.5992 38.26622 119.82187 38.85492 121.04451 39.44363 122.26718 40.03235 123.48984 40.62106 124.7125 41.20978 125.93515 41.7985 127.1578 42.38718 128.38048 42.9759 129.60314 43.5646 130.82579 44.15332 132.04845 44.74203 133.2711 45.33073 134.49376 45.91945 135.71642 46.50816 136.93907 47.09688 138.16173 47.6856 139.3844 48.2743 140.60704 48.863 141.82971 49.45172 143.05237 50.04044 144.27503 50.62915 145.49768 51.21786 146.72034 51.80656 147.94301 52.39528 149.16567 52.984 150.38832 53.57271 151.61098 54.16142 152.83364 54.75014 154.05629 55.33884 155.27895 55.92755 156.5016 56.51625 157.72426 57.10497 158.94693 57.6937 160.16959 58.28238 161.39225"/>
<path transform="matrix(1.00005,0,0,-1.00006,1.0961456,175.94577)" stroke-width=".79701" stroke-linecap="butt" stroke-miterlimit="10" stroke-linejoin="miter" fill="none" stroke="#000000" d="M58.28438 161.39636 58.67683 159.76616 59.0693 158.13596 59.46178 156.50577 59.85423 154.87558 60.2467 153.24539 60.63918 151.61531 61.03165 149.98513 61.4241 148.35494 61.81657 146.72473 62.20905 145.09455 62.60152 143.46434 62.99399 141.83417 63.38644 140.20397 63.77892 138.57378 64.17139 136.94358 64.56384 135.31339 64.95631 133.6832 65.34879 132.053 65.74126 130.4228 66.13373 128.79262 66.52618 127.16255 66.91866 125.53235 67.31113 123.90215 67.7036 122.27197 68.09605 120.64177 68.48853 119.01158 68.881 117.38138 69.27347 115.7512 69.66592 114.121 70.0584 112.4908 70.45087 110.86061 70.84334 109.23042 71.2358 107.60023 71.62827 105.97003 72.02074 104.33997 72.41321 102.70978 72.80568 101.07957 73.19814 99.44939 73.5906 97.81918 73.98308 96.18901 74.37555 94.5588 74.768 92.92862 75.16048 91.29842 75.55295 89.66823 75.94542 88.03804 76.33788 86.40784 76.73035 84.77765 77.12282 83.14746 77.51529 81.51727 77.90776 79.88713 78.30022 78.25694 78.6927 76.62677 79.08516 74.99658 79.47762 73.3664 79.87009 71.7362 80.26256 70.10603 80.65503 68.47585 81.0475 66.84566 81.43997 65.21547 81.83243 63.5853 82.2249 61.95511 82.61737 60.32492 83.00983 58.69473 83.4023 57.06456 83.79477 55.43437 84.18724 53.80418 84.57971 52.174 84.97217 50.54382 85.36464 48.91364 85.75711 47.28345 86.14957 45.65326 86.54204 44.02307 86.93451 42.3929 87.32698 40.76271 87.71945 39.13252 88.11192 37.50235 88.50438 35.87216 88.89685 34.24197 89.2893 32.61177 89.68178 30.98161 90.07425 29.35143 90.46672 27.72122 90.85919 26.09105 91.25166 24.46088 91.64412 22.83069 92.03659 21.20049 92.42906 19.57031 92.82152 17.94014 93.21399 16.30994 93.60646 14.67976 93.99893 13.04959 94.3914 11.41939 94.78387 9.78922 95.17633 8.15903 95.5688 6.52885 95.96126 4.89865 96.35373 3.26846 96.7462 1.63829 97.13867 .0081"/>
<path transform="matrix(1.00005,0,0,-1.00006,1.0961456,175.94577)" stroke-width=".79701" stroke-linecap="butt" stroke-miterlimit="10" stroke-linejoin="miter" fill="none" stroke="#000000" d="M97.14064 0H107.93373 118.72684 129.51995 140.31304 151.10614 161.89923 172.69234 183.48546 194.27855"/>
</g>
<use data-text="x" xlink:href="#font_2_1" transform="matrix(9.963098,0,0,-9.963197,205.60335,57.035638)"/>
<use data-text="y" xlink:href="#font_2_2" transform="matrix(9.963098,0,0,-9.963197,95.620868,6.207596)"/>
</svg>
