<svg xmlns="http://www.w3.org/2000/svg" xmlns:xlink="http://www.w3.org/1999/xlink" version="1.1" width="212" height="185" viewBox="0 0 212 185">
<defs>
<path id="font_1_1" d="M.6589966 .23046875C.6759949 .23046875 .69400027 .23046875 .69400027 .25045777 .69400027 .27046205 .6759949 .27046205 .6589966 .27046205H.117996219C.100997928 .27046205 .08299255 .27046205 .08299255 .25045777 .08299255 .23046875 .100997928 .23046875 .117996219 .23046875H.6589966Z"/>
<path id="font_2_4" d="M.1269989 .07699585 .23298645 .18003845C.3889923 .31811524 .44898988 .3721466 .44898988 .47216798 .44898988 .5860901 .35899354 .6660156 .23699951 .6660156 .12399292 .6660156 .049987794 .57411196 .049987794 .48516847 .049987794 .4291687 .099990848 .4291687 .102996829 .4291687 .11999512 .4291687 .15499878 .44117738 .15499878 .48217774 .15499878 .5081787 .13699341 .5341797 .101989749 .5341797 .09399414 .5341797 .09199524 .5341797 .08898926 .5331726 .11199951 .59806826 .1659851 .63500979 .22399903 .63500979 .31498719 .63500979 .35798646 .5541382 .35798646 .47216798 .35798646 .39215089 .30799867 .31311036 .25299073 .25108338L.06098938 .036987306C.049987794 .025985718 .049987794 .023986817 .049987794 0H.42099L.44898988 .17404175H.42399598C.4189911 .14402771 .4119873 .1000061 .4019928 .084991458 .394989 .07699585 .32899476 .07699585 .30699159 .07699585H.1269989Z"/>
<path id="font_2_3" d="M.2939911 .64004519C.2939911 .66400149 .2939911 .6660156 .2709961 .6660156 .20899964 .60227969 .12098694 .60227969 .08898926 .60227969V.57128909C.10899353 .57128909 .16799927 .57128909 .21998596 .5972748V.07902527C.21998596 .042999269 .21699524 .0309906 .1269989 .0309906H.09498596V0C.12998963 .0029907227 .21699524 .0029907227 .25698854 .0029907227 .29699708 .0029907227 .38398744 .0029907227 .4189911 0V.0309906H.3869934C.29699708 .0309906 .2939911 .041992189 .2939911 .07902527V.64004519Z"/>
<clipPath id="clip_3">
<path transform="matrix(1,0,0,-1.00006,1.0960007,184.01026)" d="M0 0H194.27216V161.3928H0Z"/>
</clipPath>
<path id="font_4_2" d="M.33399964 .30233766C.33999635 .32835389 .36299134 .42037965 .43299867 .42037965 .43798829 .42037965 .46199037 .42037965 .48298646 .40734864 .45498658 .402359 .43499757 .37734986 .43499757 .35334779 .43499757 .33735658 .44599916 .31835938 .47299195 .31835938 .49499513 .31835938 .5269928 .3363495 .5269928 .37635804 .5269928 .42837525 .46798707 .4423828 .43399049 .4423828 .37599183 .4423828 .34098817 .38935853 .32899476 .36634828 .3039856 .43237306 .25 .4423828 .22099304 .4423828 .116989139 .4423828 .05999756 .3133545 .05999756 .28834535 .05999756 .27833558 .069992069 .27833558 .07199097 .27833558 .07998657 .27833558 .08299255 .28033448 .084991458 .28933717 .11898804 .39535523 .18499756 .42037965 .21899414 .42037965 .23799134 .42037965 .272995 .4113617 .272995 .35334779 .272995 .32235719 .2559967 .25532533 .21899414 .11528015 .20298767 .053268434 .16799927 .011245728 .12399292 .011245728 .117996219 .011245728 .09498596 .011245728 .07398987 .024276734 .09899902 .029266358 .12098694 .05027771 .12098694 .07827759 .12098694 .105270389 .09899902 .11328125 .083999637 .11328125 .053985597 .11328125 .0289917 .08728027 .0289917 .055267335 .0289917 .009246826 .07899475-.0107421879 .12298584-.0107421879 .18899536-.0107421879 .22499085 .059280397 .22799683 .0652771 .23999024 .028274537 .27598573-.0107421879 .33599855-.0107421879 .43899537-.0107421879 .49598695 .118270877 .49598695 .14328003 .49598695 .1532898 .4869995 .1532898 .48399354 .1532898 .47499085 .1532898 .47299195 .14929199 .47099305 .14228821 .43798829 .03527832 .36999513 .011245728 .33799745 .011245728 .29899598 .011245728 .2829895 .043273927 .2829895 .07727051 .2829895 .09927368 .2889862 .121276859 .2999878 .16529846L.33399964 .30233766Z"/>
<path id="font_4_1" d="M.47099305 .3773346C.47200013 .3833313 .47399903 .38833619 .47399903 .39535523 .47399903 .41236878 .46199037 .42237855 .44499208 .42237855 .43499757 .42237855 .4079895 .41537477 .4039917 .3793335 .38598634 .41636659 .35099793 .4423828 .31098939 .4423828 .19699097 .4423828 .07299805 .30226136 .07299805 .15812683 .07299805 .059020997 .13398743 0 .20599365 0 .2649994 0 .31199647 .04701233 .32199098 .058029176L.32299806 .057022096C.3019867-.031982423 .2899933-.07295227 .2899933-.07495117 .28599549-.08395386 .2519989-.18309021 .1459961-.18309021 .1269989-.18309021 .09399414-.18206787 .06599426-.17297364 .09599304-.16394043 .10699463-.13793946 .10699463-.12094116 .10699463-.10494995 .09599304-.0859375 .068984989-.0859375 .04699707-.0859375 .01499939-.10394287 .01499939-.14395142 .01499939-.18508911 .051986696-.20507813 .147995-.20507813 .272995-.20507813 .34498597-.12693787 .3600006-.06695557L.47099305 .3773346M.34098817 .12809754C.33499146 .10206604 .31199647 .077041629 .2899933 .058029176 .2689972 .040008546 .23799134 .021987915 .20899964 .021987915 .15899658 .021987915 .14399719 .074035648 .14399719 .11407471 .14399719 .16212464 .17298889 .28024293 .19999695 .33128358 .22698975 .38034059 .269989 .42037965 .31199647 .42037965 .37799073 .42037965 .3919983 .33929444 .3919983 .33428956 .3919983 .32928468 .3899994 .3232727 .3889923 .3192749L.34098817 .12809754Z"/>
<path id="font_2_1" d="M.33099366-.2400055C.33099366-.23701477 .33099366-.23500061 .31399537-.21800232 .18899536-.0920105 .15699768 .09700012 .15699768 .25 .15699768 .42399598 .19499207 .59799197 .31799317 .72299197 .33099366 .73498538 .33099366 .7369995 .33099366 .73999026 .33099366 .746994 .32699586 .75 .32099916 .75 .31098939 .75 .22099304 .6819916 .1619873 .5549927 .11099243 .44499208 .09899902 .33399964 .09899902 .25 .09899902 .17199707 .10998535 .050994874 .16499329-.06201172 .22499085-.18501282 .31098939-.25 .32099916-.25 .32699586-.25 .33099366-.24700928 .33099366-.2400055Z"/>
<path id="font_2_2" d="M.2889862 .25C.2889862 .32798768 .27799989 .44898988 .22299195 .56199648 .16299439 .68499758 .07699585 .75 .066986087 .75 .06098938 .75 .056991579 .74598696 .056991579 .73999026 .056991579 .7369995 .056991579 .73498538 .07598877 .71699526 .17399597 .6179962 .23098755 .45899964 .23098755 .25 .23098755 .07899475 .19400025-.09700012 .069992069-.2230072 .056991579-.23500061 .056991579-.23701477 .056991579-.2400055 .056991579-.2460022 .06098938-.25 .066986087-.25 .07699585-.25 .16699219-.18200684 .22599793-.055007936 .2769928 .054992677 .2889862 .16600037 .2889862 .25Z"/>
</defs>
<path transform="matrix(1,0,0,-1.00006,1.0960007,184.01026)" stroke-width=".19925" stroke-linecap="butt" stroke-miterlimit="10" stroke-linejoin="miter" fill="none" stroke="#929292" d="M32.3787 94.7104V98.96228M64.75739 94.7104V98.96228M129.51477 94.7104V98.96228M161.89347 94.7104V98.96228"/>
<path transform="matrix(1,0,0,-1.00006,1.0960007,184.01026)" stroke-width=".19925" stroke-linecap="butt" stroke-miterlimit="10" stroke-linejoin="miter" fill="none" stroke="#929292" d=""/>
<path transform="matrix(1,0,0,-1.00006,1.0960007,184.01026)" stroke-width=".3985" stroke-linecap="butt" stroke-miterlimit="10" stroke-linejoin="miter" fill="none" stroke="#000000" d="M0 96.83633H192.27964"/>
<path transform="matrix(1,0,0,-1.00006,193.37564,87.16812)" d="M1.99252 0-1.19551 1.59401 0 0-1.19551-1.59401"/>
<path transform="matrix(1,0,0,-1.00006,1.0960007,184.01026)" stroke-width=".3985" stroke-linecap="butt" stroke-miterlimit="10" stroke-linejoin="miter" fill="none" stroke="#000000" d="M97.13608 0V159.40029"/>
<path transform="matrix(0,-1.00006,-1,-0,98.23208,24.600419)" d="M1.99252 0-1.19551 1.59401 0 0-1.19551-1.59401"/>
<use data-text="&#x2212;" xlink:href="#font_1_1" transform="matrix(9.9626,0,0,-9.963197,27.11,99.235179)"/>
<use data-text="2" xlink:href="#font_2_4" transform="matrix(9.9626,0,0,-9.963197,34.859,99.235179)"/>
<use data-text="&#x2212;" xlink:href="#font_1_1" transform="matrix(9.9626,0,0,-9.963197,59.488,99.235179)"/>
<use data-text="1" xlink:href="#font_2_3" transform="matrix(9.9626,0,0,-9.963197,67.237,99.235179)"/>
<use data-text="1" xlink:href="#font_2_3" transform="matrix(9.9626,0,0,-9.963197,128.12,99.235179)"/>
<use data-text="2" xlink:href="#font_2_4" transform="matrix(9.9626,0,0,-9.963197,160.499,99.235179)"/>
<g clip-path="url(#clip_3)">
<path transform="matrix(1,0,0,-1.00006,1.0960007,184.01026)" stroke-width=".79701" stroke-linecap="butt" stroke-miterlimit="10" stroke-linejoin="miter" fill="none" stroke="#000000" d="M0 64.55646 .98112 65.5346 1.96227 66.51276 2.9434 67.49089 3.92453 68.46904 4.90569 69.44719 5.88683 70.42534 6.86795 71.40347 7.84909 72.3816 8.83023 73.35977 9.81139 74.3379 10.79251 75.31606 11.77365 76.2942 12.75479 77.27235 13.73593 78.25049 14.71707 79.22862 15.69821 80.20679 16.67935 81.18492 17.66049 82.16307 18.64163 83.1412 19.62277 84.11937 20.6039 85.0975 21.58505 86.07565 22.5662 87.05379 23.54732 88.03194 24.52846 89.01009 25.50961 89.98822 26.49075 90.96638 27.47188 91.94452 28.45302 92.92267 29.43417 93.90082 30.4153 94.87897 31.39644 95.8571 32.37758 96.83524 33.35873 97.8134 34.33986 98.79153 35.321 99.76968 36.30214 100.74782 37.28328 101.72598 38.26442 102.70412 39.24556 103.68225 40.2267 104.6604 41.20782 105.63855 42.18898 106.6167 43.17012 107.59483 44.15125 108.573 45.13239 109.55113 46.11353 110.52928 47.09467 111.50743 48.0758 112.48557 49.05695 113.46371 50.03809 114.44185 51.01923 115.42 52.00037 116.39815 52.9815 117.3763 53.96263 118.35443 54.94379 119.33258 55.92493 120.31073 56.90607 121.28886 57.88719 122.26701 58.86835 123.24516 59.84949 124.22331 60.83061 125.20145 61.81175 126.17961 62.79291 127.15775 63.77403 128.1359 64.75517 129.11403 65.73631 130.09217 66.71747 131.07033 67.6986 132.04846 68.67973 133.02661 69.66087 134.00476 70.642 134.98291 71.62315 135.96105 72.6043 136.9392 73.58543 137.91735 74.56656 138.89548 75.5477 139.87363 76.52885 140.85178 77.50998 141.82993 78.49112 142.80806 79.47226 143.78621 80.45341 144.76435 81.43454 145.7425 82.41568 146.72064 83.39682 147.69879 84.37796 148.67694 85.3591 149.65508 86.34024 150.63323 87.32137 151.61138 88.30252 152.58953 89.28366 153.56766 90.2648 154.54579 91.24593 155.52396 92.22708 156.50209 93.20822 157.48024 94.18935 158.45839 95.17049 159.43654 96.15164 160.41468 97.13278 161.3928"/>
<path transform="matrix(1,0,0,-1.00006,1.0960007,184.01026)" stroke-width=".79701" stroke-linecap="butt" stroke-miterlimit="10" stroke-linejoin="miter" fill="none" stroke="#000000" d="M97.13608 96.83633 98.1172 95.8582 99.09834 94.88005 100.07948 93.9019 101.06064 92.92375 102.04176 91.94562 103.0229 90.96747 104.00404 89.98933 104.98518 89.01118 105.96632 88.03304 106.94746 87.0549 107.9286 86.07674 108.90973 85.0986 109.89088 84.12045 110.87202 83.14232 111.85315 82.16417 112.83429 81.18602 113.81543 80.20789 114.79657 79.22972 115.77771 78.25159 116.75885 77.27344 117.73999 76.2953 118.72113 75.31715 119.70227 74.339 120.68341 73.36087 121.66454 72.38272 122.64569 71.40457 123.62683 70.42642 124.60797 69.44829 125.5891 68.47012 126.57025 67.49199 127.55139 66.51384 128.53252 65.5357 129.51366 64.55756 130.49481 63.5794 131.47594 62.60127 132.45708 61.62312 133.43822 60.64497 134.41938 59.66682 135.4005 58.68869 136.38164 57.71056 137.36278 56.73239 138.3439 55.75426 139.32506 54.77611 140.3062 53.79796 141.28734 52.81981 142.26847 51.84167 143.2496 50.86353 144.23076 49.88538 145.21189 48.90724 146.19303 47.9291 147.17417 46.95096 148.15532 45.9728 149.13645 44.99466 150.11759 44.01651 151.09873 43.03836 152.07987 42.06021 153.061 41.08208 154.04215 40.10394 155.02327 39.12578 156.00443 38.14764 156.98557 37.1695 157.9667 36.19136 158.94783 35.2132 159.92899 34.23506 160.91013 33.25691 161.89125 32.27878 162.87239 31.30063 163.85355 30.32248 164.83469 29.34435 165.81581 28.36618 166.79695 27.38805 167.77809 26.4099 168.75923 25.43175 169.74037 24.45361 170.72151 23.47546 171.70264 22.49733 172.68378 21.51918 173.66493 20.54103 174.64608 19.56288 175.6272 18.58475 176.60834 17.6066 177.5895 16.62845 178.57062 15.65031 179.55176 14.67216 180.5329 13.69402 181.51406 12.71587 182.49518 11.73773 183.47632 10.75957 184.45746 9.78143 185.4386 8.80328 186.41974 7.82515 187.40088 6.84702 188.38202 5.86885 189.36316 4.89072 190.3443 3.91257 191.32544 2.93442 192.30657 1.95627 193.28772 .97813 194.26886 0"/>
</g>
<use data-text="x" xlink:href="#font_4_2" transform="matrix(9.9626,0,0,-9.963197,205.58301,89.31258)"/>
<use data-text="g" xlink:href="#font_4_1" transform="matrix(9.9626,0,0,-9.963197,88.956,9.390793)"/>
<use data-text="(" xlink:href="#font_2_1" transform="matrix(9.9626,0,0,-9.963197,94.065,9.390793)"/>
<use data-text="x" xlink:href="#font_4_2" transform="matrix(9.9626,0,0,-9.963197,97.94,9.390793)"/>
<use data-text=")" xlink:href="#font_2_2" transform="matrix(9.9626,0,0,-9.963197,103.634,9.390793)"/>
<path transform="matrix(1,0,0,-1.00006,1.0960007,184.01026)" d="M99.97092 161.3961C99.97092 162.96175 98.70172 164.23094 97.13608 164.23094 95.57042 164.23094 94.30122 162.96175 94.30122 161.3961 94.30122 159.83045 95.57042 158.56125 97.13608 158.56125 98.70172 158.56125 99.97092 159.83045 99.97092 161.3961ZM97.13608 161.3961"/>
<path transform="matrix(1,0,0,-1.00006,1.0960007,184.01026)" d="M99.97092 96.83633C99.97092 98.402 98.70172 99.67119 97.13608 99.67119 95.57042 99.67119 94.30122 98.402 94.30122 96.83633 94.30122 95.27069 95.57042 94.00148 97.13608 94.00148 98.70172 94.00148 99.97092 95.27069 99.97092 96.83633ZM97.13608 96.83633" fill="#ffffff"/>
<path transform="matrix(1,0,0,-1.00006,1.0960007,184.01026)" stroke-width=".3985" stroke-linecap="butt" stroke-miterlimit="10" stroke-linejoin="miter" fill="none" stroke="#000000" d="M99.97092 96.83633C99.97092 98.402 98.70172 99.67119 97.13608 99.67119 95.57042 99.67119 94.30122 98.402 94.30122 96.83633 94.30122 95.27069 95.57042 94.00148 97.13608 94.00148 98.70172 94.00148 99.97092 95.27069 99.97092 96.83633ZM97.13608 96.83633"/>
</svg>
