<svg xmlns="http://www.w3.org/2000/svg" xmlns:xlink="http://www.w3.org/1999/xlink" version="1.1" width="212" height="177" viewBox="0 0 212 177">
<defs>
<path id="font_1_1" d="M.6589966 .23046875C.6759949 .23046875 .69400027 .23046875 .69400027 .25045777 .69400027 .27046205 .6759949 .27046205 .6589966 .27046205H.117996219C.100997928 .27046205 .08299255 .27046205 .08299255 .25045777 .08299255 .23046875 .100997928 .23046875 .117996219 .23046875H.6589966Z"/>
<path id="font_2_4" d="M.1269989 .07699585 .23298645 .18003845C.3889923 .31811524 .44898988 .3721466 .44898988 .47216798 .44898988 .5860901 .35899354 .6660156 .23699951 .6660156 .12399292 .6660156 .049987794 .57411196 .049987794 .48516847 .049987794 .4291687 .099990848 .4291687 .102996829 .4291687 .11999512 .4291687 .15499878 .44117738 .15499878 .48217774 .15499878 .5081787 .13699341 .5341797 .101989749 .5341797 .09399414 .5341797 .09199524 .5341797 .08898926 .5331726 .11199951 .59806826 .1659851 .63500979 .22399903 .63500979 .31498719 .63500979 .35798646 .5541382 .35798646 .47216798 .35798646 .39215089 .30799867 .31311036 .25299073 .25108338L.06098938 .036987306C.049987794 .025985718 .049987794 .023986817 .049987794 0H.42099L.44898988 .17404175H.42399598C.4189911 .14402771 .4119873 .1000061 .4019928 .084991458 .394989 .07699585 .32899476 .07699585 .30699159 .07699585H.1269989Z"/>
<path id="font_2_3" d="M.2939911 .64004519C.2939911 .66400149 .2939911 .6660156 .2709961 .6660156 .20899964 .60227969 .12098694 .60227969 .08898926 .60227969V.57128909C.10899353 .57128909 .16799927 .57128909 .21998596 .5972748V.07902527C.21998596 .042999269 .21699524 .0309906 .1269989 .0309906H.09498596V0C.12998963 .0029907227 .21699524 .0029907227 .25698854 .0029907227 .29699708 .0029907227 .38398744 .0029907227 .4189911 0V.0309906H.3869934C.29699708 .0309906 .2939911 .041992189 .2939911 .07902527V.64004519Z"/>
<clipPath id="clip_3">
<path transform="matrix(1,0,0,-1,1.0960007,175.938)" d="M0 0H194.27216V161.39897H0Z"/>
</clipPath>
<path id="font_4_2" d="M.33399964 .30233766C.33999635 .32835389 .36299134 .42037965 .43299867 .42037965 .43798829 .42037965 .46199037 .42037965 .48298646 .40734864 .45498658 .402359 .43499757 .37734986 .43499757 .35334779 .43499757 .33735658 .44599916 .31835938 .47299195 .31835938 .49499513 .31835938 .5269928 .3363495 .5269928 .37635804 .5269928 .42837525 .46798707 .4423828 .43399049 .4423828 .37599183 .4423828 .34098817 .38935853 .32899476 .36634828 .3039856 .43237306 .25 .4423828 .22099304 .4423828 .116989139 .4423828 .05999756 .3133545 .05999756 .28834535 .05999756 .27833558 .069992069 .27833558 .07199097 .27833558 .07998657 .27833558 .08299255 .28033448 .084991458 .28933717 .11898804 .39535523 .18499756 .42037965 .21899414 .42037965 .23799134 .42037965 .272995 .4113617 .272995 .35334779 .272995 .32235719 .2559967 .25532533 .21899414 .11528015 .20298767 .053268434 .16799927 .011245728 .12399292 .011245728 .117996219 .011245728 .09498596 .011245728 .07398987 .024276734 .09899902 .029266358 .12098694 .05027771 .12098694 .07827759 .12098694 .105270389 .09899902 .11328125 .083999637 .11328125 .053985597 .11328125 .0289917 .08728027 .0289917 .055267335 .0289917 .009246826 .07899475-.0107421879 .12298584-.0107421879 .18899536-.0107421879 .22499085 .059280397 .22799683 .0652771 .23999024 .028274537 .27598573-.0107421879 .33599855-.0107421879 .43899537-.0107421879 .49598695 .118270877 .49598695 .14328003 .49598695 .1532898 .4869995 .1532898 .48399354 .1532898 .47499085 .1532898 .47299195 .14929199 .47099305 .14228821 .43798829 .03527832 .36999513 .011245728 .33799745 .011245728 .29899598 .011245728 .2829895 .043273927 .2829895 .07727051 .2829895 .09927368 .2889862 .121276859 .2999878 .16529846L.33399964 .30233766Z"/>
<path id="font_4_1" d="M.2869873 .68333438C.2869873 .6843262 .2869873 .69433596 .27398683 .69433596 .25099183 .69433596 .17799378 .6863251 .1519928 .6843262 .14399719 .68333438 .1329956 .6823273 .1329956 .6643219 .1329956 .6523285 .14199829 .6523285 .15699768 .6523285 .20498657 .6523285 .20698548 .6453247 .20698548 .6353302L.20399475 .6153412 .05899048 .039260866C.054992677 .025253296 .054992677 .023254395 .054992677 .01725769 .054992677-.0057525637 .07499695-.0107421879 .083999637-.0107421879 .099990848-.0107421879 .115997318 .0012512207 .12098694 .015258789L.13999939 .091278079 .1619873 .18130493C.16799927 .2033081 .17399597 .22531128 .1789856 .24832154 .18099976 .25431825 .18899536 .28733827 .18998719 .29333497 .19299317 .30233766 .22399903 .35835267 .2579956 .38536073 .27999879 .4013672 .31098939 .42037965 .35398866 .42037965 .39698792 .42037965 .4079895 .3863678 .4079895 .35035707 .4079895 .29634095 .36999513 .18730164 .34599305 .12628174 .33799745 .103271488 .33299256 .091278079 .33299256 .0712738 .33299256 .024261475 .36799623-.0107421879 .4149933-.0107421879 .5089874-.0107421879 .54599 .13528443 .54599 .14329529 .54599 .1532898 .5369873 .1532898 .5339966 .1532898 .5239868 .1532898 .5239868 .15029907 .5189972 .13528443 .5039978 .08227539 .47200013 .011245728 .4169922 .011245728 .3999939 .011245728 .3929901 .021255494 .3929901 .044265748 .3929901 .0692749 .4019928 .09327698 .41099549 .11528015 .4269867 .15829468 .47200013 .2773285 .47200013 .3353424 .47200013 .4003601 .43199159 .4423828 .35699464 .4423828 .2939911 .4423828 .24598694 .41137696 .20899964 .36535646L.2869873 .68333438Z"/>
<path id="font_2_1" d="M.33099366-.2400055C.33099366-.23701477 .33099366-.23500061 .31399537-.21800232 .18899536-.0920105 .15699768 .09700012 .15699768 .25 .15699768 .42399598 .19499207 .59799197 .31799317 .72299197 .33099366 .73498538 .33099366 .7369995 .33099366 .73999026 .33099366 .746994 .32699586 .75 .32099916 .75 .31098939 .75 .22099304 .6819916 .1619873 .5549927 .11099243 .44499208 .09899902 .33399964 .09899902 .25 .09899902 .17199707 .10998535 .050994874 .16499329-.06201172 .22499085-.18501282 .31098939-.25 .32099916-.25 .32699586-.25 .33099366-.24700928 .33099366-.2400055Z"/>
<path id="font_2_2" d="M.2889862 .25C.2889862 .32798768 .27799989 .44898988 .22299195 .56199648 .16299439 .68499758 .07699585 .75 .066986087 .75 .06098938 .75 .056991579 .74598696 .056991579 .73999026 .056991579 .7369995 .056991579 .73498538 .07598877 .71699526 .17399597 .6179962 .23098755 .45899964 .23098755 .25 .23098755 .07899475 .19400025-.09700012 .069992069-.2230072 .056991579-.23500061 .056991579-.23701477 .056991579-.2400055 .056991579-.2460022 .06098938-.25 .066986087-.25 .07699585-.25 .16699219-.18200684 .22599793-.055007936 .2769928 .054992677 .2889862 .16600037 .2889862 .25Z"/>
</defs>
<path transform="matrix(1,0,0,-1,1.0960007,175.938)" stroke-width=".19925" stroke-linecap="butt" stroke-miterlimit="10" stroke-linejoin="miter" fill="none" stroke="#929292" d="M32.3787 69.29385V73.54607M64.75739 69.29385V73.54607M129.51477 69.29385V73.54607M161.89347 69.29385V73.54607"/>
<path transform="matrix(1,0,0,-1,1.0960007,175.938)" stroke-width=".19925" stroke-linecap="butt" stroke-miterlimit="10" stroke-linejoin="miter" fill="none" stroke="#929292" d=""/>
<path transform="matrix(1,0,0,-1,1.0960007,175.938)" stroke-width=".3985" stroke-linecap="butt" stroke-miterlimit="10" stroke-linejoin="miter" fill="none" stroke="#000000" d="M0 71.41995H192.27964"/>
<path transform="matrix(1,0,0,-1,193.37564,104.51805)" d="M1.99252 0-1.19551 1.59401 0 0-1.19551-1.59401"/>
<path transform="matrix(1,0,0,-1,1.0960007,175.938)" stroke-width=".3985" stroke-linecap="butt" stroke-miterlimit="10" stroke-linejoin="miter" fill="none" stroke="#000000" d="M97.13608 0V159.40645"/>
<path transform="matrix(0,-1,-1,-0,98.23208,16.531556)" d="M1.99252 0-1.19551 1.59401 0 0-1.19551-1.59401"/>
<use data-text="&#x2212;" xlink:href="#font_1_1" transform="matrix(9.9626,0,0,-9.9626,27.11,116.584)"/>
<use data-text="2" xlink:href="#font_2_4" transform="matrix(9.9626,0,0,-9.9626,34.859,116.584)"/>
<use data-text="&#x2212;" xlink:href="#font_1_1" transform="matrix(9.9626,0,0,-9.9626,59.488,116.584)"/>
<use data-text="1" xlink:href="#font_2_3" transform="matrix(9.9626,0,0,-9.9626,67.237,116.584)"/>
<use data-text="1" xlink:href="#font_2_3" transform="matrix(9.9626,0,0,-9.9626,128.12,116.584)"/>
<use data-text="2" xlink:href="#font_2_4" transform="matrix(9.9626,0,0,-9.9626,160.499,116.584)"/>
<g clip-path="url(#clip_3)">
<path transform="matrix(1,0,0,-1,1.0960007,175.938)" stroke-width=".79701" stroke-linecap="butt" stroke-miterlimit="10" stroke-linejoin="miter" fill="none" stroke="#000000" d="M64.75739 71.41995 66.0656 90.87416 67.37383 95.93257 68.68204 99.48192 69.99028 102.3062 71.29851 104.68774 72.60672 106.77391 73.91495 108.64014 75.22318 110.32948 76.5314 111.88904 77.83963 113.33406 79.14784 114.69008 80.45609 115.96559 81.7643 117.16798 83.07253 118.31367 84.38077 119.40213 85.68898 120.4452 86.99721 121.44861 88.30542 122.40724 89.61366 123.33752 90.92189 124.23378 92.2301 125.09999 93.53833 125.94014 94.84656 126.75081 96.15479 127.53879 97.46301 128.30013 98.77122 129.0473 100.07947 129.77634 101.38768 130.48834 102.6959 131.1828 104.00415 131.86252 105.31236 132.52635 106.62059 133.17714 107.9288 133.81377 109.23705 134.43737 110.54527 135.04848 111.85349 135.64939 113.16171 136.23839 114.46994 136.81719 115.77817 137.3841 117.0864 137.94419 118.3946 138.49408 119.70285 139.03546 121.01106 139.56665 122.31929 140.08989 123.62753 140.60633 124.93575 141.11428 126.24397 141.61768 127.55219 142.11087 128.86043 142.60068 130.16866 143.08197 131.47687 143.55533 132.7851 144.02529 134.09333 144.48618 135.40155 144.94309 136.70978 145.39435 138.01799 145.84049 139.32624 146.28041 140.63445 146.71521 141.94268 147.14493 143.25092 147.57123 144.55913 147.993 145.86736 148.40909 147.17557 148.81897 148.48381 149.22827 149.79204 149.62963 151.10025 150.02986 152.40848 150.42443 153.7167 150.81615 155.02494 151.2022 156.33316 151.58599 157.64138 151.96469 158.94962 152.34223 160.25783 152.71411 161.56606 153.08429 162.8743 153.44939 164.18251 153.81334 165.49074 154.17331 166.79895 154.52988 168.1072 154.88364 169.41542 155.2351 170.72364 155.58148 172.03186 155.92729 173.34009 156.27027 174.64832 156.60927 175.95655 156.94316 177.26476 157.2782 178.573 157.60927 179.88121 157.93978 181.18944 158.26291 182.49768 158.5883 183.8059 158.91086 185.11412 159.22777 186.42234 159.54579 187.73058 159.86156 189.0388 160.17052 190.34702 160.48287 191.65525 160.7941 192.96347 161.09853 194.2717 161.39897"/>
<path transform="matrix(1,0,0,-1,1.0960007,175.938)" stroke-width=".79701" stroke-linecap="butt" stroke-miterlimit="10" stroke-linejoin="miter" fill="none" stroke="#000000" d="M0 0 .65407 .23924 1.30815 .48587 1.96223 .72902 2.61632 .97676 3.2704 1.2239 3.92447 1.47224 4.57855 1.7256 5.23264 1.97794 5.88672 2.23354 6.54082 2.49097 7.19489 2.75056 7.84897 3.01024 8.50305 3.27217 9.15714 3.53687 9.81122 3.80328 10.46529 4.0743 11.11937 4.34583 11.77347 4.61908 12.42755 4.8957 13.08163 5.17468 13.7357 5.4547 14.38979 5.73755 15.04387 6.02274 15.69795 6.31184 16.35204 6.60265 17.00612 6.89572 17.6602 7.1905 18.31429 7.48929 18.96837 7.79033 19.62245 8.09473 20.27654 8.40198 20.9306 8.71208 21.58469 9.02556 22.23877 9.3419 22.89285 9.66222 23.54695 9.98643 24.20102 10.31245 24.8551 10.64297 25.50919 10.97739 26.16327 11.31415 26.81735 11.65599 27.47142 12.00122 28.1255 12.35043 28.7796 12.70413 29.43369 13.06241 30.08777 13.4247 30.74184 13.79146 31.39592 14.16281 32.05 14.5398 32.70409 14.9094 33.35817 15.29489 34.01225 15.69228 34.66634 16.08911 35.32042 16.49161 35.9745 16.89978 36.62859 17.31927 37.28267 17.73991 37.93674 18.17018 38.59084 18.60614 39.24492 19.04945 39.899 19.5024 40.55309 19.96216 41.20715 20.42758 41.86124 20.90944 42.51532 21.39131 43.1694 21.88394 43.82349 22.39471 44.47755 22.91057 45.13165 23.43213 45.78574 23.97633 46.43982 24.52625 47.0939 25.08803 47.74797 25.66684 48.40205 26.26152 49.05614 26.87433 49.71024 27.50415 50.36432 28.14418 51.01839 28.81369 51.67247 29.49963 52.32655 30.21393 52.98064 30.95088 53.63472 31.71053 54.2888 32.50475 54.94287 33.33241 55.59695 34.19977 56.25105 35.10738 56.90514 36.05975 57.55922 37.06941 58.21329 38.14708 58.86737 39.29219 59.52145 40.52861 60.17555 41.87216 60.82964 43.35176 61.4837 45.00766 62.13779 46.896 62.79187 49.13637 63.44595 51.94818 64.10004 55.9516 64.7541 68.78345"/>
</g>
<use data-text="x" xlink:href="#font_4_2" transform="matrix(9.9626,0,0,-9.9626,205.58301,105.454)"/>
<use data-text="h" xlink:href="#font_4_1" transform="matrix(9.9626,0,0,-9.9626,88.641,9.389999)"/>
<use data-text="(" xlink:href="#font_2_1" transform="matrix(9.9626,0,0,-9.9626,94.381,9.389999)"/>
<use data-text="x" xlink:href="#font_4_2" transform="matrix(9.9626,0,0,-9.9626,98.256,9.389999)"/>
<use data-text=")" xlink:href="#font_2_2" transform="matrix(9.9626,0,0,-9.9626,103.95,9.389999)"/>
</svg>
