<svg xmlns="http://www.w3.org/2000/svg" xmlns:xlink="http://www.w3.org/1999/xlink" version="1.1" width="212" height="176" viewBox="0 0 212 176">
<defs>
<clipPath id="clip_1">
<path transform="matrix(1.00002,0,0,-1,1.4673691,174.94)" d="M0 0H194.28128V161.40106H0Z"/>
</clipPath>
<path id="font_2_1" d="M.33399964 .30233766C.33999635 .32835389 .36299134 .42037965 .43299867 .42037965 .43798829 .42037965 .46199037 .42037965 .48298646 .40734864 .45498658 .402359 .43499757 .37734986 .43499757 .35334779 .43499757 .33735658 .44599916 .31835938 .47299195 .31835938 .49499513 .31835938 .5269928 .3363495 .5269928 .37635804 .5269928 .42837525 .46798707 .4423828 .43399049 .4423828 .37599183 .4423828 .34098817 .38935853 .32899476 .36634828 .3039856 .43237306 .25 .4423828 .22099304 .4423828 .116989139 .4423828 .05999756 .3133545 .05999756 .28834535 .05999756 .27833558 .069992069 .27833558 .07199097 .27833558 .07998657 .27833558 .08299255 .28033448 .084991458 .28933717 .11898804 .39535523 .18499756 .42037965 .21899414 .42037965 .23799134 .42037965 .272995 .4113617 .272995 .35334779 .272995 .32235719 .2559967 .25532533 .21899414 .11528015 .20298767 .053268434 .16799927 .011245728 .12399292 .011245728 .117996219 .011245728 .09498596 .011245728 .07398987 .024276734 .09899902 .029266358 .12098694 .05027771 .12098694 .07827759 .12098694 .105270389 .09899902 .11328125 .083999637 .11328125 .053985597 .11328125 .0289917 .08728027 .0289917 .055267335 .0289917 .009246826 .07899475-.0107421879 .12298584-.0107421879 .18899536-.0107421879 .22499085 .059280397 .22799683 .0652771 .23999024 .028274537 .27598573-.0107421879 .33599855-.0107421879 .43899537-.0107421879 .49598695 .118270877 .49598695 .14328003 .49598695 .1532898 .4869995 .1532898 .48399354 .1532898 .47499085 .1532898 .47299195 .14929199 .47099305 .14228821 .43798829 .03527832 .36999513 .011245728 .33799745 .011245728 .29899598 .011245728 .2829895 .043273927 .2829895 .07727051 .2829895 .09927368 .2889862 .121276859 .2999878 .16529846L.33399964 .30233766Z"/>
<path id="font_2_2" d="M.48599244 .38136292C.48999024 .39537049 .48999024 .39736939 .48999024 .40437318 .48999024 .42237855 .47599793 .43138124 .46099855 .43138124 .45098878 .43138124 .43499757 .42536927 .42599488 .41036988 .42399598 .405365 .41600038 .37435914 .4119873 .35635377 .40499879 .33035279 .397995 .30334474 .3919983 .27633668L.34700013 .09628296C.34298707 .08126831 .2999878 .011245728 .23399353 .011245728 .18299866 .011245728 .17199707 .055267335 .17199707 .0922699 .17199707 .1382904 .18899536 .20030213 .22299195 .28833009 .23899842 .3293457 .24299622 .3403473 .24299622 .36035157 .24299622 .405365 .21099854 .4423828 .16099549 .4423828 .06599426 .4423828 .0289917 .29733277 .0289917 .28833009 .0289917 .27833558 .038986207 .27833558 .040985109 .27833558 .050994874 .27833558 .051986696 .28033448 .056991579 .29634095 .083999637 .3903656 .12399292 .42037965 .1579895 .42037965 .1659851 .42037965 .18299866 .42037965 .18299866 .3883667 .18299866 .36335755 .17298889 .3373413 .1659851 .31834413 .12599182 .21231079 .10798645 .1552887 .10798645 .10827637 .10798645 .019256592 .17098999-.0107421879 .22999573-.0107421879 .2689972-.0107421879 .30299378 .0062561037 .33099366 .03425598 .31799317-.017745972 .30599977-.06674194 .2659912-.11973572 .23999024-.15385437 .20199585-.18309021 .1559906-.18309021 .14199829-.18309021 .09700012-.18005371 .07998657-.14074707 .09599304-.14074707 .10899353-.14074707 .12298584-.1287384 .1329956-.11973572 .14299011-.10673523 .14299011-.08773804 .14299011-.056747438 .115997318-.052734376 .10598755-.052734376 .08299255-.052734376 .049987794-.068740848 .049987794-.11773682 .049987794-.16796875 .09399414-.20507813 .1559906-.20507813 .25898744-.20507813 .3619995-.11373901 .3899994-.00074768069L.48599244 .38136292Z"/>
</defs>
<path transform="matrix(1.00002,0,0,-1,1.4673691,174.94)" stroke-width=".19925" stroke-linecap="butt" stroke-miterlimit="10" stroke-linejoin="miter" fill="none" stroke="#929292" d=""/>
<path transform="matrix(1.00002,0,0,-1,1.4673691,174.94)" stroke-width=".19925" stroke-linecap="butt" stroke-miterlimit="10" stroke-linejoin="miter" fill="none" stroke="#929292" d=""/>
<path transform="matrix(1.00002,0,0,-1,1.4673691,174.94)" stroke-width=".3985" stroke-linecap="butt" stroke-miterlimit="10" stroke-linejoin="miter" fill="none" stroke="#000000" d="M0 80.7301H192.28876"/>
<path transform="matrix(1.00002,0,0,-1,193.75998,94.2099)" d="M1.99252 0-1.19551 1.59401 0 0-1.19551-1.59401"/>
<path transform="matrix(1.00002,0,0,-1,1.4673691,174.94)" stroke-width=".3985" stroke-linecap="butt" stroke-miterlimit="10" stroke-linejoin="miter" fill="none" stroke="#000000" d="M97.14064 0V159.40854"/>
<path transform="matrix(0,-1,-1.00002,-0,98.609958,15.531464)" d="M1.99252 0-1.19551 1.59401 0 0-1.19551-1.59401"/>
<g clip-path="url(#clip_1)">
<path transform="matrix(1.00002,0,0,-1,1.4673691,174.94)" stroke-width=".79701" stroke-linecap="butt" stroke-miterlimit="10" stroke-linejoin="miter" fill="none" stroke="#000000" d="M0 0 1.96222 5.79295 3.92445 11.33127 5.8867 16.61989 7.84894 21.66429 9.81119 26.46957 11.77342 31.04114 13.73566 35.3841 15.6979 39.50377 17.66013 43.40547 19.62238 47.09435 21.58461 50.57567 23.54686 53.85475 25.5091 56.9368 27.47133 59.82707 29.43358 62.53085 31.39581 65.05336 33.35806 67.39981 35.32028 69.57558 37.28253 71.58582 39.24477 73.4358 41.207 75.13078 43.16925 76.67606 45.13148 78.0768 47.09373 79.33832 49.05597 80.46584 51.0182 81.46466 52.98044 82.33998 54.94267 83.09708 56.90492 83.74121 58.86716 84.27763 60.8294 84.7116 62.79164 85.04832 64.75389 85.2931 66.71613 85.45119 68.67834 85.52783 70.6406 85.52826 72.60283 85.45773 74.56508 85.32153 76.52731 85.12488 78.48955 84.87305 80.4518 84.57129 82.41403 84.22485 84.37627 83.83897 86.3385 83.41895 88.30075 82.96999 90.26299 82.49738 92.22522 82.00633 94.18747 81.50214 96.1497 80.99004 98.11195 80.47528 100.07419 79.96313 102.03642 79.45883 103.99866 78.96764 105.96089 78.4948 107.92314 78.04558 109.88538 77.62523 111.84763 77.239 113.80986 76.89214 115.77211 76.5899 117.73433 76.33755 119.69656 76.14034 121.65881 76.00348 123.62105 75.9323 125.5833 75.93199 127.54553 76.00783 129.50778 76.16507 131.47002 76.40897 133.43225 76.74475 135.39449 77.17772 137.35672 77.71309 139.31897 78.35611 141.2812 79.11206 143.24344 79.98618 145.20569 80.98373 147.16793 82.10994 149.13018 83.3701 151.09239 84.76944 153.05464 86.3132 155.01688 88.0067 156.97911 89.8551 158.94136 91.86371 160.9036 94.0378 162.86585 96.38254 164.82808 98.90323 166.79033 101.60513 168.75255 104.49356 170.71479 107.57367 172.67704 110.85071 174.63927 114.3301 176.60152 118.01682 178.56375 121.91632 180.526 126.03387 182.48824 130.37454 184.45047 134.94374 186.4127 139.74669 188.37494 144.7887 190.33719 150.07489 192.29943 155.61055 194.26168 161.40106"/>
</g>
<use data-text="x" xlink:href="#font_2_1" transform="matrix(10.909318,0,0,-10.9091,205.11144,96.588008)"/>
<use data-text="y" xlink:href="#font_2_2" transform="matrix(10.909318,0,0,-10.9091,95.74026,5.930008)"/>
</svg>
