<svg xmlns="http://www.w3.org/2000/svg" xmlns:xlink="http://www.w3.org/1999/xlink" version="1.1" width="212" height="176" viewBox="0 0 212 176">
<defs>
<clipPath id="clip_1">
<path transform="matrix(1.00002,0,0,-1.00005,1.4673691,174.94014)" d="M0 0H194.28128V161.39322H0Z"/>
</clipPath>
<path id="font_2_1" d="M.33399964 .30233766C.33999635 .32835389 .36299134 .42037965 .43299867 .42037965 .43798829 .42037965 .46199037 .42037965 .48298646 .40734864 .45498658 .402359 .43499757 .37734986 .43499757 .35334779 .43499757 .33735658 .44599916 .31835938 .47299195 .31835938 .49499513 .31835938 .5269928 .3363495 .5269928 .37635804 .5269928 .42837525 .46798707 .4423828 .43399049 .4423828 .37599183 .4423828 .34098817 .38935853 .32899476 .36634828 .3039856 .43237306 .25 .4423828 .22099304 .4423828 .116989139 .4423828 .05999756 .3133545 .05999756 .28834535 .05999756 .27833558 .069992069 .27833558 .07199097 .27833558 .07998657 .27833558 .08299255 .28033448 .084991458 .28933717 .11898804 .39535523 .18499756 .42037965 .21899414 .42037965 .23799134 .42037965 .272995 .4113617 .272995 .35334779 .272995 .32235719 .2559967 .25532533 .21899414 .11528015 .20298767 .053268434 .16799927 .011245728 .12399292 .011245728 .117996219 .011245728 .09498596 .011245728 .07398987 .024276734 .09899902 .029266358 .12098694 .05027771 .12098694 .07827759 .12098694 .105270389 .09899902 .11328125 .083999637 .11328125 .053985597 .11328125 .0289917 .08728027 .0289917 .055267335 .0289917 .009246826 .07899475-.0107421879 .12298584-.0107421879 .18899536-.0107421879 .22499085 .059280397 .22799683 .0652771 .23999024 .028274537 .27598573-.0107421879 .33599855-.0107421879 .43899537-.0107421879 .49598695 .118270877 .49598695 .14328003 .49598695 .1532898 .4869995 .1532898 .48399354 .1532898 .47499085 .1532898 .47299195 .14929199 .47099305 .14228821 .43798829 .03527832 .36999513 .011245728 .33799745 .011245728 .29899598 .011245728 .2829895 .043273927 .2829895 .07727051 .2829895 .09927368 .2889862 .121276859 .2999878 .16529846L.33399964 .30233766Z"/>
<path id="font_2_2" d="M.48599244 .38136292C.48999024 .39537049 .48999024 .39736939 .48999024 .40437318 .48999024 .42237855 .47599793 .43138124 .46099855 .43138124 .45098878 .43138124 .43499757 .42536927 .42599488 .41036988 .42399598 .405365 .41600038 .37435914 .4119873 .35635377 .40499879 .33035279 .397995 .30334474 .3919983 .27633668L.34700013 .09628296C.34298707 .08126831 .2999878 .011245728 .23399353 .011245728 .18299866 .011245728 .17199707 .055267335 .17199707 .0922699 .17199707 .1382904 .18899536 .20030213 .22299195 .28833009 .23899842 .3293457 .24299622 .3403473 .24299622 .36035157 .24299622 .405365 .21099854 .4423828 .16099549 .4423828 .06599426 .4423828 .0289917 .29733277 .0289917 .28833009 .0289917 .27833558 .038986207 .27833558 .040985109 .27833558 .050994874 .27833558 .051986696 .28033448 .056991579 .29634095 .083999637 .3903656 .12399292 .42037965 .1579895 .42037965 .1659851 .42037965 .18299866 .42037965 .18299866 .3883667 .18299866 .36335755 .17298889 .3373413 .1659851 .31834413 .12599182 .21231079 .10798645 .1552887 .10798645 .10827637 .10798645 .019256592 .17098999-.0107421879 .22999573-.0107421879 .2689972-.0107421879 .30299378 .0062561037 .33099366 .03425598 .31799317-.017745972 .30599977-.06674194 .2659912-.11973572 .23999024-.15385437 .20199585-.18309021 .1559906-.18309021 .14199829-.18309021 .09700012-.18005371 .07998657-.14074707 .09599304-.14074707 .10899353-.14074707 .12298584-.1287384 .1329956-.11973572 .14299011-.10673523 .14299011-.08773804 .14299011-.056747438 .115997318-.052734376 .10598755-.052734376 .08299255-.052734376 .049987794-.068740848 .049987794-.11773682 .049987794-.16796875 .09399414-.20507813 .1559906-.20507813 .25898744-.20507813 .3619995-.11373901 .3899994-.00074768069L.48599244 .38136292Z"/>
</defs>
<path transform="matrix(1.00002,0,0,-1.00005,1.4673691,174.94014)" stroke-width=".19925" stroke-linecap="butt" stroke-miterlimit="10" stroke-linejoin="miter" fill="none" stroke="#929292" d=""/>
<path transform="matrix(1.00002,0,0,-1.00005,1.4673691,174.94014)" stroke-width=".19925" stroke-linecap="butt" stroke-miterlimit="10" stroke-linejoin="miter" fill="none" stroke="#929292" d=""/>
<path transform="matrix(1.00002,0,0,-1.00005,1.4673691,174.94014)" stroke-width=".3985" stroke-linecap="butt" stroke-miterlimit="10" stroke-linejoin="miter" fill="none" stroke="#000000" d="M0 80.60384H192.28876"/>
<path transform="matrix(1.00002,0,0,-1.00005,193.75998,94.33227)" d="M1.99252 0-1.19551 1.59401 0 0-1.19551-1.59401"/>
<path transform="matrix(1.00002,0,0,-1.00005,1.4673691,174.94014)" stroke-width=".3985" stroke-linecap="butt" stroke-miterlimit="10" stroke-linejoin="miter" fill="none" stroke="#000000" d="M97.14064 0V159.4007"/>
<path transform="matrix(0,-1.00005,-1.00002,-0,98.609958,15.531479)" d="M1.99252 0-1.19551 1.59401 0 0-1.19551-1.59401"/>
<g clip-path="url(#clip_1)">
<path transform="matrix(1.00002,0,0,-1.00005,1.4673691,174.94014)" stroke-width=".79701" stroke-linecap="butt" stroke-miterlimit="10" stroke-linejoin="miter" fill="none" stroke="#0000ff" d="M19.42812 80.63095 20.99805 80.64117 22.56796 80.65489 24.1379 80.67325 25.70781 80.69757 27.27774 80.72955 28.84767 80.77142 30.4176 80.82571 31.98752 80.89577 33.55745 80.98535 35.12738 81.09927 36.69731 81.24292 38.26723 81.4229 39.83716 81.64674 41.40707 81.92311 42.97702 82.2619 44.54694 82.67409 46.11687 83.17188 47.68678 83.76868 49.25673 84.47874 50.82664 85.31734 52.39658 86.29999 53.96649 87.44273 55.53642 88.7571 57.10635 90.26706 58.67628 91.98059 60.2462 93.91228 61.81613 96.07016 63.38606 98.46153 64.956 101.0888 66.52592 103.94873 68.09584 107.03651 69.66577 110.33273 71.2357 113.82443 72.80563 117.47612 74.37555 121.27483 75.94548 125.16888 77.51541 129.11222 79.08534 133.0717 80.65526 136.97464 82.22519 140.78144 83.7951 144.42584 85.36505 147.85294 86.93497 150.99564 88.5049 153.8079 90.07481 156.24048 91.64476 158.23598 93.21468 159.77988 94.7846 160.81397 96.35452 161.33911H97.92445L99.49438 160.82286 101.06432 159.77988 102.63423 158.24486 104.20416 156.24048 105.77408 153.8079 107.34402 151.00373 108.91394 147.85294 110.48387 144.43392 112.05379 140.79032 113.62373 136.98352 115.19365 133.08058 116.76358 129.1211 118.3335 125.17778 119.90343 121.2821 121.47336 117.48419 123.04329 113.82443 124.6132 110.33273 126.18314 107.03651 127.75307 103.95682 129.323 101.09607 130.89292 98.47041 132.46285 96.07825 134.03276 93.92035 135.6027 91.98949 137.17263 90.26706 138.74256 88.76437 140.31247 87.4445 141.88242 86.3015 143.45233 85.31865 145.02227 84.47986 146.59218 83.76962 148.16211 83.17267 149.73204 82.67468 151.30197 82.2624 152.87189 81.92352 154.44182 81.6471 156.01175 81.42319 157.58168 81.24315 159.1516 81.09949 160.72153 80.98555 162.29145 80.89587 163.86139 80.82582 165.4313 80.77148 167.00124 80.72963 168.57115 80.69759 170.1411 80.67328 171.71102 80.65492 173.28095 80.64119 174.85086 80.63095"/>
<path transform="matrix(1.00002,0,0,-1.00005,1.4673691,174.94014)" stroke-width=".79701" stroke-linecap="butt" stroke-miterlimit="10" stroke-linejoin="miter" fill="none" stroke="#ff0000" d="M19.42812 80.71225 20.99805 80.75014 22.56796 80.79984 24.1379 80.86464 25.70781 80.94844 27.27774 81.05592 28.84767 81.1929 30.4176 81.36588 31.98752 81.58289 33.55745 81.85245 35.12738 82.18526 36.69731 82.59212 38.26723 83.08586 39.83716 83.6799 41.40707 84.38841 42.97702 85.22633 44.54694 86.20816 46.11687 87.34822 47.68678 88.65984 49.25673 90.15417 50.82664 91.8402 52.39658 93.7224 53.96649 95.80156 55.53642 98.06358 57.10635 100.51619 58.67628 103.12785 60.2462 105.87685 61.81613 108.72491 63.38606 111.62991 64.956 114.53922 66.52592 117.39058 68.09584 120.12032 69.66577 122.64578 71.2357 124.89926 72.80563 126.78876 74.37555 128.26045 75.94548 129.22214 77.51541 129.6043 79.08534 129.36421 80.65526 128.4362 82.22519 126.80362 83.7951 124.44427 85.36505 121.36421 86.93497 117.5809 88.5049 113.14278 90.07481 108.1121 91.64476 102.56462 93.21468 96.60338 94.7846 90.33083 96.35452 83.87054 97.92445 77.34657 99.49438 70.88515 101.06432 64.61354 102.63423 58.64963 104.20416 53.10443 105.77408 48.07346 107.34402 43.63077 108.91394 39.85133 110.48387 36.76532 112.05379 34.40425 113.62373 32.77054 115.19365 31.84134 116.76358 31.60004 118.3335 31.98108 119.90343 32.9435 121.47336 34.41307 123.04329 36.31232 124.6132 38.56532 126.18314 41.09047 127.75307 43.80711 129.323 46.65878 130.89292 49.56442 132.46285 52.46986 134.03276 55.31706 135.6027 58.06354 137.17263 60.69261 138.74256 63.12949 140.31247 65.403 141.88242 67.48247 143.45233 69.36496 145.02227 71.05118 146.59218 72.54576 148.16211 73.85768 149.73204 74.9981 151.30197 75.98009 152.87189 76.81818 154.44182 77.52682 156.01175 78.12106 157.58168 78.61493 159.1516 79.02182 160.72153 79.35464 162.29145 79.62453 163.86139 79.84145 165.4313 80.01454 167.00124 80.15154 168.57115 80.25916 170.1411 80.34294 171.71102 80.40775 173.28095 80.45749 174.85086 80.49536"/>
<path transform="matrix(1.00002,0,0,-1.00005,1.4673691,174.94014)" stroke-width=".79701" stroke-linecap="butt" stroke-miterlimit="10" stroke-linejoin="miter" fill="none" stroke="#000000" d="M19.42812 81.01039 20.99805 81.13982 22.56796 81.3051 24.1379 81.5144 25.70781 81.77713 27.27774 82.10378 28.84767 82.50694 30.4176 82.99905 31.98752 83.59517 33.55745 84.30872 35.12738 85.15622 36.69731 86.15051 38.26723 87.3061 39.83716 88.63382 41.40707 90.1414 42.97702 91.8328 44.54694 93.70499 46.11687 95.74846 47.68678 97.94537 49.25673 100.26736 50.82664 102.67624 52.39658 105.12044 53.96649 107.53806 55.53642 109.83955 57.10635 111.97269 58.67628 113.82077 60.2462 115.28937 61.81613 116.26767 63.38606 116.65106 64.956 116.3362 66.52592 115.22725 68.09584 113.24773 69.66577 110.32977 71.2357 106.44556 72.80563 101.58119 74.37555 95.7749 75.94548 89.079 77.51541 81.59293 79.08534 73.45084 80.65526 64.82028 82.22519 55.89493 83.7951 46.89658 85.36505 38.06001 86.93497 29.6362 88.5049 21.8632 90.07481 14.97165 91.64476 9.184 93.21468 4.66093 94.7846 1.57327 96.35452 .00075 97.92445 0 99.49438 1.56226 101.06432 4.65718 102.63423 9.1707 104.20416 14.96523 105.77408 21.8556 107.34402 29.6217 108.91394 38.05048 110.48387 46.88206 112.05379 55.88048 113.62373 64.80663 115.19365 73.43822 116.76358 81.58179 118.3335 89.06924 119.90343 95.76639 121.47336 101.57504 123.04329 106.4351 124.6132 110.32002 126.18314 113.23845 127.75307 115.23059 129.323 116.34102 130.89292 116.66171 132.46285 116.27972 134.03276 115.30452 135.6027 113.84145 137.17263 111.96806 138.74256 109.86154 140.31247 107.54146 141.88242 105.1239 143.45233 102.67966 145.02227 100.27083 146.59218 97.94872 148.16211 95.75159 149.73204 93.7076 151.30197 91.83522 152.87189 90.14366 154.44182 88.63586 156.01175 87.30782 157.58168 86.15207 159.1516 85.15767 160.72153 84.31027 162.29145 83.59587 163.86139 83.00008 165.4313 82.50755 167.00124 82.10445 168.57115 81.7774 170.1411 81.51471 171.71102 81.3054 173.28095 81.14006 174.85086 81.01057"/>
</g>
<use data-text="x" xlink:href="#font_2_1" transform="matrix(10.909318,0,0,-10.909644,205.11144,96.58823)"/>
<use data-text="y" xlink:href="#font_2_2" transform="matrix(10.909318,0,0,-10.909644,95.74026,5.9306948)"/>
</svg>
