<svg xmlns="http://www.w3.org/2000/svg" xmlns:xlink="http://www.w3.org/1999/xlink" version="1.1" width="212" height="176" viewBox="0 0 212 176">
<defs>
<clipPath id="clip_1">
<path transform="matrix(1.00002,0,0,-1.00003,1.4673691,174.93389)" d="M0 0H194.28128V161.39028H0Z"/>
</clipPath>
<path id="font_2_1" d="M.33399964 .30233766C.33999635 .32835389 .36299134 .42037965 .43299867 .42037965 .43798829 .42037965 .46199037 .42037965 .48298646 .40734864 .45498658 .402359 .43499757 .37734986 .43499757 .35334779 .43499757 .33735658 .44599916 .31835938 .47299195 .31835938 .49499513 .31835938 .5269928 .3363495 .5269928 .37635804 .5269928 .42837525 .46798707 .4423828 .43399049 .4423828 .37599183 .4423828 .34098817 .38935853 .32899476 .36634828 .3039856 .43237306 .25 .4423828 .22099304 .4423828 .116989139 .4423828 .05999756 .3133545 .05999756 .28834535 .05999756 .27833558 .069992069 .27833558 .07199097 .27833558 .07998657 .27833558 .08299255 .28033448 .084991458 .28933717 .11898804 .39535523 .18499756 .42037965 .21899414 .42037965 .23799134 .42037965 .272995 .4113617 .272995 .35334779 .272995 .32235719 .2559967 .25532533 .21899414 .11528015 .20298767 .053268434 .16799927 .011245728 .12399292 .011245728 .117996219 .011245728 .09498596 .011245728 .07398987 .024276734 .09899902 .029266358 .12098694 .05027771 .12098694 .07827759 .12098694 .105270389 .09899902 .11328125 .083999637 .11328125 .053985597 .11328125 .0289917 .08728027 .0289917 .055267335 .0289917 .009246826 .07899475-.0107421879 .12298584-.0107421879 .18899536-.0107421879 .22499085 .059280397 .22799683 .0652771 .23999024 .028274537 .27598573-.0107421879 .33599855-.0107421879 .43899537-.0107421879 .49598695 .118270877 .49598695 .14328003 .49598695 .1532898 .4869995 .1532898 .48399354 .1532898 .47499085 .1532898 .47299195 .14929199 .47099305 .14228821 .43798829 .03527832 .36999513 .011245728 .33799745 .011245728 .29899598 .011245728 .2829895 .043273927 .2829895 .07727051 .2829895 .09927368 .2889862 .121276859 .2999878 .16529846L.33399964 .30233766Z"/>
<path id="font_2_2" d="M.48599244 .38136292C.48999024 .39537049 .48999024 .39736939 .48999024 .40437318 .48999024 .42237855 .47599793 .43138124 .46099855 .43138124 .45098878 .43138124 .43499757 .42536927 .42599488 .41036988 .42399598 .405365 .41600038 .37435914 .4119873 .35635377 .40499879 .33035279 .397995 .30334474 .3919983 .27633668L.34700013 .09628296C.34298707 .08126831 .2999878 .011245728 .23399353 .011245728 .18299866 .011245728 .17199707 .055267335 .17199707 .0922699 .17199707 .1382904 .18899536 .20030213 .22299195 .28833009 .23899842 .3293457 .24299622 .3403473 .24299622 .36035157 .24299622 .405365 .21099854 .4423828 .16099549 .4423828 .06599426 .4423828 .0289917 .29733277 .0289917 .28833009 .0289917 .27833558 .038986207 .27833558 .040985109 .27833558 .050994874 .27833558 .051986696 .28033448 .056991579 .29634095 .083999637 .3903656 .12399292 .42037965 .1579895 .42037965 .1659851 .42037965 .18299866 .42037965 .18299866 .3883667 .18299866 .36335755 .17298889 .3373413 .1659851 .31834413 .12599182 .21231079 .10798645 .1552887 .10798645 .10827637 .10798645 .019256592 .17098999-.0107421879 .22999573-.0107421879 .2689972-.0107421879 .30299378 .0062561037 .33099366 .03425598 .31799317-.017745972 .30599977-.06674194 .2659912-.11973572 .23999024-.15385437 .20199585-.18309021 .1559906-.18309021 .14199829-.18309021 .09700012-.18005371 .07998657-.14074707 .09599304-.14074707 .10899353-.14074707 .12298584-.1287384 .1329956-.11973572 .14299011-.10673523 .14299011-.08773804 .14299011-.056747438 .115997318-.052734376 .10598755-.052734376 .08299255-.052734376 .049987794-.068740848 .049987794-.11773682 .049987794-.16796875 .09399414-.20507813 .1559906-.20507813 .25898744-.20507813 .3619995-.11373901 .3899994-.00074768069L.48599244 .38136292Z"/>
</defs>
<path transform="matrix(1.00002,0,0,-1.00003,1.4673691,174.93389)" stroke-width=".19925" stroke-linecap="butt" stroke-miterlimit="10" stroke-linejoin="miter" fill="none" stroke="#929292" d=""/>
<path transform="matrix(1.00002,0,0,-1.00003,1.4673691,174.93389)" stroke-width=".19925" stroke-linecap="butt" stroke-miterlimit="10" stroke-linejoin="miter" fill="none" stroke="#929292" d=""/>
<path transform="matrix(1.00002,0,0,-1.00003,1.4673691,174.93389)" stroke-width=".3985" stroke-linecap="butt" stroke-miterlimit="10" stroke-linejoin="miter" fill="none" stroke="#000000" d="M0 80.69513H192.28876"/>
<path transform="matrix(1.00002,0,0,-1.00003,193.75998,94.23633)" d="M1.99252 0-1.19551 1.59401 0 0-1.19551-1.59401"/>
<path transform="matrix(1.00002,0,0,-1.00003,1.4673691,174.93389)" stroke-width=".3985" stroke-linecap="butt" stroke-miterlimit="10" stroke-linejoin="miter" fill="none" stroke="#000000" d="M97.14064 0V159.39775"/>
<path transform="matrix(0,-1.00003,-1.00002,-0,98.609958,15.531342)" d="M1.99252 0-1.19551 1.59401 0 0-1.19551-1.59401"/>
<g clip-path="url(#clip_1)">
<path transform="matrix(1.00002,0,0,-1.00003,1.4673691,174.93389)" stroke-width="1.59404" stroke-linecap="butt" stroke-miterlimit="10" stroke-linejoin="miter" fill="none" stroke="#000000" d="M0 107.59352H.58868 1.1774 1.76611 2.35483 2.94354 3.53224 4.12096 4.70967 5.29839 5.8871 6.4758 7.06451 7.65323 8.24194 8.83066 9.41937 10.00807 10.59679 11.1855 11.77422 12.36293 12.95163 13.54033 14.12904 14.71776 15.30647 15.89519 16.48389 17.0726 17.66132 18.25003 18.83875 19.42744 20.01616 20.60487 21.19359 21.7823 22.37102 22.95972 23.54843 24.13715 24.72586 25.31458 25.90327 26.49199 27.0807 27.6694 28.25813 28.84685 29.43553 30.02425 30.61296 31.20168 31.79039 32.37909 32.9678 33.55652 34.14523 34.73395 35.32266 35.91136 36.50008 37.08879 37.6775 38.26622 38.85492 39.44363 40.03235 40.62106 41.20978 41.7985 42.38718 42.9759 43.5646 44.15332 44.74203 45.33073 45.91945 46.50816 47.09688 47.6856 48.2743 48.863 49.45172 50.04044 50.62915 51.21786 51.80656 52.39528 52.984 53.57271 54.16142 54.75014 55.33884 55.92755 56.51625 57.10497 57.6937 58.28238"/>
<path transform="matrix(1.00002,0,0,-1.00003,1.4673691,174.93389)" stroke-width="1.59404" stroke-linecap="butt" stroke-miterlimit="10" stroke-linejoin="miter" fill="none" stroke="#000000" d="M58.28438 26.89838H58.67683 59.0693 59.46178 59.85423 60.2467 60.63918 61.03165 61.4241 61.81657 62.20905 62.60152 62.99399 63.38644 63.77892 64.17139 64.56384 64.95631 65.34879 65.74126 66.13373 66.52618 66.91866 67.31113 67.7036 68.09605 68.48853 68.881 69.27347 69.66592 70.0584 70.45087 70.84334 71.2358 71.62827 72.02074 72.41321 72.80568 73.19814 73.5906 73.98308 74.37555 74.768 75.16048 75.55295 75.94542 76.33788 76.73035 77.12282 77.51529 77.90776 78.30022 78.6927 79.08516 79.47762 79.87009 80.26256 80.65503 81.0475 81.43997 81.83243 82.2249 82.61737 83.00983 83.4023 83.79477 84.18724 84.57971 84.97217 85.36464 85.75711 86.14957 86.54204 86.93451 87.32698 87.71945 88.11192 88.50438 88.89685 89.2893 89.68178 90.07425 90.46672 90.85919 91.25166 91.64412 92.03659 92.42906 92.82152 93.21399 93.60646 93.99893 94.3914 94.78387 95.17633 95.5688 95.96126 96.35373 96.7462 97.13867"/>
<path transform="matrix(1.00002,0,0,-1.00003,1.4673691,174.93389)" stroke-width="1.59404" stroke-linecap="butt" stroke-miterlimit="10" stroke-linejoin="miter" fill="none" stroke="#000000" d="M97.14064 80.69513H107.93373 118.72684 129.51995 140.31304 151.10614 161.89923 172.69234 183.48546 194.27855"/>
</g>
<use data-text="x" xlink:href="#font_2_1" transform="matrix(10.909318,0,0,-10.909428,205.11144,96.58453)"/>
<use data-text="y" xlink:href="#font_2_2" transform="matrix(10.909318,0,0,-10.909428,95.74026,5.9308016)"/>
<path transform="matrix(1.00002,0,0,-1.00003,1.4673767,174.9339)" d="M61.11923 107.59352C61.11923 109.15916 59.85004 110.42836 58.28438 110.42836 56.71872 110.42836 55.44952 109.15916 55.44952 107.59352 55.44952 106.02786 56.71872 104.75867 58.28438 104.75867 59.85004 104.75867 61.11923 106.02786 61.11923 107.59352ZM58.28438 107.59352" fill="#ffffff"/>
<path transform="matrix(1.00002,0,0,-1.00003,1.4673767,174.9339)" d="M61.11923 26.89838C61.11923 28.46402 59.85004 29.73322 58.28438 29.73322 56.71872 29.73322 55.44952 28.46402 55.44952 26.89838 55.44952 25.33272 56.71872 24.06352 58.28438 24.06352 59.85004 24.06352 61.11923 25.33272 61.11923 26.89838ZM58.28438 26.89838" fill="#ffffff"/>
<path transform="matrix(1.00002,0,0,-1.00003,1.4673767,174.9339)" d="M99.97548 26.89838C99.97548 28.46402 98.70628 29.73322 97.14064 29.73322 95.57498 29.73322 94.30579 28.46402 94.30579 26.89838 94.30579 25.33272 95.57498 24.06352 97.14064 24.06352 98.70628 24.06352 99.97548 25.33272 99.97548 26.89838ZM97.14064 26.89838" fill="#ffffff"/>
<path transform="matrix(1.00002,0,0,-1.00003,1.4673767,174.9339)" d="M99.97548 80.69513C99.97548 82.26079 98.70628 83.52998 97.14064 83.52998 95.57498 83.52998 94.30579 82.26079 94.30579 80.69513 94.30579 79.12949 95.57498 77.86029 97.14064 77.86029 98.70628 77.86029 99.97548 79.12949 99.97548 80.69513ZM97.14064 80.69513" fill="#ffffff"/>
<path transform="matrix(1.00002,0,0,-1.00003,1.4673767,174.9339)" stroke-width=".3985" stroke-linecap="butt" stroke-miterlimit="10" stroke-linejoin="miter" fill="none" stroke="#000000" d="M61.11923 107.59352C61.11923 109.15916 59.85004 110.42836 58.28438 110.42836 56.71872 110.42836 55.44952 109.15916 55.44952 107.59352 55.44952 106.02786 56.71872 104.75867 58.28438 104.75867 59.85004 104.75867 61.11923 106.02786 61.11923 107.59352ZM58.28438 107.59352"/>
<path transform="matrix(1.00002,0,0,-1.00003,1.4673767,174.9339)" stroke-width=".3985" stroke-linecap="butt" stroke-miterlimit="10" stroke-linejoin="miter" fill="none" stroke="#000000" d="M61.11923 26.89838C61.11923 28.46402 59.85004 29.73322 58.28438 29.73322 56.71872 29.73322 55.44952 28.46402 55.44952 26.89838 55.44952 25.33272 56.71872 24.06352 58.28438 24.06352 59.85004 24.06352 61.11923 25.33272 61.11923 26.89838ZM58.28438 26.89838"/>
<path transform="matrix(1.00002,0,0,-1.00003,1.4673767,174.9339)" stroke-width=".3985" stroke-linecap="butt" stroke-miterlimit="10" stroke-linejoin="miter" fill="none" stroke="#000000" d="M99.97548 26.89838C99.97548 28.46402 98.70628 29.73322 97.14064 29.73322 95.57498 29.73322 94.30579 28.46402 94.30579 26.89838 94.30579 25.33272 95.57498 24.06352 97.14064 24.06352 98.70628 24.06352 99.97548 25.33272 99.97548 26.89838ZM97.14064 26.89838"/>
<path transform="matrix(1.00002,0,0,-1.00003,1.4673767,174.9339)" stroke-width=".3985" stroke-linecap="butt" stroke-miterlimit="10" stroke-linejoin="miter" fill="none" stroke="#000000" d="M99.97548 80.69513C99.97548 82.26079 98.70628 83.52998 97.14064 83.52998 95.57498 83.52998 94.30579 82.26079 94.30579 80.69513 94.30579 79.12949 95.57498 77.86029 97.14064 77.86029 98.70628 77.86029 99.97548 79.12949 99.97548 80.69513ZM97.14064 80.69513"/>
</svg>
