<svg xmlns="http://www.w3.org/2000/svg" xmlns:xlink="http://www.w3.org/1999/xlink" version="1.1" width="197" height="165" viewBox="0 0 197 165">
<defs>
<path id="font_1_1" d="M.6589966 .23046875C.6759949 .23046875 .69400027 .23046875 .69400027 .25045777 .69400027 .27046205 .6759949 .27046205 .6589966 .27046205H.117996219C.100997928 .27046205 .08299255 .27046205 .08299255 .25045777 .08299255 .23046875 .100997928 .23046875 .117996219 .23046875H.6589966Z"/>
<path id="font_2_2" d="M.2939911 .64004519C.2939911 .66400149 .2939911 .6660156 .2709961 .6660156 .20899964 .60227969 .12098694 .60227969 .08898926 .60227969V.57128909C.10899353 .57128909 .16799927 .57128909 .21998596 .5972748V.07902527C.21998596 .042999269 .21699524 .0309906 .1269989 .0309906H.09498596V0C.12998963 .0029907227 .21699524 .0029907227 .25698854 .0029907227 .29699708 .0029907227 .38398744 .0029907227 .4189911 0V.0309906H.3869934C.29699708 .0309906 .2939911 .041992189 .2939911 .07902527V.64004519Z"/>
<path id="font_2_1" d="M.45999146 .31976319C.45999146 .39982606 .45498658 .47988893 .41999818 .5539398 .37399293 .65000918 .2919922 .6660156 .25 .6660156 .18998719 .6660156 .116989139 .64001467 .07598877 .54693606 .04399109 .47789 .038986207 .39982606 .038986207 .31976319 .038986207 .24472046 .042999269 .15464783 .083999637 .07859802 .1269989-.0024719239 .19999695-.022460938 .24899292-.022460938 .30299378-.022460938 .3789978-.0014648438 .4229889 .09359741 .45498658 .16265869 .45999146 .2407074 .45999146 .31976319M.24899292-.00047302247C.20999146-.00047302247 .15098572 .024551392 .1329956 .12062073 .12199402 .18066406 .12199402 .2727356 .12199402 .3317871 .12199402 .39582826 .12199402 .46188355 .12998963 .5159149 .14898682 .63500979 .22399903 .64401248 .24899292 .64401248 .28199769 .64401248 .34799195 .6259918 .36698915 .52693179 .3769989 .47088624 .3769989 .39482118 .3769989 .3317871 .3769989 .25672914 .3769989 .18867493 .3659973 .12461853 .35099793 .029556275 .2939911-.00047302247 .24899292-.00047302247Z"/>
<path id="font_2_3" d="M.44898988 .20022583C.44898988 .3193512 .36698915 .41944886 .25898744 .41944886 .21099854 .41944886 .16799927 .40345765 .13198853 .36842347V.5637665C.1519928 .5577698 .18499756 .55078127 .21699524 .55078127 .33999635 .55078127 .4099884 .6417694 .4099884 .6547699 .4099884 .6607666 .40699769 .6657715 .3999939 .6657715 .39898683 .6657715 .39698792 .6657715 .3919983 .66278079 .37199403 .6537781 .32299806 .6337738 .2559967 .6337738 .21598816 .6337738 .16999817 .6407776 .12298584 .6617737 .114990238 .66477969 .11299133 .66477969 .11099243 .66477969 .100997928 .66477969 .100997928 .6567688 .100997928 .6407776V.34439088C.100997928 .32637025 .100997928 .31835938 .114990238 .31835938 .12199402 .31835938 .12399292 .32136537 .12799073 .32736207 .13899231 .3433838 .17599488 .39746095 .25698854 .39746095 .30899049 .39746095 .33399964 .35139466 .34199525 .33337403 .35798646 .29632569 .3600006 .25727845 .3600006 .20722962 .3600006 .17222595 .3600006 .11222839 .33599855 .07035828 .31199647 .031463624 .2749939 .0055389406 .22898865 .0055389406 .1559906 .0055389406 .09899902 .058380128 .08198547 .11723328 .084991458 .1162262 .08799744 .115234378 .09899902 .115234378 .13198853 .115234378 .14898682 .14022827 .14898682 .16423035 .14898682 .18823242 .13198853 .21322632 .09899902 .21322632 .084991458 .21322632 .049987794 .20622254 .049987794 .16023255 .049987794 .07434082 .11898804-.022460938 .23098755-.022460938 .34700013-.022460938 .44898988 .073349 .44898988 .20022583Z"/>
<clipPath id="clip_3">
<path transform="matrix(1.00005,0,0,-1.00003,1.0961456,163.19742)" d="M0 0H194.27275V161.39484H0Z"/>
</clipPath>
</defs>
<path transform="matrix(1.00005,0,0,-1.00003,1.0961456,163.19742)" stroke-width=".19925" stroke-linecap="butt" stroke-miterlimit="10" stroke-linejoin="miter" fill="none" stroke="#929292" d="M19.83817 78.57133V82.82347M58.48843 78.57133V82.82347M135.78897 78.57133V82.82347M174.43924 78.57133V82.82347"/>
<path transform="matrix(1.00005,0,0,-1.00003,1.0961456,163.19742)" stroke-width=".19925" stroke-linecap="butt" stroke-miterlimit="10" stroke-linejoin="miter" fill="none" stroke="#929292" d="M95.01274 26.89914H99.26466M95.01274 134.4957H99.26466"/>
<path transform="matrix(1.00005,0,0,-1.00003,1.0961456,163.19742)" stroke-width=".3985" stroke-linecap="butt" stroke-miterlimit="10" stroke-linejoin="miter" fill="none" stroke="#000000" d="M0 80.69742H192.28023"/>
<path transform="matrix(1.00005,0,0,-1.00003,193.38597,82.497577)" d="M1.99252 0-1.19551 1.59401 0 0-1.19551-1.59401"/>
<path transform="matrix(1.00005,0,0,-1.00003,1.0961456,163.19742)" stroke-width=".3985" stroke-linecap="butt" stroke-miterlimit="10" stroke-linejoin="miter" fill="none" stroke="#000000" d="M97.1387 0V159.40232"/>
<path transform="matrix(0,-1.00003,-1.00005,-0,98.2397,3.7903138)" d="M1.99252 0-1.19551 1.59401 0 0-1.19551-1.59401"/>
<use data-text="&#x2212;" xlink:href="#font_1_1" transform="matrix(9.963098,0,0,-9.962899,12.078697,94.56436)"/>
<use data-text="1" xlink:href="#font_2_2" transform="matrix(9.963098,0,0,-9.962899,19.828087,94.56436)"/>
<use data-text="0" xlink:href="#font_2_1" transform="matrix(9.963098,0,0,-9.962899,24.809639,94.56436)"/>
<use data-text="&#x2212;" xlink:href="#font_1_1" transform="matrix(9.963098,0,0,-9.962899,53.22175,94.56436)"/>
<use data-text="5" xlink:href="#font_2_3" transform="matrix(9.963098,0,0,-9.962899,60.971139,94.56436)"/>
<use data-text="5" xlink:href="#font_2_3" transform="matrix(9.963098,0,0,-9.962899,134.4008,94.56436)"/>
<use data-text="1" xlink:href="#font_2_2" transform="matrix(9.963098,0,0,-9.962899,170.5626,94.56436)"/>
<use data-text="0" xlink:href="#font_2_1" transform="matrix(9.963098,0,0,-9.962899,175.54416,94.56436)"/>
<use data-text="&#x2212;" xlink:href="#font_1_1" transform="matrix(9.963098,0,0,-9.962899,79.86308,139.0927)"/>
<use data-text="1" xlink:href="#font_2_2" transform="matrix(9.963098,0,0,-9.962899,87.61247,139.0927)"/>
<use data-text="1" xlink:href="#font_2_2" transform="matrix(9.963098,0,0,-9.962899,87.612468,31.908478)"/>
<g clip-path="url(#clip_3)">
<path transform="matrix(1.00005,0,0,-1.00003,1.0961456,163.19742)" stroke-width=".79701" stroke-linecap="butt" stroke-miterlimit="10" stroke-linejoin="miter" fill="none" stroke="#0000ff" d="M0 80.69742 .3893 83.40454 .77863 86.1063 1.16794 88.79405 1.55727 91.46083 1.94661 94.10016 2.33592 96.70724 2.72525 99.27287 3.11458 101.7901 3.50389 104.25621 3.89322 106.66153 4.28255 108.9996 4.67186 111.26666 5.06119 113.4568 5.45052 115.56354 5.83984 117.5815 6.22917 119.50696 6.6185 121.3334 7.00781 123.05655 7.39714 124.67213 7.78647 126.1758 8.17578 127.56485 8.56511 128.83397 8.95442 129.98201 9.34377 131.0058 9.7331 131.9026 10.1224 132.66924 10.51173 133.30136 10.90106 133.8017 11.29037 134.16751 11.6797 134.39617 12.06903 134.49085 12.45834 134.44782 12.84767 134.26973 13.23701 133.95447 13.62633 133.50742 14.01566 132.92209 14.40498 132.20442 14.7943 131.35817 15.18362 130.38227 15.57294 129.28156 15.96227 128.05767 16.3516 126.71269 16.74092 125.25261 17.13025 123.67847 17.51958 121.99352 17.90889 120.2058 18.29822 118.31746 18.68755 116.33392 19.07686 114.26001 19.46619 112.10054 19.85551 109.86307 20.24483 107.54973 20.63417 105.16809 21.0235 102.72511 21.41281 100.22618 21.80214 97.6783 22.19147 95.0863 22.58078 92.45824 22.97011 89.80115 23.35942 87.11986 23.74875 84.42348 24.13809 81.71689 24.5274 79.00867 24.91673 76.3037 25.30606 73.61055 25.69537 70.93518 26.0847 68.284 26.47403 65.66455 26.86334 63.08278 27.25267 60.54619 27.642 58.06017 28.03133 55.63278 28.42065 53.26782 28.80998 50.97385 29.1993 48.75305 29.58862 46.61566 29.97795 44.56218 30.36726 42.60123 30.75659 40.73766 31.1459 38.97469 31.53525 37.31879 31.92458 35.77206 32.31389 34.33942 32.70322 33.0246 33.09253 31.8292 33.48186 30.75916 33.87119 29.81392 34.26051 28.99995 34.64983 28.3167 35.03915 27.76581 35.4285 27.34995 35.81781 27.06912 36.20714 26.92389 36.59645 26.91473 36.98576 27.04224 37.3751 27.3037 37.76443 27.70341 38.15375 28.23871 38.54308 28.90579 38.9324 29.7031 39.32175 30.63004 39.71104 31.68394 40.10037 32.86212 40.48967 34.1619 40.87903 35.5784 41.26837 37.11111 41.65765 38.75519 42.04701 40.5047 42.43628 42.35536 42.82565 44.30396 43.215 46.34343 43.60428 48.47061 43.99362 50.68118 44.38292 52.96494 44.77226 55.32184 45.16162 57.74277 45.5509 60.22177 45.94025 62.75192 46.32953 65.32777 46.71889 67.9429 47.10823 70.59032 47.49753 73.26248 47.88686 75.95508 48.27617 78.65845 48.66551 81.36667 49.05486 84.07379 49.44414 86.77122 49.8335 89.4547 50.22278 92.11609 50.61212 94.74843 51.00148 97.34581 51.39076 99.8991 51.7801 102.40501 52.1694 104.85498 52.55875 107.24524 52.94809 109.56557 53.33739 111.81488 53.72673 113.98454 54.11603 116.07085 54.50536 118.06624 54.89471 119.96745 55.28401 121.76755 55.67336 123.46436 56.06264 125.05302 56.452 126.52977 56.84132 127.8898 57.23062 129.13039 57.61998 130.2483 58.00926 131.24089 58.3986 132.10382 58.78796 132.83655 59.17723 133.43694 59.5666 133.90283 59.95589 134.2353 60.34523 134.43274 60.73457 134.49407 61.12387 134.41768 61.51321 134.20572 61.90251 133.85604 62.29184 133.37291 62.6812 132.75693 63.0705 132.0075 63.45984 131.12899 63.84912 130.12296 64.23848 128.99051 64.6278 127.737 65.01712 126.363 65.40646 124.87334 65.79575 123.27068 66.18509 121.56097 66.57445 119.7485 66.96373 117.83543 67.35309 115.83037 67.74237 113.73492 68.13171 111.5561 68.52106 109.29819 68.91037 106.96765 69.2997 104.56985 69.689 102.1129 70.07832 99.60104 70.46768 97.04132 70.85698 94.44072 71.24632 91.80513 71.6356 89.14105 72.02496 86.45544 72.4143 83.75531 72.8036 81.04817 73.19295 78.3405 73.58223 75.63713 73.97157 72.9483 74.36093 70.27669 74.75021 67.63356 75.13956 65.0222 75.52885 62.45117 75.9182 59.92697 76.30756 57.45547 76.69684 55.04262 77.08618 52.69432 77.47548 50.41759 77.86482 48.21724 78.25417 46.09813 78.64346 44.06831 79.0328 42.13156 79.4221 40.29274 79.81145 38.55669 80.20079 36.92659 80.59007 35.40678 80.97945 34.00319 81.36871 32.71687 81.75807 31.55214 82.14742 30.51329 82.5367 29.60141 82.92606 28.81972 83.31535 28.16878 83.70468 27.65121 84.09404 27.2671 84.48334 27.01964 84.87268 26.9072 85.26196 26.93195 85.6513 27.09442 86.04065 27.39192 86.42996 27.82446 86.81929 28.39095 87.20859 29.09033 87.59793 29.91936 87.98727 30.87804 88.37657 31.96155 88.76593 33.17094 89.1552 34.50136 89.54456 35.948 89.9339 37.5076 90.3232 39.1775 90.71254 40.95285 91.10184 42.82771 91.49117 44.79889 91.88052 46.86153 92.26982 49.01022 92.65915 51.23856 93.04845 53.54218 93.43779 55.91469 93.82715 58.35014 94.21643 60.84154 94.60577 63.38403 94.99507 65.96959 95.38441 68.59387 95.77376 71.24828 96.16306 73.92581 96.5524 76.62164 96.94168 79.32716 97.33104 82.03537 97.7204 84.74088 98.10966 87.4367 98.49902 90.11479 98.88832 92.76974 99.27765 95.39401 99.667 97.98065 100.0563 100.52315 100.44563 103.01509 100.83493 105.45053 101.22427 107.82465 101.61363 110.12885 102.00291 112.3593 102.39226 114.50856 102.78154 116.57118 103.17091 118.54451 103.56024 120.42044 103.94954 122.19632 104.33888 123.86838 104.72816 125.42906 105.11752 126.87677 105.50688 128.20829 105.89615 129.4182 106.2855 130.50438 106.6748 131.46469 107.06415 132.29535 107.45349 132.99687 107.84279 133.56499 108.23212 133.99913 108.62141 134.2977 109.01076 134.46179 109.40012 134.48816 109.7894 134.37734 110.17874 134.13039 110.56804 133.74951 110.9574 133.2325 111.34673 132.5837 111.73602 131.80416 112.12537 130.89336 112.51466 129.85613 112.904 128.69193 113.29337 127.40723 113.68263 126.00523 114.07199 124.48705 114.46129 122.85858 114.85063 121.12305 115.23997 119.2853 115.62927 117.34964 116.0186 115.32144 116.40791 113.20395 116.79724 111.00307 117.18658 108.72792 117.57588 106.38072 117.96523 103.96893 118.35452 101.49744 118.74387 98.97377 119.13321 96.40382 119.5225 93.79245 119.91187 91.1488 120.30113 88.47932 120.69049 85.78941 121.07983 83.08711 121.46913 80.37999 121.85847 77.6718 122.24777 74.97273 122.6371 72.2855 123.02646 69.62088 123.41576 66.98584 123.8051 64.3836 124.19438 61.82443 124.58372 59.31259 124.97307 56.854 125.36238 54.45569 125.75171 52.12462 126.141 49.86615 126.53035 47.68571 126.9197 45.58919 127.30899 43.58197 127.69835 41.6689 128.08762 39.8543 128.47698 38.14351 128.86634 36.54031 129.25562 35.04796 129.64496 33.6734 130.03426 32.41882 130.42359 31.2853 130.81295 30.27711 131.20224 29.39699 131.59159 28.64703 131.98087 28.02782 132.37021 27.54362 132.75957 27.19287 133.14887 26.97874 133.5382 26.90182 133.92749 26.96046 134.31684 27.15628 134.70618 27.48607 135.09548 27.95142 135.48484 28.55074 135.8741 29.2824 136.26346 30.14316 136.65282 31.13411 137.0421 32.25044 137.43144 33.48943 137.82074 34.84782 138.21009 36.32298 138.59943 37.91057 138.98873 39.60574 139.37807 41.4053 139.76735 43.30492 140.1567 45.29976 140.54605 47.38443 140.93535 49.55357 141.32468 51.80127 141.71398 54.12158 142.10334 56.5113 142.49266 58.96074 142.88196 61.46559 143.2713 64.0194 143.66059 66.61517 144.04994 69.24698 144.4393 71.90784 144.82857 74.59076 145.21793 77.28983 145.60723 79.99535 145.99657 82.70407 146.38591 85.40852 146.7752 88.10005 147.16454 90.77328 147.55385 93.4207 147.94318 96.03583 148.33254 98.61276 148.72182 101.1429 149.11116 103.62247 149.50046 106.0434 149.88982 108.40083 150.27915 110.68617 150.66844 112.89783 151.05779 115.02554 151.44709 117.0672 151.83643 119.01685 152.22579 120.86858 152.61505 122.6197 153.00441 124.26488 153.3937 125.79811 153.78305 127.21678 154.1724 128.51818 154.56169 129.69742 154.95104 130.75348 155.34033 131.68204 155.72966 132.48094 156.11902 133.15018 156.5083 133.68549 156.89766 134.08683 157.28694 134.35042 157.6763 134.47956 158.06563 134.47202 158.45493 134.3273 158.84429 134.04917 159.23357 133.63492 159.62291 133.08563 160.01227 132.404 160.40154 131.59111 160.7909 130.64804 161.18019 129.5796 161.56954 128.38582 161.95888 127.07152 162.34818 125.64049 162.73752 124.09595 163.12682 122.44057 163.51615 120.67921 163.9055 118.81564 164.2948 116.85631 164.68413 114.80498 165.07343 112.66704 165.46279 110.44893 165.85211 108.15552 166.24141 105.79054 166.63077 103.36423 167.02004 100.8793 167.4094 98.3427 167.79874 95.76146 168.18804 93.14203 168.57738 90.49138 168.96668 87.816 169.356 85.12285 169.74538 82.41786 170.13466 79.71074 170.524 77.00362 170.91329 74.30672 171.30263 71.62593 171.69199 68.96776 172.08129 66.33972 172.47061 63.74773 172.85991 61.19875 173.24925 58.69928 173.63861 56.25415 174.0279 53.87358 174.41725 51.55972 174.80652 49.32117 175.19589 47.16063 175.58524 45.0851 175.97452 43.10103 176.36386 41.21162 176.75316 39.42122 177.14249 37.73572 177.53186 36.16104 177.92115 34.69826 178.31049 33.35277 178.69977 32.12724 179.08913 31.02492 179.47847 30.04741 179.86777 29.19954 180.2571 28.48026 180.6464 27.8944 181.03575 27.4441 181.4251 27.12885 181.81438 26.94754 182.20374 26.90396 182.593 26.99706 182.98238 27.22408 183.37172 27.58774 183.761 28.08537 184.15035 28.71805 184.53964 29.48253 184.92899 30.37718 185.31833 31.39935 185.70763 32.54634 186.09697 33.81436 186.48625 35.20073 186.8756 36.70386 187.26496 38.31781 187.65425 40.03989 188.04358 41.86581 188.43288 43.7891 188.82224 45.80707 189.21157 47.91327 189.60086 50.10071 189.99022 52.36723 190.3795 54.70532 190.76885 57.10956 191.1582 59.57405 191.54747 62.0918 191.93685 64.6569 192.32613 67.26183 192.71547 69.9017 193.10482 72.56796 193.49411 75.25624 193.88344 77.95801 194.27275 80.66513"/>
</g>
</svg>
