<svg xmlns="http://www.w3.org/2000/svg" xmlns:xlink="http://www.w3.org/1999/xlink" xmlns:inkscape="http://www.inkscape.org/namespaces/inkscape" version="1.1" width="229" height="186" viewBox="0 0 229 186">
<defs>
<path id="font_1_1" d="M.3039856 .6392822C.3039856 .6642761 .30299378 .666275 .27799989 .666275 .21598816 .60227969 .12399292 .60227969 .09298706 .60227969V.57128909C.11199951 .57128909 .17298889 .57128909 .22698975 .5972748V.08001709C.22698975 .042999269 .22399903 .0309906 .1309967 .0309906H.09899902V0C.1349945 .0029907227 .22399903 .0029907227 .2649994 .0029907227 .30599977 .0029907227 .3959961 .0029907227 .43199159 0V.0309906H.3999939C.30699159 .0309906 .3039856 .042999269 .3039856 .08001709V.6392822Z"/>
<path id="font_1_2" d="M.46199037 .17704773H.43399049C.43199159 .16404724 .42399598 .10501099 .41099549 .08900452 .40499879 .07998657 .33599855 .07998657 .31599427 .07998657H.13798523L.23699951 .17404175C.40098573 .3161316 .46199037 .36915589 .46199037 .4711914 .46199037 .5860901 .36698915 .6660156 .24398804 .6660156 .1289978 .6660156 .050994874 .575119 .050994874 .4841919 .050994874 .43418885 .09399414 .42919923 .102996829 .42919923 .125 .42919923 .15499878 .44519044 .15499878 .48120118 .15499878 .51119998 .13398743 .5332031 .102996829 .5332031 .09799194 .5332031 .09498596 .5332031 .09098816 .53219607 .114990238 .6030731 .1789856 .63500979 .23298645 .63500979 .33499146 .63500979 .36999513 .5401764 .36999513 .4711914 .36999513 .36915589 .29299928 .28611756 .24499512 .23408509L.06199646 .035995485C.050994874 .024993897 .050994874 .022994996 .050994874 0H.43399049L.46199037 .17704773Z"/>
<path id="font_1_3" d="M.30499269 .35195924C.397995 .38697816 .44198609 .46006776 .44198609 .5290985 .44198609 .60606387 .35699464 .6660156 .25299073 .6660156 .14898682 .6660156 .070999149 .60705569 .070999149 .5310974 .070999149 .49809266 .09298706 .47909547 .12199402 .47909547 .15098572 .47909547 .17199707 .50009158 .17199707 .5290985 .17199707 .5640869 .147995 .57910159 .11399841 .57910159 .13999939 .6210327 .20098877 .64100649 .25 .64100649 .33299256 .64100649 .34899903 .5750885 .34899903 .52809146 .34899903 .49809266 .34298707 .45005799 .31799317 .41201783 .2869873 .36695863 .2519989 .36495973 .22299195 .36296083 .19799805 .36094667 .19599915 .36094667 .18798828 .36094667 .1789856 .35995484 .17098999 .35894776 .17098999 .34794618 .17098999 .33496095 .1789856 .33496095 .19599915 .33496095H.24299622C.32998658 .33496095 .36799623 .2646637 .36799623 .16937256 .36799623 .04145813 .2999878 .0055389406 .24899292 .0055389406 .22999573 .0055389406 .1329956 .010528564 .08799744 .0843811 .12399292 .07939148 .1519928 .10437012 .1519928 .13838196 .1519928 .17137146 .1269989 .19238281 .09799194 .19238281 .07299805 .19238281 .042999269 .17736817 .042999269 .13537598 .042999269 .046447755 .13598633-.022460938 .2519989-.022460938 .3769989-.022460938 .46998597 .06741333 .46998597 .16937256 .46998597 .25663758 .40098573 .33093263 .30499269 .35195924Z"/>
<path id="font_1_4" d="M.0289917 .19602967V.16503906H.3019867V.07901001C.3019867 .041992189 .29899598 .0309906 .22399903 .0309906H.20199585V0C.2649994 .0029907227 .33499146 .0029907227 .34199525 .0029907227 .34700013 .0029907227 .4189911 .0029907227 .48199464 0V.0309906H.45999146C.3849945 .0309906 .38198854 .041992189 .38198854 .07901001V.16503906H.48399354V.19602967H.38198854V.64974978C.38198854 .669754 .38198854 .6767578 .36299134 .6767578 .35099793 .6767578 .34999085 .67575076 .34098817 .66174319L.0289917 .19602967M.06098938 .19602967 .30799867 .56581118V.19602967H.06098938Z"/>
<path id="font_1_5" d="M.10398865 .3444519C.10398865 .32641603 .10398865 .31539918 .117996219 .31539918 .12599182 .31539918 .1289978 .31941224 .1349945 .32843019 .16499329 .3704834 .21299744 .39453126 .2649994 .39453126 .37199403 .39453126 .37199403 .24029541 .37199403 .20425415 .37199403 .17324829 .37199403 .11125183 .34399415 .06637573 .31698609 .024475098 .2749939 .0055389406 .23599243 .0055389406 .1769867 .0055389406 .10998535 .042434694 .085998538 .116256717 .08699036 .116256717 .09298706 .11425781 .099990848 .11425781 .11999512 .11425781 .14898682 .12724304 .14898682 .16325379 .14898682 .19424439 .1269989 .21224976 .099990848 .21224976 .07899475 .21224976 .050994874 .20025635 .050994874 .1602478 .050994874 .069366458 .1269989-.022460938 .23799134-.022460938 .35899354-.022460938 .46199037 .0753479 .46199037 .19924927 .46199037 .3204193 .37599183 .41952516 .2669983 .41952516 .21899414 .41952516 .16999817 .40351869 .1349945 .36747743V.56477358C.16499329 .5557709 .19599915 .55078127 .22698975 .55078127 .34999085 .55078127 .42199708 .6397705 .42199708 .652771 .42199708 .6617737 .41600038 .6657715 .41099549 .6657715 .40899659 .6657715 .40699769 .6657715 .397995 .6607666 .35099793 .6417694 .30499269 .6337738 .2630005 .6337738 .21998596 .6337738 .1749878 .6417694 .1289978 .6607666 .11898804 .6657715 .116989139 .6657715 .115997318 .6657715 .10398865 .6657715 .10398865 .655777 .10398865 .6387787V.3444519Z"/>
<path id="font_2_1" d="M.6749878 .22944641C.69299319 .22944641 .71199038 .22944641 .71199038 .25144959 .71199038 .27246095 .69200137 .27246095 .6749878 .27246095H.12298584C.10598755 .27246095 .085998538 .27246095 .085998538 .25144959 .085998538 .22944641 .10499573 .22944641 .12298584 .22944641H.6749878Z"/>
<clipPath id="clip_3">
<path transform="matrix(1.00003,0,0,-1.00006,17.639115,184.00925)" d="M0 0H194.26988V161.3918H0Z"/>
</clipPath>
<path id="font_4_2" d="M.20599365 .3996582H.2999878C.31999208 .3996582 .32998658 .3996582 .32998658 .41966249 .32998658 .43066407 .31999208 .43066407 .3019867 .43066407H.21398926C.25 .5724945 .25498963 .59246829 .25498963 .59846499 .25498963 .61546328 .24299622 .62545779 .22599793 .62545779 .22299195 .62545779 .19499207 .62446597 .18598938 .58947756L.14698792 .43066407H.052993776C.032989503 .43066407 .022994996 .43066407 .022994996 .4116516 .022994996 .3996582 .0309906 .3996582 .050994874 .3996582H.13899231C.066986087 .11608887 .06298828 .099121097 .06298828 .08114624 .06298828 .02722168 .100997928-.0107421879 .15499878-.0107421879 .25698854-.0107421879 .31399537 .13505554 .31399537 .14305115 .31399537 .1530304 .30599977 .1530304 .3019867 .1530304 .29299928 .1530304 .2919922 .15003968 .2869873 .13905335 .24398804 .035217287 .19099427 .011245728 .15699768 .011245728 .13598633 .011245728 .12599182 .024230957 .12599182 .057174684 .12599182 .08114624 .12799073 .088134769 .13198853 .10510254L.20599365 .3996582Z"/>
<path id="font_4_1" d="M.36698915 .3996582H.45298768C.47299195 .3996582 .48298646 .3996582 .48298646 .41966249 .48298646 .43066407 .47299195 .43066407 .45599366 .43066407H.37298585L.3939972 .5449524C.397995 .5660095 .4119873 .6370239 .41799928 .6490326 .4269867 .66804507 .44400025 .68307498 .46499635 .68307498 .46899415 .68307498 .49499513 .68307498 .5139923 .66503909 .46998597 .661026 .45999146 .6260376 .45999146 .6110382 .45999146 .58802798 .47799684 .57603457 .49699403 .57603457 .522995 .57603457 .5519867 .5980377 .5519867 .6360321 .5519867 .6820679 .5059967 .7050781 .46499635 .7050781 .43099977 .7050781 .36799623 .68707278 .33799745 .58802798 .33198548 .56700137 .32899476 .5569763 .30499269 .43066407H.23599243C.21699524 .43066407 .20599365 .43066407 .20599365 .4116516 .20599365 .3996582 .21499634 .3996582 .23399353 .3996582H.2999878L.22499085 .0048828127C.20698548-.09207153 .18998719-.18309021 .13798523-.18309021 .13398743-.18309021 .10899353-.18309021 .08999634-.16506958 .13598633-.1620636 .14498902-.12606812 .14498902-.111068729 .14498902-.08807373 .1269989-.07606506 .10798645-.07606506 .08198547-.07606506 .052993776-.09806824 .052993776-.13606262 .052993776-.18109131 .09700012-.20507813 .13798523-.20507813 .19299317-.20507813 .23298645-.14607239 .25099183-.108062747 .2829895-.04508972 .30599977 .07583618 .30699159 .082839969L.36698915 .3996582Z"/>
<path id="font_5_1" d="M.33099366-.2400055C.33099366-.23701477 .33099366-.23500061 .31399537-.21800232 .18899536-.0920105 .15699768 .09700012 .15699768 .25 .15699768 .42399598 .19499207 .59799197 .31799317 .72299197 .33099366 .73498538 .33099366 .7369995 .33099366 .73999026 .33099366 .746994 .32699586 .75 .32099916 .75 .31098939 .75 .22099304 .6819916 .1619873 .5549927 .11099243 .44499208 .09899902 .33399964 .09899902 .25 .09899902 .17199707 .10998535 .050994874 .16499329-.06201172 .22499085-.18501282 .31098939-.25 .32099916-.25 .32699586-.25 .33099366-.24700928 .33099366-.2400055Z"/>
<path id="font_5_2" d="M.2889862 .25C.2889862 .32798768 .27799989 .44898988 .22299195 .56199648 .16299439 .68499758 .07699585 .75 .066986087 .75 .06098938 .75 .056991579 .74598696 .056991579 .73999026 .056991579 .7369995 .056991579 .73498538 .07598877 .71699526 .17399597 .6179962 .23098755 .45899964 .23098755 .25 .23098755 .07899475 .19400025-.09700012 .069992069-.2230072 .056991579-.23500061 .056991579-.23701477 .056991579-.2400055 .056991579-.2460022 .06098938-.25 .066986087-.25 .07699585-.25 .16699219-.18200684 .22599793-.055007936 .2769928 .054992677 .2889862 .16600037 .2889862 .25Z"/>
</defs>
<path transform="matrix(1.00003,0,0,-1.00006,17.639115,184.00925)" stroke-width=".09962" stroke-linecap="butt" stroke-miterlimit="10" stroke-linejoin="miter" fill="none" stroke="#d9d9d9" d="M8.83044 0V161.3918M17.66089 0V161.3918M26.49133 0V161.3918M44.15224 0V161.3918M52.98268 0V161.3918M61.81314 0V161.3918M79.47403 0V161.3918M88.30449 0V161.3918M97.13493 0V161.3918M114.79584 0V161.3918M123.62628 0V161.3918M132.45673 0V161.3918M150.11763 0V161.3918M158.94808 0V161.3918M167.77854 0V161.3918M185.43943 0V161.3918M194.26988 0V161.3918"/>
<path transform="matrix(1.00003,0,0,-1.00006,17.639115,184.00925)" stroke-width=".19925" stroke-linecap="butt" stroke-miterlimit="10" stroke-linejoin="miter" fill="none" stroke="#bfbfbf" d="M35.3218 0V161.3918M70.64359 0V161.3918M105.96538 0V161.3918M141.28719 0V161.3918M176.60898 0V161.3918"/>
<path transform="matrix(1.00003,0,0,-1.00006,17.639115,184.00925)" stroke-width=".09962" stroke-linecap="butt" stroke-miterlimit="10" stroke-linejoin="miter" fill="none" stroke="#d9d9d9" d="M0 0H194.26988M0 8.06958H194.26988M0 24.20876H194.26988M0 32.27835H194.26988M0 40.34795H194.26988M0 56.48712H194.26988M0 64.55672H194.26988M0 72.6263H194.26988M0 88.76549H194.26988M0 96.83507H194.26988M0 104.90466H194.26988M0 121.04384H194.26988M0 129.11344H194.26988M0 137.18303H194.26988M0 153.3222H194.26988M0 161.3918H194.26988"/>
<path transform="matrix(1.00003,0,0,-1.00006,17.639115,184.00925)" stroke-width=".19925" stroke-linecap="butt" stroke-miterlimit="10" stroke-linejoin="miter" fill="none" stroke="#bfbfbf" d="M0 16.13918H194.26988M0 48.41753H194.26988M0 112.97426H194.26988M0 145.25261H194.26988"/>
<path transform="matrix(1.00003,0,0,-1.00006,17.639115,184.00925)" stroke-width=".19925" stroke-linecap="butt" stroke-miterlimit="10" stroke-linejoin="miter" fill="none" stroke="#7f807f" d="M8.83044 79.27847V82.11331M17.66089 79.27847V82.11331M26.49133 79.27847V82.11331M44.15224 79.27847V82.11331M52.98268 79.27847V82.11331M61.81314 79.27847V82.11331M79.47403 79.27847V82.11331M88.30449 79.27847V82.11331M97.13493 79.27847V82.11331M114.79584 79.27847V82.11331M123.62628 79.27847V82.11331M132.45673 79.27847V82.11331M150.11763 79.27847V82.11331M158.94808 79.27847V82.11331M167.77854 79.27847V82.11331M185.43943 79.27847V82.11331M194.26988 79.27847V82.11331"/>
<path transform="matrix(1.00003,0,0,-1.00006,17.639115,184.00925)" stroke-width=".19925" stroke-linecap="butt" stroke-miterlimit="10" stroke-linejoin="miter" fill="none" stroke="#7f807f" d="M35.3218 78.56996V82.82181M70.64359 78.56996V82.82181M105.96538 78.56996V82.82181M141.28719 78.56996V82.82181M176.60898 78.56996V82.82181"/>
<path transform="matrix(1.00003,0,0,-1.00006,17.639115,184.00925)" stroke-width=".19925" stroke-linecap="butt" stroke-miterlimit="10" stroke-linejoin="miter" fill="none" stroke="#7f807f" d="M-1.41745 0H1.41747M-1.41745 8.06958H1.41747M-1.41745 24.20876H1.41747M-1.41745 32.27835H1.41747M-1.41745 40.34795H1.41747M-1.41745 56.48712H1.41747M-1.41745 64.55672H1.41747M-1.41745 72.6263H1.41747M-1.41745 88.76549H1.41747M-1.41745 96.83507H1.41747M-1.41745 104.90466H1.41747M-1.41745 121.04384H1.41747M-1.41745 129.11344H1.41747M-1.41745 137.18303H1.41747M-1.41745 153.3222H1.41747M-1.41745 161.3918H1.41747"/>
<path transform="matrix(1.00003,0,0,-1.00006,17.639115,184.00925)" stroke-width=".19925" stroke-linecap="butt" stroke-miterlimit="10" stroke-linejoin="miter" fill="none" stroke="#7f807f" d="M-2.12599 16.13918H2.12599M-2.12599 48.41753H2.12599M-2.12599 112.97426H2.12599M-2.12599 145.25261H2.12599"/>
<path transform="matrix(1.00003,0,0,-1.00006,17.639115,184.00925)" stroke-width=".3985" stroke-linecap="butt" stroke-miterlimit="10" stroke-linejoin="miter" fill="none" stroke="#000000" d="M0 80.69589H192.27735"/>
<path transform="matrix(1.00003,0,0,-1.00006,209.92224,103.30852)" d="M1.99252 0-1.19551 1.59401 0 0-1.19551-1.59401"/>
<path transform="matrix(1.00003,0,0,-1.00006,17.639115,184.00925)" stroke-width=".3985" stroke-linecap="butt" stroke-miterlimit="10" stroke-linejoin="miter" fill="none" stroke="#000000" d="M0 0V159.39928"/>
<path transform="matrix(0,-1.00006,-1.00003,-0,17.639115,24.600419)" d="M1.99252 0-1.19551 1.59401 0 0-1.19551-1.59401"/>
<use data-text="1" xlink:href="#font_1_1" transform="matrix(8.966669,0,0,-8.966938,50.658105,114.73309)"/>
<use data-text="2" xlink:href="#font_1_2" transform="matrix(8.966669,0,0,-8.966938,85.98116,114.73309)"/>
<use data-text="3" xlink:href="#font_1_3" transform="matrix(8.966669,0,0,-8.966938,121.30423,114.73309)"/>
<use data-text="4" xlink:href="#font_1_4" transform="matrix(8.966669,0,0,-8.966938,156.6263,114.73309)"/>
<use data-text="5" xlink:href="#font_1_5" transform="matrix(8.966669,0,0,-8.966938,191.94934,114.73309)"/>
<use data-text="&#x2212;" xlink:href="#font_2_1" transform="matrix(8.966669,0,0,-8.966938,.21759033,170.34343)"/>
<use data-text="2" xlink:href="#font_1_2" transform="matrix(8.966669,0,0,-8.966938,7.384804,170.34343)"/>
<use data-text="&#x2212;" xlink:href="#font_2_1" transform="matrix(8.966669,0,0,-8.966938,.21759033,138.06349)"/>
<use data-text="1" xlink:href="#font_1_1" transform="matrix(8.966669,0,0,-8.966938,7.384804,138.06349)"/>
<use data-text="1" xlink:href="#font_1_1" transform="matrix(8.966669,0,0,-8.966938,7.384804,73.91765)"/>
<use data-text="2" xlink:href="#font_1_2" transform="matrix(8.966669,0,0,-8.966938,7.384804,41.63771)"/>
<g clip-path="url(#clip_3)">
<path transform="matrix(1.00003,0,0,-1.00006,17.639115,184.00925)" stroke-width=".79701" stroke-linecap="butt" stroke-miterlimit="10" stroke-linejoin="miter" fill="none" stroke="#000000" d="M0 80.69589 1.4717 83.3857 2.94344 86.07553 4.41513 88.76535 5.88686 91.45517 7.35857 94.14499 8.83029 96.83482 10.302 99.52463 11.77373 102.21445 13.24545 104.90427 14.71716 107.59409 16.18889 110.28392 17.6606 112.97374 19.13232 115.66354 20.60403 118.35336 22.07576 121.0432 23.54747 123.73302 25.0192 126.42284 26.4909 129.11264 27.96263 131.80249 29.43436 134.4923 30.90605 137.18212 32.37779 139.87194 33.84949 142.56175 35.32121 145.25157"/>
<path transform="matrix(1.00003,0,0,-1.00006,17.639115,184.00925)" stroke-width=".79701" stroke-linecap="butt" stroke-miterlimit="10" stroke-linejoin="miter" fill="none" stroke="#000000" d="M35.3218 145.25261H36.79349 38.26521 39.73692 41.20865 42.68037 44.15208 45.62381 47.09552 48.56725 50.03896 51.51068 52.98239 54.45412 55.92584 57.39755 58.86926 60.34099 61.8127 63.28441 64.75615 66.22786 67.69957 69.1713 70.643"/>
<path transform="matrix(1.00003,0,0,-1.00006,17.639115,184.00925)" stroke-width=".79701" stroke-linecap="butt" stroke-miterlimit="10" stroke-linejoin="miter" fill="none" stroke="#000000" d="M70.64359 145.25261C70.64359 145.25261 71.4169 145.11775 71.7139 144.95565 72.0109 144.79354 72.48723 144.40622 72.78423 144.08414 73.08122 143.76204 73.55753 143.1139 73.85454 142.63419 74.15154 142.15445 74.62785 141.25919 74.92487 140.62647 75.22186 139.99375 75.69818 138.85414 75.99518 138.07392 76.29219 137.29367 76.76851 135.92346 77.0655 135.00295 77.36252 134.08242 77.83882 132.49204 78.13582 131.43939 78.43282 130.38677 78.90915 128.59113 79.20615 127.41623 79.50314 126.24133 79.97948 124.25827 80.27647 122.9715 80.57347 121.68472 81.04979 119.52884 81.3468 118.14201 81.6438 116.75519 82.1201 114.45079 82.41711 112.97618 82.71411 111.50157 83.19043 109.06299 83.48743 107.51404 83.78444 105.96509 84.26074 103.42145 84.55774 101.8124 84.85475 100.20335 85.33107 97.5719 85.62807 95.91707 85.92506 94.26225 86.4014 91.57109 86.6984 89.88553 86.99539 88.19998 87.47173 85.4693 87.76872 83.7688 88.06572 82.06828 88.54204 79.32986 88.83904 77.62944 89.13603 75.92903 89.61235 73.1987 89.90936 71.51334 90.20636 69.82797 90.68268 67.13737 90.97968 65.48245 91.27669 63.82753 91.753 61.19516 92.05 59.58583 92.34702 57.9765 92.82332 55.43239 93.12032 53.88354 93.41731 52.33469 93.89365 49.8973 94.19064 48.42268 94.48764 46.94807 94.96396 44.64275 95.26096 43.25557 95.55795 41.86838 96.03429 39.71184 96.33128 38.42479 96.62828 37.13774 97.1046 35.15431 97.40161 33.97942 97.69861 32.8045 98.17493 31.00952 98.47194 29.9569 98.76894 28.90427 99.24524 27.31349 99.54224 26.39272 99.83925 25.47192 100.31557 24.10088 100.61256 23.32045 100.90958 22.54002 101.3859 21.4007 101.68289 20.76788 101.97989 20.13507 102.45622 19.23953 102.75322 18.75952 103.05022 18.27953 103.52654 17.63066 103.82353 17.30829 104.12053 16.98593 104.59685 16.59814 104.89386 16.43613 105.19086 16.27411 105.66716 16.1408 105.96417 16.14046 106.26117 16.1401 106.73749 16.27187 107.03448 16.43355 107.3315 16.59521 107.80782 16.98354 108.10481 17.30571 108.40182 17.62788 108.87814 18.27599 109.17514 18.75565 109.47214 19.2353 109.94846 20.13017 110.24545 20.76271 110.54245 21.39526 111.01878 22.53465 111.31578 23.31464 111.61278 24.09462 112.08911 25.46388 112.38611 26.38432 112.6831 27.30475 113.15942 28.89597 113.45644 29.9485 113.75343 31.00104 114.22974 32.79575 114.52675 33.97038 114.82375 35.145 115.30006 37.12761 115.59706 38.41446 115.89407 39.70132 116.37039 41.85825 116.66739 43.24524 116.9644 44.63225 117.4407 46.93683 117.7377 48.41107 118.0347 49.88531 118.51103 52.32195 118.80803 53.87064 119.10503 55.41933 119.58136 57.96387 119.87836 59.57292 120.17535 61.18198 120.65166 63.81268 120.94867 65.4676 121.24567 67.12251 121.72198 69.81488 122.019 71.50043 122.316 73.18597 122.79231 75.91547 123.08931 77.61588 123.38632 79.3163 123.86264 82.05527 124.15964 83.75587 124.45665 85.45647 124.93295 88.18716 125.22995 89.87263 125.52695 91.55809 126.00328 94.24878 126.30028 95.90352 126.59727 97.55824 127.07361 100.18968 127.3706 101.79883 127.6676 103.40797 128.14392 105.9521 128.44092 107.50113 128.73792 109.05017 129.21424 111.48859 129.51125 112.96327 129.80825 114.43797 130.28456 116.74248 130.58158 118.12975 130.87857 119.51701 131.35488 121.67459 131.65187 122.96182 131.94889 124.24904 132.4252 126.23212 132.7222 127.4072 133.01921 128.58228 133.49553 130.37819 133.79253 131.431 134.08953 132.48383 134.56586 134.0744 134.86286 134.9952 135.15985 135.91597 135.63617 137.28675 135.93317 138.06745 136.23017 138.84815 136.70648 139.98888 137.0035 140.62197 137.30049 141.25504 137.77681 142.15023 138.07382 142.63033 138.37082 143.11042 138.84712 143.75965 139.14412 144.08219 139.44113 144.40473 139.91745 144.7928 140.21445 144.955 140.51146 145.11722 140.98778 145.25089 141.28478 145.25133 141.58177 145.25177 142.05809 145.11972 142.35509 144.95824 142.65209 144.79674 143.12842 144.40929 143.42542 144.08737 143.72241 143.76546 144.19875 143.1177 144.49575 142.63806 144.79274 142.1584 145.26906 141.2628 145.56607 140.63034 145.86307 139.9979 146.33937 138.8597 146.63639 138.07971 146.93338 137.29973 147.4097 135.92891 147.7067 135.00875 148.00371 134.0886 148.48003 132.4999 148.77703 131.44779 149.07404 130.39569 149.55034 128.60045 149.84734 127.4259 150.14434 126.25137 150.62067 124.26907 150.91767 122.98248 151.21466 121.69589 151.691 119.53973 151.98799 118.15298 152.28499 116.76625 152.76129 114.46213 153.0583 112.9878 153.3553 111.51347 153.83162 109.0758 154.12863 107.52695 154.42563 105.97809 154.90195 103.4337 155.19895 101.82465 155.49596 100.2156 155.97228 97.58463 156.26927 95.92998 156.56629 94.27533 157.04259 91.58446 157.33959 89.8991 157.63658 88.21373 158.11292 85.4836 158.40991 83.78299 158.70691 82.0824 159.18325 79.34293 159.48024 77.64235 159.77724 75.94176 160.25357 73.21162 160.55057 71.52626 160.84757 69.8409 161.32387 67.15028 161.62088 65.49536 161.91788 63.84044 162.3942 61.20808 162.6912 59.59875 162.9882 57.98943 163.46451 55.44548 163.7615 53.89645 164.05852 52.34741 164.53484 49.90918 164.83184 48.43431 165.12883 46.95946 165.60517 44.6539 165.90216 43.26654 166.19916 41.87918 166.67549 39.72217 166.97249 38.43512 167.26949 37.14807 167.7458 35.16556 168.0428 33.99039 168.3398 32.81522 168.81612 31.01837 169.11313 29.96529 169.41013 28.9122 169.88645 27.32152 170.18346 26.40047 170.48046 25.4794 170.95677 24.1077 171.25377 23.3269 171.55078 22.54613 172.02709 21.40622 172.32408 20.77304 172.6211 20.13986 173.09741 19.24367 173.39441 18.7634 173.6914 18.28313 174.16773 17.63434 174.46472 17.31152 174.76172 16.98871 175.23805 16.59924 175.53505 16.43677 175.83205 16.27429 176.60538 16.14046 176.60538 16.14046"/>
</g>
<use data-text="t" xlink:href="#font_4_2" transform="matrix(9.962899,0,0,-9.963197,224.22632,106.37259)"/>
<use data-text="f" xlink:href="#font_4_1" transform="matrix(9.962899,0,0,-9.963197,8.990852,9.390778)"/>
<use data-text="(" xlink:href="#font_5_1" transform="matrix(9.962899,0,0,-9.963197,14.94104,9.390778)"/>
<use data-text="t" xlink:href="#font_4_2" transform="matrix(9.962899,0,0,-9.963197,18.81514,9.390778)"/>
<use data-text=")" xlink:href="#font_5_2" transform="matrix(9.962899,0,0,-9.963197,22.413254,9.390778)"/>
</svg>
