<svg xmlns="http://www.w3.org/2000/svg" xmlns:xlink="http://www.w3.org/1999/xlink" version="1.1" width="218" height="176" viewBox="0 0 218 176">
<defs>
<path id="font_1_1" d="M.6589966 .23046875C.6759949 .23046875 .69400027 .23046875 .69400027 .25045777 .69400027 .27046205 .6759949 .27046205 .6589966 .27046205H.117996219C.100997928 .27046205 .08299255 .27046205 .08299255 .25045777 .08299255 .23046875 .100997928 .23046875 .117996219 .23046875H.6589966Z"/>
<path id="font_2_2" d="M.1269989 .07699585 .23298645 .18003845C.3889923 .31811524 .44898988 .3721466 .44898988 .47216798 .44898988 .5860901 .35899354 .6660156 .23699951 .6660156 .12399292 .6660156 .049987794 .57411196 .049987794 .48516847 .049987794 .4291687 .099990848 .4291687 .102996829 .4291687 .11999512 .4291687 .15499878 .44117738 .15499878 .48217774 .15499878 .5081787 .13699341 .5341797 .101989749 .5341797 .09399414 .5341797 .09199524 .5341797 .08898926 .5331726 .11199951 .59806826 .1659851 .63500979 .22399903 .63500979 .31498719 .63500979 .35798646 .5541382 .35798646 .47216798 .35798646 .39215089 .30799867 .31311036 .25299073 .25108338L.06098938 .036987306C.049987794 .025985718 .049987794 .023986817 .049987794 0H.42099L.44898988 .17404175H.42399598C.4189911 .14402771 .4119873 .1000061 .4019928 .084991458 .394989 .07699585 .32899476 .07699585 .30699159 .07699585H.1269989Z"/>
<path id="font_2_1" d="M.2939911 .64004519C.2939911 .66400149 .2939911 .6660156 .2709961 .6660156 .20899964 .60227969 .12098694 .60227969 .08898926 .60227969V.57128909C.10899353 .57128909 .16799927 .57128909 .21998596 .5972748V.07902527C.21998596 .042999269 .21699524 .0309906 .1269989 .0309906H.09498596V0C.12998963 .0029907227 .21699524 .0029907227 .25698854 .0029907227 .29699708 .0029907227 .38398744 .0029907227 .4189911 0V.0309906H.3869934C.29699708 .0309906 .2939911 .041992189 .2939911 .07902527V.64004519Z"/>
<path id="font_2_3" d="M.2899933 .35191346C.37199403 .37893678 .42999269 .4490509 .42999269 .52809146 .42999269 .6100464 .34199525 .6660156 .24598694 .6660156 .14498902 .6660156 .068984989 .60606387 .068984989 .53009036 .068984989 .49710084 .09098816 .47808839 .11999512 .47808839 .15098572 .47808839 .17098999 .50009158 .17098999 .5290985 .17098999 .57910159 .12399292 .57910159 .10899353 .57910159 .13999939 .62802127 .20599365 .64100649 .24198914 .64100649 .2829895 .64100649 .33799745 .6190338 .33799745 .5290985 .33799745 .51708987 .33599855 .45906068 .30999757 .4149933 .27999879 .36691285 .24598694 .36390687 .22099304 .36291505 .21299744 .36190797 .18899536 .35990907 .18199158 .35990907 .17399597 .35890199 .16699219 .35791017 .16699219 .3479004 .16699219 .33691407 .17399597 .33691407 .19099427 .33691407H.23498535C.31698609 .33691407 .35398866 .2686615 .35398866 .17037964 .35398866 .034469606 .2849884 .0055389406 .24099732 .0055389406 .19799805 .0055389406 .12298584 .022491456 .08799744 .08137512 .12298584 .07637024 .1539917 .09837341 .1539917 .1363678 .1539917 .17237854 .1269989 .19238281 .09799194 .19238281 .07398987 .19238281 .041992189 .17837525 .041992189 .1343689 .041992189 .043441774 .1349945-.022460938 .24398804-.022460938 .3659973-.022460938 .45700074 .06838989 .45700074 .17037964 .45700074 .252594 .3939972 .33088685 .2899933 .35191346Z"/>
<path id="font_2_4" d="M.2939911 .16503906V.07800293C.2939911 .041992189 .2919922 .0309906 .21798706 .0309906H.19699097V0C.23799134 .0029907227 .2899933 .0029907227 .33198548 .0029907227 .37399293 .0029907227 .4269867 .0029907227 .46798707 0V.0309906H.44699098C.37298585 .0309906 .37098695 .041992189 .37098695 .07800293V.16503906H.47099305V.19602967H.37098695V.65075686C.37098695 .67074587 .37098695 .6767578 .35499574 .6767578 .34599305 .6767578 .34298707 .6767578 .33499146 .66474917L.027999878 .19602967V.16503906H.2939911M.2999878 .19602967H.055999757L.2999878 .5688019V.19602967Z"/>
<path id="font_2_5" d="M.44898988 .20022583C.44898988 .3193512 .36698915 .41944886 .25898744 .41944886 .21099854 .41944886 .16799927 .40345765 .13198853 .36842347V.5637665C.1519928 .5577698 .18499756 .55078127 .21699524 .55078127 .33999635 .55078127 .4099884 .6417694 .4099884 .6547699 .4099884 .6607666 .40699769 .6657715 .3999939 .6657715 .39898683 .6657715 .39698792 .6657715 .3919983 .66278079 .37199403 .6537781 .32299806 .6337738 .2559967 .6337738 .21598816 .6337738 .16999817 .6407776 .12298584 .6617737 .114990238 .66477969 .11299133 .66477969 .11099243 .66477969 .100997928 .66477969 .100997928 .6567688 .100997928 .6407776V.34439088C.100997928 .32637025 .100997928 .31835938 .114990238 .31835938 .12199402 .31835938 .12399292 .32136537 .12799073 .32736207 .13899231 .3433838 .17599488 .39746095 .25698854 .39746095 .30899049 .39746095 .33399964 .35139466 .34199525 .33337403 .35798646 .29632569 .3600006 .25727845 .3600006 .20722962 .3600006 .17222595 .3600006 .11222839 .33599855 .07035828 .31199647 .031463624 .2749939 .0055389406 .22898865 .0055389406 .1559906 .0055389406 .09899902 .058380128 .08198547 .11723328 .084991458 .1162262 .08799744 .115234378 .09899902 .115234378 .13198853 .115234378 .14898682 .14022827 .14898682 .16423035 .14898682 .18823242 .13198853 .21322632 .09899902 .21322632 .084991458 .21322632 .049987794 .20622254 .049987794 .16023255 .049987794 .07434082 .11898804-.022460938 .23098755-.022460938 .34700013-.022460938 .44898988 .073349 .44898988 .20022583Z"/>
<clipPath id="clip_3">
<path transform="matrix(1.00006,0,0,-1,6.873726,174.93901)" d="M0 0H194.26912V161.3994H0Z"/>
</clipPath>
<path id="font_4_1" d="M.33399964 .30233766C.33999635 .32835389 .36299134 .42037965 .43299867 .42037965 .43798829 .42037965 .46199037 .42037965 .48298646 .40734864 .45498658 .402359 .43499757 .37734986 .43499757 .35334779 .43499757 .33735658 .44599916 .31835938 .47299195 .31835938 .49499513 .31835938 .5269928 .3363495 .5269928 .37635804 .5269928 .42837525 .46798707 .4423828 .43399049 .4423828 .37599183 .4423828 .34098817 .38935853 .32899476 .36634828 .3039856 .43237306 .25 .4423828 .22099304 .4423828 .116989139 .4423828 .05999756 .3133545 .05999756 .28834535 .05999756 .27833558 .069992069 .27833558 .07199097 .27833558 .07998657 .27833558 .08299255 .28033448 .084991458 .28933717 .11898804 .39535523 .18499756 .42037965 .21899414 .42037965 .23799134 .42037965 .272995 .4113617 .272995 .35334779 .272995 .32235719 .2559967 .25532533 .21899414 .11528015 .20298767 .053268434 .16799927 .011245728 .12399292 .011245728 .117996219 .011245728 .09498596 .011245728 .07398987 .024276734 .09899902 .029266358 .12098694 .05027771 .12098694 .07827759 .12098694 .105270389 .09899902 .11328125 .083999637 .11328125 .053985597 .11328125 .0289917 .08728027 .0289917 .055267335 .0289917 .009246826 .07899475-.0107421879 .12298584-.0107421879 .18899536-.0107421879 .22499085 .059280397 .22799683 .0652771 .23999024 .028274537 .27598573-.0107421879 .33599855-.0107421879 .43899537-.0107421879 .49598695 .118270877 .49598695 .14328003 .49598695 .1532898 .4869995 .1532898 .48399354 .1532898 .47499085 .1532898 .47299195 .14929199 .47099305 .14228821 .43798829 .03527832 .36999513 .011245728 .33799745 .011245728 .29899598 .011245728 .2829895 .043273927 .2829895 .07727051 .2829895 .09927368 .2889862 .121276859 .2999878 .16529846L.33399964 .30233766Z"/>
<path id="font_4_2" d="M.48599244 .38136292C.48999024 .39537049 .48999024 .39736939 .48999024 .40437318 .48999024 .42237855 .47599793 .43138124 .46099855 .43138124 .45098878 .43138124 .43499757 .42536927 .42599488 .41036988 .42399598 .405365 .41600038 .37435914 .4119873 .35635377 .40499879 .33035279 .397995 .30334474 .3919983 .27633668L.34700013 .09628296C.34298707 .08126831 .2999878 .011245728 .23399353 .011245728 .18299866 .011245728 .17199707 .055267335 .17199707 .0922699 .17199707 .1382904 .18899536 .20030213 .22299195 .28833009 .23899842 .3293457 .24299622 .3403473 .24299622 .36035157 .24299622 .405365 .21099854 .4423828 .16099549 .4423828 .06599426 .4423828 .0289917 .29733277 .0289917 .28833009 .0289917 .27833558 .038986207 .27833558 .040985109 .27833558 .050994874 .27833558 .051986696 .28033448 .056991579 .29634095 .083999637 .3903656 .12399292 .42037965 .1579895 .42037965 .1659851 .42037965 .18299866 .42037965 .18299866 .3883667 .18299866 .36335755 .17298889 .3373413 .1659851 .31834413 .12599182 .21231079 .10798645 .1552887 .10798645 .10827637 .10798645 .019256592 .17098999-.0107421879 .22999573-.0107421879 .2689972-.0107421879 .30299378 .0062561037 .33099366 .03425598 .31799317-.017745972 .30599977-.06674194 .2659912-.11973572 .23999024-.15385437 .20199585-.18309021 .1559906-.18309021 .14199829-.18309021 .09700012-.18005371 .07998657-.14074707 .09599304-.14074707 .10899353-.14074707 .12298584-.1287384 .1329956-.11973572 .14299011-.10673523 .14299011-.08773804 .14299011-.056747438 .115997318-.052734376 .10598755-.052734376 .08299255-.052734376 .049987794-.068740848 .049987794-.11773682 .049987794-.16796875 .09399414-.20507813 .1559906-.20507813 .25898744-.20507813 .3619995-.11373901 .3899994-.00074768069L.48599244 .38136292Z"/>
</defs>
<path transform="matrix(1.00006,0,0,-1,6.873726,174.93901)" stroke-width=".19925" stroke-linecap="butt" stroke-miterlimit="10" stroke-linejoin="miter" fill="none" stroke="#929292" d="M0 78.57373V82.82565M24.28363 78.57373V82.82565M72.8509 78.57373V82.82565M97.13455 78.57373V82.82565M121.4182 78.57373V82.82565M145.70183 78.57373V82.82565M169.98548 78.57373V82.82565"/>
<path transform="matrix(1.00006,0,0,-1,6.873726,174.93901)" stroke-width=".19925" stroke-linecap="butt" stroke-miterlimit="10" stroke-linejoin="miter" fill="none" stroke="#929292" d="M46.44131 16.13994H50.6932M46.44131 32.27988H50.6932M46.44131 48.41982H50.6932M46.44131 64.55975H50.6932M46.44131 96.83963H50.6932M46.44131 112.97957H50.6932M46.44131 129.11952H50.6932M46.44131 145.25946H50.6932"/>
<path transform="matrix(1.00006,0,0,-1,6.873726,174.93901)" stroke-width=".3985" stroke-linecap="butt" stroke-miterlimit="10" stroke-linejoin="miter" fill="none" stroke="#000000" d="M0 80.69969H192.2766"/>
<path transform="matrix(1.00006,0,0,-1,199.16187,94.23932)" d="M1.99252 0-1.19551 1.59401 0 0-1.19551-1.59401"/>
<path transform="matrix(1.00006,0,0,-1,6.873726,174.93901)" stroke-width=".3985" stroke-linecap="butt" stroke-miterlimit="10" stroke-linejoin="miter" fill="none" stroke="#000000" d="M48.56728 0V159.40688"/>
<path transform="matrix(0,-1,-1.00006,-0,55.443918,15.532135)" d="M1.99252 0-1.19551 1.59401 0 0-1.19551-1.59401"/>
<use data-text="&#x2212;" xlink:href="#font_1_1" transform="matrix(10.909754,0,0,-10.9091,-.09669495,107.23101)"/>
<use data-text="2" xlink:href="#font_2_2" transform="matrix(10.909754,0,0,-10.9091,8.388817,107.23101)"/>
<use data-text="&#x2212;" xlink:href="#font_1_1" transform="matrix(10.909754,0,0,-10.9091,24.188767,107.23101)"/>
<use data-text="1" xlink:href="#font_2_1" transform="matrix(10.909754,0,0,-10.9091,32.67428,107.23101)"/>
<use data-text="1" xlink:href="#font_2_1" transform="matrix(10.909754,0,0,-10.9091,77.00193,107.23101)"/>
<use data-text="2" xlink:href="#font_2_2" transform="matrix(10.909754,0,0,-10.9091,101.286388,107.23101)"/>
<use data-text="3" xlink:href="#font_2_3" transform="matrix(10.909754,0,0,-10.9091,125.571849,107.23101)"/>
<use data-text="4" xlink:href="#font_2_4" transform="matrix(10.909754,0,0,-10.9091,149.8573,107.23101)"/>
<use data-text="5" xlink:href="#font_2_5" transform="matrix(10.909754,0,0,-10.9091,174.14176,107.23101)"/>
<use data-text="&#x2212;" xlink:href="#font_1_1" transform="matrix(10.909754,0,0,-10.9091,35.541444,161.86002)"/>
<use data-text="4" xlink:href="#font_2_4" transform="matrix(10.909754,0,0,-10.9091,44.026956,161.86002)"/>
<use data-text="&#x2212;" xlink:href="#font_1_1" transform="matrix(10.909754,0,0,-10.9091,35.541444,145.72002)"/>
<use data-text="3" xlink:href="#font_2_3" transform="matrix(10.909754,0,0,-10.9091,44.026956,145.72002)"/>
<use data-text="&#x2212;" xlink:href="#font_1_1" transform="matrix(10.909754,0,0,-10.9091,35.541444,129.58002)"/>
<use data-text="2" xlink:href="#font_2_2" transform="matrix(10.909754,0,0,-10.9091,44.026956,129.58002)"/>
<use data-text="&#x2212;" xlink:href="#font_1_1" transform="matrix(10.909754,0,0,-10.9091,35.541444,113.44001)"/>
<use data-text="1" xlink:href="#font_2_1" transform="matrix(10.909754,0,0,-10.9091,44.026956,113.44001)"/>
<use data-text="1" xlink:href="#font_2_1" transform="matrix(10.909754,0,0,-10.9091,44.026956,81.61501)"/>
<use data-text="2" xlink:href="#font_2_2" transform="matrix(10.909754,0,0,-10.9091,44.026956,65.47501)"/>
<use data-text="3" xlink:href="#font_2_3" transform="matrix(10.909754,0,0,-10.9091,44.026956,49.335016)"/>
<use data-text="4" xlink:href="#font_2_4" transform="matrix(10.909754,0,0,-10.9091,44.026956,33.195009)"/>
<g clip-path="url(#clip_3)">
<path transform="matrix(1.00006,0,0,-1,6.873726,174.93901)" stroke-width=".79701" stroke-linecap="butt" stroke-miterlimit="10" stroke-linejoin="miter" fill="none" stroke="#000000" d="M48.56728 145.25946C48.56728 145.25946 48.9217 145.2565 49.05783 145.25286 49.19394 145.2492 49.41226 145.2404 49.54839 145.23311 49.6845 145.22582 49.90282 145.21114 50.03893 145.20017 50.17505 145.18921 50.39337 145.16867 50.52948 145.15407 50.6656 145.13945 50.88391 145.11307 51.02003 145.09479 51.15616 145.07653 51.37447 145.04425 51.51059 145.02234 51.64671 145.00041 51.86502 144.96231 52.00114 144.93672 52.13725 144.91114 52.35558 144.86716 52.4917 144.83792 52.6278 144.80869 52.84613 144.75885 52.98225 144.72595 53.11836 144.69306 53.33669 144.63736 53.4728 144.60082 53.60892 144.56427 53.82724 144.5027 53.96335 144.4625 54.09947 144.42229 54.3178 144.35486 54.45392 144.311 54.59004 144.26715 54.80835 144.19387 54.94447 144.14635 55.0806 144.09885 55.2989 144.01969 55.43503 143.96852 55.57114 143.91735 55.78946 143.83232 55.92558 143.77751 56.06169 143.72269 56.28001 143.6318 56.41614 143.57334 56.55225 143.51485 56.77057 143.41812 56.90668 143.35599 57.0428 143.29386 57.26112 143.19126 57.39723 143.12546 57.53336 143.05966 57.75166 142.9512 57.88779 142.88176 58.02391 142.81232 58.24222 142.698 58.37834 142.6249 58.51447 142.55179 58.73277 142.4316 58.8689 142.35485 59.005 142.27809 59.22333 142.15206 59.35945 142.07163 59.49556 141.99121 59.71388 141.8593 59.85 141.77524 59.98611 141.69118 60.20444 141.55339 60.34055 141.46569 60.47667 141.37796 60.69499 141.23435 60.8311 141.14296 60.96722 141.05158 61.18555 140.90207 61.32167 140.80704 61.4578 140.712 61.6761 140.55667 61.81223 140.45798 61.94835 140.35929 62.16666 140.19805 62.30278 140.0957 62.43889 139.99337 62.65721 139.8263 62.79333 139.72029 62.92944 139.61429 63.14777 139.44135 63.28389 139.3317 63.42 139.22203 63.63832 139.04325 63.77443 138.92993 63.91055 138.81662 64.12888 138.63195 64.26498 138.51499 64.40111 138.39801 64.61942 138.20749 64.75554 138.08686 64.89166 137.96623 65.10997 137.76985 65.2461 137.64557 65.38222 137.5213 65.60052 137.31903 65.73665 137.19112 65.87276 137.06319 66.0911 136.85507 66.22722 136.72348 66.36333 136.5919 66.58165 136.37792 66.71777 136.24268 66.85388 136.10744 67.0722 135.88759 67.20831 135.74869 67.34444 135.60979 67.56276 135.38408 67.69887 135.24153 67.83499 135.09899 68.0533 134.86743 68.18942 134.72122 68.32555 134.575 68.54385 134.33759 68.67998 134.18772 68.8161 134.03786 69.03441 133.79457 69.17053 133.64104 69.30664 133.48752 69.52496 133.23838 69.66109 133.08119 69.7972 132.92403 70.01552 132.669 70.15164 132.5082 70.28775 132.34737 70.50607 132.08649 70.64218 131.922 70.7783 131.75753 70.99663 131.49079 71.13274 131.32263 71.26886 131.15448 71.48717 130.8819 71.62329 130.7101 71.75941 130.5383 71.97772 130.25984 72.11385 130.0844 72.24997 129.90895 72.46829 129.62462 72.60442 129.44551 72.74052 129.2664 72.95885 128.97626 73.09497 128.79349 73.23108 128.61074 73.4494 128.31467 73.58553 128.12824 73.72163 127.94182 73.93996 127.63992 74.07607 127.44986 74.21219 127.25978 74.43051 126.95201 74.56662 126.75829 74.70274 126.56454 74.92105 126.2509 75.05717 126.05351 75.1933 125.85614 75.4116 125.53665 75.54773 125.3356 75.68385 125.13457 75.90216 124.8092 76.03828 124.6045 76.1744 124.39983 76.39272 124.0686 76.52884 123.86026 76.66495 123.65192 76.88327 123.31482 77.0194 123.10281 77.1555 122.89081 77.37384 122.54787 77.50995 122.3322 77.64607 122.11653 77.8644 121.76773 78.0005 121.54842 78.13663 121.3291 78.35493 120.97441 78.49106 120.75145 78.62718 120.52849 78.84549 120.16795 78.98161 119.94131 79.11774 119.71469 79.33604 119.34831 79.47217 119.11803 79.60828 118.88774 79.8266 118.51547 79.96272 118.28154 80.09883 118.0476 80.31715 117.66956 80.45328 117.43196 80.58939 117.19437 80.80771 116.8104 80.94382 116.56914 81.07994 116.32788 81.29826 115.93803 81.43437 115.69313 81.5705 115.44823 81.7888 115.05255 81.92493 114.80399 82.06105 114.55542 82.27936 114.15384 82.41548 113.90163 82.5516 113.6494 82.76991 113.24197 82.90604 112.98611 83.04214 112.73026 83.26047 112.31697 83.39659 112.05743 83.5327 111.79791 83.75104 111.37877 83.88716 111.11559 84.02327 110.8524 84.2416 110.4274 84.3777 110.16055 84.51382 109.8937 84.73215 109.46283 84.86826 109.19234 85.00438 108.92184 85.22269 108.4851 85.35881 108.21095 85.49493 107.9368 85.71324 107.49422 85.84937 107.21642 85.98549 106.93861 86.2038 106.49014 86.33992 106.20868 86.47603 105.92722 86.69435 105.4729 86.83047 105.18779 86.96658 104.90268 87.1849 104.44254 87.32103 104.15378 87.45714 103.86502 87.67546 103.39897 87.81157 103.10654 87.9477 102.81412 88.16602 102.3422 88.30212 102.04611 88.43825 101.75005 88.65656 101.2723 88.79268 100.97255 88.9288 100.67282 89.14711 100.18918 89.28323 99.88579 89.41936 99.58241 89.63766 99.0929 89.77379 98.78586 89.9099 98.4788 90.12823 97.98344 90.26436 97.67274 90.40047 97.36205 90.61879 96.86082 90.75491 96.54646 90.89102 96.2321 91.10934 95.72502 91.24545 95.40701 91.38158 95.089 91.5999 94.57608 91.73601 94.2544 91.87213 93.93272 92.09044 93.4139 92.22656 93.08858 92.36269 92.76326 92.581 92.2386 92.71712 91.90964 92.85324 91.58066 93.07155 91.05011 93.20767 90.71748 93.34378 90.38484 93.5621 89.84845 93.69823 89.51216 93.83434 89.17587 94.05266 88.63368 94.18878 88.29375 94.32489 87.95383 94.54321 87.4057 94.67932 87.0621 94.81544 86.7185 95.03377 86.16452 95.16988 85.81726 95.306 85.47 95.52432 84.91016 95.66045 84.55925 95.79657 84.20834 96.01488 83.64264 96.151 83.28807 96.28712 82.9335 96.50543 82.36194 96.64156 82.00372 96.77768 81.64551 97.13211 80.70619 97.13211 80.70619"/>
<path transform="matrix(1.00006,0,0,-1,6.873726,174.93901)" stroke-width=".79701" stroke-linecap="butt" stroke-miterlimit="10" stroke-linejoin="miter" fill="none" stroke="#000000" d="M97.13455 64.55975C97.13455 64.55975 97.31177 64.91309 97.3798 65.04877 97.44785 65.18446 97.55702 65.40211 97.62508 65.53781 97.69313 65.6735 97.8023 65.89113 97.87035 66.02684 97.93839 66.16255 98.04755 66.38023 98.1156 66.51595 98.18364 66.65166 98.2928 66.86928 98.36087 67.00497 98.42892 67.14067 98.53807 67.3583 98.60614 67.49399 98.6742 67.62968 98.78336 67.84734 98.85141 67.98303 98.91945 68.11871 99.02861 68.33636 99.09666 68.47206 99.1647 68.60776 99.27386 68.8254 99.34192 68.96109 99.40999 69.09679 99.51913 69.31444 99.58719 69.45012 99.65526 69.58582 99.76442 69.80345 99.83246 69.93916 99.90051 70.07486 100.00967 70.29254 100.07771 70.42825 100.14577 70.56396 100.25493 70.78159 100.32298 70.91728 100.39105 71.05298 100.5002 71.27061 100.56825 71.40631 100.6363 71.542 100.74548 71.75966 100.81352 71.89534 100.88156 72.03104 100.99074 72.24869 101.05878 72.38438 101.12682 72.52007 101.236 72.7377 101.30405 72.87341 101.3721 73.00912 101.48126 73.22679 101.54932 73.3625 101.61737 73.49821 101.72653 73.71585 101.79459 73.85153 101.86263 73.98723 101.97179 74.20488 102.03984 74.34058 102.10788 74.47626 102.21704 74.69391 102.28511 74.8296 102.35316 74.9653 102.46231 75.18294 102.53038 75.31863 102.59843 75.45433 102.7076 75.67198 102.77565 75.80766 102.84369 75.94336 102.95285 76.16098 103.02089 76.29669 103.08894 76.43239 103.1981 76.65009 103.26616 76.7858 103.33423 76.92151 103.44337 77.13913 103.51143 77.27483 103.5795 77.41052 103.68866 77.62816 103.7567 77.76385 103.82475 77.89955 103.93391 78.1172 104.00195 78.25288 104.07 78.38858 104.17917 78.60623 104.24722 78.74193 104.31528 78.87761 104.42444 79.09525 104.4925 79.23094 104.56055 79.36664 104.66972 79.58427 104.73776 79.71997 104.8058 79.85567 104.91498 80.0733 104.98302 80.209 105.05106 80.34471 105.16023 80.56241 105.22829 80.69812 105.29634 80.83382 105.40549 81.05145 105.47356 81.18715 105.54161 81.32285 105.65077 81.54048 105.71883 81.67618 105.78687 81.81187 105.89603 82.02951 105.96408 82.16519 106.03212 82.30089 106.14128 82.51854 106.20935 82.65422 106.2774 82.78992 106.38655 83.00757 106.45462 83.14326 106.52267 83.27895 106.63184 83.49658 106.69987 83.6323 106.76793 83.768 106.87709 83.98569 106.94513 84.1214 107.01318 84.25711 107.12234 84.47473 107.1904 84.61041 107.25847 84.74611 107.36761 84.96376 107.43567 85.09946 107.50374 85.23514 107.6129 85.45279 107.68094 85.58849 107.74898 85.72418 107.85815 85.94182 107.9262 86.07751 107.99423 86.21321 108.10341 86.43086 108.17146 86.56654 108.23952 86.70224 108.34868 86.91988 108.41673 87.05559 108.48479 87.19128 108.59396 87.40897 108.662 87.54468 108.73004 87.68039 108.8392 87.89801 108.90726 88.0337 108.9753 88.1694 109.08446 88.38704 109.15253 88.52274 109.22058 88.65843 109.32973 88.87608 109.3978 89.01176 109.46585 89.14746 109.57501 89.36511 109.64307 89.50081 109.7111 89.63649 109.82027 89.85414 109.88832 89.98984 109.95636 90.12553 110.06552 90.34317 110.13358 90.47887 110.20164 90.61456 110.31079 90.83218 110.37885 90.96788 110.44691 91.10359 110.55608 91.32129 110.62411 91.457 110.69217 91.5927 110.80133 91.81033 110.86937 91.94603 110.93742 92.08173 111.04659 92.29936 111.11464 92.43506 111.18271 92.57076 111.29185 92.7884 111.35991 92.92409 111.42796 93.05978 111.53714 93.27742 111.60518 93.41312 111.67322 93.5488 111.7824 93.76645 111.85043 93.90215 111.91847 94.03784 112.02765 94.25546 112.0957 94.39117 112.16376 94.52689 112.27292 94.74457 112.34097 94.88028 112.40903 95.01599 112.51819 95.23363 112.58624 95.36931 112.65428 95.505 112.76344 95.72266 112.8315 95.85835 112.89954 95.99403 113.0087 96.21167 113.07677 96.34737 113.14482 96.48306 113.25397 96.7007 113.32204 96.8364 113.39009 96.97209 113.49925 97.18973 113.5673 97.32542 113.63535 97.46114 113.7445 97.67883 113.81255 97.81454 113.8806 97.95024 113.98976 98.16788 114.05782 98.30357 114.12589 98.43927 114.23503 98.6569 114.30309 98.7926 114.37115 98.9283 114.48032 99.14592 114.54836 99.28162 114.61641 99.41731 114.72557 99.63496 114.79361 99.77065 114.86166 99.90634 114.97083 100.124 115.03888 100.25969 115.10693 100.39537 115.2161 100.613 115.28415 100.74872 115.3522 100.88443 115.46138 101.10211 115.52942 101.23782 115.59746 101.37354 115.70663 101.59116 115.77467 101.72684 115.84271 101.86253 115.95189 102.08018 116.01994 102.21588 116.088 102.35156 116.19714 102.56921 116.26521 102.70491 116.33327 102.8406 116.44243 103.05824 116.51048 103.19394 116.57852 103.32964 116.68768 103.54729 116.75574 103.68297 116.82378 103.81866 116.93294 104.03632 117.001 104.17201 117.06906 104.3077 117.1782 104.52533 117.24626 104.66104 117.31433 104.79675 117.4235 105.01442 117.49153 105.15013 117.55959 105.28584 117.66875 105.50346 117.73679 105.63916 117.80484 105.77486 117.914 105.99251 117.98206 106.12819 118.05013 106.26389 118.15927 106.48154 118.22733 106.61723 118.2954 106.75291 118.40456 106.97057 118.4726 107.10626 118.54063 107.24196 118.64981 107.4596 118.71785 107.59529 118.78589 107.73099 118.89507 107.94861 118.96312 108.0843 119.03117 108.22002 119.14034 108.43771 119.20839 108.57343 119.27644 108.70912 119.38562 108.92676 119.45366 109.06245 119.5217 109.19815 119.63086 109.41579 119.69891 109.55148 119.76695 109.68718 119.87611 109.90483 119.94418 110.04051 120.01224 110.17621 120.12138 110.39384 120.18945 110.52954 120.2575 110.66522 120.36667 110.88287 120.43472 111.01857 120.50276 111.15427 120.61192 111.37189 120.67998 111.5076 120.74802 111.64331 120.85718 111.861 120.92523 111.9967 120.9933 112.13242 121.10245 112.35005 121.1705 112.48573 121.23857 112.62143 121.41577 112.97478 121.41577 112.97478"/>
<path transform="matrix(1.00006,0,0,-1,6.873726,174.93901)" stroke-width=".79701" stroke-linecap="butt" stroke-miterlimit="10" stroke-linejoin="miter" fill="none" stroke="#000000" d="M121.4182 112.97957C121.4182 112.97957 121.77263 112.6262 121.90875 112.4905 122.04486 112.35478 122.26318 112.13715 122.39929 112.00143 122.53542 111.86572 122.75374 111.64809 122.88985 111.51237 123.02597 111.37666 123.2443 111.159 123.3804 111.0233 123.51653 110.88759 123.73483 110.66994 123.87096 110.53423 124.00708 110.39853 124.22539 110.18091 124.36151 110.0452 124.49763 109.90948 124.71594 109.69185 124.85207 109.55614 124.98817 109.42043 125.2065 109.20277 125.34262 109.06708 125.47873 108.93137 125.69705 108.7137 125.83316 108.57799 125.96928 108.44229 126.1876 108.22464 126.32372 108.08893 126.45984 107.95322 126.67816 107.73558 126.81427 107.59987 126.9504 107.46416 127.1687 107.24652 127.30482 107.11081 127.44095 106.9751 127.65926 106.75743 127.79538 106.62173 127.9315 106.48602 128.14983 106.26837 128.28595 106.13266 128.42206 105.99696 128.64038 105.77931 128.7765 105.6436 128.91262 105.50789 129.13094 105.29024 129.26705 105.15453 129.40317 105.01881 129.62149 104.80116 129.7576 104.66547 129.89373 104.52975 130.11205 104.3121 130.24816 104.17639 130.38428 104.0407 130.60259 103.82304 130.73871 103.68733 130.87483 103.55162 131.09314 103.33397 131.22927 103.19826 131.36539 103.06255 131.5837 102.84494 131.71982 102.70923 131.85593 102.57352 132.07425 102.35587 132.21038 102.22017 132.34648 102.08446 132.5648 101.8668 132.70092 101.7311 132.83704 101.5954 133.05536 101.37775 133.19147 101.24203 133.32759 101.10632 133.54592 100.88867 133.68202 100.75296 133.81815 100.61725 134.03646 100.3996 134.17258 100.2639 134.3087 100.12819 134.52703 99.91054 134.66315 99.77483 134.79927 99.63913 135.01758 99.42148 135.1537 99.28577 135.28981 99.15005 135.50814 98.9324 135.64426 98.79669 135.78037 98.66098 135.99869 98.44334 136.1348 98.30763 136.27092 98.17192 136.48925 97.95427 136.62535 97.81857 136.76148 97.68286 136.9798 97.4652 137.1159 97.32948 137.25203 97.19379 137.47034 96.97614 137.60646 96.84042 137.74259 96.70471 137.96089 96.48708 138.09702 96.35136 138.23314 96.21565 138.45145 95.99803 138.58757 95.86234 138.72368 95.72662 138.942 95.50897 139.07813 95.37326 139.21424 95.23756 139.43257 95.0199 139.56868 94.88419 139.7048 94.74847 139.92313 94.53084 140.05924 94.39513 140.19536 94.25941 140.41368 94.04178 140.54979 93.90607 140.68592 93.77036 140.90422 93.5527 141.04035 93.417 141.17647 93.2813 141.39478 93.06363 141.5309 92.92792 141.66703 92.79222 141.88533 92.57457 142.02146 92.43886 142.15756 92.30315 142.37589 92.08551 142.51201 91.9498 142.64812 91.81409 142.86644 91.59644 143.00255 91.46074 143.13867 91.32503 143.357 91.10736 143.4931 90.97165 143.62923 90.83595 143.84755 90.6183 143.98366 90.48259 144.11978 90.34688 144.33809 90.12924 144.47422 89.99353 144.61034 89.85782 144.82865 89.64017 144.96477 89.50446 145.10089 89.36874 145.3192 89.1511 145.45532 89.0154 145.59143 88.87968 145.80977 88.66206 145.94589 88.52635 146.082 88.39066 146.30033 88.173 146.43643 88.0373 146.57256 87.90158 146.79088 87.68394 146.92699 87.54823 147.06311 87.41252 147.28144 87.19485 147.41754 87.05916 147.55367 86.92345 147.77198 86.7058 147.9081 86.57008 148.04422 86.43439 148.26253 86.21674 148.39865 86.08102 148.53478 85.94531 148.75308 85.72768 148.8892 85.59196 149.02532 85.45625 149.24364 85.2386 149.37976 85.10289 149.51587 84.96718 149.73419 84.74953 149.8703 84.61383 150.00643 84.47812 150.22476 84.26047 150.36087 84.12476 150.497 83.98906 150.71532 83.7714 150.85143 83.63568 150.98755 83.49997 151.20586 83.28233 151.34198 83.14662 151.4781 83.01091 151.69641 82.79326 151.83254 82.65756 151.96866 82.52185 152.18697 82.3042 152.32309 82.16849 152.4592 82.03279 152.67752 81.81517 152.81365 81.67946 152.94976 81.54375 153.16808 81.32611 153.30419 81.1904 153.4403 81.05469 153.65863 80.83704 153.79474 80.70132 153.93087 80.56561 154.14919 80.34796 154.2853 80.21227 154.42142 80.07655 154.63973 79.8589 154.77585 79.72319 154.91197 79.5875 155.13028 79.36983 155.2664 79.23412 155.40253 79.0984 155.62084 78.88077 155.75696 78.74506 155.89307 78.60934 156.11139 78.3917 156.24752 78.256 156.38362 78.12029 156.60196 77.90263 156.73807 77.76692 156.87419 77.63123 157.09252 77.41356 157.22863 77.27785 157.36475 77.14214 157.58307 76.9245 157.71918 76.78879 157.8553 76.65308 158.07361 76.43544 158.20973 76.29973 158.34586 76.16402 158.56417 75.94635 158.70029 75.81065 158.83641 75.67494 159.05472 75.45729 159.19084 75.32158 159.32695 75.18588 159.54528 74.96823 159.6814 74.83252 159.8175 74.69681 160.03583 74.47917 160.17194 74.34346 160.30806 74.20775 160.52639 73.99013 160.66249 73.85443 160.79862 73.71872 161.01694 73.50105 161.15305 73.36534 161.28917 73.22964 161.50748 73.012 161.6436 72.87628 161.77973 72.74057 161.99803 72.52293 162.13416 72.38722 162.27028 72.25151 162.48859 72.03387 162.62471 71.89816 162.76082 71.76245 162.97916 71.54478 163.11528 71.40909 163.25139 71.27338 163.46971 71.05573 163.60582 70.92001 163.74195 70.78432 163.96027 70.56667 164.09638 70.43095 164.2325 70.29524 164.45082 70.0776 164.58693 69.9419 164.72306 69.80618 164.94136 69.58852 165.07749 69.45282 165.21361 69.31711 165.43192 69.09946 165.56804 68.96375 165.70417 68.82805 165.92247 68.6104 166.0586 68.47469 166.1947 68.33897 166.41303 68.12132 166.54915 67.98561 166.68526 67.8499 166.90358 67.63226 167.03969 67.49655 167.17581 67.36084 167.39414 67.14322 167.53025 67.00752 167.66637 66.87181 167.88469 66.65416 168.0208 66.51845 168.15692 66.38275 168.37525 66.1651 168.51137 66.02939 168.64749 65.89368 168.8658 65.67603 169.00193 65.54031 169.13805 65.4046 169.35636 65.18695 169.49248 65.05125 169.62859 64.91554 169.98303 64.56218 169.98303 64.56218"/>
</g>
<use data-text="x" xlink:href="#font_4_1" transform="matrix(10.909754,0,0,-10.9091,210.51294,96.58801)"/>
<use data-text="y" xlink:href="#font_4_2" transform="matrix(10.909754,0,0,-10.9091,52.573465,5.931015)"/>
<path transform="matrix(1.00006,0,0,-1,6.874733,174.939)" d="M51.40213 145.25946C51.40213 146.8251 50.13292 148.0943 48.56728 148.0943 47.00162 148.0943 45.73242 146.8251 45.73242 145.25946 45.73242 143.6938 47.00162 142.4246 48.56728 142.4246 50.13292 142.4246 51.40213 143.6938 51.40213 145.25946ZM48.56728 145.25946"/>
<path transform="matrix(1.00006,0,0,-1,6.874733,174.939)" d="M99.9694 80.69969C99.9694 82.26535 98.70021 83.53455 97.13455 83.53455 95.56891 83.53455 94.2997 82.26535 94.2997 80.69969 94.2997 79.13405 95.56891 77.86484 97.13455 77.86484 98.70021 77.86484 99.9694 79.13405 99.9694 80.69969ZM97.13455 80.69969"/>
<path transform="matrix(1.00006,0,0,-1,6.874733,174.939)" d="M99.9694 64.55975C99.9694 66.12541 98.70021 67.3946 97.13455 67.3946 95.56891 67.3946 94.2997 66.12541 94.2997 64.55975 94.2997 62.9941 95.56891 61.7249 97.13455 61.7249 98.70021 61.7249 99.9694 62.9941 99.9694 64.55975ZM97.13455 64.55975" fill="#ffffff"/>
<path transform="matrix(1.00006,0,0,-1,6.874733,174.939)" stroke-width=".3985" stroke-linecap="butt" stroke-miterlimit="10" stroke-linejoin="miter" fill="none" stroke="#000000" d="M99.9694 64.55975C99.9694 66.12541 98.70021 67.3946 97.13455 67.3946 95.56891 67.3946 94.2997 66.12541 94.2997 64.55975 94.2997 62.9941 95.56891 61.7249 97.13455 61.7249 98.70021 61.7249 99.9694 62.9941 99.9694 64.55975ZM97.13455 64.55975"/>
<path transform="matrix(1.00006,0,0,-1,6.874733,174.939)" d="M124.25304 112.97957C124.25304 114.54523 122.98384 115.81442 121.4182 115.81442 119.85254 115.81442 118.58334 114.54523 118.58334 112.97957 118.58334 111.41393 119.85254 110.14473 121.4182 110.14473 122.98384 110.14473 124.25304 111.41393 124.25304 112.97957ZM121.4182 112.97957"/>
<path transform="matrix(1.00006,0,0,-1,6.874733,174.939)" d="M172.82033 64.55975C172.82033 66.12541 171.55113 67.3946 169.98548 67.3946 168.41982 67.3946 167.15062 66.12541 167.15062 64.55975 167.15062 62.9941 168.41982 61.7249 169.98548 61.7249 171.55113 61.7249 172.82033 62.9941 172.82033 64.55975ZM169.98548 64.55975"/>
</svg>
