<svg xmlns="http://www.w3.org/2000/svg" xmlns:xlink="http://www.w3.org/1999/xlink" version="1.1" width="223" height="198" viewBox="0 0 223 198">
<defs>
<path id="font_1_3" d="M.2939911 .64004519C.2939911 .66400149 .2939911 .6660156 .2709961 .6660156 .20899964 .60227969 .12098694 .60227969 .08898926 .60227969V.57128909C.10899353 .57128909 .16799927 .57128909 .21998596 .5972748V.07902527C.21998596 .042999269 .21699524 .0309906 .1269989 .0309906H.09498596V0C.12998963 .0029907227 .21699524 .0029907227 .25698854 .0029907227 .29699708 .0029907227 .38398744 .0029907227 .4189911 0V.0309906H.3869934C.29699708 .0309906 .2939911 .041992189 .2939911 .07902527V.64004519Z"/>
<path id="font_1_4" d="M.1269989 .07699585 .23298645 .18003845C.3889923 .31811524 .44898988 .3721466 .44898988 .47216798 .44898988 .5860901 .35899354 .6660156 .23699951 .6660156 .12399292 .6660156 .049987794 .57411196 .049987794 .48516847 .049987794 .4291687 .099990848 .4291687 .102996829 .4291687 .11999512 .4291687 .15499878 .44117738 .15499878 .48217774 .15499878 .5081787 .13699341 .5341797 .101989749 .5341797 .09399414 .5341797 .09199524 .5341797 .08898926 .5331726 .11199951 .59806826 .1659851 .63500979 .22399903 .63500979 .31498719 .63500979 .35798646 .5541382 .35798646 .47216798 .35798646 .39215089 .30799867 .31311036 .25299073 .25108338L.06098938 .036987306C.049987794 .025985718 .049987794 .023986817 .049987794 0H.42099L.44898988 .17404175H.42399598C.4189911 .14402771 .4119873 .1000061 .4019928 .084991458 .394989 .07699585 .32899476 .07699585 .30699159 .07699585H.1269989Z"/>
<path id="font_1_5" d="M.2899933 .35191346C.37199403 .37893678 .42999269 .4490509 .42999269 .52809146 .42999269 .6100464 .34199525 .6660156 .24598694 .6660156 .14498902 .6660156 .068984989 .60606387 .068984989 .53009036 .068984989 .49710084 .09098816 .47808839 .11999512 .47808839 .15098572 .47808839 .17098999 .50009158 .17098999 .5290985 .17098999 .57910159 .12399292 .57910159 .10899353 .57910159 .13999939 .62802127 .20599365 .64100649 .24198914 .64100649 .2829895 .64100649 .33799745 .6190338 .33799745 .5290985 .33799745 .51708987 .33599855 .45906068 .30999757 .4149933 .27999879 .36691285 .24598694 .36390687 .22099304 .36291505 .21299744 .36190797 .18899536 .35990907 .18199158 .35990907 .17399597 .35890199 .16699219 .35791017 .16699219 .3479004 .16699219 .33691407 .17399597 .33691407 .19099427 .33691407H.23498535C.31698609 .33691407 .35398866 .2686615 .35398866 .17037964 .35398866 .034469606 .2849884 .0055389406 .24099732 .0055389406 .19799805 .0055389406 .12298584 .022491456 .08799744 .08137512 .12298584 .07637024 .1539917 .09837341 .1539917 .1363678 .1539917 .17237854 .1269989 .19238281 .09799194 .19238281 .07398987 .19238281 .041992189 .17837525 .041992189 .1343689 .041992189 .043441774 .1349945-.022460938 .24398804-.022460938 .3659973-.022460938 .45700074 .06838989 .45700074 .17037964 .45700074 .252594 .3939972 .33088685 .2899933 .35191346Z"/>
<path id="font_1_6" d="M.2939911 .16503906V.07800293C.2939911 .041992189 .2919922 .0309906 .21798706 .0309906H.19699097V0C.23799134 .0029907227 .2899933 .0029907227 .33198548 .0029907227 .37399293 .0029907227 .4269867 .0029907227 .46798707 0V.0309906H.44699098C.37298585 .0309906 .37098695 .041992189 .37098695 .07800293V.16503906H.47099305V.19602967H.37098695V.65075686C.37098695 .67074587 .37098695 .6767578 .35499574 .6767578 .34599305 .6767578 .34298707 .6767578 .33499146 .66474917L.027999878 .19602967V.16503906H.2939911M.2999878 .19602967H.055999757L.2999878 .5688019V.19602967Z"/>
<path id="font_1_7" d="M.44898988 .20022583C.44898988 .3193512 .36698915 .41944886 .25898744 .41944886 .21099854 .41944886 .16799927 .40345765 .13198853 .36842347V.5637665C.1519928 .5577698 .18499756 .55078127 .21699524 .55078127 .33999635 .55078127 .4099884 .6417694 .4099884 .6547699 .4099884 .6607666 .40699769 .6657715 .3999939 .6657715 .39898683 .6657715 .39698792 .6657715 .3919983 .66278079 .37199403 .6537781 .32299806 .6337738 .2559967 .6337738 .21598816 .6337738 .16999817 .6407776 .12298584 .6617737 .114990238 .66477969 .11299133 .66477969 .11099243 .66477969 .100997928 .66477969 .100997928 .6567688 .100997928 .6407776V.34439088C.100997928 .32637025 .100997928 .31835938 .114990238 .31835938 .12199402 .31835938 .12399292 .32136537 .12799073 .32736207 .13899231 .3433838 .17599488 .39746095 .25698854 .39746095 .30899049 .39746095 .33399964 .35139466 .34199525 .33337403 .35798646 .29632569 .3600006 .25727845 .3600006 .20722962 .3600006 .17222595 .3600006 .11222839 .33599855 .07035828 .31199647 .031463624 .2749939 .0055389406 .22898865 .0055389406 .1559906 .0055389406 .09899902 .058380128 .08198547 .11723328 .084991458 .1162262 .08799744 .115234378 .09899902 .115234378 .13198853 .115234378 .14898682 .14022827 .14898682 .16423035 .14898682 .18823242 .13198853 .21322632 .09899902 .21322632 .084991458 .21322632 .049987794 .20622254 .049987794 .16023255 .049987794 .07434082 .11898804-.022460938 .23098755-.022460938 .34700013-.022460938 .44898988 .073349 .44898988 .20022583Z"/>
<clipPath id="clip_2">
<path transform="matrix(1.00002,0,0,-1,11.846664,184.001)" d="M0 0H194.26988V161.39408H0Z"/>
</clipPath>
<path id="font_3_2" d="M.33399964 .30233766C.33999635 .32835389 .36299134 .42037965 .43299867 .42037965 .43798829 .42037965 .46199037 .42037965 .48298646 .40734864 .45498658 .402359 .43499757 .37734986 .43499757 .35334779 .43499757 .33735658 .44599916 .31835938 .47299195 .31835938 .49499513 .31835938 .5269928 .3363495 .5269928 .37635804 .5269928 .42837525 .46798707 .4423828 .43399049 .4423828 .37599183 .4423828 .34098817 .38935853 .32899476 .36634828 .3039856 .43237306 .25 .4423828 .22099304 .4423828 .116989139 .4423828 .05999756 .3133545 .05999756 .28834535 .05999756 .27833558 .069992069 .27833558 .07199097 .27833558 .07998657 .27833558 .08299255 .28033448 .084991458 .28933717 .11898804 .39535523 .18499756 .42037965 .21899414 .42037965 .23799134 .42037965 .272995 .4113617 .272995 .35334779 .272995 .32235719 .2559967 .25532533 .21899414 .11528015 .20298767 .053268434 .16799927 .011245728 .12399292 .011245728 .117996219 .011245728 .09498596 .011245728 .07398987 .024276734 .09899902 .029266358 .12098694 .05027771 .12098694 .07827759 .12098694 .105270389 .09899902 .11328125 .083999637 .11328125 .053985597 .11328125 .0289917 .08728027 .0289917 .055267335 .0289917 .009246826 .07899475-.0107421879 .12298584-.0107421879 .18899536-.0107421879 .22499085 .059280397 .22799683 .0652771 .23999024 .028274537 .27598573-.0107421879 .33599855-.0107421879 .43899537-.0107421879 .49598695 .118270877 .49598695 .14328003 .49598695 .1532898 .4869995 .1532898 .48399354 .1532898 .47499085 .1532898 .47299195 .14929199 .47099305 .14228821 .43798829 .03527832 .36999513 .011245728 .33799745 .011245728 .29899598 .011245728 .2829895 .043273927 .2829895 .07727051 .2829895 .09927368 .2889862 .121276859 .2999878 .16529846L.33399964 .30233766Z"/>
<path id="font_3_1" d="M.36698915 .3996582H.45298768C.47299195 .3996582 .48298646 .3996582 .48298646 .41966249 .48298646 .43066407 .47299195 .43066407 .45599366 .43066407H.37298585L.3939972 .5449524C.397995 .5660095 .4119873 .6370239 .41799928 .6490326 .4269867 .66804507 .44400025 .68307498 .46499635 .68307498 .46899415 .68307498 .49499513 .68307498 .5139923 .66503909 .46998597 .661026 .45999146 .6260376 .45999146 .6110382 .45999146 .58802798 .47799684 .57603457 .49699403 .57603457 .522995 .57603457 .5519867 .5980377 .5519867 .6360321 .5519867 .6820679 .5059967 .7050781 .46499635 .7050781 .43099977 .7050781 .36799623 .68707278 .33799745 .58802798 .33198548 .56700137 .32899476 .5569763 .30499269 .43066407H.23599243C.21699524 .43066407 .20599365 .43066407 .20599365 .4116516 .20599365 .3996582 .21499634 .3996582 .23399353 .3996582H.2999878L.22499085 .0048828127C.20698548-.09207153 .18998719-.18309021 .13798523-.18309021 .13398743-.18309021 .10899353-.18309021 .08999634-.16506958 .13598633-.1620636 .14498902-.12606812 .14498902-.111068729 .14498902-.08807373 .1269989-.07606506 .10798645-.07606506 .08198547-.07606506 .052993776-.09806824 .052993776-.13606262 .052993776-.18109131 .09700012-.20507813 .13798523-.20507813 .19299317-.20507813 .23298645-.14607239 .25099183-.108062747 .2829895-.04508972 .30599977 .07583618 .30699159 .082839969L.36698915 .3996582Z"/>
<path id="font_1_1" d="M.33099366-.2400055C.33099366-.23701477 .33099366-.23500061 .31399537-.21800232 .18899536-.0920105 .15699768 .09700012 .15699768 .25 .15699768 .42399598 .19499207 .59799197 .31799317 .72299197 .33099366 .73498538 .33099366 .7369995 .33099366 .73999026 .33099366 .746994 .32699586 .75 .32099916 .75 .31098939 .75 .22099304 .6819916 .1619873 .5549927 .11099243 .44499208 .09899902 .33399964 .09899902 .25 .09899902 .17199707 .10998535 .050994874 .16499329-.06201172 .22499085-.18501282 .31098939-.25 .32099916-.25 .32699586-.25 .33099366-.24700928 .33099366-.2400055Z"/>
<path id="font_1_2" d="M.2889862 .25C.2889862 .32798768 .27799989 .44898988 .22299195 .56199648 .16299439 .68499758 .07699585 .75 .066986087 .75 .06098938 .75 .056991579 .74598696 .056991579 .73999026 .056991579 .7369995 .056991579 .73498538 .07598877 .71699526 .17399597 .6179962 .23098755 .45899964 .23098755 .25 .23098755 .07899475 .19400025-.09700012 .069992069-.2230072 .056991579-.23500061 .056991579-.23701477 .056991579-.2400055 .056991579-.2460022 .06098938-.25 .066986087-.25 .07699585-.25 .16699219-.18200684 .22599793-.055007936 .2769928 .054992677 .2889862 .16600037 .2889862 .25Z"/>
</defs>
<path transform="matrix(1.00002,0,0,-1,11.846664,184.001)" stroke-width=".09962" stroke-linecap="butt" stroke-miterlimit="10" stroke-linejoin="miter" fill="none" stroke="#d0d0d0" d="M8.83044 0V161.39408M17.66089 0V161.39408M26.49133 0V161.39408M44.15224 0V161.39408M52.98268 0V161.39408M61.81314 0V161.39408M79.47403 0V161.39408M88.30449 0V161.39408M97.13493 0V161.39408M114.79584 0V161.39408M123.62628 0V161.39408M132.45673 0V161.39408M150.11763 0V161.39408M158.94808 0V161.39408M167.77854 0V161.39408M185.43943 0V161.39408M194.26988 0V161.39408"/>
<path transform="matrix(1.00002,0,0,-1,11.846664,184.001)" stroke-width=".19925" stroke-linecap="butt" stroke-miterlimit="10" stroke-linejoin="miter" fill="none" stroke="#c0c0c0" d="M35.3218 0V161.39408M70.64359 0V161.39408M105.96538 0V161.39408M141.28719 0V161.39408M176.60898 0V161.39408"/>
<path transform="matrix(1.00002,0,0,-1,11.846664,184.001)" stroke-width=".09962" stroke-linecap="butt" stroke-miterlimit="10" stroke-linejoin="miter" fill="none" stroke="#d0d0d0" d="M0 7.33609H194.26988M0 14.67218H194.26988M0 22.00827H194.26988M0 36.68047H194.26988M0 44.01656H194.26988M0 51.35266H194.26988M0 66.02484H194.26988M0 73.36095H194.26988M0 80.69704H194.26988M0 95.36922H194.26988M0 102.70532H194.26988M0 110.04141H194.26988M0 124.71361H194.26988M0 132.0497H194.26988M0 139.38579H194.26988M0 154.05799H194.26988M0 161.39408H194.26988"/>
<path transform="matrix(1.00002,0,0,-1,11.846664,184.001)" stroke-width=".19925" stroke-linecap="butt" stroke-miterlimit="10" stroke-linejoin="miter" fill="none" stroke="#c0c0c0" d="M0 29.34438H194.26988M0 58.68875H194.26988M0 88.03313H194.26988M0 117.3775H194.26988M0 146.7219H194.26988"/>
<path transform="matrix(1.00002,0,0,-1,11.846664,184.001)" stroke-width=".19925" stroke-linecap="butt" stroke-miterlimit="10" stroke-linejoin="miter" fill="none" stroke="#929292" d="M8.83044-1.41742V1.41743M17.66089-1.41742V1.41743M26.49133-1.41742V1.41743M44.15224-1.41742V1.41743M52.98268-1.41742V1.41743M61.81314-1.41742V1.41743M79.47403-1.41742V1.41743M88.30449-1.41742V1.41743M97.13493-1.41742V1.41743M114.79584-1.41742V1.41743M123.62628-1.41742V1.41743M132.45673-1.41742V1.41743M150.11763-1.41742V1.41743M158.94808-1.41742V1.41743M167.77854-1.41742V1.41743M185.43943-1.41742V1.41743M194.26988-1.41742V1.41743"/>
<path transform="matrix(1.00002,0,0,-1,11.846664,184.001)" stroke-width=".19925" stroke-linecap="butt" stroke-miterlimit="10" stroke-linejoin="miter" fill="none" stroke="#929292" d="M35.3218-2.12595V2.12595M70.64359-2.12595V2.12595M105.96538-2.12595V2.12595M141.28719-2.12595V2.12595M176.60898-2.12595V2.12595"/>
<path transform="matrix(1.00002,0,0,-1,11.846664,184.001)" stroke-width=".19925" stroke-linecap="butt" stroke-miterlimit="10" stroke-linejoin="miter" fill="none" stroke="#929292" d="M-1.41745 7.33609H1.41747M-1.41745 14.67218H1.41747M-1.41745 22.00827H1.41747M-1.41745 36.68047H1.41747M-1.41745 44.01656H1.41747M-1.41745 51.35266H1.41747M-1.41745 66.02484H1.41747M-1.41745 73.36095H1.41747M-1.41745 80.69704H1.41747M-1.41745 95.36922H1.41747M-1.41745 102.70532H1.41747M-1.41745 110.04141H1.41747M-1.41745 124.71361H1.41747M-1.41745 132.0497H1.41747M-1.41745 139.38579H1.41747M-1.41745 154.05799H1.41747M-1.41745 161.39408H1.41747"/>
<path transform="matrix(1.00002,0,0,-1,11.846664,184.001)" stroke-width=".19925" stroke-linecap="butt" stroke-miterlimit="10" stroke-linejoin="miter" fill="none" stroke="#929292" d="M-2.12599 29.34438H2.12599M-2.12599 58.68875H2.12599M-2.12599 88.03313H2.12599M-2.12599 117.3775H2.12599M-2.12599 146.7219H2.12599"/>
<path transform="matrix(1.00002,0,0,-1,11.846664,184.001)" stroke-width=".3985" stroke-linecap="butt" stroke-miterlimit="10" stroke-linejoin="miter" fill="none" stroke="#000000" d="M0 0H192.27735"/>
<path transform="matrix(1.00002,0,0,-1,204.12786,184.001)" d="M1.99252 0-1.19551 1.59401 0 0-1.19551-1.59401"/>
<path transform="matrix(1.00002,0,0,-1,11.846664,184.001)" stroke-width=".3985" stroke-linecap="butt" stroke-miterlimit="10" stroke-linejoin="miter" fill="none" stroke="#000000" d="M0 0V159.40155"/>
<path transform="matrix(0,-1,-1.00002,-0,11.846664,24.599457)" d="M1.99252 0-1.19551 1.59401 0 0-1.19551-1.59401"/>
<use data-text="1" xlink:href="#font_1_3" transform="matrix(9.962799,0,0,-9.9626,44.67832,196.38301)"/>
<use data-text="2" xlink:href="#font_1_4" transform="matrix(9.962799,0,0,-9.9626,80.00103,196.38301)"/>
<use data-text="3" xlink:href="#font_1_5" transform="matrix(9.962799,0,0,-9.9626,115.32374,196.38301)"/>
<use data-text="4" xlink:href="#font_1_6" transform="matrix(9.962799,0,0,-9.9626,150.64644,196.38301)"/>
<use data-text="5" xlink:href="#font_1_7" transform="matrix(9.962799,0,0,-9.9626,185.96816,196.38301)"/>
<use data-text="1" xlink:href="#font_1_3" transform="matrix(9.962799,0,0,-9.9626,.9034424,157.867)"/>
<use data-text="2" xlink:href="#font_1_4" transform="matrix(9.962799,0,0,-9.9626,.9034424,128.522)"/>
<use data-text="3" xlink:href="#font_1_5" transform="matrix(9.962799,0,0,-9.9626,.9034424,99.17801)"/>
<use data-text="4" xlink:href="#font_1_6" transform="matrix(9.962799,0,0,-9.9626,.9034424,69.83401)"/>
<use data-text="5" xlink:href="#font_1_7" transform="matrix(9.962799,0,0,-9.9626,.9034424,40.489015)"/>
<g clip-path="url(#clip_2)">
<path transform="matrix(1.00002,0,0,-1,11.846664,184.001)" stroke-width=".79701" stroke-linecap="butt" stroke-miterlimit="10" stroke-linejoin="miter" fill="none" stroke="#000000" d="M0 29.34438H1.4717 2.94344 4.41513 5.88686 7.35857 8.83029 10.302 11.77373 13.24545 14.71716 16.18889 17.6606 19.13232 20.60403 22.07576 23.54747 25.0192 26.4909 27.96263 29.43436 30.90605 32.37779 33.84949 35.32121"/>
<path transform="matrix(1.00002,0,0,-1,11.846664,184.001)" stroke-width=".79701" stroke-linecap="butt" stroke-miterlimit="10" stroke-linejoin="miter" fill="none" stroke="#000000" d="M35.3218 29.34438 38.26526 34.23506 41.20872 39.12576 44.15219 44.01646 47.09566 48.90717 50.03912 53.79796 52.9826 58.68866 55.92609 63.57935 58.86955 68.47005 61.81302 73.36076 64.7565 78.25145 67.69997 83.14215 70.64343 88.03285 73.5869 92.92355 76.53036 97.81425 79.47385 102.70505 82.41733 107.59575 85.3608 112.48643 88.30426 117.37714 91.24773 122.26785 94.19121 127.15854 97.13467 132.04924 100.07814 136.93994 103.0216 141.83072 105.96507 146.72144"/>
<path transform="matrix(1.00002,0,0,-1,11.846664,184.001)" stroke-width=".79701" stroke-linecap="butt" stroke-miterlimit="10" stroke-linejoin="miter" fill="none" stroke="#000000" d="M105.96538 146.7219 108.90884 140.60854 111.85233 134.49514 114.79579 128.38179 117.73926 122.2684 120.68272 116.1549 123.6262 110.04155 126.56967 103.92815 129.51314 97.81477 132.4566 91.7014 135.40009 85.58803 138.34357 79.47466 141.28704 73.36128 144.2305 67.24791 147.17397 61.1345 150.11745 55.02098 153.06092 48.90767 156.00438 42.79428 158.94785 36.6809 161.89131 30.56755 164.83481 24.45415 167.77828 18.34076 170.72174 12.2274 173.6652 6.1139 176.60868 .0005"/>
</g>
<use data-text="x" xlink:href="#font_3_2" transform="matrix(10.909318,0,0,-10.9091,215.47875,186.35)"/>
<use data-text="f" xlink:href="#font_3_1" transform="matrix(10.909318,0,0,-10.9091,1.2284546,10.416)"/>
<use data-text="(" xlink:href="#font_1_1" transform="matrix(10.909318,0,0,-10.9091,7.7435839,10.416)"/>
<use data-text="x" xlink:href="#font_3_2" transform="matrix(10.909318,0,0,-10.9091,11.985664,10.416)"/>
<use data-text=")" xlink:href="#font_1_2" transform="matrix(10.909318,0,0,-10.9091,18.220788,10.416)"/>
</svg>
