<svg xmlns="http://www.w3.org/2000/svg" xmlns:xlink="http://www.w3.org/1999/xlink" version="1.1" width="319" height="266" viewBox="0 0 319 266">
<defs>
<path id="font_1_1" d="M.6749878 .22944641C.69299319 .22944641 .71199038 .22944641 .71199038 .25144959 .71199038 .27246095 .69200137 .27246095 .6749878 .27246095H.12298584C.10598755 .27246095 .085998538 .27246095 .085998538 .25144959 .085998538 .22944641 .10499573 .22944641 .12298584 .22944641H.6749878Z"/>
<path id="font_2_4" d="M.0289917 .19602967V.16503906H.3019867V.07901001C.3019867 .041992189 .29899598 .0309906 .22399903 .0309906H.20199585V0C.2649994 .0029907227 .33499146 .0029907227 .34199525 .0029907227 .34700013 .0029907227 .4189911 .0029907227 .48199464 0V.0309906H.45999146C.3849945 .0309906 .38198854 .041992189 .38198854 .07901001V.16503906H.48399354V.19602967H.38198854V.64974978C.38198854 .669754 .38198854 .6767578 .36299134 .6767578 .35099793 .6767578 .34999085 .67575076 .34098817 .66174319L.0289917 .19602967M.06098938 .19602967 .30799867 .56581118V.19602967H.06098938Z"/>
<path id="font_2_3" d="M.30499269 .35195924C.397995 .38697816 .44198609 .46006776 .44198609 .5290985 .44198609 .60606387 .35699464 .6660156 .25299073 .6660156 .14898682 .6660156 .070999149 .60705569 .070999149 .5310974 .070999149 .49809266 .09298706 .47909547 .12199402 .47909547 .15098572 .47909547 .17199707 .50009158 .17199707 .5290985 .17199707 .5640869 .147995 .57910159 .11399841 .57910159 .13999939 .6210327 .20098877 .64100649 .25 .64100649 .33299256 .64100649 .34899903 .5750885 .34899903 .52809146 .34899903 .49809266 .34298707 .45005799 .31799317 .41201783 .2869873 .36695863 .2519989 .36495973 .22299195 .36296083 .19799805 .36094667 .19599915 .36094667 .18798828 .36094667 .1789856 .35995484 .17098999 .35894776 .17098999 .34794618 .17098999 .33496095 .1789856 .33496095 .19599915 .33496095H.24299622C.32998658 .33496095 .36799623 .2646637 .36799623 .16937256 .36799623 .04145813 .2999878 .0055389406 .24899292 .0055389406 .22999573 .0055389406 .1329956 .010528564 .08799744 .0843811 .12399292 .07939148 .1519928 .10437012 .1519928 .13838196 .1519928 .17137146 .1269989 .19238281 .09799194 .19238281 .07299805 .19238281 .042999269 .17736817 .042999269 .13537598 .042999269 .046447755 .13598633-.022460938 .2519989-.022460938 .3769989-.022460938 .46998597 .06741333 .46998597 .16937256 .46998597 .25663758 .40098573 .33093263 .30499269 .35195924Z"/>
<path id="font_2_2" d="M.46199037 .17704773H.43399049C.43199159 .16404724 .42399598 .10501099 .41099549 .08900452 .40499879 .07998657 .33599855 .07998657 .31599427 .07998657H.13798523L.23699951 .17404175C.40098573 .3161316 .46199037 .36915589 .46199037 .4711914 .46199037 .5860901 .36698915 .6660156 .24398804 .6660156 .1289978 .6660156 .050994874 .575119 .050994874 .4841919 .050994874 .43418885 .09399414 .42919923 .102996829 .42919923 .125 .42919923 .15499878 .44519044 .15499878 .48120118 .15499878 .51119998 .13398743 .5332031 .102996829 .5332031 .09799194 .5332031 .09498596 .5332031 .09098816 .53219607 .114990238 .6030731 .1789856 .63500979 .23298645 .63500979 .33499146 .63500979 .36999513 .5401764 .36999513 .4711914 .36999513 .36915589 .29299928 .28611756 .24499512 .23408509L.06199646 .035995485C.050994874 .024993897 .050994874 .022994996 .050994874 0H.43399049L.46199037 .17704773Z"/>
<path id="font_2_1" d="M.3039856 .6392822C.3039856 .6642761 .30299378 .666275 .27799989 .666275 .21598816 .60227969 .12399292 .60227969 .09298706 .60227969V.57128909C.11199951 .57128909 .17298889 .57128909 .22698975 .5972748V.08001709C.22698975 .042999269 .22399903 .0309906 .1309967 .0309906H.09899902V0C.1349945 .0029907227 .22399903 .0029907227 .2649994 .0029907227 .30599977 .0029907227 .3959961 .0029907227 .43199159 0V.0309906H.3999939C.30699159 .0309906 .3039856 .042999269 .3039856 .08001709V.6392822Z"/>
<clipPath id="clip_3">
<path transform="matrix(1.00005,0,0,-1.00005,1.0961456,264.71058)" d="M0 0H291.4219V242.09149H0Z"/>
</clipPath>
<path id="font_4_2" d="M.33399964 .30233766C.33999635 .32835389 .36299134 .42037965 .43299867 .42037965 .43798829 .42037965 .46199037 .42037965 .48298646 .40734864 .45498658 .402359 .43499757 .37734986 .43499757 .35334779 .43499757 .33735658 .44599916 .31835938 .47299195 .31835938 .49499513 .31835938 .5269928 .3363495 .5269928 .37635804 .5269928 .42837525 .46798707 .4423828 .43399049 .4423828 .37599183 .4423828 .34098817 .38935853 .32899476 .36634828 .3039856 .43237306 .25 .4423828 .22099304 .4423828 .116989139 .4423828 .05999756 .3133545 .05999756 .28834535 .05999756 .27833558 .069992069 .27833558 .07199097 .27833558 .07998657 .27833558 .08299255 .28033448 .084991458 .28933717 .11898804 .39535523 .18499756 .42037965 .21899414 .42037965 .23799134 .42037965 .272995 .4113617 .272995 .35334779 .272995 .32235719 .2559967 .25532533 .21899414 .11528015 .20298767 .053268434 .16799927 .011245728 .12399292 .011245728 .117996219 .011245728 .09498596 .011245728 .07398987 .024276734 .09899902 .029266358 .12098694 .05027771 .12098694 .07827759 .12098694 .105270389 .09899902 .11328125 .083999637 .11328125 .053985597 .11328125 .0289917 .08728027 .0289917 .055267335 .0289917 .009246826 .07899475-.0107421879 .12298584-.0107421879 .18899536-.0107421879 .22499085 .059280397 .22799683 .0652771 .23999024 .028274537 .27598573-.0107421879 .33599855-.0107421879 .43899537-.0107421879 .49598695 .118270877 .49598695 .14328003 .49598695 .1532898 .4869995 .1532898 .48399354 .1532898 .47499085 .1532898 .47299195 .14929199 .47099305 .14228821 .43798829 .03527832 .36999513 .011245728 .33799745 .011245728 .29899598 .011245728 .2829895 .043273927 .2829895 .07727051 .2829895 .09927368 .2889862 .121276859 .2999878 .16529846L.33399964 .30233766Z"/>
<path id="font_4_1" d="M.36698915 .3996582H.45298768C.47299195 .3996582 .48298646 .3996582 .48298646 .41966249 .48298646 .43066407 .47299195 .43066407 .45599366 .43066407H.37298585L.3939972 .5449524C.397995 .5660095 .4119873 .6370239 .41799928 .6490326 .4269867 .66804507 .44400025 .68307498 .46499635 .68307498 .46899415 .68307498 .49499513 .68307498 .5139923 .66503909 .46998597 .661026 .45999146 .6260376 .45999146 .6110382 .45999146 .58802798 .47799684 .57603457 .49699403 .57603457 .522995 .57603457 .5519867 .5980377 .5519867 .6360321 .5519867 .6820679 .5059967 .7050781 .46499635 .7050781 .43099977 .7050781 .36799623 .68707278 .33799745 .58802798 .33198548 .56700137 .32899476 .5569763 .30499269 .43066407H.23599243C.21699524 .43066407 .20599365 .43066407 .20599365 .4116516 .20599365 .3996582 .21499634 .3996582 .23399353 .3996582H.2999878L.22499085 .0048828127C.20698548-.09207153 .18998719-.18309021 .13798523-.18309021 .13398743-.18309021 .10899353-.18309021 .08999634-.16506958 .13598633-.1620636 .14498902-.12606812 .14498902-.111068729 .14498902-.08807373 .1269989-.07606506 .10798645-.07606506 .08198547-.07606506 .052993776-.09806824 .052993776-.13606262 .052993776-.18109131 .09700012-.20507813 .13798523-.20507813 .19299317-.20507813 .23298645-.14607239 .25099183-.108062747 .2829895-.04508972 .30599977 .07583618 .30699159 .082839969L.36698915 .3996582Z"/>
<path id="font_5_1" d="M.33099366-.2400055C.33099366-.23701477 .33099366-.23500061 .31399537-.21800232 .18899536-.0920105 .15699768 .09700012 .15699768 .25 .15699768 .42399598 .19499207 .59799197 .31799317 .72299197 .33099366 .73498538 .33099366 .7369995 .33099366 .73999026 .33099366 .746994 .32699586 .75 .32099916 .75 .31098939 .75 .22099304 .6819916 .1619873 .5549927 .11099243 .44499208 .09899902 .33399964 .09899902 .25 .09899902 .17199707 .10998535 .050994874 .16499329-.06201172 .22499085-.18501282 .31098939-.25 .32099916-.25 .32699586-.25 .33099366-.24700928 .33099366-.2400055Z"/>
<path id="font_5_2" d="M.2889862 .25C.2889862 .32798768 .27799989 .44898988 .22299195 .56199648 .16299439 .68499758 .07699585 .75 .066986087 .75 .06098938 .75 .056991579 .74598696 .056991579 .73999026 .056991579 .7369995 .056991579 .73498538 .07598877 .71699526 .17399597 .6179962 .23098755 .45899964 .23098755 .25 .23098755 .07899475 .19400025-.09700012 .069992069-.2230072 .056991579-.23500061 .056991579-.23701477 .056991579-.2400055 .056991579-.2460022 .06098938-.25 .066986087-.25 .07699585-.25 .16699219-.18200684 .22599793-.055007936 .2769928 .054992677 .2889862 .16600037 .2889862 .25Z"/>
</defs>
<path transform="matrix(1.00005,0,0,-1.00005,1.0961456,264.71058)" stroke-width=".19925" stroke-linecap="butt" stroke-miterlimit="10" stroke-linejoin="miter" fill="none" stroke="#929292" d="M29.14218 118.91986V123.17162M58.28438 118.91986V123.17162M87.42657 118.91986V123.17162M116.56876 118.91986V123.17162M174.85315 118.91986V123.17162M203.99535 118.91986V123.17162M233.13753 118.91986V123.17162M262.27973 118.91986V123.17162"/>
<path transform="matrix(1.00005,0,0,-1.00005,1.0961456,264.71058)" stroke-width=".19925" stroke-linecap="butt" stroke-miterlimit="10" stroke-linejoin="miter" fill="none" stroke="#929292" d="M143.58502 24.20914H147.83687M143.58502 72.62744H147.83687M143.58502 48.41829H147.83687M143.58502 96.8366H147.83687M143.58502 145.2549H147.83687M143.58502 169.46405H147.83687M143.58502 193.6732H147.83687M143.58502 217.88236H147.83687"/>
<path transform="matrix(1.00005,0,0,-1.00005,1.0961456,264.71058)" stroke-width=".3985" stroke-linecap="butt" stroke-miterlimit="10" stroke-linejoin="miter" fill="none" stroke="#000000" d="M0 121.04575H289.4294"/>
<path transform="matrix(1.00005,0,0,-1.00005,290.54005,143.65879)" d="M1.99252 0-1.19551 1.59401 0 0-1.19551-1.59401"/>
<path transform="matrix(1.00005,0,0,-1.00005,1.0961456,264.71058)" stroke-width=".3985" stroke-linecap="butt" stroke-miterlimit="10" stroke-linejoin="miter" fill="none" stroke="#000000" d="M145.71096 0V240.09897"/>
<path transform="matrix(0,-1.00005,-1.00005,-0,146.81438,24.59961)" d="M1.99252 0-1.19551 1.59401 0 0-1.19551-1.59401"/>
<use data-text="&#x2212;" xlink:href="#font_1_1" transform="matrix(8.966848,0,0,-8.966848,24.352307,155.0831)"/>
<use data-text="4" xlink:href="#font_2_4" transform="matrix(8.966848,0,0,-8.966848,31.520665,155.0831)"/>
<use data-text="&#x2212;" xlink:href="#font_1_1" transform="matrix(8.966848,0,0,-8.966848,53.49576,155.0831)"/>
<use data-text="3" xlink:href="#font_2_3" transform="matrix(8.966848,0,0,-8.966848,60.66412,155.0831)"/>
<use data-text="&#x2212;" xlink:href="#font_1_1" transform="matrix(8.966848,0,0,-8.966848,82.63922,155.0831)"/>
<use data-text="2" xlink:href="#font_2_2" transform="matrix(8.966848,0,0,-8.966848,89.80758,155.0831)"/>
<use data-text="&#x2212;" xlink:href="#font_1_1" transform="matrix(8.966848,0,0,-8.966848,111.78268,155.0831)"/>
<use data-text="1" xlink:href="#font_2_1" transform="matrix(8.966848,0,0,-8.966848,118.951038,155.0831)"/>
<use data-text="1" xlink:href="#font_2_1" transform="matrix(8.966848,0,0,-8.966848,173.65377,155.0831)"/>
<use data-text="2" xlink:href="#font_2_2" transform="matrix(8.966848,0,0,-8.966848,202.79721,155.0831)"/>
<use data-text="3" xlink:href="#font_2_3" transform="matrix(8.966848,0,0,-8.966848,231.94168,155.0831)"/>
<use data-text="4" xlink:href="#font_2_4" transform="matrix(8.966848,0,0,-8.966848,261.08518,155.0831)"/>
<use data-text="&#x2212;" xlink:href="#font_1_1" transform="matrix(8.966848,0,0,-8.966848,129.39255,242.97449)"/>
<use data-text="4" xlink:href="#font_2_4" transform="matrix(8.966848,0,0,-8.966848,136.56092,242.97449)"/>
<use data-text="&#x2212;" xlink:href="#font_1_1" transform="matrix(8.966848,0,0,-8.966848,129.39255,194.55408)"/>
<use data-text="2" xlink:href="#font_2_2" transform="matrix(8.966848,0,0,-8.966848,136.56092,194.55408)"/>
<use data-text="&#x2212;" xlink:href="#font_1_1" transform="matrix(8.966848,0,0,-8.966848,129.39255,218.76428)"/>
<use data-text="3" xlink:href="#font_2_3" transform="matrix(8.966848,0,0,-8.966848,136.56092,218.76428)"/>
<use data-text="&#x2212;" xlink:href="#font_1_1" transform="matrix(8.966848,0,0,-8.966848,129.39255,170.34386)"/>
<use data-text="1" xlink:href="#font_2_1" transform="matrix(8.966848,0,0,-8.966848,136.56092,170.34386)"/>
<use data-text="1" xlink:href="#font_2_1" transform="matrix(8.966848,0,0,-8.966848,136.5599,122.33746)"/>
<use data-text="2" xlink:href="#font_2_2" transform="matrix(8.966848,0,0,-8.966848,136.5599,98.12726)"/>
<use data-text="3" xlink:href="#font_2_3" transform="matrix(8.966848,0,0,-8.966848,136.5599,73.91704)"/>
<use data-text="4" xlink:href="#font_2_4" transform="matrix(8.966848,0,0,-8.966848,136.5599,49.706834)"/>
<g clip-path="url(#clip_3)">
<path transform="matrix(1.00005,0,0,-1.00005,1.0961456,264.71058)" stroke-width=".79701" stroke-linecap="butt" stroke-miterlimit="10" stroke-linejoin="miter" fill="none" stroke="#000000" d="M186.55268 241.29564C187.9137 215.90616 187.9137 215.90616 188.4528 207.50872 188.99192 199.11128 189.85649 187.96678 190.3956 181.56862 190.93471 175.17046 191.79929 166.43358 192.3384 161.39513 192.8775 156.35668 193.74208 149.32631 194.28119 145.2549 194.8203 141.18349 195.68488 135.41019 196.22399 132.05123 196.76309 128.69225 197.62767 123.86493 198.16678 121.04575 198.70589 118.22656 199.57047 114.13179 200.10958 111.73248 200.64868 109.33318 201.51326 105.81958 202.05236 103.75314 202.59146 101.6867 203.45606 98.63835 203.99517 96.839 204.53427 95.03967 205.39885 92.36574 205.93796 90.78477 206.47707 89.20381 207.34163 86.8441 207.88074 85.44449 208.41985 84.04488 209.28443 81.94522 209.82353 80.69731 210.36264 79.44939 211.22722 77.56992 211.76633 76.4503 212.30544 75.33069 213.17003 73.63815 213.70914 72.62791 214.24825 71.61768 215.11281 70.08528 215.65192 69.16916 216.19103 68.25305 217.0556 66.85965 217.59471 66.02512 218.13382 65.1906 218.9984 63.91774 219.5375 63.15439 220.07662 62.39104 220.94118 61.22432 221.48029 60.52335 222.0194 59.82236 222.88399 58.74818 223.4231 58.1022 223.9622 57.4562 224.82678 56.4646 225.36589 55.86745 225.905 55.2703 226.76958 54.35194 227.30869 53.7983 227.8478 53.24463 228.71237 52.39183 229.25148 51.87704 229.79059 51.36226 230.65515 50.56781 231.19426 50.08798 231.73337 49.60817 233.13706 48.41876 233.13706 48.41876"/>
<path transform="matrix(-.05351267,-.9985999,-.9985999,.05351267,187.63683,23.004929)" stroke-width=".79701" stroke-linecap="round" stroke-linejoin="round" fill="none" stroke="#000000" d="M-2.55046 3.11095C-2.0845 1.24435-1.04614 .36295 0 0-1.04614-.36295-2.0845-1.24435-2.55046-3.11095"/>
<path transform="matrix(1.00005,0,0,-1.00005,1.0961456,264.71058)" stroke-width=".79701" stroke-linecap="butt" stroke-miterlimit="10" stroke-linejoin="miter" fill="none" stroke="#000000" d="M233.13753 48.41829C233.13753 48.41829 234.8044 49.803 235.4446 50.33482 236.08481 50.86665 237.11147 51.71954 237.75167 52.25137 238.39188 52.78319 239.41854 53.63608 240.05873 54.16791 240.69893 54.69974 241.7256 55.55263 242.3658 56.08446 243.006 56.61629 244.03267 57.46918 244.67287 58.00099 245.31307 58.53282 246.33975 59.3857 246.97995 59.91753 247.62015 60.44936 248.64682 61.30225 249.28702 61.83408 249.92722 62.36589 250.95389 63.21878 251.59409 63.75061 252.23429 64.28244 253.26096 65.13533 253.90116 65.66716 254.54135 66.19899 255.56804 67.05188 256.20826 67.5837 256.84843 68.11552 257.8751 68.96841 258.5153 69.50024 259.1555 70.03207 260.18217 70.88496 260.82237 71.4168 261.46257 71.94861 262.48924 72.80151 263.12944 73.33333 263.76966 73.86516 264.79634 74.71803 265.43653 75.24986 266.07673 75.7817 267.1034 76.63458 267.7436 77.16641 268.3838 77.69823 269.41047 78.55112 270.05067 79.08295 270.69087 79.61478 271.71754 80.46767 272.35774 80.9995 272.99794 81.53133 274.0246 82.38422 274.6648 82.91603 275.305 83.44786 276.33168 84.30075 276.9719 84.83258 277.6121 85.36441 278.63877 86.2173 279.27897 86.74913 279.91914 87.28094 280.94584 88.13382 281.586 88.66565 282.2262 89.19748 283.2529 90.05037 283.8931 90.5822 284.5333 91.11403 285.55995 91.96692 286.20018 92.49873 286.84037 93.03056 288.50724 94.41528 287.8942 93.90604"/>
<path transform="matrix(.76921847,-.6389919,-.6389919,-.76921847,289.31129,170.54523)" stroke-width=".79701" stroke-linecap="round" stroke-linejoin="round" fill="none" stroke="#000000" d="M-2.55046 3.11095C-2.0845 1.24435-1.04614 .36295 0 0-1.04614-.36295-2.0845-1.24435-2.55046-3.11095"/>
<path transform="matrix(1.00005,0,0,-1.00005,1.0961456,264.71058)" stroke-width=".79701" stroke-linecap="butt" stroke-miterlimit="10" stroke-linejoin="miter" fill="none" stroke="#000000" d="M145.71096 48.41829C145.71096 48.41829 146.58824 48.92746 146.92519 49.12714 147.26212 49.32681 147.80249 49.652 148.13942 49.85753 148.47637 50.06305 149.01674 50.39699 149.35367 50.60849 149.6906 50.81999 150.23096 51.16422 150.5679 51.38196 150.90483 51.59972 151.4452 51.95383 151.78214 52.17796 152.11908 52.40211 152.65944 52.76675 152.99639 52.99745 153.33332 53.22813 153.87369 53.60321 154.21062 53.84065 154.54756 54.0781 155.08792 54.46439 155.42485 54.7088 155.7618 54.95322 156.30216 55.3508 156.6391 55.60236 156.97603 55.8539 157.5164 56.26282 157.85334 56.52182 158.19028 56.7808 158.73062 57.20253 159.06757 57.46913 159.4045 57.73572 159.94487 58.169 160.28182 58.4433 160.61875 58.71759 161.15912 59.16373 161.49605 59.44603 161.833 59.72835 162.37335 60.18742 162.7103 60.47807 163.04723 60.76872 163.58759 61.24168 163.92452 61.54085 164.26146 61.84003 164.80184 62.3264 165.13877 62.63438 165.47571 62.94235 166.01607 63.44357 166.35301 63.76059 166.68994 64.07759 167.2303 64.59306 167.56723 64.91925 167.90418 65.24544 168.44454 65.77579 168.78148 66.11154 169.11841 66.4473 169.65879 66.99342 169.99573 67.33919 170.33266 67.68497 170.87303 68.24786 171.20996 68.60364 171.5469 68.95941 172.08727 69.53726 172.42421 69.90341 172.76114 70.26958 173.3015 70.86574 173.63843 71.24266 173.97537 71.6196 174.85268 72.62018 174.85268 72.62018"/>
<path transform="matrix(1.00005,0,0,-1.00005,1.0961456,264.71058)" stroke-width=".79701" stroke-linecap="butt" stroke-miterlimit="10" stroke-linejoin="miter" fill="none" stroke="#000000" d="M3.21399 129.2648C3.43266 129.80313 3.43266 129.80313 3.63177 130.28299 3.83089 130.76284 4.15022 131.52173 4.34933 131.9849 4.54846 132.44805 4.86778 133.17765 5.06691 133.62119 5.26602 134.06473 5.58537 134.76029 5.78448 135.1817 5.9836 135.60312 6.30293 136.2617 6.50204 136.65847 6.70116 137.05522 7.0205 137.67154 7.2196 138.04129 7.41873 138.41103 7.73807 138.98305 7.9372 139.32341 8.1363 139.66376 8.45564 140.18534 8.65475 140.4944 8.85387 140.80345 9.1732 141.27497 9.37231 141.55089 9.57143 141.82682 9.89076 142.24208 10.08987 142.48319 10.289 142.72429 10.60834 143.08368 10.80746 143.28862 11.00658 143.49358 11.32591 143.79306 11.52502 143.96044 11.72414 144.1278 12.04347 144.36592 12.24258 144.49497 12.4417 144.62401 12.76105 144.80083 12.96016 144.89054 13.15929 144.98024 13.4786 145.09175 13.67773 145.1416 13.87685 145.19144 14.19618 145.23998 14.3953 145.2498 14.5944 145.25965 14.91374 145.24282 15.11285 145.21253 15.31197 145.18225 15.63132 145.10167 15.83043 145.03145 16.02956 144.96121 16.34888 144.8162 16.548 144.7063 16.74712 144.5964 17.06645 144.38794 17.26556 144.23932 17.46468 144.09069 17.78403 143.8217 17.98314 143.63506 18.18225 143.4484 18.50159 143.11757 18.7007 142.89402 18.89983 142.67046 19.21915 142.28278 19.41827 142.0237 19.61739 141.76464 19.93672 141.31986 20.13583 141.02675 20.33495 140.73366 20.6543 140.23651 20.85341 139.91121 21.05252 139.58589 21.37186 139.03775 21.57098 138.68212 21.7701 138.32648 22.08943 137.73172 22.28854 137.34793 22.48766 136.96414 22.807 136.32559 23.00612 135.91597 23.20523 135.50635 23.52457 134.82857 23.72368 134.39563 23.9228 133.96269 24.24213 133.2495 24.44125 132.79564 24.64037 132.34178 24.9597 131.59653 25.15881 131.1245 25.35793 130.65245 25.67728 129.8809 25.87639 129.39353 26.0755 128.90616 26.39484 128.11147 26.59395 127.61174 26.79308 127.112 27.1124 126.30067 27.31152 125.7917 27.51064 125.28271 27.82999 124.45872 28.0291 123.94333 28.22821 123.42795 28.54755 122.59563 28.74666 122.07704 28.94577 121.55846 29.2651 120.72438 29.46422 120.20569 29.66335 119.687 29.98268 118.8546 30.18181 118.33867 30.38092 117.82274 30.70026 116.99701 30.89937 116.48715 31.09848 115.97731 31.41782 115.16464 31.61693 114.66397 31.81604 114.1633 32.13538 113.36723 32.33449 112.87854 32.53362 112.38986 32.85295 111.61552 33.05208 111.14178 33.25119 110.66805 33.57053 109.92006 33.76964 109.46408 33.96875 109.00812 34.28809 108.29066 34.4872 107.85538 34.68631 107.4201 35.00566 106.73892 35.20477 106.32681 35.4039 105.9147 35.72322 105.2717 35.92235 104.88516 36.12146 104.49863 36.4408 103.89934 36.63991 103.54082 36.83902 103.1823 37.15836 102.62961 37.35747 102.30109 37.55658 101.97255 37.87593 101.46931 38.07504 101.17293 38.27417 100.87654 38.59349 100.42746 38.79262 100.16486 38.99173 99.90225 39.31107 99.5075 39.51018 99.28026 39.70929 99.053 40.02864 98.71738 40.22775 98.52687 40.42686 98.33636 40.7462 98.05975 40.94533 97.90712 41.14444 97.75449 41.46378 97.54057 41.66289 97.42682 41.862 97.31305 42.18134 97.1615 42.38045 97.08716 42.57956 97.0128 42.89891 96.92523 43.09802 96.89082 43.29715 96.8564 43.61647 96.83331 43.8156 96.839 44.01471 96.84471 44.33405 96.88614 44.53316 96.93198 44.73227 96.9778 45.05162 97.0839 45.25073 97.16946 45.44984 97.25504 45.76918 97.42387 45.96829 97.54883 46.16742 97.67377 46.48674 97.9064 46.68587 98.07004 46.88498 98.23367 47.20433 98.52719 47.40344 98.72829 47.60255 98.92938 47.92189 99.282 48.121 99.51944 48.32011 99.75688 48.63945 100.16719 48.83856 100.43964 49.03769 100.71207 49.35701 101.17722 49.55614 101.48305 49.75525 101.78888 50.0746 102.30661 50.27371 102.64389 50.47282 102.98116 50.79216 103.5471 50.99127 103.9139 51.19038 104.28069 51.50972 104.89337 51.70883 105.2875 51.90796 105.68166 52.2273 106.3356 52.42642 106.7546 52.62553 107.17358 52.94487 107.86598 53.14398 108.30737 53.3431 108.74876 53.66243 109.4747 53.86154 109.93591 54.06065 110.39713 54.38 111.15329 54.57912 111.63153 54.77824 112.10976 55.09756 112.89035 55.29669 113.38281 55.4958 113.87526 55.81514 114.6771 56.01425 115.18082 56.21336 115.68456 56.5327 116.5016 56.73181 117.01347 56.93092 117.52533 57.25027 118.35309 57.44939 118.87007 57.64851 119.38704 57.96783 120.2205 58.16696 120.73949 58.36607 121.25847 58.68541 122.09265 58.88452 122.61063 59.08363 123.1286 59.40298 123.95894 59.6021 124.4728 59.80121 124.98663 60.12054 125.8074 60.31966 126.31413 60.51878 126.82086 60.83812 127.62852 61.03723 128.12497 61.23634 128.62143 61.5557 129.40904 61.7548 129.89225 61.95392 130.37546 62.27325 131.14055 62.47237 131.6077 62.6715 132.07486 62.99081 132.8111 63.18994 133.25926 63.38905 133.70742 63.7084 134.41106 63.90752 134.83769 64.10663 135.26435 64.42596 135.9318 64.62508 136.3343 64.82419 136.7368 65.14352 137.36272 65.34264 137.73868 65.54176 138.11464 65.86108 138.69683 66.06021 139.04404 66.25932 139.39125 66.57867 139.92484 66.77779 140.24118 66.9769 140.55751 67.29623 141.04056 67.49535 141.32405 67.69446 141.60753 68.0138 142.0354 68.2129 142.28443 68.41203 142.53345 68.73137 142.90569 68.9305 143.11891 69.12961 143.33214 69.44894 143.64533 69.64806 143.82123 69.84717 143.99713 70.1665 144.24903 70.36562 144.38674 70.56473 144.52446 70.88406 144.71524 71.08318 144.8138 71.2823 144.91236 71.60164 145.03818 71.80077 145.09706 71.99988 145.15593 72.31921 145.21933 72.51833 145.23819 72.71744 145.25705 73.03677 145.25438 73.23589 145.2331 73.435 145.2118 73.75435 145.14592 73.95346 145.0847 74.15259 145.02349 74.47191 144.8928 74.67104 144.79177 74.87015 144.69074 75.18953 144.49646 75.38864 144.35649 75.58775 144.21652 75.90703 143.96115 76.10614 143.78296 76.30525 143.60478 76.62463 143.28754 76.82375 143.07219 77.02287 142.85686 77.34213 142.48213 77.54126 142.23091 77.74037 141.9797 78.05974 141.54724 78.25887 141.2616 78.458 140.97595 78.77736 140.49044 78.97647 140.17218 79.17558 139.85393 79.49486 139.31673 79.69397 138.96778 79.8931 138.6188 80.2125 138.03462 80.4116 137.65709 80.61072 137.27954 80.92998 136.65073 81.12909 136.24666 81.3282 135.84259 81.64758 135.17276 81.84671 134.74474 82.04584 134.31671 82.3652 133.61116 82.56433 133.1617 82.76344 132.71224 83.08272 131.97351 83.28183 131.5053 83.48094 131.0371 83.80032 130.2712 83.99944 129.78717 84.19855 129.30316 84.51782 128.51392 84.71693 128.01677 84.91606 127.5196 85.23541 126.71124 85.43456 126.204 85.63368 125.69673 85.95305 124.87491 86.15216 124.36069 86.35127 123.84647 86.67055 123.01591 86.86966 122.4978 87.06877 121.97969 87.38815 121.14536 87.58727 120.62643 87.78639 120.10751 88.10565 119.27446 88.30478 118.75772 88.50389 118.241 88.82327 117.41357 89.0224 116.9021 89.22153 116.39063 89.5409 115.5745 89.74 115.0714 89.93912 114.5683 90.25839 113.76776 90.4575 113.27606 90.65663 112.78435 90.976 112.00468 91.17513 111.52742 91.37424 111.05016 91.69351 110.29634 91.89262 109.83617 92.09174 109.376 92.4111 108.651 92.61023 108.21077 92.80936 107.77055 93.12872 107.08087 93.32784 106.66331 93.52696 106.24577 93.84622 105.59381 94.04535 105.20132 94.24446 104.80885 94.56384 104.19948 94.76295 103.83449 94.96207 103.46951 95.28134 102.90619 95.48045 102.57077 95.67957 102.23535 95.99895 101.7208 96.19807 101.41695 96.39722 101.11311 96.71657 100.65129 96.9157 100.3808 97.1148 100.1103 97.43408 99.70273 97.6332 99.4674 97.8323 99.23207 98.15169 98.88356 98.3508 98.68471 98.54991 98.48587 98.86919 98.19543 99.0683 98.03423 99.26743 97.873 99.58679 97.6452 99.78592 97.52267 99.98505 97.40015 100.30441 97.2343 100.50352 97.15106 100.70264 97.06783 101.02191 96.96619 101.22102 96.92278 101.42015 96.87936 101.73952 96.84143 101.93864 96.83804 102.13776 96.83466 102.45703 96.8614 102.65614 96.89832 102.85526 96.93523 103.17464 97.02739 103.37376 97.10411 103.57289 97.18082 103.89226 97.33514 104.09137 97.45126 104.2905 97.56737 104.60974 97.78607 104.80887 97.94101 105.00798 98.09595 105.32738 98.37529 105.52649 98.56802 105.7256 98.76076 106.04488 99.10062 106.24399 99.33012 106.4431 99.55965 106.76247 99.95757 106.9616 100.22224 107.16074 100.48692 107.48009 100.93938 107.67921 101.23781 107.87833 101.53624 108.1976 102.04286 108.39671 102.37321 108.59583 102.70357 108.9152 103.25853 109.11432 103.61877 109.31343 103.97902 109.6327 104.58153 109.83182 104.96965 110.03094 105.35777 110.3503 106.0025 110.54944 106.41615 110.74857 106.8298 111.06795 107.51431 111.26706 107.951 111.46617 108.3877 111.78543 109.10654 111.98454 109.56358 112.18365 110.02063 112.50305 110.7705 112.70216 111.24515 112.90129 111.7198 113.22055 112.49512 113.41968 112.98457 113.61879 113.47403 113.93816 114.27145 114.13728 114.7729 114.33641 115.27435 114.65578 116.0885 114.85489 116.59875 115.054 117.10901 115.37328 117.93437 115.57239 118.45052 115.77151 118.96664 116.09088 119.79988 116.29001 120.31874 116.48912 120.8376 116.8084 121.67169 117.0075 122.19011 117.20662 122.70853 117.52599 123.54008 117.72511 124.05518 117.92424 124.57027 118.24362 125.39394 118.44273 125.90257 118.64186 126.41122 118.96112 127.22217 119.16023 127.72118 119.35934 128.22019 119.67873 129.0127 119.87784 129.4991 120.07695 129.9855 120.39624 130.75588 120.59535 131.22689 120.79448 131.6979 121.11383 132.44123 121.31297 132.89394 121.5121 133.34665 121.83147 134.05815 122.03058 134.4898 122.22969 134.92148 122.54897 135.59694 122.74808 136.00505 122.94719 136.41316 123.26657 137.04898 123.46568 137.43122 123.66481 137.81345 123.98407 138.40624 124.1832 138.76007 124.38231 139.11389 124.70168 139.65802 124.9008 139.9814 125.09993 140.3048 125.4193 140.79988 125.61841 141.09093 125.81752 141.38196 126.1368 141.82218 126.3359 142.07913 126.53503 142.33609 126.8544 142.7215 127.05353 142.94292 127.25264 143.16434 127.57193 143.49066 127.77104 143.675 127.97015 143.85935 128.28952 144.1251 128.48865 144.27152 128.68778 144.41793 129.00714 144.62287 129.20626 144.73027 129.40538 144.83769 129.72464 144.97785 129.92377 145.04572 130.12288 145.11359 130.44226 145.19168 130.64138 145.21956 130.84049 145.24742 131.15976 145.25897 131.35887 145.24666 131.55799 145.23435 131.87735 145.18296 132.07648 145.13069 132.27562 145.07843 132.59497 144.9621 132.7941 144.86997 132.99321 144.77785 133.31249 144.5979 133.5116 144.46665 133.71071 144.33539 134.03009 144.09355 134.2292 143.92388 134.42832 143.75418 134.74759 143.45072 134.9467 143.24359 135.14583 143.03649 135.4652 142.67438 135.66434 142.43112 135.86347 142.18788 136.18283 141.76833 136.38195 141.49037 136.58106 141.21242 136.90033 140.73889 137.09944 140.42783 137.29856 140.11676 137.61794 139.59066 137.81705 139.24835 138.01618 138.90605 138.33545 138.33199 138.53456 137.96067 138.73368 137.58934 139.05304 136.97037 139.25217 136.57202 139.4513 136.17369 139.77066 135.5125 139.96977 135.0897 140.16889 134.66693 140.48816 133.96965 140.68729 133.52483 140.8864 133.08 141.20578 132.34793 141.40489 131.8837 141.604 131.41945 141.92328 130.65958 142.12239 130.17888 142.3215 129.69818 142.64089 128.91365 142.84001 128.41912 143.03916 127.92458 143.3585 127.11978 143.55764 126.61456 143.75675 126.10934 144.07602 125.29065 144.27513 124.77782 144.47425 124.26498 144.79363 123.43585 144.99274 122.9183 145.19185 122.40077 145.71024 121.04767 145.71024 121.04767"/>
<path transform="matrix(-.37615878,.9265562,.9265562,.37615878,4.1603987,135.80855)" stroke-width=".79701" stroke-linecap="round" stroke-linejoin="round" fill="none" stroke="#000000" d="M-2.55046 3.11095C-2.0845 1.24435-1.04614 .36295 0 0-1.04614-.36295-2.0845-1.24435-2.55046-3.11095"/>
</g>
<use data-text="x" xlink:href="#font_4_2" transform="matrix(9.963098,0,0,-9.963098,312.4637,145.80364)"/>
<use data-text="f" xlink:href="#font_4_1" transform="matrix(9.963098,0,0,-9.963098,137.11794,9.387817)"/>
<use data-text="(" xlink:href="#font_5_1" transform="matrix(9.963098,0,0,-9.963098,143.06824,9.387817)"/>
<use data-text="x" xlink:href="#font_4_2" transform="matrix(9.963098,0,0,-9.963098,146.94243,9.387817)"/>
<use data-text=")" xlink:href="#font_5_2" transform="matrix(9.963098,0,0,-9.963098,152.63672,9.387817)"/>
<path transform="matrix(1.00005,0,0,-1.00005,1.0961533,264.71159)" d="M177.688 72.62744C177.688 74.1931 176.4188 75.4623 174.85315 75.4623 173.28749 75.4623 172.0183 74.1931 172.0183 72.62744 172.0183 71.0618 173.28749 69.79259 174.85315 69.79259 176.4188 69.79259 177.688 71.0618 177.688 72.62744ZM174.85315 72.62744" fill="#ffffff"/>
<path transform="matrix(1.00005,0,0,-1.00005,1.0961533,264.71159)" stroke-width=".79701" stroke-linecap="butt" stroke-miterlimit="10" stroke-linejoin="miter" fill="none" stroke="#000000" d="M177.688 72.62744C177.688 74.1931 176.4188 75.4623 174.85315 75.4623 173.28749 75.4623 172.0183 74.1931 172.0183 72.62744 172.0183 71.0618 173.28749 69.79259 174.85315 69.79259 176.4188 69.79259 177.688 71.0618 177.688 72.62744ZM174.85315 72.62744"/>
<path transform="matrix(1.00005,0,0,-1.00005,1.0961533,264.71159)" d="M235.97238 48.41829C235.97238 49.98395 234.70319 51.25314 233.13753 51.25314 231.57189 51.25314 230.30269 49.98395 230.30269 48.41829 230.30269 46.85265 231.57189 45.58345 233.13753 45.58345 234.70319 45.58345 235.97238 46.85265 235.97238 48.41829ZM233.13753 48.41829" fill="#ffffff"/>
<path transform="matrix(1.00005,0,0,-1.00005,1.0961533,264.71159)" stroke-width=".79701" stroke-linecap="butt" stroke-miterlimit="10" stroke-linejoin="miter" fill="none" stroke="#000000" d="M235.97238 48.41829C235.97238 49.98395 234.70319 51.25314 233.13753 51.25314 231.57189 51.25314 230.30269 49.98395 230.30269 48.41829 230.30269 46.85265 231.57189 45.58345 233.13753 45.58345 234.70319 45.58345 235.97238 46.85265 235.97238 48.41829ZM233.13753 48.41829"/>
<path transform="matrix(1.00005,0,0,-1.00005,1.0961533,264.71159)" d="M235.97238 169.46405C235.97238 171.0297 234.70319 172.29889 233.13753 172.29889 231.57189 172.29889 230.30269 171.0297 230.30269 169.46405 230.30269 167.89839 231.57189 166.6292 233.13753 166.6292 234.70319 166.6292 235.97238 167.89839 235.97238 169.46405ZM233.13753 169.46405"/>
<path transform="matrix(1.00005,0,0,-1.00005,1.0961533,264.71159)" d="M148.5458 48.41829C148.5458 49.98395 147.27661 51.25314 145.71096 51.25314 144.14531 51.25314 142.8761 49.98395 142.8761 48.41829 142.8761 46.85265 144.14531 45.58345 145.71096 45.58345 147.27661 45.58345 148.5458 46.85265 148.5458 48.41829ZM145.71096 48.41829"/>
<path transform="matrix(1.00005,0,0,-1.00005,1.0961533,264.71159)" d="M148.5458 121.04575C148.5458 122.6114 147.27661 123.8806 145.71096 123.8806 144.14531 123.8806 142.8761 122.6114 142.8761 121.04575 142.8761 119.48009 144.14531 118.21089 145.71096 118.21089 147.27661 118.21089 148.5458 119.48009 148.5458 121.04575ZM145.71096 121.04575" fill="#ffffff"/>
<path transform="matrix(1.00005,0,0,-1.00005,1.0961533,264.71159)" stroke-width=".79701" stroke-linecap="butt" stroke-miterlimit="10" stroke-linejoin="miter" fill="none" stroke="#000000" d="M148.5458 121.04575C148.5458 122.6114 147.27661 123.8806 145.71096 123.8806 144.14531 123.8806 142.8761 122.6114 142.8761 121.04575 142.8761 119.48009 144.14531 118.21089 145.71096 118.21089 147.27661 118.21089 148.5458 119.48009 148.5458 121.04575ZM145.71096 121.04575"/>
</svg>
