<svg xmlns="http://www.w3.org/2000/svg" xmlns:xlink="http://www.w3.org/1999/xlink" xmlns:inkscape="http://www.inkscape.org/namespaces/inkscape" version="1.1" width="104" height="83" viewBox="0 0 104 83">
<defs>
<path id="font_1_1" d="M.6589966 .23046875C.6759949 .23046875 .69400027 .23046875 .69400027 .25045777 .69400027 .27046205 .6759949 .27046205 .6589966 .27046205H.117996219C.100997928 .27046205 .08299255 .27046205 .08299255 .25045777 .08299255 .23046875 .100997928 .23046875 .117996219 .23046875H.6589966Z"/>
<path id="font_2_3" d="M.2939911 .16503906V.07800293C.2939911 .041992189 .2919922 .0309906 .21798706 .0309906H.19699097V0C.23799134 .0029907227 .2899933 .0029907227 .33198548 .0029907227 .37399293 .0029907227 .4269867 .0029907227 .46798707 0V.0309906H.44699098C.37298585 .0309906 .37098695 .041992189 .37098695 .07800293V.16503906H.47099305V.19602967H.37098695V.65075686C.37098695 .67074587 .37098695 .6767578 .35499574 .6767578 .34599305 .6767578 .34298707 .6767578 .33499146 .66474917L.027999878 .19602967V.16503906H.2939911M.2999878 .19602967H.055999757L.2999878 .5688019V.19602967Z"/>
<path id="font_2_2" d="M.1269989 .07699585 .23298645 .18003845C.3889923 .31811524 .44898988 .3721466 .44898988 .47216798 .44898988 .5860901 .35899354 .6660156 .23699951 .6660156 .12399292 .6660156 .049987794 .57411196 .049987794 .48516847 .049987794 .4291687 .099990848 .4291687 .102996829 .4291687 .11999512 .4291687 .15499878 .44117738 .15499878 .48217774 .15499878 .5081787 .13699341 .5341797 .101989749 .5341797 .09399414 .5341797 .09199524 .5341797 .08898926 .5331726 .11199951 .59806826 .1659851 .63500979 .22399903 .63500979 .31498719 .63500979 .35798646 .5541382 .35798646 .47216798 .35798646 .39215089 .30799867 .31311036 .25299073 .25108338L.06098938 .036987306C.049987794 .025985718 .049987794 .023986817 .049987794 0H.42099L.44898988 .17404175H.42399598C.4189911 .14402771 .4119873 .1000061 .4019928 .084991458 .394989 .07699585 .32899476 .07699585 .30699159 .07699585H.1269989Z"/>
<path id="font_2_4" d="M.13198853 .327713V.35173036C.13198853 .6047821 .2559967 .64100649 .30699159 .64100649 .33099366 .64100649 .37298585 .634964 .394989 .6007538 .37998963 .6007538 .33999635 .6007538 .33999635 .5557556 .33999635 .524765 .3639984 .5097656 .38598634 .5097656 .4019928 .5097656 .43199159 .51875308 .43199159 .5577545 .43199159 .6178589 .3880005 .6660156 .30499269 .6660156 .1769867 .6660156 .041992189 .5367584 .041992189 .31570436 .041992189 .048553468 .1579895-.022460938 .25099183-.022460938 .3619995-.022460938 .45700074 .07156372 .45700074 .2036438 .45700074 .33070375 .36799623 .4267578 .25698854 .4267578 .18899536 .4267578 .1519928 .37573243 .13198853 .327713M.25099183 .0055389406C.18798828 .0055389406 .1579895 .06556702 .1519928 .080566409 .13398743 .127594 .13398743 .2076416 .13398743 .22564698 .13398743 .30369569 .1659851 .40374757 .2559967 .40374757 .27198792 .40374757 .31799317 .40374757 .34899903 .34172059 .36698915 .30470277 .36698915 .2536621 .36698915 .20463562 .36698915 .15661621 .36698915 .10658264 .34999085 .0705719 .31999208 .010528564 .27398683 .0055389406 .25099183 .0055389406Z"/>
<path id="font_2_1" d="M.45999146 .31976319C.45999146 .39982606 .45498658 .47988893 .41999818 .5539398 .37399293 .65000918 .2919922 .6660156 .25 .6660156 .18998719 .6660156 .116989139 .64001467 .07598877 .54693606 .04399109 .47789 .038986207 .39982606 .038986207 .31976319 .038986207 .24472046 .042999269 .15464783 .083999637 .07859802 .1269989-.0024719239 .19999695-.022460938 .24899292-.022460938 .30299378-.022460938 .3789978-.0014648438 .4229889 .09359741 .45498658 .16265869 .45999146 .2407074 .45999146 .31976319M.24899292-.00047302247C.20999146-.00047302247 .15098572 .024551392 .1329956 .12062073 .12199402 .18066406 .12199402 .2727356 .12199402 .3317871 .12199402 .39582826 .12199402 .46188355 .12998963 .5159149 .14898682 .63500979 .22399903 .64401248 .24899292 .64401248 .28199769 .64401248 .34799195 .6259918 .36698915 .52693179 .3769989 .47088624 .3769989 .39482118 .3769989 .3317871 .3769989 .25672914 .3769989 .18867493 .3659973 .12461853 .35099793 .029556275 .2939911-.00047302247 .24899292-.00047302247Z"/>
<clipPath id="clip_3">
<path transform="matrix(.500025,0,0,-.50001,3.7398873,82.038349)" d="M0 0H194.26828V161.387H0Z"/>
</clipPath>
</defs>
<path transform="matrix(.500025,0,0,-.50001,3.7398873,82.038349)" stroke-width=".19925" stroke-linecap="butt" stroke-miterlimit="10" stroke-linejoin="miter" fill="none" stroke="#7f807f" d="M0 78.56862V82.82042M48.56728 78.56862V82.82042M145.70183 78.56862V82.82042M194.26912 78.56862V82.82042"/>
<path transform="matrix(.500025,0,0,-.50001,3.7398873,82.038349)" stroke-width=".19925" stroke-linecap="butt" stroke-miterlimit="10" stroke-linejoin="miter" fill="none" stroke="#7f807f" d="M95.0086 5.0434H99.26048M95.0086 30.26044H99.26048M95.0086 55.47748H99.26048M95.0086 105.91158H99.26048M95.0086 131.12862H99.26048M95.0086 156.34566H99.26048"/>
<path transform="matrix(.500025,0,0,-.50001,3.7398873,82.038349)" stroke-width=".3985" stroke-linecap="butt" stroke-miterlimit="10" stroke-linejoin="miter" fill="none" stroke="#000000" d="M0 80.69452H192.27576"/>
<path transform="matrix(.500025,0,0,-.50001,99.88257,41.690279)" d="M1.99252 0-1.19551 1.59401 0 0-1.19551-1.59401"/>
<path transform="matrix(.500025,0,0,-.50001,3.7398873,82.038349)" stroke-width=".3985" stroke-linecap="butt" stroke-miterlimit="10" stroke-linejoin="miter" fill="none" stroke="#000000" d="M97.13455 0V159.39447"/>
<path transform="matrix(0,-.50001,-.500025,-0,52.30959,2.3395158)" d="M1.99252 0-1.19551 1.59401 0 0-1.19551-1.59401"/>
<use data-text="&#x2212;" xlink:href="#font_1_1" transform="matrix(4.981549,0,0,-4.9813997,.5572281,47.72366)"/>
<use data-text="4" xlink:href="#font_2_3" transform="matrix(4.981549,0,0,-4.9813997,4.431923,47.72366)"/>
<use data-text="&#x2212;" xlink:href="#font_1_1" transform="matrix(4.981549,0,0,-4.9813997,24.841942,47.72366)"/>
<use data-text="2" xlink:href="#font_2_2" transform="matrix(4.981549,0,0,-4.9813997,28.716637,47.72366)"/>
<use data-text="2" xlink:href="#font_2_2" transform="matrix(4.981549,0,0,-4.9813997,75.34897,47.72366)"/>
<use data-text="4" xlink:href="#font_2_3" transform="matrix(4.981549,0,0,-4.9813997,99.63368,47.72366)"/>
<use data-text="&#x2212;" xlink:href="#font_1_1" transform="matrix(4.981549,0,0,-4.9813997,40.63023,80.91432)"/>
<use data-text="6" xlink:href="#font_2_4" transform="matrix(4.981549,0,0,-4.9813997,44.504926,80.91432)"/>
<use data-text="0" xlink:href="#font_2_1" transform="matrix(4.981549,0,0,-4.9813997,46.995698,80.91432)"/>
<use data-text="&#x2212;" xlink:href="#font_1_1" transform="matrix(4.981549,0,0,-4.9813997,40.63023,68.30557)"/>
<use data-text="4" xlink:href="#font_2_3" transform="matrix(4.981549,0,0,-4.9813997,44.504926,68.30557)"/>
<use data-text="0" xlink:href="#font_2_1" transform="matrix(4.981549,0,0,-4.9813997,46.995698,68.30557)"/>
<use data-text="&#x2212;" xlink:href="#font_1_1" transform="matrix(4.981549,0,0,-4.9813997,40.63023,55.696817)"/>
<use data-text="2" xlink:href="#font_2_2" transform="matrix(4.981549,0,0,-4.9813997,44.504926,55.696817)"/>
<use data-text="0" xlink:href="#font_2_1" transform="matrix(4.981549,0,0,-4.9813997,46.995698,55.696817)"/>
<use data-text="2" xlink:href="#font_2_2" transform="matrix(4.981549,0,0,-4.9813997,44.504926,30.686818)"/>
<use data-text="0" xlink:href="#font_2_1" transform="matrix(4.981549,0,0,-4.9813997,46.995698,30.686818)"/>
<use data-text="4" xlink:href="#font_2_3" transform="matrix(4.981549,0,0,-4.9813997,44.504926,18.078064)"/>
<use data-text="0" xlink:href="#font_2_1" transform="matrix(4.981549,0,0,-4.9813997,46.995698,18.078064)"/>
<use data-text="6" xlink:href="#font_2_4" transform="matrix(4.981549,0,0,-4.9813997,44.504926,5.4693148)"/>
<use data-text="0" xlink:href="#font_2_1" transform="matrix(4.981549,0,0,-4.9813997,46.995698,5.4693148)"/>
<g clip-path="url(#clip_3)">
<path transform="matrix(.500025,0,0,-.50001,3.7398873,82.038349)" stroke-width=".79701" stroke-linecap="butt" stroke-miterlimit="10" stroke-linejoin="miter" fill="none" stroke="#0000ff" d="M0 0 .3893 .96642 .77861 1.92497 1.16792 2.87589 1.55725 3.81918 1.94656 4.75479 2.33586 5.68274 2.72519 6.60307 3.11452 7.51593 3.50381 8.42122 3.89314 9.31897 4.28246 10.20932 4.67177 11.09222 5.06108 11.96767 5.45041 12.83583 5.8397 13.69661 6.22903 14.55006 6.61835 15.3962 7.00766 16.23514 7.39697 17.06694 7.7863 17.89145 8.1756 18.70876 8.56493 19.51907 8.95424 20.32222 9.34355 21.11826 9.73286 21.90741 10.12218 22.68948 10.51149 23.46461 10.90082 24.23271 11.29012 24.99403 11.67944 25.74846 12.06876 26.49602 12.45807 27.23668 12.84738 27.97067 13.23671 28.6979 13.626 29.41838 14.01534 30.13216 14.40465 30.83934 14.79396 31.53986 15.18327 32.23375 15.5726 32.92116 15.9619 33.602 16.35123 34.2764 16.74054 34.94421 17.12985 35.60565 17.51917 36.26068 17.90848 36.90938 18.2978 37.55168 18.68712 38.18767 19.07642 38.81743 19.46574 39.44092 19.85507 40.05807 20.24437 40.66917 20.63368 41.2741 21.02301 41.87282 21.41232 42.46552 21.80164 43.05217 22.19096 43.63275 22.58026 44.20732 22.96959 44.77594 23.3589 45.33864 23.74821 45.89537 24.13753 46.44627 24.52686 46.99135 24.91615 47.5306 25.30548 48.06406 25.6948 48.59174 26.0841 49.11372 26.47342 49.63005 26.86273 50.14063 27.25204 50.64566 27.64137 51.14508 28.03069 51.63896 28.42 52.12723 28.80931 52.61006 29.19862 53.08742 29.58795 53.55933 29.97726 54.02579 30.36656 54.48692 30.75589 54.9427 31.14522 55.39313 31.53452 55.8383 31.92384 56.27824 32.31316 56.71295 32.70247 57.14244 33.09178 57.56679 33.48111 57.98602 33.8704 58.40016 34.25974 58.80917 34.64905 59.21321 35.03836 59.61226 35.42767 60.00627 35.81699 60.39539 36.2063 60.7796 36.59563 61.15892 36.98492 61.53337 37.37425 61.90305 37.76357 62.26791 38.15288 62.628 38.54219 62.98341 38.93152 63.33412 39.32085 63.68016 39.71013 64.02156 40.09947 64.35838 40.48874 64.69061 40.87808 65.01836 41.26743 65.34158 41.6567 65.6603 42.04605 65.9746 42.43533 66.28445 42.82466 66.58995 43.214 66.89114 43.60329 67.18793 43.99261 67.48051 44.3819 67.76875 44.77122 68.05287 45.16058 68.33275 45.54987 68.60843 45.9392 68.88004 46.32848 69.14749 46.71782 69.41095 47.10715 69.67033 47.49643 69.9257 47.88577 70.1771 48.27504 70.42455 48.6644 70.66809 49.05374 70.90778 49.44301 71.14357 49.83235 71.37558 50.22163 71.60378 50.61096 71.82823 51.0003 72.04897 51.38959 72.26598 51.77892 72.47934 52.1682 72.68907 52.55756 72.89522 52.94688 73.09781 53.33617 73.29681 53.7255 73.49234 54.11478 73.68437 54.50412 73.87299 54.89345 74.05818 55.28273 74.23997 55.67209 74.41846 56.06136 74.59355 56.4507 74.76543 56.84004 74.934 57.22931 75.09937 57.61865 75.26154 58.00793 75.42052 58.39726 75.57642 58.7866 75.72919 59.1759 75.87888 59.56523 76.02553 59.95451 76.16917 60.34386 76.30984 60.73318 76.4476 61.12247 76.58238 61.51181 76.71432 61.90108 76.84338 62.29044 76.96965 62.67975 77.09311 63.06905 77.21382 63.45839 77.3318 63.84766 77.44707 64.237 77.5597 64.62634 77.66968 65.01561 77.77705 65.40495 77.88187 65.79425 77.98413 66.18358 78.0839 66.57292 78.18117 66.9622 78.276 67.35153 78.36842 67.74081 78.45844 68.13016 78.54613 68.51949 78.63148 68.90877 78.71454 69.29811 78.79535 69.6874 78.87392 70.07674 78.9503 70.46608 79.0245 70.85535 79.09659 71.24469 79.16656 71.63396 79.23445 72.0233 79.30031 72.41264 79.36415 72.80191 79.42603 73.19127 79.48593 73.58055 79.54393 73.96988 79.60007 74.35922 79.65431 74.7485 79.70674 75.13783 79.7574 75.52711 79.80627 75.91646 79.85342 76.3058 79.89888 76.69508 79.94267 77.08443 79.98482 77.4737 80.02536 77.86304 80.06433 78.25238 80.10176 78.64165 80.13768 79.03099 80.1721 79.42027 80.20508 79.80962 80.23666 80.19896 80.26683 80.58823 80.29565 80.97757 80.32315 81.36685 80.34935 81.75618 80.3743 82.14552 80.39801 82.5348 80.42052 82.92415 80.44185 83.31343 80.46205 83.70277 80.48116 84.0921 80.49918 84.48138 80.51614 84.87073 80.5321 85.26 80.5471 85.64934 80.56113 86.03868 80.57423 86.42796 80.58646 86.8173 80.59782 87.20659 80.60837 87.59592 80.6181 87.98526 80.62709 88.37454 80.63533 88.76387 80.64287 89.15315 80.64975 89.5425 80.65599 89.93182 80.66162 90.32112 80.66666 90.71045 80.67117 91.09973 80.67517 91.48907 80.67867 91.8784 80.68173 92.26768 80.68437 92.65703 80.68661 93.0463 80.6885 93.43565 80.69006 93.825 80.69133 94.21426 80.69232 94.6036 80.6931 94.99289 80.69366 95.38222 80.69405 95.77156 80.6943 96.16084 80.69443 96.55017 80.69449 96.93947 80.69452H97.32881L97.71814 80.69453 98.10742 80.6946 98.49675 80.69473 98.88603 80.69499 99.27538 80.69537 99.6647 80.69594 100.05399 80.69672 100.44334 80.69771 100.83261 80.69896 101.22195 80.70053 101.6113 80.70242 102.00056 80.70467 102.38991 80.70729 102.77919 80.71036 103.16852 80.71387 103.55786 80.71786 103.94714 80.72237 104.33649 80.7274 104.72577 80.73303 105.11511 80.73926 105.50444 80.74615 105.89372 80.7537 106.28307 80.76193 106.67233 80.77092 107.06168 80.78065 107.45102 80.7912 107.8403 80.80255 108.22964 80.81477 108.61891 80.82788 109.00826 80.8419 109.3976 80.8569 109.78687 80.87286 110.17621 80.88983 110.56549 80.90784 110.95483 80.92694 111.34418 80.94714 111.73346 80.96848 112.12279 80.99098 112.51207 81.0147 112.90141 81.03963 113.29074 81.06584 113.68002 81.09332 114.06938 81.12215 114.45865 81.15231 114.84799 81.18388 115.23734 81.21687 115.6266 81.2513 116.01595 81.2872 116.40521 81.32462 116.79456 81.3636 117.1839 81.40414 117.57318 81.44627 117.96252 81.49007 118.3518 81.53549 118.74113 81.58266 119.13048 81.63155 119.51976 81.68217 119.90909 81.73462 120.29837 81.78885 120.68773 81.84499 121.07704 81.90297 121.46634 81.96289 121.85568 82.02477 122.24495 82.0886 122.6343 82.15445 123.02364 82.22234 123.4129 82.2923 123.80225 82.36436 124.19154 82.43857 124.58087 82.51497 124.97021 82.59352 125.35948 82.67433 125.74883 82.75739 126.1381 82.84273 126.52744 82.9304 126.91678 83.02045 127.30606 83.11284 127.69539 83.20767 128.08469 83.30493 128.47403 83.40471 128.86336 83.50697 129.25264 83.61176 129.64199 83.71913 130.03125 83.8291 130.4206 83.94171 130.80994 84.057 131.1992 84.17497 131.58856 84.29567 131.97785 84.41911 132.36717 84.54538 132.75652 84.67447 133.1458 84.80637 133.53513 84.94118 133.92441 85.07889 134.31374 85.21956 134.7031 85.3632 135.09238 85.50986 135.4817 85.65955 135.87099 85.8123 136.26033 85.96819 136.64966 86.12718 137.03894 86.28932 137.42829 86.4547 137.81755 86.62325 138.20691 86.79509 138.59626 86.97023 138.98552 87.14868 139.37487 87.33049 139.76415 87.51564 140.15348 87.70427 140.54282 87.8963 140.9321 88.09181 141.32144 88.29083 141.71073 88.49336 142.10007 88.69951 142.4894 88.90927 142.87868 89.12259 143.268 89.33963 143.65729 89.56035 144.04663 89.78479 144.43596 90.013 144.82524 90.24496 145.2146 90.4808 145.60387 90.72041 145.99321 90.96397 146.38256 91.21144 146.77182 91.46281 147.16117 91.71819 147.55045 91.97754 147.93978 92.24095 148.32912 92.50845 148.71842 92.78003 149.10774 93.05573 149.49703 93.33559 149.88637 93.61964 150.2757 93.90794 150.66498 94.20047 151.05432 94.49733 151.44359 94.79842 151.83295 95.10394 152.22228 95.41383 152.61156 95.72809 153.0009 96.04681 153.39017 96.37 153.77951 96.69771 154.16886 97.02998 154.55812 97.36673 154.94747 97.70819 155.33676 98.05418 155.72609 98.40489 156.11544 98.76028 156.50472 99.12036 156.89405 99.48523 157.28333 99.85486 157.67267 100.22935 158.062 100.60867 158.45128 100.99283 158.84062 101.38196 159.2299 101.77596 159.61925 102.17499 160.00859 102.57904 160.39786 102.98802 160.7872 103.40218 161.17647 103.82137 161.56581 104.2457 161.95516 104.67522 162.34442 105.10988 162.73378 105.5498 163.12306 105.99493 163.51239 106.44543 163.90174 106.9012 164.29102 107.36227 164.68035 107.82877 165.06963 108.30063 165.45897 108.77797 165.84832 109.26083 166.2376 109.74907 166.62694 110.24297 167.0162 110.74232 167.40555 111.24734 167.79489 111.75798 168.18416 112.27422 168.5735 112.7962 168.96279 113.32385 169.35213 113.85732 169.74147 114.3966 170.13074 114.9416 170.52008 115.49251 170.90937 116.04924 171.29869 116.61191 171.68804 117.18054 172.07732 117.75507 172.46666 118.33572 172.85594 118.92223 173.24529 119.51497 173.63462 120.11374 174.0239 120.71858 174.41324 121.32967 174.8025 121.94682 175.19185 122.57039 175.58119 123.20007 175.97048 123.83604 176.35982 124.47835 176.7491 125.12695 177.13843 125.78197 177.52777 126.44348 177.91706 127.11127 178.30638 127.78568 178.69567 128.46636 179.085 129.15383 179.47434 129.84774 179.86363 130.54824 180.25296 131.25539 180.64225 131.96909 181.03159 132.68962 181.42092 133.41687 181.8102 134.15077 182.19954 134.89157 182.58882 135.63904 182.97817 136.39345 183.36751 137.15471 183.75678 137.92279 184.14612 138.69802 184.5354 139.47994 184.92473 140.2691 185.31407 141.06516 185.70336 141.86827 186.09268 142.67852 186.48198 143.4959 186.87133 144.32039 187.26065 145.15219 187.64994 145.99102 188.03926 146.83725 188.42855 147.69066 188.81789 148.55144 189.20722 149.41951 189.5965 150.29494 189.98586 151.17794 190.37512 152.06809 190.76447 152.96595 191.15381 153.87133 191.54308 154.78404 191.93242 155.70439 192.3217 156.63231 192.71103 157.56792 193.10039 158.51122 193.48967 159.46199 193.879 160.42076 194.26828 161.387"/>
</g>
</svg>
