<svg xmlns="http://www.w3.org/2000/svg" xmlns:xlink="http://www.w3.org/1999/xlink" version="1.1" width="103" height="87" viewBox="0 0 103 87">
<defs>
<path id="font_1_1" d="M.6589966 .23046875C.6759949 .23046875 .69400027 .23046875 .69400027 .25045777 .69400027 .27046205 .6759949 .27046205 .6589966 .27046205H.117996219C.100997928 .27046205 .08299255 .27046205 .08299255 .25045777 .08299255 .23046875 .100997928 .23046875 .117996219 .23046875H.6589966Z"/>
<path id="font_2_3" d="M.1269989 .07699585 .23298645 .18003845C.3889923 .31811524 .44898988 .3721466 .44898988 .47216798 .44898988 .5860901 .35899354 .6660156 .23699951 .6660156 .12399292 .6660156 .049987794 .57411196 .049987794 .48516847 .049987794 .4291687 .099990848 .4291687 .102996829 .4291687 .11999512 .4291687 .15499878 .44117738 .15499878 .48217774 .15499878 .5081787 .13699341 .5341797 .101989749 .5341797 .09399414 .5341797 .09199524 .5341797 .08898926 .5331726 .11199951 .59806826 .1659851 .63500979 .22399903 .63500979 .31498719 .63500979 .35798646 .5541382 .35798646 .47216798 .35798646 .39215089 .30799867 .31311036 .25299073 .25108338L.06098938 .036987306C.049987794 .025985718 .049987794 .023986817 .049987794 0H.42099L.44898988 .17404175H.42399598C.4189911 .14402771 .4119873 .1000061 .4019928 .084991458 .394989 .07699585 .32899476 .07699585 .30699159 .07699585H.1269989Z"/>
<path id="font_2_2" d="M.2939911 .64004519C.2939911 .66400149 .2939911 .6660156 .2709961 .6660156 .20899964 .60227969 .12098694 .60227969 .08898926 .60227969V.57128909C.10899353 .57128909 .16799927 .57128909 .21998596 .5972748V.07902527C.21998596 .042999269 .21699524 .0309906 .1269989 .0309906H.09498596V0C.12998963 .0029907227 .21699524 .0029907227 .25698854 .0029907227 .29699708 .0029907227 .38398744 .0029907227 .4189911 0V.0309906H.3869934C.29699708 .0309906 .2939911 .041992189 .2939911 .07902527V.64004519Z"/>
<path id="font_3_1" d="M.20298767 .0009918213C.20298767 .066986087 .17799378 .10598755 .13899231 .10598755 .10598755 .10598755 .085998538 .08099365 .085998538 .052993776 .085998538 .025985718 .10598755 0 .13899231 0 .15098572 0 .1639862 .0039978029 .17399597 .0129852299 .1769867 .01499939 .17799378 .015991211 .1789856 .015991211 .17999268 .015991211 .18099976 .01499939 .18099976 .0009918213 .18099976-.07316589 .1459961-.13328552 .11299133-.16635132 .101989749-.17736817 .101989749-.17936707 .101989749-.18237305 .101989749-.18936157 .10699463-.19335938 .11199951-.19335938 .12298584-.19335938 .20298767-.116256717 .20298767 .0009918213Z"/>
<path id="font_2_1" d="M.45999146 .31976319C.45999146 .39982606 .45498658 .47988893 .41999818 .5539398 .37399293 .65000918 .2919922 .6660156 .25 .6660156 .18998719 .6660156 .116989139 .64001467 .07598877 .54693606 .04399109 .47789 .038986207 .39982606 .038986207 .31976319 .038986207 .24472046 .042999269 .15464783 .083999637 .07859802 .1269989-.0024719239 .19999695-.022460938 .24899292-.022460938 .30299378-.022460938 .3789978-.0014648438 .4229889 .09359741 .45498658 .16265869 .45999146 .2407074 .45999146 .31976319M.24899292-.00047302247C.20999146-.00047302247 .15098572 .024551392 .1329956 .12062073 .12199402 .18066406 .12199402 .2727356 .12199402 .3317871 .12199402 .39582826 .12199402 .46188355 .12998963 .5159149 .14898682 .63500979 .22399903 .64401248 .24899292 .64401248 .28199769 .64401248 .34799195 .6259918 .36698915 .52693179 .3769989 .47088624 .3769989 .39482118 .3769989 .3317871 .3769989 .25672914 .3769989 .18867493 .3659973 .12461853 .35099793 .029556275 .2939911-.00047302247 .24899292-.00047302247Z"/>
<path id="font_2_4" d="M.44898988 .20022583C.44898988 .3193512 .36698915 .41944886 .25898744 .41944886 .21099854 .41944886 .16799927 .40345765 .13198853 .36842347V.5637665C.1519928 .5577698 .18499756 .55078127 .21699524 .55078127 .33999635 .55078127 .4099884 .6417694 .4099884 .6547699 .4099884 .6607666 .40699769 .6657715 .3999939 .6657715 .39898683 .6657715 .39698792 .6657715 .3919983 .66278079 .37199403 .6537781 .32299806 .6337738 .2559967 .6337738 .21598816 .6337738 .16999817 .6407776 .12298584 .6617737 .114990238 .66477969 .11299133 .66477969 .11099243 .66477969 .100997928 .66477969 .100997928 .6567688 .100997928 .6407776V.34439088C.100997928 .32637025 .100997928 .31835938 .114990238 .31835938 .12199402 .31835938 .12399292 .32136537 .12799073 .32736207 .13899231 .3433838 .17599488 .39746095 .25698854 .39746095 .30899049 .39746095 .33399964 .35139466 .34199525 .33337403 .35798646 .29632569 .3600006 .25727845 .3600006 .20722962 .3600006 .17222595 .3600006 .11222839 .33599855 .07035828 .31199647 .031463624 .2749939 .0055389406 .22898865 .0055389406 .1559906 .0055389406 .09899902 .058380128 .08198547 .11723328 .084991458 .1162262 .08799744 .115234378 .09899902 .115234378 .13198853 .115234378 .14898682 .14022827 .14898682 .16423035 .14898682 .18823242 .13198853 .21322632 .09899902 .21322632 .084991458 .21322632 .049987794 .20622254 .049987794 .16023255 .049987794 .07434082 .11898804-.022460938 .23098755-.022460938 .34700013-.022460938 .44898988 .073349 .44898988 .20022583Z"/>
<clipPath id="clip_4">
<path transform="matrix(.500025,0,0,-.500025,3.7398873,84.0495)" d="M0 0H194.27114V161.39478H0Z"/>
</clipPath>
</defs>
<path transform="matrix(.500025,0,0,-.500025,3.7398873,84.0495)" stroke-width=".19925" stroke-linecap="butt" stroke-miterlimit="10" stroke-linejoin="miter" fill="none" stroke="#929292" d="M0 78.62396V82.87566M48.56728 78.62396V82.87566M145.70183 78.62396V82.87566M194.26912 78.62396V82.87566"/>
<path transform="matrix(.500025,0,0,-.500025,3.7398873,84.0495)" stroke-width=".19925" stroke-linecap="butt" stroke-miterlimit="10" stroke-linejoin="miter" fill="none" stroke="#929292" d="M95.00867 .10483H99.26042M95.00867 40.4273H99.26042M95.00867 121.07228H99.26042M95.00867 161.39478H99.26042"/>
<path transform="matrix(.500025,0,0,-.500025,3.7398873,84.0495)" stroke-width=".3985" stroke-linecap="butt" stroke-miterlimit="10" stroke-linejoin="miter" fill="none" stroke="#000000" d="M0 80.7498H192.27861"/>
<path transform="matrix(.500025,0,0,-.500025,99.88399,43.67258)" d="M1.99252 0-1.19551 1.59401 0 0-1.19551-1.59401"/>
<path transform="matrix(.500025,0,0,-.500025,3.7398873,84.0495)" stroke-width=".3985" stroke-linecap="butt" stroke-miterlimit="10" stroke-linejoin="miter" fill="none" stroke="#000000" d="M97.13455 0V159.40225"/>
<path transform="matrix(0,-.500025,-.500025,-0,52.30959,4.344391)" d="M1.99252 0-1.19551 1.59401 0 0-1.19551-1.59401"/>
<use data-text="&#x2212;" xlink:href="#font_1_1" transform="matrix(4.981549,0,0,-4.981549,.5572281,49.705785)"/>
<use data-text="2" xlink:href="#font_2_3" transform="matrix(4.981549,0,0,-4.981549,4.431923,49.705785)"/>
<use data-text="&#x2212;" xlink:href="#font_1_1" transform="matrix(4.981549,0,0,-4.981549,24.841942,49.705785)"/>
<use data-text="1" xlink:href="#font_2_2" transform="matrix(4.981549,0,0,-4.981549,28.716637,49.705785)"/>
<use data-text="1" xlink:href="#font_2_2" transform="matrix(4.981549,0,0,-4.981549,75.34897,49.705785)"/>
<use data-text="2" xlink:href="#font_2_3" transform="matrix(4.981549,0,0,-4.981549,99.63368,49.705785)"/>
<use data-text="&#x2212;" xlink:href="#font_1_1" transform="matrix(4.981549,0,0,-4.981549,34.26491,85.11806)"/>
<use data-text="1" xlink:href="#font_2_2" transform="matrix(4.981549,0,0,-4.981549,38.139608,85.11806)"/>
<use data-text="," xlink:href="#font_3_1" transform="matrix(4.981549,0,0,-4.981549,40.63023,85.11806)"/>
<use data-text="0" xlink:href="#font_2_1" transform="matrix(4.981549,0,0,-4.981549,42.013799,85.11806)"/>
<use data-text="0" xlink:href="#font_2_1" transform="matrix(4.981549,0,0,-4.981549,44.504575,85.11806)"/>
<use data-text="0" xlink:href="#font_2_1" transform="matrix(4.981549,0,0,-4.981549,46.99535,85.11806)"/>
<use data-text="&#x2212;" xlink:href="#font_1_1" transform="matrix(4.981549,0,0,-4.981549,38.139604,65.23256)"/>
<use data-text="5" xlink:href="#font_2_4" transform="matrix(4.981549,0,0,-4.981549,42.014299,65.23256)"/>
<use data-text="0" xlink:href="#font_2_1" transform="matrix(4.981549,0,0,-4.981549,44.50507,65.23256)"/>
<use data-text="0" xlink:href="#font_2_1" transform="matrix(4.981549,0,0,-4.981549,46.995847,65.23256)"/>
<use data-text="5" xlink:href="#font_2_4" transform="matrix(4.981549,0,0,-4.981549,42.014299,25.115555)"/>
<use data-text="0" xlink:href="#font_2_1" transform="matrix(4.981549,0,0,-4.981549,44.50507,25.115555)"/>
<use data-text="0" xlink:href="#font_2_1" transform="matrix(4.981549,0,0,-4.981549,46.995847,25.115555)"/>
<use data-text="1" xlink:href="#font_2_2" transform="matrix(4.981549,0,0,-4.981549,38.139604,4.4690248)"/>
<use data-text="," xlink:href="#font_3_1" transform="matrix(4.981549,0,0,-4.981549,40.630228,4.4690248)"/>
<use data-text="0" xlink:href="#font_2_1" transform="matrix(4.981549,0,0,-4.981549,42.014299,4.4690248)"/>
<use data-text="0" xlink:href="#font_2_1" transform="matrix(4.981549,0,0,-4.981549,44.50507,4.4690248)"/>
<use data-text="0" xlink:href="#font_2_1" transform="matrix(4.981549,0,0,-4.981549,46.995847,4.4690248)"/>
<g clip-path="url(#clip_4)">
<path transform="matrix(.500025,0,0,-.500025,3.7398873,84.0495)" stroke-width=".79701" stroke-linecap="butt" stroke-miterlimit="10" stroke-linejoin="miter" fill="none" stroke="#0000ff" d="M0 80.73972 .1849 80.73965 .36984 80.7396 .55478 80.73955 .7397 80.73949 .92462 80.73943 1.10956 80.73936 1.29448 80.7393 1.47942 80.73924 1.66435 80.7392 1.84929 80.73914 2.0342 80.73906 2.21913 80.739 2.40407 80.73894 2.58899 80.73888 2.77393 80.7388 2.95886 80.73874 3.1438 80.73868 3.3287 80.73862 3.51364 80.73854 3.69858 80.73848 3.8835 80.73842 4.06844 80.73836 4.25337 80.73828 4.4383 80.7382 4.62321 80.73814 4.80815 80.73807 4.99309 80.73799 5.17801 80.73793 5.36295 80.73785 5.54788 80.73778 5.73279 80.7377 5.91772 80.73764 6.10266 80.73756 6.2876 80.73749 6.4725 80.73741 6.65746 80.73732 6.84238 80.73724 7.0273 80.73718 7.21223 80.73709 7.39717 80.73701 7.5821 80.73694 7.76701 80.73686 7.95197 80.73679 8.13689 80.7367 8.32181 80.7366 8.50674 80.73653 8.69168 80.73645 8.8766 80.73636 9.06152 80.73628 9.24646 80.73619 9.4314 80.7361 9.61632 80.73602 9.80125 80.73593 9.98619 80.73584 10.1711 80.73575 10.35603 80.73566 10.54097 80.73557 10.7259 80.73547 10.91083 80.73538 11.09576 80.73529 11.28069 80.7352 11.4656 80.73512 11.65054 80.73502 11.83548 80.73492 12.02042 80.73482 12.20534 80.73473 12.39027 80.73462 12.5752 80.73453 12.76012 80.73442 12.94505 80.73433 13.12999 80.73422 13.31493 80.73412 13.49985 80.73402 13.68477 80.7339 13.8697 80.7338 14.05463 80.7337 14.23956 80.73358 14.42448 80.73347 14.60942 80.73337 14.79434 80.73325 14.97928 80.73314 15.16422 80.73303 15.34914 80.73293 15.53407 80.73279 15.719 80.73268 15.90393 80.73256 16.08885 80.73245 16.27379 80.73233 16.45872 80.73221 16.64365 80.73209 16.82857 80.73195 17.0135 80.73183 17.19843 80.7317 17.38336 80.73158 17.5683 80.73146 17.75323 80.73132 17.93816 80.73119 18.12308 80.73108 18.30801 80.73094 18.49294 80.7308 18.67789 80.73067 18.8628 80.73055 19.04773 80.73041 19.23265 80.73027 19.41759 80.73013 19.60254 80.72998 19.78745 80.72984 19.97238 80.72969 20.1573 80.72955 20.34224 80.7294 20.52718 80.72925 20.7121 80.72911 20.89703 80.72896 21.08194 80.72879 21.26689 80.72865 21.45183 80.72849 21.63673 80.72833 21.82169 80.72818 22.00659 80.72801 22.19154 80.72784 22.37646 80.72769 22.56139 80.72752 22.74634 80.72736 22.93123 80.72717 23.11618 80.72702 23.30113 80.72685 23.48604 80.72668 23.67097 80.7265 23.8559 80.72633 24.04083 80.72615 24.22577 80.72597 24.41068 80.72578 24.59563 80.7256 24.78053 80.72542 24.96547 80.72523 25.15042 80.72504 25.33534 80.72485 25.52028 80.72466 25.70518 80.72446 25.89014 80.72426 26.07506 80.72406 26.25998 80.72385 26.44492 80.72365 26.62984 80.72343 26.81477 80.72322 26.99971 80.72302 27.18463 80.72282 27.36957 80.7226 27.55449 80.72238 27.73943 80.72215 27.92436 80.72194 28.10927 80.72171 28.29422 80.7215 28.47914 80.72125 28.66406 80.72102 28.84901 80.72078 29.03394 80.72055 29.21886 80.7203 29.40378 80.72006 29.58871 80.71982 29.77367 80.71957 29.95857 80.71931 30.14351 80.71907 30.32843 80.71883 30.51337 80.71857 30.6983 80.7183 30.88322 80.71803 31.06818 80.71776 31.25307 80.71748 31.43802 80.71722 31.62296 80.71695 31.80786 80.71666 31.9928 80.71638 32.17772 80.7161 32.36266 80.7158 32.5476 80.7155 32.73253 80.71521 32.91747 80.7149 33.10237 80.71461 33.28731 80.71431 33.47226 80.714 33.65715 80.71368 33.8421 80.71336 34.02702 80.71304 34.21196 80.7127 34.3969 80.71239 34.58182 80.71207 34.76675 80.71172 34.95166 80.71136 35.13661 80.71103 35.32155 80.71068 35.50647 80.71033 35.69139 80.70998 35.87631 80.70961 36.06126 80.70924 36.24619 80.70888 36.4311 80.70851 36.61606 80.70811 36.80096 80.70773 36.9859 80.70734 37.17084 80.70695 37.35576 80.70657 37.5407 80.70616 37.72562 80.70573 37.91055 80.70534 38.09549 80.70491 38.28041 80.70448 38.46535 80.70406 38.65027 80.70361 38.83519 80.70317 39.02014 80.70273 39.20505 80.70229 39.38998 80.70183 39.5749 80.70135 39.75986 80.7009 39.9448 80.70041 40.1297 80.69992 40.31465 80.69943 40.49956 80.69894 40.6845 80.69843 40.86943 80.69794 41.05435 80.69742 41.23929 80.6969 41.4242 80.69637 41.60915 80.69583 41.7941 80.69528 41.97899 80.69475 42.16394 80.69418 42.34886 80.69362 42.53378 80.69305 42.71873 80.69247 42.90364 80.69188 43.0886 80.69127 43.2735 80.69067 43.45844 80.69006 43.64339 80.68945 43.8283 80.68881 44.01323 80.68817 44.19815 80.68752 44.38309 80.68687 44.56802 80.68619 44.75294 80.68552 44.93788 80.68484 45.12279 80.68414 45.30774 80.68344 45.49268 80.68272 45.6776 80.682 45.86253 80.68126 46.04744 80.68051 46.23239 80.67976 46.41731 80.67899 46.60223 80.6782 46.78719 80.67741 46.97209 80.6766 47.15703 80.6758 47.34198 80.67496 47.5269 80.67412 47.71182 80.67328 47.89674 80.67241 48.08168 80.67152 48.26662 80.67064 48.45152 80.66974 48.63649 80.66881 48.8214 80.66788 49.00633 80.66692 49.19127 80.66595 49.37619 80.665 49.56111 80.664 49.74603 80.66298 49.93098 80.66196 50.11592 80.66092 50.30083 80.65987 50.48578 80.65878 50.6707 80.6577 50.85562 80.65659 51.04057 80.65547 51.22548 80.65433 51.41042 80.65317 51.59534 80.65198 51.78027 80.65077 51.96523 80.64954 52.15013 80.64832 52.33507 80.64705 52.51999 80.64577 52.70493 80.64447 52.88986 80.64314 53.07478 80.64178 53.25972 80.64043 53.44463 80.63902 53.62958 80.63759 53.81451 80.63617 53.99942 80.63469 54.18437 80.6332 54.36928 80.63168 54.55423 80.63013 54.73915 80.62856 54.92407 80.62695 55.10902 80.62532 55.29391 80.62367 55.47887 80.62198 55.66382 80.62027 55.84872 80.61852 56.03366 80.61674 56.21858 80.61493 56.40352 80.61308 56.58846 80.6112 56.77336 80.60928 56.95831 80.60735 57.14322 80.60536 57.32816 80.60333 57.5131 80.60127 57.69803 80.59917 57.88295 80.59703 58.06787 80.59485 58.25282 80.59264 58.43774 80.59036 58.62267 80.58807 58.8076 80.58571 58.99252 80.58331 59.17746 80.58086 59.3624 80.57837 59.54732 80.57584 59.73225 80.57323 59.91718 80.57059 60.10211 80.56789 60.28705 80.56514 60.47195 80.56233 60.6569 80.55946 60.84183 80.55653 61.02675 80.55356 61.2117 80.5505 61.39662 80.5474 61.58154 80.54422 61.76646 80.54099 61.9514 80.53767 62.13635 80.53429 62.32126 80.53085 62.5062 80.52728 62.69112 80.5237 62.87605 80.52002 63.06099 80.51627 63.24591 80.51242 63.43086 80.5085 63.61575 80.50447 63.8007 80.50037 63.98564 80.49617 64.17055 80.49188 64.35548 80.48749 64.5404 80.48299 64.72534 80.4784 64.9103 80.47371 65.0952 80.46892 65.28015 80.46399 65.46506 80.45894 65.65 80.45378 65.83495 80.4485 66.01984 80.4431 66.20479 80.43758 66.38971 80.4319 66.57465 80.42609 66.75958 80.42015 66.9445 80.41405 67.12944 80.4078 67.31435 80.40141 67.4993 80.39484 67.68423 80.3881 67.86916 80.38121 68.05408 80.37415 68.239 80.36688 68.42395 80.35945 68.60887 80.35178 68.7938 80.34393 68.97874 80.33589 69.16365 80.3276 69.34859 80.31914 69.53352 80.31044 69.71844 80.3015 69.90338 80.29227 70.08829 80.28284 70.27324 80.27313 70.45818 80.26314 70.6431 80.25288 70.82803 80.24232 71.01295 80.23148 71.19788 80.2203 71.38283 80.20882 71.56773 80.197 71.75267 80.18481 71.93759 80.17227 72.12254 80.1594 72.30748 80.14609 72.49239 80.1324 72.67734 80.11829 72.86224 80.10374 73.04718 80.08876 73.23212 80.07329 73.41704 80.05733 73.60197 80.04088 73.78688 80.02391 73.97183 80.00636 74.15678 79.98827 74.34167 79.9696 74.52663 79.95029 74.71155 79.93037 74.89647 79.90973 75.08142 79.88843 75.26633 79.86641 75.45128 79.8436 75.63618 79.81998 75.82112 79.79562 76.00607 79.7703 76.19098 79.74408 76.37592 79.71698 76.56084 79.68892 76.74577 79.6598 76.93071 79.62964 77.11563 79.59827 77.30057 79.56578 77.48547 79.5319 77.67043 79.497 77.85536 79.46054 78.04028 79.42262 78.22522 79.38344 78.41013 79.34256 78.59508 79.29996 78.78 79.25569 78.96492 79.20964 79.14987 79.16167 79.33476 79.11157 79.51971 79.0595 79.70467 79.00513 79.88959 78.94843 80.07451 78.88908 80.25943 78.82732 80.44437 78.76271 80.6293 78.69513 80.81421 78.62456 80.99916 78.55061 81.18408 78.47319 81.36902 78.39206 81.55396 78.30714 81.73888 78.21812 81.9238 78.12465 82.10872 78.0265 82.29367 77.92352 82.4786 77.81512 82.66351 77.70111 82.84845 77.58127 83.03337 77.4549 83.2183 77.32175 83.40326 77.18135 83.58817 77.03328 83.7731 76.87674 83.95801 76.71143 84.14296 76.5365 84.3279 76.35143 84.5128 76.15521 84.69775 75.94707 84.88268 75.72643 85.0676 75.49191 85.25255 75.24257 85.43747 74.97723 85.6224 74.69458 85.80731 74.39296 85.99225 74.07127 86.1772 73.72725 86.3621 73.35942 86.54704 72.96538 86.73196 72.54338 86.91692 72.08934 87.10184 71.60063 87.28676 71.07645 87.47171 70.51031 87.6566 69.89902 87.84155 69.23773 88.02649 68.5216 88.2114 67.74661 88.39635 66.90387 88.58125 65.98613 88.7662 64.98532 88.95114 63.89098 89.13605 62.695 89.321 61.3821 89.5059 59.94017 89.69084 58.34985 89.8758 56.59421 90.0607 54.64986 90.24564 52.49019 90.43056 50.08698 90.61551 47.4031 90.80043 44.39586 90.98535 41.01683 91.17029 37.20474 91.35521 32.89024 91.54013 27.98541 91.72508 22.38704 91.91 15.96689 92.09492 8.57013 92.27985 0"/>
<path transform="matrix(.500025,0,0,-.500025,3.7398873,84.0495)" stroke-width=".79701" stroke-linecap="butt" stroke-miterlimit="10" stroke-linejoin="miter" fill="none" stroke="#0000ff" d="M101.99129 161.39478 102.1762 152.84239 102.36113 145.45691 102.54607 139.04724 102.73099 133.45615 102.91592 128.55857 103.10086 124.2497 103.28578 120.44327 103.4707 117.06827 103.65564 114.06584 103.84058 111.3844 104.0255 108.9836 104.21043 106.82716 104.39536 104.88443 104.58029 103.132 104.76521 101.54329 104.95015 100.10136 105.13509 98.79088 105.32 97.59492 105.50494 96.50299 105.68987 95.503 105.8748 94.58606 106.05972 93.74413 106.24466 92.96912 106.42958 92.2538 106.61452 91.59332 106.79944 90.98285 106.98438 90.4167 107.1693 89.89253 107.35423 89.40543 107.53917 88.953 107.72409 88.52963 107.90903 88.13576 108.09395 87.76834 108.27888 87.42462 108.4638 87.10309 108.64874 86.80188 108.83366 86.51932 109.0186 86.25414 109.20352 86.00511 109.38846 85.77075 109.5734 85.55019 109.75832 85.34221 109.94325 85.14616 110.12817 84.96109 110.31311 84.78624 110.49803 84.621 110.68297 84.46472 110.8679 84.31657 111.05283 84.1764 111.23775 84.04326 111.42268 83.91698 111.6076 83.79721 111.79254 83.68326 111.97748 83.57503 112.16241 83.47197 112.34734 83.37398 112.53226 83.28053 112.7172 83.1914 112.90211 83.10657 113.08705 83.02562 113.27199 82.9482 113.45692 82.87431 113.64183 82.80367 113.82677 82.73608 114.0117 82.67165 114.19662 82.60979 114.38156 82.55061 114.5665 82.49384 114.75143 82.43956 114.93634 82.38737 115.12128 82.33746 115.30621 82.28947 115.49113 82.24342 115.67606 82.19916 115.86101 82.15657 116.04591 82.11568 116.23085 82.07642 116.41579 82.03867 116.60072 82.00221 116.78563 81.9673 116.97057 81.93343 117.15552 81.90102 117.34042 81.86972 117.52536 81.83948 117.7103 81.81044 117.89523 81.78221 118.08014 81.75513 118.26508 81.72906 118.45001 81.70375 118.63493 81.67932 118.81987 81.65576 119.0048 81.63295 119.18973 81.61093 119.37465 81.58963 119.55959 81.56915 119.74452 81.5491 119.92944 81.5298 120.11438 81.51111 120.29932 81.49304 120.48422 81.47551 120.66917 81.45853 120.8541 81.4421 121.03903 81.42615 121.22394 81.41069 121.40889 81.39569 121.59383 81.38115 121.77873 81.36707 121.96368 81.35336 122.14859 81.34006 122.33354 81.32718 122.51846 81.31464 122.70338 81.30249 122.88834 81.29065 123.07323 81.27917 123.25818 81.268 123.44313 81.25717 123.62804 81.24661 123.81297 81.23636 123.99788 81.22636 124.18283 81.21666 124.36775 81.20723 124.55267 81.19803 124.73763 81.18907 124.92253 81.18036 125.10748 81.17189 125.29242 81.16362 125.47734 81.15556 125.66226 81.14772 125.84718 81.14009 126.03212 81.13263 126.21706 81.1254 126.40198 81.11832 126.58691 81.11142 126.77184 81.10469 126.95677 81.09814 127.14172 81.09172 127.32663 81.08548 127.51157 81.07939 127.69647 81.07346 127.88142 81.06764 128.06636 81.06197 128.25127 81.05644 128.43622 81.05104 128.62114 81.04576 128.80606 81.04062 128.99102 81.03557 129.17592 81.03065 129.36086 81.02585 129.54578 81.02115 129.73072 81.01657 129.91567 81.01207 130.10057 81.00768 130.2855 81.00339 130.47043 80.99919 130.65537 80.99509 130.8403 80.99106 131.02523 80.98714 131.21016 80.9833 131.39507 80.97954 131.58 80.97586 131.76496 80.97224 131.94986 80.96872 132.13481 80.96527 132.31972 80.9619 132.50467 80.95859 132.6896 80.95535 132.87451 80.95218 133.05947 80.94907 133.24436 80.94601 133.4293 80.94304 133.61425 80.9401 133.79917 80.93724 133.9841 80.93443 134.16902 80.93169 134.35398 80.92899 134.5389 80.92635 134.72382 80.92375 134.90876 80.9212 135.09366 80.91873 135.2786 80.91628 135.46355 80.91388 135.64847 80.91151 135.83339 80.90923 136.01831 80.90694 136.20326 80.90472 136.38819 80.90256 136.5731 80.9004 136.75804 80.89832 136.94297 80.89626 137.1279 80.89424 137.31284 80.89224 137.49776 80.8903 137.6827 80.88838 137.86762 80.88649 138.05255 80.88466 138.23749 80.88284 138.4224 80.88107 138.60735 80.87932 138.79225 80.8776 138.97719 80.87592 139.16214 80.87425 139.34706 80.87262 139.53199 80.87102 139.7169 80.86946 139.90186 80.8679 140.08679 80.86638 140.2717 80.8649 140.45664 80.86343 140.64156 80.86198 140.82648 80.86057 141.01143 80.85918 141.19635 80.8578 141.3813 80.85646 141.5662 80.85512 141.75115 80.85382 141.9361 80.85254 142.12099 80.85127 142.30594 80.85002 142.49085 80.84882 142.6758 80.84763 142.86072 80.84644 143.04564 80.84528 143.23059 80.84413 143.4155 80.843 143.60044 80.84189 143.78539 80.8408 143.97028 80.83974 144.15523 80.83867 144.34015 80.83762 144.52509 80.83661 144.71002 80.8356 144.89495 80.8346 145.07988 80.83362 145.26479 80.83267 145.44974 80.83173 145.63468 80.83078 145.8196 80.82985 146.00452 80.82896 146.18944 80.82806 146.37439 80.8272 146.55931 80.82631 146.74423 80.82547 146.92919 80.82463 147.1141 80.8238 147.29903 80.82298 147.48398 80.82217 147.66889 80.8214 147.85382 80.82062 148.03873 80.81985 148.22368 80.81908 148.40862 80.81833 148.59354 80.8176 148.77848 80.81688 148.9634 80.81616 149.14832 80.81546 149.33327 80.81476 149.51819 80.81407 149.70311 80.81339 149.88803 80.81274 150.07297 80.81207 150.25792 80.81143 150.44283 80.81079 150.62778 80.81017 150.81269 80.80952 150.99762 80.80891 151.18256 80.80832 151.36748 80.80772 151.55242 80.80713 151.73732 80.80655 151.92227 80.80597 152.10721 80.8054 152.29212 80.80486 152.47707 80.8043 152.66199 80.80377 152.84691 80.80324 153.03186 80.8027 153.21677 80.80217 153.40172 80.80165 153.58663 80.80115 153.77156 80.80064 153.95652 80.80016 154.14142 80.79967 154.32636 80.7992 154.51128 80.79872 154.69623 80.79823 154.88115 80.79778 155.06607 80.79732 155.251 80.79686 155.43592 80.79642 155.62087 80.79599 155.8058 80.79555 155.99073 80.79512 156.17566 80.7947 156.36057 80.79428 156.54552 80.79385 156.73044 80.79344 156.91536 80.79305 157.10031 80.79265 157.2852 80.79227 157.47016 80.79187 157.6551 80.79149 157.84003 80.7911 158.02495 80.79073 158.20987 80.79034 158.3948 80.79 158.57975 80.78963 158.76465 80.78926 158.9496 80.78891 159.13452 80.78856 159.31945 80.78822 159.5044 80.78789 159.68932 80.78755 159.87424 80.78722 160.05916 80.78688 160.24411 80.78656 160.42905 80.78624 160.61396 80.78592 160.79889 80.7856 160.98381 80.7853 161.16875 80.78497 161.35369 80.78468 161.5386 80.78438 161.72354 80.78409 161.90847 80.7838 162.0934 80.78351 162.27835 80.78323 162.46324 80.78294 162.6482 80.78265 162.83312 80.7824 163.01804 80.7821 163.20299 80.78183 163.38791 80.78157 163.57285 80.7813 163.75775 80.78104 163.94269 80.78078 164.12764 80.78052 164.31255 80.78026 164.49748 80.78003 164.6824 80.77979 164.86736 80.77954 165.05228 80.7793 165.2372 80.77905 165.42215 80.77882 165.60704 80.77858 165.79199 80.77835 165.97693 80.77812 166.16184 80.7779 166.34677 80.77766 166.5317 80.77744 166.71665 80.77722 166.90158 80.77701 167.08649 80.77678 167.27144 80.77658 167.45635 80.77637 167.64128 80.77615 167.82624 80.77596 168.01114 80.77576 168.19608 80.77556 168.381 80.77536 168.56594 80.77516 168.75087 80.77496 168.93579 80.77477 169.12073 80.77458 169.30565 80.77438 169.49059 80.77419 169.67552 80.774 169.86045 80.77382 170.04537 80.77364 170.23029 80.77345 170.41524 80.77328 170.60016 80.7731 170.78508 80.77292 170.97003 80.77275 171.15494 80.77257 171.33988 80.7724 171.52481 80.77225 171.70973 80.77206 171.89467 80.77191 172.07958 80.77174 172.26453 80.77159 172.44948 80.77142 172.63439 80.77129 172.81932 80.77112 173.00424 80.77097 173.18917 80.77081 173.37412 80.77065 173.55902 80.77051 173.74398 80.77036 173.92888 80.7702 174.11383 80.77007 174.29877 80.76991 174.48368 80.76976 174.66863 80.76962 174.85353 80.76947 175.03849 80.76935 175.2234 80.76921 175.40833 80.76907 175.59326 80.76894 175.77817 80.7688 175.96312 80.76866 176.14807 80.76852 176.33296 80.76839 176.51792 80.76826 176.70284 80.76813 176.88777 80.768 177.07271 80.76788 177.25762 80.76778 177.44257 80.76765 177.62747 80.76753 177.81241 80.76741 177.99736 80.76729 178.18228 80.76715 178.3672 80.76704 178.55213 80.76692 178.73706 80.76682 178.922 80.7667 179.10692 80.76657 179.29186 80.76646 179.47678 80.76636 179.66172 80.76625 179.84665 80.76613 180.03157 80.76602 180.2165 80.76591 180.40142 80.7658 180.58637 80.7657 180.77129 80.7656 180.9562 80.76549 181.14116 80.76538 181.32607 80.76527 181.511 80.76518 181.69596 80.76508 181.88088 80.76498 182.0658 80.7649 182.25072 80.76479 182.43566 80.7647 182.6206 80.76459 182.8055 80.7645 182.99045 80.76439 183.17537 80.7643 183.3603 80.7642 183.54524 80.76411 183.73017 80.76402 183.9151 80.76393 184.1 80.76385 184.28496 80.76375 184.4699 80.76367 184.6548 80.7636 184.83974 80.7635 185.02466 80.76341 185.2096 80.76334 185.39455 80.76324 185.57946 80.76315 185.7644 80.76308 185.9493 80.763 186.13425 80.76291 186.31919 80.76283 186.50409 80.76276 186.68904 80.76266 186.87397 80.76259 187.0589 80.76251 187.24384 80.76244 187.42876 80.76236 187.6137 80.76228 187.7986 80.76219 187.98354 80.76212 188.16849 80.76205 188.35341 80.76198 188.53833 80.7619 188.72325 80.76183 188.9082 80.76175 189.09313 80.76167 189.27805 80.76161 189.463 80.76154 189.64789 80.76147 189.83284 80.7614 190.01778 80.76134 190.2027 80.76126 190.38764 80.7612 190.57254 80.76112 190.75749 80.76106 190.94243 80.761 191.12734 80.76093 191.31229 80.76086 191.49721 80.7608 191.68213 80.76073 191.86708 80.76067 192.05199 80.7606 192.23693 80.76054 192.42185 80.76048 192.6068 80.76042 192.79174 80.76036 192.97664 80.7603 193.16158 80.76024 193.3465 80.76018 193.53142 80.7601 193.71637 80.76004 193.90129 80.76 194.08621 80.75993 194.27114 80.75987"/>
</g>
</svg>
