<svg xmlns="http://www.w3.org/2000/svg" xmlns:xlink="http://www.w3.org/1999/xlink" version="1.1" width="463" height="464" viewBox="0 0 463 464">
<defs>
<path id="font_1_3" d="M.33399964 .30233766C.33999635 .32835389 .36299134 .42037965 .43299867 .42037965 .43798829 .42037965 .46199037 .42037965 .48298646 .40734864 .45498658 .402359 .43499757 .37734986 .43499757 .35334779 .43499757 .33735658 .44599916 .31835938 .47299195 .31835938 .49499513 .31835938 .5269928 .3363495 .5269928 .37635804 .5269928 .42837525 .46798707 .4423828 .43399049 .4423828 .37599183 .4423828 .34098817 .38935853 .32899476 .36634828 .3039856 .43237306 .25 .4423828 .22099304 .4423828 .116989139 .4423828 .05999756 .3133545 .05999756 .28834535 .05999756 .27833558 .069992069 .27833558 .07199097 .27833558 .07998657 .27833558 .08299255 .28033448 .084991458 .28933717 .11898804 .39535523 .18499756 .42037965 .21899414 .42037965 .23799134 .42037965 .272995 .4113617 .272995 .35334779 .272995 .32235719 .2559967 .25532533 .21899414 .11528015 .20298767 .053268434 .16799927 .011245728 .12399292 .011245728 .117996219 .011245728 .09498596 .011245728 .07398987 .024276734 .09899902 .029266358 .12098694 .05027771 .12098694 .07827759 .12098694 .105270389 .09899902 .11328125 .083999637 .11328125 .053985597 .11328125 .0289917 .08728027 .0289917 .055267335 .0289917 .009246826 .07899475-.0107421879 .12298584-.0107421879 .18899536-.0107421879 .22499085 .059280397 .22799683 .0652771 .23999024 .028274537 .27598573-.0107421879 .33599855-.0107421879 .43899537-.0107421879 .49598695 .118270877 .49598695 .14328003 .49598695 .1532898 .4869995 .1532898 .48399354 .1532898 .47499085 .1532898 .47299195 .14929199 .47099305 .14228821 .43798829 .03527832 .36999513 .011245728 .33799745 .011245728 .29899598 .011245728 .2829895 .043273927 .2829895 .07727051 .2829895 .09927368 .2889862 .121276859 .2999878 .16529846L.33399964 .30233766Z"/>
<path id="font_1_4" d="M.48599244 .38136292C.48999024 .39537049 .48999024 .39736939 .48999024 .40437318 .48999024 .42237855 .47599793 .43138124 .46099855 .43138124 .45098878 .43138124 .43499757 .42536927 .42599488 .41036988 .42399598 .405365 .41600038 .37435914 .4119873 .35635377 .40499879 .33035279 .397995 .30334474 .3919983 .27633668L.34700013 .09628296C.34298707 .08126831 .2999878 .011245728 .23399353 .011245728 .18299866 .011245728 .17199707 .055267335 .17199707 .0922699 .17199707 .1382904 .18899536 .20030213 .22299195 .28833009 .23899842 .3293457 .24299622 .3403473 .24299622 .36035157 .24299622 .405365 .21099854 .4423828 .16099549 .4423828 .06599426 .4423828 .0289917 .29733277 .0289917 .28833009 .0289917 .27833558 .038986207 .27833558 .040985109 .27833558 .050994874 .27833558 .051986696 .28033448 .056991579 .29634095 .083999637 .3903656 .12399292 .42037965 .1579895 .42037965 .1659851 .42037965 .18299866 .42037965 .18299866 .3883667 .18299866 .36335755 .17298889 .3373413 .1659851 .31834413 .12599182 .21231079 .10798645 .1552887 .10798645 .10827637 .10798645 .019256592 .17098999-.0107421879 .22999573-.0107421879 .2689972-.0107421879 .30299378 .0062561037 .33099366 .03425598 .31799317-.017745972 .30599977-.06674194 .2659912-.11973572 .23999024-.15385437 .20199585-.18309021 .1559906-.18309021 .14199829-.18309021 .09700012-.18005371 .07998657-.14074707 .09599304-.14074707 .10899353-.14074707 .12298584-.1287384 .1329956-.11973572 .14299011-.10673523 .14299011-.08773804 .14299011-.056747438 .115997318-.052734376 .10598755-.052734376 .08299255-.052734376 .049987794-.068740848 .049987794-.11773682 .049987794-.16796875 .09399414-.20507813 .1559906-.20507813 .25898744-.20507813 .3619995-.11373901 .3899994-.00074768069L.48599244 .38136292Z"/>
<path id="font_2_3" d="M.45999146 .31976319C.45999146 .39982606 .45498658 .47988893 .41999818 .5539398 .37399293 .65000918 .2919922 .6660156 .25 .6660156 .18998719 .6660156 .116989139 .64001467 .07598877 .54693606 .04399109 .47789 .038986207 .39982606 .038986207 .31976319 .038986207 .24472046 .042999269 .15464783 .083999637 .07859802 .1269989-.0024719239 .19999695-.022460938 .24899292-.022460938 .30299378-.022460938 .3789978-.0014648438 .4229889 .09359741 .45498658 .16265869 .45999146 .2407074 .45999146 .31976319M.24899292-.00047302247C.20999146-.00047302247 .15098572 .024551392 .1329956 .12062073 .12199402 .18066406 .12199402 .2727356 .12199402 .3317871 .12199402 .39582826 .12199402 .46188355 .12998963 .5159149 .14898682 .63500979 .22399903 .64401248 .24899292 .64401248 .28199769 .64401248 .34799195 .6259918 .36698915 .52693179 .3769989 .47088624 .3769989 .39482118 .3769989 .3317871 .3769989 .25672914 .3769989 .18867493 .3659973 .12461853 .35099793 .029556275 .2939911-.00047302247 .24899292-.00047302247Z"/>
<path id="font_3_1" d="M.47099305 .25C.47099305 .36502076 .3789978 .45703126 .2649994 .45703126 .15098572 .45703126 .05899048 .36502076 .05899048 .25 .05899048 .13496399 .15098572 .04296875 .2649994 .04296875 .3789978 .04296875 .47099305 .13496399 .47099305 .25M.2649994 .08895874C.17599488 .08895874 .10499573 .15997315 .10499573 .25 .10499573 .3400116 .17599488 .411026 .2649994 .411026 .35398866 .411026 .4249878 .3400116 .4249878 .25 .4249878 .15997315 .35398866 .08895874 .2649994 .08895874Z"/>
<path id="font_2_6" d="M.2899933 .35191346C.37199403 .37893678 .42999269 .4490509 .42999269 .52809146 .42999269 .6100464 .34199525 .6660156 .24598694 .6660156 .14498902 .6660156 .068984989 .60606387 .068984989 .53009036 .068984989 .49710084 .09098816 .47808839 .11999512 .47808839 .15098572 .47808839 .17098999 .50009158 .17098999 .5290985 .17098999 .57910159 .12399292 .57910159 .10899353 .57910159 .13999939 .62802127 .20599365 .64100649 .24198914 .64100649 .2829895 .64100649 .33799745 .6190338 .33799745 .5290985 .33799745 .51708987 .33599855 .45906068 .30999757 .4149933 .27999879 .36691285 .24598694 .36390687 .22099304 .36291505 .21299744 .36190797 .18899536 .35990907 .18199158 .35990907 .17399597 .35890199 .16699219 .35791017 .16699219 .3479004 .16699219 .33691407 .17399597 .33691407 .19099427 .33691407H.23498535C.31698609 .33691407 .35398866 .2686615 .35398866 .17037964 .35398866 .034469606 .2849884 .0055389406 .24099732 .0055389406 .19799805 .0055389406 .12298584 .022491456 .08799744 .08137512 .12298584 .07637024 .1539917 .09837341 .1539917 .1363678 .1539917 .17237854 .1269989 .19238281 .09799194 .19238281 .07398987 .19238281 .041992189 .17837525 .041992189 .1343689 .041992189 .043441774 .1349945-.022460938 .24398804-.022460938 .3659973-.022460938 .45700074 .06838989 .45700074 .17037964 .45700074 .252594 .3939972 .33088685 .2899933 .35191346Z"/>
<path id="font_2_9" d="M.13198853 .327713V.35173036C.13198853 .6047821 .2559967 .64100649 .30699159 .64100649 .33099366 .64100649 .37298585 .634964 .394989 .6007538 .37998963 .6007538 .33999635 .6007538 .33999635 .5557556 .33999635 .524765 .3639984 .5097656 .38598634 .5097656 .4019928 .5097656 .43199159 .51875308 .43199159 .5577545 .43199159 .6178589 .3880005 .6660156 .30499269 .6660156 .1769867 .6660156 .041992189 .5367584 .041992189 .31570436 .041992189 .048553468 .1579895-.022460938 .25099183-.022460938 .3619995-.022460938 .45700074 .07156372 .45700074 .2036438 .45700074 .33070375 .36799623 .4267578 .25698854 .4267578 .18899536 .4267578 .1519928 .37573243 .13198853 .327713M.25099183 .0055389406C.18798828 .0055389406 .1579895 .06556702 .1519928 .080566409 .13398743 .127594 .13398743 .2076416 .13398743 .22564698 .13398743 .30369569 .1659851 .40374757 .2559967 .40374757 .27198792 .40374757 .31799317 .40374757 .34899903 .34172059 .36698915 .30470277 .36698915 .2536621 .36698915 .20463562 .36698915 .15661621 .36698915 .10658264 .34999085 .0705719 .31999208 .010528564 .27398683 .0055389406 .25099183 .0055389406Z"/>
<path id="font_2_12" d="M.36698915 .31781007V.28579713C.36698915 .05178833 .2630005 .0055389406 .20498657 .0055389406 .18798828 .0055389406 .13398743 .007537842 .10699463 .041778566 .15098572 .041778566 .15899658 .07078552 .15899658 .08778381 .15899658 .118774417 .1349945 .13378906 .11299133 .13378906 .09700012 .13378906 .066986087 .12478638 .066986087 .08578491 .066986087 .018615723 .12098694-.022460938 .20599365-.022460938 .33499146-.022460938 .45700074 .11378479 .45700074 .32881166 .45700074 .5979767 .34199525 .6660156 .25299073 .6660156 .19799805 .6660156 .14898682 .64801028 .10598755 .60298159 .06498718 .5579529 .041992189 .5159302 .041992189 .44088746 .041992189 .31581117 .12998963 .21777344 .24198914 .21777344 .30299378 .21777344 .34399415 .25978089 .36698915 .31781007M.24299622 .24076844C.22698975 .24076844 .18099976 .24076844 .1499939 .3038025 .13198853 .3408203 .13198853 .39085389 .13198853 .43988038 .13198853 .49391175 .13198853 .54093936 .15299988 .5779724 .17999268 .6279907 .21798706 .64100649 .25299073 .64100649 .29899598 .64100649 .33198548 .60697939 .34899903 .5619507 .36099244 .52993777 .36499024 .4669037 .36499024 .42086793 .36499024 .3378296 .33099366 .24076844 .24299622 .24076844Z"/>
<path id="font_2_4" d="M.2939911 .64004519C.2939911 .66400149 .2939911 .6660156 .2709961 .6660156 .20899964 .60227969 .12098694 .60227969 .08898926 .60227969V.57128909C.10899353 .57128909 .16799927 .57128909 .21998596 .5972748V.07902527C.21998596 .042999269 .21699524 .0309906 .1269989 .0309906H.09498596V0C.12998963 .0029907227 .21699524 .0029907227 .25698854 .0029907227 .29699708 .0029907227 .38398744 .0029907227 .4189911 0V.0309906H.3869934C.29699708 .0309906 .2939911 .041992189 .2939911 .07902527V.64004519Z"/>
<path id="font_2_5" d="M.1269989 .07699585 .23298645 .18003845C.3889923 .31811524 .44898988 .3721466 .44898988 .47216798 .44898988 .5860901 .35899354 .6660156 .23699951 .6660156 .12399292 .6660156 .049987794 .57411196 .049987794 .48516847 .049987794 .4291687 .099990848 .4291687 .102996829 .4291687 .11999512 .4291687 .15499878 .44117738 .15499878 .48217774 .15499878 .5081787 .13699341 .5341797 .101989749 .5341797 .09399414 .5341797 .09199524 .5341797 .08898926 .5331726 .11199951 .59806826 .1659851 .63500979 .22399903 .63500979 .31498719 .63500979 .35798646 .5541382 .35798646 .47216798 .35798646 .39215089 .30799867 .31311036 .25299073 .25108338L.06098938 .036987306C.049987794 .025985718 .049987794 .023986817 .049987794 0H.42099L.44898988 .17404175H.42399598C.4189911 .14402771 .4119873 .1000061 .4019928 .084991458 .394989 .07699585 .32899476 .07699585 .30699159 .07699585H.1269989Z"/>
<path id="font_2_8" d="M.44898988 .20022583C.44898988 .3193512 .36698915 .41944886 .25898744 .41944886 .21099854 .41944886 .16799927 .40345765 .13198853 .36842347V.5637665C.1519928 .5577698 .18499756 .55078127 .21699524 .55078127 .33999635 .55078127 .4099884 .6417694 .4099884 .6547699 .4099884 .6607666 .40699769 .6657715 .3999939 .6657715 .39898683 .6657715 .39698792 .6657715 .3919983 .66278079 .37199403 .6537781 .32299806 .6337738 .2559967 .6337738 .21598816 .6337738 .16999817 .6407776 .12298584 .6617737 .114990238 .66477969 .11299133 .66477969 .11099243 .66477969 .100997928 .66477969 .100997928 .6567688 .100997928 .6407776V.34439088C.100997928 .32637025 .100997928 .31835938 .114990238 .31835938 .12199402 .31835938 .12399292 .32136537 .12799073 .32736207 .13899231 .3433838 .17599488 .39746095 .25698854 .39746095 .30899049 .39746095 .33399964 .35139466 .34199525 .33337403 .35798646 .29632569 .3600006 .25727845 .3600006 .20722962 .3600006 .17222595 .3600006 .11222839 .33599855 .07035828 .31199647 .031463624 .2749939 .0055389406 .22898865 .0055389406 .1559906 .0055389406 .09899902 .058380128 .08198547 .11723328 .084991458 .1162262 .08799744 .115234378 .09899902 .115234378 .13198853 .115234378 .14898682 .14022827 .14898682 .16423035 .14898682 .18823242 .13198853 .21322632 .09899902 .21322632 .084991458 .21322632 .049987794 .20622254 .049987794 .16023255 .049987794 .07434082 .11898804-.022460938 .23098755-.022460938 .34700013-.022460938 .44898988 .073349 .44898988 .20022583Z"/>
<path id="font_2_11" d="M.16299439 .4569702C.116989139 .486969 .11299133 .52098086 .11299133 .5379791 .11299133 .598999 .17799378 .64100649 .24899292 .64100649 .32199098 .64100649 .38598634 .58898928 .38598634 .51698306 .38598634 .45996095 .34700013 .4119568 .2869873 .37695313L.16299439 .4569702M.30899049 .36193849C.3809967 .3989563 .42999269 .45095826 .42999269 .51698306 .42999269 .6090088 .34098817 .6660156 .25 .6660156 .1499939 .6660156 .068984989 .59199526 .068984989 .49897767 .068984989 .4809723 .070999149 .43595887 .11299133 .38894654 .12399292 .37695313 .16099549 .35194398 .18598938 .33494569 .12799073 .30592347 .041992189 .24984741 .041992189 .15072632 .041992189 .04458618 .14399719-.022460938 .24899292-.022460938 .3619995-.022460938 .45700074 .06060791 .45700074 .16773987 .45700074 .20379639 .44599916 .24885559 .4079895 .2909088 .3889923 .31193543 .37298585 .3219452 .30899049 .36193849M.20899964 .3199463 .33198548 .24183655C.3600006 .2228241 .40699769 .19277954 .40699769 .13169861 .40699769 .05760193 .33198548 .0055389406 .25 .0055389406 .1639862 .0055389406 .09199524 .067611698 .09199524 .15072632 .09199524 .20880127 .12399292 .27288819 .20899964 .3199463Z"/>
<path id="font_2_7" d="M.2939911 .16503906V.07800293C.2939911 .041992189 .2919922 .0309906 .21798706 .0309906H.19699097V0C.23799134 .0029907227 .2899933 .0029907227 .33198548 .0029907227 .37399293 .0029907227 .4269867 .0029907227 .46798707 0V.0309906H.44699098C.37298585 .0309906 .37098695 .041992189 .37098695 .07800293V.16503906H.47099305V.19602967H.37098695V.65075686C.37098695 .67074587 .37098695 .6767578 .35499574 .6767578 .34599305 .6767578 .34298707 .6767578 .33499146 .66474917L.027999878 .19602967V.16503906H.2939911M.2999878 .19602967H.055999757L.2999878 .5688019V.19602967Z"/>
<path id="font_2_10" d="M.47599793 .609375C.4850006 .6213684 .4850006 .62338259 .4850006 .64437869H.24198914C.11999512 .64437869 .117996219 .65737918 .11399841 .67637637H.08898926L.055999757 .4702301H.08099365C.083999637 .48625184 .09298706 .5493469 .10598755 .56137087 .11299133 .5673828 .19099427 .5673828 .20399475 .5673828H.41099549C.3999939 .5513611 .32099916 .4421997 .29899598 .40914918 .20899964 .27394105 .17599488 .1347351 .17599488 .032577516 .17599488 .022567749 .17599488-.022460938 .22200012-.022460938 .2679901-.022460938 .2679901 .022567749 .2679901 .032577516V.08366394C.2679901 .13873291 .2709961 .19381714 .2789917 .24790955 .2829895 .27093507 .29699708 .35707093 .34098817 .41915895L.47599793 .609375Z"/>
<path id="font_4_1" d="M.28399659 .36465455H.39898683C.37799073 .2738037 .3600006 .19992066 .3600006 .1260376 .3600006 .11904907 .3600006 .0761261 .37098695 .04017639 .38398744-.0017700195 .3939972-.009765625 .4119873-.009765625 .43399049-.009765625 .45700074 .009231567 .45700074 .033187868 .45700074 .04017639 .45599366 .042175294 .45199586 .05116272 .43099977 .097091678 .41600038 .14500427 .41600038 .22688294 .41600038 .24984741 .41600038 .29177857 .43099977 .36465455H.5519867C.56799319 .36465455 .57899478 .36465455 .58898928 .37265016 .6009979 .38365174 .60398867 .39665223 .60398867 .40264894 .60398867 .43066407 .57899478 .43066407 .56199648 .43066407H.20098877C.17999268 .43066407 .14199829 .43066407 .09298706 .3826599 .056991579 .3466797 .0289917 .300766 .0289917 .29377748 .0289917 .28479005 .035995485 .28178407 .04399109 .28178407 .053985597 .28178407 .055999757 .28479005 .06199646 .2927704 .11099243 .36465455 .16999817 .36465455 .19299317 .36465455H.25099183C.22200012 .25883485 .16899109 .13801575 .13198853 .06513977 .125 .0501709 .114990238 .030197144 .114990238 .021209717 .114990238 .00022888184 .13198853-.009765625 .147995-.009765625 .18598938-.009765625 .19599915 .028198243 .21699524 .110061649L.28399659 .36465455Z"/>
<path id="font_5_6" d="M.13798523 .33073426C.13798523 .41377259 .14498902 .4868164 .18099976 .54782107 .21099854 .5978241 .2619934 .6390381 .32499696 .6390381 .34498597 .6390381 .3909912 .63601687 .4139862 .60084536 .36898805 .5988312 .36499024 .5648346 .36499024 .553833 .36499024 .5238342 .3880005 .50683596 .4119873 .50683596 .42999269 .50683596 .45899964 .51782229 .45899964 .5558319 .45899964 .615921 .4139862 .66503909 .32398988 .66503909 .18499756 .66503909 .04399109 .53282168 .04399109 .31672669 .04399109 .045532228 .16999817-.021484375 .2669983-.021484375 .31498719-.021484375 .36698915-.0084991459 .4119873 .03453064 .45199586 .07354736 .48599244 .11558533 .48599244 .20263672 .48599244 .33372499 .3869934 .42578126 .27598573 .42578126 .20399475 .42578126 .16099549 .37976075 .13798523 .33073426M.2669983 .008514404C.21398926 .008514404 .18099976 .045532228 .1659851 .07354736 .14299011 .11859131 .14099121 .18663025 .14099121 .22465515 .14099121 .32373048 .19499207 .3977661 .27198792 .3977661 .32199098 .3977661 .35198976 .37176515 .37098695 .33673097 .3919983 .29971314 .3919983 .25468446 .3919983 .2036438 .3919983 .15260315 .3919983 .10858154 .37199403 .07255554 .34599305 .026519776 .31098939 .008514404 .2669983 .008514404Z"/>
<path id="font_5_4" d="M.3939972 .6468048C.3939972 .6667938 .3939972 .6748047 .37298585 .6748047 .3600006 .6748047 .35899354 .6737976 .34899903 .65979006L.02999878 .197052V.1640625H.31199647V.08100891C.31199647 .04399109 .30899049 .032989503 .23199463 .032989503H.20899964V0C.2939911 .0029907227 .29599 .0029907227 .35299684 .0029907227 .4099884 .0029907227 .4119873 .0029907227 .49699403 0V.032989503H.47399903C.39698792 .032989503 .3939972 .04399109 .3939972 .08100891V.1640625H.5V.197052H.3939972V.6468048M.31900025 .5658417V.197052H.06498718L.31900025 .5658417Z"/>
<path id="font_5_3" d="M.25299073 .33370973C.33198548 .33370973 .38198854 .27557374 .38198854 .17037964 .38198854 .045440675 .31098939 .008514404 .2579956 .008514404 .20298767 .008514404 .12799073 .0284729 .09298706 .08137512 .1289978 .08137512 .1539917 .10437012 .1539917 .13737488 .1539917 .16937256 .1309967 .19238281 .09899902 .19238281 .07199097 .19238281 .04399109 .17536927 .04399109 .13537598 .04399109 .04045105 .1459961-.021484375 .2599945-.021484375 .3929901-.021484375 .48599244 .070388797 .48599244 .17037964 .48599244 .25352479 .41999818 .32969667 .31799317 .3517456 .39698792 .37982179 .45599366 .4479828 .45599366 .52804568 .45599366 .6080475 .3659973 .66503909 .2619934 .66503909 .15499878 .66503909 .07398987 .6070404 .07398987 .53105166 .07398987 .49404908 .09899902 .4780426 .125 .4780426 .1559906 .4780426 .17599488 .5000458 .17599488 .52905276 .17599488 .56604006 .14399719 .5800476 .12199402 .5810547 .1639862 .6360321 .24099732 .6390381 .25898744 .6390381 .2849884 .6390381 .36099244 .6310272 .36099244 .52804568 .36099244 .45799256 .33198548 .41589356 .31799317 .39985658 .28799439 .36878968 .2649994 .36679078 .20399475 .3627777 .18499756 .36177064 .1769867 .36076356 .1769867 .3477478 .1769867 .33370973 .18598938 .33370973 .20298767 .33370973H.25299073Z"/>
<path id="font_5_2" d="M.28199769 .20405579C.2979889 .21907044 .33999635 .2520752 .35598756 .26608277 .41799928 .32312013 .47698976 .3781433 .47698976 .46917726 .47698976 .588089 .3769989 .66503909 .2519989 .66503909 .13198853 .66503909 .052993776 .57411196 .052993776 .48516847 .052993776 .4361725 .09199524 .4291687 .10598755 .4291687 .1269989 .4291687 .1579895 .4441681 .1579895 .48217774 .1579895 .5341797 .10798645 .5341797 .09599304 .5341797 .125 .6070709 .19198609 .6320343 .24099732 .6320343 .33399964 .6320343 .38198854 .55314639 .38198854 .46917726 .38198854 .36514283 .30899049 .28910829 .19099427 .16804505L.06498718 .037994386C.052993776 .026992798 .052993776 .024993897 .052993776 0H.44799806L.47698976 .17904663H.44599916C.44299317 .1590271 .43499757 .10900879 .4229889 .08999634 .4169922 .08198547 .34098817 .08198547 .32499696 .08198547H.14698792L.28199769 .20405579Z"/>
<path id="font_5_5" d="M.13999939 .5618439C.15299988 .55784609 .19299317 .54785159 .23498535 .54785159 .3600006 .54785159 .43598939 .6358948 .43598939 .6510315 .43598939 .6620331 .42900086 .66503909 .42399598 .66503909 .42199708 .66503909 .41999818 .66503909 .41099549 .6600342 .37199403 .6450348 .32598878 .632843 .27198792 .632843 .21299744 .632843 .1639862 .6480255 .1329956 .6600342 .12298584 .66503909 .12098694 .66503909 .11999512 .66503909 .10699463 .66503909 .10699463 .6540375 .10699463 .6358948V.34292604C.10699463 .32492066 .10699463 .312912 .12298584 .312912 .1309967 .312912 .13398743 .3169098 .13899231 .32492066 .15098572 .33992005 .18899536 .39093019 .27398683 .39093019 .32998658 .39093019 .35699464 .34492494 .3659973 .32591249 .3829956 .28990174 .3849945 .24389649 .3849945 .20487976 .3849945 .1678772 .38398744 .11387634 .35598756 .069732669 .33699037 .039611818 .29699708 .008514404 .24398804 .008514404 .1789856 .008514404 .114990238 .0496521 .09199524 .11488342 .09498596 .11387634 .100997928 .11387634 .101989749 .11387634 .12998963 .11387634 .1519928 .13188172 .1519928 .16288758 .1519928 .19989014 .12298584 .21289063 .102996829 .21289063 .084991458 .21289063 .052993776 .20288086 .052993776 .15988159 .052993776 .069732669 .1309967-.021484375 .24598694-.021484375 .37098695-.021484375 .47698976 .07574463 .47698976 .19989014 .47698976 .31591798 .3929901 .4189453 .2749939 .4189453 .22499085 .4189453 .17799378 .40293885 .13999939 .368927V.5618439Z"/>
<path id="font_1_1" d="M.2649994 .37265016H.37799073C.34498597 .22489929 .33599855 .18196106 .33599855 .11508179 .33599855 .100097659 .33599855 .073150638 .34399415 .03919983 .35398866-.0047454836 .36499024-.0107421879 .37998963-.0107421879 .3999939-.0107421879 .42099 .007247925 .42099 .02722168 .42099 .033218385 .42099 .035202028 .4149933 .049179079 .38598634 .12106323 .38598634 .18595886 .38598634 .21391297 .38598634 .26683045 .3929901 .32073976 .4039917 .37265016H.5179901C.5309906 .37265016 .5669861 .37265016 .5669861 .406662 .5669861 .43066407 .54599 .43066407 .5269928 .43066407H.19198609C.16999817 .43066407 .13198853 .43066407 .08799744 .38365174 .052993776 .34469605 .026992798 .29878236 .026992798 .29379273 .026992798 .29278565 .026992798 .28379823 .038986207 .28379823 .04699707 .28379823 .04899597 .28779603 .054992677 .29577638 .10398865 .37265016 .1619873 .37265016 .18199158 .37265016H.23899842C.20698548 .25186158 .15299988 .13105774 .11099243 .04020691 .102996829 .025222779 .102996829 .023223877 .102996829 .016235352 .102996829-.002746582 .11898804-.0107421879 .13198853-.0107421879 .1619873-.0107421879 .16999817 .017242432 .18199158 .05418396 .19599915 .100097659 .19599915 .10209656 .20899964 .15202332L.2649994 .37265016Z"/>
<path id="font_5_7" d="M.5059967 .608551C.5149994 .6195526 .5149994 .6215515 .5149994 .6435547H.26098634C.23599243 .6435547 .20498657 .64456179 .17999268 .64660647 .12799073 .65068057 .1269989 .6597748 .12399292 .67578127H.09298706L.05899048 .46453858H.08999634C.09199524 .47953797 .102996829 .54855349 .116989139 .5565491 .12799073 .56155398 .20298767 .56155398 .21798706 .56155398H.42999269L.32699586 .4235382C.21299744 .27153016 .18899536 .11351013 .18899536 .03451538 .18899536 .024505616 .18899536-.021484375 .23599243-.021484375 .2829895-.021484375 .2829895 .023513794 .2829895 .035507204V.08351135C.2829895 .2275238 .30699159 .34553529 .35598756 .41053773L.5059967 .608551Z"/>
<path id="font_5_1" d="M.31399537 .63708499C.31399537 .664032 .31199647 .66503909 .2849884 .66503909 .24398804 .6251831 .19099427 .6013489 .09599304 .6013489V.5683594C.12298584 .5683594 .1769867 .5683594 .23498535 .5953522V.08203125C.23498535 .04499817 .23199463 .032989503 .13699341 .032989503H.101989749V0C.14299011 .0029907227 .22898865 .0029907227 .27398683 .0029907227 .31900025 .0029907227 .4059906 .0029907227 .44699098 0V.032989503H.4119873C.31698609 .032989503 .31399537 .04499817 .31399537 .08203125V.63708499Z"/>
<path id="font_6_1" d="M.5149994-1.7478027C.5169983-1.7487946 .526001-1.7587891 .5269928-1.7587891H.548996C.5519867-1.7587891 .55999758-1.7577973 .55999758-1.7487946 .55999758-1.7447968 .55799868-1.7427979 .55599978-1.7397919 .519989-1.7037964 .46598817-1.6488037 .4039917-1.5388184 .29599-1.3468323 .2559967-1.0998688 .2559967-.8598938 .2559967-.41593934 .38198854-.154953 .5569916 .022033692 .55999758 .025024414 .55999758 .028030396 .55999758 .030029297 .55999758 .040039064 .5529938 .040039064 .54100039 .040039064 .5279999 .040039064 .526001 .040039064 .5169983 .0320282 .42199708-.049972536 .31498719-.18894959 .24598694-.39993287 .20298767-.5319214 .17999268-.6929016 .17999268-.8588867 .17999268-1.0958557 .22299195-1.3638306 .37998963-1.5958099 .40699769-1.6348114 .44400025-1.6757965 .44400025-1.6768036 .45399476-1.688797 .46798707-1.7048035 .47599793-1.711792L.5149994-1.7478027Z"/>
<path id="font_3_2" d="M.4119873-.8450928 .22299195-.4570923C.21798706-.44610597 .21398926-.44110108 .20599365-.44110108 .20199585-.44110108 .19999695-.4420929 .18998719-.44909669L.08799744-.5200958C.07398987-.5290985 .07398987-.5341034 .07398987-.5370941 .07398987-.5430908 .07899475-.5511017 .08799744-.5511017 .09199524-.5511017 .09399414-.5511017 .10598755-.5410919 .11898804-.5330963 .13899231-.5180969 .1559906-.5061035L.3659973-.937088C.375-.9550781 .3789978-.9550781 .3889923-.9550781 .4059906-.9550781 .40899659-.9500885 .4169922-.93408206L.8999939 .0028839112C.9079895 .01689148 .9079895 .01889038 .9079895 .022888184 .9079895 .03489685 .897995 .045898439 .8849945 .045898439 .871994 .045898439 .8679962 .037887575 .86099246 .024887085L.4119873-.8450928Z"/>
<path id="font_1_2" d="M.20298767 .0009918213C.20298767 .066986087 .17799378 .10598755 .13899231 .10598755 .10598755 .10598755 .085998538 .08099365 .085998538 .052993776 .085998538 .025985718 .10598755 0 .13899231 0 .15098572 0 .1639862 .0039978029 .17399597 .0129852299 .1769867 .01499939 .17799378 .015991211 .1789856 .015991211 .17999268 .015991211 .18099976 .01499939 .18099976 .0009918213 .18099976-.07316589 .1459961-.13328552 .11299133-.16635132 .101989749-.17736817 .101989749-.17936707 .101989749-.18237305 .101989749-.18936157 .10699463-.19335938 .11199951-.19335938 .12298584-.19335938 .20298767-.116256717 .20298767 .0009918213Z"/>
<path id="font_6_2" d="M.41600038-.8588867C.41600038-.5719147 .34899903-.2669525 .1519928-.04197693 .13798523-.025970459 .100997928 .013031006 .07699585 .0340271 .069992069 .040039064 .067993167 .040039064 .054992677 .040039064 .04499817 .040039064 .035995485 .040039064 .035995485 .030029297 .035995485 .026031495 .039993287 .022033692 .041992189 .02003479 .07598877-.014968872 .12998963-.06996155 .19198609-.17996216 .2999878-.37193299 .33999635-.61891177 .33999635-.8588867 .33999635-1.2928467 .21998596-1.5578156 .039993287-1.740799 .037994386-1.7427979 .035995485-1.7458038 .035995485-1.7487946 .035995485-1.7587891 .04499817-1.7587891 .054992677-1.7587891 .067993167-1.7587891 .069992069-1.7587891 .07899475-1.7507935 .17399597-1.668808 .2809906-1.5298157 .34999085-1.3188324 .3939972-1.1818543 .41600038-1.019867 .41600038-.8588867Z"/>
<path id="font_7_1" d="M.6589966 .23046875C.6759949 .23046875 .69400027 .23046875 .69400027 .25045777 .69400027 .27046205 .6759949 .27046205 .6589966 .27046205H.117996219C.100997928 .27046205 .08299255 .27046205 .08299255 .25045777 .08299255 .23046875 .100997928 .23046875 .117996219 .23046875H.6589966Z"/>
<path id="font_2_1" d="M.33099366-.2400055C.33099366-.23701477 .33099366-.23500061 .31399537-.21800232 .18899536-.0920105 .15699768 .09700012 .15699768 .25 .15699768 .42399598 .19499207 .59799197 .31799317 .72299197 .33099366 .73498538 .33099366 .7369995 .33099366 .73999026 .33099366 .746994 .32699586 .75 .32099916 .75 .31098939 .75 .22099304 .6819916 .1619873 .5549927 .11099243 .44499208 .09899902 .33399964 .09899902 .25 .09899902 .17199707 .10998535 .050994874 .16499329-.06201172 .22499085-.18501282 .31098939-.25 .32099916-.25 .32699586-.25 .33099366-.24700928 .33099366-.2400055Z"/>
<path id="font_2_2" d="M.2889862 .25C.2889862 .32798768 .27799989 .44898988 .22299195 .56199648 .16299439 .68499758 .07699585 .75 .066986087 .75 .06098938 .75 .056991579 .74598696 .056991579 .73999026 .056991579 .7369995 .056991579 .73498538 .07598877 .71699526 .17399597 .6179962 .23098755 .45899964 .23098755 .25 .23098755 .07899475 .19400025-.09700012 .069992069-.2230072 .056991579-.23500061 .056991579-.23701477 .056991579-.2400055 .056991579-.2460022 .06098938-.25 .066986087-.25 .07699585-.25 .16699219-.18200684 .22599793-.055007936 .2769928 .054992677 .2889862 .16600037 .2889862 .25Z"/>
</defs>
<path transform="matrix(1.00005,0,0,-1,226.8327,237.244)" stroke-width=".3985" stroke-linecap="round" stroke-miterlimit="10" stroke-linejoin="miter" fill="none" stroke="#000000" d="M-225.3573 0H221.77075"/>
<path transform="matrix(1.00005,0,0,-1,448.61454,237.244)" d="M3.58653 0C2.52383 .19925 .797 .797-.3985 1.49438V-1.49438C.797-.797 2.52383-.19925 3.58653 0"/>
<path transform="matrix(1.00005,0,0,-1,226.8327,237.244)" d="M225.55655-5.98451H239.06346V5.98451H225.55655Z" fill="#ffffff"/>
<use data-text="x" xlink:href="#font_1_3" transform="matrix(10.909644,0,0,-10.9091,456.03715,239.593)"/>
<path transform="matrix(1.00005,0,0,-1,226.8327,237.244)" stroke-width=".3985" stroke-linecap="round" stroke-miterlimit="10" stroke-linejoin="miter" fill="none" stroke="#000000" d="M0-225.3573V221.77075"/>
<path transform="matrix(0,-1,-1.00005,-0,226.8327,15.473251)" d="M3.58653 0C2.52383 .19925 .797 .797-.3985 1.49438V-1.49438C.797-.797 2.52383-.19925 3.58653 0"/>
<path transform="matrix(1.00005,0,0,-1,226.8327,237.244)" d="M-6.506 225.55655H6.5060098V239.6468H-6.506Z" fill="#ffffff"/>
<use data-text="y" xlink:href="#font_1_4" transform="matrix(10.909644,0,0,-10.9091,223.96256,5.930008)"/>
<path transform="matrix(1.00005,0,0,-1,226.8327,237.244)" stroke-width=".79701" stroke-linecap="round" stroke-miterlimit="10" stroke-linejoin="miter" fill="none" stroke="#000000" d="M150.23816 0C150.23816 82.97531 82.97531 150.23816 0 150.23816-82.97531 150.23816-150.23816 82.97531-150.23816 0-150.23816-82.97531-82.97531-150.23816 0-150.23816 82.97531-150.23816 150.23816-82.97531 150.23816 0ZM0 0"/>
<path transform="matrix(1.00005,0,0,-1,226.8327,237.244)" stroke-width=".3985" stroke-linecap="round" stroke-miterlimit="10" stroke-linejoin="miter" fill="none" stroke="#929292" d="M0 0H150.23816"/>
<path transform="matrix(1.00005,0,0,-1,226.8327,237.244)" d="M152.35024 0C152.35024 1.16647 151.40465 2.11206 150.23816 2.11206 149.07169 2.11206 148.1261 1.16647 148.1261 0 148.1261-1.16647 149.07169-2.11206 150.23816-2.11206 151.40465-2.11206 152.35024-1.16647 152.35024 0ZM150.23816 0"/>
<path transform="matrix(1.00005,0,0,-1,226.8327,237.244)" stroke-width=".3985" stroke-linecap="round" stroke-miterlimit="10" stroke-linejoin="miter" fill="none" stroke="#000000" d="M152.35024 0C152.35024 1.16647 151.40465 2.11206 150.23816 2.11206 149.07169 2.11206 148.1261 1.16647 148.1261 0 148.1261-1.16647 149.07169-2.11206 150.23816-2.11206 151.40465-2.11206 152.35024-1.16647 152.35024 0ZM150.23816 0"/>
<path transform="matrix(1.00005,0,0,-1,226.8327,237.244)" stroke-width=".3985" stroke-linecap="round" stroke-miterlimit="10" stroke-linejoin="miter" fill="none" stroke="#000000" d="M90.14383 0"/>
<path transform="matrix(1.00005,0,0,-1,226.8327,237.244)" d="M81.41432-7.43504H98.87333V7.4350497H81.41432Z" fill="#ffffff"/>
<use data-text="0" xlink:href="#font_2_3" transform="matrix(10.909644,0,0,-10.9091,311.88697,241.043)"/>
<use data-text="&#x25e6;" xlink:href="#font_3_1" transform="matrix(7.970498,0,0,-7.9701,317.34223,237.084)"/>
<path transform="matrix(1.00005,0,0,-1,226.8327,237.244)" stroke-width=".3985" stroke-linecap="round" stroke-miterlimit="10" stroke-linejoin="miter" fill="none" stroke="#929292" d="M0 0 130.11035 75.11903"/>
<path transform="matrix(1.00005,0,0,-1,226.8327,237.244)" d="M132.22243 75.11903C132.22243 76.2855 131.27683 77.23111 130.11035 77.23111 128.94388 77.23111 127.99828 76.2855 127.99828 75.11903 127.99828 73.95256 128.94388 73.00696 130.11035 73.00696 131.27683 73.00696 132.22243 73.95256 132.22243 75.11903ZM130.11035 75.11903"/>
<path transform="matrix(1.00005,0,0,-1,226.8327,237.244)" stroke-width=".3985" stroke-linecap="round" stroke-miterlimit="10" stroke-linejoin="miter" fill="none" stroke="#000000" d="M132.22243 75.11903C132.22243 76.2855 131.27683 77.23111 130.11035 77.23111 128.94388 77.23111 127.99828 76.2855 127.99828 75.11903 127.99828 73.95256 128.94388 73.00696 130.11035 73.00696 131.27683 73.00696 132.22243 73.95256 132.22243 75.11903ZM130.11035 75.11903"/>
<path transform="matrix(1.00005,0,0,-1,226.8327,237.244)" stroke-width=".3985" stroke-linecap="round" stroke-miterlimit="10" stroke-linejoin="miter" fill="none" stroke="#000000" d="M78.06703 45.07187"/>
<path transform="matrix(1.00005,0,0,-1,226.8327,237.244)" d="M66.61021 37.63683H89.52385V52.50692H66.61021Z" fill="#ffffff"/>
<use data-text="3" xlink:href="#font_2_6" transform="matrix(10.909644,0,0,-10.9091,297.0822,195.97101)"/>
<use data-text="0" xlink:href="#font_2_3" transform="matrix(10.909644,0,0,-10.9091,302.53706,195.97101)"/>
<use data-text="&#x25e6;" xlink:href="#font_3_1" transform="matrix(7.970498,0,0,-7.9701,307.99278,192.01201)"/>
<path transform="matrix(1.00005,0,0,-1,226.8327,237.244)" stroke-width=".3985" stroke-linecap="round" stroke-miterlimit="10" stroke-linejoin="miter" fill="none" stroke="#929292" d="M0 0 75.11903 130.11035"/>
<path transform="matrix(1.00005,0,0,-1,226.8327,237.244)" d="M77.23111 130.11035C77.23111 131.27683 76.2855 132.22243 75.11903 132.22243 73.95256 132.22243 73.00696 131.27683 73.00696 130.11035 73.00696 128.94388 73.95256 127.99828 75.11903 127.99828 76.2855 127.99828 77.23111 128.94388 77.23111 130.11035ZM75.11903 130.11035"/>
<path transform="matrix(1.00005,0,0,-1,226.8327,237.244)" stroke-width=".3985" stroke-linecap="round" stroke-miterlimit="10" stroke-linejoin="miter" fill="none" stroke="#000000" d="M77.23111 130.11035C77.23111 131.27683 76.2855 132.22243 75.11903 132.22243 73.95256 132.22243 73.00696 131.27683 73.00696 130.11035 73.00696 128.94388 73.95256 127.99828 75.11903 127.99828 76.2855 127.99828 77.23111 128.94388 77.23111 130.11035ZM75.11903 130.11035"/>
<path transform="matrix(1.00005,0,0,-1,226.8327,237.244)" stroke-width=".3985" stroke-linecap="round" stroke-miterlimit="10" stroke-linejoin="miter" fill="none" stroke="#000000" d="M45.07187 78.06703"/>
<path transform="matrix(1.00005,0,0,-1,226.8327,237.244)" d="M33.61505 70.63199H56.52869V85.502079H33.61505Z" fill="#ffffff"/>
<use data-text="6" xlink:href="#font_2_9" transform="matrix(10.909644,0,0,-10.9091,264.08558,162.97602)"/>
<use data-text="0" xlink:href="#font_2_3" transform="matrix(10.909644,0,0,-10.9091,269.5404,162.97602)"/>
<use data-text="&#x25e6;" xlink:href="#font_3_1" transform="matrix(7.970498,0,0,-7.9701,274.99613,159.017)"/>
<path transform="matrix(1.00005,0,0,-1,226.8327,237.244)" stroke-width=".3985" stroke-linecap="round" stroke-miterlimit="10" stroke-linejoin="miter" fill="none" stroke="#929292" d="M0 0V150.23816"/>
<path transform="matrix(1.00005,0,0,-1,226.8327,237.244)" d="M2.11206 150.23816C2.11206 151.40465 1.16647 152.35024 0 152.35024-1.16647 152.35024-2.11206 151.40465-2.11206 150.23816-2.11206 149.07169-1.16647 148.1261 0 148.1261 1.16647 148.1261 2.11206 149.07169 2.11206 150.23816ZM0 150.23816"/>
<path transform="matrix(1.00005,0,0,-1,226.8327,237.244)" stroke-width=".3985" stroke-linecap="round" stroke-miterlimit="10" stroke-linejoin="miter" fill="none" stroke="#000000" d="M2.11206 150.23816C2.11206 151.40465 1.16647 152.35024 0 152.35024-1.16647 152.35024-2.11206 151.40465-2.11206 150.23816-2.11206 149.07169-1.16647 148.1261 0 148.1261 1.16647 148.1261 2.11206 149.07169 2.11206 150.23816ZM0 150.23816"/>
<path transform="matrix(1.00005,0,0,-1,226.8327,237.244)" stroke-width=".3985" stroke-linecap="round" stroke-miterlimit="10" stroke-linejoin="miter" fill="none" stroke="#000000" d="M0 90.14383"/>
<path transform="matrix(1.00005,0,0,-1,226.8327,237.244)" d="M-11.45682 82.70879H11.45682V97.57888H-11.45682Z" fill="#ffffff"/>
<use data-text="9" xlink:href="#font_2_12" transform="matrix(10.909644,0,0,-10.9091,219.01132,150.899)"/>
<use data-text="0" xlink:href="#font_2_3" transform="matrix(10.909644,0,0,-10.9091,224.46616,150.899)"/>
<use data-text="&#x25e6;" xlink:href="#font_3_1" transform="matrix(7.970498,0,0,-7.9701,229.92188,146.94)"/>
<path transform="matrix(1.00005,0,0,-1,226.8327,237.244)" stroke-width=".3985" stroke-linecap="round" stroke-miterlimit="10" stroke-linejoin="miter" fill="none" stroke="#929292" d="M0 0-75.11903 130.11035"/>
<path transform="matrix(1.00005,0,0,-1,226.8327,237.244)" d="M-73.00696 130.11035C-73.00696 131.27683-73.95256 132.22243-75.11903 132.22243-76.2855 132.22243-77.23111 131.27683-77.23111 130.11035-77.23111 128.94388-76.2855 127.99828-75.11903 127.99828-73.95256 127.99828-73.00696 128.94388-73.00696 130.11035ZM-75.11903 130.11035"/>
<path transform="matrix(1.00005,0,0,-1,226.8327,237.244)" stroke-width=".3985" stroke-linecap="round" stroke-miterlimit="10" stroke-linejoin="miter" fill="none" stroke="#000000" d="M-73.00696 130.11035C-73.00696 131.27683-73.95256 132.22243-75.11903 132.22243-76.2855 132.22243-77.23111 131.27683-77.23111 130.11035-77.23111 128.94388-76.2855 127.99828-75.11903 127.99828-73.95256 127.99828-73.00696 128.94388-73.00696 130.11035ZM-75.11903 130.11035"/>
<path transform="matrix(1.00005,0,0,-1,226.8327,237.244)" stroke-width=".3985" stroke-linecap="round" stroke-miterlimit="10" stroke-linejoin="miter" fill="none" stroke="#000000" d="M-45.07187 78.06703"/>
<path transform="matrix(1.00005,0,0,-1,226.8327,237.244)" d="M-59.256 70.63199H-30.887742V85.502079H-59.256Z" fill="#ffffff"/>
<use data-text="1" xlink:href="#font_2_4" transform="matrix(10.909644,0,0,-10.9091,171.20993,162.97602)"/>
<use data-text="2" xlink:href="#font_2_5" transform="matrix(10.909644,0,0,-10.9091,176.66477,162.97602)"/>
<use data-text="0" xlink:href="#font_2_3" transform="matrix(10.909644,0,0,-10.9091,182.1196,162.97602)"/>
<use data-text="&#x25e6;" xlink:href="#font_3_1" transform="matrix(7.970498,0,0,-7.9701,187.57477,159.017)"/>
<path transform="matrix(1.00005,0,0,-1,226.8327,237.244)" stroke-width=".3985" stroke-linecap="round" stroke-miterlimit="10" stroke-linejoin="miter" fill="none" stroke="#929292" d="M0 0-130.11035 75.11903"/>
<path transform="matrix(1.00005,0,0,-1,226.8327,237.244)" d="M-127.99828 75.11903C-127.99828 76.2855-128.94388 77.23111-130.11035 77.23111-131.27683 77.23111-132.22243 76.2855-132.22243 75.11903-132.22243 73.95256-131.27683 73.00696-130.11035 73.00696-128.94388 73.00696-127.99828 73.95256-127.99828 75.11903ZM-130.11035 75.11903"/>
<path transform="matrix(1.00005,0,0,-1,226.8327,237.244)" stroke-width=".3985" stroke-linecap="round" stroke-miterlimit="10" stroke-linejoin="miter" fill="none" stroke="#000000" d="M-127.99828 75.11903C-127.99828 76.2855-128.94388 77.23111-130.11035 77.23111-131.27683 77.23111-132.22243 76.2855-132.22243 75.11903-132.22243 73.95256-131.27683 73.00696-130.11035 73.00696-128.94388 73.00696-127.99828 73.95256-127.99828 75.11903ZM-130.11035 75.11903"/>
<path transform="matrix(1.00005,0,0,-1,226.8327,237.244)" stroke-width=".3985" stroke-linecap="round" stroke-miterlimit="10" stroke-linejoin="miter" fill="none" stroke="#000000" d="M-78.06703 45.07187"/>
<path transform="matrix(1.00005,0,0,-1,226.8327,237.244)" d="M-92.25116 37.63683H-63.8829V52.50692H-92.25116Z" fill="#ffffff"/>
<use data-text="1" xlink:href="#font_2_4" transform="matrix(10.909644,0,0,-10.9091,138.21329,195.97101)"/>
<use data-text="5" xlink:href="#font_2_8" transform="matrix(10.909644,0,0,-10.9091,143.66812,195.97101)"/>
<use data-text="0" xlink:href="#font_2_3" transform="matrix(10.909644,0,0,-10.9091,149.12296,195.97101)"/>
<use data-text="&#x25e6;" xlink:href="#font_3_1" transform="matrix(7.970498,0,0,-7.9701,154.57813,192.01201)"/>
<path transform="matrix(1.00005,0,0,-1,226.8327,237.244)" stroke-width=".3985" stroke-linecap="round" stroke-miterlimit="10" stroke-linejoin="miter" fill="none" stroke="#929292" d="M0 0H-150.23816"/>
<path transform="matrix(1.00005,0,0,-1,226.8327,237.244)" d="M-148.1261 0C-148.1261 1.16647-149.07169 2.11206-150.23816 2.11206-151.40465 2.11206-152.35024 1.16647-152.35024 0-152.35024-1.16647-151.40465-2.11206-150.23816-2.11206-149.07169-2.11206-148.1261-1.16647-148.1261 0ZM-150.23816 0"/>
<path transform="matrix(1.00005,0,0,-1,226.8327,237.244)" stroke-width=".3985" stroke-linecap="round" stroke-miterlimit="10" stroke-linejoin="miter" fill="none" stroke="#000000" d="M-148.1261 0C-148.1261 1.16647-149.07169 2.11206-150.23816 2.11206-151.40465 2.11206-152.35024 1.16647-152.35024 0-152.35024-1.16647-151.40465-2.11206-150.23816-2.11206-149.07169-2.11206-148.1261-1.16647-148.1261 0ZM-150.23816 0"/>
<path transform="matrix(1.00005,0,0,-1,226.8327,237.244)" stroke-width=".3985" stroke-linecap="round" stroke-miterlimit="10" stroke-linejoin="miter" fill="none" stroke="#000000" d="M-90.14383 0"/>
<path transform="matrix(1.00005,0,0,-1,226.8327,237.244)" d="M-104.32796-7.43504H-75.9597V7.4350497H-104.32796Z" fill="#ffffff"/>
<use data-text="1" xlink:href="#font_2_4" transform="matrix(10.909644,0,0,-10.9091,126.13568,241.043)"/>
<use data-text="8" xlink:href="#font_2_11" transform="matrix(10.909644,0,0,-10.9091,131.59052,241.043)"/>
<use data-text="0" xlink:href="#font_2_3" transform="matrix(10.909644,0,0,-10.9091,137.04535,241.043)"/>
<use data-text="&#x25e6;" xlink:href="#font_3_1" transform="matrix(7.970498,0,0,-7.9701,142.50052,237.084)"/>
<path transform="matrix(1.00005,0,0,-1,226.8327,237.244)" stroke-width=".3985" stroke-linecap="round" stroke-miterlimit="10" stroke-linejoin="miter" fill="none" stroke="#929292" d="M0 0-130.11035-75.11903"/>
<path transform="matrix(1.00005,0,0,-1,226.8327,237.244)" d="M-127.99828-75.11903C-127.99828-73.95256-128.94388-73.00696-130.11035-73.00696-131.27683-73.00696-132.22243-73.95256-132.22243-75.11903-132.22243-76.2855-131.27683-77.23111-130.11035-77.23111-128.94388-77.23111-127.99828-76.2855-127.99828-75.11903ZM-130.11035-75.11903"/>
<path transform="matrix(1.00005,0,0,-1,226.8327,237.244)" stroke-width=".3985" stroke-linecap="round" stroke-miterlimit="10" stroke-linejoin="miter" fill="none" stroke="#000000" d="M-127.99828-75.11903C-127.99828-73.95256-128.94388-73.00696-130.11035-73.00696-131.27683-73.00696-132.22243-73.95256-132.22243-75.11903-132.22243-76.2855-131.27683-77.23111-130.11035-77.23111-128.94388-77.23111-127.99828-76.2855-127.99828-75.11903ZM-130.11035-75.11903"/>
<path transform="matrix(1.00005,0,0,-1,226.8327,237.244)" stroke-width=".3985" stroke-linecap="round" stroke-miterlimit="10" stroke-linejoin="miter" fill="none" stroke="#000000" d="M-78.06703-45.07187"/>
<path transform="matrix(1.00005,0,0,-1,226.8327,237.244)" d="M-92.25116-52.50691H-63.8829V-37.636819H-92.25116Z" fill="#ffffff"/>
<use data-text="2" xlink:href="#font_2_5" transform="matrix(10.909644,0,0,-10.9091,138.21329,286.115)"/>
<use data-text="1" xlink:href="#font_2_4" transform="matrix(10.909644,0,0,-10.9091,143.66812,286.115)"/>
<use data-text="0" xlink:href="#font_2_3" transform="matrix(10.909644,0,0,-10.9091,149.12296,286.115)"/>
<use data-text="&#x25e6;" xlink:href="#font_3_1" transform="matrix(7.970498,0,0,-7.9701,154.57813,282.156)"/>
<path transform="matrix(1.00005,0,0,-1,226.8327,237.244)" stroke-width=".3985" stroke-linecap="round" stroke-miterlimit="10" stroke-linejoin="miter" fill="none" stroke="#929292" d="M0 0-75.11903-130.11035"/>
<path transform="matrix(1.00005,0,0,-1,226.8327,237.244)" d="M-73.00696-130.11035C-73.00696-128.94388-73.95256-127.99828-75.11903-127.99828-76.2855-127.99828-77.23111-128.94388-77.23111-130.11035-77.23111-131.27683-76.2855-132.22243-75.11903-132.22243-73.95256-132.22243-73.00696-131.27683-73.00696-130.11035ZM-75.11903-130.11035"/>
<path transform="matrix(1.00005,0,0,-1,226.8327,237.244)" stroke-width=".3985" stroke-linecap="round" stroke-miterlimit="10" stroke-linejoin="miter" fill="none" stroke="#000000" d="M-73.00696-130.11035C-73.00696-128.94388-73.95256-127.99828-75.11903-127.99828-76.2855-127.99828-77.23111-128.94388-77.23111-130.11035-77.23111-131.27683-76.2855-132.22243-75.11903-132.22243-73.95256-132.22243-73.00696-131.27683-73.00696-130.11035ZM-75.11903-130.11035"/>
<path transform="matrix(1.00005,0,0,-1,226.8327,237.244)" stroke-width=".3985" stroke-linecap="round" stroke-miterlimit="10" stroke-linejoin="miter" fill="none" stroke="#000000" d="M-45.07187-78.06703"/>
<path transform="matrix(1.00005,0,0,-1,226.8327,237.244)" d="M-59.256-85.50208H-30.887742V-70.631999H-59.256Z" fill="#ffffff"/>
<use data-text="2" xlink:href="#font_2_5" transform="matrix(10.909644,0,0,-10.9091,171.20993,319.11)"/>
<use data-text="4" xlink:href="#font_2_7" transform="matrix(10.909644,0,0,-10.9091,176.66477,319.11)"/>
<use data-text="0" xlink:href="#font_2_3" transform="matrix(10.909644,0,0,-10.9091,182.1196,319.11)"/>
<use data-text="&#x25e6;" xlink:href="#font_3_1" transform="matrix(7.970498,0,0,-7.9701,187.57477,315.151)"/>
<path transform="matrix(1.00005,0,0,-1,226.8327,237.244)" stroke-width=".3985" stroke-linecap="round" stroke-miterlimit="10" stroke-linejoin="miter" fill="none" stroke="#929292" d="M0 0V-150.23816"/>
<path transform="matrix(1.00005,0,0,-1,226.8327,237.244)" d="M2.11206-150.23816C2.11206-149.07169 1.16647-148.1261 0-148.1261-1.16647-148.1261-2.11206-149.07169-2.11206-150.23816-2.11206-151.40465-1.16647-152.35024 0-152.35024 1.16647-152.35024 2.11206-151.40465 2.11206-150.23816ZM0-150.23816"/>
<path transform="matrix(1.00005,0,0,-1,226.8327,237.244)" stroke-width=".3985" stroke-linecap="round" stroke-miterlimit="10" stroke-linejoin="miter" fill="none" stroke="#000000" d="M2.11206-150.23816C2.11206-149.07169 1.16647-148.1261 0-148.1261-1.16647-148.1261-2.11206-149.07169-2.11206-150.23816-2.11206-151.40465-1.16647-152.35024 0-152.35024 1.16647-152.35024 2.11206-151.40465 2.11206-150.23816ZM0-150.23816"/>
<path transform="matrix(1.00005,0,0,-1,226.8327,237.244)" stroke-width=".3985" stroke-linecap="round" stroke-miterlimit="10" stroke-linejoin="miter" fill="none" stroke="#000000" d="M0-90.14383"/>
<path transform="matrix(1.00005,0,0,-1,226.8327,237.244)" d="M-14.18413-97.57887H14.18413V-82.708789H-14.18413Z" fill="#ffffff"/>
<use data-text="2" xlink:href="#font_2_5" transform="matrix(10.909644,0,0,-10.9091,216.28418,331.187)"/>
<use data-text="7" xlink:href="#font_2_10" transform="matrix(10.909644,0,0,-10.9091,221.73902,331.187)"/>
<use data-text="0" xlink:href="#font_2_3" transform="matrix(10.909644,0,0,-10.9091,227.19385,331.187)"/>
<use data-text="&#x25e6;" xlink:href="#font_3_1" transform="matrix(7.970498,0,0,-7.9701,232.64902,327.228)"/>
<path transform="matrix(1.00005,0,0,-1,226.8327,237.244)" stroke-width=".3985" stroke-linecap="round" stroke-miterlimit="10" stroke-linejoin="miter" fill="none" stroke="#929292" d="M0 0 75.11903-130.11035"/>
<path transform="matrix(1.00005,0,0,-1,226.8327,237.244)" d="M77.23111-130.11035C77.23111-128.94388 76.2855-127.99828 75.11903-127.99828 73.95256-127.99828 73.00696-128.94388 73.00696-130.11035 73.00696-131.27683 73.95256-132.22243 75.11903-132.22243 76.2855-132.22243 77.23111-131.27683 77.23111-130.11035ZM75.11903-130.11035"/>
<path transform="matrix(1.00005,0,0,-1,226.8327,237.244)" stroke-width=".3985" stroke-linecap="round" stroke-miterlimit="10" stroke-linejoin="miter" fill="none" stroke="#000000" d="M77.23111-130.11035C77.23111-128.94388 76.2855-127.99828 75.11903-127.99828 73.95256-127.99828 73.00696-128.94388 73.00696-130.11035 73.00696-131.27683 73.95256-132.22243 75.11903-132.22243 76.2855-132.22243 77.23111-131.27683 77.23111-130.11035ZM75.11903-130.11035"/>
<path transform="matrix(1.00005,0,0,-1,226.8327,237.244)" stroke-width=".3985" stroke-linecap="round" stroke-miterlimit="10" stroke-linejoin="miter" fill="none" stroke="#000000" d="M45.07187-78.06703"/>
<path transform="matrix(1.00005,0,0,-1,226.8327,237.244)" d="M30.88774-85.50208H59.255998V-70.631999H30.88774Z" fill="#ffffff"/>
<use data-text="3" xlink:href="#font_2_6" transform="matrix(10.909644,0,0,-10.9091,261.35844,319.11)"/>
<use data-text="0" xlink:href="#font_2_3" transform="matrix(10.909644,0,0,-10.9091,266.81327,319.11)"/>
<use data-text="0" xlink:href="#font_2_3" transform="matrix(10.909644,0,0,-10.9091,272.2681,319.11)"/>
<use data-text="&#x25e6;" xlink:href="#font_3_1" transform="matrix(7.970498,0,0,-7.9701,277.72328,315.151)"/>
<path transform="matrix(1.00005,0,0,-1,226.8327,237.244)" stroke-width=".3985" stroke-linecap="round" stroke-miterlimit="10" stroke-linejoin="miter" fill="none" stroke="#929292" d="M0 0 130.11035-75.11903"/>
<path transform="matrix(1.00005,0,0,-1,226.8327,237.244)" d="M132.22243-75.11903C132.22243-73.95256 131.27683-73.00696 130.11035-73.00696 128.94388-73.00696 127.99828-73.95256 127.99828-75.11903 127.99828-76.2855 128.94388-77.23111 130.11035-77.23111 131.27683-77.23111 132.22243-76.2855 132.22243-75.11903ZM130.11035-75.11903"/>
<path transform="matrix(1.00005,0,0,-1,226.8327,237.244)" stroke-width=".3985" stroke-linecap="round" stroke-miterlimit="10" stroke-linejoin="miter" fill="none" stroke="#000000" d="M132.22243-75.11903C132.22243-73.95256 131.27683-73.00696 130.11035-73.00696 128.94388-73.00696 127.99828-73.95256 127.99828-75.11903 127.99828-76.2855 128.94388-77.23111 130.11035-77.23111 131.27683-77.23111 132.22243-76.2855 132.22243-75.11903ZM130.11035-75.11903"/>
<path transform="matrix(1.00005,0,0,-1,226.8327,237.244)" stroke-width=".3985" stroke-linecap="round" stroke-miterlimit="10" stroke-linejoin="miter" fill="none" stroke="#000000" d="M78.06703-45.07187"/>
<path transform="matrix(1.00005,0,0,-1,226.8327,237.244)" d="M63.8829-52.50691H92.25116V-37.636819H63.8829Z" fill="#ffffff"/>
<use data-text="3" xlink:href="#font_2_6" transform="matrix(10.909644,0,0,-10.9091,294.35508,286.115)"/>
<use data-text="3" xlink:href="#font_2_6" transform="matrix(10.909644,0,0,-10.9091,299.8099,286.115)"/>
<use data-text="0" xlink:href="#font_2_3" transform="matrix(10.909644,0,0,-10.9091,305.26475,286.115)"/>
<use data-text="&#x25e6;" xlink:href="#font_3_1" transform="matrix(7.970498,0,0,-7.9701,310.7199,282.156)"/>
<path transform="matrix(1.00005,0,0,-1,226.8327,237.244)" stroke-width=".3985" stroke-linecap="round" stroke-miterlimit="10" stroke-linejoin="miter" fill="none" stroke="#929292" d="M0 0H150.23816"/>
<path transform="matrix(1.00005,0,0,-1,226.8327,237.244)" d="M152.35024 0C152.35024 1.16647 151.40465 2.11206 150.23816 2.11206 149.07169 2.11206 148.1261 1.16647 148.1261 0 148.1261-1.16647 149.07169-2.11206 150.23816-2.11206 151.40465-2.11206 152.35024-1.16647 152.35024 0ZM150.23816 0"/>
<path transform="matrix(1.00005,0,0,-1,226.8327,237.244)" stroke-width=".3985" stroke-linecap="round" stroke-miterlimit="10" stroke-linejoin="miter" fill="none" stroke="#000000" d="M152.35024 0C152.35024 1.16647 151.40465 2.11206 150.23816 2.11206 149.07169 2.11206 148.1261 1.16647 148.1261 0 148.1261-1.16647 149.07169-2.11206 150.23816-2.11206 151.40465-2.11206 152.35024-1.16647 152.35024 0ZM150.23816 0"/>
<path transform="matrix(1.00005,0,0,-1,226.8327,237.244)" stroke-width=".3985" stroke-linecap="round" stroke-miterlimit="10" stroke-linejoin="miter" fill="none" stroke="#000000" d="M90.14383 0"/>
<path transform="matrix(1.00005,0,0,-1,226.8327,237.244)" d="M75.9597-7.43504H104.32796V7.4350497H75.9597Z" fill="#ffffff"/>
<use data-text="3" xlink:href="#font_2_6" transform="matrix(10.909644,0,0,-10.9091,306.43269,241.043)"/>
<use data-text="6" xlink:href="#font_2_9" transform="matrix(10.909644,0,0,-10.9091,311.8875,241.043)"/>
<use data-text="0" xlink:href="#font_2_3" transform="matrix(10.909644,0,0,-10.9091,317.34236,241.043)"/>
<use data-text="&#x25e6;" xlink:href="#font_3_1" transform="matrix(7.970498,0,0,-7.9701,322.79753,237.084)"/>
<path transform="matrix(1.00005,0,0,-1,226.8327,237.244)" stroke-width=".3985" stroke-linecap="round" stroke-miterlimit="10" stroke-linejoin="miter" fill="none" stroke="#929292" d="M0 0 106.23448 106.23448"/>
<path transform="matrix(1.00005,0,0,-1,226.8327,237.244)" d="M108.34656 106.23448C108.34656 107.40097 107.40097 108.34656 106.23448 108.34656 105.06801 108.34656 104.12242 107.40097 104.12242 106.23448 104.12242 105.06801 105.06801 104.12242 106.23448 104.12242 107.40097 104.12242 108.34656 105.06801 108.34656 106.23448ZM106.23448 106.23448"/>
<path transform="matrix(1.00005,0,0,-1,226.8327,237.244)" stroke-width=".3985" stroke-linecap="round" stroke-miterlimit="10" stroke-linejoin="miter" fill="none" stroke="#000000" d="M108.34656 106.23448C108.34656 107.40097 107.40097 108.34656 106.23448 108.34656 105.06801 108.34656 104.12242 107.40097 104.12242 106.23448 104.12242 105.06801 105.06801 104.12242 106.23448 104.12242 107.40097 104.12242 108.34656 105.06801 108.34656 106.23448ZM106.23448 106.23448"/>
<path transform="matrix(1.00005,0,0,-1,226.8327,237.244)" stroke-width=".3985" stroke-linecap="round" stroke-miterlimit="10" stroke-linejoin="miter" fill="none" stroke="#000000" d="M63.74133 63.74133"/>
<path transform="matrix(1.00005,0,0,-1,226.8327,237.244)" d="M52.28452 56.30629H75.19816V71.17638H52.28452Z" fill="#ffffff"/>
<use data-text="4" xlink:href="#font_2_7" transform="matrix(10.909644,0,0,-10.9091,282.7565,177.302)"/>
<use data-text="5" xlink:href="#font_2_8" transform="matrix(10.909644,0,0,-10.9091,288.21134,177.302)"/>
<use data-text="&#x25e6;" xlink:href="#font_3_1" transform="matrix(7.970498,0,0,-7.9701,293.66706,173.343)"/>
<path transform="matrix(1.00005,0,0,-1,226.8327,237.244)" stroke-width=".3985" stroke-linecap="round" stroke-miterlimit="10" stroke-linejoin="miter" fill="none" stroke="#929292" d="M0 0-106.23448 106.23448"/>
<path transform="matrix(1.00005,0,0,-1,226.8327,237.244)" d="M-104.12242 106.23448C-104.12242 107.40097-105.06801 108.34656-106.23448 108.34656-107.40097 108.34656-108.34656 107.40097-108.34656 106.23448-108.34656 105.06801-107.40097 104.12242-106.23448 104.12242-105.06801 104.12242-104.12242 105.06801-104.12242 106.23448ZM-106.23448 106.23448"/>
<path transform="matrix(1.00005,0,0,-1,226.8327,237.244)" stroke-width=".3985" stroke-linecap="round" stroke-miterlimit="10" stroke-linejoin="miter" fill="none" stroke="#000000" d="M-104.12242 106.23448C-104.12242 107.40097-105.06801 108.34656-106.23448 108.34656-107.40097 108.34656-108.34656 107.40097-108.34656 106.23448-108.34656 105.06801-107.40097 104.12242-106.23448 104.12242-105.06801 104.12242-104.12242 105.06801-104.12242 106.23448ZM-106.23448 106.23448"/>
<path transform="matrix(1.00005,0,0,-1,226.8327,237.244)" stroke-width=".3985" stroke-linecap="round" stroke-miterlimit="10" stroke-linejoin="miter" fill="none" stroke="#000000" d="M-63.74133 63.74133"/>
<path transform="matrix(1.00005,0,0,-1,226.8327,237.244)" d="M-77.92548 56.30629H-49.557226V71.17638H-77.92548Z" fill="#ffffff"/>
<use data-text="1" xlink:href="#font_2_4" transform="matrix(10.909644,0,0,-10.9091,152.54,177.302)"/>
<use data-text="3" xlink:href="#font_2_6" transform="matrix(10.909644,0,0,-10.9091,157.99483,177.302)"/>
<use data-text="5" xlink:href="#font_2_8" transform="matrix(10.909644,0,0,-10.9091,163.44966,177.302)"/>
<use data-text="&#x25e6;" xlink:href="#font_3_1" transform="matrix(7.970498,0,0,-7.9701,168.90483,173.343)"/>
<path transform="matrix(1.00005,0,0,-1,226.8327,237.244)" stroke-width=".3985" stroke-linecap="round" stroke-miterlimit="10" stroke-linejoin="miter" fill="none" stroke="#929292" d="M0 0-106.23448-106.23448"/>
<path transform="matrix(1.00005,0,0,-1,226.8327,237.244)" d="M-104.12242-106.23448C-104.12242-105.06801-105.06801-104.12242-106.23448-104.12242-107.40097-104.12242-108.34656-105.06801-108.34656-106.23448-108.34656-107.40097-107.40097-108.34656-106.23448-108.34656-105.06801-108.34656-104.12242-107.40097-104.12242-106.23448ZM-106.23448-106.23448"/>
<path transform="matrix(1.00005,0,0,-1,226.8327,237.244)" stroke-width=".3985" stroke-linecap="round" stroke-miterlimit="10" stroke-linejoin="miter" fill="none" stroke="#000000" d="M-104.12242-106.23448C-104.12242-105.06801-105.06801-104.12242-106.23448-104.12242-107.40097-104.12242-108.34656-105.06801-108.34656-106.23448-108.34656-107.40097-107.40097-108.34656-106.23448-108.34656-105.06801-108.34656-104.12242-107.40097-104.12242-106.23448ZM-106.23448-106.23448"/>
<path transform="matrix(1.00005,0,0,-1,226.8327,237.244)" stroke-width=".3985" stroke-linecap="round" stroke-miterlimit="10" stroke-linejoin="miter" fill="none" stroke="#000000" d="M-63.74133-63.74133"/>
<path transform="matrix(1.00005,0,0,-1,226.8327,237.244)" d="M-77.92548-71.17639H-49.557226V-56.3063H-77.92548Z" fill="#ffffff"/>
<use data-text="2" xlink:href="#font_2_5" transform="matrix(10.909644,0,0,-10.9091,152.54,304.784)"/>
<use data-text="2" xlink:href="#font_2_5" transform="matrix(10.909644,0,0,-10.9091,157.99483,304.784)"/>
<use data-text="5" xlink:href="#font_2_8" transform="matrix(10.909644,0,0,-10.9091,163.44966,304.784)"/>
<use data-text="&#x25e6;" xlink:href="#font_3_1" transform="matrix(7.970498,0,0,-7.9701,168.90483,300.825)"/>
<path transform="matrix(1.00005,0,0,-1,226.8327,237.244)" stroke-width=".3985" stroke-linecap="round" stroke-miterlimit="10" stroke-linejoin="miter" fill="none" stroke="#929292" d="M0 0 106.23448-106.23448"/>
<path transform="matrix(1.00005,0,0,-1,226.8327,237.244)" d="M108.34656-106.23448C108.34656-105.06801 107.40097-104.12242 106.23448-104.12242 105.06801-104.12242 104.12242-105.06801 104.12242-106.23448 104.12242-107.40097 105.06801-108.34656 106.23448-108.34656 107.40097-108.34656 108.34656-107.40097 108.34656-106.23448ZM106.23448-106.23448"/>
<path transform="matrix(1.00005,0,0,-1,226.8327,237.244)" stroke-width=".3985" stroke-linecap="round" stroke-miterlimit="10" stroke-linejoin="miter" fill="none" stroke="#000000" d="M108.34656-106.23448C108.34656-105.06801 107.40097-104.12242 106.23448-104.12242 105.06801-104.12242 104.12242-105.06801 104.12242-106.23448 104.12242-107.40097 105.06801-108.34656 106.23448-108.34656 107.40097-108.34656 108.34656-107.40097 108.34656-106.23448ZM106.23448-106.23448"/>
<path transform="matrix(1.00005,0,0,-1,226.8327,237.244)" stroke-width=".3985" stroke-linecap="round" stroke-miterlimit="10" stroke-linejoin="miter" fill="none" stroke="#000000" d="M63.74133-63.74133"/>
<path transform="matrix(1.00005,0,0,-1,226.8327,237.244)" d="M49.5572-71.17639H77.92546V-56.3063H49.5572Z" fill="#ffffff"/>
<use data-text="3" xlink:href="#font_2_6" transform="matrix(10.909644,0,0,-10.9091,280.02836,304.784)"/>
<use data-text="1" xlink:href="#font_2_4" transform="matrix(10.909644,0,0,-10.9091,285.4832,304.784)"/>
<use data-text="5" xlink:href="#font_2_8" transform="matrix(10.909644,0,0,-10.9091,290.93803,304.784)"/>
<use data-text="&#x25e6;" xlink:href="#font_3_1" transform="matrix(7.970498,0,0,-7.9701,296.3932,300.825)"/>
<path transform="matrix(1.00005,0,0,-1,226.8327,237.244)" stroke-width=".3985" stroke-linecap="round" stroke-miterlimit="10" stroke-linejoin="miter" fill="none" stroke="#000000" d="M110.59465 63.85164"/>
<path transform="matrix(1.00005,0,0,-1,226.8327,237.244)" d="M103.18866 54.4712H118.00061V73.23208H103.18866Z" fill="#ffffff"/>
<use data-text="&#x03c0;" xlink:href="#font_4_1" transform="matrix(7.970498,0,0,-7.9701,334.85908,171.079)"/>
<path transform="matrix(1.00005,0,0,-1,39.82734,-49.869)" stroke-width=".4364" stroke-linecap="butt" stroke-miterlimit="10" stroke-linejoin="miter" fill="none" stroke="#000000" d="M295.017-222.516H300.166"/>
<use data-text="6" xlink:href="#font_5_6" transform="matrix(7.970498,0,0,-7.9701,335.3161,179.137)"/>
<path transform="matrix(1.00005,0,0,-1,226.8327,237.244)" stroke-width=".3985" stroke-linecap="round" stroke-miterlimit="10" stroke-linejoin="miter" fill="none" stroke="#000000" d="M90.29997 90.29997"/>
<path transform="matrix(1.00005,0,0,-1,226.8327,237.244)" d="M82.894 80.91953H97.70595V99.68041H82.894Z" fill="#ffffff"/>
<use data-text="&#x03c0;" xlink:href="#font_4_1" transform="matrix(7.970498,0,0,-7.9701,314.56309,144.631)"/>
<path transform="matrix(1.00005,0,0,-1,19.531334,-76.317)" stroke-width=".4364" stroke-linecap="butt" stroke-miterlimit="10" stroke-linejoin="miter" fill="none" stroke="#000000" d="M295.017-222.516H300.166"/>
<use data-text="4" xlink:href="#font_5_4" transform="matrix(7.970498,0,0,-7.9701,315.0201,152.689)"/>
<path transform="matrix(1.00005,0,0,-1,226.8327,237.244)" stroke-width=".3985" stroke-linecap="round" stroke-miterlimit="10" stroke-linejoin="miter" fill="none" stroke="#000000" d="M63.85164 110.59465"/>
<path transform="matrix(1.00005,0,0,-1,226.8327,237.244)" d="M56.44566 101.2142H71.25761V119.97508H56.44566Z" fill="#ffffff"/>
<use data-text="&#x03c0;" xlink:href="#font_4_1" transform="matrix(7.970498,0,0,-7.9701,288.11375,124.336)"/>
<path transform="matrix(1.00005,0,0,-1,-6.917988,-96.612)" stroke-width=".4364" stroke-linecap="butt" stroke-miterlimit="10" stroke-linejoin="miter" fill="none" stroke="#000000" d="M295.017-222.516H300.166"/>
<use data-text="3" xlink:href="#font_5_3" transform="matrix(7.970498,0,0,-7.9701,288.57078,132.394)"/>
<path transform="matrix(1.00005,0,0,-1,226.8327,237.244)" stroke-width=".3985" stroke-linecap="round" stroke-miterlimit="10" stroke-linejoin="miter" fill="none" stroke="#000000" d="M0 127.70338"/>
<path transform="matrix(1.00005,0,0,-1,226.8327,237.244)" d="M-7.40598 118.32295H7.4059698V137.08383H-7.40598Z" fill="#ffffff"/>
<use data-text="&#x03c0;" xlink:href="#font_4_1" transform="matrix(7.970498,0,0,-7.9701,224.25856,107.227)"/>
<path transform="matrix(1.00005,0,0,-1,-70.77318,-113.721)" stroke-width=".4364" stroke-linecap="butt" stroke-miterlimit="10" stroke-linejoin="miter" fill="none" stroke="#000000" d="M295.017-222.516H300.166"/>
<use data-text="2" xlink:href="#font_5_2" transform="matrix(7.970498,0,0,-7.9701,224.71559,115.284999)"/>
<path transform="matrix(1.00005,0,0,-1,226.8327,237.244)" stroke-width=".3985" stroke-linecap="round" stroke-miterlimit="10" stroke-linejoin="miter" fill="none" stroke="#000000" d="M-63.85164 110.59465"/>
<path transform="matrix(1.00005,0,0,-1,226.8327,237.244)" d="M-73.37474 100.36183H-54.328554V120.82745H-73.37474Z" fill="#ffffff"/>
<use data-text="2" xlink:href="#font_5_2" transform="matrix(7.970498,0,0,-7.9701,158.28626,125.187999)"/>
<use data-text="&#x03c0;" xlink:href="#font_4_1" transform="matrix(7.970498,0,0,-7.9701,162.52048,125.187999)"/>
<path transform="matrix(1.00005,0,0,-1,-136.74549,-95.76)" stroke-width=".4364" stroke-linecap="butt" stroke-miterlimit="10" stroke-linejoin="miter" fill="none" stroke="#000000" d="M295.017-222.516H304.4"/>
<use data-text="3" xlink:href="#font_5_3" transform="matrix(7.970498,0,0,-7.9701,160.86038,133.246)"/>
<path transform="matrix(1.00005,0,0,-1,226.8327,237.244)" stroke-width=".3985" stroke-linecap="round" stroke-miterlimit="10" stroke-linejoin="miter" fill="none" stroke="#000000" d="M-90.29997 90.29997"/>
<path transform="matrix(1.00005,0,0,-1,226.8327,237.244)" d="M-99.82307 80.06715H-80.77688V100.53277H-99.82307Z" fill="#ffffff"/>
<use data-text="3" xlink:href="#font_5_3" transform="matrix(7.970498,0,0,-7.9701,131.83695,145.483)"/>
<use data-text="&#x03c0;" xlink:href="#font_4_1" transform="matrix(7.970498,0,0,-7.9701,136.07117,145.483)"/>
<path transform="matrix(1.00005,0,0,-1,-163.1948,-75.465)" stroke-width=".4364" stroke-linecap="butt" stroke-miterlimit="10" stroke-linejoin="miter" fill="none" stroke="#000000" d="M295.017-222.516H304.4"/>
<use data-text="4" xlink:href="#font_5_4" transform="matrix(7.970498,0,0,-7.9701,134.41107,153.541)"/>
<path transform="matrix(1.00005,0,0,-1,226.8327,237.244)" stroke-width=".3985" stroke-linecap="round" stroke-miterlimit="10" stroke-linejoin="miter" fill="none" stroke="#000000" d="M-110.59465 63.85164"/>
<path transform="matrix(1.00005,0,0,-1,226.8327,237.244)" d="M-120.11774 53.61884H-101.07155V74.08446H-120.11774Z" fill="#ffffff"/>
<use data-text="5" xlink:href="#font_5_5" transform="matrix(7.970498,0,0,-7.9701,111.540927,171.931)"/>
<use data-text="&#x03c0;" xlink:href="#font_4_1" transform="matrix(7.970498,0,0,-7.9701,115.77515,171.931)"/>
<path transform="matrix(1.00005,0,0,-1,-183.49082,-49.017)" stroke-width=".4364" stroke-linecap="butt" stroke-miterlimit="10" stroke-linejoin="miter" fill="none" stroke="#000000" d="M295.017-222.516H304.4"/>
<use data-text="6" xlink:href="#font_5_6" transform="matrix(7.970498,0,0,-7.9701,114.11505,179.989)"/>
<path transform="matrix(1.00005,0,0,-1,226.8327,237.244)" stroke-width=".3985" stroke-linecap="round" stroke-miterlimit="10" stroke-linejoin="miter" fill="none" stroke="#000000" d="M-127.70338 0"/>
<path transform="matrix(1.00005,0,0,-1,226.8327,237.244)" d="M-134.64437-5.98451H-120.762409V5.98451H-134.64437Z" fill="#ffffff"/>
<use data-text="&#x03c0;" xlink:href="#font_1_1" transform="matrix(10.909644,0,0,-10.9091,95.81816,239.593)"/>
<path transform="matrix(1.00005,0,0,-1,226.8327,237.244)" stroke-width=".3985" stroke-linecap="round" stroke-miterlimit="10" stroke-linejoin="miter" fill="none" stroke="#000000" d="M-110.59465-63.85164"/>
<path transform="matrix(1.00005,0,0,-1,226.8327,237.244)" d="M-120.11774-74.08446H-101.07155V-53.618837H-120.11774Z" fill="#ffffff"/>
<use data-text="7" xlink:href="#font_5_7" transform="matrix(7.970498,0,0,-7.9701,111.540927,299.635)"/>
<use data-text="&#x03c0;" xlink:href="#font_4_1" transform="matrix(7.970498,0,0,-7.9701,115.77515,299.635)"/>
<path transform="matrix(1.00005,0,0,-1,-183.49082,78.687)" stroke-width=".4364" stroke-linecap="butt" stroke-miterlimit="10" stroke-linejoin="miter" fill="none" stroke="#000000" d="M295.017-222.516H304.4"/>
<use data-text="6" xlink:href="#font_5_6" transform="matrix(7.970498,0,0,-7.9701,114.11505,307.693)"/>
<path transform="matrix(1.00005,0,0,-1,226.8327,237.244)" stroke-width=".3985" stroke-linecap="round" stroke-miterlimit="10" stroke-linejoin="miter" fill="none" stroke="#000000" d="M-90.29997-90.29997"/>
<path transform="matrix(1.00005,0,0,-1,226.8327,237.244)" d="M-99.82307-100.53279H-80.77688V-80.06717H-99.82307Z" fill="#ffffff"/>
<use data-text="5" xlink:href="#font_5_5" transform="matrix(7.970498,0,0,-7.9701,131.83695,326.083)"/>
<use data-text="&#x03c0;" xlink:href="#font_4_1" transform="matrix(7.970498,0,0,-7.9701,136.07117,326.083)"/>
<path transform="matrix(1.00005,0,0,-1,-163.1948,105.135)" stroke-width=".4364" stroke-linecap="butt" stroke-miterlimit="10" stroke-linejoin="miter" fill="none" stroke="#000000" d="M295.017-222.516H304.4"/>
<use data-text="4" xlink:href="#font_5_4" transform="matrix(7.970498,0,0,-7.9701,134.41107,334.141)"/>
<path transform="matrix(1.00005,0,0,-1,226.8327,237.244)" stroke-width=".3985" stroke-linecap="round" stroke-miterlimit="10" stroke-linejoin="miter" fill="none" stroke="#000000" d="M-63.85164-110.59465"/>
<path transform="matrix(1.00005,0,0,-1,226.8327,237.244)" d="M-73.37474-120.82745H-54.328554V-100.36183H-73.37474Z" fill="#ffffff"/>
<use data-text="4" xlink:href="#font_5_4" transform="matrix(7.970498,0,0,-7.9701,158.28626,346.378)"/>
<use data-text="&#x03c0;" xlink:href="#font_4_1" transform="matrix(7.970498,0,0,-7.9701,162.52048,346.378)"/>
<path transform="matrix(1.00005,0,0,-1,-136.74549,125.43)" stroke-width=".4364" stroke-linecap="butt" stroke-miterlimit="10" stroke-linejoin="miter" fill="none" stroke="#000000" d="M295.017-222.516H304.4"/>
<use data-text="3" xlink:href="#font_5_3" transform="matrix(7.970498,0,0,-7.9701,160.86038,354.436)"/>
<path transform="matrix(1.00005,0,0,-1,226.8327,237.244)" stroke-width=".3985" stroke-linecap="round" stroke-miterlimit="10" stroke-linejoin="miter" fill="none" stroke="#000000" d="M0-127.70338"/>
<path transform="matrix(1.00005,0,0,-1,226.8327,237.244)" d="M-9.52309-137.9362H9.5231V-117.47058H-9.52309Z" fill="#ffffff"/>
<use data-text="3" xlink:href="#font_5_3" transform="matrix(7.970498,0,0,-7.9701,222.14145,363.486)"/>
<use data-text="&#x03c0;" xlink:href="#font_4_1" transform="matrix(7.970498,0,0,-7.9701,226.37567,363.486)"/>
<path transform="matrix(1.00005,0,0,-1,-72.89028,142.538)" stroke-width=".4364" stroke-linecap="butt" stroke-miterlimit="10" stroke-linejoin="miter" fill="none" stroke="#000000" d="M295.017-222.516H304.4"/>
<use data-text="2" xlink:href="#font_5_2" transform="matrix(7.970498,0,0,-7.9701,224.71558,371.544)"/>
<path transform="matrix(1.00005,0,0,-1,226.8327,237.244)" stroke-width=".3985" stroke-linecap="round" stroke-miterlimit="10" stroke-linejoin="miter" fill="none" stroke="#000000" d="M63.85164-110.59465"/>
<path transform="matrix(1.00005,0,0,-1,226.8327,237.244)" d="M54.32855-120.82745H73.37474V-100.36183H54.32855Z" fill="#ffffff"/>
<use data-text="5" xlink:href="#font_5_5" transform="matrix(7.970498,0,0,-7.9701,285.99665,346.378)"/>
<use data-text="&#x03c0;" xlink:href="#font_4_1" transform="matrix(7.970498,0,0,-7.9701,290.23088,346.378)"/>
<path transform="matrix(1.00005,0,0,-1,-9.035095,125.43)" stroke-width=".4364" stroke-linecap="butt" stroke-miterlimit="10" stroke-linejoin="miter" fill="none" stroke="#000000" d="M295.017-222.516H304.4"/>
<use data-text="3" xlink:href="#font_5_3" transform="matrix(7.970498,0,0,-7.9701,288.57078,354.436)"/>
<path transform="matrix(1.00005,0,0,-1,226.8327,237.244)" stroke-width=".3985" stroke-linecap="round" stroke-miterlimit="10" stroke-linejoin="miter" fill="none" stroke="#000000" d="M90.29997-90.29997"/>
<path transform="matrix(1.00005,0,0,-1,226.8327,237.244)" d="M80.77687-100.53279H99.82306V-80.06717H80.77687Z" fill="#ffffff"/>
<use data-text="7" xlink:href="#font_5_7" transform="matrix(7.970498,0,0,-7.9701,312.44599,326.083)"/>
<use data-text="&#x03c0;" xlink:href="#font_4_1" transform="matrix(7.970498,0,0,-7.9701,316.68019,326.083)"/>
<path transform="matrix(1.00005,0,0,-1,17.41423,105.135)" stroke-width=".4364" stroke-linecap="butt" stroke-miterlimit="10" stroke-linejoin="miter" fill="none" stroke="#000000" d="M295.017-222.516H304.4"/>
<use data-text="4" xlink:href="#font_5_4" transform="matrix(7.970498,0,0,-7.9701,315.02009,334.141)"/>
<path transform="matrix(1.00005,0,0,-1,226.8327,237.244)" stroke-width=".3985" stroke-linecap="round" stroke-miterlimit="10" stroke-linejoin="miter" fill="none" stroke="#000000" d="M110.59465-63.85164"/>
<path transform="matrix(1.00005,0,0,-1,226.8327,237.244)" d="M98.95442-74.08446H122.23485V-53.618837H98.95442Z" fill="#ffffff"/>
<use data-text="1" xlink:href="#font_5_1" transform="matrix(7.970498,0,0,-7.9701,330.62388,299.635)"/>
<use data-text="1" xlink:href="#font_5_1" transform="matrix(7.970498,0,0,-7.9701,334.8562,299.635)"/>
<use data-text="&#x03c0;" xlink:href="#font_4_1" transform="matrix(7.970498,0,0,-7.9701,339.0923,299.635)"/>
<path transform="matrix(1.00005,0,0,-1,35.592134,78.687)" stroke-width=".4364" stroke-linecap="butt" stroke-miterlimit="10" stroke-linejoin="miter" fill="none" stroke="#000000" d="M295.017-222.516H308.634"/>
<use data-text="6" xlink:href="#font_5_6" transform="matrix(7.970498,0,0,-7.9701,335.31614,307.693)"/>
<path transform="matrix(1.00005,0,0,-1,226.8327,237.244)" stroke-width=".3985" stroke-linecap="round" stroke-miterlimit="10" stroke-linejoin="miter" fill="none" stroke="#000000" d="M127.70338 0"/>
<path transform="matrix(1.00005,0,0,-1,226.8327,237.244)" d="M118.0351-7.15118H137.37169V7.1512H118.0351Z" fill="#ffffff"/>
<use data-text="2" xlink:href="#font_2_5" transform="matrix(10.909644,0,0,-10.9091,348.50978,240.759)"/>
<use data-text="&#x03c0;" xlink:href="#font_1_1" transform="matrix(10.909644,0,0,-10.9091,353.96504,240.759)"/>
<path transform="matrix(1.00005,0,0,-1,226.8327,237.244)" stroke-width=".3985" stroke-linecap="round" stroke-miterlimit="10" stroke-linejoin="miter" fill="none" stroke="#000000" d="M162.63806 93.89882"/>
<path transform="matrix(1.00005,0,0,-1,226.8327,237.244)" d="M139.9087 80.44441H185.36739V107.35321H139.9087Z" fill="#ffffff"/>
<use data-text="(" xlink:href="#font_6_1" transform="matrix(10.909644,0,0,-10.9091,370.3849,133.963)"/>
<use data-text="&#x221a;" xlink:href="#font_3_2" transform="matrix(7.970498,0,0,-7.9701,378.09626,135.078)"/>
<path transform="matrix(1.00005,0,0,-1,76.54918,-79.172)" stroke-width=".3587" stroke-linecap="butt" stroke-miterlimit="10" stroke-linejoin="miter" fill="none" stroke="#000000" d="M308.589-214.071H312.823"/>
<use data-text="3" xlink:href="#font_5_3" transform="matrix(7.970498,0,0,-7.9701,385.15357,141.677)"/>
<path transform="matrix(1.00005,0,0,-1,76.54918,-79.172)" stroke-width=".4364" stroke-linecap="butt" stroke-miterlimit="10" stroke-linejoin="miter" fill="none" stroke="#000000" d="M301.532-222.516H312.823"/>
<use data-text="2" xlink:href="#font_5_2" transform="matrix(7.970498,0,0,-7.9701,381.62544,149.834)"/>
<use data-text="," xlink:href="#font_1_2" transform="matrix(10.909644,0,0,-10.9091,390.58387,146.072)"/>
<use data-text="1" xlink:href="#font_5_1" transform="matrix(7.970498,0,0,-7.9701,396.62818,141.776)"/>
<path transform="matrix(1.00005,0,0,-1,76.54918,-79.172)" stroke-width=".4364" stroke-linecap="butt" stroke-miterlimit="10" stroke-linejoin="miter" fill="none" stroke="#000000" d="M320.063-222.516H324.297"/>
<use data-text="2" xlink:href="#font_5_2" transform="matrix(7.970498,0,0,-7.9701,396.62818,149.834)"/>
<use data-text=")" xlink:href="#font_6_2" transform="matrix(10.909644,0,0,-10.9091,402.0584,133.963)"/>
<path transform="matrix(1.00005,0,0,-1,226.8327,237.244)" stroke-width=".3985" stroke-linecap="round" stroke-miterlimit="10" stroke-linejoin="miter" fill="none" stroke="#000000" d="M132.79312 132.79312"/>
<path transform="matrix(1.00005,0,0,-1,226.8327,237.244)" d="M106.53525 119.33871H159.051V146.24752H106.53525Z" fill="#ffffff"/>
<use data-text="(" xlink:href="#font_6_1" transform="matrix(10.909644,0,0,-10.9091,337.00923,95.069)"/>
<use data-text="&#x221a;" xlink:href="#font_3_2" transform="matrix(7.970498,0,0,-7.9701,344.72059,96.184009)"/>
<path transform="matrix(1.00005,0,0,-1,43.173509,-118.065998)" stroke-width=".3587" stroke-linecap="butt" stroke-miterlimit="10" stroke-linejoin="miter" fill="none" stroke="#000000" d="M308.589-214.071H312.823"/>
<use data-text="2" xlink:href="#font_5_2" transform="matrix(7.970498,0,0,-7.9701,351.7779,102.783008)"/>
<path transform="matrix(1.00005,0,0,-1,43.173509,-118.065998)" stroke-width=".4364" stroke-linecap="butt" stroke-miterlimit="10" stroke-linejoin="miter" fill="none" stroke="#000000" d="M301.532-222.516H312.823"/>
<use data-text="2" xlink:href="#font_5_2" transform="matrix(7.970498,0,0,-7.9701,348.24977,110.94)"/>
<use data-text="," xlink:href="#font_1_2" transform="matrix(10.909644,0,0,-10.9091,357.2082,107.17801)"/>
<use data-text="&#x221a;" xlink:href="#font_3_2" transform="matrix(7.970498,0,0,-7.9701,363.2525,96.184009)"/>
<path transform="matrix(1.00005,0,0,-1,43.173509,-118.065998)" stroke-width=".3587" stroke-linecap="butt" stroke-miterlimit="10" stroke-linejoin="miter" fill="none" stroke="#000000" d="M327.12-214.071H331.354"/>
<use data-text="2" xlink:href="#font_5_2" transform="matrix(7.970498,0,0,-7.9701,370.3098,102.783008)"/>
<path transform="matrix(1.00005,0,0,-1,43.173509,-118.065998)" stroke-width=".4364" stroke-linecap="butt" stroke-miterlimit="10" stroke-linejoin="miter" fill="none" stroke="#000000" d="M320.063-222.516H331.354"/>
<use data-text="2" xlink:href="#font_5_2" transform="matrix(7.970498,0,0,-7.9701,366.7807,110.94)"/>
<use data-text=")" xlink:href="#font_6_2" transform="matrix(10.909644,0,0,-10.9091,375.73915,95.069)"/>
<path transform="matrix(1.00005,0,0,-1,226.8327,237.244)" stroke-width=".3985" stroke-linecap="round" stroke-miterlimit="10" stroke-linejoin="miter" fill="none" stroke="#000000" d="M93.89882 162.63806"/>
<path transform="matrix(1.00005,0,0,-1,226.8327,237.244)" d="M71.16946 149.18366H116.628139V176.09246H71.16946Z" fill="#ffffff"/>
<use data-text="(" xlink:href="#font_6_1" transform="matrix(10.909644,0,0,-10.9091,301.64146,65.224)"/>
<use data-text="1" xlink:href="#font_5_1" transform="matrix(7.970498,0,0,-7.9701,309.35285,73.037)"/>
<path transform="matrix(1.00005,0,0,-1,7.805748,-147.911)" stroke-width=".4364" stroke-linecap="butt" stroke-miterlimit="10" stroke-linejoin="miter" fill="none" stroke="#000000" d="M301.532-222.516H305.766"/>
<use data-text="2" xlink:href="#font_5_2" transform="matrix(7.970498,0,0,-7.9701,309.35285,81.095)"/>
<use data-text="," xlink:href="#font_1_2" transform="matrix(10.909644,0,0,-10.9091,314.78309,77.33301)"/>
<use data-text="&#x221a;" xlink:href="#font_3_2" transform="matrix(7.970498,0,0,-7.9701,320.8274,66.339008)"/>
<path transform="matrix(1.00005,0,0,-1,7.805748,-147.911)" stroke-width=".3587" stroke-linecap="butt" stroke-miterlimit="10" stroke-linejoin="miter" fill="none" stroke="#000000" d="M320.063-214.071H324.297"/>
<use data-text="3" xlink:href="#font_5_3" transform="matrix(7.970498,0,0,-7.9701,327.88475,72.938)"/>
<path transform="matrix(1.00005,0,0,-1,7.805748,-147.911)" stroke-width=".4364" stroke-linecap="butt" stroke-miterlimit="10" stroke-linejoin="miter" fill="none" stroke="#000000" d="M313.006-222.516H324.297"/>
<use data-text="2" xlink:href="#font_5_2" transform="matrix(7.970498,0,0,-7.9701,324.35557,81.095)"/>
<use data-text=")" xlink:href="#font_6_2" transform="matrix(10.909644,0,0,-10.9091,333.315,65.224)"/>
<path transform="matrix(1.00005,0,0,-1,226.8327,237.244)" stroke-width=".3985" stroke-linecap="round" stroke-miterlimit="10" stroke-linejoin="miter" fill="none" stroke="#000000" d="M-162.63806 93.89882"/>
<path transform="matrix(1.00005,0,0,-1,226.8327,237.244)" d="M-189.6099 80.44441H-135.66623V107.35321H-189.6099Z" fill="#ffffff"/>
<use data-text="(" xlink:href="#font_6_1" transform="matrix(10.909644,0,0,-10.9091,40.84941,133.963)"/>
<use data-text="&#x2212;" xlink:href="#font_7_1" transform="matrix(10.909644,0,0,-10.9091,47.365739,146.07199)"/>
<use data-text="&#x221a;" xlink:href="#font_3_2" transform="matrix(7.970498,0,0,-7.9701,57.04619,135.07799)"/>
<path transform="matrix(1.00005,0,0,-1,-252.98628,-79.172)" stroke-width=".3587" stroke-linecap="butt" stroke-miterlimit="10" stroke-linejoin="miter" fill="none" stroke="#000000" d="M317.074-214.071H321.308"/>
<use data-text="3" xlink:href="#font_5_3" transform="matrix(7.970498,0,0,-7.9701,64.10356,141.677)"/>
<path transform="matrix(1.00005,0,0,-1,-252.98628,-79.172)" stroke-width=".4364" stroke-linecap="butt" stroke-miterlimit="10" stroke-linejoin="miter" fill="none" stroke="#000000" d="M310.017-222.516H321.308"/>
<use data-text="2" xlink:href="#font_5_2" transform="matrix(7.970498,0,0,-7.9701,60.575365,149.834)"/>
<use data-text="," xlink:href="#font_1_2" transform="matrix(10.909644,0,0,-10.9091,69.53383,146.072)"/>
<use data-text="1" xlink:href="#font_5_1" transform="matrix(7.970498,0,0,-7.9701,75.57814,141.776)"/>
<path transform="matrix(1.00005,0,0,-1,-252.98628,-79.172)" stroke-width=".4364" stroke-linecap="butt" stroke-miterlimit="10" stroke-linejoin="miter" fill="none" stroke="#000000" d="M328.548-222.516H332.782"/>
<use data-text="2" xlink:href="#font_5_2" transform="matrix(7.970498,0,0,-7.9701,75.57814,149.834)"/>
<use data-text=")" xlink:href="#font_6_2" transform="matrix(10.909644,0,0,-10.9091,81.0074,133.963)"/>
<path transform="matrix(1.00005,0,0,-1,226.8327,237.244)" stroke-width=".3985" stroke-linecap="round" stroke-miterlimit="10" stroke-linejoin="miter" fill="none" stroke="#000000" d="M-132.79312 132.79312"/>
<path transform="matrix(1.00005,0,0,-1,226.8327,237.244)" d="M-163.29349 119.33871H-102.292758V146.24752H-163.29349Z" fill="#ffffff"/>
<use data-text="(" xlink:href="#font_6_1" transform="matrix(10.909644,0,0,-10.9091,67.167728,95.069)"/>
<use data-text="&#x2212;" xlink:href="#font_7_1" transform="matrix(10.909644,0,0,-10.9091,73.68405,107.17799)"/>
<use data-text="&#x221a;" xlink:href="#font_3_2" transform="matrix(7.970498,0,0,-7.9701,83.3645,96.18399)"/>
<path transform="matrix(1.00005,0,0,-1,-226.66797,-118.065998)" stroke-width=".3587" stroke-linecap="butt" stroke-miterlimit="10" stroke-linejoin="miter" fill="none" stroke="#000000" d="M317.074-214.071H321.308"/>
<use data-text="2" xlink:href="#font_5_2" transform="matrix(7.970498,0,0,-7.9701,90.421878,102.783008)"/>
<path transform="matrix(1.00005,0,0,-1,-226.66797,-118.065998)" stroke-width=".4364" stroke-linecap="butt" stroke-miterlimit="10" stroke-linejoin="miter" fill="none" stroke="#000000" d="M310.017-222.516H321.308"/>
<use data-text="2" xlink:href="#font_5_2" transform="matrix(7.970498,0,0,-7.9701,86.89368,110.94)"/>
<use data-text="," xlink:href="#font_1_2" transform="matrix(10.909644,0,0,-10.9091,95.85214,107.17801)"/>
<use data-text="&#x221a;" xlink:href="#font_3_2" transform="matrix(7.970498,0,0,-7.9701,101.896457,96.184009)"/>
<path transform="matrix(1.00005,0,0,-1,-226.66797,-118.065998)" stroke-width=".3587" stroke-linecap="butt" stroke-miterlimit="10" stroke-linejoin="miter" fill="none" stroke="#000000" d="M335.605-214.071H339.839"/>
<use data-text="2" xlink:href="#font_5_2" transform="matrix(7.970498,0,0,-7.9701,108.9538,102.783008)"/>
<path transform="matrix(1.00005,0,0,-1,-226.66797,-118.065998)" stroke-width=".4364" stroke-linecap="butt" stroke-miterlimit="10" stroke-linejoin="miter" fill="none" stroke="#000000" d="M328.548-222.516H339.839"/>
<use data-text="2" xlink:href="#font_5_2" transform="matrix(7.970498,0,0,-7.9701,105.42462,110.94)"/>
<use data-text=")" xlink:href="#font_6_2" transform="matrix(10.909644,0,0,-10.9091,114.38306,95.069)"/>
<path transform="matrix(1.00005,0,0,-1,226.8327,237.244)" stroke-width=".3985" stroke-linecap="round" stroke-miterlimit="10" stroke-linejoin="miter" fill="none" stroke="#000000" d="M-93.89882 162.63806"/>
<path transform="matrix(1.00005,0,0,-1,226.8327,237.244)" d="M-120.87065 149.18366H-66.92699V176.09246H-120.87065Z" fill="#ffffff"/>
<use data-text="(" xlink:href="#font_6_1" transform="matrix(10.909644,0,0,-10.9091,109.59184,65.224)"/>
<use data-text="&#x2212;" xlink:href="#font_7_1" transform="matrix(10.909644,0,0,-10.9091,116.10817,77.33299)"/>
<use data-text="1" xlink:href="#font_5_1" transform="matrix(7.970498,0,0,-7.9701,125.78862,73.03699)"/>
<path transform="matrix(1.00005,0,0,-1,-184.24385,-147.911)" stroke-width=".4364" stroke-linecap="butt" stroke-miterlimit="10" stroke-linejoin="miter" fill="none" stroke="#000000" d="M310.017-222.516H314.251"/>
<use data-text="2" xlink:href="#font_5_2" transform="matrix(7.970498,0,0,-7.9701,125.78862,81.095)"/>
<use data-text="," xlink:href="#font_1_2" transform="matrix(10.909644,0,0,-10.9091,131.21889,77.33301)"/>
<use data-text="&#x221a;" xlink:href="#font_3_2" transform="matrix(7.970498,0,0,-7.9701,137.2632,66.339008)"/>
<path transform="matrix(1.00005,0,0,-1,-184.24385,-147.911)" stroke-width=".3587" stroke-linecap="butt" stroke-miterlimit="10" stroke-linejoin="miter" fill="none" stroke="#000000" d="M328.548-214.071H332.782"/>
<use data-text="3" xlink:href="#font_5_3" transform="matrix(7.970498,0,0,-7.9701,144.32057,72.938)"/>
<path transform="matrix(1.00005,0,0,-1,-184.24385,-147.911)" stroke-width=".4364" stroke-linecap="butt" stroke-miterlimit="10" stroke-linejoin="miter" fill="none" stroke="#000000" d="M321.491-222.516H332.782"/>
<use data-text="2" xlink:href="#font_5_2" transform="matrix(7.970498,0,0,-7.9701,140.7914,81.095)"/>
<use data-text=")" xlink:href="#font_6_2" transform="matrix(10.909644,0,0,-10.9091,149.74987,65.224)"/>
<path transform="matrix(1.00005,0,0,-1,226.8327,237.244)" stroke-width=".3985" stroke-linecap="round" stroke-miterlimit="10" stroke-linejoin="miter" fill="none" stroke="#000000" d="M-162.63806-93.89882"/>
<path transform="matrix(1.00005,0,0,-1,226.8327,237.244)" d="M-193.85239-107.35321H-131.42374V-80.44441H-193.85239Z" fill="#ffffff"/>
<use data-text="(" xlink:href="#font_6_1" transform="matrix(10.909644,0,0,-10.9091,36.607179,321.761)"/>
<use data-text="&#x2212;" xlink:href="#font_7_1" transform="matrix(10.909644,0,0,-10.9091,43.123506,333.87)"/>
<use data-text="&#x221a;" xlink:href="#font_3_2" transform="matrix(7.970498,0,0,-7.9701,52.803956,322.87599)"/>
<path transform="matrix(1.00005,0,0,-1,-257.22853,108.626)" stroke-width=".3587" stroke-linecap="butt" stroke-miterlimit="10" stroke-linejoin="miter" fill="none" stroke="#000000" d="M317.074-214.071H321.308"/>
<use data-text="3" xlink:href="#font_5_3" transform="matrix(7.970498,0,0,-7.9701,59.86133,329.475)"/>
<path transform="matrix(1.00005,0,0,-1,-257.22853,108.626)" stroke-width=".4364" stroke-linecap="butt" stroke-miterlimit="10" stroke-linejoin="miter" fill="none" stroke="#000000" d="M310.017-222.516H321.308"/>
<use data-text="2" xlink:href="#font_5_2" transform="matrix(7.970498,0,0,-7.9701,56.33313,337.632)"/>
<use data-text="," xlink:href="#font_1_2" transform="matrix(10.909644,0,0,-10.9091,65.291599,333.87)"/>
<use data-text="&#x2212;" xlink:href="#font_7_1" transform="matrix(10.909644,0,0,-10.9091,70.13983,333.87)"/>
<use data-text="1" xlink:href="#font_5_1" transform="matrix(7.970498,0,0,-7.9701,79.82132,329.574)"/>
<path transform="matrix(1.00005,0,0,-1,-257.22853,108.626)" stroke-width=".4364" stroke-linecap="butt" stroke-miterlimit="10" stroke-linejoin="miter" fill="none" stroke="#000000" d="M337.033-222.516H341.267"/>
<use data-text="2" xlink:href="#font_5_2" transform="matrix(7.970498,0,0,-7.9701,79.82132,337.632)"/>
<use data-text=")" xlink:href="#font_6_2" transform="matrix(10.909644,0,0,-10.9091,85.25058,321.761)"/>
<path transform="matrix(1.00005,0,0,-1,226.8327,237.244)" stroke-width=".3985" stroke-linecap="round" stroke-miterlimit="10" stroke-linejoin="miter" fill="none" stroke="#000000" d="M-132.79312-132.79312"/>
<path transform="matrix(1.00005,0,0,-1,226.8327,237.244)" d="M-167.53598-146.24753H-98.05026V-119.33873H-167.53598Z" fill="#ffffff"/>
<use data-text="(" xlink:href="#font_6_1" transform="matrix(10.909644,0,0,-10.9091,62.924516,360.655)"/>
<use data-text="&#x2212;" xlink:href="#font_7_1" transform="matrix(10.909644,0,0,-10.9091,69.44084,372.76399)"/>
<use data-text="&#x221a;" xlink:href="#font_3_2" transform="matrix(7.970498,0,0,-7.9701,79.12129,361.77)"/>
<path transform="matrix(1.00005,0,0,-1,-230.91118,147.52)" stroke-width=".3587" stroke-linecap="butt" stroke-miterlimit="10" stroke-linejoin="miter" fill="none" stroke="#000000" d="M317.074-214.071H321.308"/>
<use data-text="2" xlink:href="#font_5_2" transform="matrix(7.970498,0,0,-7.9701,86.178668,368.36903)"/>
<path transform="matrix(1.00005,0,0,-1,-230.91118,147.52)" stroke-width=".4364" stroke-linecap="butt" stroke-miterlimit="10" stroke-linejoin="miter" fill="none" stroke="#000000" d="M310.017-222.516H321.308"/>
<use data-text="2" xlink:href="#font_5_2" transform="matrix(7.970498,0,0,-7.9701,82.65047,376.526)"/>
<use data-text="," xlink:href="#font_1_2" transform="matrix(10.909644,0,0,-10.9091,91.60893,372.764)"/>
<use data-text="&#x2212;" xlink:href="#font_7_1" transform="matrix(10.909644,0,0,-10.9091,96.45717,372.764)"/>
<use data-text="&#x221a;" xlink:href="#font_3_2" transform="matrix(7.970498,0,0,-7.9701,106.13866,361.77003)"/>
<path transform="matrix(1.00005,0,0,-1,-230.91118,147.52)" stroke-width=".3587" stroke-linecap="butt" stroke-miterlimit="10" stroke-linejoin="miter" fill="none" stroke="#000000" d="M344.09-214.071H348.324"/>
<use data-text="2" xlink:href="#font_5_2" transform="matrix(7.970498,0,0,-7.9701,113.196,368.36903)"/>
<path transform="matrix(1.00005,0,0,-1,-230.91118,147.52)" stroke-width=".4364" stroke-linecap="butt" stroke-miterlimit="10" stroke-linejoin="miter" fill="none" stroke="#000000" d="M337.033-222.516H348.324"/>
<use data-text="2" xlink:href="#font_5_2" transform="matrix(7.970498,0,0,-7.9701,109.666828,376.526)"/>
<use data-text=")" xlink:href="#font_6_2" transform="matrix(10.909644,0,0,-10.9091,118.62529,360.655)"/>
<path transform="matrix(1.00005,0,0,-1,226.8327,237.244)" stroke-width=".3985" stroke-linecap="round" stroke-miterlimit="10" stroke-linejoin="miter" fill="none" stroke="#000000" d="M-93.89882-162.63806"/>
<path transform="matrix(1.00005,0,0,-1,226.8327,237.244)" d="M-125.11314-176.09246H-62.684488V-149.18366H-125.11314Z" fill="#ffffff"/>
<use data-text="(" xlink:href="#font_6_1" transform="matrix(10.909644,0,0,-10.9091,105.34964,390.5)"/>
<use data-text="&#x2212;" xlink:href="#font_7_1" transform="matrix(10.909644,0,0,-10.9091,111.86597,402.609)"/>
<use data-text="1" xlink:href="#font_5_1" transform="matrix(7.970498,0,0,-7.9701,121.54642,398.313)"/>
<path transform="matrix(1.00005,0,0,-1,-188.48606,177.365)" stroke-width=".4364" stroke-linecap="butt" stroke-miterlimit="10" stroke-linejoin="miter" fill="none" stroke="#000000" d="M310.017-222.516H314.251"/>
<use data-text="2" xlink:href="#font_5_2" transform="matrix(7.970498,0,0,-7.9701,121.54642,406.371)"/>
<use data-text="," xlink:href="#font_1_2" transform="matrix(10.909644,0,0,-10.9091,126.976688,402.609)"/>
<use data-text="&#x2212;" xlink:href="#font_7_1" transform="matrix(10.909644,0,0,-10.9091,131.82492,402.609)"/>
<use data-text="&#x221a;" xlink:href="#font_3_2" transform="matrix(7.970498,0,0,-7.9701,141.50641,391.615)"/>
<path transform="matrix(1.00005,0,0,-1,-188.48606,177.365)" stroke-width=".3587" stroke-linecap="butt" stroke-miterlimit="10" stroke-linejoin="miter" fill="none" stroke="#000000" d="M337.033-214.071H341.267"/>
<use data-text="3" xlink:href="#font_5_3" transform="matrix(7.970498,0,0,-7.9701,148.56378,398.214)"/>
<path transform="matrix(1.00005,0,0,-1,-188.48606,177.365)" stroke-width=".4364" stroke-linecap="butt" stroke-miterlimit="10" stroke-linejoin="miter" fill="none" stroke="#000000" d="M329.976-222.516H341.267"/>
<use data-text="2" xlink:href="#font_5_2" transform="matrix(7.970498,0,0,-7.9701,145.0346,406.371)"/>
<use data-text=")" xlink:href="#font_6_2" transform="matrix(10.909644,0,0,-10.9091,153.99308,390.5)"/>
<path transform="matrix(1.00005,0,0,-1,226.8327,237.244)" stroke-width=".3985" stroke-linecap="round" stroke-miterlimit="10" stroke-linejoin="miter" fill="none" stroke="#000000" d="M162.63806-93.89882"/>
<path transform="matrix(1.00005,0,0,-1,226.8327,237.244)" d="M135.66622-107.35321H189.60988V-80.44441H135.66622Z" fill="#ffffff"/>
<use data-text="(" xlink:href="#font_6_1" transform="matrix(10.909644,0,0,-10.9091,366.14167,321.761)"/>
<use data-text="&#x221a;" xlink:href="#font_3_2" transform="matrix(7.970498,0,0,-7.9701,373.85307,322.876)"/>
<path transform="matrix(1.00005,0,0,-1,72.30597,108.626)" stroke-width=".3587" stroke-linecap="butt" stroke-miterlimit="10" stroke-linejoin="miter" fill="none" stroke="#000000" d="M308.589-214.071H312.823"/>
<use data-text="3" xlink:href="#font_5_3" transform="matrix(7.970498,0,0,-7.9701,380.91038,329.475)"/>
<path transform="matrix(1.00005,0,0,-1,72.30597,108.626)" stroke-width=".4364" stroke-linecap="butt" stroke-miterlimit="10" stroke-linejoin="miter" fill="none" stroke="#000000" d="M301.532-222.516H312.823"/>
<use data-text="2" xlink:href="#font_5_2" transform="matrix(7.970498,0,0,-7.9701,377.3822,337.632)"/>
<use data-text="," xlink:href="#font_1_2" transform="matrix(10.909644,0,0,-10.9091,386.34068,333.87)"/>
<use data-text="&#x2212;" xlink:href="#font_7_1" transform="matrix(10.909644,0,0,-10.9091,391.1889,333.87)"/>
<use data-text="1" xlink:href="#font_5_1" transform="matrix(7.970498,0,0,-7.9701,400.8704,329.574)"/>
<path transform="matrix(1.00005,0,0,-1,72.30597,108.626)" stroke-width=".4364" stroke-linecap="butt" stroke-miterlimit="10" stroke-linejoin="miter" fill="none" stroke="#000000" d="M328.548-222.516H332.782"/>
<use data-text="2" xlink:href="#font_5_2" transform="matrix(7.970498,0,0,-7.9701,400.8704,337.632)"/>
<use data-text=")" xlink:href="#font_6_2" transform="matrix(10.909644,0,0,-10.9091,406.29966,321.761)"/>
<path transform="matrix(1.00005,0,0,-1,226.8327,237.244)" stroke-width=".3985" stroke-linecap="round" stroke-miterlimit="10" stroke-linejoin="miter" fill="none" stroke="#000000" d="M132.79312-132.79312"/>
<path transform="matrix(1.00005,0,0,-1,226.8327,237.244)" d="M102.29276-146.24753H163.29349V-119.33873H102.29276Z" fill="#ffffff"/>
<use data-text="(" xlink:href="#font_6_1" transform="matrix(10.909644,0,0,-10.9091,332.767,360.655)"/>
<use data-text="&#x221a;" xlink:href="#font_3_2" transform="matrix(7.970498,0,0,-7.9701,340.4784,361.77003)"/>
<path transform="matrix(1.00005,0,0,-1,38.931306,147.52)" stroke-width=".3587" stroke-linecap="butt" stroke-miterlimit="10" stroke-linejoin="miter" fill="none" stroke="#000000" d="M308.589-214.071H312.823"/>
<use data-text="2" xlink:href="#font_5_2" transform="matrix(7.970498,0,0,-7.9701,347.5357,368.36903)"/>
<path transform="matrix(1.00005,0,0,-1,38.931306,147.52)" stroke-width=".4364" stroke-linecap="butt" stroke-miterlimit="10" stroke-linejoin="miter" fill="none" stroke="#000000" d="M301.532-222.516H312.823"/>
<use data-text="2" xlink:href="#font_5_2" transform="matrix(7.970498,0,0,-7.9701,344.00755,376.526)"/>
<use data-text="," xlink:href="#font_1_2" transform="matrix(10.909644,0,0,-10.9091,352.966,372.764)"/>
<use data-text="&#x2212;" xlink:href="#font_7_1" transform="matrix(10.909644,0,0,-10.9091,357.81425,372.764)"/>
<use data-text="&#x221a;" xlink:href="#font_3_2" transform="matrix(7.970498,0,0,-7.9701,367.49574,361.77003)"/>
<path transform="matrix(1.00005,0,0,-1,38.931306,147.52)" stroke-width=".3587" stroke-linecap="butt" stroke-miterlimit="10" stroke-linejoin="miter" fill="none" stroke="#000000" d="M335.605-214.071H339.839"/>
<use data-text="2" xlink:href="#font_5_2" transform="matrix(7.970498,0,0,-7.9701,374.55308,368.36903)"/>
<path transform="matrix(1.00005,0,0,-1,38.931306,147.52)" stroke-width=".4364" stroke-linecap="butt" stroke-miterlimit="10" stroke-linejoin="miter" fill="none" stroke="#000000" d="M328.548-222.516H339.839"/>
<use data-text="2" xlink:href="#font_5_2" transform="matrix(7.970498,0,0,-7.9701,371.0239,376.526)"/>
<use data-text=")" xlink:href="#font_6_2" transform="matrix(10.909644,0,0,-10.9091,379.98234,360.655)"/>
<path transform="matrix(1.00005,0,0,-1,226.8327,237.244)" stroke-width=".3985" stroke-linecap="round" stroke-miterlimit="10" stroke-linejoin="miter" fill="none" stroke="#000000" d="M93.89882-162.63806"/>
<path transform="matrix(1.00005,0,0,-1,226.8327,237.244)" d="M66.92697-176.09246H120.870639V-149.18366H66.92697Z" fill="#ffffff"/>
<use data-text="(" xlink:href="#font_6_1" transform="matrix(10.909644,0,0,-10.9091,297.39924,390.5)"/>
<use data-text="1" xlink:href="#font_5_1" transform="matrix(7.970498,0,0,-7.9701,305.11064,398.313)"/>
<path transform="matrix(1.00005,0,0,-1,3.5635377,177.365)" stroke-width=".4364" stroke-linecap="butt" stroke-miterlimit="10" stroke-linejoin="miter" fill="none" stroke="#000000" d="M301.532-222.516H305.766"/>
<use data-text="2" xlink:href="#font_5_2" transform="matrix(7.970498,0,0,-7.9701,305.11064,406.371)"/>
<use data-text="," xlink:href="#font_1_2" transform="matrix(10.909644,0,0,-10.9091,310.54087,402.609)"/>
<use data-text="&#x2212;" xlink:href="#font_7_1" transform="matrix(10.909644,0,0,-10.9091,315.3891,402.609)"/>
<use data-text="&#x221a;" xlink:href="#font_3_2" transform="matrix(7.970498,0,0,-7.9701,325.0706,391.615)"/>
<path transform="matrix(1.00005,0,0,-1,3.5635377,177.365)" stroke-width=".3587" stroke-linecap="butt" stroke-miterlimit="10" stroke-linejoin="miter" fill="none" stroke="#000000" d="M328.548-214.071H332.782"/>
<use data-text="3" xlink:href="#font_5_3" transform="matrix(7.970498,0,0,-7.9701,332.12797,398.214)"/>
<path transform="matrix(1.00005,0,0,-1,3.5635377,177.365)" stroke-width=".4364" stroke-linecap="butt" stroke-miterlimit="10" stroke-linejoin="miter" fill="none" stroke="#000000" d="M321.491-222.516H332.782"/>
<use data-text="2" xlink:href="#font_5_2" transform="matrix(7.970498,0,0,-7.9701,328.5988,406.371)"/>
<use data-text=")" xlink:href="#font_6_2" transform="matrix(10.909644,0,0,-10.9091,337.55726,390.5)"/>
<path transform="matrix(1.00005,0,0,-1,226.8327,237.244)" stroke-width=".3985" stroke-linecap="round" stroke-miterlimit="10" stroke-linejoin="miter" fill="none" stroke="#000000" d="M0 187.79773"/>
<use data-text="(" xlink:href="#font_2_1" transform="matrix(10.909644,0,0,-10.9091,22.660523,229.685)"/>
<use data-text="&#x2212;" xlink:href="#font_7_1" transform="matrix(10.909644,0,0,-10.9091,26.903748,229.685)"/>
<use data-text="1" xlink:href="#font_2_4" transform="matrix(10.909644,0,0,-10.9091,35.38916,229.685)"/>
<use data-text="," xlink:href="#font_1_2" transform="matrix(10.909644,0,0,-10.9091,40.843446,229.685)"/>
<use data-text="0" xlink:href="#font_2_3" transform="matrix(10.909644,0,0,-10.9091,45.692689,229.685)"/>
<use data-text=")" xlink:href="#font_2_2" transform="matrix(10.909644,0,0,-10.9091,51.147523,229.685)"/>
<use data-text="(" xlink:href="#font_2_1" transform="matrix(10.909644,0,0,-10.9091,402.51747,229.685)"/>
<use data-text="1" xlink:href="#font_2_4" transform="matrix(10.909644,0,0,-10.9091,406.75044,229.685)"/>
<use data-text="," xlink:href="#font_1_2" transform="matrix(10.909644,0,0,-10.9091,412.21498,229.685)"/>
<use data-text="0" xlink:href="#font_2_3" transform="matrix(10.909644,0,0,-10.9091,417.0642,229.685)"/>
<use data-text=")" xlink:href="#font_2_2" transform="matrix(10.909644,0,0,-10.9091,422.51905,229.685)"/>
<path transform="matrix(1.00005,0,0,-1,226.8327,237.244)" d="M-19.99986-196.88834H19.99988V-178.7071H-19.99986Z" fill="#ffffff"/>
<use data-text="(" xlink:href="#font_2_1" transform="matrix(10.909644,0,0,-10.9091,210.46788,427.76899)"/>
<use data-text="0" xlink:href="#font_2_3" transform="matrix(10.909644,0,0,-10.9091,214.70082,427.76899)"/>
<use data-text="," xlink:href="#font_1_2" transform="matrix(10.909644,0,0,-10.9091,220.16536,427.76899)"/>
<use data-text="&#x2212;" xlink:href="#font_7_1" transform="matrix(10.909644,0,0,-10.9091,225.0146,427.76899)"/>
<use data-text="1" xlink:href="#font_2_4" transform="matrix(10.909644,0,0,-10.9091,233.50002,427.76899)"/>
<use data-text=")" xlink:href="#font_2_2" transform="matrix(10.909644,0,0,-10.9091,238.95485,427.76899)"/>
<path transform="matrix(1.00005,0,0,-1,226.8327,237.244)" d="M-15.75737 178.7071H15.757389V196.88834H-15.75737Z" fill="#ffffff"/>
<use data-text="(" xlink:href="#font_2_1" transform="matrix(10.909644,0,0,-10.9091,214.71109,52.173997)"/>
<use data-text="0" xlink:href="#font_2_3" transform="matrix(10.909644,0,0,-10.9091,218.94403,52.173997)"/>
<use data-text="," xlink:href="#font_1_2" transform="matrix(10.909644,0,0,-10.9091,224.40857,52.173997)"/>
<use data-text="1" xlink:href="#font_2_4" transform="matrix(10.909644,0,0,-10.9091,229.25782,52.173997)"/>
<use data-text=")" xlink:href="#font_2_2" transform="matrix(10.909644,0,0,-10.9091,234.71265,52.173997)"/>
</svg>
