<svg xmlns="http://www.w3.org/2000/svg" xmlns:xlink="http://www.w3.org/1999/xlink" version="1.1" width="207" height="172" viewBox="0 0 207 172">
<defs>
<path id="font_1_1" d="M.6589966 .23046875C.6759949 .23046875 .69400027 .23046875 .69400027 .25045777 .69400027 .27046205 .6759949 .27046205 .6589966 .27046205H.117996219C.100997928 .27046205 .08299255 .27046205 .08299255 .25045777 .08299255 .23046875 .100997928 .23046875 .117996219 .23046875H.6589966Z"/>
<path id="font_2_4" d="M.2939911 .16503906V.07800293C.2939911 .041992189 .2919922 .0309906 .21798706 .0309906H.19699097V0C.23799134 .0029907227 .2899933 .0029907227 .33198548 .0029907227 .37399293 .0029907227 .4269867 .0029907227 .46798707 0V.0309906H.44699098C.37298585 .0309906 .37098695 .041992189 .37098695 .07800293V.16503906H.47099305V.19602967H.37098695V.65075686C.37098695 .67074587 .37098695 .6767578 .35499574 .6767578 .34599305 .6767578 .34298707 .6767578 .33499146 .66474917L.027999878 .19602967V.16503906H.2939911M.2999878 .19602967H.055999757L.2999878 .5688019V.19602967Z"/>
<path id="font_2_3" d="M.2899933 .35191346C.37199403 .37893678 .42999269 .4490509 .42999269 .52809146 .42999269 .6100464 .34199525 .6660156 .24598694 .6660156 .14498902 .6660156 .068984989 .60606387 .068984989 .53009036 .068984989 .49710084 .09098816 .47808839 .11999512 .47808839 .15098572 .47808839 .17098999 .50009158 .17098999 .5290985 .17098999 .57910159 .12399292 .57910159 .10899353 .57910159 .13999939 .62802127 .20599365 .64100649 .24198914 .64100649 .2829895 .64100649 .33799745 .6190338 .33799745 .5290985 .33799745 .51708987 .33599855 .45906068 .30999757 .4149933 .27999879 .36691285 .24598694 .36390687 .22099304 .36291505 .21299744 .36190797 .18899536 .35990907 .18199158 .35990907 .17399597 .35890199 .16699219 .35791017 .16699219 .3479004 .16699219 .33691407 .17399597 .33691407 .19099427 .33691407H.23498535C.31698609 .33691407 .35398866 .2686615 .35398866 .17037964 .35398866 .034469606 .2849884 .0055389406 .24099732 .0055389406 .19799805 .0055389406 .12298584 .022491456 .08799744 .08137512 .12298584 .07637024 .1539917 .09837341 .1539917 .1363678 .1539917 .17237854 .1269989 .19238281 .09799194 .19238281 .07398987 .19238281 .041992189 .17837525 .041992189 .1343689 .041992189 .043441774 .1349945-.022460938 .24398804-.022460938 .3659973-.022460938 .45700074 .06838989 .45700074 .17037964 .45700074 .252594 .3939972 .33088685 .2899933 .35191346Z"/>
<path id="font_2_2" d="M.1269989 .07699585 .23298645 .18003845C.3889923 .31811524 .44898988 .3721466 .44898988 .47216798 .44898988 .5860901 .35899354 .6660156 .23699951 .6660156 .12399292 .6660156 .049987794 .57411196 .049987794 .48516847 .049987794 .4291687 .099990848 .4291687 .102996829 .4291687 .11999512 .4291687 .15499878 .44117738 .15499878 .48217774 .15499878 .5081787 .13699341 .5341797 .101989749 .5341797 .09399414 .5341797 .09199524 .5341797 .08898926 .5331726 .11199951 .59806826 .1659851 .63500979 .22399903 .63500979 .31498719 .63500979 .35798646 .5541382 .35798646 .47216798 .35798646 .39215089 .30799867 .31311036 .25299073 .25108338L.06098938 .036987306C.049987794 .025985718 .049987794 .023986817 .049987794 0H.42099L.44898988 .17404175H.42399598C.4189911 .14402771 .4119873 .1000061 .4019928 .084991458 .394989 .07699585 .32899476 .07699585 .30699159 .07699585H.1269989Z"/>
<path id="font_2_1" d="M.2939911 .64004519C.2939911 .66400149 .2939911 .6660156 .2709961 .6660156 .20899964 .60227969 .12098694 .60227969 .08898926 .60227969V.57128909C.10899353 .57128909 .16799927 .57128909 .21998596 .5972748V.07902527C.21998596 .042999269 .21699524 .0309906 .1269989 .0309906H.09498596V0C.12998963 .0029907227 .21699524 .0029907227 .25698854 .0029907227 .29699708 .0029907227 .38398744 .0029907227 .4189911 0V.0309906H.3869934C.29699708 .0309906 .2939911 .041992189 .2939911 .07902527V.64004519Z"/>
<clipPath id="clip_3">
<path transform="matrix(1.00003,0,0,-1.00002,1.4670563,179.25734)" d="M0 8.96613H194.2676V170.3564H0Z"/>
</clipPath>
<path id="font_4_1" d="M.33399964 .30233766C.33999635 .32835389 .36299134 .42037965 .43299867 .42037965 .43798829 .42037965 .46199037 .42037965 .48298646 .40734864 .45498658 .402359 .43499757 .37734986 .43499757 .35334779 .43499757 .33735658 .44599916 .31835938 .47299195 .31835938 .49499513 .31835938 .5269928 .3363495 .5269928 .37635804 .5269928 .42837525 .46798707 .4423828 .43399049 .4423828 .37599183 .4423828 .34098817 .38935853 .32899476 .36634828 .3039856 .43237306 .25 .4423828 .22099304 .4423828 .116989139 .4423828 .05999756 .3133545 .05999756 .28834535 .05999756 .27833558 .069992069 .27833558 .07199097 .27833558 .07998657 .27833558 .08299255 .28033448 .084991458 .28933717 .11898804 .39535523 .18499756 .42037965 .21899414 .42037965 .23799134 .42037965 .272995 .4113617 .272995 .35334779 .272995 .32235719 .2559967 .25532533 .21899414 .11528015 .20298767 .053268434 .16799927 .011245728 .12399292 .011245728 .117996219 .011245728 .09498596 .011245728 .07398987 .024276734 .09899902 .029266358 .12098694 .05027771 .12098694 .07827759 .12098694 .105270389 .09899902 .11328125 .083999637 .11328125 .053985597 .11328125 .0289917 .08728027 .0289917 .055267335 .0289917 .009246826 .07899475-.0107421879 .12298584-.0107421879 .18899536-.0107421879 .22499085 .059280397 .22799683 .0652771 .23999024 .028274537 .27598573-.0107421879 .33599855-.0107421879 .43899537-.0107421879 .49598695 .118270877 .49598695 .14328003 .49598695 .1532898 .4869995 .1532898 .48399354 .1532898 .47499085 .1532898 .47299195 .14929199 .47099305 .14228821 .43798829 .03527832 .36999513 .011245728 .33799745 .011245728 .29899598 .011245728 .2829895 .043273927 .2829895 .07727051 .2829895 .09927368 .2889862 .121276859 .2999878 .16529846L.33399964 .30233766Z"/>
<path id="font_4_2" d="M.48599244 .38136292C.48999024 .39537049 .48999024 .39736939 .48999024 .40437318 .48999024 .42237855 .47599793 .43138124 .46099855 .43138124 .45098878 .43138124 .43499757 .42536927 .42599488 .41036988 .42399598 .405365 .41600038 .37435914 .4119873 .35635377 .40499879 .33035279 .397995 .30334474 .3919983 .27633668L.34700013 .09628296C.34298707 .08126831 .2999878 .011245728 .23399353 .011245728 .18299866 .011245728 .17199707 .055267335 .17199707 .0922699 .17199707 .1382904 .18899536 .20030213 .22299195 .28833009 .23899842 .3293457 .24299622 .3403473 .24299622 .36035157 .24299622 .405365 .21099854 .4423828 .16099549 .4423828 .06599426 .4423828 .0289917 .29733277 .0289917 .28833009 .0289917 .27833558 .038986207 .27833558 .040985109 .27833558 .050994874 .27833558 .051986696 .28033448 .056991579 .29634095 .083999637 .3903656 .12399292 .42037965 .1579895 .42037965 .1659851 .42037965 .18299866 .42037965 .18299866 .3883667 .18299866 .36335755 .17298889 .3373413 .1659851 .31834413 .12599182 .21231079 .10798645 .1552887 .10798645 .10827637 .10798645 .019256592 .17098999-.0107421879 .22999573-.0107421879 .2689972-.0107421879 .30299378 .0062561037 .33099366 .03425598 .31799317-.017745972 .30599977-.06674194 .2659912-.11973572 .23999024-.15385437 .20199585-.18309021 .1559906-.18309021 .14199829-.18309021 .09700012-.18005371 .07998657-.14074707 .09599304-.14074707 .10899353-.14074707 .12298584-.1287384 .1329956-.11973572 .14299011-.10673523 .14299011-.08773804 .14299011-.056747438 .115997318-.052734376 .10598755-.052734376 .08299255-.052734376 .049987794-.068740848 .049987794-.11773682 .049987794-.16796875 .09399414-.20507813 .1559906-.20507813 .25898744-.20507813 .3619995-.11373901 .3899994-.00074768069L.48599244 .38136292Z"/>
</defs>
<path transform="matrix(1.00003,0,0,-1.00002,1.4670563,179.25734)" stroke-width=".09962" stroke-linecap="butt" stroke-miterlimit="10" stroke-linejoin="miter" fill="none" stroke="#c0c0c0" d="M10.79263 8.96613V170.3564M32.37793 8.96613V170.3564M53.96321 8.96613V170.3564M75.54851 8.96613V170.3564M118.71909 8.96613V170.3564M140.30437 8.96613V170.3564M161.88967 8.96613V170.3564M183.47495 8.96613V170.3564"/>
<path transform="matrix(1.00003,0,0,-1.00002,1.4670563,179.25734)" stroke-width=".09962" stroke-linecap="butt" stroke-miterlimit="10" stroke-linejoin="miter" fill="none" stroke="#c0c0c0" d="M0 17.93225H194.2676M0 35.8645H194.2676M0 53.79675H194.2676M0 71.729H194.2676M0 107.59352H194.2676M0 125.52577H194.2676M0 143.45803H194.2676M0 161.39028H194.2676"/>
<path transform="matrix(1.00003,0,0,-1.00002,1.4670563,179.25734)" stroke-width=".19925" stroke-linecap="butt" stroke-miterlimit="10" stroke-linejoin="miter" fill="none" stroke="#929292" d="M10.79263 87.53539V91.78712M32.37793 87.53539V91.78712M53.96321 87.53539V91.78712M75.54851 87.53539V91.78712M118.71909 87.53539V91.78712M140.30437 87.53539V91.78712M161.88967 87.53539V91.78712M183.47495 87.53539V91.78712"/>
<path transform="matrix(1.00003,0,0,-1.00002,1.4670563,179.25734)" stroke-width=".19925" stroke-linecap="butt" stroke-miterlimit="10" stroke-linejoin="miter" fill="none" stroke="#929292" d="M95.00781 17.93225H99.25977M95.00781 35.8645H99.25977M95.00781 53.79675H99.25977M95.00781 71.729H99.25977M95.00781 107.59352H99.25977M95.00781 125.52577H99.25977M95.00781 143.45803H99.25977M95.00781 161.39028H99.25977"/>
<path transform="matrix(1.00003,0,0,-1.00002,1.4670563,179.25734)" stroke-width=".3985" stroke-linecap="butt" stroke-miterlimit="10" stroke-linejoin="miter" fill="none" stroke="#000000" d="M0 89.66125H192.27507"/>
<path transform="matrix(1.00003,0,0,-1.00002,193.74791,89.5943)" d="M1.99252 0-1.19551 1.59401 0 0-1.19551-1.59401"/>
<path transform="matrix(1.00003,0,0,-1.00002,1.4670563,179.25734)" stroke-width=".3985" stroke-linecap="butt" stroke-miterlimit="10" stroke-linejoin="miter" fill="none" stroke="#000000" d="M97.13379 8.96613V168.36388"/>
<path transform="matrix(0,-1.00002,-1.00003,-0,98.60376,10.890091)" d="M1.99252 0-1.19551 1.59401 0 0-1.19551-1.59401"/>
<use data-text="&#x2212;" xlink:href="#font_1_1" transform="matrix(9.962899,0,0,-9.962799,5.8951876,101.97579)"/>
<use data-text="4" xlink:href="#font_2_4" transform="matrix(9.962899,0,0,-9.962799,13.644424,101.97579)"/>
<use data-text="&#x2212;" xlink:href="#font_1_1" transform="matrix(9.962899,0,0,-9.962799,27.480839,101.97579)"/>
<use data-text="3" xlink:href="#font_2_3" transform="matrix(9.962899,0,0,-9.962799,35.230077,101.97579)"/>
<use data-text="&#x2212;" xlink:href="#font_1_1" transform="matrix(9.962899,0,0,-9.962799,49.066488,101.97579)"/>
<use data-text="2" xlink:href="#font_2_2" transform="matrix(9.962899,0,0,-9.962799,56.815725,101.97579)"/>
<use data-text="&#x2212;" xlink:href="#font_1_1" transform="matrix(9.962899,0,0,-9.962799,70.65213,101.97579)"/>
<use data-text="1" xlink:href="#font_2_1" transform="matrix(9.962899,0,0,-9.962799,78.40137,101.97579)"/>
<use data-text="1" xlink:href="#font_2_1" transform="matrix(9.962899,0,0,-9.962799,117.69855,101.97579)"/>
<use data-text="2" xlink:href="#font_2_2" transform="matrix(9.962899,0,0,-9.962799,139.28519,101.97579)"/>
<use data-text="3" xlink:href="#font_2_3" transform="matrix(9.962899,0,0,-9.962799,160.87085,101.97579)"/>
<use data-text="4" xlink:href="#font_2_4" transform="matrix(9.962899,0,0,-9.962799,182.45648,101.97579)"/>
<use data-text="&#x2212;" xlink:href="#font_1_1" transform="matrix(9.962899,0,0,-9.962799,79.911418,164.12004)"/>
<use data-text="4" xlink:href="#font_2_4" transform="matrix(9.962899,0,0,-9.962799,87.66065,164.12004)"/>
<use data-text="&#x2212;" xlink:href="#font_1_1" transform="matrix(9.962899,0,0,-9.962799,79.911418,146.18769)"/>
<use data-text="3" xlink:href="#font_2_3" transform="matrix(9.962899,0,0,-9.962799,87.66065,146.18769)"/>
<use data-text="&#x2212;" xlink:href="#font_1_1" transform="matrix(9.962899,0,0,-9.962799,79.911418,128.25432)"/>
<use data-text="2" xlink:href="#font_2_2" transform="matrix(9.962899,0,0,-9.962799,87.66065,128.25432)"/>
<use data-text="&#x2212;" xlink:href="#font_1_1" transform="matrix(9.962899,0,0,-9.962799,79.911418,110.32196)"/>
<use data-text="1" xlink:href="#font_2_1" transform="matrix(9.962899,0,0,-9.962799,87.66065,110.32196)"/>
<use data-text="1" xlink:href="#font_2_1" transform="matrix(9.962899,0,0,-9.962799,87.660648,74.872249)"/>
<use data-text="2" xlink:href="#font_2_2" transform="matrix(9.962899,0,0,-9.962799,87.660648,56.93889)"/>
<use data-text="3" xlink:href="#font_2_3" transform="matrix(9.962899,0,0,-9.962799,87.660648,39.00653)"/>
<use data-text="4" xlink:href="#font_2_4" transform="matrix(9.962899,0,0,-9.962799,87.660648,21.074173)"/>
<g clip-path="url(#clip_3)">
<path transform="matrix(1.00003,0,0,-1.00002,1.4670563,179.25734)" stroke-width=".79701" stroke-linecap="butt" stroke-miterlimit="10" stroke-linejoin="miter" fill="none" stroke="#000000" d="M10.79263 53.79675 12.5914 59.64961 14.39015 65.2534 16.18893 70.60815 17.98769 75.71382 19.78647 80.57054 21.58522 85.1781 23.38399 89.53662 25.18275 93.64607 26.98152 97.50648 28.7803 101.11783 30.57906 104.48012 32.37784 107.59335 34.17659 110.45753 35.97537 113.07266 37.77412 115.43874 39.5729 117.55574 41.37166 119.42369 43.17044 121.04259 44.9692 122.41241 46.76796 123.5332 48.56673 124.40492 50.3655 125.0276 52.16426 125.4012 53.96303 125.52577"/>
<path transform="matrix(1.00003,0,0,-1.00002,1.4670563,179.25734)" stroke-width=".79701" stroke-linecap="butt" stroke-miterlimit="10" stroke-linejoin="miter" fill="none" stroke="#000000" d="M53.96321 125.52577 56.66136 116.83983 59.35954 108.71428 62.0577 101.14911 64.75586 94.14432 67.45401 87.69992 70.15218 81.8159 72.85034 76.49226 75.54851 71.729 78.24666 67.52614 80.94482 63.88365 83.64297 60.80153 86.34116 58.27982 89.0393 56.31847 91.73747 54.91753 94.43562 54.07693 97.13379 53.79675 99.83194 54.07693 102.53012 54.91753 105.22827 56.31847 107.92644 58.27982 110.62459 60.80153 113.32275 63.88365 116.02092 67.52614 118.71909 71.729"/>
<path transform="matrix(1.00003,0,0,-1.00002,1.4670563,179.25734)" stroke-width=".79701" stroke-linecap="butt" stroke-dasharray="2.98883,1.99255" stroke-miterlimit="10" stroke-linejoin="miter" fill="none" stroke="#000000" d="M43.17058 0 44.51964 4.48306 45.86873 8.96613 47.2178 13.44919 48.5669 17.93225 49.91595 22.41531 51.26505 26.89838 52.61414 31.38144 53.96321 35.8645 55.31229 40.34756 56.66136 44.83063 58.01045 49.31369 59.35954 53.79675 60.7086 58.27982 62.0577 62.76288 63.40677 67.24594 64.75586 71.729 66.10493 76.21207 67.45401 80.69513 68.8031 85.17819 70.15218 89.66125 71.50125 94.14432 72.85034 98.62738 74.19942 103.11046 75.54851 107.59352"/>
<path transform="matrix(1.00003,0,0,-1.00002,1.4670563,179.25734)" stroke-width=".79701" stroke-linecap="butt" stroke-dasharray="2.98883,1.99255" stroke-miterlimit="10" stroke-linejoin="miter" fill="none" stroke="#000000" d="M75.54851 107.59352 80.04543 106.84634 84.54236 106.09917 89.03929 105.35199 93.53621 104.60481 98.03316 103.85764 102.53009 103.11046 107.02701 102.36328 111.52394 101.6161 116.02087 100.86893 120.5178 100.12173 125.01474 99.37456 129.51168 98.62738 134.00859 97.8802 138.50553 97.13303 143.00247 96.38585 147.49939 95.63867 151.99633 94.8915 156.49324 94.14432 160.99019 93.39714 165.48712 92.64996 169.98404 91.9028 174.48097 91.15562 178.9779 90.40843 183.47484 89.66127"/>
<path transform="matrix(1.00003,0,0,-1.00002,1.4670563,179.25734)" stroke-width=".79701" stroke-linecap="butt" stroke-miterlimit="10" stroke-linejoin="miter" fill="none" stroke="#000000" d="M118.71909 143.45803 120.51784 138.97498 122.3166 134.49195 124.11537 130.00891 125.91414 125.52588 127.7129 121.04276 129.51168 116.55972 131.31044 112.07669 133.10919 107.59364 134.90798 103.1106 136.70674 98.62756 138.50551 94.14453 140.30428 89.6615 142.10305 85.17845 143.90181 80.69542 145.70058 76.21231 147.49935 71.72926 149.29811 67.24623 151.09688 62.7632 152.89565 58.28017 154.69441 53.79713 156.49317 49.31409 158.29195 44.83105 160.0907 40.34795 161.88948 35.8649"/>
</g>
<use data-text="x" xlink:href="#font_4_1" transform="matrix(10.909428,0,0,-10.909318,199.576,91.94259)"/>
<use data-text="y" xlink:href="#font_4_2" transform="matrix(10.909428,0,0,-10.909318,95.73389,5.9298708)"/>
<path transform="matrix(1.00003,0,0,-1.00002,1.4670639,170.29117)" d="M56.79807 116.55965C56.79807 118.12529 55.52887 119.39449 53.96321 119.39449 52.39757 119.39449 51.12837 118.12529 51.12837 116.55965 51.12837 114.99399 52.39757 113.7248 53.96321 113.7248 55.52887 113.7248 56.79807 114.99399 56.79807 116.55965ZM53.96321 116.55965" fill="#ffffff"/>
<path transform="matrix(1.00003,0,0,-1.00002,1.4670639,170.29117)" stroke-width=".3985" stroke-linecap="butt" stroke-miterlimit="10" stroke-linejoin="miter" fill="none" stroke="#000000" d="M56.79807 116.55965C56.79807 118.12529 55.52887 119.39449 53.96321 119.39449 52.39757 119.39449 51.12837 118.12529 51.12837 116.55965 51.12837 114.99399 52.39757 113.7248 53.96321 113.7248 55.52887 113.7248 56.79807 114.99399 56.79807 116.55965ZM53.96321 116.55965"/>
<path transform="matrix(1.00003,0,0,-1.00002,1.4670639,170.29117)" d="M56.79807 80.69513C56.79807 82.26079 55.52887 83.52998 53.96321 83.52998 52.39757 83.52998 51.12837 82.26079 51.12837 80.69513 51.12837 79.12949 52.39757 77.86029 53.96321 77.86029 55.52887 77.86029 56.79807 79.12949 56.79807 80.69513ZM53.96321 80.69513"/>
<path transform="matrix(1.00003,0,0,-1.00002,1.4670639,170.29117)" d="M78.38335 98.62738C78.38335 100.19304 77.11415 101.46223 75.54851 101.46223 73.98285 101.46223 72.71365 100.19304 72.71365 98.62738 72.71365 97.06174 73.98285 95.79254 75.54851 95.79254 77.11415 95.79254 78.38335 97.06174 78.38335 98.62738ZM75.54851 98.62738" fill="#ffffff"/>
<path transform="matrix(1.00003,0,0,-1.00002,1.4670639,170.29117)" stroke-width=".3985" stroke-linecap="butt" stroke-miterlimit="10" stroke-linejoin="miter" fill="none" stroke="#000000" d="M78.38335 98.62738C78.38335 100.19304 77.11415 101.46223 75.54851 101.46223 73.98285 101.46223 72.71365 100.19304 72.71365 98.62738 72.71365 97.06174 73.98285 95.79254 75.54851 95.79254 77.11415 95.79254 78.38335 97.06174 78.38335 98.62738ZM75.54851 98.62738"/>
<path transform="matrix(1.00003,0,0,-1.00002,1.4670639,170.29117)" d="M121.55394 62.76288C121.55394 64.32854 120.28473 65.59773 118.71909 65.59773 117.15343 65.59773 115.88423 64.32854 115.88423 62.76288 115.88423 61.19724 117.15343 59.92802 118.71909 59.92802 120.28473 59.92802 121.55394 61.19724 121.55394 62.76288ZM118.71909 62.76288" fill="#ffffff"/>
<path transform="matrix(1.00003,0,0,-1.00002,1.4670639,170.29117)" stroke-width=".3985" stroke-linecap="butt" stroke-miterlimit="10" stroke-linejoin="miter" fill="none" stroke="#000000" d="M121.55394 62.76288C121.55394 64.32854 120.28473 65.59773 118.71909 65.59773 117.15343 65.59773 115.88423 64.32854 115.88423 62.76288 115.88423 61.19724 117.15343 59.92802 118.71909 59.92802 120.28473 59.92802 121.55394 61.19724 121.55394 62.76288ZM118.71909 62.76288"/>
<path transform="matrix(1.00003,0,0,-1.00002,1.4670639,170.29117)" d="M121.55394 134.4919C121.55394 136.05754 120.28473 137.32675 118.71909 137.32675 117.15343 137.32675 115.88423 136.05754 115.88423 134.4919 115.88423 132.92624 117.15343 131.65705 118.71909 131.65705 120.28473 131.65705 121.55394 132.92624 121.55394 134.4919ZM118.71909 134.4919"/>
</svg>
